<?xml version="1.0" encoding="utf-8"?>
<!-- Generator: Adobe Illustrator 19.2.0, SVG Export Plug-In . SVG Version: 6.00 Build 0)  -->
<svg version="1.1" id="Layer_1" xmlns="http://www.w3.org/2000/svg" xmlns:xlink="http://www.w3.org/1999/xlink" x="0px" y="0px"
	 viewBox="0 0 409 203" style="enable-background:new 0 0 409 203;" xml:space="preserve">
<style type="text/css">
	.st0{fill:#FFCC66;}
	.st1{fill:#DFE8F1;}
	.st2{fill:none;stroke:#DFE8F1;stroke-width:1.9;stroke-miterlimit:10;}
	.st3{fill:none;stroke:#94B0D0;stroke-width:1.9;stroke-miterlimit:10;}
	.st4{clip-path:url(#SVGID_2_);}
	.st5{clip-path:url(#SVGID_4_);fill:#246EB0;}
	.st6{clip-path:url(#SVGID_4_);fill:none;stroke:#246EB0;stroke-width:2.15;stroke-miterlimit:10;}
	.st7{clip-path:url(#SVGID_4_);fill:#3177B5;}
	.st8{clip-path:url(#SVGID_4_);fill:none;stroke:#3177B5;stroke-width:2.15;stroke-miterlimit:10;}
	.st9{clip-path:url(#SVGID_4_);fill:#3F80BA;}
	.st10{clip-path:url(#SVGID_4_);fill:none;stroke:#3F80BA;stroke-width:2.15;stroke-miterlimit:10;}
	.st11{clip-path:url(#SVGID_4_);fill:#4B88BE;}
	.st12{clip-path:url(#SVGID_4_);fill:none;stroke:#4B88BE;stroke-width:2.15;stroke-miterlimit:10;}
	.st13{clip-path:url(#SVGID_4_);fill:#5790C3;}
	.st14{clip-path:url(#SVGID_4_);fill:none;stroke:#5790C3;stroke-width:2.15;stroke-miterlimit:10;}
	.st15{clip-path:url(#SVGID_4_);fill:#6398C7;}
	.st16{clip-path:url(#SVGID_4_);fill:none;stroke:#6398C7;stroke-width:2.15;stroke-miterlimit:10;}
	.st17{clip-path:url(#SVGID_4_);fill:#6E9FCB;}
	.st18{clip-path:url(#SVGID_4_);fill:none;stroke:#6E9FCB;stroke-width:2.15;stroke-miterlimit:10;}
	.st19{clip-path:url(#SVGID_4_);fill:#79A6CF;}
	.st20{clip-path:url(#SVGID_4_);fill:none;stroke:#79A6CF;stroke-width:2.15;stroke-miterlimit:10;}
	.st21{clip-path:url(#SVGID_4_);fill:#84ADD3;}
	.st22{clip-path:url(#SVGID_4_);fill:none;stroke:#84ADD3;stroke-width:2.15;stroke-miterlimit:10;}
	.st23{clip-path:url(#SVGID_4_);fill:#8EB4D6;}
	.st24{clip-path:url(#SVGID_4_);fill:none;stroke:#8EB4D6;stroke-width:2.15;stroke-miterlimit:10;}
	.st25{clip-path:url(#SVGID_4_);fill:#97BADA;}
	.st26{clip-path:url(#SVGID_4_);fill:none;stroke:#97BADA;stroke-width:2.15;stroke-miterlimit:10;}
	.st27{clip-path:url(#SVGID_4_);fill:#A1C1DD;}
	.st28{clip-path:url(#SVGID_4_);fill:none;stroke:#A1C1DD;stroke-width:2.15;stroke-miterlimit:10;}
	.st29{clip-path:url(#SVGID_4_);fill:#A9C6E0;}
	.st30{clip-path:url(#SVGID_4_);fill:none;stroke:#A9C6E0;stroke-width:2.15;stroke-miterlimit:10;}
	.st31{clip-path:url(#SVGID_4_);fill:#B2CCE3;}
	.st32{clip-path:url(#SVGID_4_);fill:none;stroke:#B2CCE3;stroke-width:2.15;stroke-miterlimit:10;}
	.st33{clip-path:url(#SVGID_4_);fill:#BAD1E6;}
	.st34{clip-path:url(#SVGID_4_);fill:none;stroke:#BAD1E6;stroke-width:2.15;stroke-miterlimit:10;}
	.st35{clip-path:url(#SVGID_4_);fill:#C1D6E9;}
	.st36{clip-path:url(#SVGID_4_);fill:none;stroke:#C1D6E9;stroke-width:2.15;stroke-miterlimit:10;}
	.st37{clip-path:url(#SVGID_4_);fill:#C8DBEB;}
	.st38{clip-path:url(#SVGID_4_);fill:none;stroke:#C8DBEB;stroke-width:2.15;stroke-miterlimit:10;}
	.st39{clip-path:url(#SVGID_4_);fill:#CFDFEE;}
	.st40{clip-path:url(#SVGID_4_);fill:none;stroke:#CFDFEE;stroke-width:2.15;stroke-miterlimit:10;}
	.st41{clip-path:url(#SVGID_4_);fill:#D5E3F0;}
	.st42{clip-path:url(#SVGID_4_);fill:none;stroke:#D5E3F0;stroke-width:2.15;stroke-miterlimit:10;}
	.st43{clip-path:url(#SVGID_4_);fill:#DBE7F2;}
	.st44{clip-path:url(#SVGID_4_);fill:none;stroke:#DBE7F2;stroke-width:2.15;stroke-miterlimit:10;}
	.st45{clip-path:url(#SVGID_4_);fill:#E0EBF4;}
	.st46{clip-path:url(#SVGID_4_);fill:none;stroke:#E0EBF4;stroke-width:2.15;stroke-miterlimit:10;}
	.st47{clip-path:url(#SVGID_4_);fill:#E5EEF6;}
	.st48{clip-path:url(#SVGID_4_);fill:none;stroke:#E5EEF6;stroke-width:2.15;stroke-miterlimit:10;}
	.st49{clip-path:url(#SVGID_4_);fill:#EAF1F7;}
	.st50{clip-path:url(#SVGID_4_);fill:none;stroke:#EAF1F7;stroke-width:2.15;stroke-miterlimit:10;}
	.st51{clip-path:url(#SVGID_4_);fill:#EEF4F9;}
	.st52{clip-path:url(#SVGID_4_);fill:none;stroke:#EEF4F9;stroke-width:2.15;stroke-miterlimit:10;}
	.st53{clip-path:url(#SVGID_4_);fill:#F1F6FA;}
	.st54{clip-path:url(#SVGID_4_);fill:none;stroke:#F1F6FA;stroke-width:2.15;stroke-miterlimit:10;}
	.st55{clip-path:url(#SVGID_4_);fill:#F5F8FB;}
	.st56{clip-path:url(#SVGID_4_);fill:none;stroke:#F5F8FB;stroke-width:2.15;stroke-miterlimit:10;}
	.st57{clip-path:url(#SVGID_4_);fill:#F7FAFC;}
	.st58{clip-path:url(#SVGID_4_);fill:none;stroke:#F7FAFC;stroke-width:2.15;stroke-miterlimit:10;}
	.st59{clip-path:url(#SVGID_4_);fill:#FAFBFD;}
	.st60{clip-path:url(#SVGID_4_);fill:none;stroke:#FAFBFD;stroke-width:2.15;stroke-miterlimit:10;}
	.st61{clip-path:url(#SVGID_4_);fill:#FCFDFE;}
	.st62{clip-path:url(#SVGID_4_);fill:none;stroke:#FCFDFE;stroke-width:2.15;stroke-miterlimit:10;}
	.st63{clip-path:url(#SVGID_4_);fill:#FDFEFE;}
	.st64{clip-path:url(#SVGID_4_);fill:none;stroke:#FDFEFE;stroke-width:2.15;stroke-miterlimit:10;}
	.st65{clip-path:url(#SVGID_4_);fill:#FEFEFF;}
	.st66{clip-path:url(#SVGID_4_);fill:none;stroke:#FEFEFF;stroke-width:2.15;stroke-miterlimit:10;}
	.st67{clip-path:url(#SVGID_4_);fill:#FFFFFF;}
	.st68{clip-path:url(#SVGID_4_);fill:none;stroke:#FFFFFF;stroke-width:2.15;stroke-miterlimit:10;}
	.st69{clip-path:url(#SVGID_6_);}
	.st70{clip-path:url(#SVGID_8_);fill:#246EB0;}
	.st71{clip-path:url(#SVGID_8_);fill:none;stroke:#246EB0;stroke-width:2.15;stroke-miterlimit:10;}
	.st72{clip-path:url(#SVGID_8_);fill:#3177B5;}
	.st73{clip-path:url(#SVGID_8_);fill:none;stroke:#3177B5;stroke-width:2.15;stroke-miterlimit:10;}
	.st74{clip-path:url(#SVGID_8_);fill:#3F80BA;}
	.st75{clip-path:url(#SVGID_8_);fill:none;stroke:#3F80BA;stroke-width:2.15;stroke-miterlimit:10;}
	.st76{clip-path:url(#SVGID_8_);fill:#4B88BE;}
	.st77{clip-path:url(#SVGID_8_);fill:none;stroke:#4B88BE;stroke-width:2.15;stroke-miterlimit:10;}
	.st78{clip-path:url(#SVGID_8_);fill:#5790C3;}
	.st79{clip-path:url(#SVGID_8_);fill:none;stroke:#5790C3;stroke-width:2.15;stroke-miterlimit:10;}
	.st80{clip-path:url(#SVGID_8_);fill:#6398C7;}
	.st81{clip-path:url(#SVGID_8_);fill:none;stroke:#6398C7;stroke-width:2.15;stroke-miterlimit:10;}
	.st82{clip-path:url(#SVGID_8_);fill:#6E9FCB;}
	.st83{clip-path:url(#SVGID_8_);fill:none;stroke:#6E9FCB;stroke-width:2.15;stroke-miterlimit:10;}
	.st84{clip-path:url(#SVGID_8_);fill:#79A6CF;}
	.st85{clip-path:url(#SVGID_8_);fill:none;stroke:#79A6CF;stroke-width:2.15;stroke-miterlimit:10;}
	.st86{clip-path:url(#SVGID_8_);fill:#84ADD3;}
	.st87{clip-path:url(#SVGID_8_);fill:none;stroke:#84ADD3;stroke-width:2.15;stroke-miterlimit:10;}
	.st88{clip-path:url(#SVGID_8_);fill:#8EB4D6;}
	.st89{clip-path:url(#SVGID_8_);fill:none;stroke:#8EB4D6;stroke-width:2.15;stroke-miterlimit:10;}
	.st90{clip-path:url(#SVGID_8_);fill:#97BADA;}
	.st91{clip-path:url(#SVGID_8_);fill:none;stroke:#97BADA;stroke-width:2.15;stroke-miterlimit:10;}
	.st92{clip-path:url(#SVGID_8_);fill:#A1C1DD;}
	.st93{clip-path:url(#SVGID_8_);fill:none;stroke:#A1C1DD;stroke-width:2.15;stroke-miterlimit:10;}
	.st94{clip-path:url(#SVGID_8_);fill:#A9C6E0;}
	.st95{clip-path:url(#SVGID_8_);fill:none;stroke:#A9C6E0;stroke-width:2.15;stroke-miterlimit:10;}
	.st96{clip-path:url(#SVGID_8_);fill:#B2CCE3;}
	.st97{clip-path:url(#SVGID_8_);fill:none;stroke:#B2CCE3;stroke-width:2.15;stroke-miterlimit:10;}
	.st98{clip-path:url(#SVGID_8_);fill:#BAD1E6;}
	.st99{clip-path:url(#SVGID_8_);fill:none;stroke:#BAD1E6;stroke-width:2.15;stroke-miterlimit:10;}
	.st100{clip-path:url(#SVGID_8_);fill:#C1D6E9;}
	.st101{clip-path:url(#SVGID_8_);fill:none;stroke:#C1D6E9;stroke-width:2.15;stroke-miterlimit:10;}
	.st102{clip-path:url(#SVGID_8_);fill:#C8DBEB;}
	.st103{clip-path:url(#SVGID_8_);fill:none;stroke:#C8DBEB;stroke-width:2.15;stroke-miterlimit:10;}
	.st104{clip-path:url(#SVGID_8_);fill:#CFDFEE;}
	.st105{clip-path:url(#SVGID_8_);fill:none;stroke:#CFDFEE;stroke-width:2.15;stroke-miterlimit:10;}
	.st106{clip-path:url(#SVGID_8_);fill:#D5E3F0;}
	.st107{clip-path:url(#SVGID_8_);fill:none;stroke:#D5E3F0;stroke-width:2.15;stroke-miterlimit:10;}
	.st108{clip-path:url(#SVGID_8_);fill:#DBE7F2;}
	.st109{clip-path:url(#SVGID_8_);fill:none;stroke:#DBE7F2;stroke-width:2.15;stroke-miterlimit:10;}
	.st110{clip-path:url(#SVGID_8_);fill:#E0EBF4;}
	.st111{clip-path:url(#SVGID_8_);fill:none;stroke:#E0EBF4;stroke-width:2.15;stroke-miterlimit:10;}
	.st112{clip-path:url(#SVGID_8_);fill:#E5EEF6;}
	.st113{clip-path:url(#SVGID_8_);fill:none;stroke:#E5EEF6;stroke-width:2.15;stroke-miterlimit:10;}
	.st114{clip-path:url(#SVGID_8_);fill:#EAF1F7;}
	.st115{clip-path:url(#SVGID_8_);fill:none;stroke:#EAF1F7;stroke-width:2.15;stroke-miterlimit:10;}
	.st116{clip-path:url(#SVGID_8_);fill:#EEF4F9;}
	.st117{clip-path:url(#SVGID_8_);fill:none;stroke:#EEF4F9;stroke-width:2.15;stroke-miterlimit:10;}
	.st118{clip-path:url(#SVGID_8_);fill:#F1F6FA;}
	.st119{clip-path:url(#SVGID_8_);fill:none;stroke:#F1F6FA;stroke-width:2.15;stroke-miterlimit:10;}
	.st120{clip-path:url(#SVGID_8_);fill:#F5F8FB;}
	.st121{clip-path:url(#SVGID_8_);fill:none;stroke:#F5F8FB;stroke-width:2.15;stroke-miterlimit:10;}
	.st122{clip-path:url(#SVGID_8_);fill:#F7FAFC;}
	.st123{clip-path:url(#SVGID_8_);fill:none;stroke:#F7FAFC;stroke-width:2.15;stroke-miterlimit:10;}
	.st124{clip-path:url(#SVGID_8_);fill:#FAFBFD;}
	.st125{clip-path:url(#SVGID_8_);fill:none;stroke:#FAFBFD;stroke-width:2.15;stroke-miterlimit:10;}
	.st126{clip-path:url(#SVGID_8_);fill:#FCFDFE;}
	.st127{clip-path:url(#SVGID_8_);fill:none;stroke:#FCFDFE;stroke-width:2.15;stroke-miterlimit:10;}
	.st128{clip-path:url(#SVGID_8_);fill:#FDFEFE;}
	.st129{clip-path:url(#SVGID_8_);fill:none;stroke:#FDFEFE;stroke-width:2.15;stroke-miterlimit:10;}
	.st130{clip-path:url(#SVGID_8_);fill:#FEFEFF;}
	.st131{clip-path:url(#SVGID_8_);fill:none;stroke:#FEFEFF;stroke-width:2.15;stroke-miterlimit:10;}
	.st132{clip-path:url(#SVGID_8_);fill:#FFFFFF;}
	.st133{clip-path:url(#SVGID_8_);fill:none;stroke:#FFFFFF;stroke-width:2.15;stroke-miterlimit:10;}
	.st134{fill:none;stroke:#000000;stroke-miterlimit:10;}
	.st135{fill:none;stroke:#B3B3B3;stroke-width:1.6;stroke-miterlimit:10;}
	.st136{fill:#B3B3B3;}
	.st137{fill:#94B0D0;}
	.st138{fill:none;stroke:#94B0D0;stroke-width:1.6;stroke-miterlimit:10;}
	.st139{fill:#9BB5D3;}
	.st140{fill:none;stroke:#9BB5D3;stroke-width:1.6;stroke-miterlimit:10;}
	.st141{fill:#A1BAD6;}
	.st142{fill:none;stroke:#A1BAD6;stroke-width:1.6;stroke-miterlimit:10;}
	.st143{fill:#A7BED8;}
	.st144{fill:none;stroke:#A7BED8;stroke-width:1.6;stroke-miterlimit:10;}
	.st145{fill:#ADC3DB;}
	.st146{fill:none;stroke:#ADC3DB;stroke-width:1.6;stroke-miterlimit:10;}
	.st147{fill:#B3C7DE;}
	.st148{fill:none;stroke:#B3C7DE;stroke-width:1.6;stroke-miterlimit:10;}
	.st149{fill:#B8CBE0;}
	.st150{fill:none;stroke:#B8CBE0;stroke-width:1.6;stroke-miterlimit:10;}
	.st151{fill:#BECFE2;}
	.st152{fill:none;stroke:#BECFE2;stroke-width:1.6;stroke-miterlimit:10;}
	.st153{fill:#C3D3E5;}
	.st154{fill:none;stroke:#C3D3E5;stroke-width:1.6;stroke-miterlimit:10;}
	.st155{fill:#C8D6E7;}
	.st156{fill:none;stroke:#C8D6E7;stroke-width:1.6;stroke-miterlimit:10;}
	.st157{fill:#CCDAE9;}
	.st158{fill:none;stroke:#CCDAE9;stroke-width:1.6;stroke-miterlimit:10;}
	.st159{fill:#D1DDEB;}
	.st160{fill:none;stroke:#D1DDEB;stroke-width:1.6;stroke-miterlimit:10;}
	.st161{fill:#D5E0ED;}
	.st162{fill:none;stroke:#D5E0ED;stroke-width:1.6;stroke-miterlimit:10;}
	.st163{fill:#D9E3EE;}
	.st164{fill:none;stroke:#D9E3EE;stroke-width:1.6;stroke-miterlimit:10;}
	.st165{fill:#DDE6F0;}
	.st166{fill:none;stroke:#DDE6F0;stroke-width:1.6;stroke-miterlimit:10;}
	.st167{fill:#E1E9F2;}
	.st168{fill:none;stroke:#E1E9F2;stroke-width:1.6;stroke-miterlimit:10;}
	.st169{fill:#E4EBF3;}
	.st170{fill:none;stroke:#E4EBF3;stroke-width:1.6;stroke-miterlimit:10;}
	.st171{fill:#E7EEF5;}
	.st172{fill:none;stroke:#E7EEF5;stroke-width:1.6;stroke-miterlimit:10;}
	.st173{fill:#EBF0F6;}
	.st174{fill:none;stroke:#EBF0F6;stroke-width:1.6;stroke-miterlimit:10;}
	.st175{fill:#EDF2F7;}
	.st176{fill:none;stroke:#EDF2F7;stroke-width:1.6;stroke-miterlimit:10;}
	.st177{fill:#F0F4F8;}
	.st178{fill:none;stroke:#F0F4F8;stroke-width:1.6;stroke-miterlimit:10;}
	.st179{fill:#F2F6F9;}
	.st180{fill:none;stroke:#F2F6F9;stroke-width:1.6;stroke-miterlimit:10;}
	.st181{fill:#F5F7FA;}
	.st182{fill:none;stroke:#F5F7FA;stroke-width:1.6;stroke-miterlimit:10;}
	.st183{fill:#F7F9FB;}
	.st184{fill:none;stroke:#F7F9FB;stroke-width:1.6;stroke-miterlimit:10;}
	.st185{fill:#F8FAFC;}
	.st186{fill:none;stroke:#F8FAFC;stroke-width:1.6;stroke-miterlimit:10;}
	.st187{fill:#FAFBFD;}
	.st188{fill:none;stroke:#FAFBFD;stroke-width:1.6;stroke-miterlimit:10;}
	.st189{fill:#FBFCFD;}
	.st190{fill:none;stroke:#FBFCFD;stroke-width:1.6;stroke-miterlimit:10;}
	.st191{fill:#FCFDFE;}
	.st192{fill:none;stroke:#FCFDFE;stroke-width:1.6;stroke-miterlimit:10;}
	.st193{fill:#FDFEFE;}
	.st194{fill:none;stroke:#FDFEFE;stroke-width:1.6;stroke-miterlimit:10;}
	.st195{fill:#FEFEFF;}
	.st196{fill:none;stroke:#FEFEFF;stroke-width:1.6;stroke-miterlimit:10;}
	.st197{fill:#FFFFFF;}
	.st198{fill:none;stroke:#FFFFFF;stroke-width:1.6;stroke-miterlimit:10;}
	.st199{fill:none;}
	.st200{fill:#CCCCCC;}
	.st201{fill:#7A6AA8;}
	.st202{fill:#407993;}
	.st203{fill:#336681;}
	.st204{fill:#C2D5D4;}
	.st205{fill:none;stroke:#C2D5D4;stroke-width:1.6;stroke-miterlimit:10;}
	.st206{fill:none;stroke:#407B93;stroke-width:3.65;stroke-miterlimit:10;}
	.st207{fill:#407B93;}
	.st208{fill:none;stroke:#407B93;stroke-width:1.6;stroke-miterlimit:10;}
	.st209{fill:none;stroke:#000000;stroke-width:1.3;stroke-miterlimit:10;}
	.st210{fill:none;stroke:#000000;stroke-width:1.6;stroke-miterlimit:10;}
	.st211{fill:#B9CFD8;}
	.st212{fill:none;stroke:#B9CFD8;stroke-width:1.6;stroke-miterlimit:10;}
	.st213{fill:none;stroke:#CCCCCC;stroke-width:1.6;stroke-miterlimit:10;}
	.st214{fill:none;stroke:#A5B9CF;stroke-width:1.6;stroke-miterlimit:10;}
	.st215{fill:#BDD2DA;}
	.st216{fill:none;stroke:#BDD2DA;stroke-width:1.6;stroke-miterlimit:10;}
	.st217{fill:#C1D5DD;}
	.st218{fill:none;stroke:#C1D5DD;stroke-width:1.6;stroke-miterlimit:10;}
	.st219{fill:#C6D8DF;}
	.st220{fill:none;stroke:#C6D8DF;stroke-width:1.6;stroke-miterlimit:10;}
	.st221{fill:#C9DAE1;}
	.st222{fill:none;stroke:#C9DAE1;stroke-width:1.6;stroke-miterlimit:10;}
	.st223{fill:#CDDDE3;}
	.st224{fill:none;stroke:#CDDDE3;stroke-width:1.6;stroke-miterlimit:10;}
	.st225{fill:#D1DFE5;}
	.st226{fill:none;stroke:#D1DFE5;stroke-width:1.6;stroke-miterlimit:10;}
	.st227{fill:#D4E2E7;}
	.st228{fill:none;stroke:#D4E2E7;stroke-width:1.6;stroke-miterlimit:10;}
	.st229{fill:#D8E4E9;}
	.st230{fill:none;stroke:#D8E4E9;stroke-width:1.6;stroke-miterlimit:10;}
	.st231{fill:#DBE6EB;}
	.st232{fill:none;stroke:#DBE6EB;stroke-width:1.6;stroke-miterlimit:10;}
	.st233{fill:#DEE8ED;}
	.st234{fill:none;stroke:#DEE8ED;stroke-width:1.6;stroke-miterlimit:10;}
	.st235{fill:#E1EAEE;}
	.st236{fill:none;stroke:#E1EAEE;stroke-width:1.6;stroke-miterlimit:10;}
	.st237{fill:#E4ECF0;}
	.st238{fill:none;stroke:#E4ECF0;stroke-width:1.6;stroke-miterlimit:10;}
	.st239{fill:#E6EEF1;}
	.st240{fill:none;stroke:#E6EEF1;stroke-width:1.6;stroke-miterlimit:10;}
	.st241{fill:#E9F0F3;}
	.st242{fill:none;stroke:#E9F0F3;stroke-width:1.6;stroke-miterlimit:10;}
	.st243{fill:#EBF1F4;}
	.st244{fill:none;stroke:#EBF1F4;stroke-width:1.6;stroke-miterlimit:10;}
	.st245{fill:#EDF3F5;}
	.st246{fill:none;stroke:#EDF3F5;stroke-width:1.6;stroke-miterlimit:10;}
	.st247{fill:#F0F4F6;}
	.st248{fill:none;stroke:#F0F4F6;stroke-width:1.6;stroke-miterlimit:10;}
	.st249{fill:#F2F6F8;}
	.st250{fill:none;stroke:#F2F6F8;stroke-width:1.6;stroke-miterlimit:10;}
	.st251{fill:#F3F7F9;}
	.st252{fill:none;stroke:#F3F7F9;stroke-width:1.6;stroke-miterlimit:10;}
	.st253{fill:#F5F8FA;}
	.st254{fill:none;stroke:#F5F8FA;stroke-width:1.6;stroke-miterlimit:10;}
	.st255{fill:#F7F9FA;}
	.st256{fill:none;stroke:#F7F9FA;stroke-width:1.6;stroke-miterlimit:10;}
	.st257{fill:#F8FAFB;}
	.st258{fill:none;stroke:#F8FAFB;stroke-width:1.6;stroke-miterlimit:10;}
	.st259{fill:#F9FBFC;}
	.st260{fill:none;stroke:#F9FBFC;stroke-width:1.6;stroke-miterlimit:10;}
	.st261{fill:#FCFDFD;}
	.st262{fill:none;stroke:#FCFDFD;stroke-width:1.6;stroke-miterlimit:10;}
	.st263{fill:#FDFDFE;}
	.st264{fill:none;stroke:#FDFDFE;stroke-width:1.6;stroke-miterlimit:10;}
	.st265{fill:#FEFEFE;}
	.st266{fill:none;stroke:#FEFEFE;stroke-width:1.6;stroke-miterlimit:10;}
	.st267{fill:#FEFFFF;}
	.st268{fill:none;stroke:#FEFFFF;stroke-width:1.6;stroke-miterlimit:10;}
	.st269{fill:none;stroke:#FFCC66;stroke-width:3.25;stroke-miterlimit:10;stroke-dasharray:3.8,3.8;}
</style>
<g>
	<g>
		<g>
			<g>
				<defs>
					<circle id="SVGID_1_" cx="-521" cy="376" r="9.6"/>
				</defs>
				<clipPath id="SVGID_2_">
					<use xlink:href="#SVGID_1_"  style="overflow:visible;"/>
				</clipPath>
				<g class="st4">
					<defs>
						<rect id="SVGID_3_" x="-673.2" y="131.6" width="881.2" height="588.8"/>
					</defs>
					<clipPath id="SVGID_4_">
						<use xlink:href="#SVGID_3_"  style="overflow:visible;"/>
					</clipPath>
				</g>
			</g>
		</g>
		<g>
			<g>
				<defs>
					<circle id="SVGID_5_" cx="-521" cy="345.6" r="9.6"/>
				</defs>
				<clipPath id="SVGID_6_">
					<use xlink:href="#SVGID_5_"  style="overflow:visible;"/>
				</clipPath>
				<g class="st69">
					<defs>
						<rect id="SVGID_7_" x="-673.2" y="131.6" width="881.2" height="588.8"/>
					</defs>
					<clipPath id="SVGID_8_">
						<use xlink:href="#SVGID_7_"  style="overflow:visible;"/>
					</clipPath>
				</g>
			</g>
		</g>
	</g>
</g>
<g>
	<polygon points="256.2,125 256.8,123.9 268.7,130.6 268.1,131.7 	"/>
	<g>
		<path d="M270.6,130.4h3.6c0.6,0,1.1,0.1,1.4,0.3c0.7,0.3,1.1,1,1.1,1.8c0,0.5-0.1,0.9-0.3,1.2c-0.2,0.3-0.5,0.5-0.8,0.7
			c0.3,0.1,0.5,0.3,0.7,0.5c0.2,0.2,0.2,0.5,0.3,1l0,1c0,0.3,0,0.5,0.1,0.7c0.1,0.2,0.2,0.4,0.3,0.5v0.2h-1.3c0-0.1-0.1-0.2-0.1-0.3
			s0-0.3-0.1-0.6l-0.1-1.3c0-0.5-0.2-0.9-0.6-1c-0.2-0.1-0.5-0.1-0.9-0.1h-2.3v3.4h-1.1V130.4z M274.1,134c0.5,0,0.9-0.1,1.1-0.3
			c0.3-0.2,0.4-0.6,0.4-1.1c0-0.6-0.2-0.9-0.6-1.1c-0.2-0.1-0.5-0.2-0.8-0.2h-2.5v2.7H274.1z"/>
	</g>
	<path class="st135" d="M216.9,108.8c-5.2-4.1-13.4-3.6-18.1,1.1"/>
	<path class="st136" d="M221.8,116.6L221.8,116.6l-4.8-7.2c0.8-1.2,1.3-3,1.3-3L221.8,116.6z"/>
	<path class="st135" d="M221.8,116.6L221.8,116.6l-4.8-7.2c0.8-1.2,1.3-3,1.3-3L221.8,116.6z"/>
	<path class="st135" d="M228.4,126.9c5.2,4.1,13.4,3.6,18.1-1.1"/>
	<path class="st136" d="M223.4,119L223.4,119l4.8,7.2c-0.8,1.2-1.3,3-1.3,3L223.4,119z"/>
	<path class="st135" d="M223.4,119L223.4,119l4.8,7.2c-0.8,1.2-1.3,3-1.3,3L223.4,119z"/>
	<path class="st137" d="M259.7,116.1c0,2-1.7,8.6-3.7,8.6c-2,0-3.8-6.6-3.8-8.6c0-2.5,0.5-4.3,3.7-4.3
		C259.1,111.8,259.7,113.6,259.7,116.1z"/>
	<path class="st138" d="M259.7,116.1c0,2-1.7,8.6-3.7,8.6c-2,0-3.8-6.6-3.8-8.6c0-2.5,0.5-4.3,3.7-4.3
		C259.1,111.8,259.7,113.6,259.7,116.1z"/>
	<path class="st139" d="M259.5,116c0,2-1.7,8.4-3.6,8.4c-2,0-3.7-6.4-3.7-8.4c0-2.4,0.5-4.2,3.7-4.2
		C259,111.9,259.5,113.6,259.5,116z"/>
	<path class="st140" d="M259.5,116c0,2-1.7,8.4-3.6,8.4c-2,0-3.7-6.4-3.7-8.4c0-2.4,0.5-4.2,3.7-4.2
		C259,111.9,259.5,113.6,259.5,116z"/>
	<path class="st141" d="M259.4,116c0,1.9-1.6,8.1-3.6,8.2c-1.9,0-3.6-6.2-3.6-8.1c0-2.3,0.5-4.1,3.6-4.1
		C258.8,111.9,259.4,113.6,259.4,116z"/>
	<path class="st142" d="M259.4,116c0,1.9-1.6,8.1-3.6,8.2c-1.9,0-3.6-6.2-3.6-8.1c0-2.3,0.5-4.1,3.6-4.1
		C258.8,111.9,259.4,113.6,259.4,116z"/>
	<path class="st143" d="M259.2,115.9c0,1.9-1.6,7.9-3.5,7.9c-1.9,0-3.5-6-3.5-7.9c0-2.3,0.5-3.9,3.5-4
		C258.7,112,259.2,113.6,259.2,115.9z"/>
	<path class="st144" d="M259.2,115.9c0,1.9-1.6,7.9-3.5,7.9c-1.9,0-3.5-6-3.5-7.9c0-2.3,0.5-3.9,3.5-4
		C258.7,112,259.2,113.6,259.2,115.9z"/>
	<path class="st145" d="M259,115.9c0,1.8-1.6,7.7-3.4,7.7c-1.8,0-3.4-5.9-3.4-7.7c0-2.2,0.5-3.8,3.4-3.8
		C258.6,112,259,113.7,259,115.9z"/>
	<path class="st146" d="M259,115.9c0,1.8-1.6,7.7-3.4,7.7c-1.8,0-3.4-5.9-3.4-7.7c0-2.2,0.5-3.8,3.4-3.8
		C258.6,112,259,113.7,259,115.9z"/>
	<path class="st147" d="M258.9,115.8c0,1.8-1.5,7.5-3.3,7.5c-1.8,0-3.3-5.7-3.3-7.5c0-2.2,0.5-3.7,3.3-3.7
		C258.4,112.1,258.9,113.7,258.9,115.8z"/>
	<path class="st148" d="M258.9,115.8c0,1.8-1.5,7.5-3.3,7.5c-1.8,0-3.3-5.7-3.3-7.5c0-2.2,0.5-3.7,3.3-3.7
		C258.4,112.1,258.9,113.7,258.9,115.8z"/>
	<path class="st149" d="M258.7,115.8c0,1.7-1.5,7.3-3.2,7.3c-1.7,0-3.2-5.5-3.2-7.2c0-2.1,0.4-3.6,3.2-3.6
		C258.3,112.2,258.7,113.7,258.7,115.8z"/>
	<path class="st150" d="M258.7,115.8c0,1.7-1.5,7.3-3.2,7.3c-1.7,0-3.2-5.5-3.2-7.2c0-2.1,0.4-3.6,3.2-3.6
		C258.3,112.2,258.7,113.7,258.7,115.8z"/>
	<path class="st151" d="M258.6,115.7c0,1.7-1.4,7-3.1,7c-1.7,0-3.1-5.4-3.1-7c0-2,0.4-3.5,3.1-3.5
		C258.1,112.2,258.6,113.7,258.6,115.7z"/>
	<path class="st152" d="M258.6,115.7c0,1.7-1.4,7-3.1,7c-1.7,0-3.1-5.4-3.1-7c0-2,0.4-3.5,3.1-3.5
		C258.1,112.2,258.6,113.7,258.6,115.7z"/>
	<path class="st153" d="M258.4,115.7c0,1.6-1.4,6.8-3,6.8c-1.6,0-3-5.2-3-6.8c0-2,0.4-3.4,3-3.4C258,112.3,258.4,113.7,258.4,115.7z
		"/>
	<path class="st154" d="M258.4,115.7c0,1.6-1.4,6.8-3,6.8c-1.6,0-3-5.2-3-6.8c0-2,0.4-3.4,3-3.4C258,112.3,258.4,113.7,258.4,115.7z
		"/>
	<path class="st155" d="M258.3,115.6c0,1.6-1.3,6.6-2.9,6.6c-1.6,0-2.9-5-2.9-6.6c0-1.9,0.4-3.3,2.9-3.3
		C257.9,112.3,258.3,113.7,258.3,115.6z"/>
	<path class="st156" d="M258.3,115.6c0,1.6-1.3,6.6-2.9,6.6c-1.6,0-2.9-5-2.9-6.6c0-1.9,0.4-3.3,2.9-3.3
		C257.9,112.3,258.3,113.7,258.3,115.6z"/>
	<path class="st157" d="M258.1,115.6c0,1.5-1.3,6.4-2.8,6.4c-1.5,0-2.8-4.9-2.8-6.4c0-1.8,0.4-3.2,2.8-3.2
		C257.7,112.4,258.1,113.7,258.1,115.6z"/>
	<path class="st158" d="M258.1,115.6c0,1.5-1.3,6.4-2.8,6.4c-1.5,0-2.8-4.9-2.8-6.4c0-1.8,0.4-3.2,2.8-3.2
		C257.7,112.4,258.1,113.7,258.1,115.6z"/>
	<path class="st159" d="M258,115.5c0,1.4-1.3,6.1-2.7,6.1c-1.5,0-2.8-4.7-2.8-6.1c0-1.8,0.4-3.1,2.7-3.1
		C257.6,112.4,258,113.7,258,115.5z"/>
	<path class="st160" d="M258,115.5c0,1.4-1.3,6.1-2.7,6.1c-1.5,0-2.8-4.7-2.8-6.1c0-1.8,0.4-3.1,2.7-3.1
		C257.6,112.4,258,113.7,258,115.5z"/>
	<path class="st161" d="M257.8,115.5c0,1.4-1.2,5.9-2.6,5.9c-1.4,0-2.7-4.5-2.7-5.9c0-1.7,0.4-2.9,2.7-2.9
		C257.4,112.5,257.8,113.7,257.8,115.5z"/>
	<path class="st162" d="M257.8,115.5c0,1.4-1.2,5.9-2.6,5.9c-1.4,0-2.7-4.5-2.7-5.9c0-1.7,0.4-2.9,2.7-2.9
		C257.4,112.5,257.8,113.7,257.8,115.5z"/>
	<path class="st163" d="M257.7,115.4c0,1.3-1.2,5.7-2.6,5.7c-1.4,0-2.6-4.3-2.6-5.7c0-1.6,0.4-2.8,2.6-2.8
		C257.3,112.6,257.7,113.8,257.7,115.4z"/>
	<path class="st164" d="M257.7,115.4c0,1.3-1.2,5.7-2.6,5.7c-1.4,0-2.6-4.3-2.6-5.7c0-1.6,0.4-2.8,2.6-2.8
		C257.3,112.6,257.7,113.8,257.7,115.4z"/>
	<path class="st165" d="M257.5,115.3c0,1.3-1.1,5.5-2.5,5.5c-1.3,0-2.5-4.2-2.5-5.5c0-1.6,0.3-2.7,2.5-2.7
		C257.1,112.6,257.5,113.8,257.5,115.3z"/>
	<path class="st166" d="M257.5,115.3c0,1.3-1.1,5.5-2.5,5.5c-1.3,0-2.5-4.2-2.5-5.5c0-1.6,0.3-2.7,2.5-2.7
		C257.1,112.6,257.5,113.8,257.5,115.3z"/>
	<path class="st167" d="M257.3,115.3c0,1.2-1.1,5.2-2.4,5.2c-1.3,0-2.4-4-2.4-5.2c0-1.5,0.3-2.6,2.4-2.6
		C257,112.7,257.3,113.8,257.3,115.3z"/>
	<path class="st168" d="M257.3,115.3c0,1.2-1.1,5.2-2.4,5.2c-1.3,0-2.4-4-2.4-5.2c0-1.5,0.3-2.6,2.4-2.6
		C257,112.7,257.3,113.8,257.3,115.3z"/>
	<path class="st169" d="M257.2,115.2c0,1.2-1.1,5-2.3,5c-1.2,0-2.3-3.8-2.3-5c0-1.4,0.3-2.5,2.3-2.5
		C256.9,112.7,257.2,113.8,257.2,115.2z"/>
	<path class="st170" d="M257.2,115.2c0,1.2-1.1,5-2.3,5c-1.2,0-2.3-3.8-2.3-5c0-1.4,0.3-2.5,2.3-2.5
		C256.9,112.7,257.2,113.8,257.2,115.2z"/>
	<path class="st171" d="M257,115.2c0,1.1-1,4.8-2.2,4.8c-1.2,0-2.2-3.7-2.2-4.8c0-1.4,0.3-2.4,2.2-2.4
		C256.7,112.8,257,113.8,257,115.2z"/>
	<path class="st172" d="M257,115.2c0,1.1-1,4.8-2.2,4.8c-1.2,0-2.2-3.7-2.2-4.8c0-1.4,0.3-2.4,2.2-2.4
		C256.7,112.8,257,113.8,257,115.2z"/>
	<path class="st173" d="M256.9,115.1c0,1.1-1,4.6-2.1,4.6c-1.1,0-2.1-3.5-2.1-4.6c0-1.3,0.3-2.3,2.1-2.3
		C256.6,112.9,256.9,113.8,256.9,115.1z"/>
	<path class="st174" d="M256.9,115.1c0,1.1-1,4.6-2.1,4.6c-1.1,0-2.1-3.5-2.1-4.6c0-1.3,0.3-2.3,2.1-2.3
		C256.6,112.9,256.9,113.8,256.9,115.1z"/>
	<path class="st175" d="M256.7,115.1c0,1-0.9,4.4-2,4.4c-1.1,0-2-3.3-2-4.4c0-1.3,0.3-2.2,2-2.2
		C256.4,112.9,256.7,113.8,256.7,115.1z"/>
	<path class="st176" d="M256.7,115.1c0,1-0.9,4.4-2,4.4c-1.1,0-2-3.3-2-4.4c0-1.3,0.3-2.2,2-2.2
		C256.4,112.9,256.7,113.8,256.7,115.1z"/>
	<path class="st177" d="M256.6,115c0,1-0.9,4.1-1.9,4.1c-1,0-1.9-3.2-1.9-4.1c0-1.2,0.3-2.1,1.9-2.1
		C256.3,113,256.6,113.8,256.6,115z"/>
	<path class="st178" d="M256.6,115c0,1-0.9,4.1-1.9,4.1c-1,0-1.9-3.2-1.9-4.1c0-1.2,0.3-2.1,1.9-2.1
		C256.3,113,256.6,113.8,256.6,115z"/>
	<path class="st179" d="M256.4,115c0,0.9-0.8,3.9-1.8,3.9c-1,0-1.8-3-1.8-3.9c0-1.1,0.3-1.9,1.8-1.9
		C256.2,113,256.4,113.9,256.4,115z"/>
	<path class="st180" d="M256.4,115c0,0.9-0.8,3.9-1.8,3.9c-1,0-1.8-3-1.8-3.9c0-1.1,0.3-1.9,1.8-1.9
		C256.2,113,256.4,113.9,256.4,115z"/>
	<path class="st181" d="M256.3,114.9c0,0.9-0.8,3.7-1.7,3.7c-0.9,0-1.7-2.8-1.7-3.7c0-1.1,0.2-1.8,1.7-1.8
		C256,113.1,256.3,113.9,256.3,114.9z"/>
	<path class="st182" d="M256.3,114.9c0,0.9-0.8,3.7-1.7,3.7c-0.9,0-1.7-2.8-1.7-3.7c0-1.1,0.2-1.8,1.7-1.8
		C256,113.1,256.3,113.9,256.3,114.9z"/>
	<path class="st183" d="M256.1,114.9c0,0.8-0.8,3.5-1.6,3.5c-0.9,0-1.7-2.6-1.7-3.5c0-1,0.2-1.7,1.6-1.7
		C255.9,113.2,256.1,113.9,256.1,114.9z"/>
	<path class="st184" d="M256.1,114.9c0,0.8-0.8,3.5-1.6,3.5c-0.9,0-1.7-2.6-1.7-3.5c0-1,0.2-1.7,1.6-1.7
		C255.9,113.2,256.1,113.9,256.1,114.9z"/>
	<path class="st185" d="M256,114.8c0,0.8-0.7,3.2-1.6,3.2c-0.8,0-1.6-2.5-1.6-3.2c0-0.9,0.2-1.6,1.6-1.6
		C255.7,113.2,256,113.9,256,114.8z"/>
	<path class="st186" d="M256,114.8c0,0.8-0.7,3.2-1.6,3.2c-0.8,0-1.6-2.5-1.6-3.2c0-0.9,0.2-1.6,1.6-1.6
		C255.7,113.2,256,113.9,256,114.8z"/>
	<path class="st187" d="M255.8,114.8c0,0.7-0.7,3-1.5,3c-0.8,0-1.5-2.3-1.5-3c0-0.9,0.2-1.5,1.5-1.5
		C255.6,113.3,255.8,113.9,255.8,114.8z"/>
	<path class="st188" d="M255.8,114.8c0,0.7-0.7,3-1.5,3c-0.8,0-1.5-2.3-1.5-3c0-0.9,0.2-1.5,1.5-1.5
		C255.6,113.3,255.8,113.9,255.8,114.8z"/>
	<path class="st189" d="M255.6,114.7c0,0.7-0.6,2.8-1.4,2.8c-0.7,0-1.4-2.1-1.4-2.8c0-0.8,0.2-1.4,1.4-1.4
		C255.5,113.3,255.6,113.9,255.6,114.7z"/>
	<path class="st190" d="M255.6,114.7c0,0.7-0.6,2.8-1.4,2.8c-0.7,0-1.4-2.1-1.4-2.8c0-0.8,0.2-1.4,1.4-1.4
		C255.5,113.3,255.6,113.9,255.6,114.7z"/>
	<path class="st191" d="M255.5,114.7c0,0.6-0.6,2.6-1.3,2.6c-0.7,0-1.3-2-1.3-2.6c0-0.7,0.2-1.3,1.3-1.3
		C255.3,113.4,255.5,113.9,255.5,114.7z"/>
	<path class="st192" d="M255.5,114.7c0,0.6-0.6,2.6-1.3,2.6c-0.7,0-1.3-2-1.3-2.6c0-0.7,0.2-1.3,1.3-1.3
		C255.3,113.4,255.5,113.9,255.5,114.7z"/>
	<path class="st193" d="M255.3,114.6c0,0.6-0.6,2.3-1.2,2.3c-0.6,0-1.2-1.8-1.2-2.3c0-0.7,0.2-1.2,1.2-1.2
		C255.2,113.4,255.3,113.9,255.3,114.6z"/>
	<path class="st194" d="M255.3,114.6c0,0.6-0.6,2.3-1.2,2.3c-0.6,0-1.2-1.8-1.2-2.3c0-0.7,0.2-1.2,1.2-1.2
		C255.2,113.4,255.3,113.9,255.3,114.6z"/>
	<path class="st195" d="M255.2,114.6c0,0.5-0.5,2.1-1.1,2.1c-0.6,0-1.1-1.6-1.1-2.1c0-0.6,0.2-1.1,1.1-1.1
		C255,113.5,255.2,113.9,255.2,114.6z"/>
	<path class="st196" d="M255.2,114.6c0,0.5-0.5,2.1-1.1,2.1c-0.6,0-1.1-1.6-1.1-2.1c0-0.6,0.2-1.1,1.1-1.1
		C255,113.5,255.2,113.9,255.2,114.6z"/>
	<path class="st197" d="M255,114.5c0,0.4-0.5,1.9-1,1.9c-0.5,0-1-1.4-1-1.9c0-0.5,0.1-0.9,1-0.9C254.9,113.6,255,114,255,114.5z"/>
	<path class="st198" d="M255,114.5c0,0.4-0.5,1.9-1,1.9c-0.5,0-1-1.4-1-1.9c0-0.5,0.1-0.9,1-0.9C254.9,113.6,255,114,255,114.5z"/>
	<path class="st197" d="M254.9,114.5c0,0.4-0.4,1.7-0.9,1.7c-0.5,0-0.9-1.3-0.9-1.7c0-0.5,0.1-0.8,0.9-0.8
		C254.7,113.6,254.9,114,254.9,114.5z"/>
	<path class="st198" d="M254.9,114.5c0,0.4-0.4,1.7-0.9,1.7c-0.5,0-0.9-1.3-0.9-1.7c0-0.5,0.1-0.8,0.9-0.8
		C254.7,113.6,254.9,114,254.9,114.5z"/>
	<path class="st197" d="M254.7,114.4c0,0.3-0.4,1.5-0.8,1.5c-0.4,0-0.8-1.1-0.8-1.5c0-0.4,0.1-0.7,0.8-0.7
		C254.6,113.7,254.7,114,254.7,114.4z"/>
	<path class="st198" d="M254.7,114.4c0,0.3-0.4,1.5-0.8,1.5c-0.4,0-0.8-1.1-0.8-1.5c0-0.4,0.1-0.7,0.8-0.7
		C254.6,113.7,254.7,114,254.7,114.4z"/>
	<path class="st199" d="M255.9,124.7c-2,0-3.8-6.6-3.8-8.6c0-2.5,0.5-4.3,3.7-4.3c3.2,0,3.8,1.8,3.8,4.3
		C259.7,118.1,257.9,124.7,255.9,124.7z"/>
	<path class="st138" d="M259.7,116.1c0,2-1.7,8.6-3.7,8.6c-2,0-3.8-6.6-3.8-8.6c0-2.5,0.5-4.3,3.7-4.3
		C259.1,111.8,259.7,113.6,259.7,116.1z"/>
	<path class="st138" d="M259.7,116.1c0,2-1.7,8.6-3.7,8.6c-2,0-3.8-6.6-3.8-8.6c0-2.5,0.5-4.3,3.7-4.3
		C259.1,111.8,259.7,113.6,259.7,116.1z"/>
	<path class="st199" d="M255.9,124.7c2,0,3.7,6.6,3.7,8.6c0,2.5-0.5,4.3-3.7,4.3c-3.2,0-3.7-1.8-3.7-4.3
		C252.2,131.2,253.9,124.7,255.9,124.7z"/>
	<path class="st138" d="M252.2,133.3c0-2,1.7-8.6,3.7-8.6c2,0,3.7,6.6,3.7,8.6c0,2.5-0.5,4.3-3.7,4.3
		C252.7,137.5,252.2,135.7,252.2,133.3z"/>
	<path class="st138" d="M252.2,133.3c0-2,1.7-8.6,3.7-8.6c2,0,3.7,6.6,3.7,8.6c0,2.5-0.5,4.3-3.7,4.3
		C252.7,137.5,252.2,135.7,252.2,133.3z"/>
	<circle cx="255.7" cy="116.2" r="1.5"/>
	<g>
		<path d="M169.6,59h1.2l3.9,6.3V59h1v7.8h-1.2l-4-6.3v6.3h-1V59z"/>
	</g>
	<g>
		<path d="M179.4,89.3h1.2l3.9,6.3v-6.3h1v7.8h-1.2l-4-6.3v6.3h-1V89.3z"/>
	</g>
	<polygon points="192.8,62.3 191.9,63.6 177.3,63.6 177.3,62.3 	"/>
	<polygon points="199.2,81.9 197.7,81.4 191.9,63.6 192.8,62.3 	"/>
	<polygon points="188.1,89.9 187.3,88.9 197.7,81.4 199.2,81.9 	"/>
	<polygon points="167.3,82.9 166.7,81.6 167.4,81.4 177.7,88.9 177,89.9 	"/>
	<polygon points="170.2,68.6 171.4,69 167.4,81.4 166.7,81.6 166.5,80.1 	"/>
	<g>
		<path d="M148.7,43.2h1.5l2.3,6.6l2.2-6.6h1.5V51h-1v-4.6c0-0.2,0-0.4,0-0.8c0-0.4,0-0.8,0-1.2l-2.2,6.6h-1.1l-2.3-6.6v0.2
			c0,0.2,0,0.5,0,0.9s0,0.7,0,0.9V51h-1V43.2z"/>
		<path d="M161.2,45.5c0.4,0.2,0.7,0.4,0.9,0.7c0.2,0.3,0.3,0.6,0.4,1c0.1,0.3,0.1,0.7,0.1,1.3h-4.2c0,0.6,0.2,1,0.4,1.4
			s0.6,0.5,1.2,0.5c0.5,0,0.9-0.2,1.2-0.5c0.2-0.2,0.3-0.4,0.4-0.7h0.9c0,0.2-0.1,0.4-0.2,0.7c-0.1,0.3-0.3,0.5-0.5,0.6
			c-0.3,0.3-0.6,0.5-1.1,0.6c-0.2,0.1-0.5,0.1-0.8,0.1c-0.7,0-1.3-0.3-1.8-0.8c-0.5-0.5-0.7-1.2-0.7-2.2c0-0.9,0.2-1.7,0.7-2.2
			c0.5-0.6,1.1-0.9,1.9-0.9C160.4,45.2,160.8,45.3,161.2,45.5z M161.5,47.7c0-0.4-0.1-0.7-0.3-1c-0.3-0.5-0.7-0.7-1.3-0.7
			c-0.4,0-0.8,0.2-1.1,0.5s-0.5,0.7-0.5,1.2H161.5z"/>
	</g>
	<polygon points="163.4,51.2 164.4,50.5 169.4,57.2 168.3,58 	"/>
	<g>
		<path d="M211.5,85.5h1.5l2.3,6.6l2.2-6.6h1.5v7.8h-1v-4.6c0-0.2,0-0.4,0-0.8c0-0.4,0-0.8,0-1.2l-2.2,6.6h-1.1l-2.3-6.6v0.2
			c0,0.2,0,0.5,0,0.9s0,0.7,0,0.9v4.6h-1V85.5z"/>
		<path d="M224,87.7c0.4,0.2,0.7,0.4,0.9,0.7c0.2,0.3,0.3,0.6,0.4,1c0.1,0.3,0.1,0.7,0.1,1.3h-4.2c0,0.6,0.2,1,0.4,1.4
			s0.6,0.5,1.2,0.5c0.5,0,0.9-0.2,1.2-0.5c0.2-0.2,0.3-0.4,0.4-0.7h0.9c0,0.2-0.1,0.4-0.2,0.7c-0.1,0.3-0.3,0.5-0.5,0.6
			c-0.3,0.3-0.6,0.5-1.1,0.6c-0.2,0.1-0.5,0.1-0.8,0.1c-0.7,0-1.3-0.3-1.8-0.8c-0.5-0.5-0.7-1.2-0.7-2.2c0-0.9,0.2-1.7,0.7-2.2
			c0.5-0.6,1.1-0.9,1.9-0.9C223.2,87.5,223.6,87.6,224,87.7z M224.4,90c0-0.4-0.1-0.7-0.3-1c-0.3-0.5-0.7-0.7-1.3-0.7
			c-0.4,0-0.8,0.2-1.1,0.5s-0.5,0.7-0.5,1.2H224.4z"/>
	</g>
	<polygon points="209.8,85.3 208.6,87.9 207.5,87.4 208.7,84.8 	"/>
	<polygon points="203.7,82.5 202.6,85.1 201.4,84.6 202.6,82 	"/>
	<g>
		<path d="M206.9,44.3c0.5,0.7,0.8,1.6,0.8,2.7c0,1.2-0.3,2.1-0.9,2.9c-0.7,0.9-1.7,1.4-3,1.4c-1.2,0-2.2-0.4-2.8-1.2
			c-0.6-0.8-0.9-1.7-0.9-2.9c0-1.1,0.3-2,0.8-2.7c0.7-1,1.7-1.4,3-1.4C205.2,43,206.3,43.4,206.9,44.3z M206,49.3
			c0.4-0.7,0.6-1.4,0.6-2.3c0-0.9-0.2-1.7-0.7-2.2c-0.5-0.6-1.1-0.8-2-0.8c-0.8,0-1.5,0.3-2,0.8s-0.8,1.4-0.8,2.5
			c0,0.9,0.2,1.6,0.7,2.2c0.4,0.6,1.2,0.9,2.1,0.9C204.9,50.3,205.6,50,206,49.3z"/>
	</g>
	<polygon points="198.8,50.4 199.8,51.1 190.9,63.3 189.9,62.6 	"/>
	<polygon points="201.3,52.2 202.3,53 193.5,65.2 192.5,64.4 	"/>
	<g>
		<path d="M133.3,88.1h1l-0.3,1.6h0.9l-0.2,0.8h-0.9l-0.8,3.7c0,0.2,0,0.3,0.1,0.4c0.1,0,0.2,0.1,0.4,0.1c0,0,0.1,0,0.1,0
			c0.1,0,0.1,0,0.2,0l-0.2,0.8c-0.1,0-0.2,0.1-0.4,0.1c-0.1,0-0.3,0-0.4,0c-0.4,0-0.7-0.1-0.8-0.3c-0.1-0.2-0.1-0.5,0-0.9l0.8-3.8
			h-0.8l0.2-0.8h0.8L133.3,88.1z"/>
		<path d="M135.1,91.8h2.7l-0.2,1h-2.7L135.1,91.8z"/>
	</g>
	<g>
		<path d="M138.6,87.5h3.4c0.9,0,1.6,0.3,2,0.8c0.2,0.3,0.3,0.7,0.3,1.1c0,0.5-0.1,0.9-0.4,1.2c-0.1,0.2-0.4,0.3-0.6,0.5
			c0.4,0.2,0.7,0.3,0.9,0.5c0.4,0.3,0.5,0.8,0.5,1.4c0,0.5-0.2,1-0.5,1.4c-0.5,0.6-1.2,0.9-2.3,0.9h-3.3V87.5z M141.6,90.8
			c0.5,0,0.8-0.1,1.1-0.2c0.4-0.2,0.6-0.5,0.6-1.1c0-0.5-0.2-0.9-0.6-1c-0.2-0.1-0.6-0.1-1.1-0.1h-1.9v2.4H141.6z M142,94.5
			c0.7,0,1.1-0.2,1.4-0.6c0.2-0.2,0.3-0.5,0.3-0.9c0-0.6-0.3-1-0.8-1.2c-0.3-0.1-0.6-0.2-1.1-0.2h-2.1v2.8H142z"/>
		<path d="M146.8,89.7v3.8c0,0.3,0,0.5,0.1,0.7c0.2,0.3,0.5,0.5,0.9,0.5c0.7,0,1.1-0.3,1.3-0.9c0.1-0.3,0.2-0.8,0.2-1.3v-2.8h1v5.7
			h-0.9l0-0.8c-0.1,0.2-0.3,0.4-0.5,0.5c-0.4,0.3-0.8,0.4-1.3,0.4c-0.8,0-1.3-0.3-1.6-0.8c-0.2-0.3-0.2-0.7-0.2-1.2v-3.9H146.8z"/>
	</g>
	<polygon points="152.9,91.2 151.5,88.7 166.5,80.1 166.7,81.6 167.3,82.9 	"/>
	<polygon points="183.2,112.5 181.9,113.2 181.9,98.6 183.2,98.6 	"/>
	<polygon points="200.2,122.3 198.9,123 181.9,113.2 183.2,112.5 	"/>
	<polygon points="201.4,119.4 200.8,120.5 185.4,111.5 186,110.5 	"/>
	<polygon points="200.2,142.3 198.9,142.3 198.9,123 200.2,122.3 	"/>
	<circle class="st137" cx="199.9" cy="144.8" r="8"/>
	<circle class="st138" cx="199.9" cy="144.8" r="8"/>
</g>
</svg>
