<?xml version="1.0" encoding="utf-8"?>
<!-- Generator: Adobe Illustrator 19.2.0, SVG Export Plug-In . SVG Version: 6.00 Build 0)  -->
<svg version="1.1" id="Layer_1" xmlns="http://www.w3.org/2000/svg" xmlns:xlink="http://www.w3.org/1999/xlink" x="0px" y="0px"
	 viewBox="0 0 409 203" style="enable-background:new 0 0 409 203;" xml:space="preserve">
<style type="text/css">
	.st0{fill:#FFCC66;}
	.st1{fill:#DFE8F1;}
	.st2{fill:none;stroke:#DFE8F1;stroke-width:1.9;stroke-miterlimit:10;}
	.st3{fill:none;stroke:#94B0D0;stroke-width:1.9;stroke-miterlimit:10;}
	.st4{clip-path:url(#SVGID_2_);}
	.st5{clip-path:url(#SVGID_4_);fill:#246EB0;}
	.st6{clip-path:url(#SVGID_4_);fill:none;stroke:#246EB0;stroke-width:2.15;stroke-miterlimit:10;}
	.st7{clip-path:url(#SVGID_4_);fill:#3177B5;}
	.st8{clip-path:url(#SVGID_4_);fill:none;stroke:#3177B5;stroke-width:2.15;stroke-miterlimit:10;}
	.st9{clip-path:url(#SVGID_4_);fill:#3F80BA;}
	.st10{clip-path:url(#SVGID_4_);fill:none;stroke:#3F80BA;stroke-width:2.15;stroke-miterlimit:10;}
	.st11{clip-path:url(#SVGID_4_);fill:#4B88BE;}
	.st12{clip-path:url(#SVGID_4_);fill:none;stroke:#4B88BE;stroke-width:2.15;stroke-miterlimit:10;}
	.st13{clip-path:url(#SVGID_4_);fill:#5790C3;}
	.st14{clip-path:url(#SVGID_4_);fill:none;stroke:#5790C3;stroke-width:2.15;stroke-miterlimit:10;}
	.st15{clip-path:url(#SVGID_4_);fill:#6398C7;}
	.st16{clip-path:url(#SVGID_4_);fill:none;stroke:#6398C7;stroke-width:2.15;stroke-miterlimit:10;}
	.st17{clip-path:url(#SVGID_4_);fill:#6E9FCB;}
	.st18{clip-path:url(#SVGID_4_);fill:none;stroke:#6E9FCB;stroke-width:2.15;stroke-miterlimit:10;}
	.st19{clip-path:url(#SVGID_4_);fill:#79A6CF;}
	.st20{clip-path:url(#SVGID_4_);fill:none;stroke:#79A6CF;stroke-width:2.15;stroke-miterlimit:10;}
	.st21{clip-path:url(#SVGID_4_);fill:#84ADD3;}
	.st22{clip-path:url(#SVGID_4_);fill:none;stroke:#84ADD3;stroke-width:2.15;stroke-miterlimit:10;}
	.st23{clip-path:url(#SVGID_4_);fill:#8EB4D6;}
	.st24{clip-path:url(#SVGID_4_);fill:none;stroke:#8EB4D6;stroke-width:2.15;stroke-miterlimit:10;}
	.st25{clip-path:url(#SVGID_4_);fill:#97BADA;}
	.st26{clip-path:url(#SVGID_4_);fill:none;stroke:#97BADA;stroke-width:2.15;stroke-miterlimit:10;}
	.st27{clip-path:url(#SVGID_4_);fill:#A1C1DD;}
	.st28{clip-path:url(#SVGID_4_);fill:none;stroke:#A1C1DD;stroke-width:2.15;stroke-miterlimit:10;}
	.st29{clip-path:url(#SVGID_4_);fill:#A9C6E0;}
	.st30{clip-path:url(#SVGID_4_);fill:none;stroke:#A9C6E0;stroke-width:2.15;stroke-miterlimit:10;}
	.st31{clip-path:url(#SVGID_4_);fill:#B2CCE3;}
	.st32{clip-path:url(#SVGID_4_);fill:none;stroke:#B2CCE3;stroke-width:2.15;stroke-miterlimit:10;}
	.st33{clip-path:url(#SVGID_4_);fill:#BAD1E6;}
	.st34{clip-path:url(#SVGID_4_);fill:none;stroke:#BAD1E6;stroke-width:2.15;stroke-miterlimit:10;}
	.st35{clip-path:url(#SVGID_4_);fill:#C1D6E9;}
	.st36{clip-path:url(#SVGID_4_);fill:none;stroke:#C1D6E9;stroke-width:2.15;stroke-miterlimit:10;}
	.st37{clip-path:url(#SVGID_4_);fill:#C8DBEB;}
	.st38{clip-path:url(#SVGID_4_);fill:none;stroke:#C8DBEB;stroke-width:2.15;stroke-miterlimit:10;}
	.st39{clip-path:url(#SVGID_4_);fill:#CFDFEE;}
	.st40{clip-path:url(#SVGID_4_);fill:none;stroke:#CFDFEE;stroke-width:2.15;stroke-miterlimit:10;}
	.st41{clip-path:url(#SVGID_4_);fill:#D5E3F0;}
	.st42{clip-path:url(#SVGID_4_);fill:none;stroke:#D5E3F0;stroke-width:2.15;stroke-miterlimit:10;}
	.st43{clip-path:url(#SVGID_4_);fill:#DBE7F2;}
	.st44{clip-path:url(#SVGID_4_);fill:none;stroke:#DBE7F2;stroke-width:2.15;stroke-miterlimit:10;}
	.st45{clip-path:url(#SVGID_4_);fill:#E0EBF4;}
	.st46{clip-path:url(#SVGID_4_);fill:none;stroke:#E0EBF4;stroke-width:2.15;stroke-miterlimit:10;}
	.st47{clip-path:url(#SVGID_4_);fill:#E5EEF6;}
	.st48{clip-path:url(#SVGID_4_);fill:none;stroke:#E5EEF6;stroke-width:2.15;stroke-miterlimit:10;}
	.st49{clip-path:url(#SVGID_4_);fill:#EAF1F7;}
	.st50{clip-path:url(#SVGID_4_);fill:none;stroke:#EAF1F7;stroke-width:2.15;stroke-miterlimit:10;}
	.st51{clip-path:url(#SVGID_4_);fill:#EEF4F9;}
	.st52{clip-path:url(#SVGID_4_);fill:none;stroke:#EEF4F9;stroke-width:2.15;stroke-miterlimit:10;}
	.st53{clip-path:url(#SVGID_4_);fill:#F1F6FA;}
	.st54{clip-path:url(#SVGID_4_);fill:none;stroke:#F1F6FA;stroke-width:2.15;stroke-miterlimit:10;}
	.st55{clip-path:url(#SVGID_4_);fill:#F5F8FB;}
	.st56{clip-path:url(#SVGID_4_);fill:none;stroke:#F5F8FB;stroke-width:2.15;stroke-miterlimit:10;}
	.st57{clip-path:url(#SVGID_4_);fill:#F7FAFC;}
	.st58{clip-path:url(#SVGID_4_);fill:none;stroke:#F7FAFC;stroke-width:2.15;stroke-miterlimit:10;}
	.st59{clip-path:url(#SVGID_4_);fill:#FAFBFD;}
	.st60{clip-path:url(#SVGID_4_);fill:none;stroke:#FAFBFD;stroke-width:2.15;stroke-miterlimit:10;}
	.st61{clip-path:url(#SVGID_4_);fill:#FCFDFE;}
	.st62{clip-path:url(#SVGID_4_);fill:none;stroke:#FCFDFE;stroke-width:2.15;stroke-miterlimit:10;}
	.st63{clip-path:url(#SVGID_4_);fill:#FDFEFE;}
	.st64{clip-path:url(#SVGID_4_);fill:none;stroke:#FDFEFE;stroke-width:2.15;stroke-miterlimit:10;}
	.st65{clip-path:url(#SVGID_4_);fill:#FEFEFF;}
	.st66{clip-path:url(#SVGID_4_);fill:none;stroke:#FEFEFF;stroke-width:2.15;stroke-miterlimit:10;}
	.st67{clip-path:url(#SVGID_4_);fill:#FFFFFF;}
	.st68{clip-path:url(#SVGID_4_);fill:none;stroke:#FFFFFF;stroke-width:2.15;stroke-miterlimit:10;}
	.st69{clip-path:url(#SVGID_6_);}
	.st70{clip-path:url(#SVGID_8_);fill:#246EB0;}
	.st71{clip-path:url(#SVGID_8_);fill:none;stroke:#246EB0;stroke-width:2.15;stroke-miterlimit:10;}
	.st72{clip-path:url(#SVGID_8_);fill:#3177B5;}
	.st73{clip-path:url(#SVGID_8_);fill:none;stroke:#3177B5;stroke-width:2.15;stroke-miterlimit:10;}
	.st74{clip-path:url(#SVGID_8_);fill:#3F80BA;}
	.st75{clip-path:url(#SVGID_8_);fill:none;stroke:#3F80BA;stroke-width:2.15;stroke-miterlimit:10;}
	.st76{clip-path:url(#SVGID_8_);fill:#4B88BE;}
	.st77{clip-path:url(#SVGID_8_);fill:none;stroke:#4B88BE;stroke-width:2.15;stroke-miterlimit:10;}
	.st78{clip-path:url(#SVGID_8_);fill:#5790C3;}
	.st79{clip-path:url(#SVGID_8_);fill:none;stroke:#5790C3;stroke-width:2.15;stroke-miterlimit:10;}
	.st80{clip-path:url(#SVGID_8_);fill:#6398C7;}
	.st81{clip-path:url(#SVGID_8_);fill:none;stroke:#6398C7;stroke-width:2.15;stroke-miterlimit:10;}
	.st82{clip-path:url(#SVGID_8_);fill:#6E9FCB;}
	.st83{clip-path:url(#SVGID_8_);fill:none;stroke:#6E9FCB;stroke-width:2.15;stroke-miterlimit:10;}
	.st84{clip-path:url(#SVGID_8_);fill:#79A6CF;}
	.st85{clip-path:url(#SVGID_8_);fill:none;stroke:#79A6CF;stroke-width:2.15;stroke-miterlimit:10;}
	.st86{clip-path:url(#SVGID_8_);fill:#84ADD3;}
	.st87{clip-path:url(#SVGID_8_);fill:none;stroke:#84ADD3;stroke-width:2.15;stroke-miterlimit:10;}
	.st88{clip-path:url(#SVGID_8_);fill:#8EB4D6;}
	.st89{clip-path:url(#SVGID_8_);fill:none;stroke:#8EB4D6;stroke-width:2.15;stroke-miterlimit:10;}
	.st90{clip-path:url(#SVGID_8_);fill:#97BADA;}
	.st91{clip-path:url(#SVGID_8_);fill:none;stroke:#97BADA;stroke-width:2.15;stroke-miterlimit:10;}
	.st92{clip-path:url(#SVGID_8_);fill:#A1C1DD;}
	.st93{clip-path:url(#SVGID_8_);fill:none;stroke:#A1C1DD;stroke-width:2.15;stroke-miterlimit:10;}
	.st94{clip-path:url(#SVGID_8_);fill:#A9C6E0;}
	.st95{clip-path:url(#SVGID_8_);fill:none;stroke:#A9C6E0;stroke-width:2.15;stroke-miterlimit:10;}
	.st96{clip-path:url(#SVGID_8_);fill:#B2CCE3;}
	.st97{clip-path:url(#SVGID_8_);fill:none;stroke:#B2CCE3;stroke-width:2.15;stroke-miterlimit:10;}
	.st98{clip-path:url(#SVGID_8_);fill:#BAD1E6;}
	.st99{clip-path:url(#SVGID_8_);fill:none;stroke:#BAD1E6;stroke-width:2.15;stroke-miterlimit:10;}
	.st100{clip-path:url(#SVGID_8_);fill:#C1D6E9;}
	.st101{clip-path:url(#SVGID_8_);fill:none;stroke:#C1D6E9;stroke-width:2.15;stroke-miterlimit:10;}
	.st102{clip-path:url(#SVGID_8_);fill:#C8DBEB;}
	.st103{clip-path:url(#SVGID_8_);fill:none;stroke:#C8DBEB;stroke-width:2.15;stroke-miterlimit:10;}
	.st104{clip-path:url(#SVGID_8_);fill:#CFDFEE;}
	.st105{clip-path:url(#SVGID_8_);fill:none;stroke:#CFDFEE;stroke-width:2.15;stroke-miterlimit:10;}
	.st106{clip-path:url(#SVGID_8_);fill:#D5E3F0;}
	.st107{clip-path:url(#SVGID_8_);fill:none;stroke:#D5E3F0;stroke-width:2.15;stroke-miterlimit:10;}
	.st108{clip-path:url(#SVGID_8_);fill:#DBE7F2;}
	.st109{clip-path:url(#SVGID_8_);fill:none;stroke:#DBE7F2;stroke-width:2.15;stroke-miterlimit:10;}
	.st110{clip-path:url(#SVGID_8_);fill:#E0EBF4;}
	.st111{clip-path:url(#SVGID_8_);fill:none;stroke:#E0EBF4;stroke-width:2.15;stroke-miterlimit:10;}
	.st112{clip-path:url(#SVGID_8_);fill:#E5EEF6;}
	.st113{clip-path:url(#SVGID_8_);fill:none;stroke:#E5EEF6;stroke-width:2.15;stroke-miterlimit:10;}
	.st114{clip-path:url(#SVGID_8_);fill:#EAF1F7;}
	.st115{clip-path:url(#SVGID_8_);fill:none;stroke:#EAF1F7;stroke-width:2.15;stroke-miterlimit:10;}
	.st116{clip-path:url(#SVGID_8_);fill:#EEF4F9;}
	.st117{clip-path:url(#SVGID_8_);fill:none;stroke:#EEF4F9;stroke-width:2.15;stroke-miterlimit:10;}
	.st118{clip-path:url(#SVGID_8_);fill:#F1F6FA;}
	.st119{clip-path:url(#SVGID_8_);fill:none;stroke:#F1F6FA;stroke-width:2.15;stroke-miterlimit:10;}
	.st120{clip-path:url(#SVGID_8_);fill:#F5F8FB;}
	.st121{clip-path:url(#SVGID_8_);fill:none;stroke:#F5F8FB;stroke-width:2.15;stroke-miterlimit:10;}
	.st122{clip-path:url(#SVGID_8_);fill:#F7FAFC;}
	.st123{clip-path:url(#SVGID_8_);fill:none;stroke:#F7FAFC;stroke-width:2.15;stroke-miterlimit:10;}
	.st124{clip-path:url(#SVGID_8_);fill:#FAFBFD;}
	.st125{clip-path:url(#SVGID_8_);fill:none;stroke:#FAFBFD;stroke-width:2.15;stroke-miterlimit:10;}
	.st126{clip-path:url(#SVGID_8_);fill:#FCFDFE;}
	.st127{clip-path:url(#SVGID_8_);fill:none;stroke:#FCFDFE;stroke-width:2.15;stroke-miterlimit:10;}
	.st128{clip-path:url(#SVGID_8_);fill:#FDFEFE;}
	.st129{clip-path:url(#SVGID_8_);fill:none;stroke:#FDFEFE;stroke-width:2.15;stroke-miterlimit:10;}
	.st130{clip-path:url(#SVGID_8_);fill:#FEFEFF;}
	.st131{clip-path:url(#SVGID_8_);fill:none;stroke:#FEFEFF;stroke-width:2.15;stroke-miterlimit:10;}
	.st132{clip-path:url(#SVGID_8_);fill:#FFFFFF;}
	.st133{clip-path:url(#SVGID_8_);fill:none;stroke:#FFFFFF;stroke-width:2.15;stroke-miterlimit:10;}
	.st134{fill:none;stroke:#000000;stroke-miterlimit:10;}
	.st135{fill:none;stroke:#B3B3B3;stroke-width:1.6;stroke-miterlimit:10;}
	.st136{fill:#B3B3B3;}
	.st137{fill:#94B0D0;}
	.st138{fill:none;stroke:#94B0D0;stroke-width:1.6;stroke-miterlimit:10;}
	.st139{fill:#9BB5D3;}
	.st140{fill:none;stroke:#9BB5D3;stroke-width:1.6;stroke-miterlimit:10;}
	.st141{fill:#A1BAD6;}
	.st142{fill:none;stroke:#A1BAD6;stroke-width:1.6;stroke-miterlimit:10;}
	.st143{fill:#A7BED8;}
	.st144{fill:none;stroke:#A7BED8;stroke-width:1.6;stroke-miterlimit:10;}
	.st145{fill:#ADC3DB;}
	.st146{fill:none;stroke:#ADC3DB;stroke-width:1.6;stroke-miterlimit:10;}
	.st147{fill:#B3C7DE;}
	.st148{fill:none;stroke:#B3C7DE;stroke-width:1.6;stroke-miterlimit:10;}
	.st149{fill:#B8CBE0;}
	.st150{fill:none;stroke:#B8CBE0;stroke-width:1.6;stroke-miterlimit:10;}
	.st151{fill:#BECFE2;}
	.st152{fill:none;stroke:#BECFE2;stroke-width:1.6;stroke-miterlimit:10;}
	.st153{fill:#C3D3E5;}
	.st154{fill:none;stroke:#C3D3E5;stroke-width:1.6;stroke-miterlimit:10;}
	.st155{fill:#C8D6E7;}
	.st156{fill:none;stroke:#C8D6E7;stroke-width:1.6;stroke-miterlimit:10;}
	.st157{fill:#CCDAE9;}
	.st158{fill:none;stroke:#CCDAE9;stroke-width:1.6;stroke-miterlimit:10;}
	.st159{fill:#D1DDEB;}
	.st160{fill:none;stroke:#D1DDEB;stroke-width:1.6;stroke-miterlimit:10;}
	.st161{fill:#D5E0ED;}
	.st162{fill:none;stroke:#D5E0ED;stroke-width:1.6;stroke-miterlimit:10;}
	.st163{fill:#D9E3EE;}
	.st164{fill:none;stroke:#D9E3EE;stroke-width:1.6;stroke-miterlimit:10;}
	.st165{fill:#DDE6F0;}
	.st166{fill:none;stroke:#DDE6F0;stroke-width:1.6;stroke-miterlimit:10;}
	.st167{fill:#E1E9F2;}
	.st168{fill:none;stroke:#E1E9F2;stroke-width:1.6;stroke-miterlimit:10;}
	.st169{fill:#E4EBF3;}
	.st170{fill:none;stroke:#E4EBF3;stroke-width:1.6;stroke-miterlimit:10;}
	.st171{fill:#E7EEF5;}
	.st172{fill:none;stroke:#E7EEF5;stroke-width:1.6;stroke-miterlimit:10;}
	.st173{fill:#EBF0F6;}
	.st174{fill:none;stroke:#EBF0F6;stroke-width:1.6;stroke-miterlimit:10;}
	.st175{fill:#EDF2F7;}
	.st176{fill:none;stroke:#EDF2F7;stroke-width:1.6;stroke-miterlimit:10;}
	.st177{fill:#F0F4F8;}
	.st178{fill:none;stroke:#F0F4F8;stroke-width:1.6;stroke-miterlimit:10;}
	.st179{fill:#F2F6F9;}
	.st180{fill:none;stroke:#F2F6F9;stroke-width:1.6;stroke-miterlimit:10;}
	.st181{fill:#F5F7FA;}
	.st182{fill:none;stroke:#F5F7FA;stroke-width:1.6;stroke-miterlimit:10;}
	.st183{fill:#F7F9FB;}
	.st184{fill:none;stroke:#F7F9FB;stroke-width:1.6;stroke-miterlimit:10;}
	.st185{fill:#F8FAFC;}
	.st186{fill:none;stroke:#F8FAFC;stroke-width:1.6;stroke-miterlimit:10;}
	.st187{fill:#FAFBFD;}
	.st188{fill:none;stroke:#FAFBFD;stroke-width:1.6;stroke-miterlimit:10;}
	.st189{fill:#FBFCFD;}
	.st190{fill:none;stroke:#FBFCFD;stroke-width:1.6;stroke-miterlimit:10;}
	.st191{fill:#FCFDFE;}
	.st192{fill:none;stroke:#FCFDFE;stroke-width:1.6;stroke-miterlimit:10;}
	.st193{fill:#FDFEFE;}
	.st194{fill:none;stroke:#FDFEFE;stroke-width:1.6;stroke-miterlimit:10;}
	.st195{fill:#FEFEFF;}
	.st196{fill:none;stroke:#FEFEFF;stroke-width:1.6;stroke-miterlimit:10;}
	.st197{fill:#FFFFFF;}
	.st198{fill:none;stroke:#FFFFFF;stroke-width:1.6;stroke-miterlimit:10;}
	.st199{fill:none;}
	.st200{font-family:'Helvetica';}
	.st201{font-size:8.1283px;}
	.st202{fill:#CCCCCC;}
	.st203{fill:#7A6AA8;}
	.st204{fill:#407993;}
	.st205{fill:#336681;}
	.st206{fill:#C2D5D4;}
	.st207{fill:none;stroke:#C2D5D4;stroke-width:1.6;stroke-miterlimit:10;}
	.st208{fill:none;stroke:#407B93;stroke-width:3.65;stroke-miterlimit:10;}
	.st209{fill:#407B93;}
	.st210{fill:none;stroke:#407B93;stroke-width:1.6;stroke-miterlimit:10;}
	.st211{fill:none;stroke:#000000;stroke-width:1.3;stroke-miterlimit:10;}
	.st212{fill:none;stroke:#000000;stroke-width:1.6;stroke-miterlimit:10;}
	.st213{fill:#B9CFD8;}
	.st214{fill:none;stroke:#B9CFD8;stroke-width:1.6;stroke-miterlimit:10;}
	.st215{fill:none;stroke:#CCCCCC;stroke-width:1.6;stroke-miterlimit:10;}
	.st216{fill:none;stroke:#A5B9CF;stroke-width:1.6;stroke-miterlimit:10;}
	.st217{fill:#BDD2DA;}
	.st218{fill:none;stroke:#BDD2DA;stroke-width:1.6;stroke-miterlimit:10;}
	.st219{fill:#C1D5DD;}
	.st220{fill:none;stroke:#C1D5DD;stroke-width:1.6;stroke-miterlimit:10;}
	.st221{fill:#C6D8DF;}
	.st222{fill:none;stroke:#C6D8DF;stroke-width:1.6;stroke-miterlimit:10;}
	.st223{fill:#C9DAE1;}
	.st224{fill:none;stroke:#C9DAE1;stroke-width:1.6;stroke-miterlimit:10;}
	.st225{fill:#CDDDE3;}
	.st226{fill:none;stroke:#CDDDE3;stroke-width:1.6;stroke-miterlimit:10;}
	.st227{fill:#D1DFE5;}
	.st228{fill:none;stroke:#D1DFE5;stroke-width:1.6;stroke-miterlimit:10;}
	.st229{fill:#D4E2E7;}
	.st230{fill:none;stroke:#D4E2E7;stroke-width:1.6;stroke-miterlimit:10;}
	.st231{fill:#D8E4E9;}
	.st232{fill:none;stroke:#D8E4E9;stroke-width:1.6;stroke-miterlimit:10;}
	.st233{fill:#DBE6EB;}
	.st234{fill:none;stroke:#DBE6EB;stroke-width:1.6;stroke-miterlimit:10;}
	.st235{fill:#DEE8ED;}
	.st236{fill:none;stroke:#DEE8ED;stroke-width:1.6;stroke-miterlimit:10;}
	.st237{fill:#E1EAEE;}
	.st238{fill:none;stroke:#E1EAEE;stroke-width:1.6;stroke-miterlimit:10;}
	.st239{fill:#E4ECF0;}
	.st240{fill:none;stroke:#E4ECF0;stroke-width:1.6;stroke-miterlimit:10;}
	.st241{fill:#E6EEF1;}
	.st242{fill:none;stroke:#E6EEF1;stroke-width:1.6;stroke-miterlimit:10;}
	.st243{fill:#E9F0F3;}
	.st244{fill:none;stroke:#E9F0F3;stroke-width:1.6;stroke-miterlimit:10;}
	.st245{fill:#EBF1F4;}
	.st246{fill:none;stroke:#EBF1F4;stroke-width:1.6;stroke-miterlimit:10;}
	.st247{fill:#EDF3F5;}
	.st248{fill:none;stroke:#EDF3F5;stroke-width:1.6;stroke-miterlimit:10;}
	.st249{fill:#F0F4F6;}
	.st250{fill:none;stroke:#F0F4F6;stroke-width:1.6;stroke-miterlimit:10;}
	.st251{fill:#F2F6F8;}
	.st252{fill:none;stroke:#F2F6F8;stroke-width:1.6;stroke-miterlimit:10;}
	.st253{fill:#F3F7F9;}
	.st254{fill:none;stroke:#F3F7F9;stroke-width:1.6;stroke-miterlimit:10;}
	.st255{fill:#F5F8FA;}
	.st256{fill:none;stroke:#F5F8FA;stroke-width:1.6;stroke-miterlimit:10;}
	.st257{fill:#F7F9FA;}
	.st258{fill:none;stroke:#F7F9FA;stroke-width:1.6;stroke-miterlimit:10;}
	.st259{fill:#F8FAFB;}
	.st260{fill:none;stroke:#F8FAFB;stroke-width:1.6;stroke-miterlimit:10;}
	.st261{fill:#F9FBFC;}
	.st262{fill:none;stroke:#F9FBFC;stroke-width:1.6;stroke-miterlimit:10;}
	.st263{fill:#FCFDFD;}
	.st264{fill:none;stroke:#FCFDFD;stroke-width:1.6;stroke-miterlimit:10;}
	.st265{fill:#FDFDFE;}
	.st266{fill:none;stroke:#FDFDFE;stroke-width:1.6;stroke-miterlimit:10;}
	.st267{fill:#FEFEFE;}
	.st268{fill:none;stroke:#FEFEFE;stroke-width:1.6;stroke-miterlimit:10;}
	.st269{fill:#FEFFFF;}
	.st270{fill:none;stroke:#FEFFFF;stroke-width:1.6;stroke-miterlimit:10;}
	.st271{fill:none;stroke:#FFCC66;stroke-width:3.25;stroke-miterlimit:10;stroke-dasharray:3.8,3.8;}
</style>
<g>
	<g>
		<g>
			<g>
				<defs>
					<circle id="SVGID_1_" cx="-521" cy="129" r="9.6"/>
				</defs>
				<clipPath id="SVGID_2_">
					<use xlink:href="#SVGID_1_"  style="overflow:visible;"/>
				</clipPath>
				<g class="st4">
					<defs>
						<rect id="SVGID_3_" x="-673.2" y="-115.4" width="881.2" height="588.8"/>
					</defs>
					<clipPath id="SVGID_4_">
						<use xlink:href="#SVGID_3_"  style="overflow:visible;"/>
					</clipPath>
				</g>
			</g>
		</g>
		<g>
			<g>
				<defs>
					<circle id="SVGID_5_" cx="-521" cy="98.6" r="9.6"/>
				</defs>
				<clipPath id="SVGID_6_">
					<use xlink:href="#SVGID_5_"  style="overflow:visible;"/>
				</clipPath>
				<g class="st69">
					<defs>
						<rect id="SVGID_7_" x="-673.2" y="-115.4" width="881.2" height="588.8"/>
					</defs>
					<clipPath id="SVGID_8_">
						<use xlink:href="#SVGID_7_"  style="overflow:visible;"/>
					</clipPath>
				</g>
			</g>
		</g>
	</g>
</g>
<g>
	<polygon points="81.3,111.4 82,111.9 82,112.6 65.6,117.3 64.3,116.4 	"/>
	<rect x="67.7" y="116.6" transform="matrix(0.9603 -0.2788 0.2788 0.9603 -29.6991 25.557)" width="14.5" height="1.3"/>
	<polygon points="81.3,102.4 82,102 82.6,102.4 82.6,111.4 82,111.9 81.3,111.4 	"/>
	<polygon points="64.3,97.4 65.6,96.5 82,101.3 82,102 81.3,102.4 	"/>
	<polygon points="67.9,95.3 68.3,94 82.1,98.1 81.8,99.3 	"/>
	<g>
		<path d="M95.9,93.1h1.2l3.9,6.3v-6.3h1v7.8h-1.2l-3.9-6.3v6.3h-1V93.1z"/>
	</g>
	<polygon points="93.6,97.9 93.9,99.1 82.6,102.4 82,102 82,101.3 	"/>
	<rect x="98.3" y="87.1" width="1.2" height="4.4"/>
	<rect x="95.2" y="89.4" width="1.2" height="2.1"/>
	<polygon points="82,82.7 82,81.4 99.6,86.6 98.3,87.5 	"/>
	<polygon points="65.6,87.5 64.9,87 64.9,86.4 82,81.4 82,82.7 	"/>
	<polygon points="68.3,90 67.9,88.8 81.8,84.7 82.2,85.9 	"/>
	<polygon points="65.6,96.5 64.3,97.4 64.3,87.5 64.9,87 65.6,87.5 	"/>
	<g>
		<path d="M95.9,113h1.2l3.9,6.3V113h1v7.8h-1.2l-3.9-6.3v6.3h-1V113z"/>
	</g>
	<polygon points="65.6,125.5 64.9,126.8 64.3,126.3 64.3,116.4 65.6,117.3 	"/>
	<polygon points="81.9,130.3 81.9,133.3 63.5,127.9 64.9,126.8 65.6,125.5 	"/>
	<polygon points="82.1,127.1 81.8,128.3 68.7,124.5 69,123.3 	"/>
	<polygon points="98.3,125.5 99.6,128.1 81.9,133.3 81.9,130.3 	"/>
	<polygon points="98.3,122.3 99.6,122.3 99.6,128.1 98.3,125.5 	"/>
	<rect x="95.2" y="122.3" width="1.2" height="2.2"/>
	<polygon points="82,112.6 82,111.9 82.6,111.4 93.9,114.7 93.6,116 	"/>
	<g>
		<path d="M119.1,103.5h1.2l3.9,6.3v-6.3h1v7.8H124l-3.9-6.3v6.3h-1V103.5z"/>
		<path d="M126.8,103.5h1v1.1h-1V103.5z M126.8,105.7h1v5.6h-1V105.7z"/>
	</g>
	<text transform="matrix(1 0 0 1 128.5615 108.186)" class="st200 st201">II</text>
	<polygon points="103.5,101.3 105.2,97.4 106.3,98.1 104.6,101.7 	"/>
	<polygon points="107.4,102.6 108.8,99.5 109.8,100.2 108.6,103 	"/>
	<polygon points="111.4,103.9 112.3,101.7 113.4,102.3 112.5,104.3 	"/>
	<polygon points="115.3,105.2 115.9,103.8 117,104.4 116.5,105.5 	"/>
	<polygon points="105.2,116.7 103.5,112.7 116.6,109 117.1,110.2 	"/>
	<polygon points="148.3,91.9 150.2,95.8 149,96.2 147.2,92.6 	"/>
	<polygon points="144.9,94 146.5,97.2 145.4,97.7 143.8,94.7 	"/>
	<polygon points="141.5,96.1 142.8,98.6 141.7,99.1 140.5,96.8 	"/>
	<polygon points="138.2,98.2 139.2,100.1 138,100.6 137.1,98.8 	"/>
	<polygon points="134.8,100.2 135.5,101.6 134.3,102 133.7,100.9 	"/>
	<g>
		<path d="M148.9,123.6h-1.3l2.8-4l-2.6-3.8h1.3l2,3l2-3h1.3l-2.6,3.8l2.7,4h-1.3l-2.1-3.2L148.9,123.6z"/>
	</g>
	<polygon points="146.3,115.3 144.7,119.2 129.4,111.2 129.9,110 	"/>
	<g>
		<path d="M32.4,128.2h1l-0.3,1.6h0.9l-0.2,0.8h-0.9l-0.8,3.7c0,0.2,0,0.3,0.1,0.4c0.1,0,0.2,0.1,0.4,0.1c0,0,0.1,0,0.1,0
			s0.1,0,0.2,0l-0.2,0.8c-0.1,0-0.2,0.1-0.4,0.1c-0.1,0-0.3,0-0.4,0c-0.4,0-0.7-0.1-0.8-0.3c-0.1-0.2-0.1-0.5-0.1-0.9l0.8-3.8h-0.8
			l0.2-0.8h0.8L32.4,128.2z"/>
		<path d="M34.2,132h2.7l-0.2,1H34L34.2,132z"/>
	</g>
	<g>
		<path d="M37.6,127.7H41c0.9,0,1.6,0.3,2,0.8c0.2,0.3,0.3,0.7,0.3,1.1c0,0.5-0.1,0.9-0.4,1.2c-0.1,0.2-0.4,0.3-0.6,0.5
			c0.4,0.2,0.7,0.3,0.9,0.5c0.3,0.3,0.5,0.8,0.5,1.4c0,0.5-0.2,1-0.5,1.4c-0.5,0.6-1.2,0.9-2.3,0.9h-3.3V127.7z M40.6,131
			c0.4,0,0.8-0.1,1-0.2c0.4-0.2,0.6-0.5,0.6-1c0-0.5-0.2-0.8-0.6-1c-0.2-0.1-0.6-0.1-1-0.1h-1.9v2.4H40.6z M41,134.6
			c0.7,0,1.1-0.2,1.4-0.6c0.2-0.2,0.3-0.5,0.3-0.9c0-0.6-0.3-0.9-0.8-1.2c-0.3-0.1-0.6-0.2-1.1-0.2h-2.1v2.7H41z"/>
		<path d="M45.7,129.8v3.8c0,0.3,0,0.5,0.1,0.7c0.2,0.3,0.5,0.5,0.9,0.5c0.6,0,1.1-0.3,1.3-0.9c0.1-0.3,0.2-0.8,0.2-1.3v-2.8h1v5.7
			h-0.9l0-0.8c-0.1,0.2-0.3,0.4-0.5,0.5c-0.4,0.3-0.8,0.4-1.3,0.4c-0.8,0-1.3-0.3-1.6-0.8c-0.2-0.3-0.2-0.7-0.2-1.2v-3.9H45.7z"/>
	</g>
	<polygon points="51.3,131.5 51,130.3 64.3,126.3 64.9,126.8 63.5,127.9 	"/>
	<g>
		<path d="M32.4,78.9h1l-0.3,1.6H34l-0.2,0.8h-0.9l-0.8,3.7c0,0.2,0,0.3,0.1,0.4c0.1,0,0.2,0.1,0.4,0.1c0,0,0.1,0,0.1,0s0.1,0,0.2,0
			l-0.2,0.8c-0.1,0-0.2,0.1-0.4,0.1c-0.1,0-0.3,0-0.4,0c-0.4,0-0.7-0.1-0.8-0.3c-0.1-0.2-0.1-0.5-0.1-0.9l0.8-3.8h-0.8l0.2-0.8h0.8
			L32.4,78.9z"/>
		<path d="M34.2,82.6h2.7l-0.2,1H34L34.2,82.6z"/>
	</g>
	<g>
		<path d="M37.7,78.4H41c0.9,0,1.6,0.3,2,0.8c0.2,0.3,0.3,0.7,0.3,1.1c0,0.5-0.1,0.9-0.4,1.2c-0.1,0.2-0.4,0.3-0.6,0.5
			c0.4,0.2,0.7,0.3,0.9,0.5c0.3,0.3,0.5,0.8,0.5,1.4c0,0.5-0.2,1-0.5,1.4c-0.5,0.6-1.2,0.9-2.3,0.9h-3.3V78.4z M40.7,81.6
			c0.4,0,0.8-0.1,1-0.2c0.4-0.2,0.6-0.5,0.6-1c0-0.5-0.2-0.8-0.6-1c-0.2-0.1-0.6-0.1-1-0.1h-1.9v2.4H40.7z M41,85.2
			c0.7,0,1.1-0.2,1.4-0.6c0.2-0.2,0.3-0.5,0.3-0.9c0-0.6-0.3-0.9-0.8-1.2c-0.3-0.1-0.6-0.2-1.1-0.2h-2.1v2.7H41z"/>
		<path d="M45.8,80.5v3.8c0,0.3,0,0.5,0.1,0.7c0.2,0.3,0.5,0.5,0.9,0.5c0.6,0,1.1-0.3,1.3-0.9c0.1-0.3,0.2-0.8,0.2-1.3v-2.8h1v5.7
			h-0.9l0-0.8c-0.1,0.2-0.3,0.4-0.5,0.5c-0.4,0.3-0.8,0.4-1.3,0.4c-0.8,0-1.3-0.3-1.6-0.8c-0.2-0.3-0.2-0.7-0.2-1.2v-3.9H45.8z"/>
	</g>
	<polygon points="51.2,83.6 51.5,82.4 64.9,86.4 64.9,87 64.3,87.5 	"/>
	<circle class="st137" cx="151.1" cy="92.5" r="8.8"/>
	<circle class="st138" cx="151.1" cy="92.5" r="8.8"/>
	<circle class="st202" cx="196.4" cy="80.1" r="12.3"/>
	<path class="st138" d="M182.1,71.8c-18.8-11.9-46.2-5.8-58.1,13.1"/>
	<g>
		<path d="M196.8,81.8l2,0.3c-0.3,0.7-0.7,1.3-1.2,1.7c-0.6,0.4-1.3,0.6-2.1,0.6c-1.3,0-2.3-0.4-3-1.3c-0.5-0.7-0.8-1.6-0.8-2.6
			c0-1.3,0.3-2.3,1-3c0.7-0.7,1.5-1.1,2.5-1.1c1.1,0,2,0.4,2.7,1.1c0.7,0.8,1,1.9,0.9,3.5h-5.1c0,0.6,0.2,1.1,0.5,1.4
			c0.3,0.3,0.7,0.5,1.2,0.5c0.3,0,0.6-0.1,0.8-0.3S196.6,82.2,196.8,81.8z M196.9,79.7c0-0.6-0.2-1-0.5-1.3
			c-0.3-0.3-0.6-0.5-1.1-0.5c-0.4,0-0.8,0.2-1.1,0.5c-0.3,0.3-0.4,0.8-0.4,1.3H196.9z"/>
	</g>
	<g>
		<rect x="200" y="77.3" width="5.1" height="0.8"/>
	</g>
	<g>
		<path d="M299.1,81.5h1.2l3.9,6.3v-6.3h1v7.8h-1.2l-4-6.3v6.3h-1V81.5z"/>
	</g>
	<polygon points="268.8,85.6 267.5,86.5 267.6,71.3 268.8,72.1 	"/>
	<polygon points="285.1,92.3 285.1,93 284.5,93.3 267.5,86.5 268.8,85.6 	"/>
	<polygon points="285.3,89 284.8,90.1 271,84.5 271.5,83.4 	"/>
	<polygon points="296.5,87.2 297.1,88.4 285.7,93.3 285.1,93 285.1,92.3 	"/>
	<polygon points="301.6,71.5 302.9,70.6 302.8,79.9 301.6,79.9 	"/>
	<polygon points="298.5,73.2 299.7,73.2 299.7,79.9 298.5,79.9 	"/>
	<polygon points="285.3,64.8 285.2,63.5 302.9,70.6 301.6,71.5 	"/>
	<polygon points="268.8,72.1 267.6,71.3 285.2,63.5 285.3,64.8 	"/>
	<polygon points="271.6,74.3 271.1,73.2 285,67 285.6,68.1 	"/>
	<polygon points="285.7,106.9 285.1,107.3 284.5,106.9 284.5,93.3 285.1,93 285.7,93.3 	"/>
	<polygon points="268.7,115.2 267.4,114.4 284.5,106.9 285.1,107.3 285.1,108 	"/>
	<polygon points="271.4,117.4 270.9,116.3 284.8,110.1 285.4,111.3 	"/>
	<polygon points="268.6,127.9 267.3,130.5 267.4,114.4 268.7,115.2 	"/>
	<polygon points="284.9,134.5 285,137.6 267.3,130.5 268.6,127.9 	"/>
	<polygon points="285.1,131.2 284.7,132.4 271.7,127.1 272.1,126 	"/>
	<polygon points="301.4,127.3 302.6,129.8 285,137.6 284.9,134.5 	"/>
	<polygon points="301.4,114.6 302,114.2 302.7,116.3 302.6,129.8 301.4,127.3 	"/>
	<polygon points="298.3,116.3 299.5,116.3 299.5,126.5 298.3,126.5 	"/>
	<polygon points="285.1,108 285.1,107.3 285.7,106.9 300.1,112.7 302,114.2 301.4,114.6 	"/>
	<g>
		<path d="M326.4,95.5h1.1v7.8h-1.1V95.5z"/>
		<path d="M329.1,97.6h0.9v1c0.1-0.2,0.3-0.4,0.5-0.7s0.6-0.4,1-0.4c0,0,0,0,0.1,0c0,0,0.1,0,0.2,0v1c-0.1,0-0.1,0-0.2,0
			c0,0-0.1,0-0.2,0c-0.5,0-0.9,0.2-1.1,0.5c-0.3,0.3-0.4,0.7-0.4,1.1v3.3h-1V97.6z"/>
	</g>
	<polygon points="318.3,54 315.5,55.3 315.6,34.3 318.5,35.7 	"/>
	<polygon points="321.5,52.8 320.2,52.8 320.4,36.9 321.6,36.9 	"/>
	<polygon points="329.6,63.1 328.9,64.5 328.3,65.8 315.5,55.3 318.3,54 	"/>
	<polygon points="340.5,54.4 341.1,54.6 341.1,55.5 329.6,64.8 328.9,64.5 329.6,63.1 	"/>
	<polygon points="337.6,52.6 338.4,53.6 329.3,60.9 328.6,60 	"/>
	<polygon points="340.6,35.3 341.8,34.7 341.7,54.4 341.1,54.6 340.5,54.4 	"/>
	<polygon points="329.8,26.5 328.6,23.8 341.8,34.7 340.6,35.3 	"/>
	<polygon points="328.8,29.7 329.6,28.7 338.5,36 337.7,36.9 	"/>
	<polygon points="318.5,35.7 315.6,34.3 328.6,23.8 329.8,26.5 	"/>
	<polygon points="352.5,63.1 353.1,64.5 351.7,64.1 341.1,55.5 341.1,54.6 341.7,54.4 	"/>
	<g>
		<path d="M349.9,80.2h1.2l3.9,6.3v-6.3h1V88h-1.2l-4-6.3V88h-1V80.2z"/>
	</g>
	<polygon points="354.4,78.6 351.6,78.6 351.7,64.1 353.1,64.5 354.6,65.2 	"/>
	<polygon points="357.6,78.6 356.3,78.6 356.4,66.4 357.7,66.4 	"/>
	<polygon points="365,93.1 365,94.7 357.5,88.6 358.3,87.7 	"/>
	<polygon points="376.5,83.8 377.8,84.4 365,94.7 365,93.1 	"/>
	<polygon points="373.7,82.1 374.5,83.1 365.4,90.4 364.6,89.4 	"/>
	<polygon points="376.7,64.8 377.9,64.2 377.8,84.4 376.5,83.8 	"/>
	<polygon points="365.9,56 364.6,53.3 377.9,64.2 376.7,64.8 	"/>
	<polygon points="364.9,59.2 365.7,58.2 374.6,65.5 373.8,66.4 	"/>
	<polygon points="354.6,65.2 353.1,64.5 352.5,63.1 364.6,53.3 365.9,56 	"/>
	<g>
		<path d="M325.8,130h1.2l3.9,6.3V130h1v7.8h-1.2l-4-6.3v6.3h-1V130z"/>
	</g>
	<polygon points="316.3,143.4 317.5,144 317.7,163 316.4,163.6 	"/>
	<polygon points="319.4,145.2 320.7,145.2 320.8,161.8 319.5,161.8 	"/>
	<polygon points="323.6,137.4 324.4,138.4 317.5,144 316.3,143.4 	"/>
	<polygon points="341.7,142.4 341.1,143.7 339.7,144.4 333,139 334.7,136.8 	"/>
	<polygon points="337.6,145.1 336.8,146.1 331,141.4 331.8,140.4 	"/>
	<polygon points="342.7,163 339.8,163.7 339.7,144.4 341.1,143.7 342.5,143.4 	"/>
	<polygon points="329.2,174 329.2,172.4 339.8,163.7 342.7,163 	"/>
	<polygon points="329.6,169.6 328.8,168.7 337.7,161.4 338.5,162.3 	"/>
	<polygon points="316.4,163.6 317.7,163 329.2,172.4 329.2,174 	"/>
	<polygon points="352.5,133.6 353.1,133.9 353.1,134.7 342.5,143.4 341.1,143.7 341.7,142.4 	"/>
	<polygon points="352.4,116.4 353,114.2 353.6,115.6 353.7,133.6 353.1,133.9 352.5,133.6 	"/>
	<polygon points="355.5,115.7 356.7,115.7 356.9,132.4 355.6,132.4 	"/>
	<polygon points="365,102.6 365,106.2 353.6,115.6 353,114.2 353.4,112.1 	"/>
	<polygon points="378.6,113.5 375.8,114.9 365,106.2 365,102.6 	"/>
	<polygon points="373.7,115.6 372.9,116.6 364.6,110 365.4,109 	"/>
	<polygon points="378.7,133.5 375.9,134.2 375.8,114.9 378.6,113.5 	"/>
	<polygon points="365.3,144.5 365.3,142.9 375.9,134.2 378.7,133.5 	"/>
	<polygon points="365.7,140.2 364.9,139.2 373.8,131.9 374.6,132.9 	"/>
	<polygon points="353.1,134.7 353.1,133.9 353.7,133.6 365.3,142.9 365.3,144.5 	"/>
	<polygon points="334.7,96.9 334.1,95.8 335.1,95.1 335.9,96.3 	"/>
	<polygon points="339.1,94.6 337.9,92.8 338.9,92 340.2,94 	"/>
	<polygon points="343.5,92.3 341.8,89.6 342.7,88.9 344.6,91.7 	"/>
	<polygon points="347.8,89.9 345.6,86.6 346.6,85.8 348.9,89.3 	"/>
	<polygon points="334.5,103.7 335.1,102.6 353.4,112.1 353,114.2 352.4,116.4 	"/>
	<polygon points="329.5,91.9 328.2,91.9 328.3,65.8 328.9,64.5 329.6,64.8 	"/>
	<polygon points="328.2,106.8 329.5,106.8 329.5,128.4 328.3,128.4 	"/>
	<polygon points="321.9,96.6 321.2,97.7 320.1,97.1 320.9,95.8 	"/>
	<polygon points="317.8,93.6 316.7,95.4 315.5,94.9 316.8,92.8 	"/>
	<polygon points="313.7,90.5 312.1,93.2 310.9,92.7 312.6,89.8 	"/>
	<polygon points="309.6,87.5 307.5,91 306.4,90.5 308.6,86.8 	"/>
	<polygon points="322.3,102.4 322.9,103.4 302.7,116.3 302,114.2 300.1,112.7 	"/>
	<path class="st138" d="M206,92.1c8.8,8.3,21.3,12.4,33.3,10.8"/>
	<path class="st137" d="M248.3,100.6L248.3,100.6l-9.6,5.1c0,0,1.4-1.9,1.2-3L248.3,100.6z"/>
	<path class="st138" d="M248.3,100.6L248.3,100.6l-9.6,5.1c0,0,1.4-1.9,1.2-3L248.3,100.6z"/>
</g>
</svg>
