<?xml version="1.0" encoding="utf-8"?>
<!-- Generator: Adobe Illustrator 19.2.0, SVG Export Plug-In . SVG Version: 6.00 Build 0)  -->
<svg version="1.1" id="Layer_1" xmlns="http://www.w3.org/2000/svg" xmlns:xlink="http://www.w3.org/1999/xlink" x="0px" y="0px"
	 viewBox="0 0 409 203" style="enable-background:new 0 0 409 203;" xml:space="preserve">
<style type="text/css">
	.st0{fill:#FFCC66;}
	.st1{fill:#DFE8F1;}
	.st2{fill:none;stroke:#DFE8F1;stroke-width:1.9;stroke-miterlimit:10;}
	.st3{fill:none;stroke:#94B0D0;stroke-width:1.9;stroke-miterlimit:10;}
	.st4{clip-path:url(#SVGID_2_);}
	.st5{clip-path:url(#SVGID_4_);fill:#246EB0;}
	.st6{clip-path:url(#SVGID_4_);fill:none;stroke:#246EB0;stroke-width:2.15;stroke-miterlimit:10;}
	.st7{clip-path:url(#SVGID_4_);fill:#3177B5;}
	.st8{clip-path:url(#SVGID_4_);fill:none;stroke:#3177B5;stroke-width:2.15;stroke-miterlimit:10;}
	.st9{clip-path:url(#SVGID_4_);fill:#3F80BA;}
	.st10{clip-path:url(#SVGID_4_);fill:none;stroke:#3F80BA;stroke-width:2.15;stroke-miterlimit:10;}
	.st11{clip-path:url(#SVGID_4_);fill:#4B88BE;}
	.st12{clip-path:url(#SVGID_4_);fill:none;stroke:#4B88BE;stroke-width:2.15;stroke-miterlimit:10;}
	.st13{clip-path:url(#SVGID_4_);fill:#5790C3;}
	.st14{clip-path:url(#SVGID_4_);fill:none;stroke:#5790C3;stroke-width:2.15;stroke-miterlimit:10;}
	.st15{clip-path:url(#SVGID_4_);fill:#6398C7;}
	.st16{clip-path:url(#SVGID_4_);fill:none;stroke:#6398C7;stroke-width:2.15;stroke-miterlimit:10;}
	.st17{clip-path:url(#SVGID_4_);fill:#6E9FCB;}
	.st18{clip-path:url(#SVGID_4_);fill:none;stroke:#6E9FCB;stroke-width:2.15;stroke-miterlimit:10;}
	.st19{clip-path:url(#SVGID_4_);fill:#79A6CF;}
	.st20{clip-path:url(#SVGID_4_);fill:none;stroke:#79A6CF;stroke-width:2.15;stroke-miterlimit:10;}
	.st21{clip-path:url(#SVGID_4_);fill:#84ADD3;}
	.st22{clip-path:url(#SVGID_4_);fill:none;stroke:#84ADD3;stroke-width:2.15;stroke-miterlimit:10;}
	.st23{clip-path:url(#SVGID_4_);fill:#8EB4D6;}
	.st24{clip-path:url(#SVGID_4_);fill:none;stroke:#8EB4D6;stroke-width:2.15;stroke-miterlimit:10;}
	.st25{clip-path:url(#SVGID_4_);fill:#97BADA;}
	.st26{clip-path:url(#SVGID_4_);fill:none;stroke:#97BADA;stroke-width:2.15;stroke-miterlimit:10;}
	.st27{clip-path:url(#SVGID_4_);fill:#A1C1DD;}
	.st28{clip-path:url(#SVGID_4_);fill:none;stroke:#A1C1DD;stroke-width:2.15;stroke-miterlimit:10;}
	.st29{clip-path:url(#SVGID_4_);fill:#A9C6E0;}
	.st30{clip-path:url(#SVGID_4_);fill:none;stroke:#A9C6E0;stroke-width:2.15;stroke-miterlimit:10;}
	.st31{clip-path:url(#SVGID_4_);fill:#B2CCE3;}
	.st32{clip-path:url(#SVGID_4_);fill:none;stroke:#B2CCE3;stroke-width:2.15;stroke-miterlimit:10;}
	.st33{clip-path:url(#SVGID_4_);fill:#BAD1E6;}
	.st34{clip-path:url(#SVGID_4_);fill:none;stroke:#BAD1E6;stroke-width:2.15;stroke-miterlimit:10;}
	.st35{clip-path:url(#SVGID_4_);fill:#C1D6E9;}
	.st36{clip-path:url(#SVGID_4_);fill:none;stroke:#C1D6E9;stroke-width:2.15;stroke-miterlimit:10;}
	.st37{clip-path:url(#SVGID_4_);fill:#C8DBEB;}
	.st38{clip-path:url(#SVGID_4_);fill:none;stroke:#C8DBEB;stroke-width:2.15;stroke-miterlimit:10;}
	.st39{clip-path:url(#SVGID_4_);fill:#CFDFEE;}
	.st40{clip-path:url(#SVGID_4_);fill:none;stroke:#CFDFEE;stroke-width:2.15;stroke-miterlimit:10;}
	.st41{clip-path:url(#SVGID_4_);fill:#D5E3F0;}
	.st42{clip-path:url(#SVGID_4_);fill:none;stroke:#D5E3F0;stroke-width:2.15;stroke-miterlimit:10;}
	.st43{clip-path:url(#SVGID_4_);fill:#DBE7F2;}
	.st44{clip-path:url(#SVGID_4_);fill:none;stroke:#DBE7F2;stroke-width:2.15;stroke-miterlimit:10;}
	.st45{clip-path:url(#SVGID_4_);fill:#E0EBF4;}
	.st46{clip-path:url(#SVGID_4_);fill:none;stroke:#E0EBF4;stroke-width:2.15;stroke-miterlimit:10;}
	.st47{clip-path:url(#SVGID_4_);fill:#E5EEF6;}
	.st48{clip-path:url(#SVGID_4_);fill:none;stroke:#E5EEF6;stroke-width:2.15;stroke-miterlimit:10;}
	.st49{clip-path:url(#SVGID_4_);fill:#EAF1F7;}
	.st50{clip-path:url(#SVGID_4_);fill:none;stroke:#EAF1F7;stroke-width:2.15;stroke-miterlimit:10;}
	.st51{clip-path:url(#SVGID_4_);fill:#EEF4F9;}
	.st52{clip-path:url(#SVGID_4_);fill:none;stroke:#EEF4F9;stroke-width:2.15;stroke-miterlimit:10;}
	.st53{clip-path:url(#SVGID_4_);fill:#F1F6FA;}
	.st54{clip-path:url(#SVGID_4_);fill:none;stroke:#F1F6FA;stroke-width:2.15;stroke-miterlimit:10;}
	.st55{clip-path:url(#SVGID_4_);fill:#F5F8FB;}
	.st56{clip-path:url(#SVGID_4_);fill:none;stroke:#F5F8FB;stroke-width:2.15;stroke-miterlimit:10;}
	.st57{clip-path:url(#SVGID_4_);fill:#F7FAFC;}
	.st58{clip-path:url(#SVGID_4_);fill:none;stroke:#F7FAFC;stroke-width:2.15;stroke-miterlimit:10;}
	.st59{clip-path:url(#SVGID_4_);fill:#FAFBFD;}
	.st60{clip-path:url(#SVGID_4_);fill:none;stroke:#FAFBFD;stroke-width:2.15;stroke-miterlimit:10;}
	.st61{clip-path:url(#SVGID_4_);fill:#FCFDFE;}
	.st62{clip-path:url(#SVGID_4_);fill:none;stroke:#FCFDFE;stroke-width:2.15;stroke-miterlimit:10;}
	.st63{clip-path:url(#SVGID_4_);fill:#FDFEFE;}
	.st64{clip-path:url(#SVGID_4_);fill:none;stroke:#FDFEFE;stroke-width:2.15;stroke-miterlimit:10;}
	.st65{clip-path:url(#SVGID_4_);fill:#FEFEFF;}
	.st66{clip-path:url(#SVGID_4_);fill:none;stroke:#FEFEFF;stroke-width:2.15;stroke-miterlimit:10;}
	.st67{clip-path:url(#SVGID_4_);fill:#FFFFFF;}
	.st68{clip-path:url(#SVGID_4_);fill:none;stroke:#FFFFFF;stroke-width:2.15;stroke-miterlimit:10;}
	.st69{clip-path:url(#SVGID_6_);}
	.st70{clip-path:url(#SVGID_8_);fill:#246EB0;}
	.st71{clip-path:url(#SVGID_8_);fill:none;stroke:#246EB0;stroke-width:2.15;stroke-miterlimit:10;}
	.st72{clip-path:url(#SVGID_8_);fill:#3177B5;}
	.st73{clip-path:url(#SVGID_8_);fill:none;stroke:#3177B5;stroke-width:2.15;stroke-miterlimit:10;}
	.st74{clip-path:url(#SVGID_8_);fill:#3F80BA;}
	.st75{clip-path:url(#SVGID_8_);fill:none;stroke:#3F80BA;stroke-width:2.15;stroke-miterlimit:10;}
	.st76{clip-path:url(#SVGID_8_);fill:#4B88BE;}
	.st77{clip-path:url(#SVGID_8_);fill:none;stroke:#4B88BE;stroke-width:2.15;stroke-miterlimit:10;}
	.st78{clip-path:url(#SVGID_8_);fill:#5790C3;}
	.st79{clip-path:url(#SVGID_8_);fill:none;stroke:#5790C3;stroke-width:2.15;stroke-miterlimit:10;}
	.st80{clip-path:url(#SVGID_8_);fill:#6398C7;}
	.st81{clip-path:url(#SVGID_8_);fill:none;stroke:#6398C7;stroke-width:2.15;stroke-miterlimit:10;}
	.st82{clip-path:url(#SVGID_8_);fill:#6E9FCB;}
	.st83{clip-path:url(#SVGID_8_);fill:none;stroke:#6E9FCB;stroke-width:2.15;stroke-miterlimit:10;}
	.st84{clip-path:url(#SVGID_8_);fill:#79A6CF;}
	.st85{clip-path:url(#SVGID_8_);fill:none;stroke:#79A6CF;stroke-width:2.15;stroke-miterlimit:10;}
	.st86{clip-path:url(#SVGID_8_);fill:#84ADD3;}
	.st87{clip-path:url(#SVGID_8_);fill:none;stroke:#84ADD3;stroke-width:2.15;stroke-miterlimit:10;}
	.st88{clip-path:url(#SVGID_8_);fill:#8EB4D6;}
	.st89{clip-path:url(#SVGID_8_);fill:none;stroke:#8EB4D6;stroke-width:2.15;stroke-miterlimit:10;}
	.st90{clip-path:url(#SVGID_8_);fill:#97BADA;}
	.st91{clip-path:url(#SVGID_8_);fill:none;stroke:#97BADA;stroke-width:2.15;stroke-miterlimit:10;}
	.st92{clip-path:url(#SVGID_8_);fill:#A1C1DD;}
	.st93{clip-path:url(#SVGID_8_);fill:none;stroke:#A1C1DD;stroke-width:2.15;stroke-miterlimit:10;}
	.st94{clip-path:url(#SVGID_8_);fill:#A9C6E0;}
	.st95{clip-path:url(#SVGID_8_);fill:none;stroke:#A9C6E0;stroke-width:2.15;stroke-miterlimit:10;}
	.st96{clip-path:url(#SVGID_8_);fill:#B2CCE3;}
	.st97{clip-path:url(#SVGID_8_);fill:none;stroke:#B2CCE3;stroke-width:2.15;stroke-miterlimit:10;}
	.st98{clip-path:url(#SVGID_8_);fill:#BAD1E6;}
	.st99{clip-path:url(#SVGID_8_);fill:none;stroke:#BAD1E6;stroke-width:2.15;stroke-miterlimit:10;}
	.st100{clip-path:url(#SVGID_8_);fill:#C1D6E9;}
	.st101{clip-path:url(#SVGID_8_);fill:none;stroke:#C1D6E9;stroke-width:2.15;stroke-miterlimit:10;}
	.st102{clip-path:url(#SVGID_8_);fill:#C8DBEB;}
	.st103{clip-path:url(#SVGID_8_);fill:none;stroke:#C8DBEB;stroke-width:2.15;stroke-miterlimit:10;}
	.st104{clip-path:url(#SVGID_8_);fill:#CFDFEE;}
	.st105{clip-path:url(#SVGID_8_);fill:none;stroke:#CFDFEE;stroke-width:2.15;stroke-miterlimit:10;}
	.st106{clip-path:url(#SVGID_8_);fill:#D5E3F0;}
	.st107{clip-path:url(#SVGID_8_);fill:none;stroke:#D5E3F0;stroke-width:2.15;stroke-miterlimit:10;}
	.st108{clip-path:url(#SVGID_8_);fill:#DBE7F2;}
	.st109{clip-path:url(#SVGID_8_);fill:none;stroke:#DBE7F2;stroke-width:2.15;stroke-miterlimit:10;}
	.st110{clip-path:url(#SVGID_8_);fill:#E0EBF4;}
	.st111{clip-path:url(#SVGID_8_);fill:none;stroke:#E0EBF4;stroke-width:2.15;stroke-miterlimit:10;}
	.st112{clip-path:url(#SVGID_8_);fill:#E5EEF6;}
	.st113{clip-path:url(#SVGID_8_);fill:none;stroke:#E5EEF6;stroke-width:2.15;stroke-miterlimit:10;}
	.st114{clip-path:url(#SVGID_8_);fill:#EAF1F7;}
	.st115{clip-path:url(#SVGID_8_);fill:none;stroke:#EAF1F7;stroke-width:2.15;stroke-miterlimit:10;}
	.st116{clip-path:url(#SVGID_8_);fill:#EEF4F9;}
	.st117{clip-path:url(#SVGID_8_);fill:none;stroke:#EEF4F9;stroke-width:2.15;stroke-miterlimit:10;}
	.st118{clip-path:url(#SVGID_8_);fill:#F1F6FA;}
	.st119{clip-path:url(#SVGID_8_);fill:none;stroke:#F1F6FA;stroke-width:2.15;stroke-miterlimit:10;}
	.st120{clip-path:url(#SVGID_8_);fill:#F5F8FB;}
	.st121{clip-path:url(#SVGID_8_);fill:none;stroke:#F5F8FB;stroke-width:2.15;stroke-miterlimit:10;}
	.st122{clip-path:url(#SVGID_8_);fill:#F7FAFC;}
	.st123{clip-path:url(#SVGID_8_);fill:none;stroke:#F7FAFC;stroke-width:2.15;stroke-miterlimit:10;}
	.st124{clip-path:url(#SVGID_8_);fill:#FAFBFD;}
	.st125{clip-path:url(#SVGID_8_);fill:none;stroke:#FAFBFD;stroke-width:2.15;stroke-miterlimit:10;}
	.st126{clip-path:url(#SVGID_8_);fill:#FCFDFE;}
	.st127{clip-path:url(#SVGID_8_);fill:none;stroke:#FCFDFE;stroke-width:2.15;stroke-miterlimit:10;}
	.st128{clip-path:url(#SVGID_8_);fill:#FDFEFE;}
	.st129{clip-path:url(#SVGID_8_);fill:none;stroke:#FDFEFE;stroke-width:2.15;stroke-miterlimit:10;}
	.st130{clip-path:url(#SVGID_8_);fill:#FEFEFF;}
	.st131{clip-path:url(#SVGID_8_);fill:none;stroke:#FEFEFF;stroke-width:2.15;stroke-miterlimit:10;}
	.st132{clip-path:url(#SVGID_8_);fill:#FFFFFF;}
	.st133{clip-path:url(#SVGID_8_);fill:none;stroke:#FFFFFF;stroke-width:2.15;stroke-miterlimit:10;}
	.st134{fill:none;stroke:#000000;stroke-miterlimit:10;}
	.st135{fill:none;stroke:#B3B3B3;stroke-width:1.6;stroke-miterlimit:10;}
	.st136{fill:#B3B3B3;}
	.st137{fill:#94B0D0;}
	.st138{fill:none;stroke:#94B0D0;stroke-width:1.6;stroke-miterlimit:10;}
	.st139{fill:#9BB5D3;}
	.st140{fill:none;stroke:#9BB5D3;stroke-width:1.6;stroke-miterlimit:10;}
	.st141{fill:#A1BAD6;}
	.st142{fill:none;stroke:#A1BAD6;stroke-width:1.6;stroke-miterlimit:10;}
	.st143{fill:#A7BED8;}
	.st144{fill:none;stroke:#A7BED8;stroke-width:1.6;stroke-miterlimit:10;}
	.st145{fill:#ADC3DB;}
	.st146{fill:none;stroke:#ADC3DB;stroke-width:1.6;stroke-miterlimit:10;}
	.st147{fill:#B3C7DE;}
	.st148{fill:none;stroke:#B3C7DE;stroke-width:1.6;stroke-miterlimit:10;}
	.st149{fill:#B8CBE0;}
	.st150{fill:none;stroke:#B8CBE0;stroke-width:1.6;stroke-miterlimit:10;}
	.st151{fill:#BECFE2;}
	.st152{fill:none;stroke:#BECFE2;stroke-width:1.6;stroke-miterlimit:10;}
	.st153{fill:#C3D3E5;}
	.st154{fill:none;stroke:#C3D3E5;stroke-width:1.6;stroke-miterlimit:10;}
	.st155{fill:#C8D6E7;}
	.st156{fill:none;stroke:#C8D6E7;stroke-width:1.6;stroke-miterlimit:10;}
	.st157{fill:#CCDAE9;}
	.st158{fill:none;stroke:#CCDAE9;stroke-width:1.6;stroke-miterlimit:10;}
	.st159{fill:#D1DDEB;}
	.st160{fill:none;stroke:#D1DDEB;stroke-width:1.6;stroke-miterlimit:10;}
	.st161{fill:#D5E0ED;}
	.st162{fill:none;stroke:#D5E0ED;stroke-width:1.6;stroke-miterlimit:10;}
	.st163{fill:#D9E3EE;}
	.st164{fill:none;stroke:#D9E3EE;stroke-width:1.6;stroke-miterlimit:10;}
	.st165{fill:#DDE6F0;}
	.st166{fill:none;stroke:#DDE6F0;stroke-width:1.6;stroke-miterlimit:10;}
	.st167{fill:#E1E9F2;}
	.st168{fill:none;stroke:#E1E9F2;stroke-width:1.6;stroke-miterlimit:10;}
	.st169{fill:#E4EBF3;}
	.st170{fill:none;stroke:#E4EBF3;stroke-width:1.6;stroke-miterlimit:10;}
	.st171{fill:#E7EEF5;}
	.st172{fill:none;stroke:#E7EEF5;stroke-width:1.6;stroke-miterlimit:10;}
	.st173{fill:#EBF0F6;}
	.st174{fill:none;stroke:#EBF0F6;stroke-width:1.6;stroke-miterlimit:10;}
	.st175{fill:#EDF2F7;}
	.st176{fill:none;stroke:#EDF2F7;stroke-width:1.6;stroke-miterlimit:10;}
	.st177{fill:#F0F4F8;}
	.st178{fill:none;stroke:#F0F4F8;stroke-width:1.6;stroke-miterlimit:10;}
	.st179{fill:#F2F6F9;}
	.st180{fill:none;stroke:#F2F6F9;stroke-width:1.6;stroke-miterlimit:10;}
	.st181{fill:#F5F7FA;}
	.st182{fill:none;stroke:#F5F7FA;stroke-width:1.6;stroke-miterlimit:10;}
	.st183{fill:#F7F9FB;}
	.st184{fill:none;stroke:#F7F9FB;stroke-width:1.6;stroke-miterlimit:10;}
	.st185{fill:#F8FAFC;}
	.st186{fill:none;stroke:#F8FAFC;stroke-width:1.6;stroke-miterlimit:10;}
	.st187{fill:#FAFBFD;}
	.st188{fill:none;stroke:#FAFBFD;stroke-width:1.6;stroke-miterlimit:10;}
	.st189{fill:#FBFCFD;}
	.st190{fill:none;stroke:#FBFCFD;stroke-width:1.6;stroke-miterlimit:10;}
	.st191{fill:#FCFDFE;}
	.st192{fill:none;stroke:#FCFDFE;stroke-width:1.6;stroke-miterlimit:10;}
	.st193{fill:#FDFEFE;}
	.st194{fill:none;stroke:#FDFEFE;stroke-width:1.6;stroke-miterlimit:10;}
	.st195{fill:#FEFEFF;}
	.st196{fill:none;stroke:#FEFEFF;stroke-width:1.6;stroke-miterlimit:10;}
	.st197{fill:#FFFFFF;}
	.st198{fill:none;stroke:#FFFFFF;stroke-width:1.6;stroke-miterlimit:10;}
	.st199{fill:none;}
	.st200{fill:#CCCCCC;}
	.st201{fill:#7A6AA8;}
	.st202{fill:#407993;}
	.st203{fill:#336681;}
	.st204{fill:#C2D5D4;}
	.st205{fill:none;stroke:#C2D5D4;stroke-width:1.6;stroke-miterlimit:10;}
	.st206{fill:none;stroke:#407B93;stroke-width:3.65;stroke-miterlimit:10;}
	.st207{fill:#407B93;}
	.st208{fill:none;stroke:#407B93;stroke-width:1.6;stroke-miterlimit:10;}
	.st209{fill:none;stroke:#000000;stroke-width:1.3;stroke-miterlimit:10;}
	.st210{fill:none;stroke:#000000;stroke-width:1.6;stroke-miterlimit:10;}
	.st211{font-family:'Helvetica';}
	.st212{font-size:8.1283px;}
	.st213{fill:#B9CFD8;}
	.st214{fill:none;stroke:#B9CFD8;stroke-width:1.6;stroke-miterlimit:10;}
	.st215{fill:none;stroke:#CCCCCC;stroke-width:1.6;stroke-miterlimit:10;}
	.st216{fill:none;stroke:#A5B9CF;stroke-width:1.6;stroke-miterlimit:10;}
	.st217{fill:#BDD2DA;}
	.st218{fill:none;stroke:#BDD2DA;stroke-width:1.6;stroke-miterlimit:10;}
	.st219{fill:#C1D5DD;}
	.st220{fill:none;stroke:#C1D5DD;stroke-width:1.6;stroke-miterlimit:10;}
	.st221{fill:#C6D8DF;}
	.st222{fill:none;stroke:#C6D8DF;stroke-width:1.6;stroke-miterlimit:10;}
	.st223{fill:#C9DAE1;}
	.st224{fill:none;stroke:#C9DAE1;stroke-width:1.6;stroke-miterlimit:10;}
	.st225{fill:#CDDDE3;}
	.st226{fill:none;stroke:#CDDDE3;stroke-width:1.6;stroke-miterlimit:10;}
	.st227{fill:#D1DFE5;}
	.st228{fill:none;stroke:#D1DFE5;stroke-width:1.6;stroke-miterlimit:10;}
	.st229{fill:#D4E2E7;}
	.st230{fill:none;stroke:#D4E2E7;stroke-width:1.6;stroke-miterlimit:10;}
	.st231{fill:#D8E4E9;}
	.st232{fill:none;stroke:#D8E4E9;stroke-width:1.6;stroke-miterlimit:10;}
	.st233{fill:#DBE6EB;}
	.st234{fill:none;stroke:#DBE6EB;stroke-width:1.6;stroke-miterlimit:10;}
	.st235{fill:#DEE8ED;}
	.st236{fill:none;stroke:#DEE8ED;stroke-width:1.6;stroke-miterlimit:10;}
	.st237{fill:#E1EAEE;}
	.st238{fill:none;stroke:#E1EAEE;stroke-width:1.6;stroke-miterlimit:10;}
	.st239{fill:#E4ECF0;}
	.st240{fill:none;stroke:#E4ECF0;stroke-width:1.6;stroke-miterlimit:10;}
	.st241{fill:#E6EEF1;}
	.st242{fill:none;stroke:#E6EEF1;stroke-width:1.6;stroke-miterlimit:10;}
	.st243{fill:#E9F0F3;}
	.st244{fill:none;stroke:#E9F0F3;stroke-width:1.6;stroke-miterlimit:10;}
	.st245{fill:#EBF1F4;}
	.st246{fill:none;stroke:#EBF1F4;stroke-width:1.6;stroke-miterlimit:10;}
	.st247{fill:#EDF3F5;}
	.st248{fill:none;stroke:#EDF3F5;stroke-width:1.6;stroke-miterlimit:10;}
	.st249{fill:#F0F4F6;}
	.st250{fill:none;stroke:#F0F4F6;stroke-width:1.6;stroke-miterlimit:10;}
	.st251{fill:#F2F6F8;}
	.st252{fill:none;stroke:#F2F6F8;stroke-width:1.6;stroke-miterlimit:10;}
	.st253{fill:#F3F7F9;}
	.st254{fill:none;stroke:#F3F7F9;stroke-width:1.6;stroke-miterlimit:10;}
	.st255{fill:#F5F8FA;}
	.st256{fill:none;stroke:#F5F8FA;stroke-width:1.6;stroke-miterlimit:10;}
	.st257{fill:#F7F9FA;}
	.st258{fill:none;stroke:#F7F9FA;stroke-width:1.6;stroke-miterlimit:10;}
	.st259{fill:#F8FAFB;}
	.st260{fill:none;stroke:#F8FAFB;stroke-width:1.6;stroke-miterlimit:10;}
	.st261{fill:#F9FBFC;}
	.st262{fill:none;stroke:#F9FBFC;stroke-width:1.6;stroke-miterlimit:10;}
	.st263{fill:#FCFDFD;}
	.st264{fill:none;stroke:#FCFDFD;stroke-width:1.6;stroke-miterlimit:10;}
	.st265{fill:#FDFDFE;}
	.st266{fill:none;stroke:#FDFDFE;stroke-width:1.6;stroke-miterlimit:10;}
	.st267{fill:#FEFEFE;}
	.st268{fill:none;stroke:#FEFEFE;stroke-width:1.6;stroke-miterlimit:10;}
	.st269{fill:#FEFFFF;}
	.st270{fill:none;stroke:#FEFFFF;stroke-width:1.6;stroke-miterlimit:10;}
	.st271{fill:none;stroke:#FFCC66;stroke-width:3.25;stroke-miterlimit:10;stroke-dasharray:3.8,3.8;}
</style>
<g>
	<polygon points="95.6,112.3 96.2,112.8 96.2,113.5 79.8,118.2 78.6,117.3 	"/>
	<rect x="82" y="117.4" transform="matrix(0.9603 -0.2788 0.2788 0.9603 -29.3805 29.569)" width="14.5" height="1.3"/>
	<polygon points="95.6,103.3 96.2,102.8 96.9,103.3 96.9,112.3 96.2,112.8 95.6,112.3 	"/>
	<polygon points="78.6,98.4 79.8,97.4 96.2,102.2 96.2,102.8 95.6,103.3 	"/>
	<polygon points="82.2,96.1 82.5,94.9 96.4,99 96,100.2 	"/>
	<g>
		<path d="M110.2,94h1.2l3.9,6.3V94h1v7.8h-1.2l-3.9-6.3v6.3h-1V94z"/>
	</g>
	<polygon points="107.9,98.8 108.2,100 96.9,103.3 96.2,102.8 96.2,102.2 	"/>
	<rect x="112.6" y="88" width="1.2" height="4.4"/>
	<rect x="109.5" y="90.3" width="1.2" height="2.1"/>
	<polygon points="96.2,83.6 96.2,82.3 113.9,87.5 112.6,88.4 	"/>
	<polygon points="79.8,88.4 79.2,88 79.2,87.3 96.2,82.3 96.2,83.6 	"/>
	<rect x="82" y="87.6" transform="matrix(0.9603 -0.2788 0.2788 0.9603 -21.0633 28.3966)" width="14.5" height="1.3"/>
	<polygon points="79.8,97.4 78.6,98.4 78.6,88.4 79.2,88 79.8,88.4 	"/>
	<g>
		<path d="M110.2,113.9h1.2l3.9,6.3v-6.3h1v7.8h-1.2l-3.9-6.3v6.3h-1V113.9z"/>
	</g>
	<polygon points="79.8,126.4 79.2,127.7 78.6,127.2 78.6,117.3 79.8,118.2 	"/>
	<polygon points="96.2,131.2 96.2,134.2 77.8,128.8 79.2,127.7 79.8,126.4 	"/>
	<polygon points="96.4,128 96,129.2 82.9,125.3 83.3,124.2 	"/>
	<polygon points="112.6,126.4 113.9,129 96.2,134.2 96.2,131.2 	"/>
	<polygon points="112.6,123.2 113.9,123.2 113.9,129 112.6,126.4 	"/>
	<rect x="109.5" y="123.2" width="1.2" height="2.2"/>
	<polygon points="96.2,113.5 96.2,112.8 96.9,112.3 108.2,115.6 107.9,116.8 	"/>
	<g>
		<path d="M133.3,104.4h1.2l3.9,6.3v-6.3h1v7.8h-1.2l-3.9-6.3v6.3h-1V104.4z"/>
		<path d="M141,104.4h1v1.1h-1V104.4z M141,106.6h1v5.6h-1V106.6z"/>
	</g>
	<text transform="matrix(1 0 0 1 142.8243 109.0722)" class="st211 st212">II</text>
	<g>
		<polygon points="117.7,102.2 119.5,98.3 120.5,99 118.9,102.6 		"/>
	</g>
	<polygon points="121.7,103.5 123,100.5 124.1,101.1 122.9,103.9 	"/>
	<polygon points="125.6,104.8 126.6,102.6 127.7,103.2 126.8,105.2 	"/>
	<polygon points="129.6,106.1 130.2,104.7 131.3,105.3 130.8,106.5 	"/>
	<polygon points="119.4,117.5 117.8,113.6 130.9,109.9 131.3,111.1 	"/>
	<polygon points="162.5,92.8 164.5,96.6 163.3,97.1 161.5,93.5 	"/>
	<polygon points="159.2,94.9 160.8,98.1 159.6,98.6 158.1,95.6 	"/>
	<polygon points="155.8,97 157.1,99.6 155.9,100 154.8,97.7 	"/>
	<polygon points="152.5,99.1 153.4,101 152.3,101.5 151.4,99.7 	"/>
	<polygon points="149.1,101.2 149.7,102.5 148.6,102.9 148,101.8 	"/>
	<g>
		<path d="M162.4,116.6h3.4c0.9,0,1.6,0.3,2,0.8c0.2,0.3,0.3,0.7,0.3,1.1c0,0.5-0.1,0.9-0.4,1.2c-0.1,0.2-0.4,0.3-0.6,0.5
			c0.4,0.2,0.7,0.3,0.9,0.5c0.4,0.3,0.5,0.8,0.5,1.4c0,0.5-0.2,1-0.5,1.4c-0.5,0.6-1.2,0.9-2.3,0.9h-3.3V116.6z M165.3,119.9
			c0.5,0,0.8-0.1,1.1-0.2c0.4-0.2,0.6-0.5,0.6-1.1c0-0.5-0.2-0.9-0.6-1c-0.2-0.1-0.6-0.1-1.1-0.1h-1.9v2.4H165.3z M165.7,123.5
			c0.7,0,1.1-0.2,1.4-0.6c0.2-0.2,0.3-0.5,0.3-0.9c0-0.6-0.3-1-0.8-1.2c-0.3-0.1-0.6-0.2-1.1-0.2h-2.1v2.8H165.7z"/>
		<path d="M169.6,118.7h0.9v1c0.1-0.2,0.3-0.4,0.5-0.7s0.6-0.4,1-0.4c0,0,0,0,0.1,0c0,0,0.1,0,0.2,0v1c-0.1,0-0.1,0-0.2,0
			c0,0-0.1,0-0.2,0c-0.5,0-0.9,0.2-1.1,0.5c-0.3,0.3-0.4,0.7-0.4,1.1v3.3h-1V118.7z"/>
	</g>
	<polygon points="160.8,116.3 159.1,120.2 143.7,112 144.2,110.9 	"/>
	<g>
		<path d="M46.7,129.1h1l-0.3,1.6h0.9l-0.2,0.8h-0.9l-0.8,3.7c0,0.2,0,0.3,0.1,0.4c0.1,0,0.2,0.1,0.4,0.1c0,0,0.1,0,0.1,0
			s0.1,0,0.2,0l-0.2,0.8c-0.1,0-0.2,0.1-0.4,0.1c-0.1,0-0.3,0-0.4,0c-0.4,0-0.7-0.1-0.8-0.3c-0.1-0.2-0.1-0.5-0.1-0.9l0.8-3.8h-0.8
			l0.2-0.8h0.8L46.7,129.1z"/>
		<path d="M48.4,132.9h2.7l-0.2,1h-2.7L48.4,132.9z"/>
	</g>
	<g>
		<path d="M51.9,128.6h3.4c0.9,0,1.6,0.3,2,0.8c0.2,0.3,0.3,0.7,0.3,1.1c0,0.5-0.1,0.9-0.4,1.2c-0.1,0.2-0.4,0.3-0.6,0.5
			c0.4,0.2,0.7,0.3,0.9,0.5c0.3,0.3,0.5,0.8,0.5,1.4c0,0.5-0.2,1-0.5,1.4c-0.5,0.6-1.2,0.9-2.3,0.9h-3.3V128.6z M54.9,131.9
			c0.4,0,0.8-0.1,1-0.2c0.4-0.2,0.6-0.5,0.6-1c0-0.5-0.2-0.8-0.6-1c-0.2-0.1-0.6-0.1-1-0.1h-1.9v2.4H54.9z M55.2,135.5
			c0.7,0,1.1-0.2,1.4-0.6c0.2-0.2,0.3-0.5,0.3-0.9c0-0.6-0.3-0.9-0.8-1.2c-0.3-0.1-0.6-0.2-1.1-0.2h-2.1v2.7H55.2z"/>
		<path d="M60,130.7v3.8c0,0.3,0,0.5,0.1,0.7c0.2,0.3,0.5,0.5,0.9,0.5c0.6,0,1.1-0.3,1.3-0.9c0.1-0.3,0.2-0.8,0.2-1.3v-2.8h1v5.7
			h-0.9l0-0.8c-0.1,0.2-0.3,0.4-0.5,0.5c-0.4,0.3-0.8,0.4-1.3,0.4c-0.8,0-1.3-0.3-1.6-0.8c-0.2-0.3-0.2-0.7-0.2-1.2v-3.9H60z"/>
	</g>
	<polygon points="65.6,132.4 65.2,131.1 78.6,127.2 79.2,127.7 77.8,128.8 	"/>
	<g>
		<path d="M46.7,79.8h1l-0.3,1.6h0.9l-0.2,0.8h-0.9l-0.8,3.7c0,0.2,0,0.3,0.1,0.4c0.1,0,0.2,0.1,0.4,0.1c0,0,0.1,0,0.1,0
			s0.1,0,0.2,0L47,87c-0.1,0-0.2,0.1-0.4,0.1c-0.1,0-0.3,0-0.4,0c-0.4,0-0.7-0.1-0.8-0.3c-0.1-0.2-0.1-0.5-0.1-0.9l0.8-3.8h-0.8
			l0.2-0.8h0.8L46.7,79.8z"/>
		<path d="M48.5,83.5h2.7l-0.2,1h-2.7L48.5,83.5z"/>
	</g>
	<g>
		<path d="M51.9,79.2h3.4c0.9,0,1.6,0.3,2,0.8c0.2,0.3,0.3,0.7,0.3,1.1c0,0.5-0.1,0.9-0.4,1.2c-0.1,0.2-0.4,0.3-0.6,0.5
			c0.4,0.2,0.7,0.3,0.9,0.5c0.3,0.3,0.5,0.8,0.5,1.4c0,0.5-0.2,1-0.5,1.4C57,86.7,56.3,87,55.3,87h-3.3V79.2z M54.9,82.5
			c0.4,0,0.8-0.1,1-0.2c0.4-0.2,0.6-0.5,0.6-1c0-0.5-0.2-0.8-0.6-1c-0.2-0.1-0.6-0.1-1-0.1H53v2.4H54.9z M55.3,86.1
			c0.7,0,1.1-0.2,1.4-0.6c0.2-0.2,0.3-0.5,0.3-0.9c0-0.6-0.3-0.9-0.8-1.2c-0.3-0.1-0.6-0.2-1.1-0.2H53v2.7H55.3z"/>
		<path d="M60,81.3v3.8c0,0.3,0,0.5,0.1,0.7c0.2,0.3,0.5,0.5,0.9,0.5c0.6,0,1.1-0.3,1.3-0.9c0.1-0.3,0.2-0.8,0.2-1.3v-2.8h1V87h-0.9
			l0-0.8c-0.1,0.2-0.3,0.4-0.5,0.5c-0.4,0.3-0.8,0.4-1.3,0.4c-0.8,0-1.3-0.3-1.6-0.8c-0.2-0.3-0.2-0.7-0.2-1.2v-3.9H60z"/>
	</g>
	<polygon points="65.4,84.5 65.8,83.4 79.2,87.3 79.2,88 78.6,88.4 	"/>
	<circle class="st213" cx="165.4" cy="93.4" r="8.8"/>
	<circle class="st214" cx="165.4" cy="93.4" r="8.8"/>
	<line class="st209" x1="264.7" y1="106.9" x2="193.4" y2="106.9"/>
	<path d="M275.5,106.9L275.5,106.9l-12.5,3.2c0,0,1.6-1.8,1.6-3.2c0-1.4-1.6-3.2-1.6-3.2L275.5,106.9z"/>
	<path class="st210" d="M275.5,106.9L275.5,106.9l-12.5,3.2c0,0,1.6-1.8,1.6-3.2c0-1.4-1.6-3.2-1.6-3.2L275.5,106.9z"/>
	<polygon points="216,87.3 214.8,88 214.8,83.5 216,83.5 	"/>
	<rect x="214.8" y="75.9" width="1.2" height="3.8"/>
	<polygon points="216,72.1 214.8,72.1 214.8,67.6 216,68.3 	"/>
	<polygon points="232.4,96.7 232.4,98.2 228.5,95.9 229.1,94.8 	"/>
	<polygon points="225.9,92.9 225.2,94 222,92.1 222.6,91 	"/>
	<polygon points="219.3,89.2 218.7,90.2 214.8,88 216,87.3 	"/>
	<polygon points="248.8,87.3 250,88 246.1,90.2 245.5,89.2 	"/>
	<polygon points="242.2,91 242.9,92.1 239.6,94 239,92.9 	"/>
	<polygon points="235.7,94.8 236.3,95.9 232.4,98.2 232.4,96.7 	"/>
	<polygon points="248.8,68.3 250,67.6 250,72.1 248.8,72.1 	"/>
	<rect x="248.8" y="75.9" width="1.2" height="3.8"/>
	<polygon points="248.8,83.5 250,83.5 250,88 248.8,87.3 	"/>
	<polygon points="232.4,58.9 232.4,57.4 236.3,59.7 235.7,60.7 	"/>
	<polygon points="239,62.7 239.6,61.6 242.9,63.5 242.2,64.5 	"/>
	<polygon points="245.5,66.4 246.1,65.3 250,67.6 248.8,68.3 	"/>
	<polygon points="216,68.3 214.8,67.6 218.7,65.3 219.3,66.4 	"/>
	<polygon points="222.6,64.5 222,63.5 225.2,61.6 225.9,62.7 	"/>
	<polygon points="229.1,60.7 228.5,59.7 232.4,57.4 232.4,58.9 	"/>
	<path class="st199" d="M249.1,67.9c-1.2-1.6,3-6.9,4.6-8.1c2-1.5,3.7-2.1,5.7,0.4c1.9,2.6,0.8,4.1-1.2,5.6
		C256.6,67,250.3,69.6,249.1,67.9z"/>
	<path class="st214" d="M258.2,65.8c-1.6,1.2-7.9,3.8-9.1,2.1c-1.2-1.6,3-6.9,4.6-8.1c2-1.5,3.7-2.1,5.7,0.4
		C261.3,62.8,260.2,64.3,258.2,65.8z"/>
	<path class="st214" d="M258.2,65.8c-1.6,1.2-7.9,3.8-9.1,2.1c-1.2-1.6,3-6.9,4.6-8.1c2-1.5,3.7-2.1,5.7,0.4
		C261.3,62.8,260.2,64.3,258.2,65.8z"/>
	<path class="st199" d="M249.1,67.9c1.2,1.6-3,6.9-4.6,8.1c-2,1.5-3.7,2.1-5.7-0.4c-1.9-2.6-0.8-4.1,1.2-5.6
		C241.6,68.9,247.9,66.3,249.1,67.9z"/>
	<path class="st214" d="M240,70.1c1.6-1.2,7.9-3.8,9.1-2.2c1.2,1.6-3,6.9-4.6,8.1c-2,1.5-3.7,2.1-5.7-0.4
		C236.9,73.1,238,71.6,240,70.1z"/>
	<path class="st214" d="M240,70.1c1.6-1.2,7.9-3.8,9.1-2.2c1.2,1.6-3,6.9-4.6,8.1c-2,1.5-3.7,2.1-5.7-0.4
		C236.9,73.1,238,71.6,240,70.1z"/>
	<circle cx="255.5" cy="63" r="1.5"/>
	<polygon points="300.2,116.9 299,117.6 299,113.1 300.2,113.1 	"/>
	<rect x="299" y="105.5" width="1.2" height="3.8"/>
	<polygon points="300.2,101.8 299,101.8 299,97.2 300.2,97.9 	"/>
	<polygon points="316.6,126.4 316.6,127.8 312.7,125.5 313.3,124.4 	"/>
	<polygon points="310.1,122.6 309.4,123.6 306.2,121.8 306.8,120.7 	"/>
	<polygon points="303.5,118.8 302.9,119.8 299,117.6 300.2,116.9 	"/>
	<polygon points="333,116.9 334.2,117.6 330.3,119.8 329.7,118.8 	"/>
	<polygon points="326.4,120.7 327.1,121.8 323.8,123.6 323.2,122.6 	"/>
	<polygon points="319.9,124.4 320.5,125.5 316.6,127.8 316.6,126.4 	"/>
	<rect x="333" y="97.9" width="1.2" height="3.8"/>
	<rect x="333" y="105.5" width="1.2" height="3.8"/>
	<polygon points="333,113.1 334.2,113.1 334.2,117.6 333,116.9 	"/>
	<polygon points="316.6,88.5 316.6,87.1 320.5,89.3 319.9,90.4 	"/>
	<polygon points="323.2,92.3 323.8,91.2 327.1,93.1 326.4,94.2 	"/>
	<polygon points="329.7,96.1 330.3,95 333.6,96.9 333,97.9 	"/>
	<polygon points="300.2,97.9 299,97.2 302.9,95 303.5,96.1 	"/>
	<polygon points="306.8,94.2 306.2,93.1 309.4,91.2 310.1,92.3 	"/>
	<polygon points="313.3,90.4 312.7,89.3 316.6,87.1 316.6,88.5 	"/>
	<polygon points="350.3,87.2 351,88.3 334.2,97.9 333.6,97.6 333.6,96.9 	"/>
	<circle class="st213" cx="353.3" cy="87.1" r="8.8"/>
	<circle class="st214" cx="353.3" cy="87.1" r="8.8"/>
</g>
</svg>
