<?xml version="1.0" encoding="utf-8"?>
<!-- Generator: Adobe Illustrator 19.2.0, SVG Export Plug-In . SVG Version: 6.00 Build 0)  -->
<svg version="1.1" id="Layer_1" xmlns="http://www.w3.org/2000/svg" xmlns:xlink="http://www.w3.org/1999/xlink" x="0px" y="0px"
	 viewBox="0 0 409 203" style="enable-background:new 0 0 409 203;" xml:space="preserve">
<style type="text/css">
	.st0{fill:#FFCC66;}
	.st1{fill:#DFE8F1;}
	.st2{fill:none;stroke:#DFE8F1;stroke-width:1.9;stroke-miterlimit:10;}
	.st3{fill:none;stroke:#94B0D0;stroke-width:1.9;stroke-miterlimit:10;}
	.st4{clip-path:url(#SVGID_2_);}
	.st5{clip-path:url(#SVGID_4_);fill:#246EB0;}
	.st6{clip-path:url(#SVGID_4_);fill:none;stroke:#246EB0;stroke-width:2.15;stroke-miterlimit:10;}
	.st7{clip-path:url(#SVGID_4_);fill:#3177B5;}
	.st8{clip-path:url(#SVGID_4_);fill:none;stroke:#3177B5;stroke-width:2.15;stroke-miterlimit:10;}
	.st9{clip-path:url(#SVGID_4_);fill:#3F80BA;}
	.st10{clip-path:url(#SVGID_4_);fill:none;stroke:#3F80BA;stroke-width:2.15;stroke-miterlimit:10;}
	.st11{clip-path:url(#SVGID_4_);fill:#4B88BE;}
	.st12{clip-path:url(#SVGID_4_);fill:none;stroke:#4B88BE;stroke-width:2.15;stroke-miterlimit:10;}
	.st13{clip-path:url(#SVGID_4_);fill:#5790C3;}
	.st14{clip-path:url(#SVGID_4_);fill:none;stroke:#5790C3;stroke-width:2.15;stroke-miterlimit:10;}
	.st15{clip-path:url(#SVGID_4_);fill:#6398C7;}
	.st16{clip-path:url(#SVGID_4_);fill:none;stroke:#6398C7;stroke-width:2.15;stroke-miterlimit:10;}
	.st17{clip-path:url(#SVGID_4_);fill:#6E9FCB;}
	.st18{clip-path:url(#SVGID_4_);fill:none;stroke:#6E9FCB;stroke-width:2.15;stroke-miterlimit:10;}
	.st19{clip-path:url(#SVGID_4_);fill:#79A6CF;}
	.st20{clip-path:url(#SVGID_4_);fill:none;stroke:#79A6CF;stroke-width:2.15;stroke-miterlimit:10;}
	.st21{clip-path:url(#SVGID_4_);fill:#84ADD3;}
	.st22{clip-path:url(#SVGID_4_);fill:none;stroke:#84ADD3;stroke-width:2.15;stroke-miterlimit:10;}
	.st23{clip-path:url(#SVGID_4_);fill:#8EB4D6;}
	.st24{clip-path:url(#SVGID_4_);fill:none;stroke:#8EB4D6;stroke-width:2.15;stroke-miterlimit:10;}
	.st25{clip-path:url(#SVGID_4_);fill:#97BADA;}
	.st26{clip-path:url(#SVGID_4_);fill:none;stroke:#97BADA;stroke-width:2.15;stroke-miterlimit:10;}
	.st27{clip-path:url(#SVGID_4_);fill:#A1C1DD;}
	.st28{clip-path:url(#SVGID_4_);fill:none;stroke:#A1C1DD;stroke-width:2.15;stroke-miterlimit:10;}
	.st29{clip-path:url(#SVGID_4_);fill:#A9C6E0;}
	.st30{clip-path:url(#SVGID_4_);fill:none;stroke:#A9C6E0;stroke-width:2.15;stroke-miterlimit:10;}
	.st31{clip-path:url(#SVGID_4_);fill:#B2CCE3;}
	.st32{clip-path:url(#SVGID_4_);fill:none;stroke:#B2CCE3;stroke-width:2.15;stroke-miterlimit:10;}
	.st33{clip-path:url(#SVGID_4_);fill:#BAD1E6;}
	.st34{clip-path:url(#SVGID_4_);fill:none;stroke:#BAD1E6;stroke-width:2.15;stroke-miterlimit:10;}
	.st35{clip-path:url(#SVGID_4_);fill:#C1D6E9;}
	.st36{clip-path:url(#SVGID_4_);fill:none;stroke:#C1D6E9;stroke-width:2.15;stroke-miterlimit:10;}
	.st37{clip-path:url(#SVGID_4_);fill:#C8DBEB;}
	.st38{clip-path:url(#SVGID_4_);fill:none;stroke:#C8DBEB;stroke-width:2.15;stroke-miterlimit:10;}
	.st39{clip-path:url(#SVGID_4_);fill:#CFDFEE;}
	.st40{clip-path:url(#SVGID_4_);fill:none;stroke:#CFDFEE;stroke-width:2.15;stroke-miterlimit:10;}
	.st41{clip-path:url(#SVGID_4_);fill:#D5E3F0;}
	.st42{clip-path:url(#SVGID_4_);fill:none;stroke:#D5E3F0;stroke-width:2.15;stroke-miterlimit:10;}
	.st43{clip-path:url(#SVGID_4_);fill:#DBE7F2;}
	.st44{clip-path:url(#SVGID_4_);fill:none;stroke:#DBE7F2;stroke-width:2.15;stroke-miterlimit:10;}
	.st45{clip-path:url(#SVGID_4_);fill:#E0EBF4;}
	.st46{clip-path:url(#SVGID_4_);fill:none;stroke:#E0EBF4;stroke-width:2.15;stroke-miterlimit:10;}
	.st47{clip-path:url(#SVGID_4_);fill:#E5EEF6;}
	.st48{clip-path:url(#SVGID_4_);fill:none;stroke:#E5EEF6;stroke-width:2.15;stroke-miterlimit:10;}
	.st49{clip-path:url(#SVGID_4_);fill:#EAF1F7;}
	.st50{clip-path:url(#SVGID_4_);fill:none;stroke:#EAF1F7;stroke-width:2.15;stroke-miterlimit:10;}
	.st51{clip-path:url(#SVGID_4_);fill:#EEF4F9;}
	.st52{clip-path:url(#SVGID_4_);fill:none;stroke:#EEF4F9;stroke-width:2.15;stroke-miterlimit:10;}
	.st53{clip-path:url(#SVGID_4_);fill:#F1F6FA;}
	.st54{clip-path:url(#SVGID_4_);fill:none;stroke:#F1F6FA;stroke-width:2.15;stroke-miterlimit:10;}
	.st55{clip-path:url(#SVGID_4_);fill:#F5F8FB;}
	.st56{clip-path:url(#SVGID_4_);fill:none;stroke:#F5F8FB;stroke-width:2.15;stroke-miterlimit:10;}
	.st57{clip-path:url(#SVGID_4_);fill:#F7FAFC;}
	.st58{clip-path:url(#SVGID_4_);fill:none;stroke:#F7FAFC;stroke-width:2.15;stroke-miterlimit:10;}
	.st59{clip-path:url(#SVGID_4_);fill:#FAFBFD;}
	.st60{clip-path:url(#SVGID_4_);fill:none;stroke:#FAFBFD;stroke-width:2.15;stroke-miterlimit:10;}
	.st61{clip-path:url(#SVGID_4_);fill:#FCFDFE;}
	.st62{clip-path:url(#SVGID_4_);fill:none;stroke:#FCFDFE;stroke-width:2.15;stroke-miterlimit:10;}
	.st63{clip-path:url(#SVGID_4_);fill:#FDFEFE;}
	.st64{clip-path:url(#SVGID_4_);fill:none;stroke:#FDFEFE;stroke-width:2.15;stroke-miterlimit:10;}
	.st65{clip-path:url(#SVGID_4_);fill:#FEFEFF;}
	.st66{clip-path:url(#SVGID_4_);fill:none;stroke:#FEFEFF;stroke-width:2.15;stroke-miterlimit:10;}
	.st67{clip-path:url(#SVGID_4_);fill:#FFFFFF;}
	.st68{clip-path:url(#SVGID_4_);fill:none;stroke:#FFFFFF;stroke-width:2.15;stroke-miterlimit:10;}
	.st69{clip-path:url(#SVGID_6_);}
	.st70{clip-path:url(#SVGID_8_);fill:#246EB0;}
	.st71{clip-path:url(#SVGID_8_);fill:none;stroke:#246EB0;stroke-width:2.15;stroke-miterlimit:10;}
	.st72{clip-path:url(#SVGID_8_);fill:#3177B5;}
	.st73{clip-path:url(#SVGID_8_);fill:none;stroke:#3177B5;stroke-width:2.15;stroke-miterlimit:10;}
	.st74{clip-path:url(#SVGID_8_);fill:#3F80BA;}
	.st75{clip-path:url(#SVGID_8_);fill:none;stroke:#3F80BA;stroke-width:2.15;stroke-miterlimit:10;}
	.st76{clip-path:url(#SVGID_8_);fill:#4B88BE;}
	.st77{clip-path:url(#SVGID_8_);fill:none;stroke:#4B88BE;stroke-width:2.15;stroke-miterlimit:10;}
	.st78{clip-path:url(#SVGID_8_);fill:#5790C3;}
	.st79{clip-path:url(#SVGID_8_);fill:none;stroke:#5790C3;stroke-width:2.15;stroke-miterlimit:10;}
	.st80{clip-path:url(#SVGID_8_);fill:#6398C7;}
	.st81{clip-path:url(#SVGID_8_);fill:none;stroke:#6398C7;stroke-width:2.15;stroke-miterlimit:10;}
	.st82{clip-path:url(#SVGID_8_);fill:#6E9FCB;}
	.st83{clip-path:url(#SVGID_8_);fill:none;stroke:#6E9FCB;stroke-width:2.15;stroke-miterlimit:10;}
	.st84{clip-path:url(#SVGID_8_);fill:#79A6CF;}
	.st85{clip-path:url(#SVGID_8_);fill:none;stroke:#79A6CF;stroke-width:2.15;stroke-miterlimit:10;}
	.st86{clip-path:url(#SVGID_8_);fill:#84ADD3;}
	.st87{clip-path:url(#SVGID_8_);fill:none;stroke:#84ADD3;stroke-width:2.15;stroke-miterlimit:10;}
	.st88{clip-path:url(#SVGID_8_);fill:#8EB4D6;}
	.st89{clip-path:url(#SVGID_8_);fill:none;stroke:#8EB4D6;stroke-width:2.15;stroke-miterlimit:10;}
	.st90{clip-path:url(#SVGID_8_);fill:#97BADA;}
	.st91{clip-path:url(#SVGID_8_);fill:none;stroke:#97BADA;stroke-width:2.15;stroke-miterlimit:10;}
	.st92{clip-path:url(#SVGID_8_);fill:#A1C1DD;}
	.st93{clip-path:url(#SVGID_8_);fill:none;stroke:#A1C1DD;stroke-width:2.15;stroke-miterlimit:10;}
	.st94{clip-path:url(#SVGID_8_);fill:#A9C6E0;}
	.st95{clip-path:url(#SVGID_8_);fill:none;stroke:#A9C6E0;stroke-width:2.15;stroke-miterlimit:10;}
	.st96{clip-path:url(#SVGID_8_);fill:#B2CCE3;}
	.st97{clip-path:url(#SVGID_8_);fill:none;stroke:#B2CCE3;stroke-width:2.15;stroke-miterlimit:10;}
	.st98{clip-path:url(#SVGID_8_);fill:#BAD1E6;}
	.st99{clip-path:url(#SVGID_8_);fill:none;stroke:#BAD1E6;stroke-width:2.15;stroke-miterlimit:10;}
	.st100{clip-path:url(#SVGID_8_);fill:#C1D6E9;}
	.st101{clip-path:url(#SVGID_8_);fill:none;stroke:#C1D6E9;stroke-width:2.15;stroke-miterlimit:10;}
	.st102{clip-path:url(#SVGID_8_);fill:#C8DBEB;}
	.st103{clip-path:url(#SVGID_8_);fill:none;stroke:#C8DBEB;stroke-width:2.15;stroke-miterlimit:10;}
	.st104{clip-path:url(#SVGID_8_);fill:#CFDFEE;}
	.st105{clip-path:url(#SVGID_8_);fill:none;stroke:#CFDFEE;stroke-width:2.15;stroke-miterlimit:10;}
	.st106{clip-path:url(#SVGID_8_);fill:#D5E3F0;}
	.st107{clip-path:url(#SVGID_8_);fill:none;stroke:#D5E3F0;stroke-width:2.15;stroke-miterlimit:10;}
	.st108{clip-path:url(#SVGID_8_);fill:#DBE7F2;}
	.st109{clip-path:url(#SVGID_8_);fill:none;stroke:#DBE7F2;stroke-width:2.15;stroke-miterlimit:10;}
	.st110{clip-path:url(#SVGID_8_);fill:#E0EBF4;}
	.st111{clip-path:url(#SVGID_8_);fill:none;stroke:#E0EBF4;stroke-width:2.15;stroke-miterlimit:10;}
	.st112{clip-path:url(#SVGID_8_);fill:#E5EEF6;}
	.st113{clip-path:url(#SVGID_8_);fill:none;stroke:#E5EEF6;stroke-width:2.15;stroke-miterlimit:10;}
	.st114{clip-path:url(#SVGID_8_);fill:#EAF1F7;}
	.st115{clip-path:url(#SVGID_8_);fill:none;stroke:#EAF1F7;stroke-width:2.15;stroke-miterlimit:10;}
	.st116{clip-path:url(#SVGID_8_);fill:#EEF4F9;}
	.st117{clip-path:url(#SVGID_8_);fill:none;stroke:#EEF4F9;stroke-width:2.15;stroke-miterlimit:10;}
	.st118{clip-path:url(#SVGID_8_);fill:#F1F6FA;}
	.st119{clip-path:url(#SVGID_8_);fill:none;stroke:#F1F6FA;stroke-width:2.15;stroke-miterlimit:10;}
	.st120{clip-path:url(#SVGID_8_);fill:#F5F8FB;}
	.st121{clip-path:url(#SVGID_8_);fill:none;stroke:#F5F8FB;stroke-width:2.15;stroke-miterlimit:10;}
	.st122{clip-path:url(#SVGID_8_);fill:#F7FAFC;}
	.st123{clip-path:url(#SVGID_8_);fill:none;stroke:#F7FAFC;stroke-width:2.15;stroke-miterlimit:10;}
	.st124{clip-path:url(#SVGID_8_);fill:#FAFBFD;}
	.st125{clip-path:url(#SVGID_8_);fill:none;stroke:#FAFBFD;stroke-width:2.15;stroke-miterlimit:10;}
	.st126{clip-path:url(#SVGID_8_);fill:#FCFDFE;}
	.st127{clip-path:url(#SVGID_8_);fill:none;stroke:#FCFDFE;stroke-width:2.15;stroke-miterlimit:10;}
	.st128{clip-path:url(#SVGID_8_);fill:#FDFEFE;}
	.st129{clip-path:url(#SVGID_8_);fill:none;stroke:#FDFEFE;stroke-width:2.15;stroke-miterlimit:10;}
	.st130{clip-path:url(#SVGID_8_);fill:#FEFEFF;}
	.st131{clip-path:url(#SVGID_8_);fill:none;stroke:#FEFEFF;stroke-width:2.15;stroke-miterlimit:10;}
	.st132{clip-path:url(#SVGID_8_);fill:#FFFFFF;}
	.st133{clip-path:url(#SVGID_8_);fill:none;stroke:#FFFFFF;stroke-width:2.15;stroke-miterlimit:10;}
	.st134{fill:none;stroke:#000000;stroke-miterlimit:10;}
	.st135{fill:none;stroke:#B3B3B3;stroke-width:1.6;stroke-miterlimit:10;}
	.st136{fill:#B3B3B3;}
	.st137{fill:#94B0D0;}
	.st138{fill:none;stroke:#94B0D0;stroke-width:1.6;stroke-miterlimit:10;}
	.st139{fill:#9BB5D3;}
	.st140{fill:none;stroke:#9BB5D3;stroke-width:1.6;stroke-miterlimit:10;}
	.st141{fill:#A1BAD6;}
	.st142{fill:none;stroke:#A1BAD6;stroke-width:1.6;stroke-miterlimit:10;}
	.st143{fill:#A7BED8;}
	.st144{fill:none;stroke:#A7BED8;stroke-width:1.6;stroke-miterlimit:10;}
	.st145{fill:#ADC3DB;}
	.st146{fill:none;stroke:#ADC3DB;stroke-width:1.6;stroke-miterlimit:10;}
	.st147{fill:#B3C7DE;}
	.st148{fill:none;stroke:#B3C7DE;stroke-width:1.6;stroke-miterlimit:10;}
	.st149{fill:#B8CBE0;}
	.st150{fill:none;stroke:#B8CBE0;stroke-width:1.6;stroke-miterlimit:10;}
	.st151{fill:#BECFE2;}
	.st152{fill:none;stroke:#BECFE2;stroke-width:1.6;stroke-miterlimit:10;}
	.st153{fill:#C3D3E5;}
	.st154{fill:none;stroke:#C3D3E5;stroke-width:1.6;stroke-miterlimit:10;}
	.st155{fill:#C8D6E7;}
	.st156{fill:none;stroke:#C8D6E7;stroke-width:1.6;stroke-miterlimit:10;}
	.st157{fill:#CCDAE9;}
	.st158{fill:none;stroke:#CCDAE9;stroke-width:1.6;stroke-miterlimit:10;}
	.st159{fill:#D1DDEB;}
	.st160{fill:none;stroke:#D1DDEB;stroke-width:1.6;stroke-miterlimit:10;}
	.st161{fill:#D5E0ED;}
	.st162{fill:none;stroke:#D5E0ED;stroke-width:1.6;stroke-miterlimit:10;}
	.st163{fill:#D9E3EE;}
	.st164{fill:none;stroke:#D9E3EE;stroke-width:1.6;stroke-miterlimit:10;}
	.st165{fill:#DDE6F0;}
	.st166{fill:none;stroke:#DDE6F0;stroke-width:1.6;stroke-miterlimit:10;}
	.st167{fill:#E1E9F2;}
	.st168{fill:none;stroke:#E1E9F2;stroke-width:1.6;stroke-miterlimit:10;}
	.st169{fill:#E4EBF3;}
	.st170{fill:none;stroke:#E4EBF3;stroke-width:1.6;stroke-miterlimit:10;}
	.st171{fill:#E7EEF5;}
	.st172{fill:none;stroke:#E7EEF5;stroke-width:1.6;stroke-miterlimit:10;}
	.st173{fill:#EBF0F6;}
	.st174{fill:none;stroke:#EBF0F6;stroke-width:1.6;stroke-miterlimit:10;}
	.st175{fill:#EDF2F7;}
	.st176{fill:none;stroke:#EDF2F7;stroke-width:1.6;stroke-miterlimit:10;}
	.st177{fill:#F0F4F8;}
	.st178{fill:none;stroke:#F0F4F8;stroke-width:1.6;stroke-miterlimit:10;}
	.st179{fill:#F2F6F9;}
	.st180{fill:none;stroke:#F2F6F9;stroke-width:1.6;stroke-miterlimit:10;}
	.st181{fill:#F5F7FA;}
	.st182{fill:none;stroke:#F5F7FA;stroke-width:1.6;stroke-miterlimit:10;}
	.st183{fill:#F7F9FB;}
	.st184{fill:none;stroke:#F7F9FB;stroke-width:1.6;stroke-miterlimit:10;}
	.st185{fill:#F8FAFC;}
	.st186{fill:none;stroke:#F8FAFC;stroke-width:1.6;stroke-miterlimit:10;}
	.st187{fill:#FAFBFD;}
	.st188{fill:none;stroke:#FAFBFD;stroke-width:1.6;stroke-miterlimit:10;}
	.st189{fill:#FBFCFD;}
	.st190{fill:none;stroke:#FBFCFD;stroke-width:1.6;stroke-miterlimit:10;}
	.st191{fill:#FCFDFE;}
	.st192{fill:none;stroke:#FCFDFE;stroke-width:1.6;stroke-miterlimit:10;}
	.st193{fill:#FDFEFE;}
	.st194{fill:none;stroke:#FDFEFE;stroke-width:1.6;stroke-miterlimit:10;}
	.st195{fill:#FEFEFF;}
	.st196{fill:none;stroke:#FEFEFF;stroke-width:1.6;stroke-miterlimit:10;}
	.st197{fill:#FFFFFF;}
	.st198{fill:none;stroke:#FFFFFF;stroke-width:1.6;stroke-miterlimit:10;}
	.st199{fill:none;}
	.st200{fill:#CCCCCC;}
	.st201{fill:#7A6AA8;}
	.st202{fill:#407993;}
	.st203{fill:#336681;}
	.st204{fill:#C2D5D4;}
	.st205{fill:none;stroke:#C2D5D4;stroke-width:1.6;stroke-miterlimit:10;}
	.st206{fill:none;stroke:#407B93;stroke-width:3.65;stroke-miterlimit:10;}
	.st207{fill:#407B93;}
	.st208{fill:none;stroke:#407B93;stroke-width:1.6;stroke-miterlimit:10;}
	.st209{fill:none;stroke:#000000;stroke-width:1.3;stroke-miterlimit:10;}
	.st210{fill:none;stroke:#000000;stroke-width:1.6;stroke-miterlimit:10;}
	.st211{fill:#B9CFD8;}
	.st212{fill:none;stroke:#B9CFD8;stroke-width:1.6;stroke-miterlimit:10;}
	.st213{fill:none;stroke:#CCCCCC;stroke-width:1.6;stroke-miterlimit:10;}
	.st214{font-family:'Helvetica';}
	.st215{font-size:10.9157px;}
	.st216{fill:none;stroke:#A5B9CF;stroke-width:1.6;stroke-miterlimit:10;}
	.st217{fill:#BDD2DA;}
	.st218{fill:none;stroke:#BDD2DA;stroke-width:1.6;stroke-miterlimit:10;}
	.st219{fill:#C1D5DD;}
	.st220{fill:none;stroke:#C1D5DD;stroke-width:1.6;stroke-miterlimit:10;}
	.st221{fill:#C6D8DF;}
	.st222{fill:none;stroke:#C6D8DF;stroke-width:1.6;stroke-miterlimit:10;}
	.st223{fill:#C9DAE1;}
	.st224{fill:none;stroke:#C9DAE1;stroke-width:1.6;stroke-miterlimit:10;}
	.st225{fill:#CDDDE3;}
	.st226{fill:none;stroke:#CDDDE3;stroke-width:1.6;stroke-miterlimit:10;}
	.st227{fill:#D1DFE5;}
	.st228{fill:none;stroke:#D1DFE5;stroke-width:1.6;stroke-miterlimit:10;}
	.st229{fill:#D4E2E7;}
	.st230{fill:none;stroke:#D4E2E7;stroke-width:1.6;stroke-miterlimit:10;}
	.st231{fill:#D8E4E9;}
	.st232{fill:none;stroke:#D8E4E9;stroke-width:1.6;stroke-miterlimit:10;}
	.st233{fill:#DBE6EB;}
	.st234{fill:none;stroke:#DBE6EB;stroke-width:1.6;stroke-miterlimit:10;}
	.st235{fill:#DEE8ED;}
	.st236{fill:none;stroke:#DEE8ED;stroke-width:1.6;stroke-miterlimit:10;}
	.st237{fill:#E1EAEE;}
	.st238{fill:none;stroke:#E1EAEE;stroke-width:1.6;stroke-miterlimit:10;}
	.st239{fill:#E4ECF0;}
	.st240{fill:none;stroke:#E4ECF0;stroke-width:1.6;stroke-miterlimit:10;}
	.st241{fill:#E6EEF1;}
	.st242{fill:none;stroke:#E6EEF1;stroke-width:1.6;stroke-miterlimit:10;}
	.st243{fill:#E9F0F3;}
	.st244{fill:none;stroke:#E9F0F3;stroke-width:1.6;stroke-miterlimit:10;}
	.st245{fill:#EBF1F4;}
	.st246{fill:none;stroke:#EBF1F4;stroke-width:1.6;stroke-miterlimit:10;}
	.st247{fill:#EDF3F5;}
	.st248{fill:none;stroke:#EDF3F5;stroke-width:1.6;stroke-miterlimit:10;}
	.st249{fill:#F0F4F6;}
	.st250{fill:none;stroke:#F0F4F6;stroke-width:1.6;stroke-miterlimit:10;}
	.st251{fill:#F2F6F8;}
	.st252{fill:none;stroke:#F2F6F8;stroke-width:1.6;stroke-miterlimit:10;}
	.st253{fill:#F3F7F9;}
	.st254{fill:none;stroke:#F3F7F9;stroke-width:1.6;stroke-miterlimit:10;}
	.st255{fill:#F5F8FA;}
	.st256{fill:none;stroke:#F5F8FA;stroke-width:1.6;stroke-miterlimit:10;}
	.st257{fill:#F7F9FA;}
	.st258{fill:none;stroke:#F7F9FA;stroke-width:1.6;stroke-miterlimit:10;}
	.st259{fill:#F8FAFB;}
	.st260{fill:none;stroke:#F8FAFB;stroke-width:1.6;stroke-miterlimit:10;}
	.st261{fill:#F9FBFC;}
	.st262{fill:none;stroke:#F9FBFC;stroke-width:1.6;stroke-miterlimit:10;}
	.st263{fill:#FCFDFD;}
	.st264{fill:none;stroke:#FCFDFD;stroke-width:1.6;stroke-miterlimit:10;}
	.st265{fill:#FDFDFE;}
	.st266{fill:none;stroke:#FDFDFE;stroke-width:1.6;stroke-miterlimit:10;}
	.st267{fill:#FEFEFE;}
	.st268{fill:none;stroke:#FEFEFE;stroke-width:1.6;stroke-miterlimit:10;}
	.st269{fill:#FEFFFF;}
	.st270{fill:none;stroke:#FEFFFF;stroke-width:1.6;stroke-miterlimit:10;}
	.st271{fill:none;stroke:#FFCC66;stroke-width:3.25;stroke-miterlimit:10;stroke-dasharray:3.8,3.8;}
</style>
<g>
	<ellipse class="st200" cx="199.1" cy="94.1" rx="21.8" ry="13.2"/>
	<ellipse class="st213" cx="199.1" cy="94.1" rx="21.8" ry="13.2"/>
	<text transform="matrix(1 0 0 1 75.2764 124.9976)" class="st214 st215">X</text>
	<polygon points="89.2,90.2 88.3,91.5 84.6,91.5 84.6,90.2 	"/>
	<rect x="77.1" y="90.2" width="3.7" height="1.2"/>
	<polygon points="73.3,90.2 73.3,91.5 69.6,91.5 68.7,90.2 	"/>
	<polygon points="95.2,108.6 94.8,109.5 94.1,109.3 88.3,91.5 89.2,90.2 	"/>
	<polygon points="84.6,117.7 83.9,116.7 94.1,109.3 94.8,109.5 94.8,110.3 	"/>
	<polygon points="62.3,109.8 63.8,109.3 67.2,111.8 66.5,112.8 	"/>
	<polygon points="69.9,115.3 70.6,114.3 74.1,116.8 73.3,117.8 	"/>
	<polygon points="68.7,90.2 69.6,91.5 68.4,95.1 67.2,94.7 	"/>
	<polygon points="66.1,98.2 67.3,98.6 66.1,102.2 64.9,101.8 	"/>
	<polygon points="63.8,105.3 64.9,105.7 63.8,109.3 62.3,109.8 	"/>
	<g>
		<path d="M105.6,127.3v-7.9h1.6v3h3.1v-3h1.6v7.9h-1.6v-3.5h-3.1v3.5H105.6z"/>
	</g>
	<polygon points="104.5,118.3 103.6,119.2 94.8,110.3 94.8,109.5 95.8,109.7 	"/>
	<g>
		<path d="M108.7,103.6v-7.9h1.6v3h3.1v-3h1.6v7.9h-1.6v-3.5h-3.1v3.5H108.7z"/>
	</g>
	<polygon points="106.1,102.3 106.8,103.4 95.8,109.7 94.8,109.5 95.2,108.6 	"/>
	<g>
		<path d="M196.5,93.7c0-0.3-0.1-0.5-0.3-0.7c-0.2-0.3-0.5-0.4-1-0.4c-0.6,0-1.1,0.3-1.3,0.9c-0.1,0.3-0.2,0.8-0.2,1.3
			c0,0.5,0.1,1,0.2,1.3c0.2,0.6,0.7,0.9,1.3,0.9c0.4,0,0.8-0.1,0.9-0.4c0.2-0.2,0.3-0.5,0.3-0.9h1.9c0,0.6-0.3,1.1-0.6,1.6
			c-0.6,0.8-1.5,1.2-2.6,1.2c-1.2,0-2-0.3-2.6-1c-0.5-0.7-0.8-1.6-0.8-2.7c0-1.2,0.3-2.2,0.9-2.9s1.4-1,2.5-1c0.9,0,1.6,0.2,2.2,0.6
			c0.6,0.4,0.9,1.1,1,2.2H196.5z"/>
		<path d="M202.6,94c0.4,0,0.6-0.1,0.8-0.2c0.3-0.1,0.4-0.3,0.4-0.5c0-0.3-0.1-0.5-0.3-0.6c-0.2-0.1-0.5-0.2-0.9-0.2
			c-0.5,0-0.8,0.1-1,0.3c-0.1,0.2-0.2,0.4-0.3,0.7h-1.8c0-0.6,0.2-1.2,0.5-1.6c0.5-0.6,1.4-1,2.6-1c0.8,0,1.5,0.2,2.1,0.5
			c0.6,0.3,0.9,0.9,0.9,1.8v3.3c0,0.2,0,0.5,0,0.8c0,0.2,0.1,0.4,0.1,0.5s0.2,0.2,0.3,0.2v0.3H204c-0.1-0.1-0.1-0.3-0.1-0.4
			c0-0.1,0-0.3-0.1-0.4c-0.3,0.3-0.6,0.5-0.9,0.7c-0.4,0.2-0.9,0.4-1.4,0.4c-0.7,0-1.2-0.2-1.6-0.6s-0.6-0.9-0.6-1.6
			c0-0.9,0.3-1.5,1-1.9c0.4-0.2,0.9-0.4,1.7-0.5L202.6,94z M203.7,94.9c-0.1,0.1-0.2,0.1-0.4,0.2s-0.3,0.1-0.5,0.1l-0.4,0.1
			c-0.4,0.1-0.7,0.2-0.9,0.3c-0.3,0.2-0.4,0.4-0.4,0.8c0,0.3,0.1,0.6,0.3,0.7s0.4,0.2,0.7,0.2c0.4,0,0.8-0.1,1.1-0.4
			c0.3-0.2,0.5-0.7,0.5-1.3V94.9z"/>
		<path d="M206.5,92.6v-1.3h1v-2h1.9v2h1.2v1.3h-1.2v3.8c0,0.3,0,0.5,0.1,0.6s0.3,0.1,0.7,0.1c0.1,0,0.1,0,0.2,0c0.1,0,0.1,0,0.2,0
			v1.4l-0.9,0c-0.9,0-1.5-0.1-1.8-0.5c-0.2-0.2-0.3-0.5-0.3-1v-4.4H206.5z"/>
	</g>
	<circle cx="188.7" cy="89" r="1.7"/>
	<path class="st135" d="M178.4,81.8c-7.7-8.9-19.4-8.6-26.9,0.7"/>
	<path class="st136" d="M146.6,90.6L146.6,90.6l3.3-10.6c0,0,0.2,2.3,1.2,2.9L146.6,90.6z"/>
	<path class="st135" d="M146.6,90.6L146.6,90.6l3.3-10.6c0,0,0.2,2.3,1.2,2.9L146.6,90.6z"/>
	<path class="st135" d="M118.2,109.6c6.9,5.9,16.4,4.5,22.2-3.3"/>
	<path class="st136" d="M144.7,98L144.7,98l-2.6,10.6c0,0-0.4-2.3-1.4-2.8L144.7,98z"/>
	<path class="st135" d="M144.7,98L144.7,98l-2.6,10.6c0,0-0.4-2.3-1.4-2.8L144.7,98z"/>
	<polygon points="337.7,90.7 336.7,91.9 333,91.9 333,90.7 	"/>
	<rect x="325.5" y="90.7" width="3.7" height="1.2"/>
	<polygon points="321.8,90.7 321.8,91.9 318,91.9 317.1,90.7 	"/>
	<g>
		<path d="M325.2,125.5h-1.3l2.8-4l-2.6-3.8h1.3l2,3l2-3h1.3l-2.6,3.8l2.7,4h-1.3l-2.1-3.2L325.2,125.5z"/>
	</g>
	<polygon points="312.2,109.8 310.7,110.3 312.2,105.8 313.4,106.2 	"/>
	<polygon points="314.5,102.6 313.3,102.2 314.5,98.7 315.7,99.1 	"/>
	<polygon points="316.9,95.5 315.6,95.1 317.1,90.7 318,91.9 	"/>
	<polygon points="322.5,117.2 321.8,118.3 318.3,115.8 319.1,114.7 	"/>
	<polygon points="315.6,112.3 314.9,113.3 310.7,110.3 312.2,109.8 	"/>
	<polygon points="342.2,109.4 343.6,109.9 333,118.1 332.2,117 	"/>
	<polygon points="336.7,91.9 337.7,90.7 343.6,109.9 342.2,109.4 	"/>
	<path class="st199" d="M342.9,109.9c-2,0-3.7-6.6-3.7-8.6c0-2.5,0.5-4.3,3.8-4.3c3.2,0,3.7,1.8,3.7,4.3
		C346.7,103.4,344.9,109.9,342.9,109.9z"/>
	<path class="st216" d="M346.7,101.4c0,2-1.7,8.6-3.8,8.6c-2,0-3.7-6.6-3.7-8.6c0-2.5,0.5-4.3,3.8-4.3
		C346.2,97.1,346.7,98.9,346.7,101.4z"/>
	<path class="st216" d="M346.7,101.4c0,2-1.7,8.6-3.8,8.6c-2,0-3.7-6.6-3.7-8.6c0-2.5,0.5-4.3,3.8-4.3
		C346.2,97.1,346.7,98.9,346.7,101.4z"/>
	<path class="st199" d="M342.9,109.9c2,0,3.7,6.6,3.7,8.6c0,2.5-0.5,4.3-3.7,4.3c-3.2,0-3.7-1.8-3.7-4.3
		C339.2,116.5,340.9,109.9,342.9,109.9z"/>
	<path class="st216" d="M339.2,118.5c0-2,1.7-8.6,3.7-8.6c2,0,3.7,6.6,3.7,8.6c0,2.5-0.5,4.3-3.7,4.3
		C339.7,122.8,339.2,121,339.2,118.5z"/>
	<path class="st216" d="M339.2,118.5c0-2,1.7-8.6,3.7-8.6c2,0,3.7,6.6,3.7,8.6c0,2.5-0.5,4.3-3.7,4.3
		C339.7,122.8,339.2,121,339.2,118.5z"/>
	<circle cx="342.8" cy="101.9" r="1.5"/>
	<polygon class="st138" points="253.7,110.5 253.7,106.8 253.7,103 273.3,103 273.3,99.3 280.8,106.8 273.3,114.3 273.3,110.5 	"/>
</g>
</svg>
