<?xml version="1.0" encoding="utf-8"?>
<!-- Generator: Adobe Illustrator 19.2.0, SVG Export Plug-In . SVG Version: 6.00 Build 0)  -->
<svg version="1.1" id="Layer_1" xmlns="http://www.w3.org/2000/svg" xmlns:xlink="http://www.w3.org/1999/xlink" x="0px" y="0px"
	 viewBox="0 0 567 443" style="enable-background:new 0 0 567 443;" xml:space="preserve">
<style type="text/css">
	.st0{fill:#7A6AA8;}
</style>
<g>
	<g>
		<path class="st0" d="M127.7,375.6h1.5l-1.6,7.8h-1.5L127.7,375.6z M128,373.4c0-0.5,0.5-1,1-1c0.5,0,0.8,0.4,0.8,0.8
			c0,0.5-0.5,1-1,1C128.3,374.3,128,373.9,128,373.4z"/>
		<path class="st0" d="M129.5,382.4l0.9-1c0.7,0.6,1.6,0.9,2.4,0.9c1,0,1.9-0.6,1.9-1.3c0-0.4-0.3-0.7-1.5-1
			c-1.6-0.5-2.4-0.9-2.4-1.9c0-1.6,1.4-2.7,3.3-2.7c1,0,2,0.4,2.8,0.9l-0.8,1.1c-0.6-0.5-1.3-0.7-2-0.7c-1,0-1.8,0.5-1.8,1.2
			c0,0.3,0.4,0.6,1.5,1c1.5,0.5,2.3,0.9,2.3,2c0,1.5-1.5,2.8-3.4,2.8C131.4,383.6,130.3,383.1,129.5,382.4z"/>
		<path class="st0" d="M137.6,380.2c0-2.6,2.3-4.8,5-4.8c1.9,0,3.4,1.5,3.4,3.4c0,2.6-2.3,4.8-5,4.8
			C139.1,383.6,137.6,382,137.6,380.2z M144.5,378.8c0-1.2-1-2.1-2.1-2.1c-1.8,0-3.3,1.6-3.3,3.4c0,1.2,0.9,2.1,2.1,2.1
			C143,382.3,144.5,380.7,144.5,378.8z"/>
		<path class="st0" d="M155.7,378.5c0,2.7-2.1,5.1-4.6,5.1c-1.1,0-2-0.7-2.4-1.7l-0.9,4.2h-1.5l2.2-10.4h1.5l-0.3,1.3
			c0.8-0.9,1.8-1.5,3-1.5C154.4,375.4,155.7,376.8,155.7,378.5z M154.2,378.6c0-1.1-0.8-2-1.8-2c-1.8,0-3.3,1.7-3.3,3.6
			c0,1.1,0.9,2,2,2C152.8,382.3,154.2,380.6,154.2,378.6z"/>
		<path class="st0" d="M156.4,382.4l0.9-1c0.7,0.6,1.6,0.9,2.4,0.9c1,0,1.9-0.6,1.9-1.3c0-0.4-0.3-0.7-1.5-1
			c-1.6-0.5-2.4-0.9-2.4-1.9c0-1.6,1.4-2.7,3.3-2.7c1,0,2,0.4,2.8,0.9l-0.8,1.1c-0.6-0.5-1.3-0.7-2-0.7c-1,0-1.8,0.5-1.8,1.2
			c0,0.3,0.4,0.6,1.5,1c1.5,0.5,2.3,0.9,2.3,2c0,1.5-1.5,2.8-3.4,2.8C158.3,383.6,157.2,383.1,156.4,382.4z"/>
		<path class="st0" d="M163.6,385.7l0.5-1.1c0.3,0.2,0.6,0.2,0.9,0.2c0.5,0,0.9-0.2,1.3-0.7l0.6-0.8l-1.7-7.9h1.6l1.2,6.2l3.7-6.2
			h1.6l-5.2,8.6c-0.8,1.4-1.8,2-2.9,2C164.5,386.1,164,386,163.6,385.7z"/>
		<path class="st0" d="M173.5,380.2c0-2.6,2.3-4.8,5-4.8c1,0,2.1,0.5,2.6,1.3l-1.1,0.8c-0.3-0.5-1.1-0.8-1.7-0.8
			c-1.8,0-3.3,1.6-3.3,3.4c0,1.2,0.9,2.1,2,2.1c0.8,0,1.5-0.3,2.1-0.9l0.9,1c-0.9,0.8-2,1.2-3.2,1.2
			C175,383.6,173.5,382,173.5,380.2z"/>
		<path class="st0" d="M189.4,377.7c0,0.6-0.1,1-1.1,5.6h-1.5c1-4.6,1-4.9,1-5.3c0-0.9-0.5-1.4-1.3-1.4c-1.2,0-2.4,0.9-2.6,1.9v-0.1
			l-1,4.9h-1.5l2.2-10.6h1.5l-0.8,3.8c0.6-0.8,1.6-1.3,2.7-1.3C188.5,375.4,189.4,376.4,189.4,377.7z"/>
		<path class="st0" d="M190.8,380.2c0-2.6,2.3-4.8,5-4.8c1.9,0,3.4,1.5,3.4,3.4c0,2.6-2.3,4.8-5,4.8
			C192.3,383.6,190.8,382,190.8,380.2z M197.7,378.8c0-1.2-1-2.1-2.1-2.1c-1.8,0-3.3,1.6-3.3,3.4c0,1.2,0.9,2.1,2.1,2.1
			C196.2,382.3,197.7,380.7,197.7,378.8z"/>
		<path class="st0" d="M203.5,376.8c-1,4.8-1,4.7-1,4.8c0,0.4,0.2,0.6,0.5,0.6c0.4,0,0.8-0.2,0.9-0.3l0.4,1.1
			c-0.5,0.3-1.1,0.5-1.6,0.5c-1,0-1.7-0.7-1.7-1.7c0-0.4,0.1-0.7,1-5h-1.2l0.3-1.3h1.2l0.5-2.1h1.5l-0.5,2.1h1.8l-0.3,1.3H203.5z"/>
		<path class="st0" d="M211.9,375.4l-0.2,1.3c-1.6,0-3,1-3.4,2.3l-0.9,4.4h-1.5l1.6-7.8h1.5l-0.3,1.4
			C209.4,376,210.6,375.4,211.9,375.4z"/>
		<path class="st0" d="M213.6,375.6h1.5l-1.6,7.8h-1.5L213.6,375.6z M213.8,373.4c0-0.5,0.5-1,1-1c0.5,0,0.8,0.4,0.8,0.8
			c0,0.5-0.5,1-1,1C214.1,374.3,213.8,373.9,213.8,373.4z"/>
		<path class="st0" d="M225.3,372.8l-2.2,10.6h-1.5l0.3-1.3c-0.8,0.9-1.8,1.5-3,1.5c-1.6,0-2.9-1.4-2.9-3.1c0-2.7,2.1-5.1,4.6-5.1
			c1.1,0,2,0.7,2.4,1.7l0.9-4.3H225.3z M222.4,379.6l0.1-0.3c0-0.2,0-0.4,0-0.6c0-1.1-0.9-2-2-2c-1.6,0-3.1,1.7-3.1,3.6
			c0,1.1,0.8,2,1.8,2C220.8,382.3,222,381.1,222.4,379.6z"/>
		<path class="st0" d="M227,375.6h1.5l-1.6,7.8h-1.5L227,375.6z M227.2,373.4c0-0.5,0.5-1,1-1c0.5,0,0.8,0.4,0.8,0.8
			c0,0.5-0.5,1-1,1C227.6,374.3,227.2,373.9,227.2,373.4z"/>
		<path class="st0" d="M237,377.7c0,0.6-0.1,1-1.1,5.6h-1.5c1-4.6,1-4.9,1-5.3c0-0.9-0.5-1.4-1.3-1.4c-1.2,0-2.3,0.8-2.6,1.8l-1,4.9
			H229l1.6-7.8h1.5l-0.2,1c0.6-0.7,1.6-1.2,2.6-1.2C236.1,375.4,237,376.4,237,377.7z"/>
		<path class="st0" d="M239.8,380v0.2c0,1.3,0.7,2,2,2c0.9,0,1.9-0.4,2.5-0.9l0.8,1.1c-0.8,0.7-2.3,1.2-3.4,1.2
			c-1.9,0-3.3-1.3-3.3-3.3c0-2.6,2.3-4.9,4.8-4.9c1.5,0,2.8,0.8,2.8,2.1c0,1.5-1.4,2.5-3.7,2.5H239.8z M240.1,378.8h2.4
			c1.3,0,2-0.4,2-1.1c0-0.6-0.6-1-1.5-1C241.7,376.7,240.6,377.6,240.1,378.8z"/>
	</g>
	<g>
		<g>
			<polygon points="162.8,251.9 161.6,252.6 161.6,232.9 162.8,233.6 			"/>
		</g>
		<g>
			<rect x="164.6" y="235" width="1.2" height="15.5"/>
		</g>
		<g>
			<polygon points="178.7,261.1 178.7,262.5 161.6,252.6 162.8,251.9 			"/>
		</g>
		<g>
			<polygon points="194.6,251.9 195.2,252.2 195.2,252.9 178.7,262.5 178.7,261.1 			"/>
		</g>
		<g>
			<polygon points="191.8,250 192.5,251 179,258.8 178.4,257.7 			"/>
		</g>
		<g>
			<polygon points="194.6,233.6 195.2,233.2 195.8,233.7 195.8,251.8 195.2,252.2 194.6,251.9 			"/>
		</g>
		<g>
			<polygon points="178.7,224.4 178.7,223 195.2,232.6 195.2,233.2 194.6,233.6 			"/>
		</g>
		<g>
			<polygon points="178.4,227.7 179,226.7 192.5,234.4 191.8,235.5 			"/>
		</g>
		<g>
			<polygon points="162.8,233.6 161.6,232.9 178.7,223 178.7,224.4 			"/>
		</g>
		<g>
			<path d="M210.3,254.3h1.2l3.8,6.1v-6.1h1v7.6h-1.2l-3.8-6.1v6.1h-1V254.3z"/>
		</g>
		<g>
			<path d="M210.3,263.1h1v3.1h3.9v-3.1h1v7.6h-1v-3.5h-3.9v3.5h-1V263.1z"/>
		</g>
		<g>
			<polygon points="208.4,255.9 208.1,257.1 195.2,252.9 195.2,252.2 195.8,251.8 			"/>
		</g>
		<g>
			<polygon points="223.7,242.7 224.5,242.7 224.9,243.2 217.5,253.3 216.6,252.6 			"/>
		</g>
		<g>
			<polygon points="213,228 213.3,227.3 214.1,227.3 224.7,242 224.5,242.7 223.7,242.7 			"/>
		</g>
		<g>
			<polygon points="195.8,233.7 195.2,233.2 195.2,232.6 212.9,226.8 213.3,227.3 213,228 			"/>
		</g>
		<g>
			<path d="M239.6,233.1h1.2l3.8,6.1v-6.1h1v7.6h-1.2l-3.8-6.1v6.1h-1V233.1z"/>
			<path d="M247.2,233.1h1.5l2.2,6.4l2.2-6.4h1.5v7.6h-1v-4.5c0-0.2,0-0.4,0-0.8s0-0.7,0-1.2l-2.2,6.4h-1l-2.2-6.4v0.2
				c0,0.2,0,0.5,0,0.9c0,0.4,0,0.7,0,0.8v4.5h-1V233.1z"/>
			<path d="M259.3,235.3c0.4,0.2,0.6,0.4,0.8,0.7c0.2,0.3,0.3,0.6,0.4,1c0.1,0.3,0.1,0.7,0.1,1.2h-4c0,0.6,0.1,1,0.4,1.4
				c0.2,0.3,0.6,0.5,1.1,0.5c0.5,0,0.9-0.2,1.2-0.5c0.2-0.2,0.3-0.4,0.3-0.6h0.9c0,0.2-0.1,0.4-0.2,0.7c-0.1,0.2-0.3,0.5-0.5,0.6
				c-0.3,0.3-0.6,0.5-1,0.6c-0.2,0.1-0.5,0.1-0.8,0.1c-0.7,0-1.3-0.3-1.7-0.8c-0.5-0.5-0.7-1.2-0.7-2.1c0-0.9,0.2-1.6,0.7-2.2
				c0.5-0.6,1.1-0.8,1.9-0.8C258.6,235,259,235.1,259.3,235.3z M259.7,237.4c0-0.4-0.1-0.7-0.3-1c-0.3-0.4-0.7-0.7-1.3-0.7
				c-0.4,0-0.8,0.2-1.1,0.5c-0.3,0.3-0.4,0.7-0.5,1.2H259.7z"/>
		</g>
		<g>
			<polygon points="237.3,237.9 237.7,239.1 224.9,243.2 224.5,242.7 224.7,242 			"/>
		</g>
		<g>
			<polygon points="242,218.2 243.2,217.4 243.2,231.5 242,231.5 			"/>
		</g>
		<g>
			<polygon points="226.2,213.1 222.8,210.7 243.2,217.4 242,218.2 			"/>
		</g>
		<g>
			<polygon points="214.1,227.3 213.3,227.3 212.9,226.8 222.8,210.7 226.2,213.1 			"/>
		</g>
		<g>
			<path d="M231,255.4h1v3.1h3.9v-3.1h1v7.6h-1v-3.5H232v3.5h-1V255.4z"/>
		</g>
		<g>
			<polygon points="232.6,252.7 229.1,254.7 228.6,253.6 231.9,251.8 			"/>
		</g>
		<g>
			<polygon points="230.2,249.7 227.7,251.1 227.3,250 229.4,248.7 			"/>
		</g>
		<g>
			<polygon points="227.7,246.7 226.3,247.5 225.9,246.3 227,245.7 			"/>
		</g>
		<g>
			<polygon points="179.3,277 178.1,277 177.9,275.8 179.5,275.8 			"/>
		</g>
		<g>
			<polygon points="179.9,271.9 177.4,271.9 177.3,270.7 180.1,270.7 			"/>
		</g>
		<g>
			<polygon points="180.6,266.8 176.8,266.8 176.6,265.6 180.8,265.6 			"/>
		</g>
		<g>
			<path d="M193.8,301.9h1.2l3.8,6.1v-6.1h1v7.6h-1.2l-3.8-6.1v6.1h-1V301.9z"/>
		</g>
		<g>
			<path d="M193.8,310.8h1.5l2.2,6.4l2.2-6.4h1.5v7.6h-1v-4.5c0-0.2,0-0.4,0-0.8s0-0.7,0-1.2l-2.2,6.4h-1l-2.2-6.4v0.2
				c0,0.2,0,0.5,0,0.9c0,0.4,0,0.7,0,0.8v4.5h-1V310.8z"/>
			<path d="M205.9,313c0.4,0.2,0.6,0.4,0.8,0.7c0.2,0.3,0.3,0.6,0.4,1c0.1,0.3,0.1,0.7,0.1,1.2h-4c0,0.6,0.1,1,0.4,1.4
				c0.2,0.3,0.6,0.5,1.1,0.5c0.5,0,0.9-0.2,1.2-0.5c0.2-0.2,0.3-0.4,0.3-0.6h0.9c0,0.2-0.1,0.4-0.2,0.7c-0.1,0.2-0.3,0.5-0.5,0.6
				c-0.3,0.3-0.6,0.5-1,0.6c-0.2,0.1-0.5,0.1-0.8,0.1c-0.7,0-1.3-0.3-1.7-0.8c-0.5-0.5-0.7-1.2-0.7-2.1c0-0.9,0.2-1.6,0.7-2.2
				c0.5-0.6,1.1-0.8,1.9-0.8C205.2,312.7,205.5,312.8,205.9,313z M206.2,315.1c0-0.4-0.1-0.7-0.3-1c-0.3-0.4-0.7-0.7-1.3-0.7
				c-0.4,0-0.8,0.2-1.1,0.5c-0.3,0.3-0.4,0.7-0.5,1.2H206.2z"/>
		</g>
		<g>
			<polygon points="179.3,299.4 178.7,299.9 178.1,299.4 178.1,281.3 178.7,280.8 179.3,281.3 			"/>
		</g>
		<g>
			<polygon points="191.9,303.5 191.5,304.7 178.7,300.5 178.7,299.9 179.3,299.4 			"/>
		</g>
		<g>
			<polygon points="207.3,290.3 208.7,290.3 201,300.9 200,300.2 			"/>
		</g>
		<g>
			<polygon points="197.5,276.9 196.1,273 208.7,290.3 207.3,290.3 			"/>
		</g>
		<g>
			<polygon points="179.3,281.3 178.7,280.8 178.7,280.2 196.1,273 197.5,276.9 			"/>
		</g>
		<g>
			<path d="M157.6,301.9h1.2l3.8,6.1v-6.1h1v7.6h-1.2l-3.8-6.1v6.1h-1V301.9z"/>
		</g>
		<g>
			<path d="M157.6,310.8h1v3.1h3.9v-3.1h1v7.6h-1v-3.5h-3.9v3.5h-1V310.8z"/>
		</g>
		<g>
			<polygon points="160.8,275.6 160.6,274.9 161,274.4 178.7,280.2 178.7,280.8 178.1,281.3 			"/>
		</g>
		<g>
			<polygon points="150.1,290.3 149.4,290.3 149.1,289.7 159.9,274.9 160.6,274.9 160.8,275.6 			"/>
		</g>
		<g>
			<polygon points="148.5,287.5 147.5,286.8 156.6,274.2 157.6,274.9 			"/>
		</g>
		<g>
			<polygon points="157.3,300.2 156.3,300.9 149.1,290.9 149.4,290.3 150.1,290.3 			"/>
		</g>
		<g>
			<polygon points="178.1,299.4 178.7,299.9 178.7,300.5 165.8,304.7 165.4,303.5 			"/>
		</g>
		<g>
			<polygon points="152.4,258.1 153.2,257 161,274.4 160.6,274.9 159.9,274.9 			"/>
		</g>
		<g>
			<polygon points="134.2,256.2 133.6,254.9 153.2,257 152.4,258.1 			"/>
		</g>
		<g>
			<polygon points="135.2,259.3 135.4,258.2 150.8,259.8 150.7,261 			"/>
		</g>
		<g>
			<polygon points="123.4,271 122,270.9 133.6,254.9 134.2,256.2 			"/>
		</g>
		<g>
			<polygon points="130.9,287.8 130,288.9 122,270.9 123.4,271 			"/>
		</g>
		<g>
			<polygon points="133.1,285.3 132,285.8 125.6,271.6 126.7,271.1 			"/>
		</g>
		<g>
			<polygon points="149.1,289.7 149.4,290.3 149.1,290.9 130,288.9 130.9,287.8 			"/>
		</g>
		<g>
			<path d="M175.7,315.1h1v3.1h3.9v-3.1h1v7.6h-1v-3.5h-3.9v3.5h-1V315.1z"/>
		</g>
		<g>
			<polygon points="180.8,313.5 176.6,313.5 176.8,312.3 180.6,312.3 			"/>
		</g>
		<g>
			<polygon points="180.1,309.2 177.3,309.2 177.4,308 179.9,308 			"/>
		</g>
		<g>
			<polygon points="179.5,304.9 177.9,304.9 178.1,303.7 179.3,303.7 			"/>
		</g>
		<g>
			<polygon points="212.3,196.5 213,196.5 213.4,197.1 203.9,213.6 203.1,212.4 			"/>
		</g>
		<g>
			<polygon points="209,196.2 210,196.8 202.3,210.3 201.2,209.7 			"/>
		</g>
		<g>
			<polygon points="203.1,180.6 203.5,180 204.2,180.1 213.3,195.9 213,196.5 212.3,196.5 			"/>
		</g>
		<g>
			<polygon points="184.8,180.6 184.1,179.4 203.2,179.4 203.5,180 203.1,180.6 			"/>
		</g>
		<g>
			<rect x="186.2" y="182.5" width="15.5" height="1.2"/>
		</g>
		<g>
			<polygon points="175.6,196.5 174.2,196.5 184.1,179.4 184.8,180.6 			"/>
		</g>
		<g>
			<polygon points="184.8,212.4 184.1,213.6 174.2,196.5 175.6,196.5 			"/>
		</g>
		<g>
			<polygon points="186.7,209.7 185.7,210.3 177.9,196.8 179,196.2 			"/>
		</g>
		<g>
			<polygon points="203.1,212.4 203.9,213.6 184.1,213.6 184.8,212.4 			"/>
		</g>
		<g>
			<path d="M228.6,188.8h1.2l3.8,6.1v-6.1h1v7.6h-1.2l-3.8-6.1v6.1h-1V188.8z"/>
			<path d="M236.3,188.8h1v3.1h3.9v-3.1h1v7.6h-1v-3.5h-3.9v3.5h-1V188.8z"/>
		</g>
		<g>
			<polygon points="226.6,193 226.9,194.2 213.4,197.1 213,196.5 213.3,195.9 			"/>
		</g>
		<g>
			<polygon points="233,174 233.6,173.6 234.2,173.9 232.8,187.3 231.6,187.2 			"/>
		</g>
		<g>
			<polygon points="216.4,166.6 216.2,165.9 216.9,165.5 233.5,172.9 233.6,173.6 233,174 			"/>
		</g>
		<g>
			<polygon points="204.2,180.1 203.5,180 203.2,179.4 215.7,165.6 216.2,165.9 216.4,166.6 			"/>
		</g>
		<g>
			<path d="M243.4,155.7h1.2l3.8,6.1v-6.1h1v7.6h-1.2l-3.8-6.1v6.1h-1V155.7z"/>
			<path d="M251,155.7h1.5l2.2,6.4l2.2-6.4h1.5v7.6h-1v-4.5c0-0.2,0-0.4,0-0.8c0-0.4,0-0.7,0-1.2l-2.2,6.4h-1l-2.2-6.4v0.2
				c0,0.2,0,0.5,0,0.8c0,0.4,0,0.7,0,0.8v4.5h-1V155.7z"/>
			<path d="M263.1,157.9c0.4,0.2,0.6,0.4,0.8,0.7c0.2,0.3,0.3,0.6,0.4,1c0.1,0.3,0.1,0.7,0.1,1.2h-4c0,0.6,0.1,1,0.4,1.4
				s0.6,0.5,1.1,0.5c0.5,0,0.9-0.2,1.2-0.5c0.2-0.2,0.3-0.4,0.3-0.6h0.9c0,0.2-0.1,0.4-0.2,0.7c-0.1,0.2-0.3,0.5-0.5,0.6
				c-0.3,0.3-0.6,0.5-1,0.6c-0.2,0.1-0.5,0.1-0.8,0.1c-0.7,0-1.3-0.3-1.7-0.8c-0.5-0.5-0.7-1.2-0.7-2.1c0-0.9,0.2-1.6,0.7-2.2
				c0.5-0.6,1.1-0.8,1.9-0.8C262.4,157.6,262.7,157.7,263.1,157.9z M263.4,160.1c0-0.4-0.1-0.7-0.3-1c-0.3-0.4-0.7-0.7-1.3-0.7
				c-0.4,0-0.8,0.2-1.1,0.5c-0.3,0.3-0.4,0.7-0.5,1.2H263.4z"/>
		</g>
		<g>
			<polygon points="241.7,163.7 242.6,164.5 234.2,173.9 233.6,173.6 233.5,172.9 			"/>
		</g>
		<g>
			<polygon points="236.5,143.7 237.2,142.3 243.7,153.7 242.7,154.3 			"/>
		</g>
		<g>
			<polygon points="220.3,147.1 216.2,146.8 237.2,142.3 236.5,143.7 			"/>
		</g>
		<g>
			<polygon points="216.9,165.5 216.2,165.9 215.7,165.6 216.2,146.8 220.3,147.1 			"/>
		</g>
		<g>
			<path d="M248,177.5h1v3.1h3.9v-3.1h1v7.6h-1v-3.5H249v3.5h-1V177.5z"/>
		</g>
		<g>
			<polygon points="246.5,177.1 244.8,180.9 243.8,180.2 245.3,176.8 			"/>
		</g>
		<g>
			<polygon points="242.5,176 241.3,178.6 240.3,178 241.3,175.7 			"/>
		</g>
		<g>
			<polygon points="238.6,175 237.9,176.4 236.9,175.7 237.4,174.6 			"/>
		</g>
		<g>
			<polygon points="203.9,217.4 207.4,215 207.9,216.1 204.8,218.2 			"/>
		</g>
		<g>
			<polygon points="206.9,220.5 209.2,218.9 209.8,220 207.7,221.4 			"/>
		</g>
		<g>
			<polygon points="209.8,223.6 211.1,222.7 211.6,223.8 210.6,224.5 			"/>
		</g>
		<g>
			<polygon points="153.9,95.2 153.9,95.9 153.3,96.2 137.5,87.1 137.5,86.4 138.1,86.1 			"/>
		</g>
		<g>
			<polygon points="154.2,91.9 153.6,92.9 140.2,85.1 140.8,84.1 			"/>
		</g>
		<g>
			<polygon points="169.9,86.1 171.1,86.7 154.5,96.3 153.9,95.9 153.9,95.2 			"/>
		</g>
		<g>
			<polygon points="169.9,67.7 171.1,67 171.1,86.7 169.9,86.1 			"/>
		</g>
		<g>
			<rect x="166.8" y="69.1" width="1.2" height="15.5"/>
		</g>
		<g>
			<polygon points="153.9,58.5 153.9,57.1 171.1,67 169.9,67.7 			"/>
		</g>
		<g>
			<polygon points="138.1,67.7 136.9,67 153.9,57.1 153.9,58.5 			"/>
		</g>
		<g>
			<polygon points="140.8,69.6 140.2,68.6 153.6,60.8 154.2,61.9 			"/>
		</g>
		<g>
			<polygon points="138.1,86.1 137.5,86.4 136.9,86.1 136.9,67 138.1,67.7 			"/>
		</g>
		<g>
			<path d="M111,95.4h1v3.1h3.9v-3.1h1v7.6h-1v-3.5h-3.9v3.5h-1V95.4z"/>
			<path d="M118.7,95.4h1.2l3.8,6.1v-6.1h1v7.6h-1.2l-3.8-6.1v6.1h-1V95.4z"/>
		</g>
		<g>
			<polygon points="127.5,96.2 126.7,95.3 136.9,86.1 137.5,86.4 137.5,87.1 			"/>
		</g>
		<g>
			<polygon points="131.4,115.9 131,116.5 130.1,115.9 125,104.4 126.1,103.9 			"/>
		</g>
		<g>
			<polygon points="149.5,114 150,114.5 150.1,115.1 131.5,117.1 131,116.5 131.4,115.9 			"/>
		</g>
		<g>
			<polygon points="153.3,96.2 153.9,95.9 154.5,96.3 150.8,113.9 150,114.5 149.5,114 			"/>
		</g>
		<g>
			<path d="M107.8,131.4h1.5l2.2,6.4l2.2-6.4h1.5v7.6h-1v-4.5c0-0.2,0-0.4,0-0.8c0-0.4,0-0.7,0-1.2l-2.2,6.4h-1l-2.2-6.4v0.2
				c0,0.2,0,0.5,0,0.8c0,0.4,0,0.7,0,0.8v4.5h-1V131.4z"/>
			<path d="M119.9,133.6c0.4,0.2,0.6,0.4,0.8,0.7c0.2,0.3,0.3,0.6,0.4,1c0.1,0.3,0.1,0.7,0.1,1.2h-4c0,0.6,0.1,1,0.4,1.4
				s0.6,0.5,1.1,0.5c0.5,0,0.9-0.2,1.2-0.5c0.2-0.2,0.3-0.4,0.3-0.6h0.9c0,0.2-0.1,0.4-0.2,0.7c-0.1,0.2-0.3,0.5-0.5,0.6
				c-0.3,0.3-0.6,0.5-1,0.6c-0.2,0.1-0.5,0.1-0.8,0.1c-0.7,0-1.3-0.3-1.7-0.8c-0.5-0.5-0.7-1.2-0.7-2.1c0-0.9,0.2-1.6,0.7-2.2
				c0.5-0.6,1.1-0.8,1.9-0.8C119.2,133.3,119.5,133.4,119.9,133.6z M120.2,135.7c0-0.4-0.1-0.7-0.3-1c-0.3-0.4-0.7-0.7-1.3-0.7
				c-0.4,0-0.8,0.2-1.1,0.5c-0.3,0.3-0.4,0.7-0.5,1.2H120.2z"/>
			<path d="M122.5,131.4h1.2l3.8,6.1v-6.1h1v7.6h-1.2l-3.8-6.1v6.1h-1V131.4z"/>
		</g>
		<g>
			<polygon points="128.9,129.8 127.6,129.6 130.3,117.3 131,116.5 131.5,117.1 			"/>
		</g>
		<g>
			<polygon points="143.5,143.9 143.7,145.4 130.5,137.8 131.1,136.8 			"/>
		</g>
		<g>
			<polygon points="157.3,131.5 158.1,132.4 143.7,145.4 143.5,143.9 			"/>
		</g>
		<g>
			<polygon points="151,118.3 152.1,117.8 152.7,118.9 151.3,119.5 			"/>
		</g>
		<g>
			<polygon points="152.5,123.2 154.8,122.2 155.4,123.2 152.8,124.4 			"/>
		</g>
		<g>
			<polygon points="153.9,128.1 157.4,126.6 158.1,127.6 154.3,129.3 			"/>
		</g>
		<g>
			<polygon points="183.1,166.2 183.1,167.6 166,157.8 167.2,157.1 			"/>
		</g>
		<g>
			<polygon points="183.4,162.9 182.8,163.9 169.4,156.2 170,155.1 			"/>
		</g>
		<g>
			<polygon points="199,157.1 200.2,157.8 183.1,167.6 183.1,166.2 			"/>
		</g>
		<g>
			<polygon points="199,138.7 199.6,138.4 200.2,138.7 200.2,157.8 199,157.1 			"/>
		</g>
		<g>
			<rect x="196" y="140.1" width="1.2" height="15.5"/>
		</g>
		<g>
			<polygon points="183.1,129.5 183.1,128.9 183.8,128.5 199.5,137.6 199.6,138.4 199,138.7 			"/>
		</g>
		<g>
			<polygon points="167.2,138.7 166,138 182.6,128.5 183.1,128.9 183.1,129.5 			"/>
		</g>
		<g>
			<polygon points="170,140.7 169.4,139.6 182.8,131.9 183.4,132.9 			"/>
		</g>
		<g>
			<polygon points="167.2,157.1 166,157.8 166,138 167.2,138.7 			"/>
		</g>
		<g>
			<path d="M210.7,121.8h1.2l3.8,6.1v-6.1h1v7.6h-1.2l-3.8-6.1v6.1h-1V121.8z"/>
			<path d="M218.4,121.8h1v3.1h3.9v-3.1h1v7.6h-1v-3.5h-3.9v3.5h-1V121.8z"/>
		</g>
		<g>
			<polygon points="208.7,129.4 209.5,130.2 200.2,138.7 199.6,138.4 199.5,137.6 			"/>
		</g>
		<g>
			<polygon points="205.6,108.9 206,108.2 206.7,108.2 211.8,119.7 210.7,120.2 			"/>
		</g>
		<g>
			<polygon points="187.6,110.8 187.1,110.2 187.5,109.6 205.5,107.7 206,108.2 205.6,108.9 			"/>
		</g>
		<g>
			<polygon points="183.8,128.5 183.1,128.9 182.6,128.5 186.3,110.9 187.1,110.2 187.6,110.8 			"/>
		</g>
		<g>
			<path d="M207,85.8h1.2l3.8,6.1v-6.1h1v7.6h-1.2l-3.8-6.1v6.1h-1V85.8z"/>
			<path d="M214.6,85.8h1.5l2.2,6.4l2.2-6.4h1.5v7.6h-1v-4.5c0-0.2,0-0.4,0-0.8c0-0.4,0-0.7,0-1.2l-2.2,6.4h-1l-2.2-6.4v0.2
				c0,0.2,0,0.5,0,0.8c0,0.4,0,0.7,0,0.8v4.5h-1V85.8z"/>
			<path d="M226.7,88c0.4,0.2,0.6,0.4,0.8,0.7c0.2,0.3,0.3,0.6,0.4,1c0.1,0.3,0.1,0.7,0.1,1.2h-4c0,0.6,0.1,1,0.4,1.4
				s0.6,0.5,1.1,0.5c0.5,0,0.9-0.2,1.2-0.5c0.2-0.2,0.3-0.4,0.3-0.6h0.9c0,0.2-0.1,0.4-0.2,0.7c-0.1,0.2-0.3,0.5-0.5,0.6
				c-0.3,0.3-0.6,0.5-1,0.6c-0.2,0.1-0.5,0.1-0.8,0.1c-0.7,0-1.3-0.3-1.7-0.8c-0.5-0.5-0.7-1.2-0.7-2.1c0-0.9,0.2-1.6,0.7-2.2
				c0.5-0.6,1.1-0.8,1.9-0.8C226,87.7,226.3,87.8,226.7,88z M227,90.2c0-0.4-0.1-0.7-0.3-1c-0.3-0.4-0.7-0.7-1.3-0.7
				c-0.4,0-0.8,0.2-1.1,0.5c-0.3,0.3-0.4,0.7-0.5,1.2H227z"/>
		</g>
		<g>
			<polygon points="208.2,95.1 209.4,95.4 206.7,108.2 206,108.2 205.5,107.7 			"/>
		</g>
		<g>
			<polygon points="193.5,80.8 193.4,79.3 205.1,86.1 204.5,87.1 			"/>
		</g>
		<g>
			<polygon points="181.2,91.9 177.4,93.7 193.4,79.3 193.5,80.8 			"/>
		</g>
		<g>
			<polygon points="187.5,109.6 187.1,110.2 186.1,109.7 177.4,93.7 181.2,91.9 			"/>
		</g>
		<g>
			<path d="M108.1,115.2h1v3.1h3.9v-3.1h1v7.6h-1v-3.5h-3.9v3.5h-1V115.2z"/>
		</g>
		<g>
			<polygon points="115.7,120.5 115.3,116.4 130.1,115.9 131,116.5 130.3,117.3 			"/>
		</g>
		<g>
			<path d="M222.2,101.6h1v3.1h3.9v-3.1h1v7.6h-1v-3.5h-3.9v3.5h-1V101.6z"/>
		</g>
		<g>
			<polygon points="220.4,104 221,108.1 219.8,108.1 219.2,104.3 			"/>
		</g>
		<g>
			<polygon points="215.7,105.4 216.1,108.2 214.9,108.2 214.5,105.7 			"/>
		</g>
		<g>
			<polygon points="210.9,106.7 211.1,108.2 209.9,108.3 209.7,107.1 			"/>
		</g>
		<g>
			<polygon points="150.1,115.1 150,114.5 150.8,113.9 186.1,109.7 187.1,110.2 186.3,110.9 			"/>
		</g>
		<g>
			<polygon points="202.1,161 203.9,157.3 205,158 203.2,161.4 			"/>
		</g>
		<g>
			<polygon points="206.7,162.6 208,160.1 209,160.8 207.9,163.1 			"/>
		</g>
		<g>
			<polygon points="211.4,164.3 212.1,162.9 213.1,163.6 212.6,164.7 			"/>
		</g>
	</g>
	<g>
		<path class="st0" d="M359.7,372.5l-2.2,10.4h-1.5l0.8-3.9c-0.8,0.9-1.8,1.5-3,1.5c-1.6,0-2.9-1.4-2.9-3.1c0-2.7,2.1-5.1,4.6-5.1
			c1.1,0,2,0.7,2.4,1.7l0.3-1.5H359.7z M357.5,375.6c0-1.1-0.9-2-2-2c-1.6,0-3.1,1.7-3.1,3.6c0,1.1,0.8,2,1.8,2
			C356,379.2,357.5,377.5,357.5,375.6z"/>
		<path class="st0" d="M368.8,372.5l-1.6,7.8h-1.5l0.2-1c-0.6,0.7-1.6,1.2-2.6,1.2c-1.5,0-2.4-1-2.4-2.4c0-0.6,0.1-1,1.1-5.6h1.5
			c-1,4.6-1,4.9-1,5.3c0,0.9,0.5,1.4,1.3,1.4c1.2,0,2.3-0.8,2.6-1.8l1-4.9H368.8z"/>
		<path class="st0" d="M378.6,372.5l-1.6,7.8h-1.5l0.3-1.3c-0.8,0.9-1.8,1.5-3,1.5c-1.6,0-2.9-1.4-2.9-3.1c0-2.7,2.1-5.1,4.6-5.1
			c1.1,0,2,0.7,2.4,1.7l0.3-1.5H378.6z M376.3,375.6c0-1.1-0.9-2-2-2c-1.6,0-3.1,1.7-3.1,3.6c0,1.1,0.8,2,1.8,2
			C374.9,379.2,376.3,377.5,376.3,375.6z"/>
		<path class="st0" d="M388.9,369.8l-2.2,10.6h-1.5l0.3-1.3c-0.8,0.9-1.8,1.5-3,1.5c-1.6,0-2.9-1.4-2.9-3.1c0-2.7,2.1-5.1,4.6-5.1
			c1.1,0,2,0.7,2.4,1.7l0.9-4.3H388.9z M386,376.5l0.1-0.3c0-0.2,0-0.4,0-0.6c0-1.1-0.9-2-2-2c-1.6,0-3.1,1.7-3.1,3.6
			c0,1.1,0.8,2,1.8,2C384.3,379.2,385.6,378,386,376.5z"/>
		<path class="st0" d="M395.1,372.3l-0.2,1.3c-1.6,0-3,1-3.4,2.3l-0.9,4.4H389l1.6-7.8h1.5l-0.3,1.4
			C392.6,372.9,393.7,372.3,395.1,372.3z"/>
		<path class="st0" d="M396.7,372.5h1.5l-1.6,7.8h-1.5L396.7,372.5z M396.9,370.4c0-0.5,0.5-1,1-1c0.5,0,0.8,0.4,0.8,0.8
			c0,0.5-0.5,1-1,1C397.2,371.2,396.9,370.8,396.9,370.4z"/>
		<path class="st0" d="M407.6,372.5l-1.5,7c-0.4,2.1-2.3,3.4-4.6,3.4c-1.3,0-2.5-0.5-3.1-1.1l0.7-1c0.5,0.5,1.3,0.8,2.3,0.8
			c1.7,0,2.9-0.9,3.2-2.2l0.2-1c-0.8,0.9-1.8,1.3-3,1.3c-1.8,0-2.9-1.2-2.9-3c0-2.3,1.9-4.4,4.3-4.4c1.3,0,2.2,0.6,2.6,1.5l0.3-1.3
			H407.6z M405.3,376.1l0.1-0.3c0-0.1,0-0.3,0-0.4c0-1.1-0.7-1.8-1.8-1.8c-1.7,0-3.1,1.4-3.1,3c0,1.1,0.7,1.8,1.8,1.8
			C403.8,378.4,405,377.4,405.3,376.1z"/>
		<path class="st0" d="M409.9,376.9v0.2c0,1.3,0.7,2,2,2c0.9,0,1.9-0.4,2.5-0.9l0.8,1.1c-0.8,0.7-2.3,1.2-3.4,1.2
			c-1.9,0-3.3-1.3-3.3-3.3c0-2.6,2.3-4.9,4.8-4.9c1.5,0,2.8,0.8,2.8,2.1c0,1.5-1.4,2.5-3.7,2.5H409.9z M410.2,375.7h2.4
			c1.3,0,2-0.4,2-1.1c0-0.6-0.6-1-1.5-1C411.8,373.6,410.7,374.5,410.2,375.7z"/>
		<path class="st0" d="M429.4,374.7c0,0.5-0.1,0.8-1.1,5.7h-1.5c1-4.7,1.1-5,1.1-5.3c0-0.9-0.4-1.4-1.3-1.4c-1,0-2.1,0.7-2.3,1.8
			c-0.1,0.6-0.4,1.9-1,4.9h-1.5c1-4.7,1.1-5,1.1-5.3c0-0.8-0.4-1.4-1.3-1.4c-1,0-2,0.7-2.3,1.7l-1.1,5h-1.5l1.6-7.8h1.5l-0.2,1
			c0.5-0.8,1.4-1.2,2.4-1.2c1.1,0,2,0.6,2.2,1.6c0.5-1,1.6-1.6,2.8-1.6C428.5,372.3,429.4,373.3,429.4,374.7z"/>
		<path class="st0" d="M432.1,372.5h1.5l-1.6,7.8h-1.5L432.1,372.5z M432.3,370.4c0-0.5,0.5-1,1-1c0.5,0,0.8,0.4,0.8,0.8
			c0,0.5-0.5,1-1,1C432.6,371.2,432.3,370.8,432.3,370.4z"/>
		<path class="st0" d="M442.1,374.7c0,0.6-0.1,1-1.1,5.6h-1.5c1-4.6,1-4.9,1-5.3c0-0.9-0.5-1.4-1.3-1.4c-1.2,0-2.3,0.8-2.6,1.8
			l-1,4.9h-1.5l1.6-7.8h1.5l-0.2,1c0.6-0.7,1.6-1.2,2.6-1.2C441.1,372.3,442.1,373.3,442.1,374.7z"/>
		<path class="st0" d="M444.9,376.9v0.2c0,1.3,0.7,2,2,2c0.9,0,1.9-0.4,2.5-0.9l0.8,1.1c-0.8,0.7-2.3,1.2-3.4,1.2
			c-1.9,0-3.3-1.3-3.3-3.3c0-2.6,2.3-4.9,4.8-4.9c1.5,0,2.8,0.8,2.8,2.1c0,1.5-1.4,2.5-3.7,2.5H444.9z M445.2,375.7h2.4
			c1.3,0,2-0.4,2-1.1c0-0.6-0.6-1-1.5-1C446.8,373.6,445.7,374.5,445.2,375.7z"/>
		<path class="st0" d="M466.9,369.9l-2.2,10.4h-1.5l0.9-4.6h-5.7l-0.9,4.6h-1.5l2.2-10.4h1.5l-0.9,4.4h5.7l0.9-4.4H466.9z"/>
	</g>
	<g>
		<g>
			<polygon points="378.5,245.3 377.3,246 377.3,226.2 378.5,226.9 			"/>
		</g>
		<g>
			<rect x="380.4" y="228.3" width="1.2" height="15.5"/>
		</g>
		<g>
			<polygon points="394.4,254.4 394.4,255.8 377.3,246 378.5,245.3 			"/>
		</g>
		<g>
			<polygon points="410.3,245.3 410.9,245.6 411,246.3 394.4,255.8 394.4,254.4 			"/>
		</g>
		<g>
			<polygon points="407.6,243.3 408.2,244.4 394.7,252.2 394.1,251.1 			"/>
		</g>
		<g>
			<polygon points="410.3,226.9 410.9,226.6 411.5,227 411.5,245.2 410.9,245.6 410.3,245.3 			"/>
		</g>
		<g>
			<polygon points="394.4,217.7 394.4,216.3 411,225.9 410.9,226.6 410.3,226.9 			"/>
		</g>
		<g>
			<polygon points="394.1,221.1 394.7,220 408.2,227.8 407.6,228.9 			"/>
		</g>
		<g>
			<polygon points="378.5,226.9 377.3,226.2 394.4,216.3 394.4,217.7 			"/>
		</g>
		<g>
			<path d="M426,247.7h1.2l3.8,6.1v-6.1h1v7.6h-1.2l-3.8-6.1v6.1h-1V247.7z"/>
		</g>
		<g>
			<path d="M426,256.5h1v3.1h3.9v-3.1h1v7.6h-1v-3.5h-3.9v3.5h-1V256.5z"/>
		</g>
		<g>
			<polygon points="424.1,249.3 423.7,250.4 411,246.3 410.9,245.6 411.5,245.2 			"/>
		</g>
		<g>
			<polygon points="439.5,236.1 440.2,236.1 440.6,236.6 433.2,246.7 432.3,246 			"/>
		</g>
		<g>
			<polygon points="428.8,221.4 429,220.7 429.8,220.7 440.5,235.4 440.2,236.1 439.5,236.1 			"/>
		</g>
		<g>
			<polygon points="411.5,227 410.9,226.6 411,225.9 428.6,220.2 429,220.7 428.8,221.4 			"/>
		</g>
		<g>
			<path d="M455.3,226.4h1.2l3.8,6.1v-6.1h1v7.6h-1.2l-3.8-6.1v6.1h-1V226.4z"/>
			<path d="M462.9,226.4h1.5l2.2,6.4l2.2-6.4h1.5v7.6h-1v-4.5c0-0.2,0-0.4,0-0.8s0-0.7,0-1.2l-2.2,6.4h-1l-2.2-6.4v0.2
				c0,0.2,0,0.5,0,0.9c0,0.4,0,0.7,0,0.8v4.5h-1V226.4z"/>
			<path d="M475.1,228.6c0.4,0.2,0.6,0.4,0.8,0.7c0.2,0.3,0.3,0.6,0.4,1c0.1,0.3,0.1,0.7,0.1,1.2h-4c0,0.6,0.1,1,0.4,1.4
				c0.2,0.3,0.6,0.5,1.1,0.5c0.5,0,0.9-0.2,1.2-0.5c0.2-0.2,0.3-0.4,0.3-0.6h0.9c0,0.2-0.1,0.4-0.2,0.7c-0.1,0.2-0.3,0.5-0.5,0.6
				c-0.3,0.3-0.6,0.5-1,0.6c-0.2,0.1-0.5,0.1-0.8,0.1c-0.7,0-1.3-0.3-1.7-0.8c-0.5-0.5-0.7-1.2-0.7-2.1c0-0.9,0.2-1.6,0.7-2.2
				c0.5-0.6,1.1-0.8,1.9-0.8C474.3,228.4,474.7,228.5,475.1,228.6z M475.4,230.8c0-0.4-0.1-0.7-0.3-1c-0.3-0.4-0.7-0.7-1.3-0.7
				c-0.4,0-0.8,0.2-1.1,0.5c-0.3,0.3-0.4,0.7-0.5,1.2H475.4z"/>
		</g>
		<g>
			<polygon points="453.1,231.3 453.4,232.4 440.6,236.6 440.2,236.1 440.5,235.4 			"/>
		</g>
		<g>
			<polygon points="457.7,211.6 458.9,210.8 458.9,224.8 457.7,224.8 			"/>
		</g>
		<g>
			<polygon points="441.9,206.5 438.5,204.1 458.9,210.8 457.7,211.6 			"/>
		</g>
		<g>
			<polygon points="429.8,220.7 429,220.7 428.6,220.2 438.5,204.1 441.9,206.5 			"/>
		</g>
		<g>
			<path d="M448.5,247h1v3.1h3.9V247h1v7.6h-1v-3.5h-3.9v3.5h-1V247z"/>
		</g>
		<g>
			<polygon points="449.3,244.5 446,247 445.4,245.9 448.3,243.7 			"/>
		</g>
		<g>
			<polygon points="443.9,239.6 442.6,240.6 442.1,239.5 443,238.8 			"/>
		</g>
		<g>
			<polygon points="395,270.4 393.8,270.4 393.7,269.2 395.2,269.2 			"/>
		</g>
		<g>
			<polygon points="395.7,265.3 393.1,265.3 393,264.1 395.8,264.1 			"/>
		</g>
		<g>
			<polygon points="396.3,260.2 392.5,260.2 392.3,259 396.5,259 			"/>
		</g>
		<g>
			<path d="M409.5,295.3h1.2l3.8,6.1v-6.1h1v7.6h-1.2l-3.8-6.1v6.1h-1V295.3z"/>
		</g>
		<g>
			<path d="M409.5,304.1h1.5l2.2,6.4l2.2-6.4h1.5v7.6h-1v-4.5c0-0.2,0-0.4,0-0.8c0-0.4,0-0.7,0-1.2l-2.2,6.4h-1l-2.2-6.4v0.2
				c0,0.2,0,0.5,0,0.9c0,0.4,0,0.7,0,0.8v4.5h-1V304.1z"/>
			<path d="M421.6,306.4c0.4,0.2,0.6,0.4,0.8,0.7c0.2,0.3,0.3,0.6,0.4,1c0.1,0.3,0.1,0.7,0.1,1.2h-4c0,0.6,0.1,1,0.4,1.4
				c0.2,0.3,0.6,0.5,1.1,0.5c0.5,0,0.9-0.2,1.2-0.5c0.2-0.2,0.3-0.4,0.3-0.6h0.9c0,0.2-0.1,0.4-0.2,0.7c-0.1,0.2-0.3,0.5-0.5,0.6
				c-0.3,0.3-0.6,0.5-1,0.6c-0.2,0.1-0.5,0.1-0.8,0.1c-0.7,0-1.3-0.3-1.7-0.8c-0.5-0.5-0.7-1.2-0.7-2.1c0-0.9,0.2-1.6,0.7-2.2
				c0.5-0.6,1.1-0.8,1.9-0.8C420.9,306.1,421.3,306.2,421.6,306.4z M422,308.5c0-0.4-0.1-0.7-0.3-1c-0.3-0.4-0.7-0.7-1.3-0.7
				c-0.4,0-0.8,0.2-1.1,0.5c-0.3,0.3-0.4,0.7-0.5,1.2H422z"/>
		</g>
		<g>
			<polygon points="395,292.8 394.4,293.2 393.8,292.8 393.8,274.6 394.4,274.2 395,274.6 			"/>
		</g>
		<g>
			<polygon points="407.7,296.9 407.3,298 394.4,293.9 394.4,293.2 395,292.8 			"/>
		</g>
		<g>
			<polygon points="423,283.7 424.5,283.7 416.8,294.3 415.8,293.6 			"/>
		</g>
		<g>
			<polygon points="413.2,270.3 411.8,266.3 424.5,283.7 423,283.7 			"/>
		</g>
		<g>
			<polygon points="395,274.6 394.4,274.2 394.4,273.6 411.8,266.3 413.2,270.3 			"/>
		</g>
		<g>
			<path d="M373.3,295.3h1.2l3.8,6.1v-6.1h1v7.6h-1.2l-3.8-6.1v6.1h-1V295.3z"/>
		</g>
		<g>
			<path d="M373.3,304.1h1v3.1h3.9v-3.1h1v7.6h-1v-3.5h-3.9v3.5h-1V304.1z"/>
		</g>
		<g>
			<polygon points="376.5,269 376.3,268.3 376.7,267.8 394.4,273.6 394.4,274.2 393.8,274.6 			"/>
		</g>
		<g>
			<polygon points="365.9,283.7 365.1,283.7 364.8,283.1 375.6,268.2 376.3,268.3 376.5,269 			"/>
		</g>
		<g>
			<polygon points="364.2,280.8 363.2,280.1 372.3,267.6 373.3,268.3 			"/>
		</g>
		<g>
			<polygon points="373,293.6 372.1,294.3 364.8,284.3 365.1,283.7 365.9,283.7 			"/>
		</g>
		<g>
			<polygon points="393.8,292.8 394.4,293.2 394.4,293.9 381.5,298 381.2,296.9 			"/>
		</g>
		<g>
			<polygon points="368.1,251.4 369,250.4 376.7,267.8 376.3,268.3 375.6,268.2 			"/>
		</g>
		<g>
			<polygon points="349.9,249.6 349.3,248.3 369,250.4 368.1,251.4 			"/>
		</g>
		<g>
			<polygon points="351,252.7 351.1,251.5 366.5,253.1 366.4,254.4 			"/>
		</g>
		<g>
			<polygon points="339.1,264.4 337.7,264.3 349.3,248.3 349.9,249.6 			"/>
		</g>
		<g>
			<polygon points="346.6,281.1 345.8,282.3 337.7,264.3 339.1,264.4 			"/>
		</g>
		<g>
			<polygon points="348.8,278.6 347.7,279.1 341.4,264.9 342.5,264.4 			"/>
		</g>
		<g>
			<polygon points="364.8,283.1 365.1,283.7 364.8,284.3 345.8,282.3 346.6,281.1 			"/>
		</g>
		<g>
			<path d="M391.4,308.5h1v3.1h3.9v-3.1h1v7.6h-1v-3.5h-3.9v3.5h-1V308.5z"/>
		</g>
		<g>
			<polygon points="396.5,306.9 392.3,306.9 392.5,305.7 396.3,305.7 			"/>
		</g>
		<g>
			<polygon points="395.9,302.6 393,302.6 393.2,301.4 395.7,301.4 			"/>
		</g>
		<g>
			<polygon points="395.2,298.3 393.6,298.3 393.8,297.1 395,297.1 			"/>
		</g>
		<g>
			<polygon points="428,189.9 428.7,189.9 429.1,190.5 419.6,207 418.9,205.8 			"/>
		</g>
		<g>
			<polygon points="424.7,189.6 425.8,190.2 418,203.6 416.9,203 			"/>
		</g>
		<g>
			<polygon points="418.9,174 419.2,173.4 420,173.5 429,189.2 428.7,189.9 428,189.9 			"/>
		</g>
		<g>
			<polygon points="400.5,174 399.8,172.8 419,172.8 419.2,173.4 418.9,174 			"/>
		</g>
		<g>
			<rect x="401.9" y="175.9" width="15.5" height="1.2"/>
		</g>
		<g>
			<polygon points="391.4,189.9 390,189.9 399.8,172.8 400.5,174 			"/>
		</g>
		<g>
			<polygon points="400.5,205.8 399.8,207 390,189.9 391.4,189.9 			"/>
		</g>
		<g>
			<polygon points="402.4,203 401.4,203.6 393.6,190.2 394.7,189.6 			"/>
		</g>
		<g>
			<polygon points="418.9,205.8 419.6,207 399.8,207 400.5,205.8 			"/>
		</g>
		<g>
			<path d="M444.3,182.2h1.2l3.8,6.1v-6.1h1v7.6h-1.2l-3.8-6.1v6.1h-1V182.2z"/>
			<path d="M452,182.2h1v3.1h3.9v-3.1h1v7.6h-1v-3.5H453v3.5h-1V182.2z"/>
		</g>
		<g>
			<polygon points="442.3,186.4 442.6,187.6 429.1,190.5 428.7,189.9 429,189.2 			"/>
		</g>
		<g>
			<polygon points="448.7,167.4 449.4,167 449.9,167.3 448.5,180.7 447.3,180.6 			"/>
		</g>
		<g>
			<polygon points="432.1,160 431.9,159.2 432.6,158.9 449.2,166.3 449.4,167 448.7,167.4 			"/>
		</g>
		<g>
			<polygon points="420,173.5 419.2,173.4 419,172.8 430.9,159.5 431.9,159.2 432.1,160 			"/>
		</g>
		<g>
			<path d="M459.1,149.1h1.2l3.8,6.1v-6.1h1v7.6h-1.2l-3.8-6.1v6.1h-1V149.1z"/>
			<path d="M466.7,149.1h1.5l2.2,6.4l2.2-6.4h1.5v7.6h-1v-4.5c0-0.2,0-0.4,0-0.8c0-0.4,0-0.7,0-1.2l-2.2,6.4h-1l-2.2-6.4v0.2
				c0,0.2,0,0.5,0,0.8c0,0.4,0,0.7,0,0.8v4.5h-1V149.1z"/>
			<path d="M478.8,151.3c0.4,0.2,0.6,0.4,0.8,0.7c0.2,0.3,0.3,0.6,0.4,1c0.1,0.3,0.1,0.7,0.1,1.2h-4c0,0.6,0.1,1,0.4,1.4
				s0.6,0.5,1.1,0.5c0.5,0,0.9-0.2,1.2-0.5c0.2-0.2,0.3-0.4,0.3-0.6h0.9c0,0.2-0.1,0.4-0.2,0.7c-0.1,0.2-0.3,0.5-0.5,0.6
				c-0.3,0.3-0.6,0.5-1,0.6c-0.2,0.1-0.5,0.1-0.8,0.1c-0.7,0-1.3-0.3-1.7-0.8c-0.5-0.5-0.7-1.2-0.7-2.1c0-0.9,0.2-1.6,0.7-2.2
				s1.1-0.8,1.9-0.8C478.1,151,478.5,151.1,478.8,151.3z M479.2,153.4c0-0.4-0.1-0.7-0.3-1c-0.3-0.4-0.7-0.7-1.3-0.7
				c-0.4,0-0.8,0.2-1.1,0.5c-0.3,0.3-0.4,0.7-0.5,1.2H479.2z"/>
		</g>
		<g>
			<polygon points="457.4,157.1 458.3,157.9 449.9,167.3 449.4,167 449.2,166.3 			"/>
		</g>
		<g>
			<polygon points="452.3,137 452.9,135.7 459.5,147.1 458.4,147.7 			"/>
		</g>
		<g>
			<polygon points="436,140.5 431.9,140.1 452.9,135.7 452.3,137 			"/>
		</g>
		<g>
			<polygon points="432.6,158.9 431.9,159.2 431.4,158.4 431.9,140.1 436,140.5 			"/>
		</g>
		<g>
			<path d="M463.7,170.9h1v3.1h3.9v-3.1h1v7.6h-1V175h-3.9v3.5h-1V170.9z"/>
		</g>
		<g>
			<polygon points="462.2,170.5 460.5,174.2 459.5,173.6 461,170.1 			"/>
		</g>
		<g>
			<polygon points="458.2,169.4 457.1,172 456.1,171.3 457,169.1 			"/>
		</g>
		<g>
			<polygon points="454.3,168.3 453.6,169.8 452.6,169.1 453.1,168 			"/>
		</g>
		<g>
			<polygon points="436.3,114 437.7,114 427.8,131.1 427.1,129.9 			"/>
		</g>
		<g>
			<polygon points="432.9,113.7 434,114.3 426.2,127.8 425.1,127.2 			"/>
		</g>
		<g>
			<polygon points="427.1,98.1 427.8,96.9 437.7,114 436.3,114 			"/>
		</g>
		<g>
			<polygon points="408.7,98.1 408,96.9 427.8,96.9 427.1,98.1 			"/>
		</g>
		<g>
			<rect x="410.1" y="100" width="15.5" height="1.2"/>
		</g>
		<g>
			<polygon points="399.6,114 398.9,114 398.5,113.5 408,96.9 408.7,98.1 			"/>
		</g>
		<g>
			<polygon points="408.7,129.9 408.4,130.5 407.7,130.5 398.6,114.7 398.9,114 399.6,114 			"/>
		</g>
		<g>
			<polygon points="410.7,127.2 409.6,127.8 401.9,114.3 402.9,113.7 			"/>
		</g>
		<g>
			<polygon points="427.1,129.9 427.8,131.1 408.7,131.1 408.4,130.5 408.7,129.9 			"/>
		</g>
		<g>
			<path d="M368,114.2h1v3.1h3.9v-3.1h1v7.6h-1v-3.5H369v3.5h-1V114.2z"/>
			<path d="M375.6,114.2h1.2l3.8,6.1v-6.1h1v7.6h-1.2l-3.8-6.1v6.1h-1V114.2z"/>
		</g>
		<g>
			<polygon points="383.6,117.9 383.4,116.7 398.5,113.5 398.9,114 398.6,114.7 			"/>
		</g>
		<g>
			<polygon points="378.9,136.5 378.3,136.9 377.8,135.9 379.1,123.1 380.3,123.3 			"/>
		</g>
		<g>
			<polygon points="395.5,143.9 395.7,144.7 395.4,145.2 378.4,137.7 378.3,136.9 378.9,136.5 			"/>
		</g>
		<g>
			<polygon points="407.7,130.5 408.4,130.5 408.7,131.1 396.7,144.4 395.7,144.7 395.5,143.9 			"/>
		</g>
		<g>
			<path d="M346.2,147.3h1.5l2.2,6.4l2.2-6.4h1.5v7.6h-1v-4.5c0-0.2,0-0.4,0-0.8c0-0.4,0-0.7,0-1.2l-2.2,6.4h-1l-2.2-6.4v0.2
				c0,0.2,0,0.5,0,0.8c0,0.4,0,0.7,0,0.8v4.5h-1V147.3z"/>
			<path d="M358.3,149.5c0.4,0.2,0.6,0.4,0.8,0.7c0.2,0.3,0.3,0.6,0.4,1c0.1,0.3,0.1,0.7,0.1,1.2h-4c0,0.6,0.1,1,0.4,1.4
				s0.6,0.5,1.1,0.5c0.5,0,0.9-0.2,1.2-0.5c0.2-0.2,0.3-0.4,0.3-0.6h0.9c0,0.2-0.1,0.4-0.2,0.7c-0.1,0.2-0.3,0.5-0.5,0.6
				c-0.3,0.3-0.6,0.5-1,0.6c-0.2,0.1-0.5,0.1-0.8,0.1c-0.7,0-1.3-0.3-1.7-0.8c-0.5-0.5-0.7-1.2-0.7-2.1c0-0.9,0.2-1.6,0.7-2.2
				s1.1-0.8,1.9-0.8C357.6,149.2,358,149.3,358.3,149.5z M358.7,151.7c0-0.4-0.1-0.7-0.3-1c-0.3-0.4-0.7-0.7-1.3-0.7
				c-0.4,0-0.8,0.2-1.1,0.5c-0.3,0.3-0.4,0.7-0.5,1.2H358.7z"/>
			<path d="M360.9,147.3h1.2l3.8,6.1v-6.1h1v7.6h-1.2l-3.8-6.1v6.1h-1V147.3z"/>
		</g>
		<g>
			<polygon points="369.5,147.6 368.6,146.8 377.2,137.2 378.3,136.9 378.4,137.7 			"/>
		</g>
		<g>
			<polygon points="375.3,166.9 374.7,168.3 367.7,156.1 368.8,155.5 			"/>
		</g>
		<g>
			<polygon points="393.5,163 393.8,164.2 374.7,168.3 375.3,166.9 			"/>
		</g>
		<g>
			<polygon points="394.7,148.4 395.9,148.6 395.9,149.8 394.4,149.6 			"/>
		</g>
		<g>
			<polygon points="393.5,153.4 396,153.7 396,154.9 393.2,154.6 			"/>
		</g>
		<g>
			<polygon points="392.3,158.4 396.1,158.8 396.1,160 392,159.6 			"/>
		</g>
		<g>
			<polygon points="395.4,145.2 395.7,144.7 396.7,144.4 431.4,158.4 431.9,159.2 430.9,159.5 			"/>
		</g>
		<g>
			<path d="M357,124.5h1v3.1h3.9v-3.1h1v7.6h-1v-3.5h-3.9v3.5h-1V124.5z"/>
		</g>
		<g>
			<polygon points="364.3,132.6 366.1,128.9 377.8,135.9 378.3,136.9 377.2,137.2 			"/>
		</g>
		<g>
			<polygon points="419.7,210.7 423.1,208.4 423.6,209.5 420.5,211.6 			"/>
		</g>
		<g>
			<polygon points="422.6,213.8 425,212.2 425.5,213.4 423.4,214.8 			"/>
		</g>
		<g>
			<polygon points="425.5,217 426.8,216.1 427.3,217.2 426.4,217.9 			"/>
		</g>
	</g>
</g>
</svg>
