<svg id="e-protein" version="1.1" xmlns="http://www.w3.org/2000/svg" xmlns:xlink="http://www.w3.org/1999/xlink" viewBox="0 0 404.8 410.3" xml:space="preserve">
<circle cx="202" cy="208" r="197.8" stroke="#959595" fill="none" stroke-width="9" style="stroke-dasharray: 1215 1600; stroke-dashoffset: 228; transform-origin: 50%; transform: rotate(-53deg);"></circle>
<g>
	<path d="M123.1,19.5l1.3,3.3l8.3-3.4l1.3,3.2l-8.3,3.4l1.5,3.6l9.2-3.7l1.3,3.2l-12.8,5.1l-6.7-16.6l12.8-5.2l1.3,3.2L123.1,19.5z"
		/>
	<path d="M135.4,11.7L144,9l0.7,2.1l-8.6,2.7L135.4,11.7z"/>
	<path d="M150.2,16.1l12.2-2.9l0.7,3.1l-12.2,2.9L150.2,16.1z"/>
	<path d="M164.9,3.5l7.9-1.2c3.8-0.6,7,1.5,7.5,5s-1.9,6.4-5.8,7l-4.2,0.6l0.8,5.7l-3.8,0.6L164.9,3.5z M173.7,10.8
		c1.9-0.3,3-1.4,2.8-3c-0.2-1.5-1.7-2.3-3.5-2l-3.8,0.6l0.7,5L173.7,10.8z"/>
	<path d="M195.5,18.2l-4.4-5.6l-2.8,0.2l0.3,5.8l-3.8,0.2l-1-17.8l8-0.4c3.9-0.2,6.9,2.1,7.1,5.7c0.1,2.6-1.4,4.8-3.7,5.8l4.7,6
		L195.5,18.2z M188.1,9.2l3.8-0.2c1.9-0.1,3.1-1.2,3.1-2.7s-1.4-2.4-3.3-2.3l-3.8,0.2L188.1,9.2z"/>
	<path d="M202.3,8.9c0.2-5,4.8-9,9.9-8.8c5.2,0.2,9.3,4.6,9.1,9.7c-0.2,5-4.7,9-9.9,8.8C206.2,18.4,202.1,13.9,202.3,8.9z
		 M217.3,9.6c0.1-3.1-2.3-5.9-5.3-6s-5.7,2.4-5.8,5.5s2.3,5.9,5.3,6C214.5,15.2,217.2,12.7,217.3,9.6z"/>
	<path d="M230.6,5.6L225,4.8l0.5-3.4l14.8,2.2L239.8,7l-5.5-0.8l-2.1,14.3l-3.8-0.6L230.6,5.6z"/>
	<path d="M247.6,8.7l-0.8,3.5l8.7,2.1l-0.8,3.4l-8.7-2.1l-0.9,3.8l9.6,2.3l-0.8,3.4l-13.4-3.2l4.2-17.4l13.4,3.2l-0.8,3.4L247.6,8.7
		z"/>
	<path d="M262.4,9l3.7,1.1l-5.3,17.1l-3.7-1.1L262.4,9z"/>
	<path d="M271.2,11.7l3.6,1.4l3.8,13.9l4.2-10.7l3.6,1.4l-6.5,16.6l-3.6-1.4L272.5,19l-4.2,10.7l-3.6-1.4L271.2,11.7z"/>
</g>
<image style="overflow:visible;" width="1367" height="1384" xlink:href="/wp-content/uploads/70633271C701F258.png"  transform="matrix(0.2381 0 0 0.2381 42.7832 51.0627)">
</image>
</svg>
