<?xml version="1.0" encoding="utf-8"?>
<!-- Generator: Adobe Illustrator 19.2.0, SVG Export Plug-In . SVG Version: 6.00 Build 0)  -->
<svg version="1.1" id="Layer_1" xmlns="http://www.w3.org/2000/svg" xmlns:xlink="http://www.w3.org/1999/xlink" x="0px" y="0px"
	 viewBox="0 0 320 618.5" style="enable-background:new 0 0 320 618.5;" xml:space="preserve">
<style type="text/css">
	.st0{fill:#EC9533;}
	.st1{font-family:'Metropolis-MediumItalic';}
	.st2{font-size:15.1149px;}
</style>
<g>
	<path d="M130.7,162.2c0.5,0.7,0.8,1.5,0.8,2.6s-0.3,2.1-0.9,2.8c-0.7,0.9-1.6,1.3-2.9,1.3c-1.2,0-2.1-0.4-2.8-1.2
		c-0.6-0.7-0.9-1.7-0.9-2.8c0-1,0.3-1.9,0.8-2.6c0.7-0.9,1.6-1.4,2.9-1.4C129.1,160.9,130.1,161.3,130.7,162.2z M129.8,167
		c0.4-0.6,0.6-1.4,0.6-2.2c0-0.9-0.2-1.6-0.7-2.2s-1.1-0.8-1.9-0.8c-0.8,0-1.4,0.3-1.9,0.8s-0.7,1.3-0.7,2.4c0,0.8,0.2,1.5,0.6,2.1
		s1.1,0.9,2.1,0.9C128.7,168,129.4,167.6,129.8,167z"/>
</g>
<g>
	<polygon points="95.4,164.5 94.8,164.9 94.2,164.4 94.2,146.3 94.8,145.8 95.4,146.2 	"/>
</g>
<g>
	<polygon points="111.3,173.7 111.3,174.4 111,174.9 95.5,166 94.8,164.9 95.4,164.5 	"/>
</g>
<g>
	<polygon points="122.8,167.1 123.4,168.1 112.7,174.3 111.3,174.4 111.3,173.7 	"/>
</g>
<g>
	<polygon points="127.1,146.2 127.8,145.8 128.4,147.1 128.4,159.3 127.1,159.3 	"/>
</g>
<g>
	<polygon points="111.3,137 111.3,136.3 112.5,136.3 127,144.7 127.8,145.8 127.1,146.2 	"/>
</g>
<g>
	<polygon points="95.4,146.2 94.8,145.8 95.6,144.7 111,135.8 111.3,136.3 111.3,137 	"/>
</g>
<g>
	<polygon points="76.9,140.7 76.4,139.2 94.1,145 94.8,145.8 94.2,146.3 	"/>
</g>
<g>
	<polygon points="66.2,155.4 64.7,155.4 76.4,139.2 76.9,140.7 	"/>
</g>
<g>
	<polygon points="76.9,170.1 76.6,170.8 75.4,170.1 64.7,155.4 66.2,155.4 	"/>
</g>
<g>
	<polygon points="94.2,164.4 94.8,164.9 94,165.7 78,171 76.6,170.8 76.9,170.1 	"/>
</g>
<g>
	<polygon points="126.6,126.7 127.8,126.8 127.8,127.5 112.5,136.3 111.3,136.3 111,135.8 	"/>
</g>
<g>
	<polygon points="142.2,135.9 144.2,136.3 144.2,137.9 128.4,147.1 127.8,145.8 127,144.7 	"/>
</g>
<g>
	<polygon points="144.7,135.9 144.2,136.3 142.2,135.9 127.8,127.5 127.8,126.8 128.6,126.6 	"/>
</g>
<g>
	<path d="M113.8,112.1h1v3.1h3.9v-3.1h1v7.6h-1v-3.5h-3.9v3.5h-1V112.1z"/>
</g>
<g>
	<polygon points="119.8,121.8 122.7,118.8 127.7,125.7 127.8,126.8 126.6,126.7 	"/>
</g>
<g>
	<polygon points="136.6,110.3 137.3,110.3 137.6,110.9 128.6,126.6 127.8,126.8 127.7,125.7 	"/>
</g>
<g>
	<rect x="102.6" y="123" transform="matrix(0.8682 -0.4961 0.4961 0.8682 -47.6331 67.8402)" width="2.7" height="1.2"/>
</g>
<g>
	<polygon points="105,128.2 107.4,126.9 108,127.9 105.6,129.3 	"/>
</g>
<g>
	<polygon points="107.6,132.6 109.9,131.2 110.5,132.3 108.2,133.7 	"/>
</g>
<g>
	<path d="M85.6,117.1c0.5,0.7,0.8,1.5,0.8,2.6s-0.3,2.1-0.9,2.8c-0.7,0.9-1.6,1.3-2.9,1.3c-1.2,0-2.1-0.4-2.8-1.2
		c-0.6-0.7-0.9-1.7-0.9-2.8c0-1,0.3-1.9,0.8-2.6c0.7-0.9,1.6-1.4,2.9-1.4C84,115.8,85,116.2,85.6,117.1z M84.7,121.9
		c0.4-0.6,0.6-1.4,0.6-2.2c0-0.9-0.2-1.6-0.7-2.2s-1.1-0.8-1.9-0.8s-1.4,0.3-1.9,0.8s-0.7,1.3-0.7,2.4c0,0.8,0.2,1.5,0.6,2.1
		s1.1,0.9,2.1,0.9C83.7,122.9,84.3,122.6,84.7,121.9z"/>
</g>
<g>
	<rect x="87.9" y="119.2" width="13.9" height="1.2"/>
</g>
<g>
	<polygon points="79.1,136.7 76.4,135.9 76.8,134.7 79.4,135.5 	"/>
</g>
<g>
	<polygon points="80.6,131.7 77.9,130.9 78.3,129.7 80.9,130.5 	"/>
</g>
<g>
	<rect x="80.3" y="124.3" transform="matrix(0.2873 -0.9578 0.9578 0.2873 -62.7215 167.124)" width="1.2" height="2.8"/>
</g>
<g>
	<path d="M114.2,100.6c0.5,0.7,0.8,1.5,0.8,2.6s-0.3,2.1-0.9,2.8c-0.7,0.9-1.6,1.3-2.9,1.3c-1.2,0-2.1-0.4-2.8-1.2
		c-0.6-0.7-0.9-1.7-0.9-2.8c0-1,0.3-1.9,0.8-2.6c0.7-0.9,1.6-1.4,2.9-1.4C112.6,99.3,113.6,99.8,114.2,100.6z M113.3,105.5
		c0.4-0.6,0.6-1.4,0.6-2.2c0-0.9-0.2-1.6-0.7-2.2s-1.1-0.8-1.9-0.8s-1.4,0.3-1.9,0.8s-0.7,1.3-0.7,2.4c0,0.8,0.2,1.5,0.6,2.1
		s1.1,0.9,2.1,0.9C112.2,106.4,112.9,106.1,113.3,105.5z"/>
</g>
<g>
	<polygon points="106.6,107.1 107.7,107.7 100.5,120.1 99.5,119.5 	"/>
</g>
<g>
	<polygon points="109.3,108.6 110.4,109.2 103.1,121.6 102.1,121 	"/>
</g>
<g>
	<path d="M92,126.5h1v3.1h4v-3.1h1v7.6h-1v-3.5h-3.9v3.5h-1L92,126.5L92,126.5z"/>
</g>
<g>
	<polygon points="92.9,135.5 97,135.6 95.6,144.7 94.8,145.8 94.1,145 	"/>
</g>
<g>
	<path d="M91.6,177.4h1v3.1h3.9v-3.1h1v7.6h-1v-3.5h-3.9v3.5h-1V177.4z"/>
</g>
<g>
	<polygon points="96.8,175.8 92.6,175.8 94,165.7 94.8,164.9 95.5,166 	"/>
</g>
<g>
	<path d="M58.6,185.1h1.5l2.2,6.4l2.2-6.4H66v7.6h-1v-4.5c0-0.2,0-0.4,0-0.8s0-0.7,0-1.2l-2.2,6.4h-1l-2.2-6.4v0.2
		c0,0.2,0,0.5,0,0.9s0,0.7,0,0.8v4.5h-1V185.1z"/>
	<path d="M70.7,187.3c0.4,0.2,0.6,0.4,0.8,0.7c0.2,0.3,0.3,0.6,0.4,1c0.1,0.3,0.1,0.7,0.1,1.2h-4c0,0.6,0.1,1,0.4,1.4
		c0.2,0.3,0.6,0.5,1.1,0.5s0.9-0.2,1.2-0.5c0.2-0.2,0.3-0.4,0.3-0.6h0.9c0,0.2-0.1,0.4-0.2,0.7c-0.1,0.2-0.3,0.5-0.5,0.6
		c-0.3,0.3-0.6,0.5-1,0.6c-0.2,0.1-0.5,0.1-0.8,0.1c-0.7,0-1.3-0.3-1.7-0.8c-0.5-0.5-0.7-1.2-0.7-2.1c0-0.9,0.2-1.6,0.7-2.2
		c0.5-0.6,1.1-0.8,1.9-0.8C70,187,70.4,187.1,70.7,187.3z M71.1,189.4c0-0.4-0.1-0.7-0.3-1c-0.3-0.4-0.7-0.7-1.3-0.7
		c-0.4,0-0.8,0.2-1.1,0.5c-0.3,0.3-0.4,0.7-0.5,1.2H71.1z"/>
</g>
<g>
	<polygon points="73.1,186.3 70.4,185.5 75.4,170.1 76.6,170.8 78,171 	"/>
</g>
<g>
	<path d="M98.7,187.1h1v3.1h3.9v-3.1h1v7.6h-1v-3.5h-3.9v3.5h-1V187.1z"/>
</g>
<g>
	<polygon points="106.7,186.5 103.1,184.4 103.9,183.4 107.1,185.3 	"/>
</g>
<g>
	<polygon points="108,182.8 105.6,181.4 106.3,180.4 108.5,181.7 	"/>
</g>
<g>
	<polygon points="109.4,179.2 108,178.4 108.8,177.4 109.9,178 	"/>
</g>
<g>
	<polygon points="152.5,154 151.2,153.9 144.2,137.9 144.2,136.3 144.7,135.9 	"/>
</g>
<g>
	<path d="M173.8,151.1c0.5,0.7,0.8,1.5,0.8,2.6s-0.3,2.1-0.9,2.8c-0.7,0.9-1.6,1.3-2.9,1.3c-1.2,0-2.1-0.4-2.8-1.2
		c-0.6-0.7-0.9-1.7-0.9-2.8c0-1,0.3-1.9,0.8-2.6c0.7-0.9,1.6-1.4,2.9-1.4C172.2,149.8,173.1,150.3,173.8,151.1z M172.9,156
		c0.4-0.6,0.6-1.4,0.6-2.2c0-0.9-0.2-1.6-0.7-2.2s-1.1-0.8-1.9-0.8c-0.8,0-1.4,0.3-1.9,0.8s-0.7,1.3-0.7,2.4c0,0.8,0.2,1.5,0.6,2.1
		c0.4,0.6,1.1,0.9,2.1,0.9C171.8,156.9,172.5,156.6,172.9,156z"/>
</g>
<g>
	<polygon points="165.6,151.7 165.6,152.9 151.2,153 151.2,151.8 	"/>
</g>
<g>
	<polygon points="165.7,154.8 165.7,156 151,156.1 151,154.9 	"/>
</g>
<g>
	<path d="M171.1,178.2c0.5,0.7,0.8,1.5,0.8,2.6s-0.3,2.1-0.9,2.8c-0.7,0.9-1.6,1.3-2.9,1.3c-1.2,0-2.1-0.4-2.8-1.2
		c-0.6-0.7-0.9-1.7-0.9-2.8c0-1,0.3-1.9,0.8-2.6c0.7-0.9,1.6-1.4,2.9-1.4C169.4,176.9,170.4,177.4,171.1,178.2z M170.2,183
		c0.4-0.6,0.6-1.4,0.6-2.2c0-0.9-0.2-1.6-0.7-2.2s-1.1-0.8-1.9-0.8c-0.8,0-1.4,0.3-1.9,0.8s-0.7,1.3-0.7,2.4c0,0.8,0.2,1.5,0.6,2.1
		c0.4,0.6,1.1,0.9,2.1,0.9C169.1,184,169.8,183.7,170.2,183z"/>
</g>
<g>
	<polygon points="151.6,186.8 150.4,187.9 150.1,187.3 157.2,171.4 158.3,170.6 158.6,171.3 	"/>
</g>
<g>
	<polygon points="163,182.3 163.4,183.5 150.5,188.6 150.4,187.9 151.6,186.8 	"/>
</g>
<g>
	<polygon points="186.6,183.7 186.9,184.3 187,185 173.1,182.4 173.3,181.3 	"/>
</g>
<g>
	<polygon points="193.6,168.1 194.8,167 195.2,167.7 188.1,183.2 186.9,184.3 186.6,183.7 	"/>
</g>
<g>
	<polygon points="177.2,174.6 177.1,174 178.3,172.9 194.8,166.4 194.8,167 193.6,168.1 	"/>
</g>
<g>
	<polygon points="158.6,171.3 158.3,170.6 158.3,170 176.7,173.3 177.1,174 177.2,174.6 	"/>
</g>
<g>
	<path d="M144.1,170.5c0.5,0.7,0.8,1.5,0.8,2.6s-0.3,2.1-0.9,2.8c-0.7,0.9-1.6,1.3-2.9,1.3c-1.2,0-2.1-0.4-2.8-1.2
		c-0.6-0.7-0.9-1.7-0.9-2.8c0-1,0.3-1.9,0.8-2.6c0.7-0.9,1.6-1.4,2.9-1.4C142.4,169.2,143.4,169.7,144.1,170.5z M143.1,175.4
		c0.4-0.6,0.6-1.4,0.6-2.2c0-0.9-0.2-1.6-0.7-2.2s-1.1-0.8-1.9-0.8c-0.8,0-1.4,0.3-1.9,0.8s-0.7,1.3-0.7,2.4c0,0.8,0.2,1.5,0.6,2.1
		c0.4,0.6,1.1,0.9,2.1,0.9C142.1,176.4,142.7,176,143.1,175.4z"/>
</g>
<g>
	<path d="M134.5,181.8c0.5,0.7,0.8,1.5,0.8,2.6s-0.3,2.1-0.9,2.8c-0.7,0.9-1.6,1.3-2.9,1.3c-1.2,0-2.1-0.4-2.8-1.2
		c-0.6-0.7-0.9-1.7-0.9-2.8c0-1,0.3-1.9,0.8-2.6c0.7-0.9,1.6-1.4,2.9-1.4C132.9,180.5,133.8,181,134.5,181.8z M133.6,186.7
		c0.4-0.6,0.6-1.4,0.6-2.2c0-0.9-0.2-1.6-0.7-2.2s-1.1-0.8-1.9-0.8c-0.8,0-1.4,0.3-1.9,0.8s-0.7,1.3-0.7,2.4c0,0.8,0.2,1.5,0.6,2.1
		c0.4,0.6,1.1,0.9,2.1,0.9C132.5,187.7,133.2,187.3,133.6,186.7z"/>
</g>
<g>
	<polygon points="146.3,173 146.1,171.9 158.2,170 158.3,170.6 157.2,171.4 	"/>
</g>
<g>
	<polygon points="150.1,187.3 150.4,187.9 150.5,188.6 136.6,186.1 136.8,184.9 	"/>
</g>
<g>
	<path d="M226.5,178c0.5,0.7,0.8,1.5,0.8,2.6s-0.3,2.1-0.9,2.8c-0.7,0.9-1.6,1.3-2.9,1.3c-1.2,0-2.1-0.4-2.8-1.2
		c-0.6-0.7-0.9-1.7-0.9-2.8c0-1,0.3-1.9,0.8-2.6c0.7-0.9,1.6-1.4,2.9-1.4C224.8,176.7,225.8,177.2,226.5,178z M225.6,182.9
		c0.4-0.6,0.6-1.4,0.6-2.2c0-0.9-0.2-1.6-0.7-2.2s-1.1-0.8-1.9-0.8c-0.8,0-1.4,0.3-1.9,0.8s-0.7,1.3-0.7,2.4c0,0.8,0.2,1.5,0.6,2.1
		c0.4,0.6,1.1,0.9,2.1,0.9C224.5,183.8,225.2,183.5,225.6,182.9z"/>
	<path d="M228.5,176.9h1v3.1h3.9v-3.1h1v7.6h-1V181h-3.9v3.5h-1V176.9z"/>
</g>
<g>
	<path d="M216.6,167.7c0.5,0.7,0.8,1.5,0.8,2.6s-0.3,2.1-0.9,2.8c-0.7,0.9-1.6,1.3-2.9,1.3c-1.2,0-2.1-0.4-2.8-1.2
		c-0.6-0.7-0.9-1.7-0.9-2.8c0-1,0.3-1.9,0.8-2.6c0.7-0.9,1.6-1.4,2.9-1.4C215,166.4,216,166.8,216.6,167.7z M215.7,172.5
		c0.4-0.6,0.6-1.4,0.6-2.2c0-0.9-0.2-1.6-0.7-2.2s-1.1-0.8-1.9-0.8c-0.8,0-1.4,0.3-1.9,0.8s-0.7,1.3-0.7,2.4c0,0.8,0.2,1.5,0.6,2.1
		c0.4,0.6,1.1,0.9,2.1,0.9C214.6,173.5,215.3,173.2,215.7,172.5z"/>
	<path d="M218.6,166.6h1v3.1h3.9v-3.1h1v7.6h-1v-3.5h-3.9v3.5h-1V166.6z"/>
</g>
<g>
	<polygon points="204.6,176.7 204.7,178 187,185 186.9,184.3 188.1,183.2 	"/>
</g>
<g>
	<polygon points="218.5,179.2 218.2,180.4 204.7,178 204.6,176.7 	"/>
</g>
<g>
	<polygon points="195.2,167.7 194.8,167 194.8,166.4 208.6,168.8 208.4,170.1 	"/>
</g>
<g>
	<path d="M187.9,154c0.5,0.7,0.8,1.5,0.8,2.6s-0.3,2.1-0.9,2.8c-0.7,0.9-1.6,1.3-2.9,1.3c-1.2,0-2.1-0.4-2.8-1.2
		c-0.6-0.7-0.9-1.7-0.9-2.8c0-1,0.3-1.9,0.8-2.6c0.7-0.9,1.6-1.4,2.9-1.4C186.3,152.7,187.3,153.1,187.9,154z M187,158.8
		c0.4-0.6,0.6-1.4,0.6-2.2c0-0.9-0.2-1.6-0.7-2.2s-1.1-0.8-1.9-0.8c-0.8,0-1.4,0.3-1.9,0.8s-0.7,1.3-0.7,2.4c0,0.8,0.2,1.5,0.6,2.1
		c0.4,0.6,1.1,0.9,2.1,0.9C186,159.8,186.6,159.4,187,158.8z"/>
	<path d="M189.9,152.9h1v3.1h3.9v-3.1h1v7.6h-1V157H191v3.5h-1v-7.6H189.9z"/>
</g>
<g>
	<polygon points="178.3,172.9 177.1,174 176.7,173.3 182.1,161.4 183.2,161.9 	"/>
</g>
<g>
	<polygon points="127.7,180.3 125.8,184 111,174.9 111.3,174.4 112.7,174.3 	"/>
</g>
<g>
	<polygon points="144.4,168.6 143.3,168.1 151.2,153.9 152.5,154 	"/>
</g>
<g>
	<path d="M158.9,122.3h1v3.1h3.9v-3.1h1v7.6h-1v-3.5h-3.9v3.5h-1V122.3z"/>
</g>
<g>
	<polygon points="155.7,127.3 157.8,130.9 156.6,131.4 154.7,128.1 	"/>
</g>
<g>
	<polygon points="152,130.2 153.4,132.7 152.3,133.1 151,131 	"/>
</g>
<g>
	<polygon points="148.2,133.1 149,134.5 147.9,134.9 147.3,133.9 	"/>
</g>
<g>
	<polygon points="156,109.7 156.7,110.9 137.6,110.9 137.3,110.3 137.6,109.7 	"/>
</g>
<g>
	<rect x="139" y="106.6" width="15.5" height="1.2"/>
</g>
<g>
	<polygon points="165.1,93.8 166.5,93.8 156.7,110.9 156,109.7 	"/>
</g>
<g>
	<polygon points="156,77.9 156.3,77.3 157,77.3 166.5,93.8 165.1,93.8 	"/>
</g>
<g>
	<polygon points="154,80.6 155.1,80 162.8,93.5 161.8,94.1 	"/>
</g>
<g>
	<polygon points="137.6,77.9 136.9,76.7 156,76.7 156.3,77.3 156,77.9 	"/>
</g>
<g>
	<polygon points="128.5,93.8 127.1,93.8 136.9,76.7 137.6,77.9 	"/>
</g>
<g>
	<polygon points="131.8,94.1 130.8,93.5 138.5,80 139.6,80.6 	"/>
</g>
<g>
	<polygon points="137.6,109.7 137.3,110.3 136.6,110.3 127.1,93.8 128.5,93.8 	"/>
</g>
<g>
	<path d="M168.8,58.1c0.5,0.7,0.8,1.5,0.8,2.6s-0.3,2.1-0.9,2.8c-0.7,0.9-1.6,1.3-2.9,1.3c-1.2,0-2.1-0.4-2.8-1.2
		c-0.6-0.7-0.9-1.7-0.9-2.8c0-1,0.3-1.9,0.8-2.6c0.7-0.9,1.6-1.4,2.9-1.4C167.2,56.8,168.2,57.3,168.8,58.1z M167.9,63
		c0.4-0.6,0.6-1.4,0.6-2.2c0-0.9-0.2-1.6-0.7-2.2s-1.1-0.8-1.9-0.8c-0.8,0-1.4,0.3-1.9,0.8s-0.7,1.3-0.7,2.4c0,0.8,0.2,1.5,0.6,2.1
		c0.4,0.6,1.1,0.9,2.1,0.9C166.8,63.9,167.5,63.6,167.9,63z"/>
	<path d="M170.8,57h1v3.1h3.9V57h1v7.6h-1v-3.5h-3.9v3.5h-1V57z"/>
</g>
<g>
	<polygon points="162.6,65.3 163.6,65.9 157,77.3 156.3,77.3 156,76.7 	"/>
</g>
<g>
	<path class="st0" d="M97.6,231.9h1.5l-2.2,10.6h-1.5L97.6,231.9z"/>
	<path class="st0" d="M100.7,234.7h1.5l-1.6,7.8H99L100.7,234.7z M100.9,232.5c0-0.5,0.5-1,1-1s0.8,0.4,0.8,0.8c0,0.5-0.5,1-1,1
		C101.2,233.4,100.9,233,100.9,232.5z"/>
	<path class="st0" d="M106.1,235.9c-1,4.8-1,4.7-1,4.8c0,0.4,0.2,0.6,0.5,0.6c0.4,0,0.8-0.2,0.9-0.3l0.4,1.1
		c-0.5,0.3-1.1,0.5-1.6,0.5c-1,0-1.7-0.7-1.7-1.7c0-0.4,0.1-0.7,1-5h-1.2l0.3-1.3h1.2l0.5-2.1h1.5l-0.5,2.1h1.8l-0.3,1.3
		L106.1,235.9L106.1,235.9z"/>
	<path class="st0" d="M111.9,235.9c-1,4.8-1,4.7-1,4.8c0,0.4,0.2,0.6,0.5,0.6c0.4,0,0.8-0.2,0.9-0.3l0.4,1.1
		c-0.5,0.3-1.1,0.5-1.6,0.5c-1,0-1.7-0.7-1.7-1.7c0-0.4,0.1-0.7,1-5h-1.2l0.3-1.3h1.2l0.5-2.1h1.5l-0.5,2.1h1.8l-0.3,1.3
		L111.9,235.9L111.9,235.9z"/>
	<path class="st0" d="M114.6,239.3c0-2.6,2.3-4.8,5-4.8c1.9,0,3.4,1.5,3.4,3.4c0,2.6-2.3,4.8-5,4.8
		C116.1,242.7,114.6,241.1,114.6,239.3z M121.5,237.9c0-1.2-1-2.1-2.1-2.1c-1.8,0-3.3,1.6-3.3,3.4c0,1.2,0.9,2.1,2.1,2.1
		C119.9,241.4,121.5,239.8,121.5,237.9z"/>
	<path class="st0" d="M129.9,234.5l-0.2,1.3c-1.6,0-3,1-3.4,2.3l-0.9,4.4h-1.5l1.6-7.8h1.5l-0.3,1.4
		C127.4,235.1,128.6,234.5,129.9,234.5z"/>
	<path class="st0" d="M139.1,234.7l-1.6,7.8H136l0.3-1.3c-0.8,0.9-1.8,1.5-3,1.5c-1.6,0-2.9-1.4-2.9-3.1c0-2.7,2.1-5.1,4.6-5.1
		c1.1,0,2,0.7,2.4,1.7l0.3-1.5L139.1,234.7L139.1,234.7z M136.9,237.7c0-1.1-0.9-2-2-2c-1.6,0-3.1,1.7-3.1,3.6c0,1.1,0.8,2,1.8,2
		C135.4,241.4,136.9,239.7,136.9,237.7z"/>
	<path class="st0" d="M141.9,231.9h1.5l-2.2,10.6h-1.5L141.9,231.9z"/>
	<path class="st0" d="M145,234.7h1.5l-1.6,7.8h-1.5L145,234.7z M145.2,232.5c0-0.5,0.5-1,1-1s0.8,0.4,0.8,0.8c0,0.5-0.5,1-1,1
		C145.5,233.4,145.2,233,145.2,232.5z"/>
	<path class="st0" d="M146.7,241.5l0.9-1c0.7,0.6,1.6,0.9,2.4,0.9c1,0,1.9-0.6,1.9-1.3c0-0.4-0.3-0.7-1.5-1
		c-1.6-0.5-2.4-0.9-2.4-1.9c0-1.6,1.4-2.7,3.3-2.7c1,0,2,0.4,2.8,0.9l-0.8,1.1c-0.6-0.5-1.3-0.7-2-0.7c-1,0-1.8,0.5-1.8,1.2
		c0,0.3,0.4,0.6,1.5,1c1.5,0.5,2.3,0.9,2.3,2c0,1.5-1.5,2.8-3.4,2.8C148.7,242.7,147.5,242.2,146.7,241.5z"/>
	<path class="st0" d="M154.9,239.3c0-2.6,2.3-4.8,5-4.8c1.9,0,3.4,1.5,3.4,3.4c0,2.6-2.3,4.8-5,4.8
		C156.4,242.7,154.9,241.1,154.9,239.3z M161.7,237.9c0-1.2-1-2.1-2.1-2.1c-1.8,0-3.3,1.6-3.3,3.4c0,1.2,0.9,2.1,2.1,2.1
		C160.2,241.4,161.7,239.8,161.7,237.9z"/>
	<path class="st0" d="M172.1,236.8c0,0.6-0.1,1-1.1,5.6h-1.5c1-4.6,1-4.9,1-5.3c0-0.9-0.5-1.4-1.3-1.4c-1.2,0-2.3,0.8-2.6,1.8
		l-1,4.9h-1.5l1.6-7.8h1.5l-0.2,1c0.6-0.7,1.6-1.2,2.6-1.2C171.1,234.5,172.1,235.5,172.1,236.8z"/>
	<path class="st0" d="M174.9,239.1v0.2c0,1.3,0.7,2,2,2c0.9,0,1.9-0.4,2.5-0.9l0.8,1.1c-0.8,0.7-2.3,1.2-3.4,1.2
		c-1.9,0-3.3-1.3-3.3-3.3c0-2.6,2.3-4.9,4.8-4.9c1.5,0,2.8,0.8,2.8,2.1c0,1.5-1.4,2.5-3.7,2.5L174.9,239.1L174.9,239.1z
		 M175.2,237.9h2.4c1.3,0,2-0.4,2-1.1c0-0.6-0.6-1-1.5-1C176.8,235.8,175.7,236.7,175.2,237.9z"/>
</g>
<g>
	<g>
		<path d="M120.1,434.5c0.5,0.6,0.7,1.4,0.7,2.4c0,1.1-0.3,1.9-0.8,2.6c-0.6,0.8-1.5,1.2-2.7,1.2c-1.1,0-1.9-0.4-2.6-1.1
			c-0.6-0.7-0.8-1.6-0.8-2.6c0-1,0.2-1.8,0.7-2.5c0.6-0.9,1.5-1.3,2.7-1.3C118.6,433.3,119.5,433.7,120.1,434.5z M119.3,439
			c0.4-0.6,0.6-1.3,0.6-2.1c0-0.8-0.2-1.5-0.7-2s-1-0.8-1.8-0.8c-0.7,0-1.3,0.3-1.8,0.8c-0.5,0.5-0.7,1.2-0.7,2.2
			c0,0.8,0.2,1.4,0.6,2c0.4,0.5,1,0.8,1.9,0.8C118.3,439.9,118.9,439.6,119.3,439z"/>
	</g>
	<g>
		<polygon points="85.6,455.4 85,455.7 84.4,454.5 84.4,438.3 85,437 85.6,437.4 		"/>
	</g>
	<g>
		<polygon points="101.8,464.7 100.6,465.4 85.8,456.8 85,455.7 85.6,455.4 		"/>
	</g>
	<g>
		<polygon points="101.2,428.4 101.2,427.7 101.8,427.4 113.2,434 112.6,435 		"/>
	</g>
	<g>
		<polygon points="85.6,437.4 85,437 85.8,435.9 100.6,427.4 101.2,427.7 101.2,428.4 		"/>
	</g>
	<g>
		<path d="M136.3,462.5c0.5,0.6,0.7,1.4,0.7,2.4c0,1.1-0.3,1.9-0.8,2.6c-0.6,0.8-1.5,1.2-2.7,1.2c-1.1,0-1.9-0.4-2.6-1.1
			c-0.6-0.7-0.8-1.6-0.8-2.6c0-1,0.2-1.8,0.7-2.5c0.6-0.9,1.5-1.3,2.7-1.3C134.7,461.3,135.7,461.7,136.3,462.5z M135.4,467
			c0.4-0.6,0.6-1.3,0.6-2.1c0-0.8-0.2-1.5-0.7-2s-1-0.8-1.8-0.8c-0.7,0-1.3,0.3-1.8,0.8c-0.5,0.5-0.7,1.2-0.7,2.2
			c0,0.8,0.2,1.4,0.6,2c0.4,0.5,1,0.8,1.9,0.8C134.4,467.9,135.1,467.6,135.4,467z"/>
	</g>
	<g>
		<polygon points="149.1,455.4 150.3,456.1 138.3,463 137.7,461.9 		"/>
	</g>
	<g>
		<polygon points="149.1,437.4 150.3,436.7 150.3,456.1 149.1,455.4 		"/>
	</g>
	<g>
		<polygon points="133.5,428.4 133.5,427.7 134.1,427.4 150.3,436.7 149.1,437.4 		"/>
	</g>
	<g>
		<polygon points="122.1,435 121.5,433.9 132.9,427.4 133.5,427.7 133.5,428.4 		"/>
	</g>
	<g>
		<polygon points="132.9,409.4 134.1,408.7 134.1,427.4 133.5,427.7 132.9,427.4 		"/>
	</g>
	<g>
		<polygon points="117.4,400.4 117.4,399.7 118.7,399.8 134.1,408.7 132.9,409.4 		"/>
	</g>
	<g>
		<polygon points="101.8,409.4 100.6,408.7 116,399.8 117.4,399.7 117.4,400.4 		"/>
	</g>
	<g>
		<polygon points="101.8,427.4 101.2,427.7 100.6,427.4 100.6,408.7 101.8,409.4 		"/>
	</g>
	<g>
		<polygon points="101.8,483.4 101.2,483.7 100.6,483.4 100.6,465.4 101.8,464.7 		"/>
	</g>
	<g>
		<rect x="97.6" y="466.8" width="1.2" height="15.2"/>
	</g>
	<g>
		<polygon points="117.4,492.4 117.4,493.7 101.2,484.4 101.2,483.7 101.8,483.4 		"/>
	</g>
	<g>
		<polygon points="132.2,483.8 133.5,483.7 133.5,484.4 117.4,493.7 117.4,492.4 		"/>
	</g>
	<g>
		<polygon points="132.2,470.2 134.9,470.2 134.9,483.8 133.5,483.7 132.2,483.8 		"/>
	</g>
	<g>
		<path d="M168.6,462.5c0.5,0.6,0.7,1.4,0.7,2.4c0,1.1-0.3,1.9-0.8,2.6c-0.6,0.8-1.5,1.2-2.7,1.2c-1.1,0-1.9-0.4-2.6-1.1
			c-0.6-0.7-0.8-1.6-0.8-2.6c0-1,0.2-1.8,0.7-2.5c0.6-0.9,1.5-1.3,2.7-1.3C167.1,461.3,168,461.7,168.6,462.5z M167.8,467
			c0.4-0.6,0.6-1.3,0.6-2.1c0-0.8-0.2-1.5-0.7-2s-1-0.8-1.8-0.8c-0.7,0-1.3,0.3-1.8,0.8c-0.5,0.5-0.7,1.2-0.7,2.2
			c0,0.8,0.2,1.4,0.6,2c0.4,0.5,1,0.8,1.9,0.8C166.8,467.9,167.4,467.6,167.8,467z"/>
	</g>
	<g>
		<rect x="155.4" y="450.4" transform="matrix(0.499 -0.8666 0.8666 0.499 -318.429 364.4142)" width="1.2" height="14.4"/>
	</g>
	<g>
		<polygon points="161,463.3 160.4,464.3 147.9,457.1 148.5,456.1 		"/>
	</g>
	<g>
		<polygon points="149.7,492.4 149.7,493.7 133.5,484.4 133.5,483.7 134.9,483.8 		"/>
	</g>
	<g>
		<path d="M73.7,489.5H75l2,6l2-6h1.4v7.1h-0.9v-4.2c0-0.1,0-0.4,0-0.7c0-0.3,0-0.7,0-1.1l-2,6h-1l-2-6v0.2c0,0.2,0,0.4,0,0.8
			c0,0.4,0,0.6,0,0.8v4.2h-0.9V489.5z"/>
		<path d="M85,491.6c0.3,0.2,0.6,0.4,0.8,0.7c0.2,0.3,0.3,0.6,0.3,0.9c0.1,0.2,0.1,0.6,0.1,1.1h-3.8c0,0.5,0.1,0.9,0.4,1.3
			c0.2,0.3,0.6,0.5,1.1,0.5c0.5,0,0.8-0.2,1.1-0.5c0.1-0.2,0.3-0.4,0.3-0.6h0.9c0,0.2-0.1,0.4-0.2,0.6s-0.3,0.4-0.4,0.6
			c-0.3,0.3-0.6,0.4-1,0.5c-0.2,0.1-0.4,0.1-0.7,0.1c-0.6,0-1.2-0.2-1.6-0.7s-0.7-1.1-0.7-2c0-0.8,0.2-1.5,0.7-2s1-0.8,1.8-0.8
			C84.3,491.3,84.6,491.4,85,491.6z M85.3,493.6c0-0.4-0.1-0.7-0.2-0.9c-0.2-0.4-0.6-0.6-1.2-0.6c-0.4,0-0.7,0.1-1,0.4
			c-0.3,0.3-0.4,0.7-0.4,1.1H85.3z"/>
	</g>
	<g>
		<polygon points="87.5,492.3 86.9,491.3 100.6,483.4 101.2,483.7 101.2,484.4 		"/>
	</g>
	<g>
		<path d="M73.7,396.1H75l2,6l2-6h1.4v7.1h-0.9V399c0-0.1,0-0.4,0-0.7c0-0.3,0-0.7,0-1.1l-2,6h-1l-2-6v0.2c0,0.2,0,0.4,0,0.8
			c0,0.4,0,0.6,0,0.8v4.2h-0.9V396.1z"/>
		<path d="M85,398.2c0.3,0.2,0.6,0.4,0.8,0.7c0.2,0.3,0.3,0.6,0.3,0.9c0.1,0.2,0.1,0.6,0.1,1.1h-3.8c0,0.5,0.1,0.9,0.4,1.3
			c0.2,0.3,0.6,0.5,1.1,0.5c0.5,0,0.8-0.1,1.1-0.5c0.1-0.2,0.3-0.4,0.3-0.6h0.9c0,0.2-0.1,0.4-0.2,0.6c-0.1,0.2-0.3,0.4-0.4,0.6
			c-0.3,0.3-0.6,0.4-1,0.5c-0.2,0.1-0.4,0.1-0.7,0.1c-0.6,0-1.2-0.2-1.6-0.7s-0.7-1.1-0.7-2c0-0.8,0.2-1.5,0.7-2
			c0.4-0.5,1-0.8,1.8-0.8C84.3,397.9,84.6,398,85,398.2z M85.3,400.2c0-0.4-0.1-0.7-0.2-0.9c-0.2-0.4-0.6-0.6-1.2-0.6
			c-0.4,0-0.7,0.1-1,0.4c-0.3,0.3-0.4,0.7-0.4,1.1H85.3z"/>
	</g>
	<g>
		<polygon points="87.4,402.6 88.8,400.3 89.8,400.9 88.4,403.2 		"/>
	</g>
	<g>
		<polygon points="91.9,405.2 93.2,402.9 94.2,403.4 92.9,405.8 		"/>
	</g>
	<g>
		<polygon points="96.3,407.8 97.7,405.4 98.7,406 97.3,408.4 		"/>
	</g>
	<g>
		<path d="M57.5,424.2h1.4l2,6l2-6h1.4v7.1h-0.9v-4.2c0-0.1,0-0.4,0-0.7c0-0.3,0-0.7,0-1.1l-2,6h-1l-2-6v0.2c0,0.2,0,0.4,0,0.8
			c0,0.4,0,0.6,0,0.8v4.2h-0.9V424.2z"/>
		<path d="M68.8,426.2c0.3,0.2,0.6,0.4,0.8,0.7c0.2,0.3,0.3,0.6,0.3,0.9c0.1,0.2,0.1,0.6,0.1,1.1h-3.8c0,0.5,0.1,0.9,0.4,1.3
			c0.2,0.3,0.6,0.5,1.1,0.5c0.5,0,0.8-0.1,1.1-0.5c0.1-0.2,0.3-0.4,0.3-0.6h0.9c0,0.2-0.1,0.4-0.2,0.6c-0.1,0.2-0.3,0.4-0.4,0.6
			c-0.3,0.3-0.6,0.4-1,0.5c-0.2,0.1-0.4,0.1-0.7,0.1c-0.6,0-1.2-0.2-1.6-0.7s-0.7-1.1-0.7-2c0-0.8,0.2-1.5,0.7-2
			c0.4-0.5,1-0.8,1.8-0.8C68.1,426,68.5,426.1,68.8,426.2z M69.1,428.3c0-0.4-0.1-0.7-0.2-0.9c-0.2-0.4-0.6-0.6-1.2-0.6
			c-0.4,0-0.7,0.1-1,0.4c-0.3,0.3-0.4,0.7-0.4,1.1H69.1z"/>
	</g>
	<g>
		<polygon points="71.2,430.6 72.6,428.3 85.8,435.9 85,437 84.4,438.3 		"/>
	</g>
	<g>
		<path d="M50.9,461.5h1.4l2,6l2-6h1.4v7.1h-0.9v-4.2c0-0.1,0-0.4,0-0.7c0-0.3,0-0.7,0-1.1l-2,6h-1l-2-6v0.2c0,0.2,0,0.4,0,0.8
			s0,0.6,0,0.8v4.2h-0.9V461.5z"/>
		<path d="M62.2,463.6c0.3,0.2,0.6,0.4,0.8,0.7c0.2,0.3,0.3,0.6,0.3,0.9c0.1,0.2,0.1,0.6,0.1,1.1h-3.8c0,0.5,0.1,0.9,0.4,1.3
			c0.2,0.3,0.6,0.5,1.1,0.5c0.5,0,0.8-0.2,1.1-0.5c0.1-0.2,0.3-0.4,0.3-0.6h0.9c0,0.2-0.1,0.4-0.2,0.6s-0.3,0.4-0.4,0.6
			c-0.3,0.3-0.6,0.4-1,0.5c-0.2,0.1-0.4,0.1-0.7,0.1c-0.6,0-1.2-0.2-1.6-0.7s-0.7-1.1-0.7-2c0-0.8,0.2-1.5,0.7-2s1-0.8,1.8-0.8
			C61.5,463.3,61.9,463.4,62.2,463.6z M62.5,465.6c0-0.4-0.1-0.7-0.2-0.9c-0.2-0.4-0.6-0.6-1.2-0.6c-0.4,0-0.7,0.1-1,0.4
			c-0.3,0.3-0.4,0.7-0.4,1.1H62.5z"/>
		<path d="M70.5,462.5c0.5,0.6,0.7,1.4,0.7,2.4c0,1.1-0.3,1.9-0.8,2.6c-0.6,0.8-1.5,1.2-2.7,1.2c-1.1,0-1.9-0.4-2.6-1.1
			c-0.6-0.7-0.8-1.6-0.8-2.6c0-1,0.2-1.8,0.7-2.5c0.6-0.9,1.5-1.3,2.7-1.3C69,461.3,69.9,461.7,70.5,462.5z M69.6,467
			c0.4-0.6,0.6-1.3,0.6-2.1c0-0.8-0.2-1.5-0.7-2s-1-0.8-1.8-0.8c-0.7,0-1.3,0.3-1.8,0.8c-0.5,0.5-0.7,1.2-0.7,2.2
			c0,0.8,0.2,1.4,0.6,2c0.4,0.5,1,0.8,1.9,0.8C68.7,467.9,69.3,467.6,69.6,467z"/>
	</g>
	<g>
		<polygon points="73.1,464.1 71.8,461.8 84.4,454.5 85,455.7 85.8,456.8 		"/>
	</g>
	<g>
		<path d="M98.4,442.8h1v2.9h3.6v-2.9h1v7.1h-1v-3.3h-3.6v3.3h-1V442.8z"/>
	</g>
	<g>
		<polygon points="103.2,441.3 99.2,441.3 99.3,440.2 103.1,440.2 		"/>
	</g>
	<g>
		<polygon points="102.6,436.9 99.8,436.9 100,435.8 102.4,435.8 		"/>
	</g>
	<g>
		<polygon points="101.9,432.6 100.4,432.6 100.6,431.4 101.8,431.4 		"/>
	</g>
	<g>
		<path d="M136.3,443.8c0.5,0.6,0.7,1.4,0.7,2.4c0,1.1-0.3,1.9-0.8,2.6c-0.6,0.8-1.5,1.2-2.7,1.2c-1.1,0-1.9-0.4-2.6-1.1
			c-0.6-0.7-0.8-1.6-0.8-2.6c0-1,0.2-1.8,0.7-2.5c0.6-0.9,1.5-1.3,2.7-1.3C134.7,442.6,135.7,443,136.3,443.8z M135.4,448.4
			c0.4-0.6,0.6-1.3,0.6-2.1c0-0.8-0.2-1.5-0.7-2c-0.4-0.5-1-0.8-1.8-0.8c-0.7,0-1.3,0.3-1.8,0.8s-0.7,1.2-0.7,2.2
			c0,0.8,0.2,1.4,0.6,2c0.4,0.5,1,0.8,1.9,0.8C134.4,449.3,135.1,449,135.4,448.4z"/>
		<path d="M138.1,442.8h1v2.9h3.6v-2.9h1v7.1h-1v-3.3h-3.6v3.3h-1V442.8z"/>
	</g>
	<g>
		<polygon points="135.6,441.1 131.5,441.1 131.7,440 135.4,440 		"/>
	</g>
	<g>
		<polygon points="134.9,436.8 132.1,436.8 132.3,435.7 134.8,435.7 		"/>
	</g>
	<g>
		<polygon points="134.3,432.6 132.8,432.6 132.9,431.4 134.1,431.4 		"/>
	</g>
	<g>
		<polygon points="165.9,483 165.9,484.4 149.7,493.7 149.7,492.4 		"/>
	</g>
	<g>
		<polygon points="164.1,480.6 164.7,481.6 150,490.1 149.4,489.1 		"/>
	</g>
	<g>
		<path d="M120.1,378.5c0.5,0.6,0.7,1.4,0.7,2.4c0,1.1-0.3,1.9-0.8,2.6c-0.6,0.8-1.5,1.2-2.7,1.2c-1.1,0-1.9-0.4-2.6-1.1
			c-0.6-0.7-0.8-1.6-0.8-2.6c0-1,0.2-1.8,0.7-2.5c0.6-0.9,1.5-1.3,2.7-1.3C118.6,377.3,119.5,377.7,120.1,378.5z M119.3,383
			c0.4-0.6,0.6-1.3,0.6-2.1c0-0.8-0.2-1.5-0.7-2s-1-0.8-1.8-0.8c-0.7,0-1.3,0.3-1.8,0.8c-0.5,0.5-0.7,1.2-0.7,2.2
			c0,0.8,0.2,1.4,0.6,2c0.4,0.5,1,0.8,1.9,0.8C118.3,383.9,118.9,383.6,119.3,383z"/>
	</g>
	<g>
		<polygon points="116,386.2 118.7,386.2 118.7,399.8 117.4,399.7 116,399.8 		"/>
	</g>
	<g>
		<polygon points="132.9,371.3 133.5,371.7 132.8,372.8 122.1,379 121.5,377.9 		"/>
	</g>
	<g>
		<path d="M152.5,378.5c0.5,0.6,0.7,1.4,0.7,2.4c0,1.1-0.3,1.9-0.8,2.6c-0.6,0.8-1.5,1.2-2.7,1.2c-1.1,0-1.9-0.4-2.6-1.1
			c-0.6-0.7-0.8-1.6-0.8-2.6c0-1,0.2-1.8,0.7-2.5c0.6-0.9,1.5-1.3,2.7-1.3C150.9,377.3,151.8,377.7,152.5,378.5z M151.6,383
			c0.4-0.6,0.6-1.3,0.6-2.1c0-0.8-0.2-1.5-0.7-2s-1-0.8-1.8-0.8c-0.7,0-1.3,0.3-1.8,0.8c-0.5,0.5-0.7,1.2-0.7,2.2
			c0,0.8,0.2,1.4,0.6,2c0.4,0.5,1,0.8,1.9,0.8C150.6,383.9,151.2,383.6,151.6,383z"/>
	</g>
	<g>
		<polygon points="145.6,378 145,379 134.2,372.8 133.5,371.7 134.1,371.3 		"/>
	</g>
	<g>
		<polygon points="165.3,371.3 166.5,372.1 154.5,379 153.9,377.9 		"/>
	</g>
	<g>
		<polygon points="165.3,353.4 165.9,353 166.5,354.2 166.5,372.1 165.3,371.3 		"/>
	</g>
	<g>
		<polygon points="149.7,344.4 149.7,343.7 150.2,343.3 165.1,351.9 165.9,353 165.3,353.4 		"/>
	</g>
	<g>
		<polygon points="134.1,353.4 132.9,352.7 148.8,343.5 149.7,343.7 149.7,344.4 		"/>
	</g>
	<g>
		<polygon points="134.1,371.3 133.5,371.7 132.9,371.3 132.9,352.7 134.1,353.4 		"/>
	</g>
	<g>
		<path d="M130.7,386.8h1v2.9h3.6v-2.9h1v7.1h-1v-3.3h-3.6v3.3h-1V386.8z"/>
	</g>
	<g>
		<polygon points="135.6,385.3 131.5,385.3 132.8,372.8 133.5,371.7 134.2,372.8 		"/>
	</g>
	<g>
		<path d="M178.6,377.5h1.4l2,6l2-6h1.4v7.1h-0.9v-4.2c0-0.1,0-0.4,0-0.7c0-0.3,0-0.7,0-1.1l-2,6h-1l-2-6v0.2c0,0.2,0,0.4,0,0.8
			c0,0.4,0,0.6,0,0.8v4.2h-0.9V377.5z"/>
		<path d="M190,379.6c0.3,0.2,0.6,0.4,0.8,0.7c0.2,0.3,0.3,0.6,0.3,0.9c0.1,0.2,0.1,0.6,0.1,1.1h-3.8c0,0.5,0.1,0.9,0.4,1.3
			c0.2,0.3,0.6,0.5,1.1,0.5c0.5,0,0.8-0.1,1.1-0.5c0.1-0.2,0.3-0.4,0.3-0.6h0.9c0,0.2-0.1,0.4-0.2,0.6c-0.1,0.2-0.3,0.4-0.4,0.6
			c-0.3,0.3-0.6,0.4-1,0.5c-0.2,0.1-0.4,0.1-0.7,0.1c-0.6,0-1.2-0.2-1.6-0.7s-0.7-1.1-0.7-2c0-0.8,0.2-1.5,0.7-2
			c0.4-0.5,1-0.8,1.8-0.8C189.3,379.3,189.6,379.4,190,379.6z M190.3,381.6c0-0.4-0.1-0.7-0.2-0.9c-0.2-0.4-0.6-0.6-1.2-0.6
			c-0.4,0-0.7,0.1-1,0.4c-0.3,0.3-0.4,0.7-0.4,1.1H190.3z"/>
	</g>
	<g>
		<polygon points="177.3,376.7 176,379.1 175,378.5 176.3,376.2 		"/>
	</g>
	<g>
		<polygon points="175.9,375.9 174.6,378.3 173.6,377.7 174.9,375.4 		"/>
	</g>
	<g>
		<polygon points="174.5,375.1 173.2,377.5 172.1,376.9 173.5,374.6 		"/>
	</g>
	<g>
		<polygon points="173.1,374.3 171.8,376.7 170.8,376.1 172.1,373.8 		"/>
	</g>
	<g>
		<polygon points="171.7,373.5 170.4,375.8 169.3,375.3 170.7,372.9 		"/>
	</g>
	<g>
		<polygon points="170.3,372.7 169,375 168,374.5 169.3,372.1 		"/>
	</g>
	<g>
		<polygon points="168.9,371.9 167.6,374.2 166.5,373.7 167.9,371.3 		"/>
	</g>
	<g>
		<path d="M184.8,341.2c0.5,0.6,0.7,1.4,0.7,2.4c0,1.1-0.3,1.9-0.8,2.6c-0.6,0.8-1.5,1.2-2.7,1.2c-1.1,0-1.9-0.4-2.6-1.1
			c-0.6-0.7-0.8-1.6-0.8-2.6c0-1,0.2-1.8,0.7-2.5c0.6-0.9,1.5-1.3,2.7-1.3C183.3,340,184.2,340.4,184.8,341.2z M184,345.7
			c0.4-0.6,0.6-1.3,0.6-2.1c0-0.8-0.2-1.5-0.7-2s-1-0.8-1.8-0.8c-0.7,0-1.3,0.3-1.8,0.8c-0.5,0.5-0.7,1.2-0.7,2.2
			c0,0.8,0.2,1.4,0.6,2c0.4,0.5,1,0.8,1.9,0.8C183,346.6,183.6,346.3,184,345.7z"/>
		<path d="M186.7,340.1h1v2.9h3.6v-2.9h1v7.1h-1v-3.3h-3.6v3.3h-1V340.1z"/>
	</g>
	<g>
		<polygon points="176.9,345.1 178.3,347.4 166.5,354.2 165.9,353 165.1,351.9 		"/>
	</g>
	<g>
		<path d="M129,324h1.4l2,6l2-6h1.4v7.1h-0.9v-4.2c0-0.1,0-0.4,0-0.7c0-0.3,0-0.7,0-1.1l-2,6h-1l-2-6v0.2c0,0.2,0,0.4,0,0.8
			c0,0.4,0,0.6,0,0.8v4.2H129V324z"/>
		<path d="M140.3,326c0.3,0.2,0.6,0.4,0.8,0.7c0.2,0.3,0.3,0.6,0.3,0.9c0.1,0.2,0.1,0.6,0.1,1.1h-3.8c0,0.5,0.1,0.9,0.4,1.3
			c0.2,0.3,0.6,0.5,1.1,0.5c0.5,0,0.8-0.1,1.1-0.5c0.1-0.2,0.3-0.4,0.3-0.6h0.9c0,0.2-0.1,0.4-0.2,0.6c-0.1,0.2-0.3,0.4-0.4,0.6
			c-0.3,0.3-0.6,0.4-1,0.5c-0.2,0.1-0.4,0.1-0.7,0.1c-0.6,0-1.2-0.2-1.6-0.7s-0.7-1.1-0.7-2c0-0.8,0.2-1.5,0.7-2
			c0.4-0.5,1-0.8,1.8-0.8C139.6,325.8,140,325.9,140.3,326z M140.6,328.1c0-0.4-0.1-0.7-0.2-0.9c-0.2-0.4-0.6-0.6-1.2-0.6
			c-0.4,0-0.7,0.1-1,0.4c-0.3,0.3-0.4,0.7-0.4,1.1H140.6z"/>
	</g>
	<g>
		<polygon points="140.8,332.4 144.4,330.4 150.2,343.3 149.7,343.7 148.8,343.5 		"/>
	</g>
	<g>
		<path d="M161.8,325c0.5,0.6,0.7,1.4,0.7,2.4c0,1.1-0.3,1.9-0.8,2.6c-0.6,0.8-1.5,1.2-2.7,1.2c-1.1,0-1.9-0.4-2.6-1.1
			c-0.6-0.7-0.8-1.6-0.8-2.6c0-1,0.2-1.8,0.7-2.5c0.6-0.9,1.5-1.3,2.7-1.3C160.2,323.8,161.2,324.2,161.8,325z M160.9,329.5
			c0.4-0.6,0.6-1.3,0.6-2.1c0-0.8-0.2-1.5-0.7-2s-1-0.8-1.8-0.8c-0.7,0-1.3,0.3-1.8,0.8c-0.5,0.5-0.7,1.2-0.7,2.2
			c0,0.8,0.2,1.4,0.6,2c0.4,0.5,1,0.8,1.9,0.8C159.9,330.4,160.6,330.1,160.9,329.5z"/>
		<path d="M163.6,324h1v2.9h3.6V324h1v7.1h-1v-3.3h-3.6v3.3h-1V324z"/>
	</g>
	<g>
		<polygon points="154.6,331.1 158.2,333.1 157.4,334 154.2,332.2 		"/>
	</g>
	<g>
		<polygon points="153.1,335.1 155.5,336.5 154.7,337.4 152.6,336.2 		"/>
	</g>
	<g>
		<polygon points="151.5,339.1 152.8,339.9 152.1,340.8 151,340.2 		"/>
	</g>
	<g>
		<path d="M99.4,340.1h1.4l2,6l2-6h1.4v7.1h-0.9v-4.2c0-0.1,0-0.4,0-0.7c0-0.3,0-0.7,0-1.1l-2,6h-1l-2-6v0.2c0,0.2,0,0.4,0,0.8
			c0,0.4,0,0.6,0,0.8v4.2h-0.9V340.1z"/>
		<path d="M110.7,342.2c0.3,0.2,0.6,0.4,0.8,0.7c0.2,0.3,0.3,0.6,0.3,0.9c0.1,0.2,0.1,0.6,0.1,1.1h-3.8c0,0.5,0.1,0.9,0.4,1.3
			c0.2,0.3,0.6,0.5,1.1,0.5c0.5,0,0.8-0.1,1.1-0.5c0.1-0.2,0.3-0.4,0.3-0.6h0.9c0,0.2-0.1,0.4-0.2,0.6c-0.1,0.2-0.3,0.4-0.4,0.6
			c-0.3,0.3-0.6,0.4-1,0.5c-0.2,0.1-0.4,0.1-0.7,0.1c-0.6,0-1.2-0.2-1.6-0.7s-0.7-1.1-0.7-2c0-0.8,0.2-1.5,0.7-2
			c0.4-0.5,1-0.8,1.8-0.8C110,342,110.4,342,110.7,342.2z M111,344.2c0-0.4-0.1-0.7-0.2-0.9c-0.2-0.4-0.6-0.6-1.2-0.6
			c-0.4,0-0.7,0.1-1,0.4c-0.3,0.3-0.4,0.7-0.4,1.1H111z"/>
		<path d="M119,341.2c0.5,0.6,0.7,1.4,0.7,2.4c0,1.1-0.3,1.9-0.8,2.6c-0.6,0.8-1.5,1.2-2.7,1.2c-1.1,0-1.9-0.4-2.6-1.1
			c-0.6-0.7-0.8-1.6-0.8-2.6c0-1,0.2-1.8,0.7-2.5c0.6-0.9,1.5-1.3,2.7-1.3C117.5,340,118.4,340.4,119,341.2z M118.1,345.7
			c0.4-0.6,0.6-1.3,0.6-2.1c0-0.8-0.2-1.5-0.7-2s-1-0.8-1.8-0.8c-0.7,0-1.3,0.3-1.8,0.8c-0.5,0.5-0.7,1.2-0.7,2.2
			c0,0.8,0.2,1.4,0.6,2c0.4,0.5,1,0.8,1.9,0.8C117.2,346.6,117.8,346.3,118.1,345.7z"/>
	</g>
	<g>
		<polygon points="120.2,346.9 121.6,344.5 122.6,345.1 121.2,347.5 		"/>
	</g>
	<g>
		<polygon points="124.4,349.3 125.8,347 126.8,347.6 125.4,349.9 		"/>
	</g>
	<g>
		<polygon points="128.7,351.8 130,349.4 131,350 129.7,352.4 		"/>
	</g>
	<g>
		<polygon points="165.9,484.4 165.9,483 182,492.3 182,493.7 		"/>
	</g>
	<g>
		<polygon points="198.1,483 198.1,484.3 182,493.7 182,492.3 		"/>
	</g>
	<g>
		<polygon points="196.4,480.6 196.9,481.6 182.2,490.1 181.7,489.1 		"/>
	</g>
	<g>
		<polygon points="214.6,492.5 214,493.5 198.1,484.3 198.1,483 		"/>
	</g>
	<g>
		<polygon points="232.3,499.2 231.7,500.3 215.5,490.9 216.1,489.9 		"/>
	</g>
	<g>
		<rect x="221.8" y="488.3" transform="matrix(0.499 -0.8666 0.8666 0.499 -319.8475 442.0641)" width="1.2" height="18.7"/>
	</g>
	<g>
		<polygon points="229.3,504.4 228.7,505.4 212.5,496.1 213.1,495.1 		"/>
	</g>
	<g>
		<polygon points="248.3,511.1 246.6,511.6 247,513.4 229.8,503.5 231.1,501.2 		"/>
	</g>
	<g>
		<polygon points="256,526.7 256,529 247,513.4 246.6,511.6 247.7,512.2 		"/>
	</g>
	<g>
		<polygon points="264.3,512.2 266.3,511.1 256,529 256,526.7 		"/>
	</g>
	<g>
		<polygon points="247.7,512.2 246.6,511.6 248.3,511.1 266.3,511.1 264.3,512.2 		"/>
	</g>
	<g>
		<path d="M283.7,499.3c0.5,0.5,0.8,1,0.8,1.6h-0.9c-0.1-0.5-0.3-0.8-0.6-1.1s-0.7-0.4-1.3-0.4c-0.7,0-1.2,0.2-1.7,0.7
			c-0.4,0.5-0.6,1.2-0.6,2.3c0,0.8,0.2,1.5,0.6,2s0.9,0.8,1.7,0.8c0.7,0,1.2-0.3,1.6-0.8c0.2-0.3,0.3-0.7,0.4-1.1h0.9
			c-0.1,0.7-0.4,1.4-0.8,1.9c-0.6,0.6-1.3,0.9-2.3,0.9c-0.8,0-1.5-0.2-2-0.7c-0.7-0.7-1.1-1.7-1.1-3.1c0-1,0.3-1.9,0.8-2.6
			c0.6-0.7,1.4-1.1,2.4-1.1C282.5,498.6,283.2,498.8,283.7,499.3z"/>
		<path d="M285.7,498.8h0.9v7.1h-0.9V498.8z"/>
	</g>
	<g>
		<polygon points="276.6,503.6 277.9,505.9 276.9,506.5 275.6,504.2 		"/>
	</g>
	<g>
		<polygon points="272.7,505.8 274.1,508.2 273,508.7 271.7,506.4 		"/>
	</g>
	<g>
		<polygon points="268.9,508 270.2,510.4 269.2,511 267.8,508.7 		"/>
	</g>
</g>
<text transform="matrix(1 0 0 1 98.3683 556.3459)" class="st0 st1 st2">callipeltoside C </text>
</svg>
