<?xml version="1.0" encoding="utf-8"?>
<!-- Generator: Adobe Illustrator 19.2.0, SVG Export Plug-In . SVG Version: 6.00 Build 0)  -->
<svg version="1.1" id="Layer_1" xmlns="http://www.w3.org/2000/svg" xmlns:xlink="http://www.w3.org/1999/xlink" x="0px" y="0px"
	 viewBox="0 0 294 391" style="enable-background:new 0 0 294 391;" xml:space="preserve">
<style type="text/css">
	.st0{font-family:'Helvetica';}
	.st1{font-size:16px;}
	.st2{fill:#3B97C8;}
</style>
<g>
	<text transform="matrix(1 0 0 1 132.7745 86.2402)" class="st0 st1">N</text>
	<text transform="matrix(1 0 0 1 147.9249 132.7402)" class="st0 st1">N</text>
	<polygon points="169.5,79.5 168.1,81.4 145.4,81.4 145.4,79.5 	"/>
	<polygon points="178.4,106.9 178.1,109.2 177,108.9 168.1,81.4 169.5,79.5 	"/>
	<polygon points="161.9,122.2 160.7,120.7 177,108.9 178.1,109.2 177.1,111.2 	"/>
	<polygon points="130.2,111.2 129.2,109.2 130.3,108.9 146.6,120.7 145.5,122.2 	"/>
	<polygon points="134.8,88.9 136.6,89.5 130.3,108.9 129.2,109.2 129,106.8 	"/>
	<g>
		<path d="M102.4,50.3h2.2l3.3,9.7l3.3-9.7h2.2v11.5h-1.5V55c0-0.2,0-0.6,0-1.2c0-0.5,0-1.1,0-1.7l-3.3,9.7h-1.5l-3.3-9.7v0.4
			c0,0.3,0,0.7,0,1.3s0,1,0,1.3v6.8h-1.5V50.3H102.4z"/>
		<path d="M120.8,53.7c0.6,0.3,1,0.6,1.3,1.1c0.3,0.4,0.5,0.9,0.6,1.5c0.1,0.4,0.1,1,0.1,1.8h-6.1c0,0.9,0.2,1.5,0.6,2
			s0.9,0.8,1.7,0.8c0.7,0,1.3-0.2,1.7-0.7c0.2-0.3,0.4-0.6,0.5-1h1.4c0,0.3-0.2,0.6-0.4,1c-0.2,0.4-0.4,0.7-0.7,0.9
			c-0.4,0.4-0.9,0.7-1.6,0.8c-0.3,0.1-0.7,0.1-1.1,0.1c-1,0-1.9-0.4-2.6-1.1s-1.1-1.8-1.1-3.2c0-1.3,0.4-2.4,1.1-3.3
			s1.7-1.3,2.8-1.3C119.6,53.2,120.2,53.4,120.8,53.7z M121.3,56.9c-0.1-0.6-0.2-1.1-0.4-1.5c-0.4-0.7-1-1-1.9-1
			c-0.6,0-1.2,0.2-1.6,0.7s-0.7,1.1-0.7,1.8H121.3z"/>
	</g>
	<polygon points="124.1,62.2 125.7,61.1 133.6,72 132.1,73.2 	"/>
	<g>
		<path d="M199.7,115.5h5.1c1,0,1.8,0.3,2.5,0.9c0.6,0.6,0.9,1.4,0.9,2.4c0,0.9-0.3,1.7-0.8,2.3c-0.6,0.7-1.4,1-2.6,1h-3.6v4.9h-1.6
			v-11.5H199.7z M205.7,117c-0.3-0.2-0.8-0.2-1.4-0.2h-3.1v4h3.1c0.7,0,1.3-0.1,1.7-0.4s0.6-0.8,0.6-1.6
			C206.7,117.9,206.3,117.3,205.7,117z"/>
		<path d="M210,115.4h1.4v4.3c0.3-0.4,0.6-0.7,0.9-0.9c0.5-0.3,1-0.4,1.7-0.4c1.2,0,2,0.4,2.5,1.3c0.2,0.5,0.4,1.1,0.4,1.9v5.4h-1.4
			v-5.3c0-0.6-0.1-1.1-0.2-1.4c-0.3-0.5-0.7-0.7-1.4-0.7c-0.6,0-1.1,0.2-1.6,0.6s-0.7,1.2-0.7,2.3v4.4H210V115.4z"/>
	</g>
	<polygon points="197,115.5 195.2,119.5 177.1,111.2 178.1,109.2 178.4,106.9 	"/>
	<g>
		<path d="M191,52c0.8,1,1.1,2.3,1.1,3.9c0,1.7-0.4,3.1-1.3,4.3c-1,1.3-2.5,2-4.4,2c-1.8,0-3.2-0.6-4.2-1.8
			c-0.9-1.1-1.4-2.5-1.4-4.3c0-1.6,0.4-2.9,1.2-4c1-1.4,2.5-2.1,4.4-2.1C188.5,50,190,50.7,191,52z M189.6,59.3
			c0.6-1,0.9-2.1,0.9-3.4c0-1.4-0.4-2.4-1.1-3.3s-1.7-1.2-2.9-1.2s-2.2,0.4-2.9,1.2s-1.1,2-1.1,3.6c0,1.3,0.3,2.3,1,3.2
			s1.7,1.3,3.1,1.3C188,60.7,189,60.3,189.6,59.3z"/>
	</g>
	<polygon points="178.8,60.9 180.4,62.1 166.6,81 165,79.9 	"/>
	<polygon points="182.7,63.8 184.3,64.9 170.5,83.9 168.9,82.7 	"/>
	<g>
		<path d="M79.1,119.4h1.4l-0.5,2.3h1.3l-0.2,1.1h-1.3l-1.2,5.5c-0.1,0.3,0,0.5,0.2,0.6c0.1,0.1,0.3,0.1,0.5,0.1c0.1,0,0.1,0,0.2,0
			s0.2,0,0.3,0l-0.2,1.1c-0.2,0-0.3,0.1-0.5,0.1s-0.4,0-0.6,0c-0.7,0-1.1-0.2-1.2-0.5s-0.2-0.8-0.1-1.3l1.2-5.5h-1.1l0.2-1.1h1.1
			L79.1,119.4z"/>
		<path d="M81.8,124.9h3.9l-0.3,1.4h-3.9L81.8,124.9z"/>
	</g>
	<g>
		<path d="M86.9,118.6h5c1.4,0,2.3,0.4,2.9,1.2c0.3,0.5,0.5,1,0.5,1.6c0,0.7-0.2,1.3-0.6,1.8c-0.2,0.2-0.5,0.5-0.9,0.7
			c0.6,0.2,1,0.5,1.3,0.8c0.5,0.5,0.8,1.2,0.8,2.1c0,0.7-0.2,1.4-0.7,2c-0.7,0.9-1.8,1.3-3.3,1.3H87v-11.5H86.9z M91.3,123.5
			c0.7,0,1.2-0.1,1.5-0.3c0.6-0.3,0.9-0.8,0.9-1.5c0-0.8-0.3-1.3-0.9-1.5c-0.3-0.1-0.9-0.2-1.5-0.2h-2.8v3.6h2.8V123.5z M91.8,128.8
			c1,0,1.6-0.3,2.1-0.8c0.3-0.3,0.4-0.8,0.4-1.3c0-0.8-0.4-1.4-1.1-1.7c-0.4-0.2-0.9-0.2-1.6-0.2h-3.1v4H91.8z"/>
		<path d="M98.8,121.7v5.6c0,0.4,0.1,0.8,0.2,1c0.2,0.5,0.7,0.8,1.4,0.8c1,0,1.6-0.4,1.9-1.3c0.2-0.5,0.3-1.1,0.3-1.9v-4.1h1.4v8.4
			h-1.3V129c-0.2,0.3-0.4,0.6-0.7,0.8c-0.5,0.4-1.2,0.7-1.9,0.7c-1.2,0-2-0.4-2.4-1.2c-0.2-0.4-0.3-1-0.3-1.7v-5.7h1.4V121.7z"/>
	</g>
	<polygon points="108,124 105.8,120.2 129,106.8 129.2,109.2 130.2,111.2 	"/>
	<polygon points="154.6,156.7 152.7,157.8 152.7,135.1 154.6,135.1 	"/>
	<polygon points="180.8,171.8 178.9,172.9 152.7,157.8 154.6,156.7 	"/>
	<polygon points="182.7,167.3 181.8,169 158,155.3 159,153.6 	"/>
	<polygon points="180.8,202.6 178.9,202.6 178.9,172.9 180.8,171.8 	"/>
	<circle class="st2" cx="179.2" cy="207.3" r="12.3"/>
</g>
<g>
	<path d="M88.9,277.1l-3.1,15.1H84l1.4-6.9h-8.9l-1.4,6.9h-1.7l3.1-15.1h1.7l-1.3,6.6h8.9l1.3-6.6H88.9z"/>
	<path d="M90.1,286.1c0-5,4.3-9.3,9.5-9.3c3.7,0,6.2,2.8,6.2,6.4c0,5-4.4,9.3-9.5,9.3C92.9,292.5,90.1,289.6,90.1,286.1z
		 M104.1,283.3c0-2.7-2-4.8-4.8-4.8c-4,0-7.5,3.5-7.5,7.6c0,2.7,2.2,4.9,4.9,4.9C100.7,290.9,104.1,287.2,104.1,283.3z"/>
	<path d="M110.4,277.1h1.7l3.4,10.5l7.8-10.5h1.7l-3.1,15.1h-1.7l2.4-11.4l-7.8,10.5l-3.5-10.5l-2.4,11.4h-1.7L110.4,277.1z"/>
	<path d="M126.6,286.1c0-5,4.3-9.3,9.5-9.3c3.7,0,6.2,2.8,6.2,6.4c0,5-4.4,9.3-9.5,9.3C129.5,292.5,126.6,289.6,126.6,286.1z
		 M140.7,283.3c0-2.7-2-4.8-4.8-4.8c-4,0-7.5,3.5-7.5,7.6c0,2.7,2.2,4.9,4.9,4.9C137.3,290.9,140.7,287.2,140.7,283.3z"/>
	<path d="M144.5,285.5h5.7l-0.4,1.6h-5.7L144.5,285.5z"/>
	<path d="M160.2,280.6l-0.2,1.5c-2.6,0-4.8,1.6-5.3,3.9l-1.3,6.3h-1.7l2.4-11.4h1.7l-0.5,2.2C156.4,281.5,158.1,280.6,160.2,280.6z"
		/>
	<path d="M173.2,280.9l-2.4,11.4h-1.7l0.4-2.1c-1.1,1.5-2.8,2.4-4.5,2.4c-2.3,0-4.3-2.1-4.3-4.5c0-4,3.1-7.4,6.7-7.4
		c1.5,0,2.9,1.1,3.5,2.7l0.5-2.4h1.8V280.9z M170.5,285.2c0-1.7-1.5-3.2-3.3-3.2c-2.6,0-4.7,2.6-4.7,5.8c0,1.7,1.3,3.2,2.9,3.2
		C168.1,291,170.5,288.4,170.5,285.2z"/>
	<path d="M176.6,280.9h1.7l-2.4,11.4h-1.7L176.6,280.9z M176.9,277.8c0-0.6,0.5-1.2,1.2-1.2c0.6,0,1,0.4,1,1s-0.6,1.2-1.2,1.2
		S176.9,278.3,176.9,277.8z"/>
	<path d="M178.9,290.8l1-1.1c1,0.9,2.3,1.4,3.5,1.4c1.7,0,3.1-1,3.1-2.2c0-0.7-0.7-1.1-2.4-1.7c-2.4-0.7-3.3-1.5-3.3-2.7
		c0-2.3,1.9-3.9,4.6-3.9c1.3,0,2.8,0.5,3.9,1.3l-1,1.2c-0.9-0.7-2-1-3-1c-1.7,0-2.9,0.9-2.9,2c0,0.5,0.7,1,2.5,1.7
		c2.3,0.7,3.2,1.5,3.2,2.8c0,2.2-2.2,4-4.8,4C181.7,292.5,180,291.9,178.9,290.8z"/>
	<path d="M192.5,280.9h1.7l-2.4,11.4h-1.7L192.5,280.9z M192.7,277.8c0-0.6,0.5-1.2,1.2-1.2c0.6,0,1,0.4,1,1s-0.6,1.2-1.2,1.2
		S192.7,278.3,192.7,277.8z"/>
	<path d="M206.3,284c0,0.8-0.2,1.4-1.6,8.2H203c1.4-6.8,1.6-7.3,1.6-7.9c0-1.4-0.8-2.2-2.2-2.2c-1.9,0-3.8,1.3-4.2,2.9l-1.5,7.3H195
		l2.4-11.4h1.7l-0.4,1.7c0.9-1.2,2.5-2,4-2C205,280.6,206.3,282,206.3,284z"/>
	<path d="M220.6,280.9l-2.1,10.2c-0.6,3-3.4,4.9-6.5,4.9c-1.9,0-3.5-0.7-4.3-1.6l0.9-1.2c0.7,0.8,1.9,1.3,3.4,1.3
		c2.6,0,4.5-1.4,5-3.6l0.4-1.7c-1.2,1.3-2.7,2.1-4.5,2.1c-2.6,0-4.3-1.7-4.3-4.3c0-3.4,2.8-6.5,6.3-6.5c2,0,3.2,1,3.8,2.3l0.4-2.1
		h1.5V280.9z M217.9,286.2l0.1-0.5c0-0.2,0-0.4,0-0.6c0-1.8-1.1-2.9-3-2.9c-2.7,0-4.9,2.3-4.9,4.9c0,1.8,1.1,3,3,3
		C215.4,289.9,217.3,288.2,217.9,286.2z"/>
	<path d="M104.7,315.7c0-3.8,3.3-7.1,7.2-7.1c1.3,0,2.8,0.7,3.7,1.7l-1.3,1c-0.5-0.7-1.7-1.3-2.7-1.3c-2.8,0-5.2,2.5-5.2,5.5
		c0,1.9,1.5,3.5,3.3,3.5c1.1,0,2.2-0.5,3.3-1.4l1,1.2c-1.4,1.1-2.9,1.7-4.5,1.7C106.8,320.5,104.7,318.3,104.7,315.7z"/>
	<path d="M129.1,308.9l-2.4,11.4h-1.6l0.4-2.1c-1.1,1.5-2.8,2.4-4.5,2.4c-2.3,0-4.3-2.1-4.3-4.5c0-4,3.1-7.4,6.7-7.4
		c1.5,0,2.9,1.1,3.5,2.7l0.5-2.4h1.7V308.9z M126.4,313.2c0-1.7-1.5-3.2-3.3-3.2c-2.6,0-4.7,2.6-4.7,5.8c0,1.7,1.3,3.2,2.9,3.2
		C124.1,319,126.4,316.4,126.4,313.2z"/>
	<path d="M134.9,310.3c-1.7,7.9-1.6,7.5-1.6,7.7c0,0.6,0.4,1,0.9,1c0.6,0,1.1-0.2,1.4-0.5l0.7,1.3c-0.7,0.5-1.5,0.7-2.2,0.7
		c-1.4,0-2.3-0.9-2.3-2.3c0-0.5,0.1-0.9,1.6-7.9h-1.8l0.3-1.5h1.8l0.7-3.1h1.6l-0.7,3.1h2.8l-0.3,1.5L134.9,310.3L134.9,310.3z"/>
	<path d="M151.4,308.9l-2.4,11.4h-1.6l0.4-2.1c-1.1,1.5-2.8,2.4-4.5,2.4c-2.3,0-4.3-2.1-4.3-4.5c0-4,3.1-7.4,6.7-7.4
		c1.5,0,2.9,1.1,3.5,2.7l0.5-2.4h1.7V308.9z M148.7,313.2c0-1.7-1.5-3.2-3.3-3.2c-2.6,0-4.7,2.6-4.7,5.8c0,1.7,1.3,3.2,2.9,3.2
		C146.3,319,148.7,316.4,148.7,313.2z"/>
	<path d="M155.7,304.9h1.7l-3.2,15.4h-1.7L155.7,304.9z"/>
	<path d="M156.7,323.8l0.6-1.4c0.4,0.2,0.8,0.3,1.2,0.3c0.8,0,1.4-0.3,2-1.1l1-1.3l-2.6-11.4h1.8l2,9.5l5.7-9.5h1.8l-7.8,12.7
		c-1.2,1.9-2.4,2.6-3.9,2.6C157.8,324.2,157.2,324,156.7,323.8z"/>
	<path d="M170.2,318.8l1-1.1c1,0.9,2.3,1.4,3.5,1.4c1.7,0,3.1-1,3.1-2.2c0-0.7-0.7-1.1-2.4-1.7c-2.4-0.7-3.3-1.5-3.3-2.7
		c0-2.3,1.9-3.9,4.6-3.9c1.3,0,2.8,0.5,3.9,1.3l-1,1.2c-0.9-0.7-2-1-3-1c-1.7,0-2.9,0.9-2.9,2c0,0.5,0.7,1,2.5,1.7
		c2.3,0.7,3.2,1.5,3.2,2.8c0,2.2-2.2,4-4.8,4C173,320.5,171.3,319.9,170.2,318.8z"/>
	<path d="M183.8,308.9h1.7l-2.4,11.4h-1.7L183.8,308.9z M184,305.8c0-0.6,0.5-1.2,1.2-1.2c0.6,0,1,0.4,1,1s-0.6,1.2-1.2,1.2
		C184.4,306.8,184,306.3,184,305.8z"/>
	<path d="M186,318.8l1-1.1c1,0.9,2.3,1.4,3.5,1.4c1.7,0,3.1-1,3.1-2.2c0-0.7-0.7-1.1-2.4-1.7c-2.4-0.7-3.3-1.5-3.3-2.7
		c0-2.3,1.9-3.9,4.6-3.9c1.3,0,2.8,0.5,3.9,1.3l-1,1.2c-0.9-0.7-2-1-3-1c-1.7,0-2.9,0.9-2.9,2c0,0.5,0.7,1,2.5,1.7
		c2.3,0.7,3.2,1.5,3.2,2.8c0,2.2-2.2,4-4.8,4C188.8,320.5,187.2,319.9,186,318.8z"/>
</g>
</svg>
