<?xml version="1.0" encoding="utf-8"?>
<!-- Generator: Adobe Illustrator 19.2.0, SVG Export Plug-In . SVG Version: 6.00 Build 0)  -->
<svg version="1.1" id="Layer_1" xmlns="http://www.w3.org/2000/svg" xmlns:xlink="http://www.w3.org/1999/xlink" x="0px" y="0px"
	 viewBox="0 0 294 391" style="enable-background:new 0 0 294 391;" xml:space="preserve">
<style type="text/css">
	.st0{fill:#7A6AA8;}
	.st1{fill:none;stroke:#000000;stroke-width:1.55;stroke-miterlimit:10;}
</style>
<g>
	<path d="M130,74.4h1.8l5.7,9.3v-9.3h1.5v11.5h-1.7l-5.8-9.3v9.3H130V74.4z"/>
</g>
<g>
	<path d="M145.1,120.9h1.8l5.7,9.3v-9.3h1.5v11.5h-1.7l-5.8-9.3v9.3h-1.5V120.9z"/>
</g>
<polygon points="165.5,79.1 164.1,81 141.4,81 141.4,79.1 "/>
<polygon points="174.4,106.5 174.1,108.8 173,108.5 164.1,81 165.5,79.1 "/>
<polygon points="157.9,121.8 156.7,120.3 173,108.5 174.1,108.8 173.1,110.8 "/>
<polygon points="126.2,110.8 125.2,108.8 126.3,108.5 142.6,120.3 141.5,121.8 "/>
<polygon points="130.8,88.5 132.6,89.1 126.3,108.5 125.2,108.8 125,106.4 "/>
<g>
	<path d="M98.4,49.9h2.2l3.3,9.7l3.3-9.7h2.2v11.5h-1.5v-6.8c0-0.2,0-0.6,0-1.2c0-0.5,0-1.1,0-1.7l-3.3,9.7h-1.5l-3.3-9.7v0.4
		c0,0.3,0,0.7,0,1.3s0,1,0,1.3v6.8h-1.5L98.4,49.9L98.4,49.9z"/>
	<path d="M116.8,53.2c0.6,0.3,1,0.6,1.3,1.1c0.3,0.4,0.5,0.9,0.6,1.5c0.1,0.4,0.1,1,0.1,1.8h-6.1c0,0.9,0.2,1.5,0.6,2
		s0.9,0.8,1.7,0.8c0.7,0,1.3-0.2,1.7-0.7c0.2-0.3,0.4-0.6,0.5-1h1.4c0,0.3-0.2,0.6-0.4,1c-0.2,0.4-0.4,0.7-0.7,0.9
		c-0.4,0.4-0.9,0.7-1.6,0.8c-0.3,0.1-0.7,0.1-1.1,0.1c-1,0-1.9-0.4-2.6-1.1s-1.1-1.8-1.1-3.2c0-1.3,0.4-2.4,1.1-3.3s1.7-1.3,2.8-1.3
		C115.6,52.8,116.2,53,116.8,53.2z M117.3,56.5c-0.1-0.6-0.2-1.1-0.4-1.5c-0.4-0.7-1-1-1.9-1c-0.6,0-1.2,0.2-1.6,0.7
		s-0.7,1.1-0.7,1.8H117.3z"/>
</g>
<polygon points="120.1,61.8 121.7,60.7 129.6,71.6 128.1,72.8 "/>
<g>
	<path d="M195.7,115.1h5.1c1,0,1.8,0.3,2.5,0.9c0.6,0.6,0.9,1.4,0.9,2.4c0,0.9-0.3,1.7-0.8,2.3s-1.4,1-2.6,1h-3.6v4.9h-1.6v-11.5
		H195.7z M201.8,116.6c-0.3-0.2-0.8-0.2-1.4-0.2h-3.1v4h3.1c0.7,0,1.3-0.1,1.7-0.4c0.4-0.3,0.6-0.8,0.6-1.6
		C202.7,117.5,202.4,116.9,201.8,116.6z"/>
	<path d="M206.1,115h1.4v4.3c0.3-0.4,0.6-0.7,0.9-0.9c0.5-0.3,1-0.4,1.7-0.4c1.2,0,2,0.4,2.5,1.3c0.2,0.5,0.4,1.1,0.4,1.9v5.4h-1.4
		v-5.3c0-0.6-0.1-1.1-0.2-1.4c-0.3-0.5-0.7-0.7-1.4-0.7c-0.6,0-1.1,0.2-1.6,0.6c-0.5,0.4-0.7,1.2-0.7,2.3v4.4h-1.4V115H206.1z"/>
</g>
<polygon points="193,115.1 191.2,119.1 173.1,110.8 174.1,108.8 174.4,106.5 "/>
<g>
	<path d="M187,51.5c0.8,1,1.1,2.3,1.1,3.9c0,1.7-0.4,3.1-1.3,4.3c-1,1.3-2.5,2-4.4,2c-1.8,0-3.2-0.6-4.2-1.8
		c-0.9-1.1-1.4-2.5-1.4-4.3c0-1.6,0.4-2.9,1.2-4c1-1.4,2.5-2.1,4.4-2.1C184.5,49.6,186,50.2,187,51.5z M185.6,58.9
		c0.6-1,0.9-2.1,0.9-3.4c0-1.4-0.4-2.4-1.1-3.3c-0.7-0.8-1.7-1.2-2.9-1.2s-2.2,0.4-2.9,1.2s-1.1,2-1.1,3.6c0,1.3,0.3,2.3,1,3.2
		c0.6,0.9,1.7,1.3,3.1,1.3C184,60.3,185,59.8,185.6,58.9z"/>
</g>
<polygon points="174.8,60.5 176.4,61.7 162.6,80.6 161,79.5 "/>
<polygon points="178.7,63.4 180.3,64.5 166.5,83.5 164.9,82.3 "/>
<g>
	<path d="M75.1,119h1.4l-0.5,2.3h1.3l-0.2,1.1h-1.3l-1.2,5.5c-0.1,0.3,0,0.5,0.2,0.6c0.1,0.1,0.3,0.1,0.5,0.1c0.1,0,0.1,0,0.2,0
		s0.2,0,0.3,0l-0.2,1.1c-0.2,0-0.3,0.1-0.5,0.1s-0.4,0-0.6,0c-0.7,0-1.1-0.2-1.2-0.5s-0.2-0.8-0.1-1.3l1.2-5.5h-1.1l0.2-1.1h1.1
		L75.1,119z"/>
	<path d="M77.8,124.5h3.9l-0.3,1.4h-3.9L77.8,124.5z"/>
</g>
<g>
	<path d="M82.9,118.2h5c1.4,0,2.3,0.4,2.9,1.2c0.3,0.5,0.5,1,0.5,1.6c0,0.7-0.2,1.3-0.6,1.8c-0.2,0.2-0.5,0.5-0.9,0.7
		c0.6,0.2,1,0.5,1.3,0.8c0.5,0.5,0.8,1.2,0.8,2.1c0,0.7-0.2,1.4-0.7,2c-0.7,0.9-1.8,1.3-3.3,1.3H83v-11.5H82.9z M87.2,123.1
		c0.7,0,1.2-0.1,1.5-0.3c0.6-0.3,0.9-0.8,0.9-1.5c0-0.8-0.3-1.3-0.9-1.5c-0.3-0.1-0.9-0.2-1.5-0.2h-2.8v3.6h2.8V123.1z M87.8,128.4
		c1,0,1.6-0.3,2.1-0.8c0.3-0.3,0.4-0.8,0.4-1.3c0-0.8-0.4-1.4-1.1-1.7c-0.4-0.2-0.9-0.2-1.6-0.2h-3.1v4H87.8z"/>
	<path d="M94.8,121.3v5.6c0,0.4,0.1,0.8,0.2,1c0.2,0.5,0.7,0.8,1.4,0.8c1,0,1.6-0.4,1.9-1.3c0.2-0.5,0.3-1.1,0.3-1.9v-4.1h1.4v8.4
		h-1.3v-1.2c-0.2,0.3-0.4,0.6-0.7,0.8c-0.5,0.4-1.2,0.7-1.9,0.7c-1.2,0-2-0.4-2.4-1.2c-0.2-0.4-0.3-1-0.3-1.7v-5.7h1.4V121.3z"/>
</g>
<polygon points="104,123.6 101.8,119.8 125,106.4 125.2,108.8 126.2,110.8 "/>
<polygon points="150.6,156.3 148.7,157.4 148.7,134.7 150.6,134.7 "/>
<rect x="153.6" y="134.7" width="1.9" height="19.4"/>
<polygon points="176.8,171.4 174.9,172.5 148.7,157.4 150.6,156.3 "/>
<polygon points="176.8,202.2 174.9,202.2 174.9,172.5 176.8,171.4 "/>
<rect x="170.1" y="174.8" width="1.9" height="27.4"/>
<circle class="st0" cx="174.6" cy="206.9" r="12.3"/>
<line class="st1" x1="147.8" y1="108.1" x2="153.2" y2="108.1"/>
<line class="st1" x1="150.5" y1="105.5" x2="150.5" y2="110.8"/>
<g>
	<path d="M79.8,290.4l-0.4,1.6h-10l3.1-15.1h1.7l-2.8,13.5H79.8z"/>
	<path d="M93.9,280.7l-2.4,11.4h-1.7l0.4-1.7c-0.9,1.2-2.5,2-4,2c-2.2,0-3.6-1.4-3.6-3.4c0-0.8,0.2-1.4,1.6-8.2H86
		c-1.4,6.8-1.6,7.3-1.6,7.9c0,1.4,0.8,2.2,2.2,2.2c1.9,0,3.8-1.3,4.2-2.9l1.5-7.3H93.9z"/>
	<path d="M112.9,283.8c0,0.7-0.2,1.2-1.6,8.3h-1.7c1.5-7.3,1.6-7.5,1.6-7.9c0-1.4-0.7-2.3-2-2.3c-1.7,0-3.4,1.2-3.7,3
		c-0.2,1-0.6,2.8-1.5,7.2h-1.7c1.5-7.3,1.6-7.5,1.6-7.9c0-1.4-0.7-2.3-2-2.3c-1.6,0-3.3,1.2-3.7,2.8l-1.5,7.3H95l2.4-11.4H99
		l-0.3,1.6c0.8-1.2,2.1-1.8,3.6-1.8c1.7,0,2.9,0.9,3.2,2.4c0.7-1.5,2.4-2.4,4.1-2.4C111.6,280.4,112.9,281.8,112.9,283.8z"/>
	<path d="M115.1,287.5c0-3.8,3.3-7.1,7.2-7.1c2.6,0,4.8,2.2,4.8,4.8c0,3.8-3.3,7.1-7.3,7.1C117.3,292.3,115.1,290.1,115.1,287.5z
		 M125.4,285.4c0-1.9-1.5-3.5-3.4-3.5c-2.8,0-5.1,2.5-5.1,5.5c0,1.9,1.5,3.5,3.3,3.5C123,290.8,125.4,288.3,125.4,285.4z"/>
	<path d="M129.5,285.3h5.7l-0.4,1.6h-5.7L129.5,285.3z"/>
	<path d="M139.9,276.7h1.7l-3.2,15.4h-1.7L139.9,276.7z"/>
	<path d="M142.2,287.5c0-3.8,3.3-7.1,7.2-7.1c2.6,0,4.8,2.2,4.8,4.8c0,3.8-3.3,7.1-7.3,7.1C144.3,292.3,142.2,290.1,142.2,287.5z
		 M152.4,285.4c0-1.9-1.5-3.5-3.4-3.5c-2.8,0-5.1,2.5-5.1,5.5c0,1.9,1.5,3.5,3.3,3.5C150,290.8,152.4,288.3,152.4,285.4z"/>
	<path d="M156.6,280.7h1.7l0.9,9.2l5-9.2h1.4l1.2,9.2l4.8-9.2h1.8l-6.2,11.4h-1.6l-1.1-9.1l-5,9.1h-1.6L156.6,280.7z"/>
	<path d="M175,287c0,0.2,0,0.3,0,0.4c0,2.1,1.2,3.4,3.3,3.4c1.4,0,3-0.6,3.9-1.4l0.9,1.2c-1.2,1.1-3.5,1.7-5,1.7
		c-2.7,0-4.6-1.9-4.6-4.8c0-3.8,3.4-7.2,7-7.2c2.1,0,4.1,1.2,4.1,3.1c0,2-2,3.4-5.4,3.4H175V287z M175.4,285.5h4
		c2.2,0,3.5-0.7,3.5-1.9c0-1.1-1.1-1.8-2.6-1.8C177.9,281.9,176.1,283.5,175.4,285.5z"/>
	<path d="M194,280.4l-0.2,1.5c-2.6,0-4.8,1.6-5.3,3.8l-1.3,6.3h-1.6l2.4-11.3h1.7l-0.5,2.2C190.1,281.3,191.9,280.4,194,280.4z"/>
	<path d="M196.3,280.7h1.7l-2.4,11.4H194L196.3,280.7z M196.6,277.6c0-0.6,0.5-1.2,1.2-1.2c0.6,0,1,0.4,1,1c0,0.6-0.6,1.2-1.2,1.2
		C197,278.6,196.6,278.1,196.6,277.6z"/>
	<path d="M210.2,283.8c0,0.8-0.2,1.4-1.6,8.2h-1.7c1.4-6.8,1.6-7.3,1.6-7.9c0-1.4-0.8-2.2-2.2-2.2c-1.9,0-3.8,1.3-4.2,2.9l-1.5,7.3
		H199l2.4-11.4h1.7l-0.4,1.7c0.9-1.2,2.5-2,4-2C208.8,280.4,210.2,281.8,210.2,283.8z"/>
	<path d="M224.5,280.7l-2.1,10.2c-0.6,3-3.4,4.9-6.5,4.9c-1.9,0-3.5-0.7-4.3-1.6l0.9-1.2c0.7,0.8,1.9,1.3,3.4,1.3
		c2.6,0,4.5-1.4,5-3.6l0.4-1.7c-1.2,1.3-2.7,2.1-4.5,2.1c-2.6,0-4.3-1.7-4.3-4.3c0-3.4,2.8-6.5,6.3-6.5c2,0,3.2,1,3.8,2.3l0.4-2.1
		h1.5V280.7z M221.7,286l0.1-0.5c0-0.2,0-0.4,0-0.6c0-1.8-1.1-2.9-3-2.9c-2.7,0-4.9,2.3-4.9,4.9c0,1.8,1.1,3,3,3
		C219.3,289.7,221.2,288,221.7,286z"/>
	<path d="M101.6,315.5c0-3.8,3.3-7.1,7.2-7.1c1.3,0,2.8,0.7,3.7,1.7l-1.3,1c-0.5-0.7-1.7-1.3-2.7-1.3c-2.8,0-5.2,2.5-5.2,5.5
		c0,1.9,1.5,3.5,3.3,3.5c1.1,0,2.2-0.5,3.3-1.4l1,1.2c-1.4,1.1-2.9,1.7-4.5,1.7C103.7,320.3,101.6,318.1,101.6,315.5z"/>
	<path d="M126,308.7l-2.4,11.4H122l0.4-2.1c-1.1,1.5-2.8,2.4-4.5,2.4c-2.3,0-4.3-2.1-4.3-4.5c0-4,3.1-7.4,6.7-7.4
		c1.5,0,2.9,1.1,3.5,2.7l0.5-2.4L126,308.7L126,308.7z M123.3,313c0-1.7-1.5-3.2-3.3-3.2c-2.6,0-4.7,2.6-4.7,5.8
		c0,1.7,1.3,3.2,2.9,3.2C121,318.8,123.3,316.2,123.3,313z"/>
	<path d="M131.8,310.1c-1.7,7.9-1.6,7.5-1.6,7.7c0,0.6,0.4,1,0.9,1c0.6,0,1.1-0.2,1.4-0.5l0.7,1.3c-0.7,0.5-1.5,0.7-2.2,0.7
		c-1.4,0-2.3-0.9-2.3-2.3c0-0.5,0.1-0.9,1.6-7.9h-1.8l0.3-1.5h1.8l0.7-3.1h1.6l-0.7,3.1h2.8l-0.3,1.5L131.8,310.1L131.8,310.1z"/>
	<path d="M148.3,308.7l-2.4,11.4h-1.7l0.4-2.1c-1.1,1.5-2.8,2.4-4.5,2.4c-2.3,0-4.3-2.1-4.3-4.5c0-4,3.1-7.4,6.7-7.4
		c1.5,0,2.9,1.1,3.5,2.7l0.5-2.4L148.3,308.7L148.3,308.7z M145.6,313c0-1.7-1.5-3.2-3.3-3.2c-2.6,0-4.7,2.6-4.7,5.8
		c0,1.7,1.3,3.2,2.9,3.2C143.3,318.8,145.6,316.2,145.6,313z"/>
	<path d="M152.6,304.7h1.7l-3.2,15.4h-1.7L152.6,304.7z"/>
	<path d="M153.6,323.6l0.6-1.4c0.4,0.2,0.8,0.3,1.2,0.3c0.8,0,1.4-0.3,2-1.1l1-1.3l-2.6-11.4h1.8l2,9.5l5.7-9.5h1.8l-7.8,12.7
		c-1.2,1.9-2.4,2.6-3.9,2.6C154.7,324,154.1,323.8,153.6,323.6z"/>
	<path d="M167.1,318.6l1-1.1c1,0.9,2.3,1.4,3.5,1.4c1.7,0,3.1-1,3.1-2.2c0-0.7-0.7-1.1-2.4-1.7c-2.4-0.7-3.3-1.5-3.3-2.7
		c0-2.3,1.9-3.8,4.6-3.8c1.3,0,2.8,0.5,3.9,1.3l-1,1.2c-0.9-0.7-2-1-3-1c-1.7,0-2.9,0.9-2.9,2c0,0.5,0.7,1,2.5,1.7
		c2.3,0.7,3.2,1.5,3.2,2.8c0,2.2-2.2,4-4.8,4C169.9,320.3,168.3,319.7,167.1,318.6z"/>
	<path d="M180.7,308.7h1.7l-2.4,11.4h-1.7L180.7,308.7z M181,305.6c0-0.6,0.5-1.2,1.2-1.2c0.6,0,1,0.4,1,1c0,0.6-0.6,1.2-1.2,1.2
		C181.4,306.6,181,306.1,181,305.6z"/>
	<path d="M182.9,318.6l1-1.1c1,0.9,2.3,1.4,3.5,1.4c1.7,0,3.1-1,3.1-2.2c0-0.7-0.7-1.1-2.4-1.7c-2.4-0.7-3.3-1.5-3.3-2.7
		c0-2.3,1.9-3.8,4.6-3.8c1.3,0,2.8,0.5,3.9,1.3l-1,1.2c-0.9-0.7-2-1-3-1c-1.7,0-2.9,0.9-2.9,2c0,0.5,0.7,1,2.5,1.7
		c2.3,0.7,3.2,1.5,3.2,2.8c0,2.2-2.2,4-4.8,4C185.8,320.3,184.1,319.7,182.9,318.6z"/>
</g>
</svg>
