<svg id="organo-intro" version="1.1" xmlns="http://www.w3.org/2000/svg" xmlns:xlink="http://www.w3.org/1999/xlink" viewBox="0 0 265 288">
<circle stroke="#3B97C8" stroke-width="4.5" fill="none" cx="150.66" cy="143.66" r="111.66" style="stroke-dasharray: 569 710; stroke-dashoffset: 0; transform: rotate(-194deg); transform-origin: 50%;"></circle>
<g>
	<path d="M133.8,104.7h1.8l5.7,9.3v-9.3h1.5v11.5h-1.7l-5.8-9.3v9.3h-1.5V104.7z"/>
</g>
<g>
	<path d="M148.9,151.3h1.8l5.7,9.3v-9.3h1.5v11.5h-1.7l-5.8-9.3v9.3h-1.5V151.3z"/>
</g>
<g>
	<path d="M148.9,164.6h1.6v4.7h5.9v-4.7h1.6v11.5h-1.6v-5.4h-5.9v5.4h-1.6V164.6z"/>
</g>
<polygon points="169.3,109.5 167.9,111.5 145.3,111.5 145.3,109.5 "/>
<polygon points="178.2,137 177.9,139.2 176.8,138.8 167.9,111.5 169.3,109.5 "/>
<polygon points="161.7,152.2 160.5,150.7 176.8,138.8 177.9,139.2 176.9,141.2 "/>
<polygon points="130,141.2 129,139.2 130.1,138.8 146.4,150.7 145.3,152.2 "/>
<polygon points="134.6,119 136.4,119.5 130.1,138.8 129,139.2 128.8,136.8 "/>
<g>
	<path d="M102.2,80.3h2.2l3.3,9.7l3.3-9.7h2.2v11.5h-1.5V85c0-0.2,0-0.6,0-1.2c0-0.5,0-1.1,0-1.7l-3.3,9.7H107l-3.3-9.7v0.4
		c0,0.3,0,0.7,0,1.3c0,0.6,0,1,0,1.3v6.8h-1.5V80.3z"/>
	<path d="M120.6,83.7c0.6,0.3,1,0.6,1.3,1.1c0.3,0.4,0.5,0.9,0.6,1.5c0.1,0.4,0.1,1,0.1,1.8h-6.1c0,0.9,0.2,1.5,0.6,2
		c0.4,0.5,0.9,0.8,1.7,0.8c0.7,0,1.3-0.2,1.7-0.7c0.2-0.3,0.4-0.6,0.5-1h1.4c0,0.3-0.2,0.6-0.4,1c-0.2,0.4-0.4,0.7-0.7,0.9
		c-0.4,0.4-0.9,0.7-1.6,0.8c-0.3,0.1-0.7,0.1-1.1,0.1c-1,0-1.9-0.4-2.6-1.1s-1.1-1.8-1.1-3.2c0-1.3,0.4-2.4,1.1-3.3
		c0.7-0.8,1.7-1.3,2.8-1.3C119.4,83.2,120,83.4,120.6,83.7z M121.1,86.9c-0.1-0.6-0.2-1.1-0.4-1.5c-0.4-0.7-1-1-1.9-1
		c-0.6,0-1.2,0.2-1.6,0.7c-0.4,0.5-0.7,1.1-0.7,1.8H121.1z"/>
</g>
<polygon points="123.9,92.2 125.5,91.1 133.4,102 131.9,103.2 "/>
<g>
	<path d="M199.5,145.5h5.1c1,0,1.8,0.3,2.5,0.9s0.9,1.4,0.9,2.4c0,0.9-0.3,1.7-0.8,2.3c-0.6,0.7-1.4,1-2.6,1h-3.6v4.9h-1.6V145.5z
		 M205.6,147.1c-0.3-0.2-0.8-0.2-1.4-0.2h-3.1v4h3.1c0.7,0,1.3-0.1,1.7-0.4c0.4-0.3,0.6-0.8,0.6-1.6
		C206.5,147.9,206.2,147.4,205.6,147.1z"/>
	<path d="M209.9,145.4h1.4v4.3c0.3-0.4,0.6-0.7,0.9-0.9c0.5-0.3,1-0.4,1.7-0.4c1.2,0,2,0.4,2.5,1.3c0.2,0.5,0.4,1.1,0.4,1.9v5.4
		h-1.4v-5.3c0-0.6-0.1-1.1-0.2-1.4c-0.3-0.5-0.7-0.7-1.4-0.7c-0.6,0-1.1,0.2-1.6,0.6c-0.5,0.4-0.7,1.2-0.7,2.3v4.4h-1.4V145.4z"/>
</g>
<polygon points="196.8,145.5 195,149.5 176.9,141.2 177.9,139.2 178.2,137 "/>
<g>
	<path d="M190.8,82c0.8,1,1.1,2.3,1.1,3.9c0,1.7-0.4,3.1-1.3,4.3c-1,1.3-2.5,2-4.4,2c-1.8,0-3.2-0.6-4.2-1.8
		c-0.9-1.1-1.4-2.5-1.4-4.3c0-1.6,0.4-2.9,1.2-4c1-1.4,2.5-2.1,4.4-2.1C188.3,80,189.8,80.7,190.8,82z M189.4,89.3
		c0.6-1,0.9-2.1,0.9-3.4c0-1.4-0.4-2.4-1.1-3.3c-0.7-0.8-1.7-1.2-2.9-1.2c-1.2,0-2.2,0.4-2.9,1.2c-0.8,0.8-1.1,2-1.1,3.6
		c0,1.3,0.3,2.3,1,3.2s1.7,1.3,3.1,1.3C187.8,90.8,188.8,90.3,189.4,89.3z"/>
</g>
<polygon points="178.6,91 180.2,92 166.4,111 164.8,109.9 "/>
<polygon points="182.5,93.8 184.1,94.9 170.3,113.9 168.7,112.8 "/>
<g>
	<path d="M78.9,149.4h1.4l-0.5,2.3h1.3l-0.2,1.1h-1.3l-1.2,5.5c-0.1,0.3,0,0.5,0.2,0.6c0.1,0.1,0.3,0.1,0.5,0.1c0.1,0,0.1,0,0.2,0
		c0.1,0,0.2,0,0.3,0l-0.2,1.1c-0.2,0-0.3,0.1-0.5,0.1c-0.2,0-0.4,0-0.6,0c-0.7,0-1.1-0.2-1.2-0.5s-0.2-0.8-0.1-1.3l1.2-5.5h-1.1
		l0.2-1.1h1.1L78.9,149.4z"/>
	<path d="M81.6,154.9h3.9l-0.3,1.4h-3.9L81.6,154.9z"/>
</g>
<g>
	<path d="M86.7,148.6h5c1.4,0,2.3,0.4,2.9,1.2c0.3,0.5,0.5,1,0.5,1.6c0,0.7-0.2,1.3-0.6,1.8c-0.2,0.2-0.5,0.5-0.9,0.7
		c0.6,0.2,1,0.5,1.3,0.8c0.5,0.5,0.8,1.2,0.8,2.1c0,0.7-0.2,1.4-0.7,2c-0.7,0.9-1.8,1.3-3.3,1.3h-4.9V148.6z M91.1,153.5
		c0.7,0,1.2-0.1,1.5-0.3c0.6-0.3,0.9-0.8,0.9-1.5c0-0.8-0.3-1.3-0.9-1.5c-0.3-0.1-0.9-0.2-1.5-0.2h-2.8v3.6H91.1z M91.6,158.8
		c1,0,1.6-0.3,2.1-0.8c0.3-0.3,0.4-0.8,0.4-1.3c0-0.8-0.4-1.4-1.1-1.7c-0.4-0.2-0.9-0.2-1.6-0.2h-3.1v4H91.6z"/>
	<path d="M98.6,151.7v5.6c0,0.4,0.1,0.8,0.2,1c0.2,0.5,0.7,0.8,1.4,0.8c1,0,1.6-0.4,1.9-1.3c0.2-0.5,0.3-1.1,0.3-1.9v-4.1h1.4v8.4
		h-1.3l0-1.2c-0.2,0.3-0.4,0.6-0.7,0.8c-0.5,0.4-1.2,0.7-1.9,0.7c-1.2,0-2-0.4-2.4-1.2c-0.2-0.4-0.3-1-0.3-1.7v-5.7H98.6z"/>
</g>
<polygon points="107.8,154 105.6,150.2 128.8,136.8 129,139.2 130,141.2 "/>
<g>
	<path fill="#252525" d="M2.5,199h2.6l-2.3,10.9H0.3L2.5,199z M2.9,196c0-0.8,0.8-1.6,1.6-1.6c0.8,0,1.3,0.6,1.3,1.3
		c0,0.8-0.8,1.6-1.6,1.6C3.5,197.3,2.9,196.7,2.9,196z"/>
	<path fill="#252525" d="M23.7,202c0,0.7-0.1,1.1-1.5,7.8h-2.5c1.3-6.1,1.5-6.9,1.5-7.2c0-1.1-0.5-1.7-1.6-1.7c-1.4,0-2.8,1-3,2.4
		c-0.2,0.9-0.6,2.7-1.4,6.6h-2.5c1.3-6.1,1.5-6.9,1.4-7.2c0-1-0.5-1.7-1.6-1.7c-1.3,0-2.6,0.9-3,2.2l-1.4,6.7H5.6L7.9,199h2.6
		l-0.3,1.4c0.7-1,1.9-1.6,3.2-1.6c1.5,0,2.7,0.8,3.1,2.1c0.8-1.3,2.3-2.1,3.8-2.1C22.4,198.7,23.7,200.1,23.7,202z"/>
	<path fill="#252525" d="M27.2,199h2.6l-2.3,10.9h-2.6L27.2,199z M27.6,196c0-0.8,0.8-1.6,1.6-1.6c0.8,0,1.3,0.6,1.3,1.3
		c0,0.8-0.8,1.6-1.6,1.6C28.2,197.3,27.6,196.7,27.6,196z"/>
	<path fill="#252525" d="M44.2,195.2l-3,14.7h-2.6l0.3-1.6c-1,1.2-2.4,1.9-4,1.9c-2.4,0-4.1-1.9-4.1-4.4c0-3.7,2.8-7,6.3-7
		c1.5,0,2.7,0.9,3.4,2.2l1.2-5.8H44.2z M39.9,203.3c0-1.3-1.1-2.4-2.5-2.4c-2.2,0-4,2.1-4,4.6c0,1.4,1,2.4,2.4,2.4
		C38,207.9,39.9,205.8,39.9,203.3z"/>
	<path fill="#252525" d="M57.2,199L55,209.8h-2.6l0.3-1.6c-1,1.2-2.4,1.9-4,1.9c-2.4,0-4.1-1.9-4.1-4.4c0-3.7,2.8-7,6.3-7
		c1.5,0,2.8,0.9,3.4,2.2l0.4-2H57.2z M53.6,203.3c0-1.3-1.1-2.4-2.5-2.4c-2.2,0-4,2.1-4,4.6c0,1.4,1,2.4,2.4,2.4
		C51.8,207.9,53.6,205.8,53.6,203.3z"/>
	<path fill="#252525" d="M57.8,208l7.2-6.7h-5.6l0.5-2.2h9l-0.4,1.9l-7.2,6.7h5.8l-0.5,2.2h-9.2L57.8,208z"/>
	<path fill="#252525" d="M69.4,205.4c0-3.6,3.3-6.6,6.9-6.6c2.7,0,4.9,2.1,4.9,4.7c0,3.6-3.3,6.6-7,6.6C71.5,210.1,69.4,208,69.4,205.4
		z M78.7,203.6c0-1.4-1.2-2.6-2.6-2.6c-2.2,0-4.2,2.1-4.2,4.3c0,1.4,1.2,2.6,2.6,2.6C76.7,207.9,78.7,205.8,78.7,203.6z"/>
	<path fill="#252525" d="M85.3,195.2h2.6l-3,14.7h-2.6L85.3,195.2z"/>
	<path fill="#252525" d="M89.9,199h2.6l-2.3,10.9h-2.6L89.9,199z M90.3,196c0-0.8,0.8-1.6,1.6-1.6c0.8,0,1.3,0.6,1.3,1.3
		c0,0.8-0.8,1.6-1.6,1.6C90.8,197.3,90.3,196.7,90.3,196z"/>
	<path fill="#252525" d="M106.9,195.2l-3,14.7h-2.6l0.3-1.6c-1,1.2-2.4,1.9-4,1.9c-2.4,0-4.1-1.9-4.1-4.4c0-3.7,2.8-7,6.3-7
		c1.5,0,2.7,0.9,3.4,2.2l1.2-5.8H106.9z M102.5,203.3c0-1.3-1.1-2.4-2.5-2.4c-2.2,0-4,2.1-4,4.6c0,1.4,1,2.4,2.4,2.4
		C100.7,207.9,102.5,205.8,102.5,203.3z"/>
	<path fill="#252525" d="M109,199h2.6l-2.3,10.9h-2.6L109,199z M109.4,196c0-0.8,0.8-1.6,1.6-1.6c0.8,0,1.3,0.6,1.3,1.3
		c0,0.8-0.8,1.6-1.6,1.6C110,197.3,109.4,196.7,109.4,196z"/>
	<path fill="#252525" d="M123.6,202c0,0.8-0.2,1.3-1.5,7.8h-2.5c1.3-6.3,1.4-6.7,1.4-7.2c0-1.1-0.6-1.7-1.7-1.7c-1.5,0-2.9,1-3.3,2.2
		l-1.4,6.7h-2.6l2.3-10.9h2.6l-0.3,1.3c0.8-0.9,2.1-1.6,3.5-1.6C122.3,198.7,123.6,200.1,123.6,202z"/>
	<path fill="#252525" d="M125.4,205.4c0-3.6,3.3-6.6,6.9-6.6c2.7,0,4.9,2.1,4.9,4.7c0,3.6-3.3,6.6-7,6.6
		C127.5,210.1,125.4,208,125.4,205.4z M134.7,203.6c0-1.4-1.2-2.6-2.6-2.6c-2.2,0-4.2,2.1-4.2,4.3c0,1.4,1.2,2.6,2.6,2.6
		C132.7,207.9,134.7,205.8,134.7,203.6z"/>
	<path fill="#252525" d="M149.7,202c0,0.8-0.2,1.3-1.5,7.8h-2.5c1.3-6.3,1.4-6.7,1.4-7.2c0-1.1-0.6-1.7-1.7-1.7c-1.5,0-2.9,1-3.3,2.2
		l-1.4,6.7h-2.6l2.3-10.9h2.6l-0.3,1.3c0.8-0.9,2.1-1.6,3.5-1.6C148.3,198.7,149.7,200.1,149.7,202z"/>
	<path fill="#252525" d="M153.8,205.3v0.2c0,1.5,0.8,2.3,2.4,2.3c1.1,0,2.4-0.5,3.2-1.2l1.4,1.8c-1.2,1-3,1.6-4.7,1.6
		c-2.8,0-4.6-1.8-4.6-4.6c0-3.7,3.1-6.8,6.7-6.8c2.3,0,4,1.2,4,3c0,2.2-2,3.6-5.2,3.6H153.8z M154.3,203.3h2.9
		c1.5,0,2.4-0.4,2.4-1.2c0-0.7-0.7-1.1-1.6-1.1C156.3,201,155,202,154.3,203.3z"/>
</g>
<g>
	<path fill="#252525" d="M41.1,236.6c0-3.6,3.3-6.6,7-6.6c1.6,0,3,0.8,3.8,1.8l-1.9,1.4c-0.4-0.6-1.3-1-2.2-1c-2.2,0-4.2,2.1-4.2,4.3
		c0,1.4,1.1,2.6,2.5,2.6c1,0,2-0.5,2.8-1.2l1.5,1.7c-1.3,1.2-2.8,1.7-4.5,1.7C43.2,241.4,41.1,239.2,41.1,236.6z"/>
	<path fill="#252525" d="M65.2,230.2L63,241.1h-2.6l0.3-1.6c-1,1.2-2.4,1.9-4,1.9c-2.4,0-4.1-1.9-4.1-4.4c0-3.7,2.8-7,6.3-7
		c1.5,0,2.8,0.9,3.4,2.2l0.4-2H65.2z M61.6,234.6c0-1.3-1.1-2.4-2.5-2.4c-2.2,0-4,2.1-4,4.6c0,1.4,1,2.4,2.4,2.4
		C59.8,239.2,61.6,237,61.6,234.6z"/>
	<path fill="#252525" d="M70.9,232.4c-1.2,5.8-1.2,5.8-1.2,6c0,0.5,0.3,0.8,0.7,0.8c0.5,0,1-0.3,1.3-0.5l0.5,1.8
		c-0.7,0.5-1.6,0.8-2.4,0.8c-1.6,0-2.6-1-2.6-2.5c0-0.5,0.1-0.9,1.3-6.5h-1.6l0.4-2.1h1.6l0.6-3H72l-0.6,3h2.5l-0.5,2.1H70.9z"/>
	<path fill="#252525" d="M87.2,230.2l-2.3,10.9h-2.6l0.3-1.6c-1,1.2-2.4,1.9-4,1.9c-2.4,0-4.1-1.9-4.1-4.4c0-3.7,2.8-7,6.3-7
		c1.5,0,2.8,0.9,3.4,2.2l0.4-2H87.2z M83.6,234.6c0-1.3-1.1-2.4-2.5-2.4c-2.2,0-4,2.1-4,4.6c0,1.4,1,2.4,2.4,2.4
		C81.7,239.2,83.6,237,83.6,234.6z"/>
	<path fill="#252525" d="M90.9,226.4h2.6l-3,14.7h-2.6L90.9,226.4z"/>
	<path fill="#252525" d="M92.4,244.3l0.8-1.8c0.4,0.3,0.9,0.4,1.3,0.4c0.6,0,1.2-0.3,1.6-0.8l0.7-0.9l-2.3-10.9h2.6l1.5,8.1l4.7-8.1
		h2.7L99,242c-1.2,2.1-2.6,2.9-4.2,2.9C93.9,244.9,93,244.6,92.4,244.3z"/>
	<path fill="#252525" d="M105.3,239.7l1.4-1.7c0.9,0.8,2.2,1.2,3.2,1.2c1.3,0,2.3-0.6,2.3-1.4c0-0.4-0.3-0.8-1.8-1.2
		c-2.2-0.6-3.4-1.1-3.4-2.8c0-2.2,2-3.8,4.7-3.8c1.5,0,2.9,0.5,4,1.4l-1.3,1.8c-0.8-0.6-1.8-0.9-2.7-0.9c-1.2,0-2.1,0.5-2.1,1.3
		c0,0.4,0.4,0.7,1.9,1.2c2.1,0.6,3.3,1.2,3.3,2.9c0,2.2-2.1,3.9-4.9,3.9C108.2,241.4,106.5,240.7,105.3,239.7z"/>
	<path fill="#252525" d="M121.4,232.4c-1.2,5.8-1.2,5.8-1.2,6c0,0.5,0.3,0.8,0.7,0.8c0.5,0,1-0.3,1.3-0.5l0.5,1.8
		c-0.7,0.5-1.6,0.8-2.4,0.8c-1.6,0-2.6-1-2.6-2.5c0-0.5,0.1-0.9,1.3-6.5h-1.6l0.4-2.1h1.6l0.6-3h2.5l-0.6,3h2.5l-0.5,2.1H121.4z"/>
</g>
</svg>
