<svg id="photoredox" version="1.1" xmlns="http://www.w3.org/2000/svg" xmlns:xlink="http://www.w3.org/1999/xlink" viewBox="0 0 404.8 410.2">
<polygon points="129.5,192.3 130.4,193 130.4,194 100,202.9 98.1,201.4 "/>
<polygon points="130.1,197 130.7,198.9 104.1,206.7 103.5,204.8 "/>
<polygon points="129.5,175.3 130.4,174.6 131.4,175.3 131.4,192.3 130.4,193 129.5,192.3 "/>
<polygon points="98.1,166.2 100,164.7 130.4,173.6 130.4,174.6 129.5,175.3 "/>
<polygon points="103.5,162.8 104.1,160.9 130.7,168.7 130.1,170.5 "/>
<polygon points="160.9,164.7 162.8,166.2 131.4,175.3 130.4,174.6 130.4,173.6 "/>
<polygon points="160.9,147.8 162.8,146.3 162.8,166.2 160.9,164.7 "/>
<polygon points="156.1,150.7 158.1,150.7 158,161.8 156.1,161.8 "/>
<polygon points="130.4,138.9 130.4,136.9 162.8,146.3 160.9,147.8 "/>
<polygon points="100,147.8 98.1,146.3 130.4,136.9 130.4,138.9 "/>
<polygon points="104.1,151.6 103.6,149.7 130.2,141.9 130.7,143.8 "/>
<polygon points="100,164.7 98.1,166.2 98.1,146.3 100,147.8 "/>
<g>
	<path d="M157.3,196.4h1.8l5.7,9.3v-9.3h1.5v11.5h-1.7l-5.8-9.3v9.3h-1.5V196.4z"/>
</g>
<polygon points="99.9,218.5 98,222.5 98.1,201.4 100,202.9 "/>
<polygon points="130.4,227.4 130.4,232 98,222.5 99.9,218.5 "/>
<polygon points="130.7,222.5 130.1,224.3 104.7,216.9 105.3,215.1 "/>
<polygon points="160.9,218.5 162.8,222.5 130.4,232 130.4,227.4 "/>
<polygon points="160.9,210.2 162.8,210.2 162.8,222.5 160.9,218.5 "/>
<polygon points="156.1,210.2 158,210.2 158,216.9 156.1,216.9 "/>
<polygon points="130.4,194 130.4,193 131.4,192.3 154.4,199 153.9,200.8 "/>
<g>
	<path d="M196.4,178.3h1.8v12.9h-1.8V178.3z"/>
	<path d="M200.8,181.8h1.5v1.6c0.1-0.3,0.4-0.7,0.9-1.2c0.5-0.5,1-0.7,1.7-0.7c0,0,0.1,0,0.1,0s0.2,0,0.4,0v1.7c-0.1,0-0.2,0-0.3,0
		s-0.2,0-0.3,0c-0.8,0-1.4,0.3-1.8,0.8c-0.4,0.5-0.6,1.1-0.6,1.8v5.4h-1.6V181.8z"/>
</g>
<rect x="200.9" y="149.9" width="1.9" height="26"/>
<polygon points="202.8,217.3 201.9,219.5 200.9,219.1 200.9,193.5 202.8,193.5 "/>
<polygon points="165.8,171 168.7,165.1 170.3,166 167.6,171.7 "/>
<polygon points="172,173.4 174.4,168.4 176,169.4 173.8,174.1 "/>
<polygon points="178.2,175.7 180.1,171.8 181.7,172.8 180,176.4 "/>
<polygon points="184.4,178.1 185.8,175.1 187.5,176.1 186.2,178.8 "/>
<polygon points="190.5,180.5 191.5,178.5 193.2,179.5 192.3,181.2 "/>
<polygon points="171.3,201.6 168.6,195.6 192.4,187.8 193.2,189.5 "/>
<polygon points="186.5,238.6 184.5,237.9 200.9,219.1 201.9,219.5 201,221.9 "/>
<polygon points="191,240.7 189.6,239.4 201.1,226.2 202.6,227.4 "/>
<polygon points="186.5,274.2 184.5,274.9 184.5,237.9 186.5,238.6 "/>
<polygon points="201.9,290.7 201.9,293.5 184.5,274.9 186.5,274.2 "/>
<polygon points="202.5,284.4 201.1,285.7 189.6,273.3 191,272 "/>
<polygon points="216,275.5 220.3,273.6 201.9,293.5 201.9,290.7 "/>
<polygon points="216,239.1 218.2,238.2 220.3,238.2 220.3,273.6 216,275.5 "/>
<rect x="210.2" y="240.9" width="1.9" height="30.9"/>
<polygon points="201,221.9 201.9,219.5 202.8,217.3 219.5,236.5 218.2,238.2 216,239.1 "/>
<g>
	<path d="M197.9,138.5h1.8l5.7,9.3v-9.3h1.5V150h-1.7l-5.8-9.3v9.3h-1.5V138.5z"/>
</g>
<polygon points="217.8,125.7 218.8,126 219,127.3 209.7,137.6 208.3,136.3 "/>
<polygon points="213.3,123.6 214.7,124.9 206.1,134.4 204.7,133.1 "/>
<polygon points="217.8,90.1 219.7,89.4 219.7,125.5 218.8,126 217.8,125.7 "/>
<polygon points="203.5,73.9 201.9,69.1 219.7,89.4 217.8,90.1 "/>
<polygon points="201.9,79.3 203.3,78 214.7,90.9 213.3,92.2 "/>
<polygon points="188.1,90.6 183.7,88.9 201.9,69.1 203.5,73.9 "/>
<polygon points="188.1,125.2 183.7,126.9 183.7,88.9 188.1,90.6 "/>
<rect x="192" y="92.5" width="1.9" height="30.9"/>
<polygon points="197.6,135.5 194.3,138.5 183.7,126.9 188.1,125.2 "/>
<polygon points="265.3,163 266.1,164.9 239,165.7 243.5,163.7 "/>
<polygon points="263.7,158.3 263.7,160.2 246.4,160.7 246.4,158.8 "/>
<polygon points="291,138.5 292.9,139.3 266.1,164.9 265.3,163 "/>
<polygon points="291.2,111.8 293.1,109.4 292.9,139.3 291,138.5 "/>
<polygon points="286.4,116.4 288.3,116.4 288.1,136.9 286.2,136.9 "/>
<polygon points="272,115.6 266.6,114.7 293.1,109.4 291.2,111.8 "/>
<polygon points="245.1,141.2 243,140.2 241.8,138.4 266.6,114.7 272,115.6 "/>
<polygon points="250.5,144.1 249.2,142.7 272,121 273.4,122.3 "/>
<polygon points="243.5,163.7 239,165.7 240.8,140 243,140.2 245.1,141.2 "/>
<polygon points="234.5,164.5 237.4,170.3 235.7,171.1 232.8,165.5 "/>
<polygon points="228.2,168.3 230.6,173.2 228.9,173.9 226.5,169.3 "/>
<polygon points="221.9,172.1 223.9,176 222.1,176.7 220.2,173.1 "/>
<polygon points="215.6,175.9 217.1,178.8 215.3,179.6 213.9,176.9 "/>
<polygon points="209.3,179.7 210.3,181.7 208.5,182.4 207.6,180.7 "/>
<polygon points="241.8,138.4 243,140.2 240.8,140 219,127.3 218.8,126 219.7,125.5 "/>
<g>
	<path d="M236.3,196.5h1.8l5.7,9.3v-9.3h1.5V208h-1.7l-5.8-9.3v9.3h-1.5V196.5z"/>
</g>
<polygon points="242.5,226 241.5,226.5 240.6,225.9 240.1,210.3 242,210.3 "/>
<polygon points="247.2,224.2 245.3,224.3 244.9,210.2 246.8,210.1 "/>
<polygon points="270.4,250 269.7,251.9 241.4,227.6 241.5,226.5 242.5,226 "/>
<polygon points="290.5,250.2 294.9,252.2 269.7,251.9 270.4,250 "/>
<polygon points="287.8,245.4 287.8,247.3 271.8,247.2 271.8,245.3 "/>
<polygon points="290,227.8 294.3,225.8 294.9,252.2 290.5,250.2 "/>
<polygon points="264.6,204.5 266.3,200.1 294.3,225.8 290,227.8 "/>
<polygon points="262,210 263.3,208.6 285.9,229.2 284.6,230.6 "/>
<polygon points="247.7,204.4 247.7,200.1 266.3,200.1 264.6,204.5 "/>
<polygon points="234.1,195.6 231.4,201.6 206.1,187.7 206.8,185.9 "/>
<polygon points="220.3,238.2 218.2,238.2 219.5,236.5 240.6,225.9 241.5,226.5 241.4,227.6 "/>
<circle cx="202" cy="208" r="197.8" stroke="#EC9533" fill="none" stroke-width="9" style="stroke-dasharray: 1215 1600; stroke-dashoffset: 228; transform-origin: 50%; transform: rotate(-53deg);"></circle>
<g>
	<path d="M149.7,319.6h2.1l3.2,8l3.2-8h2.1L156,330h-1.9L149.7,319.6z"/>
	<path d="M162,316.7c0-0.6,0.5-1.2,1.2-1.2c0.6,0,1.2,0.6,1.2,1.2s-0.5,1.2-1.2,1.2C162.5,317.9,162,317.4,162,316.7z M162.2,319.6
		h2V330h-2V319.6z"/>
	<path d="M166.4,328.7l0.9-1.4c1.1,0.8,2.3,1.3,3.5,1.3s2-0.5,2-1.3c0-1-1.1-1.3-2.3-1.6c-2.4-0.7-3.6-1.3-3.6-3
		c0-1.9,1.6-3.1,3.8-3.1c1.3,0,2.7,0.5,3.8,1.2l-0.9,1.5c-1-0.6-2-1-2.9-1c-1,0-1.8,0.4-1.8,1.2c0,0.8,0.6,1,2.4,1.6
		c1.7,0.5,3.5,1.1,3.5,3.1s-1.7,3.2-3.9,3.2C169.3,330.2,167.6,329.7,166.4,328.7z"/>
	<path d="M176.8,316.7c0-0.6,0.5-1.2,1.2-1.2c0.6,0,1.2,0.6,1.2,1.2s-0.5,1.2-1.2,1.2C177.3,317.9,176.8,317.4,176.8,316.7z
		 M177,319.6h2V330h-2V319.6z"/>
	<path d="M192.3,324.8c0,3.2-2,5.4-4.8,5.4c-1.6,0-2.9-0.8-3.7-2v1.8h-2v-14h2v5.4c0.8-1.3,2.1-2,3.7-2
		C190.3,319.4,192.3,321.6,192.3,324.8z M190.3,324.8c0-2.2-1.3-3.7-3.2-3.7s-3.2,1.5-3.2,3.7s1.3,3.7,3.2,3.7
		S190.3,327,190.3,324.8z"/>
	<path d="M194.7,316h2v14h-2V316z"/>
	<path d="M207.3,327.3l1.2,1.3c-0.9,1-2.7,1.6-4.2,1.6c-2.9,0-5.3-2.3-5.3-5.4s2.3-5.4,5.2-5.4c3.2,0,5,2.4,5,6.1H201
		c0.3,1.7,1.5,3,3.3,3C205.4,328.5,206.6,328,207.3,327.3z M201,323.9h6.2c-0.2-1.6-1.2-2.8-3-2.8
		C202.6,321.2,201.3,322.2,201,323.9z"/>
	<path d="M217.2,316h2v14h-2V316z"/>
	<path d="M221.8,316.7c0-0.6,0.5-1.2,1.2-1.2c0.6,0,1.2,0.6,1.2,1.2s-0.5,1.2-1.2,1.2C222.3,317.9,221.8,317.4,221.8,316.7z
		 M222,319.6h2V330h-2V319.6z"/>
	<path d="M236.7,319.6v9.2c0,2.7-2.2,4.5-5.2,4.5c-1.7,0-3.3-0.6-4.3-1.4l0.8-1.5c0.8,0.7,2,1.1,3.2,1.1c2.2,0,3.6-1.1,3.6-2.9v-1.5
		c-0.8,1.2-2.1,1.9-3.7,1.9c-2.7,0-4.7-2-4.7-4.9s2-4.9,4.7-4.9c1.6,0,2.9,0.7,3.7,1.9v-1.7h1.9V319.6z M234.7,324.3
		c0-1.9-1.3-3.2-3.2-3.2c-1.8,0-3.1,1.3-3.1,3.2c0,1.9,1.3,3.2,3.1,3.2C233.4,327.5,234.7,326.2,234.7,324.3z"/>
	<path d="M248.8,323.4v6.6h-1.9v-6.2c0-1.5-1-2.6-2.4-2.6c-1.6,0-2.9,1.1-2.9,2.4v6.4h-2v-14h2v5.2c0.6-1,1.9-1.8,3.3-1.8
		C247.2,319.4,248.8,321.1,248.8,323.4z"/>
	<path d="M257.2,329.5c-0.6,0.5-1.3,0.7-2.1,0.7c-1.6,0-2.7-1.2-2.7-2.8v-6.1h-1.6v-1.7h1.6v-2.8h1.9v2.8h2.4v1.7h-2.4v5.9
		c0,0.7,0.5,1.2,1.1,1.2c0.4,0,0.8-0.2,1.1-0.4L257.2,329.5z"/>
	<path d="M117.6,348.8c0,3.2-2,5.4-4.8,5.4c-1.6,0-2.9-0.8-3.7-2v5.2h-2v-13.8h2v1.8c0.8-1.3,2.1-2,3.7-2
		C115.6,343.4,117.6,345.6,117.6,348.8z M115.6,348.8c0-2.2-1.3-3.7-3.2-3.7c-1.9,0-3.2,1.5-3.2,3.7s1.3,3.7,3.2,3.7
		C114.3,352.5,115.6,351,115.6,348.8z"/>
	<path d="M129.1,347.4v6.6h-1.9v-6.2c0-1.5-1-2.6-2.4-2.6c-1.6,0-2.9,1.1-2.9,2.4v6.4h-2v-14h2v5.2c0.6-1,1.9-1.8,3.3-1.8
		C127.5,343.4,129.1,345.1,129.1,347.4z"/>
	<path d="M131.4,348.8c0-2.9,2.5-5.4,5.5-5.4c2.9,0,5.4,2.5,5.4,5.4s-2.5,5.4-5.4,5.4C133.9,354.2,131.4,351.7,131.4,348.8z
		 M140.3,348.8c0-2-1.6-3.7-3.4-3.7c-1.9,0-3.5,1.7-3.5,3.7s1.6,3.7,3.5,3.7C138.7,352.5,140.3,350.8,140.3,348.8z"/>
	<path d="M150.2,353.5c-0.6,0.5-1.3,0.7-2.1,0.7c-1.6,0-2.7-1.2-2.7-2.8v-6.1h-1.6v-1.7h1.6v-2.8h1.9v2.8h2.4v1.7h-2.4v5.9
		c0,0.7,0.5,1.2,1.1,1.2c0.4,0,0.8-0.2,1.1-0.4L150.2,353.5z"/>
	<path d="M151.6,348.8c0-2.9,2.5-5.4,5.5-5.4c2.9,0,5.4,2.5,5.4,5.4s-2.5,5.4-5.4,5.4C154.1,354.2,151.6,351.7,151.6,348.8z
		 M160.5,348.8c0-2-1.6-3.7-3.4-3.7c-1.9,0-3.5,1.7-3.5,3.7s1.6,3.7,3.5,3.7S160.5,350.8,160.5,348.8z"/>
	<path d="M170.8,343.4v1.7c-2.1,0-3.7,1.2-3.8,3v5.9h-2v-10.3h2v2C167.6,344.3,169,343.4,170.8,343.4z"/>
	<path d="M180.4,351.3l1.2,1.3c-0.9,1-2.7,1.6-4.2,1.6c-2.9,0-5.3-2.3-5.3-5.4s2.3-5.4,5.2-5.4c3.2,0,5,2.4,5,6.1h-8.1
		c0.3,1.7,1.5,3,3.3,3C178.5,352.5,179.8,352,180.4,351.3z M174.2,347.9h6.2c-0.2-1.6-1.2-2.8-3-2.8
		C175.8,345.2,174.5,346.2,174.2,347.9z"/>
	<path d="M194.5,340v14h-2v-1.8c-0.8,1.3-2.1,2-3.7,2c-2.7,0-4.8-2.2-4.8-5.4c0-3.2,2-5.4,4.8-5.4c1.6,0,2.9,0.8,3.7,2V340H194.5z
		 M192.5,348.8c0-2.2-1.3-3.7-3.2-3.7s-3.2,1.5-3.2,3.7s1.3,3.7,3.2,3.7S192.5,351,192.5,348.8z"/>
	<path d="M196.9,348.8c0-2.9,2.5-5.4,5.5-5.4c2.9,0,5.4,2.5,5.4,5.4s-2.5,5.4-5.4,5.4C199.4,354.2,196.9,351.7,196.9,348.8z
		 M205.8,348.8c0-2-1.6-3.7-3.4-3.7c-1.9,0-3.5,1.7-3.5,3.7s1.6,3.7,3.5,3.7C204.2,352.5,205.8,350.8,205.8,348.8z"/>
	<path d="M217.1,354l-2.8-3.8l-2.8,3.8h-2.2l3.9-5.3l-3.8-5.1h2.2l2.6,3.6l2.7-3.6h2.2l-3.8,5l3.9,5.3h-2.1V354z"/>
	<path d="M226.4,348.8c0-2.9,2.5-5.4,5.5-5.4c1.5,0,2.8,0.6,3.8,1.6l-1.3,1.2c-0.6-0.7-1.5-1.1-2.5-1.1c-1.9,0-3.4,1.7-3.4,3.7
		s1.6,3.7,3.5,3.7c1,0,1.9-0.4,2.5-1.2l1.3,1.2c-1,1-2.3,1.7-3.9,1.7C228.9,354.2,226.4,351.7,226.4,348.8z"/>
	<path d="M246.5,347.7v6.3h-1.9v-1.4c-0.8,1.1-2.2,1.7-3.4,1.7c-2.2,0-3.8-1.3-3.8-3.3c0-2.1,1.9-3.4,4.1-3.4c1,0,2.1,0.2,3.1,0.6
		v-0.3c0-1.3-0.6-2.7-2.7-2.7c-1,0-2,0.4-2.9,0.9l-0.7-1.5c1.5-0.7,2.8-1,3.9-1C245,343.4,246.5,345.2,246.5,347.7z M244.6,350.7
		v-1.4c-0.8-0.3-1.8-0.4-2.8-0.4c-1.4,0-2.5,0.8-2.5,1.9s1,1.8,2.3,1.8C242.8,352.7,244.2,352,244.6,350.7z"/>
	<path d="M254.9,353.5c-0.6,0.5-1.3,0.7-2.1,0.7c-1.6,0-2.7-1.2-2.7-2.8v-6.1h-1.6v-1.7h1.6v-2.8h1.9v2.8h2.4v1.7H252v5.9
		c0,0.7,0.5,1.2,1.1,1.2c0.4,0,0.8-0.2,1.1-0.4L254.9,353.5z"/>
	<path d="M265.6,347.7v6.3h-1.9v-1.4c-0.8,1.1-2.2,1.7-3.4,1.7c-2.2,0-3.8-1.3-3.8-3.3c0-2.1,1.9-3.4,4.1-3.4c1,0,2.1,0.2,3.1,0.6
		v-0.3c0-1.3-0.6-2.7-2.7-2.7c-1,0-2,0.4-2.9,0.9l-0.7-1.5c1.5-0.7,2.8-1,3.9-1C264.1,343.4,265.6,345.2,265.6,347.7z M263.7,350.7
		v-1.4c-0.8-0.3-1.8-0.4-2.8-0.4c-1.4,0-2.5,0.8-2.5,1.9s1,1.8,2.3,1.8C261.9,352.7,263.3,352,263.7,350.7z"/>
	<path d="M268.5,340h2v14h-2V340z"/>
	<path d="M273.2,357.1l0.4-1.5c0.4,0.2,0.9,0.3,1.3,0.3c0.6,0,1.1-0.2,1.4-0.8l0.5-1.1l-4.4-10.4h2.1l3.3,8.2l3.1-8.2h2.1l-4.6,11.3
		c-0.7,1.9-1.8,2.6-3.3,2.7C274.4,357.6,273.7,357.4,273.2,357.1z"/>
	<path d="M284.5,352.7l0.9-1.4c1.1,0.8,2.3,1.3,3.5,1.3s2-0.5,2-1.3c0-1-1.1-1.3-2.3-1.6c-2.4-0.7-3.6-1.3-3.6-3
		c0-1.9,1.6-3.1,3.8-3.1c1.3,0,2.7,0.5,3.8,1.2l-0.9,1.5c-1-0.6-2-1-2.9-1c-1,0-1.8,0.4-1.8,1.2c0,0.8,0.6,1,2.4,1.6
		c1.7,0.5,3.5,1.1,3.5,3.1s-1.7,3.2-3.9,3.2C287.4,354.2,285.8,353.7,284.5,352.7z"/>
	<path d="M300.7,353.5c-0.6,0.5-1.3,0.7-2.1,0.7c-1.6,0-2.7-1.2-2.7-2.8v-6.1h-1.6v-1.7h1.6v-2.8h1.9v2.8h2.4v1.7h-2.4v5.9
		c0,0.7,0.5,1.2,1.1,1.2c0.4,0,0.8-0.2,1.1-0.4L300.7,353.5z"/>
</g>
<g>
	<path d="M105.2,24.1l7.2-3.5c3.5-1.7,7.1-0.7,8.7,2.5s0.1,6.7-3.4,8.4l-3.8,1.8l2.5,5.2l-3.4,1.7L105.2,24.1z M115.8,28.4
		c1.7-0.8,2.4-2.3,1.8-3.7c-0.7-1.4-2.3-1.7-4-0.9l-3.4,1.7l2.2,4.5L115.8,28.4z"/>
	<path d="M137.3,10.4l6.2,16.7l-3.6,1.3l-2.6-6.9l-7.6,2.8l2.6,6.9l-3.6,1.3l-6.2-16.7l3.6-1.3l2.4,6.6l7.6-2.8l-2.4-6.6L137.3,10.4
		z"/>
	<path d="M144.2,17.5c-1.2-4.9,2-10,6.9-11.3c5-1.3,10.2,1.8,11.5,6.6s-1.9,10-6.9,11.3C150.7,25.4,145.4,22.3,144.2,17.5z
		 M158.7,13.8c-0.8-3-3.9-4.9-6.8-4.2c-2.9,0.7-4.7,3.9-4,6.9c0.8,3,3.9,5,6.8,4.2C157.7,20,159.5,16.8,158.7,13.8z"/>
	<path d="M170.2,6.1l-5.5,0.8l-0.5-3.4L179,1.3l0.5,3.4L174,5.5l2.1,14.2l-3.8,0.6L170.2,6.1z"/>
	<path d="M182.4,9.8c-0.3-5,3.9-9.5,9-9.7c5.2-0.3,9.7,3.7,10,8.7s-3.8,9.5-9,9.7C187.2,18.8,182.7,14.8,182.4,9.8z M197.4,9
		c-0.2-3.1-2.8-5.6-5.9-5.4c-3,0.2-5.4,2.9-5.2,6s2.8,5.6,5.8,5.5C195.2,14.9,197.6,12.1,197.4,9z"/>
	<path d="M215.6,18.4l-3.8-6l-2.8-0.1l-0.3,5.8l-3.8-0.2L205.7,0l8,0.4c3.9,0.2,6.6,2.8,6.4,6.3c-0.1,2.6-1.8,4.6-4.3,5.4l4.1,6.4
		L215.6,18.4z M209.1,8.7l3.8,0.2c1.9,0.1,3.2-0.8,3.3-2.4s-1.2-2.6-3.1-2.7l-3.8-0.2L209.1,8.7z"/>
	<path d="M228.5,5.2L228,8.7l8.9,1.2l-0.5,3.4l-8.9-1.2L227,16l9.8,1.4l-0.5,3.4l-13.6-1.9l2.5-17.7l13.6,1.9l-0.5,3.4L228.5,5.2z"
		/>
	<path d="M243.8,4l6.2,1.5c5.8,1.4,9.1,6,7.9,11.1s-6.2,7.7-12.1,6.3l-6.2-1.5L243.8,4z M247.1,19.6c3.3,0.8,6.2-0.8,6.9-3.9
		s-1.1-5.8-4.4-6.6l-3-0.7L244.1,19L247.1,19.6z"/>
	<path d="M261.2,17.5c1.7-4.7,7.2-7.2,12.1-5.5s7.5,7.2,5.8,11.9s-7.2,7.3-12.1,5.5C262.1,27.7,259.5,22.2,261.2,17.5z M275.3,22.6
		c1-2.9-0.5-6.3-3.3-7.3s-6.1,0.6-7.2,3.5s0.4,6.3,3.3,7.3C271,27.2,274.3,25.5,275.3,22.6z"/>
	<path d="M291.4,29.8l2,10.9l-4.1-2l-1.3-7.1l-6.4,3.4l-4-1.9l9.7-5.2l-2-10.9l4.1,2l1.3,7.1l6.4-3.4l4,1.9L291.4,29.8z"/>
</g>
</svg>
