<?xml version="1.0" encoding="utf-8"?>
<!-- Generator: Adobe Illustrator 19.2.0, SVG Export Plug-In . SVG Version: 6.00 Build 0)  -->
<svg version="1.1" id="Layer_1" xmlns="http://www.w3.org/2000/svg" xmlns:xlink="http://www.w3.org/1999/xlink" x="0px" y="0px"
	 viewBox="0 0 294 391" style="enable-background:new 0 0 294 391;" xml:space="preserve">
<style type="text/css">
	.st0{fill:none;stroke:#000000;stroke-width:1.55;stroke-miterlimit:10;}
	.st1{fill:#94B0D0;}
	.st2{fill:none;stroke:#94B0D0;stroke-width:1.9;stroke-miterlimit:10;}
	.st3{fill:#9BB5D3;}
	.st4{fill:none;stroke:#9BB5D3;stroke-width:1.9;stroke-miterlimit:10;}
	.st5{fill:#A1BAD6;}
	.st6{fill:none;stroke:#A1BAD6;stroke-width:1.9;stroke-miterlimit:10;}
	.st7{fill:#A7BED8;}
	.st8{fill:none;stroke:#A7BED8;stroke-width:1.9;stroke-miterlimit:10;}
	.st9{fill:#ADC3DB;}
	.st10{fill:none;stroke:#ADC3DB;stroke-width:1.9;stroke-miterlimit:10;}
	.st11{fill:#B3C7DE;}
	.st12{fill:none;stroke:#B3C7DE;stroke-width:1.9;stroke-miterlimit:10;}
	.st13{fill:#B8CBE0;}
	.st14{fill:none;stroke:#B8CBE0;stroke-width:1.9;stroke-miterlimit:10;}
	.st15{fill:#BECFE2;}
	.st16{fill:none;stroke:#BECFE2;stroke-width:1.9;stroke-miterlimit:10;}
	.st17{fill:#C3D3E5;}
	.st18{fill:none;stroke:#C3D3E5;stroke-width:1.9;stroke-miterlimit:10;}
	.st19{fill:#C8D6E7;}
	.st20{fill:none;stroke:#C8D6E7;stroke-width:1.9;stroke-miterlimit:10;}
	.st21{fill:#CCDAE9;}
	.st22{fill:none;stroke:#CCDAE9;stroke-width:1.9;stroke-miterlimit:10;}
	.st23{fill:#D1DDEB;}
	.st24{fill:none;stroke:#D1DDEB;stroke-width:1.9;stroke-miterlimit:10;}
	.st25{fill:#D5E0ED;}
	.st26{fill:none;stroke:#D5E0ED;stroke-width:1.9;stroke-miterlimit:10;}
	.st27{fill:#D9E3EE;}
	.st28{fill:none;stroke:#D9E3EE;stroke-width:1.9;stroke-miterlimit:10;}
	.st29{fill:#DDE6F0;}
	.st30{fill:none;stroke:#DDE6F0;stroke-width:1.9;stroke-miterlimit:10;}
	.st31{fill:#E1E9F2;}
	.st32{fill:none;stroke:#E1E9F2;stroke-width:1.9;stroke-miterlimit:10;}
	.st33{fill:#E4EBF3;}
	.st34{fill:none;stroke:#E4EBF3;stroke-width:1.9;stroke-miterlimit:10;}
	.st35{fill:#E7EEF5;}
	.st36{fill:none;stroke:#E7EEF5;stroke-width:1.9;stroke-miterlimit:10;}
	.st37{fill:#EBF0F6;}
	.st38{fill:none;stroke:#EBF0F6;stroke-width:1.9;stroke-miterlimit:10;}
	.st39{fill:#EDF2F7;}
	.st40{fill:none;stroke:#EDF2F7;stroke-width:1.9;stroke-miterlimit:10;}
	.st41{fill:#F0F4F8;}
	.st42{fill:none;stroke:#F0F4F8;stroke-width:1.9;stroke-miterlimit:10;}
	.st43{fill:#F2F6F9;}
	.st44{fill:none;stroke:#F2F6F9;stroke-width:1.9;stroke-miterlimit:10;}
	.st45{fill:#F5F7FA;}
	.st46{fill:none;stroke:#F5F7FA;stroke-width:1.9;stroke-miterlimit:10;}
	.st47{fill:#F7F9FB;}
	.st48{fill:none;stroke:#F7F9FB;stroke-width:1.9;stroke-miterlimit:10;}
	.st49{fill:#F8FAFC;}
	.st50{fill:none;stroke:#F8FAFC;stroke-width:1.9;stroke-miterlimit:10;}
	.st51{fill:#FAFBFD;}
	.st52{fill:none;stroke:#FAFBFD;stroke-width:1.9;stroke-miterlimit:10;}
	.st53{fill:#FBFCFD;}
	.st54{fill:none;stroke:#FBFCFD;stroke-width:1.9;stroke-miterlimit:10;}
	.st55{fill:#FCFDFE;}
	.st56{fill:none;stroke:#FCFDFE;stroke-width:1.9;stroke-miterlimit:10;}
	.st57{fill:#FDFEFE;}
	.st58{fill:none;stroke:#FDFEFE;stroke-width:1.9;stroke-miterlimit:10;}
	.st59{fill:#FEFEFF;}
	.st60{fill:none;stroke:#FEFEFF;stroke-width:1.9;stroke-miterlimit:10;}
	.st61{fill:#FFFFFF;}
	.st62{fill:none;stroke:#FFFFFF;stroke-width:1.9;stroke-miterlimit:10;}
	.st63{fill:none;}
	.st64{fill:#EC9533;}
</style>
<g>
	<g>
		<path d="M134,75h1.8l5.7,9.3V75h1.5v11.5h-1.7l-5.8-9.3v9.3H134V75z"/>
	</g>
	<g>
		<path d="M149.1,121.5h1.8l5.7,9.3v-9.3h1.5V133h-1.7l-5.8-9.3v9.3h-1.5V121.5z"/>
	</g>
	<polygon points="169.5,79.8 168.1,81.7 145.4,81.7 145.4,79.8 	"/>
	<polygon points="178.4,107.2 178.1,109.5 177,109.2 168.1,81.7 169.5,79.8 	"/>
	<polygon points="161.8,122.5 160.7,121 177,109.2 178.1,109.5 177.1,111.5 	"/>
	<polygon points="130.2,111.5 129.2,109.5 130.3,109.2 146.6,121 145.4,122.5 	"/>
	<polygon points="134.8,89.2 136.6,89.8 130.3,109.2 129.2,109.5 129,107.1 	"/>
	<g>
		<path d="M102.4,50.6h2.2l3.3,9.7l3.3-9.7h2.2v11.5h-1.5v-6.8c0-0.2,0-0.6,0-1.2s0-1.1,0-1.7l-3.3,9.7h-1.5l-3.3-9.7v0.3
			c0,0.3,0,0.7,0,1.3s0,1,0,1.3v6.8h-1.5V50.6H102.4z"/>
		<path d="M120.8,53.9c0.6,0.3,1,0.6,1.3,1.1c0.3,0.4,0.5,0.9,0.6,1.5c0.1,0.4,0.1,1,0.1,1.8h-6.1c0,0.9,0.2,1.5,0.6,2
			s0.9,0.8,1.7,0.8c0.7,0,1.3-0.2,1.7-0.7c0.2-0.3,0.4-0.6,0.5-1h1.4c0,0.3-0.2,0.6-0.4,1s-0.4,0.7-0.7,0.9
			c-0.4,0.4-0.9,0.7-1.6,0.8c-0.3,0.1-0.7,0.1-1.1,0.1c-1,0-1.9-0.4-2.6-1.1s-1.1-1.8-1.1-3.2c0-1.3,0.4-2.4,1.1-3.3
			s1.7-1.3,2.8-1.3C119.6,53.5,120.2,53.7,120.8,53.9z M121.3,57.2c-0.1-0.6-0.2-1.1-0.4-1.5c-0.4-0.7-1-1-1.9-1
			c-0.6,0-1.2,0.2-1.6,0.7s-0.7,1.1-0.7,1.8H121.3z"/>
	</g>
	<polygon points="124.1,62.5 125.6,61.4 133.6,72.3 132,73.5 	"/>
	<g>
		<path d="M199.7,115.7h5.1c1,0,1.8,0.3,2.5,0.9s0.9,1.4,0.9,2.4c0,0.9-0.3,1.7-0.8,2.3c-0.6,0.7-1.4,1-2.6,1h-3.6v4.9h-1.6v-11.5
			H199.7z M205.7,117.3c-0.3-0.2-0.8-0.2-1.4-0.2h-3.1v4h3.1c0.7,0,1.3-0.1,1.7-0.4s0.6-0.8,0.6-1.6
			C206.7,118.2,206.3,117.6,205.7,117.3z"/>
		<path d="M210,115.7h1.4v4.3c0.3-0.4,0.6-0.7,0.9-0.9c0.5-0.3,1-0.4,1.7-0.4c1.2,0,2,0.4,2.5,1.3c0.2,0.5,0.4,1.1,0.4,1.9v5.4h-1.4
			V122c0-0.6-0.1-1.1-0.2-1.4c-0.3-0.5-0.7-0.7-1.4-0.7c-0.6,0-1.1,0.2-1.6,0.6s-0.7,1.2-0.7,2.3v4.4H210V115.7z"/>
	</g>
	<polygon points="197,115.8 195.1,119.8 177.1,111.5 178.1,109.5 178.4,107.2 	"/>
	<g>
		<path d="M191,52.2c0.8,1,1.1,2.3,1.1,3.9c0,1.7-0.4,3.1-1.3,4.3c-1,1.3-2.5,2-4.4,2c-1.8,0-3.2-0.6-4.2-1.8
			c-0.9-1.1-1.4-2.5-1.4-4.3c0-1.6,0.4-2.9,1.2-4c1-1.4,2.5-2.1,4.4-2.1C188.5,50.3,190,50.9,191,52.2z M189.6,59.6
			c0.6-1,0.9-2.1,0.9-3.4c0-1.4-0.4-2.4-1.1-3.3s-1.7-1.2-2.9-1.2s-2.2,0.4-2.9,1.2s-1.1,2-1.1,3.6c0,1.3,0.3,2.3,1,3.2
			s1.7,1.3,3.1,1.3C188,61,189,60.5,189.6,59.6z"/>
	</g>
	<polygon points="178.8,61.2 180.3,62.4 166.6,81.3 165,80.2 	"/>
	<polygon points="182.7,64.1 184.3,65.2 170.5,84.2 168.9,83 	"/>
	<g>
		<path d="M79.1,119.7h1.4L80,122h1.3l-0.2,1.1h-1.3l-1.2,5.5c-0.1,0.3,0,0.5,0.2,0.6c0.1,0.1,0.3,0.1,0.5,0.1c0.1,0,0.1,0,0.2,0
			s0.2,0,0.3,0l-0.2,1.1c-0.2,0-0.3,0.1-0.5,0.1s-0.4,0-0.6,0c-0.7,0-1.1-0.2-1.2-0.5s-0.2-0.8-0.1-1.3l1.2-5.5h-1.1l0.2-1.1h1.1
			L79.1,119.7z"/>
		<path d="M81.8,125.2h3.9l-0.3,1.4h-3.9L81.8,125.2z"/>
	</g>
	<g>
		<path d="M86.9,118.9h5c1.4,0,2.3,0.4,2.9,1.2c0.3,0.5,0.5,1,0.5,1.6c0,0.7-0.2,1.3-0.6,1.8c-0.2,0.2-0.5,0.5-0.9,0.7
			c0.6,0.2,1,0.5,1.3,0.8c0.5,0.5,0.8,1.2,0.8,2.1c0,0.7-0.2,1.4-0.7,2c-0.7,0.9-1.8,1.3-3.3,1.3H87v-11.5H86.9z M91.3,123.7
			c0.7,0,1.2-0.1,1.5-0.3c0.6-0.3,0.9-0.8,0.9-1.5c0-0.8-0.3-1.3-0.9-1.5c-0.3-0.1-0.9-0.2-1.5-0.2h-2.8v3.6h2.8V123.7z M91.8,129
			c1,0,1.6-0.3,2.1-0.8c0.3-0.3,0.4-0.8,0.4-1.3c0-0.8-0.4-1.4-1.1-1.7c-0.4-0.2-0.9-0.2-1.6-0.2h-3.1v4H91.8z"/>
		<path d="M98.8,122v5.6c0,0.4,0.1,0.8,0.2,1c0.2,0.5,0.7,0.8,1.4,0.8c1,0,1.6-0.4,1.9-1.3c0.2-0.5,0.3-1.1,0.3-1.9v-4.1h1.4v8.4
			h-1.3v-1.2c-0.2,0.3-0.4,0.6-0.7,0.8c-0.5,0.4-1.2,0.7-1.9,0.7c-1.2,0-2-0.4-2.4-1.2c-0.2-0.4-0.3-1-0.3-1.7v-5.7h1.4V122z"/>
	</g>
	<polygon points="108,124.3 105.8,120.5 129,107.1 129.2,109.5 130.2,111.5 	"/>
	<polygon points="154.6,157 152.7,158.1 152.7,135.4 154.6,135.4 	"/>
	<rect x="157.5" y="135.4" width="1.9" height="19.4"/>
	<polygon points="180,171.3 178.1,172.4 152.7,158.1 154.6,157 	"/>
	<polygon points="180.8,202.9 178.9,202.9 178.1,172.4 180,171.3 	"/>
	<line class="st0" x1="151.8" y1="108.8" x2="157.2" y2="108.8"/>
	<line class="st0" x1="154.5" y1="106.2" x2="154.5" y2="111.5"/>
	<path class="st1" d="M193.9,167.4c-2.4,2-11.9,6.3-13.9,3.9c-2-2.4,4.2-10.9,6.6-12.9c2.9-2.4,5.6-3.5,8.8,0.3
		C198.5,162.6,196.9,165,193.9,167.4z"/>
	<path class="st2" d="M193.9,167.4c-2.4,2-11.9,6.3-13.9,3.9c-2-2.4,4.2-10.9,6.6-12.9c2.9-2.4,5.6-3.5,8.8,0.3
		C198.5,162.6,196.9,165,193.9,167.4z"/>
	<path class="st3" d="M193.7,167.2c-2.4,1.9-11.6,6.2-13.5,3.8c-1.9-2.3,4-10.6,6.4-12.5c2.9-2.4,5.5-3.5,8.5,0.3
		C198.1,162.6,196.5,164.9,193.7,167.2z"/>
	<path class="st4" d="M193.7,167.2c-2.4,1.9-11.6,6.2-13.5,3.8c-1.9-2.3,4-10.6,6.4-12.5c2.9-2.4,5.5-3.5,8.5,0.3
		C198.1,162.6,196.5,164.9,193.7,167.2z"/>
	<path class="st5" d="M193.4,167.1c-2.3,1.9-11.3,6-13.2,3.7s3.9-10.3,6.2-12.2c2.8-2.3,5.3-3.4,8.3,0.3
		C197.8,162.5,196.2,164.8,193.4,167.1z"/>
	<path class="st6" d="M193.4,167.1c-2.3,1.9-11.3,6-13.2,3.7s3.9-10.3,6.2-12.2c2.8-2.3,5.3-3.4,8.3,0.3
		C197.8,162.5,196.2,164.8,193.4,167.1z"/>
	<path class="st7" d="M193.2,166.9c-2.2,1.8-11,5.8-12.8,3.6s3.8-10,6.1-11.9c2.7-2.2,5.2-3.3,8.1,0.3
		C197.4,162.5,195.9,164.7,193.2,166.9z"/>
	<path class="st8" d="M193.2,166.9c-2.2,1.8-11,5.8-12.8,3.6s3.8-10,6.1-11.9c2.7-2.2,5.2-3.3,8.1,0.3
		C197.4,162.5,195.9,164.7,193.2,166.9z"/>
	<path class="st9" d="M193,166.8c-2.2,1.8-10.7,5.7-12.5,3.5s3.7-9.8,5.9-11.5c2.6-2.2,5-3.2,7.9,0.3
		C197.1,162.4,195.6,164.6,193,166.8z"/>
	<path class="st10" d="M193,166.8c-2.2,1.8-10.7,5.7-12.5,3.5s3.7-9.8,5.9-11.5c2.6-2.2,5-3.2,7.9,0.3
		C197.1,162.4,195.6,164.6,193,166.8z"/>
	<path class="st11" d="M192.7,166.6c-2.1,1.7-10.4,5.5-12.1,3.4c-1.7-2.1,3.6-9.5,5.7-11.2c2.6-2.1,4.9-3.1,7.6,0.2
		C196.7,162.4,195.3,164.5,192.7,166.6z"/>
	<path class="st12" d="M192.7,166.6c-2.1,1.7-10.4,5.5-12.1,3.4c-1.7-2.1,3.6-9.5,5.7-11.2c2.6-2.1,4.9-3.1,7.6,0.2
		C196.7,162.4,195.3,164.5,192.7,166.6z"/>
	<path class="st13" d="M192.5,166.4c-2,1.7-10.1,5.4-11.7,3.3c-1.7-2,3.5-9.2,5.6-10.9c2.5-2.1,4.7-3,7.4,0.2
		C196.4,162.4,195,164.4,192.5,166.4z"/>
	<path class="st14" d="M192.5,166.4c-2,1.7-10.1,5.4-11.7,3.3c-1.7-2,3.5-9.2,5.6-10.9c2.5-2.1,4.7-3,7.4,0.2
		C196.4,162.4,195,164.4,192.5,166.4z"/>
	<path class="st15" d="M192.3,166.3c-2,1.6-9.8,5.2-11.4,3.2c-1.6-2,3.4-8.9,5.4-10.6c2.4-2,4.6-2.9,7.2,0.2
		C196,162.3,194.7,164.3,192.3,166.3z"/>
	<path class="st16" d="M192.3,166.3c-2,1.6-9.8,5.2-11.4,3.2c-1.6-2,3.4-8.9,5.4-10.6c2.4-2,4.6-2.9,7.2,0.2
		C196,162.3,194.7,164.3,192.3,166.3z"/>
	<path class="st17" d="M192,166.1c-1.9,1.6-9.5,5-11,3.1c-1.6-1.9,3.3-8.7,5.2-10.2c2.3-1.9,4.5-2.8,7,0.2
		C195.7,162.3,194.4,164.2,192,166.1z"/>
	<path class="st18" d="M192,166.1c-1.9,1.6-9.5,5-11,3.1c-1.6-1.9,3.3-8.7,5.2-10.2c2.3-1.9,4.5-2.8,7,0.2
		C195.7,162.3,194.4,164.2,192,166.1z"/>
	<path class="st19" d="M191.8,165.9c-1.9,1.5-9.2,4.9-10.7,3c-1.5-1.8,3.2-8.4,5-9.9c2.3-1.9,4.3-2.7,6.7,0.2
		C195.3,162.2,194.1,164.1,191.8,165.9z"/>
	<path class="st20" d="M191.8,165.9c-1.9,1.5-9.2,4.9-10.7,3c-1.5-1.8,3.2-8.4,5-9.9c2.3-1.9,4.3-2.7,6.7,0.2
		C195.3,162.2,194.1,164.1,191.8,165.9z"/>
	<path class="st21" d="M191.6,165.8c-1.8,1.5-8.9,4.7-10.3,2.9c-1.5-1.8,3.1-8.1,4.9-9.6c2.2-1.8,4.2-2.6,6.5,0.2
		C195,162.2,193.8,164,191.6,165.8z"/>
	<path class="st22" d="M191.6,165.8c-1.8,1.5-8.9,4.7-10.3,2.9c-1.5-1.8,3.1-8.1,4.9-9.6c2.2-1.8,4.2-2.6,6.5,0.2
		C195,162.2,193.8,164,191.6,165.8z"/>
	<path class="st23" d="M191.4,165.6c-1.7,1.4-8.6,4.6-10,2.8c-1.4-1.7,3-7.8,4.7-9.3c2.1-1.7,4-2.6,6.3,0.2
		C194.6,162.2,193.5,163.9,191.4,165.6z"/>
	<path class="st24" d="M191.4,165.6c-1.7,1.4-8.6,4.6-10,2.8c-1.4-1.7,3-7.8,4.7-9.3c2.1-1.7,4-2.6,6.3,0.2
		C194.6,162.2,193.5,163.9,191.4,165.6z"/>
	<path class="st25" d="M191.1,165.5c-1.7,1.4-8.2,4.4-9.6,2.7c-1.4-1.7,2.9-7.6,4.5-8.9c2-1.7,3.9-2.5,6.1,0.2
		C194.3,162.1,193.2,163.8,191.1,165.5z"/>
	<path class="st26" d="M191.1,165.5c-1.7,1.4-8.2,4.4-9.6,2.7c-1.4-1.7,2.9-7.6,4.5-8.9c2-1.7,3.9-2.5,6.1,0.2
		C194.3,162.1,193.2,163.8,191.1,165.5z"/>
	<path class="st27" d="M190.9,165.3c-1.6,1.3-7.9,4.2-9.3,2.6c-1.3-1.6,2.8-7.3,4.4-8.6c2-1.6,3.7-2.4,5.8,0.2
		S192.9,163.7,190.9,165.3z"/>
	<path class="st28" d="M190.9,165.3c-1.6,1.3-7.9,4.2-9.3,2.6c-1.3-1.6,2.8-7.3,4.4-8.6c2-1.6,3.7-2.4,5.8,0.2
		S192.9,163.7,190.9,165.3z"/>
	<path class="st29" d="M190.7,165.1c-1.5,1.3-7.6,4.1-8.9,2.5c-1.3-1.5,2.7-7,4.2-8.3c1.9-1.6,3.6-2.3,5.6,0.2
		C193.6,162,192.5,163.6,190.7,165.1z"/>
	<path class="st30" d="M190.7,165.1c-1.5,1.3-7.6,4.1-8.9,2.5c-1.3-1.5,2.7-7,4.2-8.3c1.9-1.6,3.6-2.3,5.6,0.2
		C193.6,162,192.5,163.6,190.7,165.1z"/>
	<path class="st31" d="M190.4,165c-1.5,1.2-7.3,3.9-8.5,2.4s2.6-6.7,4-8c1.8-1.5,3.5-2.2,5.4,0.2C193.2,162,192.2,163.5,190.4,165z"
		/>
	<path class="st32" d="M190.4,165c-1.5,1.2-7.3,3.9-8.5,2.4s2.6-6.7,4-8c1.8-1.5,3.5-2.2,5.4,0.2C193.2,162,192.2,163.5,190.4,165z"
		/>
	<path class="st33" d="M190.2,164.8c-1.4,1.2-7,3.8-8.2,2.3c-1.2-1.4,2.4-6.5,3.9-7.6c1.7-1.4,3.3-2.1,5.2,0.2
		C192.9,161.9,191.9,163.4,190.2,164.8z"/>
	<path class="st34" d="M190.2,164.8c-1.4,1.2-7,3.8-8.2,2.3c-1.2-1.4,2.4-6.5,3.9-7.6c1.7-1.4,3.3-2.1,5.2,0.2
		C192.9,161.9,191.9,163.4,190.2,164.8z"/>
	<path class="st35" d="M190,164.6c-1.4,1.1-6.7,3.6-7.8,2.2s2.3-6.2,3.7-7.3c1.7-1.4,3.2-2,4.9,0.2
		C192.5,161.9,191.6,163.3,190,164.6z"/>
	<path class="st36" d="M190,164.6c-1.4,1.1-6.7,3.6-7.8,2.2s2.3-6.2,3.7-7.3c1.7-1.4,3.2-2,4.9,0.2
		C192.5,161.9,191.6,163.3,190,164.6z"/>
	<path class="st37" d="M189.7,164.5c-1.3,1.1-6.4,3.4-7.5,2.1c-1.1-1.3,2.2-5.9,3.5-7c1.6-1.3,3-1.9,4.7,0.2
		C192.2,161.9,191.3,163.2,189.7,164.5z"/>
	<path class="st38" d="M189.7,164.5c-1.3,1.1-6.4,3.4-7.5,2.1c-1.1-1.3,2.2-5.9,3.5-7c1.6-1.3,3-1.9,4.7,0.2
		C192.2,161.9,191.3,163.2,189.7,164.5z"/>
	<path class="st39" d="M189.5,164.3c-1.2,1-6.1,3.3-7.1,2c-1-1.2,2.1-5.6,3.4-6.6c1.5-1.3,2.9-1.8,4.5,0.1
		C191.8,161.8,191,163.1,189.5,164.3z"/>
	<path class="st40" d="M189.5,164.3c-1.2,1-6.1,3.3-7.1,2c-1-1.2,2.1-5.6,3.4-6.6c1.5-1.3,2.9-1.8,4.5,0.1
		C191.8,161.8,191,163.1,189.5,164.3z"/>
	<path class="st41" d="M189.3,164.2c-1.2,1-5.8,3.1-6.8,1.9c-1-1.2,2-5.3,3.2-6.3c1.4-1.2,2.7-1.7,4.3,0.1
		C191.5,161.8,190.7,163,189.3,164.2z"/>
	<path class="st42" d="M189.3,164.2c-1.2,1-5.8,3.1-6.8,1.9c-1-1.2,2-5.3,3.2-6.3c1.4-1.2,2.7-1.7,4.3,0.1
		C191.5,161.8,190.7,163,189.3,164.2z"/>
	<path class="st43" d="M189,164c-1.1,0.9-5.5,3-6.4,1.8c-0.9-1.1,1.9-5.1,3-6c1.4-1.1,2.6-1.7,4,0.1
		C191.1,161.7,190.4,162.9,189,164z"/>
	<path class="st44" d="M189,164c-1.1,0.9-5.5,3-6.4,1.8c-0.9-1.1,1.9-5.1,3-6c1.4-1.1,2.6-1.7,4,0.1
		C191.1,161.7,190.4,162.9,189,164z"/>
	<path class="st45" d="M188.8,163.8c-1,0.9-5.2,2.8-6,1.7c-0.9-1.1,1.8-4.8,2.9-5.7c1.3-1.1,2.4-1.6,3.8,0.1
		C190.8,161.7,190.1,162.8,188.8,163.8z"/>
	<path class="st46" d="M188.8,163.8c-1,0.9-5.2,2.8-6,1.7c-0.9-1.1,1.8-4.8,2.9-5.7c1.3-1.1,2.4-1.6,3.8,0.1
		C190.8,161.7,190.1,162.8,188.8,163.8z"/>
	<path class="st47" d="M188.6,163.7c-1,0.8-4.9,2.6-5.7,1.6s1.7-4.5,2.7-5.3c1.2-1,2.3-1.5,3.6,0.1
		C190.4,161.7,189.8,162.7,188.6,163.7z"/>
	<path class="st48" d="M188.6,163.7c-1,0.8-4.9,2.6-5.7,1.6s1.7-4.5,2.7-5.3c1.2-1,2.3-1.5,3.6,0.1
		C190.4,161.7,189.8,162.7,188.6,163.7z"/>
	<path class="st49" d="M188.3,163.5c-0.9,0.8-4.6,2.5-5.3,1.5s1.6-4.2,2.5-5c1.1-0.9,2.2-1.4,3.4,0.1
		C190.1,161.6,189.5,162.6,188.3,163.5z"/>
	<path class="st50" d="M188.3,163.5c-0.9,0.8-4.6,2.5-5.3,1.5s1.6-4.2,2.5-5c1.1-0.9,2.2-1.4,3.4,0.1
		C190.1,161.6,189.5,162.6,188.3,163.5z"/>
	<path class="st51" d="M188.1,163.3c-0.9,0.7-4.3,2.3-5,1.4c-0.7-0.9,1.5-4,2.4-4.7c1.1-0.9,2-1.3,3.1,0.1
		C189.7,161.6,189.2,162.5,188.1,163.3z"/>
	<path class="st52" d="M188.1,163.3c-0.9,0.7-4.3,2.3-5,1.4c-0.7-0.9,1.5-4,2.4-4.7c1.1-0.9,2-1.3,3.1,0.1
		C189.7,161.6,189.2,162.5,188.1,163.3z"/>
	<path class="st53" d="M187.9,163.2c-0.8,0.7-4,2.1-4.6,1.3c-0.7-0.8,1.4-3.7,2.2-4.4c1-0.8,1.9-1.2,2.9,0.1
		S188.9,162.4,187.9,163.2z"/>
	<path class="st54" d="M187.9,163.2c-0.8,0.7-4,2.1-4.6,1.3c-0.7-0.8,1.4-3.7,2.2-4.4c1-0.8,1.9-1.2,2.9,0.1
		S188.9,162.4,187.9,163.2z"/>
	<path class="st55" d="M187.6,163c-0.7,0.6-3.7,2-4.3,1.2s1.3-3.4,2-4c0.9-0.8,1.7-1.1,2.7,0.1C189.1,161.5,188.6,162.2,187.6,163z"
		/>
	<path class="st56" d="M187.6,163c-0.7,0.6-3.7,2-4.3,1.2s1.3-3.4,2-4c0.9-0.8,1.7-1.1,2.7,0.1C189.1,161.5,188.6,162.2,187.6,163z"
		/>
	<path class="st57" d="M187.4,162.8c-0.7,0.6-3.4,1.8-3.9,1.1c-0.6-0.7,1.2-3.1,1.8-3.7c0.8-0.7,1.6-1,2.5,0.1
		C188.7,161.5,188.2,162.1,187.4,162.8z"/>
	<path class="st58" d="M187.4,162.8c-0.7,0.6-3.4,1.8-3.9,1.1c-0.6-0.7,1.2-3.1,1.8-3.7c0.8-0.7,1.6-1,2.5,0.1
		C188.7,161.5,188.2,162.1,187.4,162.8z"/>
	<path class="st59" d="M187.2,162.7c-0.6,0.5-3,1.7-3.5,1c-0.5-0.6,1.1-2.9,1.7-3.4c0.8-0.6,1.4-0.9,2.2,0.1
		C188.4,161.4,187.9,162,187.2,162.7z"/>
	<path class="st60" d="M187.2,162.7c-0.6,0.5-3,1.7-3.5,1c-0.5-0.6,1.1-2.9,1.7-3.4c0.8-0.6,1.4-0.9,2.2,0.1
		C188.4,161.4,187.9,162,187.2,162.7z"/>
	<path class="st61" d="M187,162.5c-0.6,0.5-2.7,1.5-3.2,0.9s1-2.6,1.5-3.1c0.7-0.6,1.3-0.8,2,0.1C188,161.4,187.6,161.9,187,162.5z"
		/>
	<path class="st62" d="M187,162.5c-0.6,0.5-2.7,1.5-3.2,0.9s1-2.6,1.5-3.1c0.7-0.6,1.3-0.8,2,0.1C188,161.4,187.6,161.9,187,162.5z"
		/>
	<path class="st61" d="M186.7,162.4c-0.5,0.4-2.4,1.3-2.8,0.8c-0.4-0.5,0.8-2.3,1.3-2.7c0.6-0.5,1.1-0.8,1.8,0.1
		C187.7,161.3,187.3,161.8,186.7,162.4z"/>
	<path class="st62" d="M186.7,162.4c-0.5,0.4-2.4,1.3-2.8,0.8c-0.4-0.5,0.8-2.3,1.3-2.7c0.6-0.5,1.1-0.8,1.8,0.1
		C187.7,161.3,187.3,161.8,186.7,162.4z"/>
	<path class="st61" d="M186.5,162.2c-0.4,0.4-2.1,1.2-2.5,0.7c-0.4-0.4,0.7-2,1.2-2.4c0.5-0.5,1-0.7,1.6,0.1
		C187.3,161.3,187,161.7,186.5,162.2z"/>
	<path class="st62" d="M186.5,162.2c-0.4,0.4-2.1,1.2-2.5,0.7c-0.4-0.4,0.7-2,1.2-2.4c0.5-0.5,1-0.7,1.6,0.1
		C187.3,161.3,187,161.7,186.5,162.2z"/>
	<path class="st63" d="M180,171.3c-2-2.4,4.2-10.9,6.6-12.9c2.9-2.4,5.6-3.5,8.8,0.3c3.1,3.8,1.5,6.2-1.4,8.6
		C191.5,169.4,182,173.7,180,171.3z"/>
	<path class="st2" d="M193.9,167.4c-2.4,2-11.9,6.3-13.9,3.9c-2-2.4,4.2-10.9,6.6-12.9c2.9-2.4,5.6-3.5,8.8,0.3
		C198.5,162.6,196.9,165,193.9,167.4z"/>
	<path class="st2" d="M193.9,167.4c-2.4,2-11.9,6.3-13.9,3.9c-2-2.4,4.2-10.9,6.6-12.9c2.9-2.4,5.6-3.5,8.8,0.3
		C198.5,162.6,196.9,165,193.9,167.4z"/>
	<path class="st1" d="M166.2,175.3c2.4-2,11.9-6.3,13.9-3.9c2,2.4-4.1,10.9-6.6,12.8c-2.9,2.4-5.6,3.5-8.7-0.3
		C161.6,180.1,163.2,177.7,166.2,175.3z"/>
	<path class="st2" d="M166.2,175.3c2.4-2,11.9-6.3,13.9-3.9c2,2.4-4.1,10.9-6.6,12.8c-2.9,2.4-5.6,3.5-8.7-0.3
		C161.6,180.1,163.2,177.7,166.2,175.3z"/>
	<path class="st3" d="M166.2,175.3c2.3-1.9,11.6-6.2,13.5-3.8c1.9,2.3-4,10.6-6.4,12.5c-2.9,2.4-5.5,3.5-8.5-0.3
		S163.3,177.6,166.2,175.3z"/>
	<path class="st4" d="M166.2,175.3c2.3-1.9,11.6-6.2,13.5-3.8c1.9,2.3-4,10.6-6.4,12.5c-2.9,2.4-5.5,3.5-8.5-0.3
		S163.3,177.6,166.2,175.3z"/>
	<path class="st5" d="M166.3,175.3c2.3-1.9,11.3-6,13.2-3.7s-3.9,10.3-6.2,12.2c-2.8,2.3-5.3,3.4-8.3-0.3
		C161.9,179.8,163.5,177.6,166.3,175.3z"/>
	<path class="st6" d="M166.3,175.3c2.3-1.9,11.3-6,13.2-3.7s-3.9,10.3-6.2,12.2c-2.8,2.3-5.3,3.4-8.3-0.3
		C161.9,179.8,163.5,177.6,166.3,175.3z"/>
	<path class="st7" d="M166.3,175.3c2.2-1.8,11-5.8,12.8-3.6s-3.8,10-6,11.9c-2.7,2.2-5.2,3.3-8.1-0.3
		C162.1,179.7,163.6,177.5,166.3,175.3z"/>
	<path class="st8" d="M166.3,175.3c2.2-1.8,11-5.8,12.8-3.6s-3.8,10-6,11.9c-2.7,2.2-5.2,3.3-8.1-0.3
		C162.1,179.7,163.6,177.5,166.3,175.3z"/>
	<path class="st9" d="M166.3,175.3c2.2-1.8,10.7-5.7,12.4-3.5c1.8,2.1-3.7,9.8-5.9,11.5c-2.6,2.2-5,3.2-7.8-0.3
		C162.2,179.6,163.7,177.4,166.3,175.3z"/>
	<path class="st10" d="M166.3,175.3c2.2-1.8,10.7-5.7,12.4-3.5c1.8,2.1-3.7,9.8-5.9,11.5c-2.6,2.2-5,3.2-7.8-0.3
		C162.2,179.6,163.7,177.4,166.3,175.3z"/>
	<path class="st11" d="M166.4,175.3c2.1-1.7,10.4-5.5,12.1-3.4c1.7,2.1-3.6,9.5-5.7,11.2c-2.6,2.1-4.9,3.1-7.6-0.2
		C162.4,179.4,163.8,177.4,166.4,175.3z"/>
	<path class="st12" d="M166.4,175.3c2.1-1.7,10.4-5.5,12.1-3.4c1.7,2.1-3.6,9.5-5.7,11.2c-2.6,2.1-4.9,3.1-7.6-0.2
		C162.4,179.4,163.8,177.4,166.4,175.3z"/>
	<path class="st13" d="M166.4,175.3c2-1.7,10.1-5.4,11.7-3.3c1.7,2-3.5,9.2-5.5,10.9c-2.5,2-4.7,3-7.4-0.2
		C162.6,179.3,164,177.3,166.4,175.3z"/>
	<path class="st14" d="M166.4,175.3c2-1.7,10.1-5.4,11.7-3.3c1.7,2-3.5,9.2-5.5,10.9c-2.5,2-4.7,3-7.4-0.2
		C162.6,179.3,164,177.3,166.4,175.3z"/>
	<path class="st15" d="M166.5,175.2c2-1.6,9.8-5.2,11.4-3.2c1.6,2-3.4,8.9-5.4,10.6c-2.4,2-4.6,2.9-7.2-0.2
		C162.7,179.2,164.1,177.2,166.5,175.2z"/>
	<path class="st16" d="M166.5,175.2c2-1.6,9.8-5.2,11.4-3.2c1.6,2-3.4,8.9-5.4,10.6c-2.4,2-4.6,2.9-7.2-0.2
		C162.7,179.2,164.1,177.2,166.5,175.2z"/>
	<path class="st17" d="M166.5,175.2c1.9-1.6,9.5-5,11-3.1c1.6,1.9-3.3,8.7-5.2,10.2c-2.3,1.9-4.5,2.8-6.9-0.2
		C162.9,179.1,164.2,177.2,166.5,175.2z"/>
	<path class="st18" d="M166.5,175.2c1.9-1.6,9.5-5,11-3.1c1.6,1.9-3.3,8.7-5.2,10.2c-2.3,1.9-4.5,2.8-6.9-0.2
		C162.9,179.1,164.2,177.2,166.5,175.2z"/>
	<path class="st19" d="M166.6,175.2c1.9-1.5,9.2-4.9,10.7-3c1.5,1.8-3.2,8.4-5,9.9c-2.3,1.9-4.3,2.7-6.7-0.2
		C163.1,179,164.3,177.1,166.6,175.2z"/>
	<path class="st20" d="M166.6,175.2c1.9-1.5,9.2-4.9,10.7-3c1.5,1.8-3.2,8.4-5,9.9c-2.3,1.9-4.3,2.7-6.7-0.2
		C163.1,179,164.3,177.1,166.6,175.2z"/>
	<path class="st21" d="M166.6,175.2c1.8-1.5,8.8-4.7,10.3-2.9s-3.1,8.1-4.9,9.6c-2.2,1.8-4.2,2.6-6.5-0.2
		C163.2,178.8,164.5,177,166.6,175.2z"/>
	<path class="st22" d="M166.6,175.2c1.8-1.5,8.8-4.7,10.3-2.9s-3.1,8.1-4.9,9.6c-2.2,1.8-4.2,2.6-6.5-0.2
		C163.2,178.8,164.5,177,166.6,175.2z"/>
	<path class="st23" d="M166.7,175.2c1.7-1.4,8.5-4.6,10-2.8c1.4,1.7-3,7.8-4.7,9.2c-2.1,1.7-4,2.6-6.3-0.2
		C163.4,178.7,164.6,177,166.7,175.2z"/>
	<path class="st24" d="M166.7,175.2c1.7-1.4,8.5-4.6,10-2.8c1.4,1.7-3,7.8-4.7,9.2c-2.1,1.7-4,2.6-6.3-0.2
		C163.4,178.7,164.6,177,166.7,175.2z"/>
	<path class="st25" d="M166.7,175.2c1.7-1.4,8.2-4.4,9.6-2.7c1.4,1.7-2.9,7.5-4.5,8.9c-2,1.7-3.9,2.5-6-0.2S164.7,176.9,166.7,175.2
		z"/>
	<path class="st26" d="M166.7,175.2c1.7-1.4,8.2-4.4,9.6-2.7c1.4,1.7-2.9,7.5-4.5,8.9c-2,1.7-3.9,2.5-6-0.2S164.7,176.9,166.7,175.2
		z"/>
	<path class="st27" d="M166.8,175.2c1.6-1.3,7.9-4.2,9.2-2.6c1.3,1.6-2.8,7.3-4.4,8.6c-2,1.6-3.7,2.4-5.8-0.2
		C163.7,178.5,164.8,176.9,166.8,175.2z"/>
	<path class="st28" d="M166.8,175.2c1.6-1.3,7.9-4.2,9.2-2.6c1.3,1.6-2.8,7.3-4.4,8.6c-2,1.6-3.7,2.4-5.8-0.2
		C163.7,178.5,164.8,176.9,166.8,175.2z"/>
	<path class="st29" d="M166.8,175.2c1.5-1.3,7.6-4.1,8.9-2.5c1.3,1.5-2.7,7-4.2,8.3c-1.9,1.6-3.6,2.3-5.6-0.2S165,176.8,166.8,175.2
		z"/>
	<path class="st30" d="M166.8,175.2c1.5-1.3,7.6-4.1,8.9-2.5c1.3,1.5-2.7,7-4.2,8.3c-1.9,1.6-3.6,2.3-5.6-0.2S165,176.8,166.8,175.2
		z"/>
	<path class="st31" d="M166.9,175.2c1.5-1.2,7.3-3.9,8.5-2.4s-2.5,6.7-4,7.9c-1.8,1.5-3.4,2.2-5.4-0.2
		C164.1,178.2,165.1,176.7,166.9,175.2z"/>
	<path class="st32" d="M166.9,175.2c1.5-1.2,7.3-3.9,8.5-2.4s-2.5,6.7-4,7.9c-1.8,1.5-3.4,2.2-5.4-0.2
		C164.1,178.2,165.1,176.7,166.9,175.2z"/>
	<path class="st33" d="M166.9,175.2c1.4-1.2,7-3.7,8.2-2.3s-2.4,6.4-3.9,7.6c-1.7,1.4-3.3,2.1-5.2-0.2
		C164.2,178.1,165.2,176.7,166.9,175.2z"/>
	<path class="st34" d="M166.9,175.2c1.4-1.2,7-3.7,8.2-2.3s-2.4,6.4-3.9,7.6c-1.7,1.4-3.3,2.1-5.2-0.2
		C164.2,178.1,165.2,176.7,166.9,175.2z"/>
	<path class="st35" d="M167,175.2c1.4-1.1,6.7-3.6,7.8-2.2c1.1,1.4-2.3,6.2-3.7,7.3c-1.7,1.4-3.2,2-4.9-0.2
		C164.4,178,165.3,176.6,167,175.2z"/>
	<path class="st36" d="M167,175.2c1.4-1.1,6.7-3.6,7.8-2.2c1.1,1.4-2.3,6.2-3.7,7.3c-1.7,1.4-3.2,2-4.9-0.2
		C164.4,178,165.3,176.6,167,175.2z"/>
	<path class="st37" d="M167,175.2c1.3-1.1,6.4-3.4,7.5-2.1c1.1,1.3-2.2,5.9-3.5,7c-1.6,1.3-3,1.9-4.7-0.2S165.5,176.5,167,175.2z"/>
	<path class="st38" d="M167,175.2c1.3-1.1,6.4-3.4,7.5-2.1c1.1,1.3-2.2,5.9-3.5,7c-1.6,1.3-3,1.9-4.7-0.2S165.5,176.5,167,175.2z"/>
	<path class="st39" d="M167.1,175.2c1.2-1,6.1-3.3,7.1-2c1,1.2-2.1,5.6-3.4,6.6c-1.5,1.3-2.9,1.8-4.5-0.1
		C164.7,177.7,165.6,176.5,167.1,175.2z"/>
	<path class="st40" d="M167.1,175.2c1.2-1,6.1-3.3,7.1-2c1,1.2-2.1,5.6-3.4,6.6c-1.5,1.3-2.9,1.8-4.5-0.1
		C164.7,177.7,165.6,176.5,167.1,175.2z"/>
	<path class="st41" d="M167.1,175.2c1.2-1,5.8-3.1,6.7-1.9c1,1.2-2,5.3-3.2,6.3c-1.4,1.2-2.7,1.7-4.3-0.1
		C164.9,177.6,165.7,176.4,167.1,175.2z"/>
	<path class="st42" d="M167.1,175.2c1.2-1,5.8-3.1,6.7-1.9c1,1.2-2,5.3-3.2,6.3c-1.4,1.2-2.7,1.7-4.3-0.1
		C164.9,177.6,165.7,176.4,167.1,175.2z"/>
	<path class="st43" d="M167.2,175.2c1.1-0.9,5.5-2.9,6.4-1.8c0.9,1.1-1.9,5.1-3,6c-1.4,1.1-2.6,1.7-4-0.1
		C165.1,177.5,165.8,176.3,167.2,175.2z"/>
	<path class="st44" d="M167.2,175.2c1.1-0.9,5.5-2.9,6.4-1.8c0.9,1.1-1.9,5.1-3,6c-1.4,1.1-2.6,1.7-4-0.1
		C165.1,177.5,165.8,176.3,167.2,175.2z"/>
	<path class="st45" d="M167.2,175.2c1-0.9,5.2-2.8,6-1.7c0.9,1.1-1.8,4.8-2.9,5.7c-1.3,1.1-2.4,1.6-3.8-0.1
		C165.2,177.3,165.9,176.3,167.2,175.2z"/>
	<path class="st46" d="M167.2,175.2c1-0.9,5.2-2.8,6-1.7c0.9,1.1-1.8,4.8-2.9,5.7c-1.3,1.1-2.4,1.6-3.8-0.1
		C165.2,177.3,165.9,176.3,167.2,175.2z"/>
	<path class="st47" d="M167.3,175.2c1-0.8,4.9-2.6,5.7-1.6s-1.7,4.5-2.7,5.3c-1.2,1-2.3,1.5-3.6-0.1
		C165.4,177.2,166.1,176.2,167.3,175.2z"/>
	<path class="st48" d="M167.3,175.2c1-0.8,4.9-2.6,5.7-1.6s-1.7,4.5-2.7,5.3c-1.2,1-2.3,1.5-3.6-0.1
		C165.4,177.2,166.1,176.2,167.3,175.2z"/>
	<path class="st49" d="M167.3,175.2c0.9-0.8,4.6-2.5,5.3-1.5c0.8,0.9-1.6,4.2-2.5,5c-1.1,0.9-2.2,1.4-3.4-0.1
		C165.6,177.1,166.2,176.1,167.3,175.2z"/>
	<path class="st50" d="M167.3,175.2c0.9-0.8,4.6-2.5,5.3-1.5c0.8,0.9-1.6,4.2-2.5,5c-1.1,0.9-2.2,1.4-3.4-0.1
		C165.6,177.1,166.2,176.1,167.3,175.2z"/>
	<path class="st51" d="M167.4,175.2c0.9-0.7,4.3-2.3,5-1.4c0.7,0.9-1.5,4-2.3,4.7c-1.1,0.9-2,1.3-3.1-0.1
		C165.7,177,166.3,176.1,167.4,175.2z"/>
	<path class="st52" d="M167.4,175.2c0.9-0.7,4.3-2.3,5-1.4c0.7,0.9-1.5,4-2.3,4.7c-1.1,0.9-2,1.3-3.1-0.1
		C165.7,177,166.3,176.1,167.4,175.2z"/>
	<path class="st53" d="M167.4,175.2c0.8-0.7,4-2.1,4.6-1.3c0.7,0.8-1.4,3.7-2.2,4.4c-1,0.8-1.9,1.2-2.9-0.1
		C165.9,176.8,166.4,176,167.4,175.2z"/>
	<path class="st54" d="M167.4,175.2c0.8-0.7,4-2.1,4.6-1.3c0.7,0.8-1.4,3.7-2.2,4.4c-1,0.8-1.9,1.2-2.9-0.1
		C165.9,176.8,166.4,176,167.4,175.2z"/>
	<path class="st55" d="M167.5,175.2c0.7-0.6,3.7-2,4.3-1.2s-1.3,3.4-2,4c-0.9,0.8-1.7,1.1-2.7-0.1
		C166.1,176.7,166.6,176,167.5,175.2z"/>
	<path class="st56" d="M167.5,175.2c0.7-0.6,3.7-2,4.3-1.2s-1.3,3.4-2,4c-0.9,0.8-1.7,1.1-2.7-0.1
		C166.1,176.7,166.6,176,167.5,175.2z"/>
	<path class="st57" d="M167.5,175.2c0.7-0.6,3.3-1.8,3.9-1.1c0.6,0.7-1.2,3.1-1.8,3.7c-0.8,0.7-1.6,1-2.5-0.1
		C166.2,176.6,166.7,175.9,167.5,175.2z"/>
	<path class="st58" d="M167.5,175.2c0.7-0.6,3.3-1.8,3.9-1.1c0.6,0.7-1.2,3.1-1.8,3.7c-0.8,0.7-1.6,1-2.5-0.1
		C166.2,176.6,166.7,175.9,167.5,175.2z"/>
	<path class="st59" d="M167.6,175.2c0.6-0.5,3-1.7,3.5-1c0.5,0.6-1.1,2.9-1.7,3.4c-0.8,0.6-1.4,0.9-2.2-0.1
		C166.4,176.5,166.8,175.8,167.6,175.2z"/>
	<path class="st60" d="M167.6,175.2c0.6-0.5,3-1.7,3.5-1c0.5,0.6-1.1,2.9-1.7,3.4c-0.8,0.6-1.4,0.9-2.2-0.1
		C166.4,176.5,166.8,175.8,167.6,175.2z"/>
	<path class="st61" d="M167.6,175.2c0.6-0.5,2.7-1.5,3.2-0.9s-1,2.6-1.5,3.1c-0.7,0.6-1.3,0.8-2-0.1
		C166.6,176.3,166.9,175.8,167.6,175.2z"/>
	<path class="st62" d="M167.6,175.2c0.6-0.5,2.7-1.5,3.2-0.9s-1,2.6-1.5,3.1c-0.7,0.6-1.3,0.8-2-0.1
		C166.6,176.3,166.9,175.8,167.6,175.2z"/>
	<path class="st61" d="M167.7,175.2c0.5-0.4,2.4-1.3,2.8-0.8c0.4,0.5-0.8,2.3-1.3,2.7c-0.6,0.5-1.1,0.8-1.8-0.1
		C166.7,176.2,167.1,175.7,167.7,175.2z"/>
	<path class="st62" d="M167.7,175.2c0.5-0.4,2.4-1.3,2.8-0.8c0.4,0.5-0.8,2.3-1.3,2.7c-0.6,0.5-1.1,0.8-1.8-0.1
		C166.7,176.2,167.1,175.7,167.7,175.2z"/>
	<path class="st61" d="M167.7,175.2c0.4-0.4,2.1-1.2,2.5-0.7c0.4,0.4-0.7,2-1.2,2.4c-0.5,0.5-1,0.7-1.6-0.1
		C166.9,176.1,167.2,175.6,167.7,175.2z"/>
	<path class="st62" d="M167.7,175.2c0.4-0.4,2.1-1.2,2.5-0.7c0.4,0.4-0.7,2-1.2,2.4c-0.5,0.5-1,0.7-1.6-0.1
		C166.9,176.1,167.2,175.6,167.7,175.2z"/>
	<path class="st63" d="M180,171.3c2,2.4-4.1,10.9-6.6,12.8c-2.9,2.4-5.6,3.5-8.7-0.3c-3.1-3.8-1.5-6.2,1.4-8.6
		C168.6,173.3,178.1,169,180,171.3z"/>
	<path class="st2" d="M166.2,175.3c2.4-2,11.9-6.3,13.9-3.9c2,2.4-4.1,10.9-6.6,12.8c-2.9,2.4-5.6,3.5-8.7-0.3
		C161.6,180.1,163.2,177.7,166.2,175.3z"/>
	<path class="st2" d="M166.2,175.3c2.4-2,11.9-6.3,13.9-3.9c2,2.4-4.1,10.9-6.6,12.8c-2.9,2.4-5.6,3.5-8.7-0.3
		C161.6,180.1,163.2,177.7,166.2,175.3z"/>
	<circle cx="189.4" cy="163.9" r="2.2"/>
	<circle class="st64" cx="178.9" cy="206.7" r="12.6"/>
</g>
<g>
	<path d="M71.3,290.8l1-1.1c1,0.9,2.3,1.4,3.5,1.4c1.7,0,3.1-1,3.1-2.2c0-0.7-0.7-1.1-2.4-1.7c-2.4-0.7-3.3-1.5-3.3-2.7
		c0-2.3,1.9-3.9,4.6-3.9c1.3,0,2.8,0.5,3.9,1.3l-1,1.2c-0.9-0.7-2-1-3-1c-1.7,0-2.9,0.9-2.9,2c0,0.5,0.7,1,2.5,1.7
		c2.3,0.7,3.2,1.5,3.2,2.8c0,2.2-2.2,4-4.8,4C74.1,292.6,72.5,291.9,71.3,290.8z"/>
	<path d="M84.9,280.9h1.7l-2.4,11.4h-1.7L84.9,280.9z M85.1,277.9c0-0.6,0.5-1.2,1.2-1.2c0.6,0,1,0.4,1,1s-0.6,1.2-1.2,1.2
		S85.1,278.4,85.1,277.9z"/>
	<path d="M98.8,284.1c0,0.8-0.2,1.4-1.6,8.2h-1.7c1.4-6.8,1.6-7.3,1.6-7.9c0-1.4-0.8-2.2-2.2-2.2c-1.9,0-3.8,1.3-4.2,2.9l-1.5,7.3
		h-1.7l2.4-11.4h1.7l-0.4,1.7c0.9-1.2,2.5-2,4-2C97.4,280.7,98.8,282,98.8,284.1z"/>
	<path d="M113,280.9l-2.1,10.2c-0.6,3-3.4,4.9-6.5,4.9c-1.9,0-3.5-0.7-4.3-1.6l0.9-1.2c0.7,0.8,1.9,1.3,3.4,1.3c2.6,0,4.5-1.4,5-3.6
		l0.4-1.7c-1.2,1.3-2.7,2.1-4.5,2.1c-2.6,0-4.3-1.7-4.3-4.3c0-3.4,2.8-6.5,6.3-6.5c2,0,3.2,1,3.8,2.3l0.4-2.1h1.5V280.9z
		 M110.3,286.2l0.1-0.5c0-0.2,0-0.4,0-0.6c0-1.8-1.1-2.9-3-2.9c-2.7,0-4.9,2.3-4.9,4.9c0,1.8,1.1,3,3,3
		C107.9,290,109.7,288.3,110.3,286.2z"/>
	<path d="M117.4,276.9h1.7l-3.2,15.4h-1.7L117.4,276.9z"/>
	<path d="M121.3,287.2c0,0.2,0,0.3,0,0.4c0,2.1,1.2,3.4,3.3,3.4c1.4,0,3-0.6,3.9-1.4l0.9,1.2c-1.2,1.1-3.5,1.7-5,1.7
		c-2.7,0-4.6-1.9-4.6-4.8c0-3.8,3.4-7.2,7-7.2c2.1,0,4.1,1.2,4.1,3.1c0,2-2,3.4-5.4,3.4h-4.2V287.2z M121.6,285.8h4
		c2.2,0,3.5-0.7,3.5-1.9c0-1.1-1.1-1.8-2.6-1.8C124.1,282.1,122.3,283.8,121.6,285.8z"/>
	<path d="M140.1,287.2c0,0.2,0,0.3,0,0.4c0,2.1,1.2,3.4,3.3,3.4c1.4,0,3-0.6,3.9-1.4l0.9,1.2c-1.2,1.1-3.5,1.7-5,1.7
		c-2.7,0-4.6-1.9-4.6-4.8c0-3.8,3.4-7.2,7-7.2c2.1,0,4.1,1.2,4.1,3.1c0,2-2,3.4-5.4,3.4h-4.2V287.2z M140.5,285.8h4
		c2.2,0,3.5-0.7,3.5-1.9c0-1.1-1.1-1.8-2.6-1.8C143,282.1,141.2,283.8,140.5,285.8z"/>
	<path d="M153.7,276.9h1.7l-3.2,15.4h-1.7L153.7,276.9z"/>
	<path d="M157.6,287.2c0,0.2,0,0.3,0,0.4c0,2.1,1.2,3.4,3.3,3.4c1.4,0,3-0.6,3.9-1.4l0.9,1.2c-1.2,1.1-3.5,1.7-5,1.7
		c-2.7,0-4.6-1.9-4.6-4.8c0-3.8,3.4-7.2,7-7.2c2.1,0,4.1,1.2,4.1,3.1c0,2-2,3.4-5.4,3.4h-4.2V287.2z M158,285.8h4
		c2.2,0,3.5-0.7,3.5-1.9c0-1.1-1.1-1.8-2.6-1.8C160.5,282.1,158.7,283.8,158,285.8z"/>
	<path d="M168.5,287.7c0-3.8,3.3-7.1,7.2-7.1c1.3,0,2.8,0.7,3.7,1.7l-1.3,1c-0.5-0.7-1.7-1.3-2.7-1.3c-2.8,0-5.2,2.5-5.2,5.5
		c0,1.9,1.5,3.5,3.3,3.5c1.1,0,2.2-0.5,3.3-1.4l1,1.2c-1.4,1.1-2.9,1.7-4.5,1.7C170.7,292.6,168.5,290.3,168.5,287.7z"/>
	<path d="M184.6,282.4c-1.7,7.9-1.6,7.5-1.6,7.7c0,0.6,0.4,1,0.9,1c0.6,0,1.1-0.2,1.4-0.5l0.7,1.3c-0.7,0.5-1.5,0.7-2.2,0.7
		c-1.4,0-2.3-0.9-2.3-2.3c0-0.5,0.1-0.9,1.6-7.9h-1.8l0.3-1.5h1.8l0.7-3.1h1.6l-0.7,3.1h2.8l-0.3,1.5L184.6,282.4L184.6,282.4z"/>
	<path d="M196.8,280.7l-0.2,1.5c-2.6,0-4.8,1.6-5.3,3.9l-1.3,6.3h-1.7l2.4-11.4h1.6l-0.5,2.2C192.9,281.6,194.7,280.7,196.8,280.7z"
		/>
	<path d="M196.9,287.7c0-3.8,3.3-7.1,7.2-7.1c2.6,0,4.8,2.2,4.8,4.8c0,3.8-3.3,7.1-7.3,7.1C199,292.6,196.9,290.3,196.9,287.7z
		 M207.1,285.6c0-1.9-1.5-3.5-3.4-3.5c-2.8,0-5.1,2.5-5.1,5.5c0,1.9,1.5,3.5,3.3,3.5C204.7,291.1,207.1,288.6,207.1,285.6z"/>
	<path d="M221.5,284.1c0,0.8-0.2,1.4-1.6,8.2h-1.7c1.4-6.8,1.6-7.3,1.6-7.9c0-1.4-0.8-2.2-2.2-2.2c-1.9,0-3.8,1.3-4.2,2.9l-1.5,7.3
		h-1.7l2.4-11.4h1.7l-0.3,1.7c0.9-1.2,2.5-2,4-2C220.2,280.7,221.5,282,221.5,284.1z"/>
	<path d="M57.1,308.9l-2.4,11.4H53l0.4-1.7c-0.9,1.2-2.5,2-4,2c-2.2,0-3.6-1.4-3.6-3.4c0-0.8,0.2-1.4,1.6-8.2h1.7
		c-1.4,6.8-1.6,7.3-1.6,7.9c0,1.4,0.8,2.2,2.2,2.2c1.9,0,3.8-1.3,4.2-2.9l1.5-7.3H57.1z"/>
	<path d="M76,312c0,0.7-0.2,1.2-1.6,8.3h-1.7c1.5-7.3,1.6-7.5,1.6-7.9c0-1.4-0.7-2.3-2-2.3c-1.7,0-3.4,1.2-3.7,3
		c-0.2,1-0.6,2.8-1.5,7.2h-1.7c1.5-7.3,1.6-7.5,1.6-7.9c0-1.4-0.7-2.3-2-2.3c-1.6,0-3.3,1.2-3.7,2.8l-1.5,7.3h-1.7l2.4-11.4h1.7
		l-0.3,1.6c0.8-1.2,2.1-1.8,3.6-1.8c1.7,0,2.9,0.9,3.2,2.4c0.7-1.5,2.4-2.4,4.1-2.4C74.7,308.7,76,310,76,312z"/>
	<path d="M90.3,313.2c0,4-3.1,7.4-6.7,7.4c-1.6,0-2.9-1.1-3.5-2.7l-1.3,6.2h-1.6l3.1-15.2h1.6l-0.4,2.1c1.1-1.5,2.8-2.4,4.6-2.4
		C88.4,308.7,90.3,310.7,90.3,313.2z M88.6,313.3c0-1.7-1.3-3.2-2.9-3.2c-2.8,0-5.1,2.6-5.1,5.8c0,1.7,1.5,3.2,3.2,3.2
		C86.4,319.1,88.6,316.4,88.6,313.3z"/>
	<path d="M92.3,315.7c0-3.8,3.3-7.1,7.2-7.1c2.6,0,4.8,2.2,4.8,4.8c0,3.8-3.3,7.1-7.3,7.1C94.5,320.6,92.3,318.3,92.3,315.7z
		 M102.6,313.6c0-1.9-1.5-3.5-3.4-3.5c-2.8,0-5.1,2.5-5.1,5.5c0,1.9,1.5,3.5,3.3,3.5C100.2,319.1,102.6,316.6,102.6,313.6z"/>
	<path d="M109,304.9h1.6l-3.2,15.4h-1.7L109,304.9z"/>
	<path d="M122.8,308.9l-2.4,11.4h-1.7l0.4-1.7c-0.9,1.2-2.5,2-4,2c-2.2,0-3.6-1.4-3.6-3.4c0-0.8,0.2-1.4,1.6-8.2h1.7
		c-1.4,6.8-1.6,7.3-1.6,7.9c0,1.4,0.8,2.2,2.2,2.2c1.9,0,3.8-1.3,4.2-2.9l1.5-7.3H122.8z"/>
	<path d="M135,312.1c0,0.8-0.2,1.4-1.6,8.2h-1.7c1.4-6.8,1.6-7.3,1.6-7.9c0-1.4-0.8-2.2-2.2-2.2c-1.9,0-3.8,1.3-4.2,2.9l-1.5,7.3
		h-1.7l2.4-11.4h1.7l-0.4,1.7c0.9-1.2,2.5-2,4-2C133.7,308.7,135,310,135,312.1z"/>
	<path d="M149.3,308.9l-2.1,10.2c-0.6,3-3.4,4.9-6.5,4.9c-1.9,0-3.5-0.7-4.3-1.6l0.9-1.2c0.7,0.8,1.9,1.3,3.4,1.3
		c2.6,0,4.5-1.4,5-3.6l0.4-1.7c-1.2,1.3-2.7,2.1-4.5,2.1c-2.6,0-4.3-1.7-4.3-4.3c0-3.4,2.8-6.5,6.3-6.5c2,0,3.2,1,3.8,2.3l0.4-2.1
		h1.5V308.9z M146.6,314.2l0.1-0.5c0-0.2,0-0.4,0-0.6c0-1.8-1.1-2.9-3-2.9c-2.7,0-4.9,2.3-4.9,4.9c0,1.8,1.1,3,3,3
		C144.1,318,146,316.3,146.6,314.2z"/>
	<path d="M157.3,315.7c0-3.8,3.3-7.1,7.2-7.1c1.3,0,2.8,0.7,3.7,1.7l-1.3,1c-0.5-0.7-1.7-1.3-2.7-1.3c-2.8,0-5.2,2.5-5.2,5.5
		c0,1.9,1.5,3.5,3.3,3.5c1.1,0,2.2-0.5,3.3-1.4l1,1.2c-1.4,1.1-2.9,1.7-4.5,1.7C159.5,320.6,157.3,318.3,157.3,315.7z"/>
	<path d="M181.8,308.9l-2.4,11.4h-1.6l0.4-2.1c-1.1,1.5-2.8,2.4-4.5,2.4c-2.3,0-4.3-2.1-4.3-4.5c0-4,3.1-7.4,6.7-7.4
		c1.5,0,2.9,1.1,3.5,2.7l0.5-2.4h1.7V308.9z M179,313.3c0-1.7-1.5-3.2-3.3-3.2c-2.6,0-4.7,2.6-4.7,5.8c0,1.7,1.3,3.2,2.9,3.2
		C176.7,319.1,179,316.4,179,313.3z"/>
	<path d="M187.5,310.4c-1.7,7.9-1.6,7.5-1.6,7.7c0,0.6,0.4,1,0.9,1c0.6,0,1.1-0.2,1.4-0.5l0.7,1.3c-0.7,0.5-1.5,0.7-2.2,0.7
		c-1.4,0-2.3-0.9-2.3-2.3c0-0.5,0.1-0.9,1.6-7.9h-1.8l0.3-1.5h1.8l0.7-3.1h1.7l-0.7,3.1h2.8l-0.3,1.5L187.5,310.4L187.5,310.4z"/>
	<path d="M204,308.9l-2.4,11.4H200l0.4-2.1c-1.1,1.5-2.8,2.4-4.5,2.4c-2.3,0-4.3-2.1-4.3-4.5c0-4,3.1-7.4,6.7-7.4
		c1.5,0,2.9,1.1,3.5,2.7l0.5-2.4h1.7V308.9z M201.3,313.3c0-1.7-1.5-3.2-3.3-3.2c-2.6,0-4.7,2.6-4.7,5.8c0,1.7,1.3,3.2,2.9,3.2
		C199,319.1,201.3,316.4,201.3,313.3z"/>
	<path d="M208.4,304.9h1.6l-3.2,15.4h-1.7L208.4,304.9z"/>
	<path d="M209.3,323.9l0.6-1.4c0.4,0.2,0.8,0.3,1.2,0.3c0.8,0,1.4-0.3,2-1.1l1-1.3l-2.6-11.4h1.8l2,9.5l5.7-9.5h1.8l-7.8,12.7
		c-1.2,1.9-2.4,2.6-3.9,2.6C210.4,324.3,209.8,324.1,209.3,323.9z"/>
	<path d="M222.8,318.8l1-1.1c1,0.9,2.3,1.4,3.5,1.4c1.7,0,3.1-1,3.1-2.2c0-0.7-0.7-1.1-2.4-1.7c-2.4-0.7-3.3-1.5-3.3-2.7
		c0-2.3,1.9-3.9,4.6-3.9c1.3,0,2.8,0.5,3.9,1.3l-1,1.2c-0.9-0.7-2-1-3-1c-1.7,0-2.9,0.9-2.9,2c0,0.5,0.7,1,2.5,1.7
		c2.3,0.7,3.2,1.5,3.2,2.8c0,2.2-2.2,4-4.8,4C225.6,320.6,224,319.9,222.8,318.8z"/>
	<path d="M236.4,308.9h1.7l-2.4,11.4H234L236.4,308.9z M236.7,305.9c0-0.6,0.5-1.2,1.2-1.2c0.6,0,1,0.4,1,1s-0.6,1.2-1.2,1.2
		S236.7,306.4,236.7,305.9z"/>
	<path d="M238.7,318.8l1-1.1c1,0.9,2.3,1.4,3.5,1.4c1.7,0,3.1-1,3.1-2.2c0-0.7-0.7-1.1-2.4-1.7c-2.4-0.7-3.3-1.5-3.3-2.7
		c0-2.3,1.9-3.9,4.6-3.9c1.3,0,2.8,0.5,3.9,1.3l-1,1.2c-0.9-0.7-2-1-3-1c-1.7,0-2.9,0.9-2.9,2c0,0.5,0.7,1,2.5,1.7
		c2.3,0.7,3.2,1.5,3.2,2.8c0,2.2-2.2,4-4.8,4C241.5,320.6,239.8,319.9,238.7,318.8z"/>
</g>
</svg>
