<?xml version="1.0" encoding="utf-8"?>
<!-- Generator: Adobe Illustrator 19.2.0, SVG Export Plug-In . SVG Version: 6.00 Build 0)  -->
<svg version="1.1" id="General" xmlns="http://www.w3.org/2000/svg" xmlns:xlink="http://www.w3.org/1999/xlink" x="0px" y="0px"
	 viewBox="0 0 44 44" style="enable-background:new 0 0 44 44;" xml:space="preserve">
<style type="text/css">
	.st0{fill:#FFFFFF;}
</style>
<g id="Zoom_In_x40_2x.png">
	<g>
		<path class="st0" d="M28,18h-8v-8c0-0.6-0.4-1-1-1s-1,0.4-1,1v8h-8c-0.6,0-1,0.4-1,1c0,0.6,0.4,1,1,1h8v8c0,0.6,0.4,1,1,1
			s1-0.4,1-1v-8h8c0.6,0,1-0.4,1-1C29,18.4,28.6,18,28,18z M43.7,42.3L33.1,31.7c3-3.4,4.9-7.8,4.9-12.7C38,8.5,29.5,0,19,0
			C8.5,0,0,8.5,0,19c0,10.5,8.5,19,19,19c4.9,0,9.3-1.9,12.7-4.9l10.6,10.6c0.2,0.2,0.4,0.3,0.7,0.3c0.6,0,1-0.4,1-1
			C44,42.7,43.9,42.5,43.7,42.3z M19,36C9.6,36,2,28.4,2,19S9.6,2,19,2c9.4,0,17,7.6,17,17S28.4,36,19,36z"/>
	</g>
</g>
</svg>
