<?xml version="1.0" encoding="utf-8"?>
<!-- Generator: Adobe Illustrator 19.2.0, SVG Export Plug-In . SVG Version: 6.00 Build 0)  -->
<svg version="1.1" id="Layer_1" xmlns="http://www.w3.org/2000/svg" xmlns:xlink="http://www.w3.org/1999/xlink" x="0px" y="0px"
	 viewBox="0 0 409 203" style="enable-background:new 0 0 409 203;" xml:space="preserve">
<style type="text/css">
	.st0{fill:#FFCC66;}
	.st1{fill:#DFE8F1;}
	.st2{fill:none;stroke:#DFE8F1;stroke-width:1.9;stroke-miterlimit:10;}
	.st3{fill:none;stroke:#94B0D0;stroke-width:1.9;stroke-miterlimit:10;}
	.st4{clip-path:url(#SVGID_2_);}
	.st5{clip-path:url(#SVGID_4_);fill:#246EB0;}
	.st6{clip-path:url(#SVGID_4_);fill:none;stroke:#246EB0;stroke-width:2.15;stroke-miterlimit:10;}
	.st7{clip-path:url(#SVGID_4_);fill:#3177B5;}
	.st8{clip-path:url(#SVGID_4_);fill:none;stroke:#3177B5;stroke-width:2.15;stroke-miterlimit:10;}
	.st9{clip-path:url(#SVGID_4_);fill:#3F80BA;}
	.st10{clip-path:url(#SVGID_4_);fill:none;stroke:#3F80BA;stroke-width:2.15;stroke-miterlimit:10;}
	.st11{clip-path:url(#SVGID_4_);fill:#4B88BE;}
	.st12{clip-path:url(#SVGID_4_);fill:none;stroke:#4B88BE;stroke-width:2.15;stroke-miterlimit:10;}
	.st13{clip-path:url(#SVGID_4_);fill:#5790C3;}
	.st14{clip-path:url(#SVGID_4_);fill:none;stroke:#5790C3;stroke-width:2.15;stroke-miterlimit:10;}
	.st15{clip-path:url(#SVGID_4_);fill:#6398C7;}
	.st16{clip-path:url(#SVGID_4_);fill:none;stroke:#6398C7;stroke-width:2.15;stroke-miterlimit:10;}
	.st17{clip-path:url(#SVGID_4_);fill:#6E9FCB;}
	.st18{clip-path:url(#SVGID_4_);fill:none;stroke:#6E9FCB;stroke-width:2.15;stroke-miterlimit:10;}
	.st19{clip-path:url(#SVGID_4_);fill:#79A6CF;}
	.st20{clip-path:url(#SVGID_4_);fill:none;stroke:#79A6CF;stroke-width:2.15;stroke-miterlimit:10;}
	.st21{clip-path:url(#SVGID_4_);fill:#84ADD3;}
	.st22{clip-path:url(#SVGID_4_);fill:none;stroke:#84ADD3;stroke-width:2.15;stroke-miterlimit:10;}
	.st23{clip-path:url(#SVGID_4_);fill:#8EB4D6;}
	.st24{clip-path:url(#SVGID_4_);fill:none;stroke:#8EB4D6;stroke-width:2.15;stroke-miterlimit:10;}
	.st25{clip-path:url(#SVGID_4_);fill:#97BADA;}
	.st26{clip-path:url(#SVGID_4_);fill:none;stroke:#97BADA;stroke-width:2.15;stroke-miterlimit:10;}
	.st27{clip-path:url(#SVGID_4_);fill:#A1C1DD;}
	.st28{clip-path:url(#SVGID_4_);fill:none;stroke:#A1C1DD;stroke-width:2.15;stroke-miterlimit:10;}
	.st29{clip-path:url(#SVGID_4_);fill:#A9C6E0;}
	.st30{clip-path:url(#SVGID_4_);fill:none;stroke:#A9C6E0;stroke-width:2.15;stroke-miterlimit:10;}
	.st31{clip-path:url(#SVGID_4_);fill:#B2CCE3;}
	.st32{clip-path:url(#SVGID_4_);fill:none;stroke:#B2CCE3;stroke-width:2.15;stroke-miterlimit:10;}
	.st33{clip-path:url(#SVGID_4_);fill:#BAD1E6;}
	.st34{clip-path:url(#SVGID_4_);fill:none;stroke:#BAD1E6;stroke-width:2.15;stroke-miterlimit:10;}
	.st35{clip-path:url(#SVGID_4_);fill:#C1D6E9;}
	.st36{clip-path:url(#SVGID_4_);fill:none;stroke:#C1D6E9;stroke-width:2.15;stroke-miterlimit:10;}
	.st37{clip-path:url(#SVGID_4_);fill:#C8DBEB;}
	.st38{clip-path:url(#SVGID_4_);fill:none;stroke:#C8DBEB;stroke-width:2.15;stroke-miterlimit:10;}
	.st39{clip-path:url(#SVGID_4_);fill:#CFDFEE;}
	.st40{clip-path:url(#SVGID_4_);fill:none;stroke:#CFDFEE;stroke-width:2.15;stroke-miterlimit:10;}
	.st41{clip-path:url(#SVGID_4_);fill:#D5E3F0;}
	.st42{clip-path:url(#SVGID_4_);fill:none;stroke:#D5E3F0;stroke-width:2.15;stroke-miterlimit:10;}
	.st43{clip-path:url(#SVGID_4_);fill:#DBE7F2;}
	.st44{clip-path:url(#SVGID_4_);fill:none;stroke:#DBE7F2;stroke-width:2.15;stroke-miterlimit:10;}
	.st45{clip-path:url(#SVGID_4_);fill:#E0EBF4;}
	.st46{clip-path:url(#SVGID_4_);fill:none;stroke:#E0EBF4;stroke-width:2.15;stroke-miterlimit:10;}
	.st47{clip-path:url(#SVGID_4_);fill:#E5EEF6;}
	.st48{clip-path:url(#SVGID_4_);fill:none;stroke:#E5EEF6;stroke-width:2.15;stroke-miterlimit:10;}
	.st49{clip-path:url(#SVGID_4_);fill:#EAF1F7;}
	.st50{clip-path:url(#SVGID_4_);fill:none;stroke:#EAF1F7;stroke-width:2.15;stroke-miterlimit:10;}
	.st51{clip-path:url(#SVGID_4_);fill:#EEF4F9;}
	.st52{clip-path:url(#SVGID_4_);fill:none;stroke:#EEF4F9;stroke-width:2.15;stroke-miterlimit:10;}
	.st53{clip-path:url(#SVGID_4_);fill:#F1F6FA;}
	.st54{clip-path:url(#SVGID_4_);fill:none;stroke:#F1F6FA;stroke-width:2.15;stroke-miterlimit:10;}
	.st55{clip-path:url(#SVGID_4_);fill:#F5F8FB;}
	.st56{clip-path:url(#SVGID_4_);fill:none;stroke:#F5F8FB;stroke-width:2.15;stroke-miterlimit:10;}
	.st57{clip-path:url(#SVGID_4_);fill:#F7FAFC;}
	.st58{clip-path:url(#SVGID_4_);fill:none;stroke:#F7FAFC;stroke-width:2.15;stroke-miterlimit:10;}
	.st59{clip-path:url(#SVGID_4_);fill:#FAFBFD;}
	.st60{clip-path:url(#SVGID_4_);fill:none;stroke:#FAFBFD;stroke-width:2.15;stroke-miterlimit:10;}
	.st61{clip-path:url(#SVGID_4_);fill:#FCFDFE;}
	.st62{clip-path:url(#SVGID_4_);fill:none;stroke:#FCFDFE;stroke-width:2.15;stroke-miterlimit:10;}
	.st63{clip-path:url(#SVGID_4_);fill:#FDFEFE;}
	.st64{clip-path:url(#SVGID_4_);fill:none;stroke:#FDFEFE;stroke-width:2.15;stroke-miterlimit:10;}
	.st65{clip-path:url(#SVGID_4_);fill:#FEFEFF;}
	.st66{clip-path:url(#SVGID_4_);fill:none;stroke:#FEFEFF;stroke-width:2.15;stroke-miterlimit:10;}
	.st67{clip-path:url(#SVGID_4_);fill:#FFFFFF;}
	.st68{clip-path:url(#SVGID_4_);fill:none;stroke:#FFFFFF;stroke-width:2.15;stroke-miterlimit:10;}
	.st69{clip-path:url(#SVGID_6_);}
	.st70{clip-path:url(#SVGID_8_);fill:#246EB0;}
	.st71{clip-path:url(#SVGID_8_);fill:none;stroke:#246EB0;stroke-width:2.15;stroke-miterlimit:10;}
	.st72{clip-path:url(#SVGID_8_);fill:#3177B5;}
	.st73{clip-path:url(#SVGID_8_);fill:none;stroke:#3177B5;stroke-width:2.15;stroke-miterlimit:10;}
	.st74{clip-path:url(#SVGID_8_);fill:#3F80BA;}
	.st75{clip-path:url(#SVGID_8_);fill:none;stroke:#3F80BA;stroke-width:2.15;stroke-miterlimit:10;}
	.st76{clip-path:url(#SVGID_8_);fill:#4B88BE;}
	.st77{clip-path:url(#SVGID_8_);fill:none;stroke:#4B88BE;stroke-width:2.15;stroke-miterlimit:10;}
	.st78{clip-path:url(#SVGID_8_);fill:#5790C3;}
	.st79{clip-path:url(#SVGID_8_);fill:none;stroke:#5790C3;stroke-width:2.15;stroke-miterlimit:10;}
	.st80{clip-path:url(#SVGID_8_);fill:#6398C7;}
	.st81{clip-path:url(#SVGID_8_);fill:none;stroke:#6398C7;stroke-width:2.15;stroke-miterlimit:10;}
	.st82{clip-path:url(#SVGID_8_);fill:#6E9FCB;}
	.st83{clip-path:url(#SVGID_8_);fill:none;stroke:#6E9FCB;stroke-width:2.15;stroke-miterlimit:10;}
	.st84{clip-path:url(#SVGID_8_);fill:#79A6CF;}
	.st85{clip-path:url(#SVGID_8_);fill:none;stroke:#79A6CF;stroke-width:2.15;stroke-miterlimit:10;}
	.st86{clip-path:url(#SVGID_8_);fill:#84ADD3;}
	.st87{clip-path:url(#SVGID_8_);fill:none;stroke:#84ADD3;stroke-width:2.15;stroke-miterlimit:10;}
	.st88{clip-path:url(#SVGID_8_);fill:#8EB4D6;}
	.st89{clip-path:url(#SVGID_8_);fill:none;stroke:#8EB4D6;stroke-width:2.15;stroke-miterlimit:10;}
	.st90{clip-path:url(#SVGID_8_);fill:#97BADA;}
	.st91{clip-path:url(#SVGID_8_);fill:none;stroke:#97BADA;stroke-width:2.15;stroke-miterlimit:10;}
	.st92{clip-path:url(#SVGID_8_);fill:#A1C1DD;}
	.st93{clip-path:url(#SVGID_8_);fill:none;stroke:#A1C1DD;stroke-width:2.15;stroke-miterlimit:10;}
	.st94{clip-path:url(#SVGID_8_);fill:#A9C6E0;}
	.st95{clip-path:url(#SVGID_8_);fill:none;stroke:#A9C6E0;stroke-width:2.15;stroke-miterlimit:10;}
	.st96{clip-path:url(#SVGID_8_);fill:#B2CCE3;}
	.st97{clip-path:url(#SVGID_8_);fill:none;stroke:#B2CCE3;stroke-width:2.15;stroke-miterlimit:10;}
	.st98{clip-path:url(#SVGID_8_);fill:#BAD1E6;}
	.st99{clip-path:url(#SVGID_8_);fill:none;stroke:#BAD1E6;stroke-width:2.15;stroke-miterlimit:10;}
	.st100{clip-path:url(#SVGID_8_);fill:#C1D6E9;}
	.st101{clip-path:url(#SVGID_8_);fill:none;stroke:#C1D6E9;stroke-width:2.15;stroke-miterlimit:10;}
	.st102{clip-path:url(#SVGID_8_);fill:#C8DBEB;}
	.st103{clip-path:url(#SVGID_8_);fill:none;stroke:#C8DBEB;stroke-width:2.15;stroke-miterlimit:10;}
	.st104{clip-path:url(#SVGID_8_);fill:#CFDFEE;}
	.st105{clip-path:url(#SVGID_8_);fill:none;stroke:#CFDFEE;stroke-width:2.15;stroke-miterlimit:10;}
	.st106{clip-path:url(#SVGID_8_);fill:#D5E3F0;}
	.st107{clip-path:url(#SVGID_8_);fill:none;stroke:#D5E3F0;stroke-width:2.15;stroke-miterlimit:10;}
	.st108{clip-path:url(#SVGID_8_);fill:#DBE7F2;}
	.st109{clip-path:url(#SVGID_8_);fill:none;stroke:#DBE7F2;stroke-width:2.15;stroke-miterlimit:10;}
	.st110{clip-path:url(#SVGID_8_);fill:#E0EBF4;}
	.st111{clip-path:url(#SVGID_8_);fill:none;stroke:#E0EBF4;stroke-width:2.15;stroke-miterlimit:10;}
	.st112{clip-path:url(#SVGID_8_);fill:#E5EEF6;}
	.st113{clip-path:url(#SVGID_8_);fill:none;stroke:#E5EEF6;stroke-width:2.15;stroke-miterlimit:10;}
	.st114{clip-path:url(#SVGID_8_);fill:#EAF1F7;}
	.st115{clip-path:url(#SVGID_8_);fill:none;stroke:#EAF1F7;stroke-width:2.15;stroke-miterlimit:10;}
	.st116{clip-path:url(#SVGID_8_);fill:#EEF4F9;}
	.st117{clip-path:url(#SVGID_8_);fill:none;stroke:#EEF4F9;stroke-width:2.15;stroke-miterlimit:10;}
	.st118{clip-path:url(#SVGID_8_);fill:#F1F6FA;}
	.st119{clip-path:url(#SVGID_8_);fill:none;stroke:#F1F6FA;stroke-width:2.15;stroke-miterlimit:10;}
	.st120{clip-path:url(#SVGID_8_);fill:#F5F8FB;}
	.st121{clip-path:url(#SVGID_8_);fill:none;stroke:#F5F8FB;stroke-width:2.15;stroke-miterlimit:10;}
	.st122{clip-path:url(#SVGID_8_);fill:#F7FAFC;}
	.st123{clip-path:url(#SVGID_8_);fill:none;stroke:#F7FAFC;stroke-width:2.15;stroke-miterlimit:10;}
	.st124{clip-path:url(#SVGID_8_);fill:#FAFBFD;}
	.st125{clip-path:url(#SVGID_8_);fill:none;stroke:#FAFBFD;stroke-width:2.15;stroke-miterlimit:10;}
	.st126{clip-path:url(#SVGID_8_);fill:#FCFDFE;}
	.st127{clip-path:url(#SVGID_8_);fill:none;stroke:#FCFDFE;stroke-width:2.15;stroke-miterlimit:10;}
	.st128{clip-path:url(#SVGID_8_);fill:#FDFEFE;}
	.st129{clip-path:url(#SVGID_8_);fill:none;stroke:#FDFEFE;stroke-width:2.15;stroke-miterlimit:10;}
	.st130{clip-path:url(#SVGID_8_);fill:#FEFEFF;}
	.st131{clip-path:url(#SVGID_8_);fill:none;stroke:#FEFEFF;stroke-width:2.15;stroke-miterlimit:10;}
	.st132{clip-path:url(#SVGID_8_);fill:#FFFFFF;}
	.st133{clip-path:url(#SVGID_8_);fill:none;stroke:#FFFFFF;stroke-width:2.15;stroke-miterlimit:10;}
	.st134{fill:none;stroke:#000000;stroke-miterlimit:10;}
	.st135{fill:none;stroke:#B3B3B3;stroke-width:1.6;stroke-miterlimit:10;}
	.st136{fill:#B3B3B3;}
	.st137{fill:#94B0D0;}
	.st138{fill:none;stroke:#94B0D0;stroke-width:1.6;stroke-miterlimit:10;}
	.st139{fill:#9BB5D3;}
	.st140{fill:none;stroke:#9BB5D3;stroke-width:1.6;stroke-miterlimit:10;}
	.st141{fill:#A1BAD6;}
	.st142{fill:none;stroke:#A1BAD6;stroke-width:1.6;stroke-miterlimit:10;}
	.st143{fill:#A7BED8;}
	.st144{fill:none;stroke:#A7BED8;stroke-width:1.6;stroke-miterlimit:10;}
	.st145{fill:#ADC3DB;}
	.st146{fill:none;stroke:#ADC3DB;stroke-width:1.6;stroke-miterlimit:10;}
	.st147{fill:#B3C7DE;}
	.st148{fill:none;stroke:#B3C7DE;stroke-width:1.6;stroke-miterlimit:10;}
	.st149{fill:#B8CBE0;}
	.st150{fill:none;stroke:#B8CBE0;stroke-width:1.6;stroke-miterlimit:10;}
	.st151{fill:#BECFE2;}
	.st152{fill:none;stroke:#BECFE2;stroke-width:1.6;stroke-miterlimit:10;}
	.st153{fill:#C3D3E5;}
	.st154{fill:none;stroke:#C3D3E5;stroke-width:1.6;stroke-miterlimit:10;}
	.st155{fill:#C8D6E7;}
	.st156{fill:none;stroke:#C8D6E7;stroke-width:1.6;stroke-miterlimit:10;}
	.st157{fill:#CCDAE9;}
	.st158{fill:none;stroke:#CCDAE9;stroke-width:1.6;stroke-miterlimit:10;}
	.st159{fill:#D1DDEB;}
	.st160{fill:none;stroke:#D1DDEB;stroke-width:1.6;stroke-miterlimit:10;}
	.st161{fill:#D5E0ED;}
	.st162{fill:none;stroke:#D5E0ED;stroke-width:1.6;stroke-miterlimit:10;}
	.st163{fill:#D9E3EE;}
	.st164{fill:none;stroke:#D9E3EE;stroke-width:1.6;stroke-miterlimit:10;}
	.st165{fill:#DDE6F0;}
	.st166{fill:none;stroke:#DDE6F0;stroke-width:1.6;stroke-miterlimit:10;}
	.st167{fill:#E1E9F2;}
	.st168{fill:none;stroke:#E1E9F2;stroke-width:1.6;stroke-miterlimit:10;}
	.st169{fill:#E4EBF3;}
	.st170{fill:none;stroke:#E4EBF3;stroke-width:1.6;stroke-miterlimit:10;}
	.st171{fill:#E7EEF5;}
	.st172{fill:none;stroke:#E7EEF5;stroke-width:1.6;stroke-miterlimit:10;}
	.st173{fill:#EBF0F6;}
	.st174{fill:none;stroke:#EBF0F6;stroke-width:1.6;stroke-miterlimit:10;}
	.st175{fill:#EDF2F7;}
	.st176{fill:none;stroke:#EDF2F7;stroke-width:1.6;stroke-miterlimit:10;}
	.st177{fill:#F0F4F8;}
	.st178{fill:none;stroke:#F0F4F8;stroke-width:1.6;stroke-miterlimit:10;}
	.st179{fill:#F2F6F9;}
	.st180{fill:none;stroke:#F2F6F9;stroke-width:1.6;stroke-miterlimit:10;}
	.st181{fill:#F5F7FA;}
	.st182{fill:none;stroke:#F5F7FA;stroke-width:1.6;stroke-miterlimit:10;}
	.st183{fill:#F7F9FB;}
	.st184{fill:none;stroke:#F7F9FB;stroke-width:1.6;stroke-miterlimit:10;}
	.st185{fill:#F8FAFC;}
	.st186{fill:none;stroke:#F8FAFC;stroke-width:1.6;stroke-miterlimit:10;}
	.st187{fill:#FAFBFD;}
	.st188{fill:none;stroke:#FAFBFD;stroke-width:1.6;stroke-miterlimit:10;}
	.st189{fill:#FBFCFD;}
	.st190{fill:none;stroke:#FBFCFD;stroke-width:1.6;stroke-miterlimit:10;}
	.st191{fill:#FCFDFE;}
	.st192{fill:none;stroke:#FCFDFE;stroke-width:1.6;stroke-miterlimit:10;}
	.st193{fill:#FDFEFE;}
	.st194{fill:none;stroke:#FDFEFE;stroke-width:1.6;stroke-miterlimit:10;}
	.st195{fill:#FEFEFF;}
	.st196{fill:none;stroke:#FEFEFF;stroke-width:1.6;stroke-miterlimit:10;}
	.st197{fill:#FFFFFF;}
	.st198{fill:none;stroke:#FFFFFF;stroke-width:1.6;stroke-miterlimit:10;}
	.st199{fill:none;}
	.st200{fill:#CCCCCC;}
	.st201{fill:#7A6AA8;}
	.st202{fill:#407993;}
	.st203{fill:#336681;}
	.st204{fill:#C2D5D4;}
	.st205{fill:none;stroke:#C2D5D4;stroke-width:1.6;stroke-miterlimit:10;}
	.st206{fill:none;stroke:#407B93;stroke-width:3.65;stroke-miterlimit:10;}
	.st207{fill:#407B93;}
	.st208{fill:none;stroke:#407B93;stroke-width:1.6;stroke-miterlimit:10;}
	.st209{fill:none;stroke:#000000;stroke-width:1.3;stroke-miterlimit:10;}
	.st210{fill:none;stroke:#000000;stroke-width:1.6;stroke-miterlimit:10;}
	.st211{fill:#B9CFD8;}
	.st212{fill:none;stroke:#B9CFD8;stroke-width:1.6;stroke-miterlimit:10;}
	.st213{fill:none;stroke:#CCCCCC;stroke-width:1.6;stroke-miterlimit:10;}
	.st214{fill:none;stroke:#A5B9CF;stroke-width:1.6;stroke-miterlimit:10;}
	.st215{fill:#BDD2DA;}
	.st216{fill:none;stroke:#BDD2DA;stroke-width:1.6;stroke-miterlimit:10;}
	.st217{fill:#C1D5DD;}
	.st218{fill:none;stroke:#C1D5DD;stroke-width:1.6;stroke-miterlimit:10;}
	.st219{fill:#C6D8DF;}
	.st220{fill:none;stroke:#C6D8DF;stroke-width:1.6;stroke-miterlimit:10;}
	.st221{fill:#C9DAE1;}
	.st222{fill:none;stroke:#C9DAE1;stroke-width:1.6;stroke-miterlimit:10;}
	.st223{fill:#CDDDE3;}
	.st224{fill:none;stroke:#CDDDE3;stroke-width:1.6;stroke-miterlimit:10;}
	.st225{fill:#D1DFE5;}
	.st226{fill:none;stroke:#D1DFE5;stroke-width:1.6;stroke-miterlimit:10;}
	.st227{fill:#D4E2E7;}
	.st228{fill:none;stroke:#D4E2E7;stroke-width:1.6;stroke-miterlimit:10;}
	.st229{fill:#D8E4E9;}
	.st230{fill:none;stroke:#D8E4E9;stroke-width:1.6;stroke-miterlimit:10;}
	.st231{fill:#DBE6EB;}
	.st232{fill:none;stroke:#DBE6EB;stroke-width:1.6;stroke-miterlimit:10;}
	.st233{fill:#DEE8ED;}
	.st234{fill:none;stroke:#DEE8ED;stroke-width:1.6;stroke-miterlimit:10;}
	.st235{fill:#E1EAEE;}
	.st236{fill:none;stroke:#E1EAEE;stroke-width:1.6;stroke-miterlimit:10;}
	.st237{fill:#E4ECF0;}
	.st238{fill:none;stroke:#E4ECF0;stroke-width:1.6;stroke-miterlimit:10;}
	.st239{fill:#E6EEF1;}
	.st240{fill:none;stroke:#E6EEF1;stroke-width:1.6;stroke-miterlimit:10;}
	.st241{fill:#E9F0F3;}
	.st242{fill:none;stroke:#E9F0F3;stroke-width:1.6;stroke-miterlimit:10;}
	.st243{fill:#EBF1F4;}
	.st244{fill:none;stroke:#EBF1F4;stroke-width:1.6;stroke-miterlimit:10;}
	.st245{fill:#EDF3F5;}
	.st246{fill:none;stroke:#EDF3F5;stroke-width:1.6;stroke-miterlimit:10;}
	.st247{fill:#F0F4F6;}
	.st248{fill:none;stroke:#F0F4F6;stroke-width:1.6;stroke-miterlimit:10;}
	.st249{fill:#F2F6F8;}
	.st250{fill:none;stroke:#F2F6F8;stroke-width:1.6;stroke-miterlimit:10;}
	.st251{fill:#F3F7F9;}
	.st252{fill:none;stroke:#F3F7F9;stroke-width:1.6;stroke-miterlimit:10;}
	.st253{fill:#F5F8FA;}
	.st254{fill:none;stroke:#F5F8FA;stroke-width:1.6;stroke-miterlimit:10;}
	.st255{fill:#F7F9FA;}
	.st256{fill:none;stroke:#F7F9FA;stroke-width:1.6;stroke-miterlimit:10;}
	.st257{fill:#F8FAFB;}
	.st258{fill:none;stroke:#F8FAFB;stroke-width:1.6;stroke-miterlimit:10;}
	.st259{fill:#F9FBFC;}
	.st260{fill:none;stroke:#F9FBFC;stroke-width:1.6;stroke-miterlimit:10;}
	.st261{fill:#FCFDFD;}
	.st262{fill:none;stroke:#FCFDFD;stroke-width:1.6;stroke-miterlimit:10;}
	.st263{fill:#FDFDFE;}
	.st264{fill:none;stroke:#FDFDFE;stroke-width:1.6;stroke-miterlimit:10;}
	.st265{fill:#FEFEFE;}
	.st266{fill:none;stroke:#FEFEFE;stroke-width:1.6;stroke-miterlimit:10;}
	.st267{fill:#FEFFFF;}
	.st268{fill:none;stroke:#FEFFFF;stroke-width:1.6;stroke-miterlimit:10;}
	.st269{fill:none;stroke:#FFCC66;stroke-width:3.25;stroke-miterlimit:10;stroke-dasharray:3.8,3.8;}
</style>
<g>
	<g>
		<path class="st201" d="M65.9,74.3h1.2l3.9,6.3v-6.3h1v7.8h-1.2l-4-6.3v6.3h-1V74.3z"/>
	</g>
	<polygon class="st201" points="59.7,48.6 58.8,47.4 63.5,47.4 63.5,48.6 	"/>
	<rect x="67.2" y="47.4" class="st201" width="3.7" height="1.2"/>
	<polygon class="st201" points="74.7,48.6 74.7,47.4 79.4,47.4 78.5,48.6 	"/>
	<polygon class="st201" points="53.9,66.4 52.5,66.9 53.9,62.5 55.1,62.8 	"/>
	<polygon class="st201" points="56.2,59.3 55,58.9 56.2,55.4 57.4,55.7 	"/>
	<polygon class="st201" points="58.5,52.2 57.4,51.8 58.8,47.4 59.7,48.6 	"/>
	<polygon class="st201" points="64.3,74 63.5,75 60.1,72.4 60.8,71.5 	"/>
	<polygon class="st201" points="57.4,68.9 56.6,69.9 52.5,66.9 53.9,66.4 	"/>
	<polygon class="st201" points="84.2,66.4 85.7,66.9 81.5,69.9 80.8,68.9 	"/>
	<polygon class="st201" points="77.3,71.5 78,72.5 74.6,75 73.9,74 	"/>
	<polygon class="st201" points="78.5,48.6 79.4,47.4 80.8,51.8 79.6,52.2 	"/>
	<polygon class="st201" points="80.8,55.7 81.9,55.4 83.1,58.9 81.9,59.3 	"/>
	<polygon class="st201" points="83.1,62.8 84.3,62.5 85.7,66.9 84.2,66.4 	"/>
	<polygon points="69.7,97.5 69.1,97.9 68.4,97.5 68.4,83.6 69.7,83.6 	"/>
	<polygon points="52.7,108 51.4,107.3 68.4,97.5 69.1,97.9 69.1,98.6 	"/>
	<polygon points="52.7,127 51.4,127.7 51.4,107.3 52.7,108 	"/>
	<polygon points="69.1,136.4 69.1,137.9 51.4,127.7 52.7,127 	"/>
	<polygon points="85.5,127 86.1,127.3 85.9,128.2 69.1,137.9 69.1,136.4 	"/>
	<polygon points="85.5,108 86.7,107.3 86.7,126.7 86.1,127.3 85.5,127 	"/>
	<polygon points="69.1,98.6 69.1,97.9 69.7,97.5 86.7,107.3 85.5,108 	"/>
	<polygon points="68.8,102 69.4,100.9 83.3,109 82.6,110 	"/>
	<g>
		<path class="st202" d="M92.8,140.4h1.1v3.2h4v-3.2H99v7.8h-1.1v-3.7h-4v3.7h-1.1V140.4z"/>
	</g>
	<polygon class="st203" points="93.2,138.4 92.1,139 85.9,128.2 86.1,127.3 87.2,127.9 	"/>
	<g>
		<path class="st202" d="M102.6,123.4h1.1v3.2h4v-3.2h1.1v7.8h-1.1v-3.7h-4v3.7h-1.1V123.4z"/>
	</g>
	<polygon class="st203" points="101.1,126.7 101.1,127.9 87.2,127.9 86.1,127.3 86.7,126.7 	"/>
	<circle class="st204" cx="211.1" cy="78" r="16.8"/>
	<circle class="st205" cx="211.1" cy="78" r="16.8"/>
	<path class="st206" d="M226.5,69.2c-4.9-8.5-15.7-11.5-24.2-6.6c-4.8,2.8-8.2,7.9-8.8,13.5"/>
	<path class="st207" d="M228.7,80L228.7,80l-5.8-11.6c0,0,2.2,1.1,3.6,0.8c1.4-0.3,3-2.2,3-2.2L228.7,80z"/>
	<path class="st208" d="M228.7,80L228.7,80l-5.8-11.6c0,0,2.2,1.1,3.6,0.8c1.4-0.3,3-2.2,3-2.2L228.7,80z"/>
	<g>
		<path d="M206.5,83l2-9.7h2l-2,9.7H206.5z"/>
		<path d="M211.7,75.9h1.8l-0.3,1.4c0.7-1,1.4-1.5,2.2-1.5c0.3,0,0.6,0.1,0.9,0.2l-0.7,1.6c-0.2-0.1-0.4-0.1-0.5-0.1
			c-0.3,0-0.7,0.1-1,0.4c-0.3,0.2-0.6,0.6-0.8,1c-0.2,0.4-0.4,1.1-0.6,2l-0.5,2.2h-1.9L211.7,75.9z"/>
	</g>
	<path class="st206" d="M195.7,86.9c4.9,8.5,15.7,11.5,24.2,6.6c4.8-2.8,8.2-7.9,8.8-13.5"/>
	<path class="st207" d="M193.4,76.1L193.4,76.1l5.8,11.6c0,0-2.2-1.1-3.6-0.8c-1.4,0.3-3,2.2-3,2.2L193.4,76.1z"/>
	<path class="st208" d="M193.4,76.1L193.4,76.1l5.8,11.6c0,0-2.2-1.1-3.6-0.8c-1.4,0.3-3,2.2-3,2.2L193.4,76.1z"/>
	<line class="st209" x1="245.8" y1="111.6" x2="165.5" y2="111.6"/>
	<path d="M256.6,111.6L256.6,111.6l-12.5,3.2c0,0,1.6-1.8,1.6-3.2c0-1.4-1.6-3.2-1.6-3.2L256.6,111.6z"/>
	<path class="st210" d="M256.6,111.6L256.6,111.6l-12.5,3.2c0,0,1.6-1.8,1.6-3.2c0-1.4-1.6-3.2-1.6-3.2L256.6,111.6z"/>
	<g>
		<path class="st201" d="M326.4,79.4h1.2l3.9,6.3v-6.3h1v7.8h-1.2l-4-6.3v6.3h-1V79.4z"/>
	</g>
	<polygon class="st201" points="320.2,53.7 319.3,52.4 323.9,52.4 323.9,53.7 	"/>
	<rect x="327.6" y="52.4" class="st201" width="3.7" height="1.2"/>
	<polygon class="st201" points="335.1,53.7 335.1,52.4 339.8,52.4 338.9,53.7 	"/>
	<polygon class="st201" points="314.4,71.5 312.9,72 314.4,67.6 315.5,68 	"/>
	<polygon class="st201" points="316.7,64.4 315.5,64 316.7,60.4 317.8,60.8 	"/>
	<polygon class="st201" points="319,57.3 317.8,56.9 319.3,52.4 320.2,53.7 	"/>
	<polygon class="st201" points="324.7,79.1 324,80.1 320.6,77.5 321.3,76.5 	"/>
	<polygon class="st201" points="317.8,74 317.1,75 312.9,72 314.4,71.5 	"/>
	<polygon class="st201" points="344.7,71.5 346.2,72 342,75 341.2,74 	"/>
	<polygon class="st201" points="337.8,76.6 338.5,77.5 335.1,80.1 334.3,79.1 	"/>
	<polygon class="st201" points="338.9,53.7 339.8,52.4 341.3,56.9 340,57.3 	"/>
	<polygon class="st201" points="341.2,60.8 342.4,60.4 343.6,64 342.4,64.4 	"/>
	<polygon class="st201" points="343.5,68 344.7,67.6 346.2,72 344.7,71.5 	"/>
	<polygon points="330.1,102.6 329.5,103 328.9,102.6 328.9,88.7 330.1,88.7 	"/>
	<polygon points="313.1,113.1 311.9,112.4 328.9,102.6 329.5,103 329.5,103.7 	"/>
	<polygon points="313.1,132.1 311.9,132.8 311.9,112.4 313.1,113.1 	"/>
	<polygon points="329.5,141.6 329.5,143 311.9,132.8 313.1,132.1 	"/>
	<polygon points="345.9,132.1 347.2,132.8 329.5,143 329.5,141.6 	"/>
	<polygon points="345.9,113.1 347.2,112.4 347.2,132.8 345.9,132.1 	"/>
	<polygon points="329.5,103.7 329.5,103 330.1,102.6 347.2,112.4 345.9,113.1 	"/>
	<polygon points="329.2,107.1 329.8,106 343.7,114.1 343.1,115.1 	"/>
	<path class="st197" d="M351.7,139.2c-1.6-1-5.9-5.4-5-7c0.9-1.6,6.9,0.1,8.5,1.1c1.9,1.2,3.1,2.4,1.6,5
		C355.4,140.7,353.7,140.3,351.7,139.2z"/>
	<path class="st198" d="M351.7,139.2c-1.6-1-5.9-5.4-5-7c0.9-1.6,6.9,0.1,8.5,1.1c1.9,1.2,3.1,2.4,1.6,5
		C355.4,140.7,353.7,140.3,351.7,139.2z"/>
	<path class="st138" d="M351.7,139.2c-1.6-1-5.9-5.4-5-7c0.9-1.6,6.9,0.1,8.5,1.1c1.9,1.2,3.1,2.4,1.6,5
		C355.4,140.7,353.7,140.3,351.7,139.2z"/>
	<path class="st137" d="M341.3,124.5c1.7,1,6.5,5.9,5.4,7.6c-1,1.7-7.5-0.2-9.3-1.2c-2.1-1.3-3.4-2.7-1.7-5.4
		C337.4,122.8,339.2,123.3,341.3,124.5z"/>
	<path class="st138" d="M341.3,124.5c1.7,1,6.5,5.9,5.4,7.6c-1,1.7-7.5-0.2-9.3-1.2c-2.1-1.3-3.4-2.7-1.7-5.4
		C337.4,122.8,339.2,123.3,341.3,124.5z"/>
	<path class="st139" d="M341.2,124.6c1.7,1,6.3,5.8,5.3,7.4c-1,1.7-7.4-0.2-9-1.2c-2.1-1.2-3.3-2.6-1.7-5.3
		C337.4,122.9,339.1,123.3,341.2,124.6z"/>
	<path class="st140" d="M341.2,124.6c1.7,1,6.3,5.8,5.3,7.4c-1,1.7-7.4-0.2-9-1.2c-2.1-1.2-3.3-2.6-1.7-5.3
		C337.4,122.9,339.1,123.3,341.2,124.6z"/>
	<path class="st141" d="M341.1,124.6c1.6,1,6.1,5.6,5.2,7.2c-1,1.6-7.2-0.2-8.8-1.1c-2-1.2-3.2-2.5-1.7-5.1
		C337.3,122.9,339.1,123.4,341.1,124.6z"/>
	<path class="st142" d="M341.1,124.6c1.6,1,6.1,5.6,5.2,7.2c-1,1.6-7.2-0.2-8.8-1.1c-2-1.2-3.2-2.5-1.7-5.1
		C337.3,122.9,339.1,123.4,341.1,124.6z"/>
	<path class="st143" d="M341,124.6c1.6,1,6,5.5,5,7.1c-1,1.6-7-0.1-8.6-1.1c-2-1.2-3.1-2.5-1.6-5C337.3,123,339,123.4,341,124.6z"/>
	<path class="st144" d="M341,124.6c1.6,1,6,5.5,5,7.1c-1,1.6-7-0.1-8.6-1.1c-2-1.2-3.1-2.5-1.6-5C337.3,123,339,123.4,341,124.6z"/>
	<path class="st145" d="M340.9,124.6c1.6,0.9,5.8,5.3,4.9,6.9c-0.9,1.5-6.8-0.1-8.3-1.1c-1.9-1.1-3-2.4-1.6-4.9
		S339,123.4,340.9,124.6z"/>
	<path class="st146" d="M340.9,124.6c1.6,0.9,5.8,5.3,4.9,6.9c-0.9,1.5-6.8-0.1-8.3-1.1c-1.9-1.1-3-2.4-1.6-4.9
		S339,123.4,340.9,124.6z"/>
	<path class="st147" d="M340.7,124.6c1.5,0.9,5.6,5.2,4.7,6.7c-0.9,1.5-6.6-0.1-8.1-1.1c-1.8-1.1-3-2.3-1.5-4.7
		C337.3,123.1,338.9,123.5,340.7,124.6z"/>
	<path class="st148" d="M340.7,124.6c1.5,0.9,5.6,5.2,4.7,6.7c-0.9,1.5-6.6-0.1-8.1-1.1c-1.8-1.1-3-2.3-1.5-4.7
		C337.3,123.1,338.9,123.5,340.7,124.6z"/>
	<path class="st149" d="M340.6,124.6c1.5,0.9,5.5,5,4.6,6.5c-0.9,1.5-6.4-0.1-7.8-1c-1.8-1.1-2.9-2.3-1.5-4.6
		C337.3,123.1,338.8,123.5,340.6,124.6z"/>
	<path class="st150" d="M340.6,124.6c1.5,0.9,5.5,5,4.6,6.5c-0.9,1.5-6.4-0.1-7.8-1c-1.8-1.1-2.9-2.3-1.5-4.6
		C337.3,123.1,338.8,123.5,340.6,124.6z"/>
	<path class="st151" d="M340.5,124.6c1.4,0.9,5.3,4.9,4.5,6.3c-0.8,1.4-6.2-0.1-7.6-1c-1.7-1-2.8-2.2-1.4-4.5
		C337.3,123.2,338.8,123.6,340.5,124.6z"/>
	<path class="st152" d="M340.5,124.6c1.4,0.9,5.3,4.9,4.5,6.3c-0.8,1.4-6.2-0.1-7.6-1c-1.7-1-2.8-2.2-1.4-4.5
		C337.3,123.2,338.8,123.6,340.5,124.6z"/>
	<path class="st153" d="M340.4,124.6c1.4,0.8,5.1,4.7,4.3,6.1c-0.8,1.4-6-0.1-7.4-1c-1.7-1-2.7-2.1-1.4-4.3
		C337.3,123.2,338.7,123.6,340.4,124.6z"/>
	<path class="st154" d="M340.4,124.6c1.4,0.8,5.1,4.7,4.3,6.1c-0.8,1.4-6-0.1-7.4-1c-1.7-1-2.7-2.1-1.4-4.3
		C337.3,123.2,338.7,123.6,340.4,124.6z"/>
	<path class="st155" d="M340.3,124.6c1.3,0.8,5,4.6,4.2,5.9c-0.8,1.3-5.8-0.1-7.1-0.9c-1.6-1-2.6-2.1-1.3-4.2
		C337.3,123.3,338.7,123.7,340.3,124.6z"/>
	<path class="st156" d="M340.3,124.6c1.3,0.8,5,4.6,4.2,5.9c-0.8,1.3-5.8-0.1-7.1-0.9c-1.6-1-2.6-2.1-1.3-4.2
		C337.3,123.3,338.7,123.7,340.3,124.6z"/>
	<path class="st157" d="M340.2,124.7c1.3,0.8,4.8,4.4,4,5.7c-0.8,1.3-5.6-0.1-6.9-0.9c-1.6-1-2.5-2-1.3-4.1
		C337.3,123.3,338.6,123.7,340.2,124.7z"/>
	<path class="st158" d="M340.2,124.7c1.3,0.8,4.8,4.4,4,5.7c-0.8,1.3-5.6-0.1-6.9-0.9c-1.6-1-2.5-2-1.3-4.1
		C337.3,123.3,338.6,123.7,340.2,124.7z"/>
	<path class="st159" d="M340.1,124.7c1.2,0.8,4.6,4.3,3.9,5.5c-0.7,1.2-5.4-0.1-6.7-0.9c-1.5-0.9-2.4-1.9-1.2-3.9
		C337.2,123.4,338.5,123.7,340.1,124.7z"/>
	<path class="st160" d="M340.1,124.7c1.2,0.8,4.6,4.3,3.9,5.5c-0.7,1.2-5.4-0.1-6.7-0.9c-1.5-0.9-2.4-1.9-1.2-3.9
		C337.2,123.4,338.5,123.7,340.1,124.7z"/>
	<path class="st161" d="M340,124.7c1.2,0.7,4.5,4.1,3.8,5.3c-0.7,1.2-5.2-0.1-6.4-0.8c-1.5-0.9-2.3-1.9-1.2-3.8
		C337.2,123.5,338.5,123.8,340,124.7z"/>
	<path class="st162" d="M340,124.7c1.2,0.7,4.5,4.1,3.8,5.3c-0.7,1.2-5.2-0.1-6.4-0.8c-1.5-0.9-2.3-1.9-1.2-3.8
		C337.2,123.5,338.5,123.8,340,124.7z"/>
	<path class="st163" d="M339.8,124.7c1.2,0.7,4.3,4,3.6,5.1c-0.7,1.2-5-0.1-6.2-0.8c-1.4-0.9-2.3-1.8-1.2-3.6
		C337.2,123.5,338.4,123.8,339.8,124.7z"/>
	<path class="st164" d="M339.8,124.7c1.2,0.7,4.3,4,3.6,5.1c-0.7,1.2-5-0.1-6.2-0.8c-1.4-0.9-2.3-1.8-1.2-3.6
		C337.2,123.5,338.4,123.8,339.8,124.7z"/>
	<path class="st165" d="M339.7,124.7c1.1,0.7,4.1,3.8,3.5,4.9c-0.7,1.1-4.8-0.1-5.9-0.8c-1.4-0.8-2.2-1.7-1.1-3.5
		C337.2,123.6,338.4,123.9,339.7,124.7z"/>
	<path class="st166" d="M339.7,124.7c1.1,0.7,4.1,3.8,3.5,4.9c-0.7,1.1-4.8-0.1-5.9-0.8c-1.4-0.8-2.2-1.7-1.1-3.5
		C337.2,123.6,338.4,123.9,339.7,124.7z"/>
	<path class="st167" d="M339.6,124.7c1.1,0.6,4,3.7,3.3,4.8c-0.6,1.1-4.6-0.1-5.7-0.8c-1.3-0.8-2.1-1.7-1.1-3.4
		C337.2,123.6,338.3,123.9,339.6,124.7z"/>
	<path class="st168" d="M339.6,124.7c1.1,0.6,4,3.7,3.3,4.8c-0.6,1.1-4.6-0.1-5.7-0.8c-1.3-0.8-2.1-1.7-1.1-3.4
		C337.2,123.6,338.3,123.9,339.6,124.7z"/>
	<path class="st169" d="M339.5,124.7c1,0.6,3.8,3.5,3.2,4.6s-4.4-0.1-5.5-0.7c-1.2-0.8-2-1.6-1-3.2
		C337.2,123.7,338.3,124,339.5,124.7z"/>
	<path class="st170" d="M339.5,124.7c1,0.6,3.8,3.5,3.2,4.6s-4.4-0.1-5.5-0.7c-1.2-0.8-2-1.6-1-3.2
		C337.2,123.7,338.3,124,339.5,124.7z"/>
	<path class="st171" d="M339.4,124.7c1,0.6,3.6,3.4,3.1,4.4c-0.6,1-4.2-0.1-5.2-0.7c-1.2-0.7-1.9-1.5-1-3.1
		C337.2,123.7,338.2,124,339.4,124.7z"/>
	<path class="st172" d="M339.4,124.7c1,0.6,3.6,3.4,3.1,4.4c-0.6,1-4.2-0.1-5.2-0.7c-1.2-0.7-1.9-1.5-1-3.1
		C337.2,123.7,338.2,124,339.4,124.7z"/>
	<path class="st173" d="M339.3,124.7c0.9,0.6,3.5,3.2,2.9,4.2c-0.6,0.9-4-0.1-5-0.7c-1.1-0.7-1.8-1.5-0.9-3
		C337.2,123.8,338.1,124,339.3,124.7z"/>
	<path class="st174" d="M339.3,124.7c0.9,0.6,3.5,3.2,2.9,4.2c-0.6,0.9-4-0.1-5-0.7c-1.1-0.7-1.8-1.5-0.9-3
		C337.2,123.8,338.1,124,339.3,124.7z"/>
	<path class="st175" d="M339.2,124.7c0.9,0.5,3.3,3.1,2.8,4c-0.5,0.9-3.9-0.1-4.7-0.6c-1.1-0.7-1.7-1.4-0.9-2.8
		C337.2,123.8,338.1,124.1,339.2,124.7z"/>
	<path class="st176" d="M339.2,124.7c0.9,0.5,3.3,3.1,2.8,4c-0.5,0.9-3.9-0.1-4.7-0.6c-1.1-0.7-1.7-1.4-0.9-2.8
		C337.2,123.8,338.1,124.1,339.2,124.7z"/>
	<path class="st177" d="M339,124.8c0.8,0.5,3.1,2.9,2.6,3.8c-0.5,0.9-3.7-0.1-4.5-0.6c-1-0.6-1.6-1.3-0.8-2.7
		C337.1,123.9,338,124.1,339,124.8z"/>
	<path class="st178" d="M339,124.8c0.8,0.5,3.1,2.9,2.6,3.8c-0.5,0.9-3.7-0.1-4.5-0.6c-1-0.6-1.6-1.3-0.8-2.7
		C337.1,123.9,338,124.1,339,124.8z"/>
	<path class="st179" d="M338.9,124.8c0.8,0.5,3,2.8,2.5,3.6c-0.5,0.8-3.5-0.1-4.3-0.6c-1-0.6-1.6-1.3-0.8-2.6
		C337.1,123.9,338,124.2,338.9,124.8z"/>
	<path class="st180" d="M338.9,124.8c0.8,0.5,3,2.8,2.5,3.6c-0.5,0.8-3.5-0.1-4.3-0.6c-1-0.6-1.6-1.3-0.8-2.6
		C337.1,123.9,338,124.2,338.9,124.8z"/>
	<path class="st181" d="M338.8,124.8c0.8,0.5,2.8,2.6,2.4,3.4c-0.4,0.8-3.3-0.1-4-0.5c-0.9-0.6-1.5-1.2-0.8-2.4
		C337.1,124,337.9,124.2,338.8,124.8z"/>
	<path class="st182" d="M338.8,124.8c0.8,0.5,2.8,2.6,2.4,3.4c-0.4,0.8-3.3-0.1-4-0.5c-0.9-0.6-1.5-1.2-0.8-2.4
		C337.1,124,337.9,124.2,338.8,124.8z"/>
	<path class="st183" d="M338.7,124.8c0.7,0.4,2.6,2.5,2.2,3.2c-0.4,0.7-3.1-0.1-3.8-0.5c-0.9-0.5-1.4-1.1-0.7-2.3
		C337.1,124.1,337.8,124.3,338.7,124.8z"/>
	<path class="st184" d="M338.7,124.8c0.7,0.4,2.6,2.5,2.2,3.2c-0.4,0.7-3.1-0.1-3.8-0.5c-0.9-0.5-1.4-1.1-0.7-2.3
		C337.1,124.1,337.8,124.3,338.7,124.8z"/>
	<path class="st185" d="M338.6,124.8c0.7,0.4,2.5,2.3,2.1,3c-0.4,0.7-2.9-0.1-3.5-0.5c-0.8-0.5-1.3-1.1-0.7-2.2
		C337.1,124.1,337.8,124.3,338.6,124.8z"/>
	<path class="st186" d="M338.6,124.8c0.7,0.4,2.5,2.3,2.1,3c-0.4,0.7-2.9-0.1-3.5-0.5c-0.8-0.5-1.3-1.1-0.7-2.2
		C337.1,124.1,337.8,124.3,338.6,124.8z"/>
	<path class="st187" d="M338.5,124.8c0.6,0.4,2.3,2.2,1.9,2.8c-0.4,0.6-2.7-0.1-3.3-0.4c-0.8-0.5-1.2-1-0.6-2
		C337.1,124.2,337.7,124.3,338.5,124.8z"/>
	<path class="st188" d="M338.5,124.8c0.6,0.4,2.3,2.2,1.9,2.8c-0.4,0.6-2.7-0.1-3.3-0.4c-0.8-0.5-1.2-1-0.6-2
		C337.1,124.2,337.7,124.3,338.5,124.8z"/>
	<path class="st189" d="M338.4,124.8c0.6,0.4,2.1,2.1,1.8,2.7c-0.3,0.6-2.5-0.1-3.1-0.4c-0.7-0.4-1.1-0.9-0.6-1.9
		C337.1,124.2,337.7,124.4,338.4,124.8z"/>
	<path class="st190" d="M338.4,124.8c0.6,0.4,2.1,2.1,1.8,2.7c-0.3,0.6-2.5-0.1-3.1-0.4c-0.7-0.4-1.1-0.9-0.6-1.9
		C337.1,124.2,337.7,124.4,338.4,124.8z"/>
	<path class="st191" d="M338.3,124.8c0.5,0.3,2,1.9,1.7,2.5c-0.3,0.6-2.3-0.1-2.8-0.4c-0.6-0.4-1-0.9-0.5-1.7
		C337.1,124.3,337.6,124.4,338.3,124.8z"/>
	<path class="st192" d="M338.3,124.8c0.5,0.3,2,1.9,1.7,2.5c-0.3,0.6-2.3-0.1-2.8-0.4c-0.6-0.4-1-0.9-0.5-1.7
		C337.1,124.3,337.6,124.4,338.3,124.8z"/>
	<path class="st193" d="M338.1,124.8c0.5,0.3,1.8,1.8,1.5,2.3c-0.3,0.5-2.1,0-2.6-0.4c-0.6-0.4-0.9-0.8-0.5-1.6
		C337,124.3,337.6,124.5,338.1,124.8z"/>
	<path class="st194" d="M338.1,124.8c0.5,0.3,1.8,1.8,1.5,2.3c-0.3,0.5-2.1,0-2.6-0.4c-0.6-0.4-0.9-0.8-0.5-1.6
		C337,124.3,337.6,124.5,338.1,124.8z"/>
	<path class="st195" d="M338,124.9c0.4,0.3,1.6,1.6,1.4,2.1c-0.3,0.5-1.9,0-2.3-0.3c-0.5-0.3-0.9-0.7-0.4-1.5
		C337,124.4,337.5,124.5,338,124.9z"/>
	<path class="st196" d="M338,124.9c0.4,0.3,1.6,1.6,1.4,2.1c-0.3,0.5-1.9,0-2.3-0.3c-0.5-0.3-0.9-0.7-0.4-1.5
		C337,124.4,337.5,124.5,338,124.9z"/>
	<path class="st197" d="M337.9,124.9c0.4,0.3,1.5,1.5,1.2,1.9c-0.2,0.4-1.7,0-2.1-0.3c-0.5-0.3-0.8-0.7-0.4-1.3
		C337,124.4,337.4,124.6,337.9,124.9z"/>
	<path class="st198" d="M337.9,124.9c0.4,0.3,1.5,1.5,1.2,1.9c-0.2,0.4-1.7,0-2.1-0.3c-0.5-0.3-0.8-0.7-0.4-1.3
		C337,124.4,337.4,124.6,337.9,124.9z"/>
	<path class="st197" d="M337.8,124.9c0.3,0.2,1.3,1.3,1.1,1.7c-0.2,0.4-1.5,0-1.9-0.3c-0.4-0.3-0.7-0.6-0.3-1.2
		C337,124.5,337.4,124.6,337.8,124.9z"/>
	<path class="st198" d="M337.8,124.9c0.3,0.2,1.3,1.3,1.1,1.7c-0.2,0.4-1.5,0-1.9-0.3c-0.4-0.3-0.7-0.6-0.3-1.2
		C337,124.5,337.4,124.6,337.8,124.9z"/>
	<path class="st197" d="M337.7,124.9c0.3,0.2,1.1,1.2,1,1.5c-0.2,0.3-1.3,0-1.6-0.2c-0.4-0.3-0.6-0.5-0.3-1.1
		C337,124.5,337.3,124.6,337.7,124.9z"/>
	<path class="st198" d="M337.7,124.9c0.3,0.2,1.1,1.2,1,1.5c-0.2,0.3-1.3,0-1.6-0.2c-0.4-0.3-0.6-0.5-0.3-1.1
		C337,124.5,337.3,124.6,337.7,124.9z"/>
	<path class="st199" d="M346.7,132.2c-1,1.7-7.5-0.2-9.3-1.2c-2.1-1.3-3.4-2.7-1.7-5.4c1.7-2.8,3.5-2.3,5.6-1
		C343,125.6,347.8,130.4,346.7,132.2z"/>
	<path class="st138" d="M341.3,124.5c1.7,1,6.5,5.9,5.4,7.6c-1,1.7-7.5-0.2-9.3-1.2c-2.1-1.3-3.4-2.7-1.7-5.4
		C337.4,122.8,339.2,123.3,341.3,124.5z"/>
	<path class="st138" d="M341.3,124.5c1.7,1,6.5,5.9,5.4,7.6c-1,1.7-7.5-0.2-9.3-1.2c-2.1-1.3-3.4-2.7-1.7-5.4
		C337.4,122.8,339.2,123.3,341.3,124.5z"/>
	<circle cx="353.3" cy="136.2" r="1.5"/>
	<g>
		<path d="M199.4,130.7h7.7v1h-7.7V130.7z"/>
		<path d="M208.1,125.2h1.3v4h5v-4h1.3v9.8h-1.3v-4.6h-5v4.6h-1.3V125.2z"/>
	</g>
	<g>
		<path d="M216.9,128.8V128h2.2v-2.2h0.9v2.2h2.2v0.8h-2.2v2.2h-0.9v-2.2H216.9z"/>
	</g>
</g>
</svg>
