<?xml version="1.0" encoding="utf-8"?>
<!-- Generator: Adobe Illustrator 19.2.0, SVG Export Plug-In . SVG Version: 6.00 Build 0)  -->
<svg version="1.1" id="Layer_1" xmlns="http://www.w3.org/2000/svg" xmlns:xlink="http://www.w3.org/1999/xlink" x="0px" y="0px"
	 viewBox="0 0 567 319" style="enable-background:new 0 0 567 319;" xml:space="preserve">
<style type="text/css">
	.st0{fill:#3B97C8;}
</style>
<g>
	<polygon points="210.8,135.5 209.6,136.2 209.6,116.4 210.8,117.1 	"/>
</g>
<g>
	<rect x="212.6" y="118.5" width="1.2" height="15.5"/>
</g>
<g>
	<polygon points="226.6,144.6 226.6,146 209.6,136.2 210.8,135.5 	"/>
</g>
<g>
	<polygon points="242.5,135.5 243.1,135.8 243.1,136.5 226.6,146 226.6,144.6 	"/>
</g>
<g>
	<polygon points="239.8,133.5 240.4,134.6 226.9,142.3 226.3,141.3 	"/>
</g>
<g>
	<polygon points="242.5,117.1 243.1,116.8 243.8,117.4 243.8,135.5 243.1,135.8 242.5,135.5 	"/>
</g>
<g>
	<polygon points="226.6,108 226.6,106.6 243.3,116.2 243.1,116.8 242.5,117.1 	"/>
</g>
<g>
	<polygon points="226.3,111.3 226.9,110.3 240.4,118 239.8,119.1 	"/>
</g>
<g>
	<polygon points="210.8,117.1 209.6,116.4 226.6,106.6 226.6,108 	"/>
</g>
<g>
	<path d="M256.6,141.6h1.2l3.8,6.1v-6.1h1v7.6h-1.2l-3.8-6.1v6.1h-1V141.6z"/>
</g>
<g>
	<polygon points="254.7,141.8 254.1,142.9 243.1,136.5 243.1,135.8 243.8,135.5 	"/>
</g>
<g>
	<polygon points="275.5,135.5 276.1,135.8 275.4,136.9 265.1,142.9 264.5,141.8 	"/>
</g>
<g>
	<polygon points="275.5,117.4 276.1,116.8 276.7,117.1 276.7,135.5 276.1,135.8 275.5,135.5 	"/>
</g>
<g>
	<polygon points="243.8,117.4 243.1,116.8 243.3,116.2 274.6,116.2 276.1,116.8 275.5,117.4 	"/>
</g>
<g>
	<polygon points="292.6,144.6 292.6,145.3 292,145.7 276.9,136.9 276.1,135.8 276.7,135.5 	"/>
</g>
<g>
	<polygon points="308.5,135.5 309.1,135.8 309.2,136.5 293.2,145.7 292.6,145.3 292.6,144.6 	"/>
</g>
<g>
	<polygon points="308.5,117.1 309.7,116.4 309.7,135.4 309.1,135.8 308.5,135.5 	"/>
</g>
<g>
	<polygon points="292.6,108 292.6,107.2 294,107.4 309.7,116.4 308.5,117.1 	"/>
</g>
<g>
	<polygon points="276.7,117.1 276.1,116.8 276.3,116 291.3,107.4 292.6,107.2 292.6,108 	"/>
</g>
<g>
	<path d="M289.6,84.4h1.2l3.8,6.1v-6.1h1V92h-1.2l-3.8-6.1V92h-1V84.4z"/>
</g>
<g>
	<polygon points="294,107.4 292.6,107.2 291.3,107.4 291.3,93.4 294,93.4 	"/>
</g>
<g>
	<polygon points="263.8,100.6 260.9,103.6 269.9,85.1 270.7,86.3 	"/>
</g>
<g>
	<polygon points="276.3,116 276.1,116.8 274.6,116.2 260.9,103.6 263.8,100.6 	"/>
</g>
<g>
	<polygon points="270.7,86.3 269.9,85.1 288.3,87.1 288.1,88.3 	"/>
</g>
<g>
	<path class="st0" d="M240.3,230.8l0.9-1c0.7,0.6,1.6,0.9,2.4,0.9c1,0,1.9-0.6,1.9-1.3c0-0.4-0.3-0.7-1.5-1
		c-1.6-0.5-2.4-0.9-2.4-1.9c0-1.6,1.4-2.7,3.3-2.7c1,0,2,0.4,2.8,0.9l-0.8,1.1c-0.6-0.5-1.3-0.7-2-0.7c-1,0-1.8,0.5-1.8,1.2
		c0,0.3,0.4,0.6,1.5,1c1.5,0.5,2.3,0.9,2.3,2c0,1.5-1.5,2.8-3.4,2.8C242.3,232,241.1,231.5,240.3,230.8z"/>
	<path class="st0" d="M251.6,225.2c-1,4.8-1,4.7-1,4.8c0,0.4,0.2,0.6,0.5,0.6c0.4,0,0.8-0.2,0.9-0.3l0.4,1.1
		c-0.5,0.3-1.1,0.5-1.6,0.5c-1,0-1.7-0.7-1.7-1.7c0-0.4,0.1-0.7,1-5h-1.2l0.3-1.3h1.2l0.5-2.1h1.5l-0.5,2.1h1.8l-0.3,1.3H251.6z"/>
	<path class="st0" d="M260,223.8l-0.2,1.3c-1.6,0-3,1-3.4,2.3l-0.9,4.4H254l1.6-7.8h1.5l-0.3,1.4C257.5,224.4,258.7,223.8,260,223.8
		z"/>
	<path class="st0" d="M259.5,234.2l0.5-1.1c0.3,0.2,0.6,0.2,0.9,0.2c0.5,0,0.9-0.2,1.3-0.7l0.6-0.8L261,224h1.6l1.2,6.2l3.7-6.2h1.6
		l-5.2,8.6c-0.8,1.4-1.8,2-2.9,2C260.4,234.5,259.8,234.4,259.5,234.2z"/>
	<path class="st0" d="M269.4,228.6c0-2.6,2.3-4.8,5-4.8c1,0,2.1,0.5,2.6,1.3l-1.1,0.8c-0.3-0.5-1.1-0.8-1.7-0.8
		c-1.8,0-3.3,1.6-3.3,3.4c0,1.2,0.9,2.1,2,2.1c0.8,0,1.5-0.3,2.1-0.9l0.9,1c-0.9,0.8-2,1.2-3.2,1.2
		C270.9,232,269.4,230.5,269.4,228.6z"/>
	<path class="st0" d="M285.3,226.2c0,0.6-0.1,1-1.1,5.6h-1.5c1-4.6,1-4.9,1-5.3c0-0.9-0.5-1.4-1.3-1.4c-1.2,0-2.4,0.9-2.6,1.9v-0.1
		l-1,4.9h-1.5l2.2-10.6h1.5l-0.8,3.8c0.6-0.8,1.6-1.3,2.7-1.3C284.3,223.8,285.3,224.8,285.3,226.2z"/>
	<path class="st0" d="M294.3,226.2c0,0.6-0.1,1-1.1,5.6h-1.5c1-4.6,1-4.9,1-5.3c0-0.9-0.5-1.4-1.3-1.4c-1.2,0-2.3,0.8-2.6,1.8
		l-1,4.9h-1.5l1.6-7.8h1.5l-0.2,1c0.6-0.7,1.6-1.2,2.6-1.2C293.4,223.8,294.3,224.8,294.3,226.2z"/>
	<path class="st0" d="M297,224h1.5l-1.6,7.8h-1.5L297,224z M297.2,221.8c0-0.5,0.5-1,1-1c0.5,0,0.8,0.4,0.8,0.8c0,0.5-0.5,1-1,1
		C297.6,222.7,297.2,222.3,297.2,221.8z"/>
	<path class="st0" d="M307,226.2c0,0.6-0.1,1-1.1,5.6h-1.5c1-4.6,1-4.9,1-5.3c0-0.9-0.5-1.4-1.3-1.4c-1.2,0-2.3,0.8-2.6,1.8l-1,4.9
		H299l1.6-7.8h1.5l-0.2,1c0.6-0.7,1.6-1.2,2.6-1.2C306.1,223.8,307,224.8,307,226.2z"/>
	<path class="st0" d="M309.8,228.4v0.2c0,1.3,0.7,2,2,2c0.9,0,1.9-0.4,2.5-0.9l0.8,1.1c-0.8,0.7-2.3,1.2-3.4,1.2
		c-1.9,0-3.3-1.3-3.3-3.3c0-2.6,2.3-4.9,4.8-4.9c1.5,0,2.8,0.8,2.8,2.1c0,1.5-1.4,2.5-3.7,2.5H309.8z M310.1,227.2h2.4
		c1.3,0,2-0.4,2-1.1c0-0.6-0.6-1-1.5-1C311.7,225.1,310.6,226,310.1,227.2z"/>
</g>
<g>
	<polygon points="276.1,173.2 276.1,174.6 259,164.8 260.2,164 	"/>
</g>
<g>
	<polygon points="292,164 292.6,164.4 292.5,165.2 276.1,174.6 276.1,173.2 	"/>
</g>
<g>
	<polygon points="292,145.7 292.6,145.3 293.2,145.7 293.2,164.2 292.6,164.4 292,164 	"/>
</g>
<g>
	<path d="M305.7,175.4c0.5,0.7,0.8,1.5,0.8,2.6c0,1.1-0.3,2.1-0.9,2.8c-0.7,0.9-1.6,1.3-2.9,1.3c-1.2,0-2.1-0.4-2.8-1.2
		c-0.6-0.7-0.9-1.7-0.9-2.8c0-1,0.3-1.9,0.8-2.6c0.7-0.9,1.6-1.4,2.9-1.4C304,174.1,305,174.6,305.7,175.4z M304.8,180.3
		c0.4-0.6,0.6-1.4,0.6-2.2c0-0.9-0.2-1.6-0.7-2.2s-1.1-0.8-1.9-0.8c-0.8,0-1.4,0.3-1.9,0.8s-0.7,1.3-0.7,2.4c0,0.8,0.2,1.6,0.6,2.1
		c0.4,0.6,1.1,0.9,2.1,0.9C303.7,181.3,304.4,180.9,304.8,180.3z"/>
</g>
<g>
	<polygon points="321.4,176.1 322,177.3 308,178.4 307.8,177.1 	"/>
</g>
<g>
	<polygon points="331.8,160.9 333.1,161.1 322,177.3 321.4,176.1 	"/>
</g>
<g>
	<polygon points="326.4,143.2 326.8,142.8 327.5,142.7 333.1,161.1 331.8,160.9 	"/>
</g>
<g>
	<polygon points="323.8,145.3 325,144.9 329.7,160.3 328.5,160.6 	"/>
</g>
<g>
	<polygon points="309.2,136.5 309.1,135.8 309.7,135.4 326.2,141.9 326.8,142.8 326.4,143.2 	"/>
</g>
<g>
	<path d="M289.6,179.6h1v3.1h3.9v-3.1h1v7.6h-1v-3.5h-3.9v3.5h-1V179.6z"/>
</g>
<g>
	<polygon points="294.7,178.1 290.6,178.1 290.7,176.8 294.5,176.8 	"/>
</g>
<g>
	<polygon points="294,173.7 291.2,173.7 291.4,172.5 293.9,172.5 	"/>
</g>
<g>
	<polygon points="293.4,169.4 291.9,169.4 292,168.2 293.2,168.2 	"/>
</g>
<g>
	<polygon points="299.9,173.3 299,174 292.5,165.2 292.6,164.4 293.2,164.2 	"/>
</g>
<g>
	<polygon points="260.2,164 259,164.8 259,150.6 260.2,150.6 	"/>
</g>
<g>
	<path d="M246.1,171.2c0.5,0.7,0.8,1.5,0.8,2.6c0,1.1-0.3,2.1-0.9,2.8c-0.7,0.9-1.6,1.3-2.9,1.3c-1.2,0-2.1-0.4-2.8-1.2
		c-0.6-0.7-0.9-1.7-0.9-2.8c0-1,0.3-1.9,0.8-2.6c0.7-0.9,1.6-1.4,2.9-1.4C244.5,169.9,245.4,170.3,246.1,171.2z M245.2,176
		c0.4-0.6,0.6-1.4,0.6-2.2c0-0.9-0.2-1.6-0.7-2.2s-1.1-0.8-1.9-0.8c-0.8,0-1.4,0.3-1.9,0.8s-0.7,1.3-0.7,2.4c0,0.8,0.2,1.6,0.6,2.1
		c0.4,0.6,1.1,0.9,2.1,0.9C244.1,177,244.8,176.7,245.2,176z"/>
</g>
<g>
	<polygon points="248.9,173 248.3,172 260.9,164.8 261.5,165.8 	"/>
</g>
<g>
	<polygon points="247.4,170.4 246.8,169.3 259.3,162.1 259.9,163.2 	"/>
</g>
<g>
	<path d="M307.5,151h1v3.1h3.9V151h1v7.6h-1V155h-3.9v3.5h-1V151z"/>
</g>
<g>
	<polygon points="312.2,149.3 308.1,149.6 308.2,148.4 311.9,148.1 	"/>
</g>
<g>
	<polygon points="311.2,145.1 308.4,145.3 308.5,144 311,143.9 	"/>
</g>
<g>
	<polygon points="310.3,140.8 308.7,140.9 308.8,139.7 310,139.6 	"/>
</g>
<g>
	<path d="M289.6,122.5h1v3.1h3.9v-3.1h1v7.6h-1v-3.5h-3.9v3.5h-1V122.5z"/>
</g>
<g>
	<polygon points="290.6,131.5 294.7,131.5 294.5,132.7 290.7,132.7 	"/>
</g>
<g>
	<polygon points="291.2,135.9 294,135.9 293.9,137.1 291.4,137.1 	"/>
</g>
<g>
	<polygon points="291.9,140.3 293.4,140.3 293.2,141.5 292,141.5 	"/>
</g>
<g>
	<path d="M273.1,151.1h1v3.1h3.9v-3.1h1v7.6h-1v-3.5h-3.9v3.5h-1V151.1z"/>
</g>
<g>
	<polygon points="278.2,149.5 274.1,149.5 275.4,136.9 276.1,135.8 276.9,136.9 	"/>
</g>
<g>
	<polygon points="325.5,106.1 326.7,105.3 327.5,142.7 326.8,142.8 326.2,141.9 	"/>
</g>
<g>
	<polygon points="297.6,91.4 298.1,90.4 326.7,105.3 325.5,106.1 	"/>
</g>
<g>
	<polygon points="57.6,139.6 56.3,139.9 62.3,121.1 63.3,122.2 	"/>
</g>
<g>
	<polygon points="60.9,139.2 59.8,138.8 64.6,124.1 65.7,124.4 	"/>
</g>
<g>
	<polygon points="69.9,153.2 69.4,154.6 56.3,139.9 57.6,139.6 	"/>
</g>
<g>
	<polygon points="87.8,149.4 88.3,149.9 88.2,150.6 69.4,154.6 69.9,153.2 	"/>
</g>
<g>
	<polygon points="85.8,146.7 86.1,147.9 70.9,151.1 70.6,150 	"/>
</g>
<g>
	<polygon points="93.5,132 94.2,131.8 94.6,132.4 89,149.7 88.3,149.9 87.8,149.4 	"/>
</g>
<g>
	<polygon points="81.2,118.3 81.6,117 94.5,131.2 94.2,131.8 93.5,132 	"/>
</g>
<g>
	<polygon points="79.9,121.4 80.8,120.6 91.2,132.1 90.3,133 	"/>
</g>
<g>
	<polygon points="63.3,122.2 62.3,121.1 81.6,117 81.2,118.3 	"/>
</g>
<g>
	<path d="M100.7,157.4h1.2l3.8,6.1v-6.1h1v7.6h-1.2l-3.8-6.1v6.1h-1V157.4z"/>
</g>
<g>
	<path d="M100.7,166.2h1v3.1h3.9v-3.1h1v7.6h-1v-3.5h-3.9v3.5h-1V166.2z"/>
</g>
<g>
	<polygon points="99.1,157 98.3,158 88.2,150.6 88.3,149.9 89,149.7 	"/>
</g>
<g>
	<polygon points="118.4,149.7 119.1,149.9 117.8,151.6 109,158 108.4,157 	"/>
</g>
<g>
	<polygon points="112.8,132.4 113.2,131.8 114,132.1 119.5,149.3 119.1,149.9 118.4,149.7 	"/>
</g>
<g>
	<polygon points="94.6,132.4 94.2,131.8 94.5,131.2 112.6,131.2 113.2,131.8 112.8,132.4 	"/>
</g>
<g>
	<polygon points="128.7,121.4 128.7,119.9 135.1,124.6 133.9,125.3 	"/>
</g>
<g>
	<polygon points="144.8,131.6 143.3,132 137.7,128 138.9,127.3 	"/>
</g>
<g>
	<polygon points="114,132.1 113.2,131.8 114.1,130.4 117.1,128.3 117.9,129.2 	"/>
</g>
<g>
	<polygon points="128.7,119.9 128.7,121.4 122.8,125.7 122,124.7 	"/>
</g>
<g>
	<polygon points="117.4,163.2 111.9,167.8 117.8,151.6 119.1,149.9 119.6,150.5 	"/>
</g>
<g>
	<polygon points="126.3,158.1 127,158.4 127.1,159 111.9,167.8 117.4,163.2 	"/>
</g>
<g>
	<polygon points="112.2,114.5 115.9,120.8 114.1,130.4 113.2,131.8 112.6,131.2 	"/>
</g>
<g>
	<polygon points="126.4,131.3 126.3,132.1 125.7,132.4 115.9,120.8 112.2,114.5 	"/>
</g>
<g>
	<polygon points="123.7,132.9 122.8,133.7 116.3,126 117.2,125.2 	"/>
</g>
<g>
	<polygon points="142.3,122.2 143.5,122.9 126.9,132.5 126.3,132.1 126.4,131.3 	"/>
</g>
<g>
	<path d="M145.8,100.7c0.5,0.7,0.8,1.5,0.8,2.6c0,1.1-0.3,2.1-0.9,2.8c-0.7,0.9-1.6,1.3-2.9,1.3c-1.2,0-2.1-0.4-2.8-1.2
		c-0.6-0.7-0.9-1.7-0.9-2.8c0-1,0.3-1.9,0.8-2.6c0.7-0.9,1.6-1.4,2.9-1.4C144.2,99.4,145.2,99.8,145.8,100.7z M144.9,105.5
		c0.4-0.6,0.6-1.4,0.6-2.2c0-0.9-0.2-1.6-0.7-2.2s-1.1-0.8-1.9-0.8c-0.8,0-1.4,0.3-1.9,0.8s-0.7,1.3-0.7,2.4c0,0.8,0.2,1.6,0.6,2.1
		c0.4,0.6,1.1,0.9,2.1,0.9C143.8,106.5,144.5,106.2,144.9,105.5z"/>
	<path d="M147.8,99.6h1v3.1h3.9v-3.1h1v7.6h-1v-3.5h-3.9v3.5h-1V99.6z"/>
</g>
<g>
	<polygon points="142.3,108.8 143.5,108.8 143.5,122.9 142.3,122.2 	"/>
</g>
<g>
	<path d="M132.1,146.2h1.2l3.8,6.1v-6.1h1v7.6h-1.2l-3.8-6.1v6.1h-1V146.2z"/>
</g>
<g>
	<polygon points="144.1,156.6 144.6,157.2 144.3,157.8 127.1,159 127,158.4 127.6,157.8 	"/>
</g>
<g>
	<polygon points="147.7,143 149.7,140.5 145.2,157 144.6,157.2 144.1,156.6 	"/>
</g>
<g>
	<polygon points="156.5,170.6 155.1,170.9 144.3,157.8 144.6,157.2 145.2,157 	"/>
</g>
<g>
	<polygon points="152.9,170.9 151.9,171.7 142.8,160.7 143.7,159.9 	"/>
</g>
<g>
	<path d="M137.5,183.5h1.5l2.2,6.4l2.2-6.4h1.5v7.6h-1v-4.5c0-0.2,0-0.4,0-0.8c0-0.4,0-0.7,0-1.2l-2.2,6.4h-1l-2.2-6.4v0.2
		c0,0.2,0,0.5,0,0.8c0,0.4,0,0.7,0,0.8v4.5h-1V183.5z"/>
	<path d="M149.6,185.7c0.4,0.2,0.6,0.4,0.8,0.7c0.2,0.3,0.3,0.6,0.4,1c0.1,0.3,0.1,0.7,0.1,1.2h-4c0,0.6,0.1,1,0.4,1.4
		c0.2,0.3,0.6,0.5,1.1,0.5c0.5,0,0.9-0.2,1.2-0.5c0.2-0.2,0.3-0.4,0.3-0.6h0.9c0,0.2-0.1,0.4-0.2,0.7c-0.1,0.2-0.3,0.5-0.5,0.6
		c-0.3,0.3-0.6,0.5-1,0.6c-0.2,0.1-0.5,0.1-0.8,0.1c-0.7,0-1.3-0.2-1.7-0.8c-0.5-0.5-0.7-1.2-0.7-2.1c0-0.9,0.2-1.6,0.7-2.2
		c0.5-0.6,1.1-0.8,1.9-0.8C148.9,185.4,149.3,185.5,149.6,185.7z M150,187.9c0-0.4-0.1-0.7-0.3-1c-0.3-0.4-0.7-0.7-1.3-0.7
		c-0.4,0-0.8,0.2-1.1,0.5c-0.3,0.3-0.4,0.7-0.5,1.2H150z"/>
</g>
<g>
	<polygon points="151.3,184.6 150.2,184.2 155.1,170.9 156.5,170.6 	"/>
</g>
<g>
	<polygon points="143.3,132 144.8,131.6 138.4,144.6 137.3,144 	"/>
</g>
<g>
	<polygon points="140.5,147.4 139.9,146.3 149.7,140.5 147.7,143 	"/>
</g>
<g>
	<polygon points="130.6,149.3 130.6,150.5 128.9,150.5 128.8,149.3 	"/>
</g>
<g>
	<polygon points="119.6,150.5 119.1,149.9 119.5,149.3 124.6,149.3 124.6,150.5 	"/>
</g>
<g>
	<polygon points="127.6,157.8 127,158.4 126.3,158.1 125.7,132.4 126.3,132.1 126.9,132.5 	"/>
</g>
<g>
	<path class="st0" d="M76.4,226.1c0,0.5-0.1,0.8-1.1,5.7h-1.5c1-4.7,1.1-5,1.1-5.3c0-0.9-0.4-1.4-1.3-1.4c-1,0-2.1,0.7-2.3,1.8
		c-0.1,0.6-0.4,1.9-1,4.9h-1.5c1-4.7,1.1-5,1.1-5.3c0-0.8-0.4-1.4-1.3-1.4c-1,0-2,0.7-2.3,1.7l-1.1,5h-1.5l1.6-7.8h1.5l-0.2,1
		c0.5-0.8,1.4-1.2,2.4-1.2c1.1,0,2,0.6,2.2,1.6c0.5-1,1.6-1.6,2.8-1.6C75.5,223.8,76.4,224.8,76.4,226.1z"/>
	<path class="st0" d="M79,224h1.5l-1.6,7.8h-1.5L79,224z M79.3,221.8c0-0.5,0.5-1,1-1c0.5,0,0.8,0.4,0.8,0.8c0,0.5-0.5,1-1,1
		C79.6,222.7,79.3,222.3,79.3,221.8z"/>
	<path class="st0" d="M89.1,226.2c0,0.6-0.1,1-1.1,5.6h-1.5c1-4.6,1-4.9,1-5.3c0-0.9-0.5-1.4-1.3-1.4c-1.2,0-2.3,0.8-2.6,1.8l-1,4.9
		h-1.5l1.6-7.8h1.5l-0.2,1c0.6-0.7,1.6-1.2,2.6-1.2C88.1,223.8,89.1,224.8,89.1,226.2z"/>
	<path class="st0" d="M96.5,221.5l-0.7,0.9c-0.1-0.2-0.4-0.3-0.6-0.3c-0.6,0-1.1,0.5-1.2,1l-0.2,0.8h1.8l-0.3,1.3h-1.8l-1.4,6.5
		h-1.5l1.4-6.5h-1.2l0.3-1.3h1.2l0.2-1c0.3-1.3,1.2-2.1,2.4-2.1C95.6,220.9,96.1,221.2,96.5,221.5z"/>
	<path class="st0" d="M97.2,224h1.5l-1.6,7.8h-1.5L97.2,224z M97.4,221.8c0-0.5,0.5-1,1-1c0.5,0,0.8,0.4,0.8,0.8c0,0.5-0.5,1-1,1
		C97.7,222.7,97.4,222.3,97.4,221.8z"/>
	<path class="st0" d="M100.9,228.4v0.2c0,1.3,0.7,2,2,2c0.9,0,1.9-0.4,2.5-0.9l0.8,1.1c-0.8,0.7-2.3,1.2-3.4,1.2
		c-1.9,0-3.3-1.3-3.3-3.3c0-2.6,2.3-4.9,4.8-4.9c1.5,0,2.8,0.8,2.8,2.1c0,1.5-1.4,2.5-3.7,2.5H100.9z M101.2,227.2h2.4
		c1.3,0,2-0.4,2-1.1c0-0.6-0.6-1-1.5-1C102.8,225.1,101.7,226,101.2,227.2z"/>
	<path class="st0" d="M115.7,226.2c0,0.6-0.1,1-1.1,5.6h-1.5c1-4.6,1-4.9,1-5.3c0-0.9-0.5-1.4-1.3-1.4c-1.2,0-2.3,0.8-2.6,1.8
		l-1,4.9h-1.5l1.6-7.8h1.5l-0.2,1c0.6-0.7,1.6-1.2,2.6-1.2C114.8,223.8,115.7,224.8,115.7,226.2z"/>
	<path class="st0" d="M116.5,230.8l0.9-1c0.7,0.6,1.6,0.9,2.4,0.9c1,0,1.9-0.6,1.9-1.3c0-0.4-0.3-0.7-1.5-1
		c-1.6-0.5-2.4-0.9-2.4-1.9c0-1.6,1.4-2.7,3.3-2.7c1,0,2,0.4,2.8,0.9l-0.8,1.1c-0.6-0.5-1.3-0.7-2-0.7c-1,0-1.8,0.5-1.8,1.2
		c0,0.3,0.4,0.6,1.5,1c1.5,0.5,2.3,0.9,2.3,2c0,1.5-1.5,2.8-3.4,2.8C118.5,232,117.3,231.5,116.5,230.8z"/>
	<path class="st0" d="M125.9,224h1.5l-1.6,7.8h-1.5L125.9,224z M126.2,221.8c0-0.5,0.5-1,1-1c0.5,0,0.8,0.4,0.8,0.8c0,0.5-0.5,1-1,1
		C126.5,222.7,126.2,222.3,126.2,221.8z"/>
	<path class="st0" d="M136,226.2c0,0.6-0.1,1-1.1,5.6h-1.5c1-4.6,1-4.9,1-5.3c0-0.9-0.5-1.4-1.3-1.4c-1.2,0-2.3,0.8-2.6,1.8l-1,4.9
		H128l1.6-7.8h1.5l-0.2,1c0.6-0.7,1.6-1.2,2.6-1.2C135,223.8,136,224.8,136,226.2z"/>
	<path class="st0" d="M138.8,228.4v0.2c0,1.3,0.7,2,2,2c0.9,0,1.9-0.4,2.5-0.9l0.8,1.1c-0.8,0.7-2.3,1.2-3.4,1.2
		c-1.9,0-3.3-1.3-3.3-3.3c0-2.6,2.3-4.9,4.8-4.9c1.5,0,2.8,0.8,2.8,2.1c0,1.5-1.4,2.5-3.7,2.5H138.8z M139.1,227.2h2.4
		c1.3,0,2-0.4,2-1.1c0-0.6-0.6-1-1.5-1C140.7,225.1,139.5,226,139.1,227.2z"/>
</g>
<g>
	<polygon points="388.3,147.6 387.1,148.3 387.1,128.6 388.3,129.2 	"/>
</g>
<g>
	<rect x="390.2" y="130.7" width="1.2" height="15.5"/>
</g>
<g>
	<polygon points="404.2,156.8 404.2,158.2 387.1,148.3 388.3,147.6 	"/>
</g>
<g>
	<polygon points="420.1,147.6 420.7,147.9 420.7,148.7 404.2,158.2 404.2,156.8 	"/>
</g>
<g>
	<polygon points="417.4,145.7 418,146.7 404.5,154.5 403.9,153.4 	"/>
</g>
<g>
	<polygon points="420.1,129.2 420.7,128.9 421.3,129.5 421.3,147.6 420.7,147.9 420.1,147.6 	"/>
</g>
<g>
	<polygon points="404.2,120.1 404.2,118.7 420.9,128.3 420.7,128.9 420.1,129.2 	"/>
</g>
<g>
	<polygon points="403.9,123.4 404.5,122.4 418,130.1 417.4,131.2 	"/>
</g>
<g>
	<polygon points="388.3,129.2 387.1,128.6 404.2,118.7 404.2,120.1 	"/>
</g>
<g>
	<path d="M434.2,153.7h1.2l3.8,6.1v-6.1h1v7.6H439l-3.8-6.1v6.1h-1V153.7z"/>
</g>
<g>
	<path d="M434.2,162.5h1v3.1h3.9v-3.1h1v7.6h-1v-3.5h-3.9v3.5h-1V162.5z"/>
</g>
<g>
	<polygon points="432.3,154 431.7,155 420.7,148.7 420.7,147.9 421.3,147.6 	"/>
</g>
<g>
	<polygon points="453.1,147.6 453.7,147.9 453.7,148.7 442.7,155 442.1,154 	"/>
</g>
<g>
	<polygon points="453.1,129.5 453.7,128.9 454.3,129.2 454.3,147.6 453.7,147.9 453.1,147.6 	"/>
</g>
<g>
	<polygon points="421.3,129.5 420.7,128.9 420.9,128.3 452.1,128.3 453.7,128.9 453.1,129.5 	"/>
</g>
<g>
	<polygon points="470.2,156.8 470.2,157.5 469.6,157.8 453.7,148.7 453.7,147.9 454.3,147.6 	"/>
</g>
<g>
	<polygon points="470.5,153.4 469.9,154.5 456.5,146.7 457.1,145.7 	"/>
</g>
<g>
	<polygon points="486.1,147.6 487.3,148.3 470.8,157.8 470.2,157.5 470.2,156.8 	"/>
</g>
<g>
	<polygon points="486.1,129.2 486.7,128.9 487.3,129.2 487.3,148.3 486.1,147.6 	"/>
</g>
<g>
	<polygon points="470.2,120.1 470.2,119.4 471.6,119.5 486.7,128.2 486.7,128.9 486.1,129.2 	"/>
</g>
<g>
	<polygon points="454.3,129.2 453.7,128.9 453.8,128.1 468.8,119.5 470.2,119.4 470.2,120.1 	"/>
</g>
<g>
	<path d="M467.2,96.6h1.2l3.8,6.1v-6.1h1v7.6H472l-3.8-6.1v6.1h-1V96.6z"/>
</g>
<g>
	<polygon points="471.6,119.5 470.2,119.4 468.8,119.5 468.8,105.6 471.6,105.6 	"/>
</g>
<g>
	<polygon points="441.3,112.7 438.5,115.8 447.5,97.2 448.2,98.5 	"/>
</g>
<g>
	<polygon points="453.8,128.1 453.7,128.9 452.1,128.3 438.5,115.8 441.3,112.7 	"/>
</g>
<g>
	<polygon points="448.2,98.5 447.5,97.2 465.8,99.2 465.7,100.4 	"/>
</g>
<g>
	<path class="st0" d="M413.4,226.1c0,0.5-0.1,0.8-1.1,5.7h-1.5c1-4.7,1.1-5,1.1-5.3c0-0.9-0.4-1.4-1.3-1.4c-1,0-2.1,0.7-2.3,1.8
		c-0.1,0.6-0.4,1.9-1,4.9h-1.5c1-4.7,1.1-5,1.1-5.3c0-0.8-0.4-1.4-1.3-1.4c-1,0-2,0.7-2.3,1.7l-1.1,5h-1.5l1.6-7.8h1.5l-0.2,1
		c0.5-0.8,1.4-1.2,2.4-1.2c1.1,0,2,0.6,2.2,1.6c0.5-1,1.6-1.6,2.8-1.6C412.4,223.8,413.4,224.8,413.4,226.1z"/>
	<path class="st0" d="M416,224h1.5l-1.6,7.8h-1.5L416,224z M416.2,221.8c0-0.5,0.5-1,1-1c0.5,0,0.8,0.4,0.8,0.8c0,0.5-0.5,1-1,1
		C416.6,222.7,416.2,222.3,416.2,221.8z"/>
	<path class="st0" d="M426,226.2c0,0.6-0.1,1-1.1,5.6h-1.5c1-4.6,1-4.9,1-5.3c0-0.9-0.5-1.4-1.3-1.4c-1.2,0-2.3,0.8-2.6,1.8l-1,4.9
		H418l1.6-7.8h1.5l-0.2,1c0.6-0.7,1.6-1.2,2.6-1.2C425.1,223.8,426,224.8,426,226.2z"/>
	<path class="st0" d="M427.4,228.6c0-2.6,2.3-4.8,5-4.8c1.9,0,3.4,1.5,3.4,3.4c0,2.6-2.3,4.8-5,4.8
		C428.9,232,427.4,230.5,427.4,228.6z M434.3,227.2c0-1.2-1-2.1-2.1-2.1c-1.8,0-3.3,1.6-3.3,3.4c0,1.2,0.9,2.1,2.1,2.1
		C432.8,230.7,434.3,229.1,434.3,227.2z"/>
	<path class="st0" d="M437.5,224h1.6l1.1,6.1l3.7-6.1h1.6l-4.9,7.8h-1.4L437.5,224z"/>
	<path class="st0" d="M447,224h1.5l-1.6,7.8h-1.5L447,224z M447.2,221.8c0-0.5,0.5-1,1-1c0.5,0,0.8,0.4,0.8,0.8c0,0.5-0.5,1-1,1
		C447.6,222.7,447.2,222.3,447.2,221.8z"/>
	<path class="st0" d="M457,226.2c0,0.6-0.1,1-1.1,5.6h-1.5c1-4.6,1-4.9,1-5.3c0-0.9-0.5-1.4-1.3-1.4c-1.2,0-2.3,0.8-2.6,1.8l-1,4.9
		H449l1.6-7.8h1.5l-0.2,1c0.6-0.7,1.6-1.2,2.6-1.2C456.1,223.8,457,224.8,457,226.2z"/>
	<path class="st0" d="M458.4,228.6c0-2.6,2.3-4.8,5-4.8c1,0,2.1,0.5,2.6,1.3l-1.1,0.8c-0.3-0.5-1.1-0.8-1.7-0.8
		c-1.8,0-3.3,1.6-3.3,3.4c0,1.2,0.9,2.1,2,2.1c0.8,0,1.5-0.3,2.1-0.9l0.9,1c-0.9,0.8-2,1.2-3.2,1.2
		C459.9,232,458.4,230.5,458.4,228.6z"/>
	<path class="st0" d="M467.9,224h1.5l-1.6,7.8h-1.5L467.9,224z M468.2,221.8c0-0.5,0.5-1,1-1c0.5,0,0.8,0.4,0.8,0.8c0,0.5-0.5,1-1,1
		C468.5,222.7,468.2,222.3,468.2,221.8z"/>
	<path class="st0" d="M477.9,226.2c0,0.6-0.1,1-1.1,5.6h-1.5c1-4.6,1-4.9,1-5.3c0-0.9-0.5-1.4-1.3-1.4c-1.2,0-2.3,0.8-2.6,1.8
		l-1,4.9H470l1.6-7.8h1.5l-0.2,1c0.6-0.7,1.6-1.2,2.6-1.2C477,223.8,477.9,224.8,477.9,226.2z"/>
	<path class="st0" d="M480.8,228.4v0.2c0,1.3,0.7,2,2,2c0.9,0,1.9-0.4,2.5-0.9l0.8,1.1c-0.8,0.7-2.3,1.2-3.4,1.2
		c-1.9,0-3.3-1.3-3.3-3.3c0-2.6,2.3-4.9,4.8-4.9c1.5,0,2.8,0.8,2.8,2.1c0,1.5-1.4,2.5-3.7,2.5H480.8z M481.1,227.2h2.4
		c1.3,0,2-0.4,2-1.1c0-0.6-0.6-1-1.5-1C482.6,225.1,481.5,226,481.1,227.2z"/>
</g>
<g>
	<path d="M472.6,173.3c0.5,0.5,0.8,1.1,0.9,1.7h-1c-0.1-0.5-0.3-0.9-0.7-1.2c-0.3-0.3-0.8-0.4-1.4-0.4c-0.7,0-1.3,0.3-1.8,0.8
		c-0.5,0.5-0.7,1.3-0.7,2.4c0,0.9,0.2,1.6,0.6,2.2c0.4,0.6,1,0.8,1.8,0.8c0.7,0,1.3-0.3,1.7-0.9c0.2-0.3,0.4-0.7,0.5-1.2h1
		c-0.1,0.8-0.4,1.5-0.9,2c-0.6,0.7-1.4,1-2.4,1c-0.9,0-1.6-0.3-2.2-0.8c-0.8-0.7-1.2-1.8-1.2-3.3c0-1.1,0.3-2,0.9-2.8
		c0.6-0.8,1.5-1.2,2.6-1.2C471.3,172.5,472,172.7,472.6,173.3z"/>
	<path d="M481.1,173.8c0.5,0.7,0.8,1.5,0.8,2.6c0,1.1-0.3,2.1-0.9,2.8c-0.7,0.9-1.6,1.3-2.9,1.3c-1.2,0-2.1-0.4-2.8-1.2
		c-0.6-0.7-0.9-1.7-0.9-2.8c0-1,0.3-1.9,0.8-2.6c0.7-0.9,1.6-1.4,2.9-1.4C479.4,172.5,480.4,172.9,481.1,173.8z M480.2,178.6
		c0.4-0.6,0.6-1.4,0.6-2.2c0-0.9-0.2-1.6-0.7-2.2s-1.1-0.8-1.9-0.8c-0.8,0-1.4,0.3-1.9,0.8c-0.5,0.5-0.7,1.3-0.7,2.4
		c0,0.8,0.2,1.5,0.6,2.1c0.4,0.6,1.1,0.9,2.1,0.9C479.1,179.6,479.8,179.3,480.2,178.6z"/>
</g>
<g>
	<path d="M483.1,181.5c0.2-0.4,0.5-0.7,1-1l0.7-0.4c0.3-0.2,0.6-0.4,0.7-0.5c0.2-0.2,0.3-0.5,0.3-0.7c0-0.3-0.1-0.6-0.3-0.8
		c-0.2-0.2-0.5-0.3-0.8-0.3c-0.5,0-0.8,0.2-1,0.5c-0.1,0.2-0.2,0.5-0.2,0.8h-0.7c0-0.5,0.1-0.9,0.3-1.2c0.3-0.5,0.8-0.8,1.6-0.8
		c0.6,0,1.1,0.2,1.4,0.5c0.3,0.3,0.4,0.7,0.4,1.1c0,0.4-0.2,0.8-0.5,1.1c-0.2,0.2-0.5,0.4-1,0.7l-0.5,0.3c-0.3,0.1-0.5,0.3-0.6,0.4
		c-0.3,0.2-0.4,0.5-0.5,0.7h3v0.7h-3.8C482.8,182.2,482.9,181.8,483.1,181.5z"/>
</g>
<g>
	<path d="M487.2,172.7h1.5l2.2,6.4l2.2-6.4h1.5v7.6h-1v-4.5c0-0.2,0-0.4,0-0.8s0-0.7,0-1.2l-2.2,6.4h-1l-2.2-6.4v0.2
		c0,0.2,0,0.5,0,0.9c0,0.4,0,0.7,0,0.8v4.5h-1V172.7z"/>
	<path d="M499.3,174.9c0.4,0.2,0.6,0.4,0.8,0.7c0.2,0.3,0.3,0.6,0.4,1c0.1,0.3,0.1,0.7,0.1,1.2h-4c0,0.6,0.1,1,0.4,1.4
		c0.2,0.3,0.6,0.5,1.1,0.5c0.5,0,0.9-0.2,1.2-0.5c0.2-0.2,0.3-0.4,0.3-0.6h0.9c0,0.2-0.1,0.4-0.2,0.7c-0.1,0.2-0.3,0.5-0.5,0.6
		c-0.3,0.3-0.6,0.5-1,0.6c-0.2,0.1-0.5,0.1-0.8,0.1c-0.7,0-1.3-0.3-1.7-0.8c-0.5-0.5-0.7-1.2-0.7-2.1c0-0.9,0.2-1.6,0.7-2.2
		c0.5-0.6,1.1-0.8,1.9-0.8C498.6,174.6,499,174.7,499.3,174.9z M499.7,177.1c0-0.4-0.1-0.7-0.3-1c-0.3-0.4-0.7-0.7-1.3-0.7
		c-0.4,0-0.8,0.2-1.1,0.5c-0.3,0.3-0.4,0.7-0.5,1.2H499.7z"/>
</g>
<g>
	<polygon points="469.6,157.8 470.2,157.5 470.8,157.8 470.8,171 469.6,171 	"/>
</g>
<g>
	<polygon points="502.6,119 503.8,119.7 487.3,129.2 486.7,128.9 486.7,128.2 	"/>
</g>
<g>
	<polygon points="502.6,100.7 503.8,100 503.8,119.7 502.6,119 	"/>
</g>
<g>
	<polygon points="486.7,91.5 486.7,90.1 503.8,100 502.6,100.7 	"/>
</g>
<g>
	<polygon points="475.9,98.1 475.2,97.1 486.7,90.1 486.7,91.5 	"/>
</g>
<g>
	<polygon points="500.9,134.7 498.9,138.3 497.9,137.6 499.8,134.3 	"/>
</g>
<g>
	<polygon points="496.2,132.8 494.8,135.2 493.8,134.5 495,132.3 	"/>
</g>
<g>
	<polygon points="491.4,130.8 490.7,132.1 489.7,131.4 490.3,130.3 	"/>
</g>
<g>
	<path d="M522.6,126.2c0.5,0.7,0.8,1.5,0.8,2.6c0,1.1-0.3,2.1-0.9,2.8c-0.7,0.9-1.6,1.3-2.9,1.3c-1.2,0-2.1-0.4-2.8-1.2
		c-0.6-0.7-0.9-1.7-0.9-2.8c0-1,0.3-1.9,0.8-2.6c0.7-0.9,1.6-1.4,2.9-1.4C521,124.9,522,125.4,522.6,126.2z M521.7,131
		c0.4-0.6,0.6-1.4,0.6-2.2c0-0.9-0.2-1.6-0.7-2.2s-1.1-0.8-1.9-0.8c-0.8,0-1.4,0.3-1.9,0.8c-0.5,0.5-0.7,1.3-0.7,2.4
		c0,0.8,0.2,1.5,0.6,2.1c0.4,0.6,1.1,0.9,2.1,0.9C520.6,132,521.3,131.7,521.7,131z"/>
</g>
<g>
	<polygon points="513.9,129.8 514.5,130.8 502,138.1 501.3,137 	"/>
</g>
<g>
	<polygon points="515.5,132.4 516.1,133.4 503.5,140.7 502.9,139.7 	"/>
</g>
<g>
	<path d="M499.5,153.7h1.5l2.2,6.4l2.2-6.4h1.5v7.6h-1v-4.5c0-0.2,0-0.4,0-0.8s0-0.7,0-1.2l-2.2,6.4h-1l-2.2-6.4v0.2
		c0,0.2,0,0.5,0,0.9c0,0.4,0,0.7,0,0.8v4.5h-1V153.7z"/>
	<path d="M511.7,155.9c0.4,0.2,0.6,0.4,0.8,0.7c0.2,0.3,0.3,0.6,0.4,1c0.1,0.3,0.1,0.7,0.1,1.2h-4c0,0.6,0.1,1,0.4,1.4
		c0.2,0.3,0.6,0.5,1.1,0.5c0.5,0,0.9-0.2,1.2-0.5c0.2-0.2,0.3-0.4,0.3-0.6h0.9c0,0.2-0.1,0.4-0.2,0.7c-0.1,0.2-0.3,0.5-0.5,0.6
		c-0.3,0.3-0.6,0.5-1,0.6c-0.2,0.1-0.5,0.1-0.8,0.1c-0.7,0-1.3-0.3-1.7-0.8c-0.5-0.5-0.7-1.2-0.7-2.1c0-0.9,0.2-1.6,0.7-2.2
		c0.5-0.6,1.1-0.8,1.9-0.8C510.9,155.6,511.3,155.7,511.7,155.9z M512,158c0-0.4-0.1-0.7-0.3-1c-0.3-0.4-0.7-0.7-1.3-0.7
		c-0.4,0-0.8,0.2-1.1,0.5c-0.3,0.3-0.4,0.7-0.5,1.2H512z"/>
</g>
<g>
	<rect x="502.6" y="138.4" width="1.2" height="13.7"/>
</g>
</svg>
