<?xml version="1.0" encoding="utf-8"?>
<!-- Generator: Adobe Illustrator 19.2.0, SVG Export Plug-In . SVG Version: 6.00 Build 0)  -->
<svg version="1.1" id="Layer_1" xmlns="http://www.w3.org/2000/svg" xmlns:xlink="http://www.w3.org/1999/xlink" x="0px" y="0px"
	 viewBox="0 0 320 792.3" style="enable-background:new 0 0 320 792.3;" xml:space="preserve">
<style type="text/css">
	.st0{fill:#7A6AA8;}
</style>
<g>
</g>
<g>
	<g>
		<path class="st0" d="M101.1,377.8h1.5l-1.6,7.8h-1.5L101.1,377.8z M101.3,375.6c0-0.5,0.5-1,1-1c0.5,0,0.8,0.4,0.8,0.8
			c0,0.5-0.5,1-1,1C101.6,376.5,101.3,376.1,101.3,375.6z"/>
		<path class="st0" d="M102.8,384.6l0.9-1c0.7,0.6,1.6,0.9,2.4,0.9c1,0,1.9-0.6,1.9-1.3c0-0.4-0.3-0.7-1.5-1
			c-1.6-0.5-2.4-0.9-2.4-1.9c0-1.6,1.4-2.7,3.3-2.7c1,0,2,0.4,2.8,0.9l-0.8,1.1c-0.6-0.5-1.3-0.7-2-0.7c-1,0-1.8,0.5-1.8,1.2
			c0,0.3,0.4,0.6,1.5,1c1.5,0.5,2.3,0.9,2.3,2c0,1.5-1.5,2.8-3.4,2.8C104.8,385.8,103.6,385.3,102.8,384.6z"/>
		<path class="st0" d="M111,382.4c0-2.6,2.3-4.8,5-4.8c1.9,0,3.4,1.5,3.4,3.4c0,2.6-2.3,4.8-5,4.8C112.5,385.8,111,384.2,111,382.4z
			 M117.8,381c0-1.2-1-2.1-2.1-2.1c-1.8,0-3.3,1.6-3.3,3.4c0,1.2,0.9,2.1,2.1,2.1C116.3,384.5,117.8,382.9,117.8,381z"/>
		<path class="st0" d="M129.1,380.7c0,2.7-2.1,5.1-4.6,5.1c-1.1,0-2-0.7-2.4-1.7l-0.9,4.2h-1.5l2.2-10.4h1.5l-0.3,1.3
			c0.8-0.9,1.8-1.5,3-1.5C127.8,377.6,129.1,379,129.1,380.7z M127.6,380.8c0-1.1-0.8-2-1.8-2c-1.8,0-3.3,1.7-3.3,3.6
			c0,1.1,0.9,2,2,2C126.2,384.5,127.6,382.8,127.6,380.8z"/>
		<path class="st0" d="M129.7,384.6l0.9-1c0.7,0.6,1.6,0.9,2.4,0.9c1,0,1.9-0.6,1.9-1.3c0-0.4-0.3-0.7-1.5-1
			c-1.6-0.5-2.4-0.9-2.4-1.9c0-1.6,1.4-2.7,3.3-2.7c1,0,2,0.4,2.8,0.9l-0.8,1.1c-0.6-0.5-1.3-0.7-2-0.7c-1,0-1.8,0.5-1.8,1.2
			c0,0.3,0.4,0.6,1.5,1c1.5,0.5,2.3,0.9,2.3,2c0,1.5-1.5,2.8-3.4,2.8C131.7,385.8,130.5,385.3,129.7,384.6z"/>
		<path class="st0" d="M136.9,388l0.5-1.1c0.3,0.2,0.6,0.2,0.9,0.2c0.5,0,0.9-0.2,1.3-0.7l0.6-0.8l-1.7-7.9h1.6l1.2,6.2l3.7-6.2h1.6
			l-5.2,8.6c-0.8,1.4-1.8,2-2.9,2C137.9,388.3,137.3,388.2,136.9,388z"/>
		<path class="st0" d="M146.9,382.4c0-2.6,2.3-4.8,5-4.8c1,0,2.1,0.5,2.6,1.3l-1.1,0.8c-0.3-0.5-1.1-0.8-1.7-0.8
			c-1.8,0-3.3,1.6-3.3,3.4c0,1.2,0.9,2.1,2,2.1c0.8,0,1.5-0.3,2.1-0.9l0.9,1c-0.9,0.8-2,1.2-3.2,1.2
			C148.4,385.8,146.9,384.2,146.9,382.4z"/>
		<path class="st0" d="M162.8,380c0,0.6-0.1,1-1.1,5.6h-1.5c1-4.6,1-4.9,1-5.3c0-0.9-0.5-1.4-1.3-1.4c-1.2,0-2.5,0.9-2.6,1.9v-0.1
			l-1,4.9h-1.5L157,375h1.5l-0.8,3.8c0.6-0.8,1.6-1.3,2.7-1.3C161.8,377.6,162.8,378.6,162.8,380z"/>
		<path class="st0" d="M164.2,382.4c0-2.6,2.3-4.8,5-4.8c1.9,0,3.4,1.5,3.4,3.4c0,2.6-2.3,4.8-5,4.8
			C165.7,385.8,164.2,384.2,164.2,382.4z M171,381c0-1.2-1-2.1-2.1-2.1c-1.8,0-3.3,1.6-3.3,3.4c0,1.2,0.9,2.1,2.1,2.1
			C169.5,384.5,171,382.9,171,381z"/>
		<path class="st0" d="M176.8,379c-1,4.8-1,4.7-1,4.8c0,0.4,0.2,0.6,0.5,0.6c0.4,0,0.8-0.2,0.9-0.3l0.4,1.1
			c-0.5,0.3-1.1,0.5-1.6,0.5c-1,0-1.7-0.7-1.7-1.7c0-0.4,0.1-0.7,1-5h-1.2l0.3-1.3h1.2l0.5-2.1h1.5l-0.5,2.1h1.8l-0.3,1.3H176.8z"/>
		<path class="st0" d="M185.3,377.6l-0.2,1.3c-1.6,0-3,1-3.4,2.3l-0.9,4.4h-1.5l1.6-7.8h1.5l-0.3,1.4
			C182.8,378.2,183.9,377.6,185.3,377.6z"/>
		<path class="st0" d="M186.9,377.8h1.5l-1.6,7.8h-1.5L186.9,377.8z M187.1,375.6c0-0.5,0.5-1,1-1c0.5,0,0.8,0.4,0.8,0.8
			c0,0.5-0.5,1-1,1C187.5,376.5,187.1,376.1,187.1,375.6z"/>
		<path class="st0" d="M198.6,375l-2.2,10.6H195l0.3-1.3c-0.8,0.9-1.8,1.5-3,1.5c-1.6,0-2.9-1.4-2.9-3.1c0-2.7,2.1-5.1,4.6-5.1
			c1.1,0,2,0.7,2.4,1.7l0.9-4.3H198.6z M195.8,381.8l0.1-0.3c0-0.2,0-0.4,0-0.6c0-1.1-0.9-2-2-2c-1.6,0-3.1,1.7-3.1,3.6
			c0,1.1,0.8,2,1.8,2C194.1,384.5,195.4,383.3,195.8,381.8z"/>
		<path class="st0" d="M200.3,377.8h1.5l-1.6,7.8h-1.5L200.3,377.8z M200.6,375.6c0-0.5,0.5-1,1-1c0.5,0,0.8,0.4,0.8,0.8
			c0,0.5-0.5,1-1,1C200.9,376.5,200.6,376.1,200.6,375.6z"/>
		<path class="st0" d="M210.3,380c0,0.6-0.1,1-1.1,5.6h-1.5c1-4.6,1-4.9,1-5.3c0-0.9-0.5-1.4-1.3-1.4c-1.2,0-2.3,0.8-2.6,1.8l-1,4.9
			h-1.5l1.6-7.8h1.5l-0.2,1c0.6-0.7,1.6-1.2,2.6-1.2C209.4,377.6,210.3,378.6,210.3,380z"/>
		<path class="st0" d="M213.2,382.2v0.2c0,1.3,0.7,2,2,2c0.9,0,1.9-0.4,2.5-0.9l0.8,1.1c-0.8,0.7-2.3,1.2-3.4,1.2
			c-1.9,0-3.3-1.3-3.3-3.3c0-2.6,2.3-4.9,4.8-4.9c1.5,0,2.8,0.8,2.8,2.1c0,1.5-1.4,2.5-3.7,2.5H213.2z M213.5,381h2.4
			c1.3,0,2-0.4,2-1.1c0-0.6-0.6-1-1.5-1C215,378.9,213.9,379.8,213.5,381z"/>
	</g>
	<g>
		<polygon points="136.7,252.1 135.5,252.8 135.5,233.1 136.7,233.8 		"/>
	</g>
	<g>
		<rect x="138.6" y="235.2" width="1.2" height="15.5"/>
	</g>
	<g>
		<polygon points="152.6,261.3 152.6,262.7 135.5,252.8 136.7,252.1 		"/>
	</g>
	<g>
		<polygon points="168.5,252.1 169.1,252.4 169.2,253.1 152.6,262.7 152.6,261.3 		"/>
	</g>
	<g>
		<polygon points="165.8,250.2 166.4,251.2 152.9,259 152.3,257.9 		"/>
	</g>
	<g>
		<polygon points="168.5,233.8 169.1,233.4 169.7,233.9 169.7,252 169.1,252.4 168.5,252.1 		"/>
	</g>
	<g>
		<polygon points="152.6,224.6 152.6,223.2 169.2,232.8 169.1,233.4 168.5,233.8 		"/>
	</g>
	<g>
		<polygon points="152.3,227.9 152.9,226.9 166.4,234.6 165.8,235.7 		"/>
	</g>
	<g>
		<polygon points="136.7,233.8 135.5,233.1 152.6,223.2 152.6,224.6 		"/>
	</g>
	<g>
		<path d="M184.2,254.5h1.2l3.8,6.1v-6.1h1v7.6H189l-3.8-6.1v6.1h-1V254.5z"/>
	</g>
	<g>
		<path d="M184.2,263.3h1v3.1h3.9v-3.1h1v7.6h-1v-3.5h-3.9v3.5h-1V263.3z"/>
	</g>
	<g>
		<polygon points="182.4,256.1 182,257.3 169.2,253.1 169.1,252.4 169.7,252 		"/>
	</g>
	<g>
		<polygon points="197.7,242.9 198.4,242.9 198.8,243.5 191.5,253.5 190.5,252.8 		"/>
	</g>
	<g>
		<polygon points="187,228.2 187.2,227.5 188,227.5 198.6,242.2 198.4,242.9 197.7,242.9 		"/>
	</g>
	<g>
		<polygon points="169.7,233.9 169.1,233.4 169.2,232.8 186.8,227 187.2,227.5 187,228.2 		"/>
	</g>
	<g>
		<path d="M213.5,233.3h1.2l3.8,6.1v-6.1h1v7.6h-1.2l-3.8-6.1v6.1h-1V233.3z"/>
		<path d="M221.1,233.3h1.5l2.2,6.4l2.2-6.4h1.5v7.6h-1v-4.5c0-0.2,0-0.4,0-0.8s0-0.7,0-1.2l-2.2,6.4h-1l-2.2-6.4v0.2
			c0,0.2,0,0.5,0,0.9c0,0.4,0,0.7,0,0.8v4.5h-1V233.3z"/>
		<path d="M233.2,235.5c0.4,0.2,0.6,0.4,0.8,0.7c0.2,0.3,0.3,0.6,0.4,1c0.1,0.3,0.1,0.7,0.1,1.2h-4c0,0.6,0.1,1,0.4,1.4
			c0.2,0.3,0.6,0.5,1.1,0.5c0.5,0,0.9-0.2,1.2-0.5c0.2-0.2,0.3-0.4,0.3-0.6h0.9c0,0.2-0.1,0.4-0.2,0.7c-0.1,0.2-0.3,0.5-0.5,0.6
			c-0.3,0.3-0.6,0.5-1,0.6c-0.2,0.1-0.5,0.1-0.8,0.1c-0.7,0-1.3-0.3-1.7-0.8c-0.5-0.5-0.7-1.2-0.7-2.1c0-0.9,0.2-1.6,0.7-2.2
			s1.1-0.8,1.9-0.8C232.5,235.2,232.9,235.3,233.2,235.5z M233.6,237.6c0-0.4-0.1-0.7-0.3-1c-0.3-0.4-0.7-0.7-1.3-0.7
			c-0.4,0-0.8,0.2-1.1,0.5c-0.3,0.3-0.4,0.7-0.5,1.2H233.6z"/>
	</g>
	<g>
		<polygon points="211.3,238.1 211.6,239.3 198.8,243.5 198.4,242.9 198.6,242.2 		"/>
	</g>
	<g>
		<polygon points="215.9,218.4 217.1,217.6 217.1,231.7 215.9,231.7 		"/>
	</g>
	<g>
		<polygon points="200.1,213.3 196.7,210.9 217.1,217.6 215.9,218.4 		"/>
	</g>
	<g>
		<polygon points="188,227.5 187.2,227.5 186.8,227 196.7,210.9 200.1,213.3 		"/>
	</g>
	<g>
		<path d="M204.9,255.6h1v3.1h3.9v-3.1h1v7.6h-1v-3.5H206v3.5h-1V255.6z"/>
	</g>
	<g>
		<polygon points="206.5,252.9 203,254.9 202.5,253.8 205.8,252 		"/>
	</g>
	<g>
		<polygon points="204.1,249.9 201.6,251.3 201.2,250.2 203.3,248.9 		"/>
	</g>
	<g>
		<polygon points="201.6,246.9 200.2,247.7 199.8,246.6 200.9,245.9 		"/>
	</g>
	<g>
		<polygon points="153.2,277.2 152,277.2 151.9,276 153.4,276 		"/>
	</g>
	<g>
		<polygon points="153.9,272.1 151.4,272.1 151.2,270.9 154,270.9 		"/>
	</g>
	<g>
		<polygon points="154.5,267 150.7,267 150.5,265.8 154.7,265.8 		"/>
	</g>
	<g>
		<path d="M167.7,302.1h1.2l3.8,6.1v-6.1h1v7.6h-1.2l-3.8-6.1v6.1h-1V302.1z"/>
	</g>
	<g>
		<path d="M167.7,311h1.5l2.2,6.4l2.2-6.4h1.5v7.6h-1v-4.5c0-0.2,0-0.4,0-0.8s0-0.7,0-1.2l-2.2,6.4h-1l-2.2-6.4v0.2
			c0,0.2,0,0.5,0,0.9c0,0.4,0,0.7,0,0.8v4.5h-1V311z"/>
		<path d="M179.8,313.2c0.4,0.2,0.6,0.4,0.8,0.7c0.2,0.3,0.3,0.6,0.4,1c0.1,0.3,0.1,0.7,0.1,1.2h-4c0,0.6,0.1,1,0.4,1.4
			c0.2,0.3,0.6,0.5,1.1,0.5c0.5,0,0.9-0.2,1.2-0.5c0.2-0.2,0.3-0.4,0.3-0.6h0.9c0,0.2-0.1,0.4-0.2,0.7s-0.3,0.5-0.5,0.6
			c-0.3,0.3-0.6,0.5-1,0.6c-0.2,0.1-0.5,0.1-0.8,0.1c-0.7,0-1.3-0.3-1.7-0.8s-0.7-1.2-0.7-2.1c0-0.9,0.2-1.6,0.7-2.2
			c0.5-0.6,1.1-0.8,1.9-0.8C179.1,312.9,179.5,313,179.8,313.2z M180.2,315.3c0-0.4-0.1-0.7-0.3-1c-0.3-0.4-0.7-0.7-1.3-0.7
			c-0.4,0-0.8,0.2-1.1,0.5c-0.3,0.3-0.4,0.7-0.5,1.2H180.2z"/>
	</g>
	<g>
		<polygon points="153.2,299.6 152.6,300.1 152,299.6 152,281.5 152.6,281 153.2,281.5 		"/>
	</g>
	<g>
		<polygon points="165.8,303.7 165.5,304.9 152.6,300.7 152.6,300.1 153.2,299.6 		"/>
	</g>
	<g>
		<polygon points="181.2,290.5 182.7,290.5 175,301.2 174,300.4 		"/>
	</g>
	<g>
		<polygon points="171.4,277.1 170,273.2 182.7,290.5 181.2,290.5 		"/>
	</g>
	<g>
		<polygon points="153.2,281.5 152.6,281 152.6,280.4 170,273.2 171.4,277.1 		"/>
	</g>
	<g>
		<path d="M131.5,302.1h1.2l3.8,6.1v-6.1h1v7.6h-1.2l-3.8-6.1v6.1h-1V302.1z"/>
	</g>
	<g>
		<path d="M131.5,311h1v3.1h3.9V311h1v7.6h-1V315h-3.9v3.5h-1V311z"/>
	</g>
	<g>
		<polygon points="134.7,275.8 134.5,275.1 134.9,274.6 152.6,280.4 152.6,281 152,281.5 		"/>
	</g>
	<g>
		<polygon points="124.1,290.5 123.3,290.5 123,289.9 133.8,275.1 134.5,275.1 134.7,275.8 		"/>
	</g>
	<g>
		<polygon points="122.4,287.7 121.4,287 130.5,274.4 131.5,275.1 		"/>
	</g>
	<g>
		<polygon points="131.2,300.4 130.3,301.2 123,291.1 123.3,290.5 124.1,290.5 		"/>
	</g>
	<g>
		<polygon points="152,299.6 152.6,300.1 152.6,300.7 139.7,304.9 139.4,303.7 		"/>
	</g>
	<g>
		<polygon points="126.4,258.3 127.2,257.2 134.9,274.6 134.5,275.1 133.8,275.1 		"/>
	</g>
	<g>
		<polygon points="108.1,256.4 107.5,255.1 127.2,257.2 126.4,258.3 		"/>
	</g>
	<g>
		<polygon points="109.2,259.6 109.3,258.4 124.7,260 124.6,261.2 		"/>
	</g>
	<g>
		<polygon points="97.3,271.2 95.9,271.1 107.5,255.1 108.1,256.4 		"/>
	</g>
	<g>
		<polygon points="104.8,288 104,289.1 95.9,271.1 97.3,271.2 		"/>
	</g>
	<g>
		<polygon points="107,285.5 105.9,286 99.6,271.8 100.7,271.3 		"/>
	</g>
	<g>
		<polygon points="123,289.9 123.3,290.5 123,291.1 104,289.1 104.8,288 		"/>
	</g>
	<g>
		<path d="M149.6,315.3h1v3.1h3.9v-3.1h1v7.6h-1v-3.5h-3.9v3.5h-1V315.3z"/>
	</g>
	<g>
		<polygon points="154.7,313.7 150.5,313.7 150.7,312.5 154.5,312.5 		"/>
	</g>
	<g>
		<polygon points="154.1,309.4 151.2,309.4 151.4,308.2 153.9,308.2 		"/>
	</g>
	<g>
		<polygon points="153.4,305.1 151.8,305.1 152,303.9 153.2,303.9 		"/>
	</g>
	<g>
		<polygon points="186.3,196.7 186.9,196.7 187.3,197.3 177.8,213.8 177.1,212.6 		"/>
	</g>
	<g>
		<polygon points="182.9,196.4 183.9,197.1 176.2,210.5 175.1,209.9 		"/>
	</g>
	<g>
		<polygon points="177.1,180.8 177.4,180.2 178.2,180.3 187.2,196.1 186.9,196.7 186.3,196.7 		"/>
	</g>
	<g>
		<polygon points="158.7,180.8 158,179.6 177.1,179.6 177.4,180.2 177.1,180.8 		"/>
	</g>
	<g>
		<rect x="160.1" y="182.7" width="15.5" height="1.2"/>
	</g>
	<g>
		<polygon points="149.6,196.7 148.2,196.7 158,179.6 158.7,180.8 		"/>
	</g>
	<g>
		<polygon points="158.7,212.6 158,213.8 148.2,196.7 149.6,196.7 		"/>
	</g>
	<g>
		<polygon points="160.7,209.9 159.6,210.5 151.9,197.1 152.9,196.4 		"/>
	</g>
	<g>
		<polygon points="177.1,212.6 177.8,213.8 158,213.8 158.7,212.6 		"/>
	</g>
	<g>
		<path d="M202.5,189h1.2l3.8,6.1V189h1v7.6h-1.2l-3.8-6.1v6.1h-1V189z"/>
		<path d="M210.2,189h1v3.1h3.9V189h1v7.6h-1v-3.5h-3.9v3.5h-1V189z"/>
	</g>
	<g>
		<polygon points="200.5,193.2 200.8,194.4 187.3,197.3 186.9,196.7 187.2,196.1 		"/>
	</g>
	<g>
		<polygon points="206.9,174.2 207.6,173.8 208.1,174.1 206.7,187.5 205.5,187.4 		"/>
	</g>
	<g>
		<polygon points="190.3,166.8 190.1,166.1 190.8,165.7 207.4,173.1 207.6,173.8 206.9,174.2 		"/>
	</g>
	<g>
		<polygon points="178.2,180.3 177.4,180.2 177.1,179.6 189.6,165.8 190.1,166.1 190.3,166.8 		"/>
	</g>
	<g>
		<path d="M217.3,155.9h1.2l3.8,6.1v-6.1h1v7.6h-1.2l-3.8-6.1v6.1h-1V155.9z"/>
		<path d="M224.9,155.9h1.5l2.2,6.4l2.2-6.4h1.5v7.6h-1V159c0-0.2,0-0.4,0-0.8c0-0.4,0-0.7,0-1.2l-2.2,6.4h-1l-2.2-6.4v0.2
			c0,0.2,0,0.5,0,0.8c0,0.4,0,0.7,0,0.8v4.5h-1V155.9z"/>
		<path d="M237,158.1c0.4,0.2,0.6,0.4,0.8,0.7c0.2,0.3,0.3,0.6,0.4,1c0.1,0.3,0.1,0.7,0.1,1.2h-4c0,0.6,0.1,1,0.4,1.4
			s0.6,0.5,1.1,0.5c0.5,0,0.9-0.2,1.2-0.5c0.2-0.2,0.3-0.4,0.3-0.6h0.9c0,0.2-0.1,0.4-0.2,0.7c-0.1,0.2-0.3,0.5-0.5,0.6
			c-0.3,0.3-0.6,0.5-1,0.6c-0.2,0.1-0.5,0.1-0.8,0.1c-0.7,0-1.3-0.3-1.7-0.8c-0.5-0.5-0.7-1.2-0.7-2.1c0-0.9,0.2-1.6,0.7-2.2
			c0.5-0.6,1.1-0.8,1.9-0.8C236.3,157.8,236.7,157.9,237,158.1z M237.4,160.3c0-0.4-0.1-0.7-0.3-1c-0.3-0.4-0.7-0.7-1.3-0.7
			c-0.4,0-0.8,0.2-1.1,0.5c-0.3,0.3-0.4,0.7-0.5,1.2H237.4z"/>
	</g>
	<g>
		<polygon points="215.6,163.9 216.6,164.7 208.1,174.1 207.6,173.8 207.4,173.1 		"/>
	</g>
	<g>
		<polygon points="210.5,143.9 211.1,142.5 217.7,153.9 216.6,154.5 		"/>
	</g>
	<g>
		<polygon points="194.2,147.3 190.1,147 211.1,142.5 210.5,143.9 		"/>
	</g>
	<g>
		<polygon points="190.8,165.7 190.1,166.1 189.6,165.8 190.1,147 194.2,147.3 		"/>
	</g>
	<g>
		<path d="M221.9,177.7h1v3.1h3.9v-3.1h1v7.6h-1v-3.5h-3.9v3.5h-1V177.7z"/>
	</g>
	<g>
		<polygon points="220.4,177.3 218.7,181.1 217.7,180.4 219.2,177 		"/>
	</g>
	<g>
		<polygon points="216.4,176.2 215.3,178.8 214.3,178.2 215.3,175.9 		"/>
	</g>
	<g>
		<polygon points="212.5,175.2 211.8,176.6 210.8,175.9 211.3,174.8 		"/>
	</g>
	<g>
		<polygon points="177.9,217.6 181.3,215.2 181.8,216.3 178.7,218.4 		"/>
	</g>
	<g>
		<polygon points="180.8,220.7 183.2,219.1 183.7,220.2 181.6,221.6 		"/>
	</g>
	<g>
		<polygon points="183.7,223.8 185,222.9 185.6,224 184.6,224.7 		"/>
	</g>
	<g>
		<polygon points="127.9,95.4 127.9,96.1 127.2,96.4 111.5,87.4 111.4,86.6 112,86.3 		"/>
	</g>
	<g>
		<polygon points="128.2,92.1 127.6,93.1 114.1,85.4 114.7,84.3 		"/>
	</g>
	<g>
		<polygon points="143.8,86.3 145,86.9 128.4,96.5 127.9,96.1 127.9,95.4 		"/>
	</g>
	<g>
		<polygon points="143.8,67.9 145,67.2 145,86.9 143.8,86.3 		"/>
	</g>
	<g>
		<rect x="140.7" y="69.3" width="1.2" height="15.5"/>
	</g>
	<g>
		<polygon points="127.9,58.8 127.9,57.4 145,67.2 143.8,67.9 		"/>
	</g>
	<g>
		<polygon points="112,67.9 110.8,67.2 127.9,57.4 127.9,58.8 		"/>
	</g>
	<g>
		<polygon points="114.7,69.8 114.1,68.8 127.6,61 128.2,62.1 		"/>
	</g>
	<g>
		<polygon points="112,86.3 111.4,86.6 110.8,86.3 110.8,67.2 112,67.9 		"/>
	</g>
	<g>
		<path d="M85,95.6h1v3.1h3.9v-3.1h1v7.6h-1v-3.5H86v3.5h-1V95.6z"/>
		<path d="M92.6,95.6h1.2l3.8,6.1v-6.1h1v7.6h-1.2L93.6,97v6.1h-1V95.6z"/>
	</g>
	<g>
		<polygon points="101.4,96.4 100.6,95.5 110.8,86.3 111.4,86.6 111.5,87.4 		"/>
	</g>
	<g>
		<polygon points="105.3,116.1 105,116.8 104.1,116.1 98.9,104.6 100,104.1 		"/>
	</g>
	<g>
		<polygon points="123.4,114.2 123.9,114.8 124,115.4 105.5,117.3 105,116.8 105.3,116.1 		"/>
	</g>
	<g>
		<polygon points="127.2,96.4 127.9,96.1 128.4,96.5 124.7,114.1 123.9,114.8 123.4,114.2 		"/>
	</g>
	<g>
		<path d="M81.7,131.6h1.5l2.2,6.4l2.2-6.4H89v7.6h-1v-4.5c0-0.2,0-0.4,0-0.8c0-0.4,0-0.7,0-1.2l-2.2,6.4h-1l-2.2-6.4v0.2
			c0,0.2,0,0.5,0,0.8c0,0.4,0,0.7,0,0.8v4.5h-1V131.6z"/>
		<path d="M93.8,133.8c0.4,0.2,0.6,0.4,0.8,0.7c0.2,0.3,0.3,0.6,0.4,1c0.1,0.3,0.1,0.7,0.1,1.2h-4c0,0.6,0.1,1,0.4,1.4
			s0.6,0.5,1.1,0.5c0.5,0,0.9-0.2,1.2-0.5c0.2-0.2,0.3-0.4,0.3-0.6H95c0,0.2-0.1,0.4-0.2,0.7c-0.1,0.2-0.3,0.5-0.5,0.6
			c-0.3,0.3-0.6,0.5-1,0.6c-0.2,0.1-0.5,0.1-0.8,0.1c-0.7,0-1.3-0.3-1.7-0.8c-0.5-0.5-0.7-1.2-0.7-2.1c0-0.9,0.2-1.6,0.7-2.2
			c0.5-0.6,1.1-0.8,1.9-0.8C93.1,133.5,93.5,133.6,93.8,133.8z M94.2,136c0-0.4-0.1-0.7-0.3-1c-0.3-0.4-0.7-0.7-1.3-0.7
			c-0.4,0-0.8,0.2-1.1,0.5c-0.3,0.3-0.4,0.7-0.5,1.2H94.2z"/>
		<path d="M96.4,131.6h1.2l3.8,6.1v-6.1h1v7.6h-1.2l-3.8-6.1v6.1h-1V131.6z"/>
	</g>
	<g>
		<polygon points="102.8,130.1 101.6,129.8 104.2,117.5 105,116.8 105.5,117.3 		"/>
	</g>
	<g>
		<polygon points="117.4,144.1 117.6,145.6 104.4,138 105,137 		"/>
	</g>
	<g>
		<polygon points="131.3,131.7 132.1,132.6 117.6,145.6 117.4,144.1 		"/>
	</g>
	<g>
		<polygon points="124.9,118.5 126,118 126.7,119.1 125.3,119.7 		"/>
	</g>
	<g>
		<polygon points="126.4,123.4 128.7,122.4 129.3,123.4 126.7,124.6 		"/>
	</g>
	<g>
		<polygon points="127.9,128.3 131.3,126.8 132,127.8 128.2,129.5 		"/>
	</g>
	<g>
		<polygon points="157,166.4 157,167.8 139.9,158 141.2,157.3 		"/>
	</g>
	<g>
		<polygon points="157.3,163.1 156.7,164.1 143.3,156.4 143.9,155.3 		"/>
	</g>
	<g>
		<polygon points="172.9,157.3 174.1,158 157,167.8 157,166.4 		"/>
	</g>
	<g>
		<polygon points="172.9,138.9 173.5,138.6 174.1,138.9 174.1,158 172.9,157.3 		"/>
	</g>
	<g>
		<rect x="169.9" y="140.3" width="1.2" height="15.5"/>
	</g>
	<g>
		<polygon points="157,129.8 157,129.1 157.7,128.7 173.4,137.8 173.5,138.6 172.9,138.9 		"/>
	</g>
	<g>
		<polygon points="141.2,138.9 139.9,138.2 156.5,128.7 157,129.1 157,129.8 		"/>
	</g>
	<g>
		<polygon points="143.9,140.9 143.3,139.8 156.7,132.1 157.3,133.1 		"/>
	</g>
	<g>
		<polygon points="141.2,157.3 139.9,158 139.9,138.2 141.2,138.9 		"/>
	</g>
	<g>
		<path d="M184.7,122h1.2l3.8,6.1V122h1v7.6h-1.2l-3.8-6.1v6.1h-1V122z"/>
		<path d="M192.3,122h1v3.1h3.9V122h1v7.6h-1v-3.5h-3.9v3.5h-1V122z"/>
	</g>
	<g>
		<polygon points="182.7,129.6 183.5,130.4 174.1,138.9 173.5,138.6 173.4,137.8 		"/>
	</g>
	<g>
		<polygon points="179.6,109.1 179.9,108.4 180.6,108.4 185.7,119.9 184.6,120.4 		"/>
	</g>
	<g>
		<polygon points="161.5,111 161,110.4 161.4,109.8 179.4,107.9 179.9,108.4 179.6,109.1 		"/>
	</g>
	<g>
		<polygon points="157.7,128.7 157,129.1 156.5,128.7 160.2,111.1 161,110.4 161.5,111 		"/>
	</g>
	<g>
		<path d="M180.9,86h1.2l3.8,6.1V86h1v7.6h-1.2l-3.8-6.1v6.1h-1V86z"/>
		<path d="M188.5,86h1.5l2.2,6.4l2.2-6.4h1.5v7.6h-1v-4.5c0-0.2,0-0.4,0-0.8c0-0.4,0-0.7,0-1.2l-2.2,6.4h-1l-2.2-6.4v0.2
			c0,0.2,0,0.5,0,0.8c0,0.4,0,0.7,0,0.8v4.5h-1V86z"/>
		<path d="M200.6,88.2c0.4,0.2,0.6,0.4,0.8,0.7c0.2,0.3,0.3,0.6,0.4,1c0.1,0.3,0.1,0.7,0.1,1.2h-4c0,0.6,0.1,1,0.4,1.4
			s0.6,0.5,1.1,0.5c0.5,0,0.9-0.2,1.2-0.5c0.2-0.2,0.3-0.4,0.3-0.6h0.9c0,0.2-0.1,0.4-0.2,0.7c-0.1,0.2-0.3,0.5-0.5,0.6
			c-0.3,0.3-0.6,0.5-1,0.6c-0.2,0.1-0.5,0.1-0.8,0.1c-0.7,0-1.3-0.3-1.7-0.8c-0.5-0.5-0.7-1.2-0.7-2.1c0-0.9,0.2-1.6,0.7-2.2
			s1.1-0.8,1.9-0.8C199.9,87.9,200.3,88,200.6,88.2z M201,90.4c0-0.4-0.1-0.7-0.3-1c-0.3-0.4-0.7-0.7-1.3-0.7
			c-0.4,0-0.8,0.2-1.1,0.5c-0.3,0.3-0.4,0.7-0.5,1.2H201z"/>
	</g>
	<g>
		<polygon points="182.1,95.3 183.3,95.6 180.6,108.4 179.9,108.4 179.4,107.9 		"/>
	</g>
	<g>
		<polygon points="167.5,81 167.3,79.5 179,86.3 178.4,87.3 		"/>
	</g>
	<g>
		<polygon points="155.1,92.2 151.4,93.9 167.3,79.5 167.5,81 		"/>
	</g>
	<g>
		<polygon points="161.4,109.8 161,110.4 160,109.9 151.4,93.9 155.1,92.2 		"/>
	</g>
	<g>
		<path d="M82,115.4h1v3.1H87v-3.1h1v7.6h-1v-3.5h-3.9v3.5h-1V115.4z"/>
	</g>
	<g>
		<polygon points="89.7,120.7 89.2,116.6 104.1,116.1 105,116.8 104.2,117.5 		"/>
	</g>
	<g>
		<path d="M196.1,101.8h1v3.1h3.9v-3.1h1v7.6h-1v-3.5h-3.9v3.5h-1V101.8z"/>
	</g>
	<g>
		<polygon points="194.3,104.2 194.9,108.3 193.7,108.3 193.2,104.5 		"/>
	</g>
	<g>
		<polygon points="189.6,105.6 190,108.4 188.8,108.4 188.4,105.9 		"/>
	</g>
	<g>
		<polygon points="184.8,106.9 185,108.4 183.8,108.5 183.6,107.3 		"/>
	</g>
	<g>
		<polygon points="124,115.4 123.9,114.8 124.7,114.1 160,109.9 161,110.4 160.2,111.1 		"/>
	</g>
	<g>
		<polygon points="176,161.2 177.9,157.5 178.9,158.2 177.1,161.6 		"/>
	</g>
	<g>
		<polygon points="180.7,162.9 181.9,160.3 183,161 181.8,163.3 		"/>
	</g>
	<g>
		<polygon points="185.3,164.5 186,163.1 187,163.8 186.5,164.9 		"/>
	</g>
</g>
<g>
	<g>
		<path class="st0" d="M118,717l-2.2,10.4h-1.5l0.8-3.9c-0.8,0.9-1.8,1.5-3,1.5c-1.6,0-2.9-1.4-2.9-3.1c0-2.7,2.1-5.1,4.6-5.1
			c1.1,0,2,0.7,2.4,1.7l0.3-1.5H118z M115.7,720.1c0-1.1-0.9-2-2-2c-1.6,0-3.1,1.7-3.1,3.6c0,1.1,0.8,2,1.8,2
			C114.3,723.7,115.7,722,115.7,720.1z"/>
		<path class="st0" d="M127.1,717l-1.6,7.8H124l0.2-1c-0.6,0.7-1.6,1.2-2.6,1.2c-1.5,0-2.4-1-2.4-2.4c0-0.6,0.1-1,1.1-5.6h1.5
			c-1,4.6-1,4.9-1,5.3c0,0.9,0.5,1.4,1.3,1.4c1.2,0,2.3-0.8,2.6-1.8l1-4.9H127.1z"/>
		<path class="st0" d="M136.8,717l-1.6,7.8h-1.5l0.3-1.3c-0.8,0.9-1.8,1.5-3,1.5c-1.6,0-2.9-1.4-2.9-3.1c0-2.7,2.1-5.1,4.6-5.1
			c1.1,0,2,0.7,2.4,1.7l0.3-1.5H136.8z M134.6,720.1c0-1.1-0.9-2-2-2c-1.6,0-3.1,1.7-3.1,3.6c0,1.1,0.8,2,1.8,2
			C133.1,723.7,134.6,722,134.6,720.1z"/>
		<path class="st0" d="M147.1,714.3l-2.2,10.6h-1.5l0.3-1.3c-0.8,0.9-1.8,1.5-3,1.5c-1.6,0-2.9-1.4-2.9-3.1c0-2.7,2.1-5.1,4.6-5.1
			c1.1,0,2,0.7,2.4,1.7l0.9-4.3H147.1z M144.2,721l0.1-0.3c0-0.2,0-0.4,0-0.6c0-1.1-0.9-2-2-2c-1.6,0-3.1,1.7-3.1,3.6
			c0,1.1,0.8,2,1.8,2C142.6,723.7,143.9,722.5,144.2,721z"/>
		<path class="st0" d="M153.3,716.8l-0.2,1.3c-1.6,0-3,1-3.4,2.3l-0.9,4.4h-1.5l1.6-7.8h1.5l-0.3,1.4
			C150.8,717.4,152,716.8,153.3,716.8z"/>
		<path class="st0" d="M154.9,717h1.5l-1.6,7.8h-1.5L154.9,717z M155.2,714.9c0-0.5,0.5-1,1-1c0.5,0,0.8,0.4,0.8,0.8
			c0,0.5-0.5,1-1,1C155.5,715.7,155.2,715.3,155.2,714.9z"/>
		<path class="st0" d="M165.8,717l-1.5,7c-0.4,2.1-2.3,3.4-4.6,3.4c-1.3,0-2.5-0.5-3.1-1.1l0.7-1c0.5,0.5,1.3,0.8,2.3,0.8
			c1.7,0,2.9-0.9,3.2-2.2l0.2-1c-0.8,0.9-1.8,1.3-3,1.3c-1.8,0-2.9-1.2-2.9-3c0-2.3,1.9-4.4,4.3-4.4c1.3,0,2.2,0.6,2.6,1.5l0.3-1.3
			H165.8z M163.6,720.6l0.1-0.3c0-0.1,0-0.3,0-0.4c0-1.1-0.7-1.8-1.8-1.8c-1.7,0-3.1,1.4-3.1,3c0,1.1,0.7,1.8,1.8,1.8
			C162,722.9,163.2,721.9,163.6,720.6z"/>
		<path class="st0" d="M168.2,721.4v0.2c0,1.3,0.7,2,2,2c0.9,0,1.9-0.4,2.5-0.9l0.8,1.1c-0.8,0.7-2.3,1.2-3.4,1.2
			c-1.9,0-3.3-1.3-3.3-3.3c0-2.6,2.3-4.9,4.8-4.9c1.5,0,2.8,0.8,2.8,2.1c0,1.5-1.4,2.5-3.7,2.5H168.2z M168.5,720.2h2.4
			c1.3,0,2-0.4,2-1.1c0-0.6-0.6-1-1.5-1C170.1,718.1,169,719,168.5,720.2z"/>
		<path class="st0" d="M187.7,719.2c0,0.5-0.1,0.8-1.1,5.7h-1.5c1-4.7,1.1-5,1.1-5.3c0-0.9-0.4-1.4-1.3-1.4c-1,0-2.1,0.7-2.3,1.8
			c-0.1,0.6-0.4,1.9-1,4.9H180c1-4.7,1.1-5,1.1-5.3c0-0.8-0.4-1.4-1.3-1.4c-1,0-2,0.7-2.3,1.7l-1.1,5H175l1.6-7.8h1.5l-0.2,1
			c0.5-0.8,1.4-1.2,2.4-1.2c1.1,0,2,0.6,2.2,1.6c0.5-1,1.6-1.6,2.8-1.6C186.7,716.8,187.7,717.8,187.7,719.2z"/>
		<path class="st0" d="M190.3,717h1.5l-1.6,7.8h-1.5L190.3,717z M190.5,714.9c0-0.5,0.5-1,1-1c0.5,0,0.8,0.4,0.8,0.8
			c0,0.5-0.5,1-1,1C190.9,715.7,190.5,715.3,190.5,714.9z"/>
		<path class="st0" d="M200.3,719.2c0,0.6-0.1,1-1.1,5.6h-1.5c1-4.6,1-4.9,1-5.3c0-0.9-0.5-1.4-1.3-1.4c-1.2,0-2.3,0.8-2.6,1.8
			l-1,4.9h-1.5l1.6-7.8h1.5l-0.2,1c0.6-0.7,1.6-1.2,2.6-1.2C199.4,716.8,200.3,717.8,200.3,719.2z"/>
		<path class="st0" d="M203.1,721.4v0.2c0,1.3,0.7,2,2,2c0.9,0,1.9-0.4,2.5-0.9l0.8,1.1c-0.8,0.7-2.3,1.2-3.4,1.2
			c-1.9,0-3.3-1.3-3.3-3.3c0-2.6,2.3-4.9,4.8-4.9c1.5,0,2.8,0.8,2.8,2.1c0,1.5-1.4,2.5-3.7,2.5H203.1z M203.4,720.2h2.4
			c1.3,0,2-0.4,2-1.1c0-0.6-0.6-1-1.5-1C205,718.1,203.9,719,203.4,720.2z"/>
		<path class="st0" d="M225.2,714.4l-2.2,10.4h-1.5l0.9-4.6h-5.7l-0.9,4.6h-1.5l2.2-10.4h1.5l-0.9,4.4h5.7l0.9-4.4H225.2z"/>
	</g>
	<g>
		<polygon points="129.6,587.8 128.4,588.5 128.4,568.7 129.6,569.4 		"/>
	</g>
	<g>
		<rect x="131.4" y="570.8" width="1.2" height="15.5"/>
	</g>
	<g>
		<polygon points="145.5,596.9 145.5,598.3 128.4,588.5 129.6,587.8 		"/>
	</g>
	<g>
		<polygon points="161.4,587.8 162,588.1 162,588.8 145.5,598.3 145.5,596.9 		"/>
	</g>
	<g>
		<polygon points="158.6,585.8 159.2,586.9 145.8,594.7 145.2,593.6 		"/>
	</g>
	<g>
		<polygon points="161.4,569.4 162,569.1 162.6,569.5 162.6,587.7 162,588.1 161.4,587.8 		"/>
	</g>
	<g>
		<polygon points="145.5,560.2 145.5,558.8 162,568.4 162,569.1 161.4,569.4 		"/>
	</g>
	<g>
		<polygon points="145.2,563.6 145.8,562.5 159.2,570.3 158.6,571.3 		"/>
	</g>
	<g>
		<polygon points="129.6,569.4 128.4,568.7 145.5,558.8 145.5,560.2 		"/>
	</g>
	<g>
		<path d="M177.1,590.2h1.2l3.8,6.1v-6.1h1v7.6h-1.2l-3.8-6.1v6.1h-1V590.2z"/>
	</g>
	<g>
		<path d="M177.1,599h1v3.1h3.9V599h1v7.6h-1v-3.5h-3.9v3.5h-1V599z"/>
	</g>
	<g>
		<polygon points="175.2,591.8 174.8,592.9 162,588.8 162,588.1 162.6,587.7 		"/>
	</g>
	<g>
		<polygon points="190.5,578.6 191.3,578.6 191.7,579.1 184.3,589.2 183.3,588.5 		"/>
	</g>
	<g>
		<polygon points="179.8,563.9 180.1,563.2 180.9,563.2 191.5,577.9 191.3,578.6 190.5,578.6 		"/>
	</g>
	<g>
		<polygon points="162.6,569.5 162,569.1 162,568.4 179.7,562.7 180.1,563.2 179.8,563.9 		"/>
	</g>
	<g>
		<path d="M206.4,568.9h1.2l3.8,6.1v-6.1h1v7.6h-1.2l-3.8-6.1v6.1h-1V568.9z"/>
		<path d="M214,568.9h1.5l2.2,6.4l2.2-6.4h1.5v7.6h-1V572c0-0.2,0-0.4,0-0.8s0-0.7,0-1.2l-2.2,6.4h-1l-2.2-6.4v0.2
			c0,0.2,0,0.5,0,0.9c0,0.4,0,0.7,0,0.8v4.5h-1V568.9z"/>
		<path d="M226.1,571.1c0.4,0.2,0.6,0.4,0.8,0.7c0.2,0.3,0.3,0.6,0.4,1c0.1,0.3,0.1,0.7,0.1,1.2h-4c0,0.6,0.1,1,0.4,1.4
			c0.2,0.3,0.6,0.5,1.1,0.5c0.5,0,0.9-0.2,1.2-0.5c0.2-0.2,0.3-0.4,0.3-0.6h0.9c0,0.2-0.1,0.4-0.2,0.7c-0.1,0.2-0.3,0.5-0.5,0.6
			c-0.3,0.3-0.6,0.5-1,0.6c-0.2,0.1-0.5,0.1-0.8,0.1c-0.7,0-1.3-0.3-1.7-0.8c-0.5-0.5-0.7-1.2-0.7-2.1c0-0.9,0.2-1.6,0.7-2.2
			s1.1-0.8,1.9-0.8C225.4,570.9,225.8,571,226.1,571.1z M226.5,573.3c0-0.4-0.1-0.7-0.3-1c-0.3-0.4-0.7-0.7-1.3-0.7
			c-0.4,0-0.8,0.2-1.1,0.5c-0.3,0.3-0.4,0.7-0.5,1.2H226.5z"/>
	</g>
	<g>
		<polygon points="204.1,573.8 204.5,574.9 191.7,579.1 191.3,578.6 191.5,577.9 		"/>
	</g>
	<g>
		<polygon points="208.8,554.1 210,553.2 210,567.3 208.8,567.3 		"/>
	</g>
	<g>
		<polygon points="193,549 189.6,546.6 210,553.2 208.8,554.1 		"/>
	</g>
	<g>
		<polygon points="180.9,563.2 180.1,563.2 179.7,562.7 189.6,546.6 193,549 		"/>
	</g>
	<g>
		<path d="M199.6,589.5h1v3.1h3.9v-3.1h1v7.6h-1v-3.5h-3.9v3.5h-1V589.5z"/>
	</g>
	<g>
		<polygon points="200.3,587 197,589.5 196.5,588.4 199.4,586.2 		"/>
	</g>
	<g>
		<polygon points="195,582.1 193.7,583.1 193.1,582 194.1,581.3 		"/>
	</g>
	<g>
		<polygon points="146.1,612.9 144.9,612.9 144.7,611.7 146.3,611.7 		"/>
	</g>
	<g>
		<polygon points="146.7,607.8 144.2,607.8 144.1,606.6 146.9,606.6 		"/>
	</g>
	<g>
		<polygon points="147.4,602.7 143.6,602.7 143.4,601.5 147.5,601.5 		"/>
	</g>
	<g>
		<path d="M160.6,637.8h1.2l3.8,6.1v-6.1h1v7.6h-1.2l-3.8-6.1v6.1h-1V637.8z"/>
	</g>
	<g>
		<path d="M160.6,646.6h1.5l2.2,6.4l2.2-6.4h1.5v7.6h-1v-4.5c0-0.2,0-0.4,0-0.8s0-0.7,0-1.2l-2.2,6.4h-1l-2.2-6.4v0.2
			c0,0.2,0,0.5,0,0.9c0,0.4,0,0.7,0,0.8v4.5h-1V646.6z"/>
		<path d="M172.7,648.8c0.4,0.2,0.6,0.4,0.8,0.7c0.2,0.3,0.3,0.6,0.4,1c0.1,0.3,0.1,0.7,0.1,1.2h-4c0,0.6,0.1,1,0.4,1.4
			c0.2,0.3,0.6,0.5,1.1,0.5c0.5,0,0.9-0.2,1.2-0.5c0.2-0.2,0.3-0.4,0.3-0.6h0.9c0,0.2-0.1,0.4-0.2,0.7c-0.1,0.2-0.3,0.5-0.5,0.6
			c-0.3,0.3-0.6,0.5-1,0.6c-0.2,0.1-0.5,0.1-0.8,0.1c-0.7,0-1.3-0.3-1.7-0.8c-0.5-0.5-0.7-1.2-0.7-2.1c0-0.9,0.2-1.6,0.7-2.2
			s1.1-0.8,1.9-0.8C172,648.6,172.3,648.7,172.7,648.8z M173,651c0-0.4-0.1-0.7-0.3-1c-0.3-0.4-0.7-0.7-1.3-0.7
			c-0.4,0-0.8,0.2-1.1,0.5c-0.3,0.3-0.4,0.7-0.5,1.2H173z"/>
	</g>
	<g>
		<polygon points="146.1,635.3 145.5,635.7 144.9,635.3 144.9,617.1 145.5,616.7 146.1,617.1 		"/>
	</g>
	<g>
		<polygon points="158.7,639.4 158.3,640.5 145.5,636.4 145.5,635.7 146.1,635.3 		"/>
	</g>
	<g>
		<polygon points="174.1,626.2 175.5,626.2 167.8,636.8 166.8,636.1 		"/>
	</g>
	<g>
		<polygon points="164.3,612.8 162.9,608.8 175.5,626.2 174.1,626.2 		"/>
	</g>
	<g>
		<polygon points="146.1,617.1 145.5,616.7 145.5,616.1 162.9,608.8 164.3,612.8 		"/>
	</g>
	<g>
		<path d="M124.4,637.8h1.2l3.8,6.1v-6.1h1v7.6h-1.2l-3.8-6.1v6.1h-1V637.8z"/>
	</g>
	<g>
		<path d="M124.4,646.6h1v3.1h3.9v-3.1h1v7.6h-1v-3.5h-3.9v3.5h-1V646.6z"/>
	</g>
	<g>
		<polygon points="127.6,611.5 127.4,610.8 127.8,610.3 145.5,616.1 145.5,616.7 144.9,617.1 		"/>
	</g>
	<g>
		<polygon points="116.9,626.2 116.2,626.2 115.9,625.6 126.7,610.7 127.4,610.8 127.6,611.5 		"/>
	</g>
	<g>
		<polygon points="115.2,623.3 114.2,622.6 123.4,610.1 124.4,610.8 		"/>
	</g>
	<g>
		<polygon points="124.1,636.1 123.1,636.8 115.8,626.8 116.2,626.2 116.9,626.2 		"/>
	</g>
	<g>
		<polygon points="144.9,635.3 145.5,635.7 145.5,636.4 132.6,640.5 132.2,639.4 		"/>
	</g>
	<g>
		<polygon points="119.2,593.9 120,592.8 127.8,610.3 127.4,610.8 126.7,610.7 		"/>
	</g>
	<g>
		<polygon points="101,592.1 100.4,590.8 120,592.8 119.2,593.9 		"/>
	</g>
	<g>
		<polygon points="102,595.2 102.2,594 117.6,595.6 117.5,596.9 		"/>
	</g>
	<g>
		<polygon points="90.2,606.9 88.8,606.8 100.4,590.8 101,592.1 		"/>
	</g>
	<g>
		<polygon points="97.7,623.6 96.8,624.8 88.8,606.8 90.2,606.9 		"/>
	</g>
	<g>
		<polygon points="99.8,621.1 98.8,621.6 92.4,607.4 93.5,606.9 		"/>
	</g>
	<g>
		<polygon points="115.9,625.6 116.2,626.2 115.8,626.8 96.8,624.8 97.7,623.6 		"/>
	</g>
	<g>
		<path d="M142.5,651h1v3.1h3.9V651h1v7.6h-1V655h-3.9v3.5h-1V651z"/>
	</g>
	<g>
		<polygon points="147.5,649.4 143.4,649.4 143.6,648.2 147.4,648.2 		"/>
	</g>
	<g>
		<polygon points="146.9,645.1 144.1,645.1 144.2,643.9 146.7,643.9 		"/>
	</g>
	<g>
		<polygon points="146.3,640.8 144.7,640.8 144.9,639.6 146.1,639.6 		"/>
	</g>
	<g>
		<polygon points="179.1,532.4 179.8,532.4 180.2,533 170.6,549.5 169.9,548.3 		"/>
	</g>
	<g>
		<polygon points="175.8,532.1 176.8,532.7 169,546.1 168,545.5 		"/>
	</g>
	<g>
		<polygon points="169.9,516.5 170.3,515.9 171,516 180.1,531.7 179.8,532.4 179.1,532.4 		"/>
	</g>
	<g>
		<polygon points="151.6,516.5 150.9,515.3 170,515.3 170.3,515.9 169.9,516.5 		"/>
	</g>
	<g>
		<rect x="153" y="518.4" width="15.5" height="1.2"/>
	</g>
	<g>
		<polygon points="142.4,532.4 141,532.4 150.9,515.3 151.6,516.5 		"/>
	</g>
	<g>
		<polygon points="151.6,548.3 150.9,549.5 141,532.4 142.4,532.4 		"/>
	</g>
	<g>
		<polygon points="153.5,545.5 152.5,546.1 144.7,532.7 145.8,532.1 		"/>
	</g>
	<g>
		<polygon points="169.9,548.3 170.6,549.5 150.9,549.5 151.6,548.3 		"/>
	</g>
	<g>
		<path d="M195.4,524.6h1.2l3.8,6.1v-6.1h1v7.6h-1.2l-3.8-6.1v6.1h-1V524.6z"/>
		<path d="M203.1,524.6h1v3.1h3.9v-3.1h1v7.6h-1v-3.5h-3.9v3.5h-1V524.6z"/>
	</g>
	<g>
		<polygon points="193.4,528.9 193.7,530.1 180.2,533 179.8,532.4 180.1,531.7 		"/>
	</g>
	<g>
		<polygon points="199.8,509.9 200.4,509.5 201,509.8 199.6,523.2 198.4,523.1 		"/>
	</g>
	<g>
		<polygon points="183.2,502.5 183,501.7 183.7,501.4 200.2,508.8 200.4,509.5 199.8,509.9 		"/>
	</g>
	<g>
		<polygon points="171,516 170.3,515.9 170,515.3 182,502 183,501.7 183.2,502.5 		"/>
	</g>
	<g>
		<path d="M210.1,491.5h1.2l3.8,6.1v-6.1h1v7.6H215l-3.8-6.1v6.1h-1V491.5z"/>
		<path d="M217.8,491.5h1.5l2.2,6.4l2.2-6.4h1.5v7.6h-1v-4.5c0-0.2,0-0.4,0-0.8s0-0.7,0-1.2l-2.2,6.4h-1l-2.2-6.4v0.2
			c0,0.2,0,0.5,0,0.8c0,0.4,0,0.7,0,0.8v4.5h-1V491.5z"/>
		<path d="M229.9,493.8c0.4,0.2,0.6,0.4,0.8,0.7c0.2,0.3,0.3,0.6,0.4,1c0.1,0.3,0.1,0.7,0.1,1.2h-4c0,0.6,0.1,1,0.4,1.4
			c0.2,0.3,0.6,0.5,1.1,0.5c0.5,0,0.9-0.2,1.2-0.5c0.2-0.2,0.3-0.4,0.3-0.6h0.9c0,0.2-0.1,0.4-0.2,0.7s-0.3,0.5-0.5,0.6
			c-0.3,0.3-0.6,0.5-1,0.6c-0.2,0.1-0.5,0.1-0.8,0.1c-0.7,0-1.3-0.3-1.7-0.8s-0.7-1.2-0.7-2.1c0-0.9,0.2-1.6,0.7-2.2
			c0.5-0.6,1.1-0.8,1.9-0.8C229.2,493.5,229.5,493.6,229.9,493.8z M230.2,495.9c0-0.4-0.1-0.7-0.3-1c-0.3-0.4-0.7-0.7-1.3-0.7
			c-0.4,0-0.8,0.2-1.1,0.5c-0.3,0.3-0.4,0.7-0.5,1.2H230.2z"/>
	</g>
	<g>
		<polygon points="208.5,499.6 209.4,500.4 201,509.8 200.4,509.5 200.2,508.8 		"/>
	</g>
	<g>
		<polygon points="203.3,479.5 204,478.2 210.5,489.6 209.5,490.2 		"/>
	</g>
	<g>
		<polygon points="187.1,483 182.9,482.6 204,478.2 203.3,479.5 		"/>
	</g>
	<g>
		<polygon points="183.7,501.4 183,501.7 182.5,500.9 182.9,482.6 187.1,483 		"/>
	</g>
	<g>
		<path d="M214.8,513.4h1v3.1h3.9v-3.1h1v7.6h-1v-3.5h-3.9v3.5h-1V513.4z"/>
	</g>
	<g>
		<polygon points="213.3,513 211.6,516.7 210.6,516.1 212.1,512.6 		"/>
	</g>
	<g>
		<polygon points="209.3,511.9 208.1,514.5 207.1,513.8 208.1,511.6 		"/>
	</g>
	<g>
		<polygon points="205.3,510.8 204.7,512.3 203.6,511.6 204.1,510.5 		"/>
	</g>
	<g>
		<polygon points="187.3,456.5 188.7,456.5 178.9,473.6 178.1,472.4 		"/>
	</g>
	<g>
		<polygon points="184,456.2 185,456.8 177.3,470.3 176.2,469.7 		"/>
	</g>
	<g>
		<polygon points="178.1,440.6 178.9,439.4 188.7,456.5 187.3,456.5 		"/>
	</g>
	<g>
		<polygon points="159.8,440.6 159.1,439.4 178.9,439.4 178.1,440.6 		"/>
	</g>
	<g>
		<rect x="161.2" y="442.5" width="15.5" height="1.2"/>
	</g>
	<g>
		<polygon points="150.6,456.5 150,456.5 149.5,456 159.1,439.4 159.8,440.6 		"/>
	</g>
	<g>
		<polygon points="159.8,472.4 159.5,473 158.7,473 149.7,457.2 150,456.5 150.6,456.5 		"/>
	</g>
	<g>
		<polygon points="161.7,469.7 160.7,470.3 152.9,456.8 154,456.2 		"/>
	</g>
	<g>
		<polygon points="178.1,472.4 178.9,473.6 159.7,473.6 159.5,473 159.8,472.4 		"/>
	</g>
	<g>
		<path d="M119.1,456.7h1v3.1h3.9v-3.1h1v7.6h-1v-3.5h-3.9v3.5h-1V456.7z"/>
		<path d="M126.7,456.7h1.2l3.8,6.1v-6.1h1v7.6h-1.2l-3.8-6.1v6.1h-1V456.7z"/>
	</g>
	<g>
		<polygon points="134.6,460.4 134.4,459.2 149.5,456 150,456.5 149.7,457.2 		"/>
	</g>
	<g>
		<polygon points="130,479 129.3,479.4 128.8,478.4 130.2,465.6 131.4,465.8 		"/>
	</g>
	<g>
		<polygon points="146.6,486.4 146.7,487.2 146.5,487.7 129.5,480.2 129.3,479.4 130,479 		"/>
	</g>
	<g>
		<polygon points="158.7,473 159.5,473 159.7,473.6 147.8,486.9 146.7,487.2 146.6,486.4 		"/>
	</g>
	<g>
		<path d="M97.3,489.8h1.5l2.2,6.4l2.2-6.4h1.5v7.6h-1v-4.5c0-0.2,0-0.4,0-0.8s0-0.7,0-1.2l-2.2,6.4h-1l-2.2-6.4v0.2
			c0,0.2,0,0.5,0,0.8c0,0.4,0,0.7,0,0.8v4.5h-1V489.8z"/>
		<path d="M109.4,492c0.4,0.2,0.6,0.4,0.8,0.7c0.2,0.3,0.3,0.6,0.4,1c0.1,0.3,0.1,0.7,0.1,1.2h-4c0,0.6,0.1,1,0.4,1.4
			c0.2,0.3,0.6,0.5,1.1,0.5c0.5,0,0.9-0.2,1.2-0.5c0.2-0.2,0.3-0.4,0.3-0.6h0.9c0,0.2-0.1,0.4-0.2,0.7c-0.1,0.2-0.3,0.5-0.5,0.6
			c-0.3,0.3-0.6,0.5-1,0.6c-0.2,0.1-0.5,0.1-0.8,0.1c-0.7,0-1.3-0.3-1.7-0.8c-0.5-0.5-0.7-1.2-0.7-2.1c0-0.9,0.2-1.6,0.7-2.2
			c0.5-0.6,1.1-0.8,1.9-0.8C108.7,491.7,109,491.8,109.4,492z M109.7,494.2c0-0.4-0.1-0.7-0.3-1c-0.3-0.4-0.7-0.7-1.3-0.7
			c-0.4,0-0.8,0.2-1.1,0.5c-0.3,0.3-0.4,0.7-0.5,1.2H109.7z"/>
		<path d="M112,489.8h1.2l3.8,6.1v-6.1h1v7.6h-1.2l-3.8-6.1v6.1h-1V489.8z"/>
	</g>
	<g>
		<polygon points="120.6,490.1 119.6,489.3 128.3,479.7 129.3,479.4 129.5,480.2 		"/>
	</g>
	<g>
		<polygon points="126.4,509.4 125.8,510.8 118.8,498.6 119.8,498 		"/>
	</g>
	<g>
		<polygon points="144.6,505.5 144.9,506.7 125.8,510.8 126.4,509.4 		"/>
	</g>
	<g>
		<polygon points="145.7,490.9 146.9,491.1 147,492.3 145.5,492.1 		"/>
	</g>
	<g>
		<polygon points="144.6,495.9 147,496.2 147.1,497.4 144.2,497.1 		"/>
	</g>
	<g>
		<polygon points="143.3,500.9 147.2,501.3 147.2,502.5 143.1,502.1 		"/>
	</g>
	<g>
		<polygon points="146.5,487.7 146.7,487.2 147.8,486.9 182.5,500.9 183,501.7 182,502 		"/>
	</g>
	<g>
		<path d="M108.1,467h1v3.1h3.9V467h1v7.6h-1v-3.5h-3.9v3.5h-1V467z"/>
	</g>
	<g>
		<polygon points="115.4,475.1 117.2,471.4 128.8,478.4 129.3,479.4 128.3,479.7 		"/>
	</g>
	<g>
		<polygon points="170.7,553.2 174.1,550.9 174.7,552 171.6,554.1 		"/>
	</g>
	<g>
		<polygon points="173.6,556.3 176,554.7 176.6,555.9 174.5,557.3 		"/>
	</g>
	<g>
		<polygon points="176.6,559.5 177.9,558.6 178.4,559.7 177.4,560.4 		"/>
	</g>
</g>
</svg>
