<?xml version="1.0" encoding="utf-8"?>
<!-- Generator: Adobe Illustrator 19.2.0, SVG Export Plug-In . SVG Version: 6.00 Build 0)  -->
<svg version="1.1" id="Layer_1" xmlns="http://www.w3.org/2000/svg" xmlns:xlink="http://www.w3.org/1999/xlink" x="0px" y="0px"
	 viewBox="0 0 294 391" style="enable-background:new 0 0 294 391;" xml:space="preserve">
<style type="text/css">
	.st0{fill:#7A6AA8;}
	.st1{fill:#959595;}
</style>
<g>
	<path d="M55,276.1l-3.2,15.4h-1.6l0.4-2.1c-1.1,1.5-2.8,2.4-4.5,2.4c-2.3,0-4.3-2.1-4.3-4.5c0-4,3.1-7.4,6.7-7.4
		c1.5,0,2.9,1.1,3.5,2.7l1.3-6.4H55z M51.3,286l0.1-0.4c0.1-0.4,0.1-0.7,0.1-1.1c0-1.7-1.5-3.2-3.3-3.2c-2.6,0-4.7,2.6-4.7,5.8
		c0,1.7,1.3,3.2,2.9,3.2C48.7,290.3,50.7,288.4,51.3,286z"/>
	<path d="M67.4,280.1L65,291.5h-1.7l0.4-1.7c-0.9,1.2-2.5,2-4,2c-2.2,0-3.6-1.4-3.6-3.4c0-0.8,0.2-1.4,1.6-8.2h1.7
		c-1.4,6.8-1.6,7.3-1.6,7.9c0,1.4,0.8,2.2,2.2,2.2c1.9,0,3.8-1.3,4.2-2.9l1.5-7.3H67.4z"/>
	<path d="M81.3,280.1l-2.4,11.4h-1.6l0.4-2.1c-1.1,1.5-2.8,2.4-4.5,2.4c-2.3,0-4.3-2.1-4.3-4.5c0-4,3.1-7.4,6.7-7.4
		c1.5,0,2.9,1.1,3.5,2.7l0.5-2.4H81.3z M78.6,284.5c0-1.7-1.5-3.2-3.3-3.2c-2.6,0-4.7,2.6-4.7,5.8c0,1.7,1.3,3.2,2.9,3.2
		C76.3,290.3,78.6,287.7,78.6,284.5z"/>
	<path d="M85.6,276.1h1.6l-3.2,15.4h-1.7L85.6,276.1z"/>
	<path d="M109.4,276.4l-3.1,15.1h-1.7l1.4-6.9H97l-1.4,6.9h-1.7l3.1-15.1h1.7l-1.3,6.6h8.9l1.3-6.6H109.4z"/>
	<path d="M110.5,285.4c0-5,4.3-9.3,9.5-9.3c3.7,0,6.2,2.8,6.2,6.4c0,5-4.4,9.3-9.5,9.3C113.4,291.8,110.5,288.9,110.5,285.4z
		 M124.6,282.5c0-2.7-2-4.8-4.8-4.8c-4,0-7.5,3.5-7.5,7.6c0,2.7,2.2,4.9,4.9,4.9C121.2,290.2,124.6,286.5,124.6,282.5z"/>
	<path d="M130.9,276.4h1.7l3.4,10.5l7.8-10.5h1.7l-3.1,15.1h-1.7l2.4-11.4l-7.8,10.5l-3.5-10.5l-2.4,11.4h-1.7L130.9,276.4z"/>
	<path d="M147.1,285.4c0-5,4.3-9.3,9.5-9.3c3.7,0,6.2,2.8,6.2,6.4c0,5-4.4,9.3-9.5,9.3C150,291.8,147.1,288.9,147.1,285.4z
		 M161.1,282.5c0-2.7-2-4.8-4.8-4.8c-4,0-7.5,3.5-7.5,7.6c0,2.7,2.2,4.9,4.9,4.9C157.8,290.2,161.1,286.5,161.1,282.5z"/>
	<path d="M165,284.7h5.7l-0.4,1.6h-5.7L165,284.7z"/>
	<path d="M180.7,279.9l-0.2,1.5c-2.6,0-4.8,1.6-5.3,3.9l-1.3,6.3h-1.7l2.4-11.4h1.6l-0.5,2.2C176.9,280.8,178.6,279.9,180.7,279.9z"
		/>
	<path d="M193.7,280.1l-2.4,11.4h-1.7l0.4-2.1c-1.1,1.5-2.8,2.4-4.5,2.4c-2.3,0-4.3-2.1-4.3-4.5c0-4,3.1-7.4,6.7-7.4
		c1.5,0,2.9,1.1,3.5,2.7l0.5-2.4H193.7z M191,284.5c0-1.7-1.5-3.2-3.3-3.2c-2.6,0-4.7,2.6-4.7,5.8c0,1.7,1.3,3.2,2.9,3.2
		C188.6,290.3,191,287.7,191,284.5z"/>
	<path d="M197.1,280.1h1.7l-2.4,11.4h-1.7L197.1,280.1z M197.4,277.1c0-0.6,0.5-1.2,1.2-1.2c0.6,0,1,0.4,1,1c0,0.6-0.6,1.2-1.2,1.2
		S197.4,277.6,197.4,277.1z"/>
	<path d="M199.4,290l1-1.1c1,0.9,2.3,1.4,3.5,1.4c1.7,0,3.1-1,3.1-2.2c0-0.7-0.7-1.1-2.4-1.7c-2.4-0.7-3.3-1.5-3.3-2.7
		c0-2.3,1.9-3.9,4.6-3.9c1.3,0,2.8,0.5,3.9,1.3l-1,1.2c-0.9-0.7-2-1-3-1c-1.7,0-2.9,0.9-2.9,2c0,0.5,0.7,1,2.5,1.7
		c2.3,0.7,3.2,1.5,3.2,2.8c0,2.2-2.2,4-4.8,4C202.2,291.8,200.5,291.1,199.4,290z"/>
	<path d="M213,280.1h1.7l-2.4,11.4h-1.7L213,280.1z M213.2,277.1c0-0.6,0.5-1.2,1.2-1.2c0.6,0,1,0.4,1,1c0,0.6-0.6,1.2-1.2,1.2
		S213.2,277.6,213.2,277.1z"/>
	<path d="M226.8,283.3c0,0.8-0.2,1.4-1.6,8.2h-1.7c1.4-6.8,1.6-7.3,1.6-7.9c0-1.4-0.8-2.2-2.2-2.2c-1.9,0-3.8,1.3-4.2,2.9l-1.5,7.3
		h-1.7l2.4-11.4h1.7l-0.4,1.7c0.9-1.2,2.5-2,4-2C225.5,279.9,226.8,281.2,226.8,283.3z"/>
	<path d="M241.1,280.1l-2.1,10.2c-0.6,3-3.4,4.9-6.5,4.9c-1.9,0-3.5-0.7-4.3-1.6l0.9-1.2c0.7,0.8,1.9,1.3,3.4,1.3
		c2.6,0,4.5-1.4,5-3.6l0.4-1.7c-1.2,1.3-2.7,2.1-4.5,2.1c-2.6,0-4.3-1.7-4.3-4.3c0-3.4,2.8-6.5,6.3-6.5c2,0,3.2,1,3.8,2.3l0.4-2.1
		H241.1z M238.4,285.5l0.1-0.5c0-0.2,0-0.4,0-0.6c0-1.8-1.1-2.9-3-2.9c-2.7,0-4.9,2.3-4.9,4.9c0,1.8,1.1,3,3,3
		C235.9,289.2,237.8,287.5,238.4,285.5z"/>
	<path d="M251.3,275.2h1.9l-11.5,18h-1.9L251.3,275.2z"/>
	<path d="M75.3,317.9l-0.4,1.6H65l3.1-15.1h1.7l-2.8,13.5H75.3z"/>
	<path d="M78.9,313.2l1.8-8.8h1.7l-1.8,8.9c-0.6,2.9,0.9,4.9,3.6,4.9c2.7,0,5-2.1,5.6-5l1.8-8.8h1.7l-1.8,8.9
		c-0.8,3.8-3.9,6.5-7.6,6.5C80.2,319.8,78.1,317,78.9,313.2z"/>
	<path d="M97.3,304.4H99l3.4,10.5l7.8-10.5h1.7l-3.1,15.1h-1.7l2.4-11.4l-7.8,10.5l-3.5-10.5l-2.4,11.4h-1.7L97.3,304.4z"/>
	<path d="M113.5,313.4c0-5,4.3-9.3,9.5-9.3c3.7,0,6.2,2.8,6.2,6.4c0,5-4.4,9.3-9.5,9.3C116.4,319.8,113.5,316.9,113.5,313.4z
		 M127.6,310.5c0-2.7-2-4.8-4.8-4.8c-4,0-7.5,3.5-7.5,7.6c0,2.7,2.2,4.9,4.9,4.9C124.2,318.2,127.6,314.5,127.6,310.5z"/>
	<path d="M131.4,312.7h5.7l-0.4,1.6H131L131.4,312.7z"/>
	<path d="M141.8,304.1h1.6l-3.2,15.4h-1.7L141.8,304.1z"/>
	<path d="M144,314.9c0-3.8,3.3-7.1,7.2-7.1c2.6,0,4.8,2.2,4.8,4.8c0,3.8-3.3,7.1-7.3,7.1C146.2,319.8,144,317.5,144,314.9z
		 M154.3,312.8c0-1.9-1.5-3.5-3.4-3.5c-2.8,0-5.1,2.5-5.1,5.5c0,1.9,1.5,3.5,3.3,3.5C151.9,318.3,154.3,315.8,154.3,312.8z"/>
	<path d="M158.5,308.1h1.7l0.9,9.2l5-9.2h1.4l1.2,9.2l4.8-9.2h1.8l-6.2,11.4h-1.6l-1.1-9.1l-5,9.1h-1.6L158.5,308.1z"/>
	<path d="M176.9,314.4c0,0.2,0,0.3,0,0.4c0,2.1,1.2,3.4,3.3,3.4c1.4,0,3-0.6,3.9-1.4l0.9,1.2c-1.2,1.1-3.5,1.7-5,1.7
		c-2.7,0-4.6-1.9-4.6-4.8c0-3.8,3.4-7.2,7-7.2c2.1,0,4.1,1.2,4.1,3.1c0,2-2,3.4-5.4,3.4H176.9z M177.2,313h4c2.2,0,3.5-0.7,3.5-1.9
		c0-1.1-1.1-1.8-2.6-1.8C179.8,309.3,178,311,177.2,313z"/>
	<path d="M195.9,307.9l-0.2,1.5c-2.6,0-4.8,1.6-5.3,3.9l-1.3,6.3h-1.7l2.4-11.4h1.7l-0.5,2.2C192,308.8,193.8,307.9,195.9,307.9z"/>
	<path d="M198.2,308.1h1.7l-2.4,11.4h-1.7L198.2,308.1z M198.4,305.1c0-0.6,0.5-1.2,1.2-1.2c0.6,0,1,0.4,1,1c0,0.6-0.6,1.2-1.2,1.2
		S198.4,305.6,198.4,305.1z"/>
	<path d="M212.1,311.3c0,0.8-0.2,1.4-1.6,8.2h-1.7c1.4-6.8,1.6-7.3,1.6-7.9c0-1.4-0.8-2.2-2.2-2.2c-1.9,0-3.8,1.3-4.2,2.9l-1.5,7.3
		h-1.7l2.4-11.4h1.7l-0.4,1.7c0.9-1.2,2.5-2,4-2C210.7,307.9,212.1,309.2,212.1,311.3z"/>
	<path d="M226.3,308.1l-2.1,10.2c-0.6,3-3.4,4.9-6.5,4.9c-1.9,0-3.5-0.7-4.3-1.6l0.9-1.2c0.7,0.8,1.9,1.3,3.4,1.3
		c2.6,0,4.5-1.4,5-3.6l0.4-1.7c-1.2,1.3-2.7,2.1-4.5,2.1c-2.6,0-4.3-1.7-4.3-4.3c0-3.4,2.8-6.5,6.3-6.5c2,0,3.2,1,3.8,2.3l0.4-2.1
		H226.3z M223.6,313.5l0.1-0.5c0-0.2,0-0.4,0-0.6c0-1.8-1.1-2.9-3-2.9c-2.7,0-4.9,2.3-4.9,4.9c0,1.8,1.1,3,3,3
		C221.1,317.2,223,315.5,223.6,313.5z"/>
	<path d="M100.3,342.9c0-3.8,3.3-7.1,7.2-7.1c1.3,0,2.8,0.7,3.7,1.7l-1.3,1c-0.5-0.7-1.7-1.3-2.7-1.3c-2.8,0-5.2,2.5-5.2,5.5
		c0,1.9,1.5,3.5,3.3,3.5c1.1,0,2.2-0.5,3.3-1.4l1,1.2c-1.4,1.1-2.9,1.7-4.5,1.7C102.4,347.8,100.3,345.5,100.3,342.9z"/>
	<path d="M124.7,336.1l-2.4,11.4h-1.6l0.4-2.1c-1.1,1.5-2.8,2.4-4.5,2.4c-2.3,0-4.3-2.1-4.3-4.5c0-4,3.1-7.4,6.7-7.4
		c1.5,0,2.9,1.1,3.5,2.7l0.5-2.4H124.7z M122,340.5c0-1.7-1.5-3.2-3.3-3.2c-2.6,0-4.7,2.6-4.7,5.8c0,1.7,1.3,3.2,2.9,3.2
		C119.7,346.3,122,343.7,122,340.5z"/>
	<path d="M130.5,337.6c-1.7,7.9-1.6,7.5-1.6,7.7c0,0.6,0.4,1,0.9,1c0.6,0,1.1-0.2,1.4-0.5l0.7,1.3c-0.7,0.5-1.5,0.7-2.2,0.7
		c-1.4,0-2.3-0.9-2.3-2.3c0-0.5,0.1-0.9,1.6-7.9H127l0.3-1.5h1.8l0.7-3.1h1.6l-0.7,3.1h2.8l-0.3,1.5H130.5z"/>
	<path d="M147,336.1l-2.4,11.4H143l0.4-2.1c-1.1,1.5-2.8,2.4-4.5,2.4c-2.3,0-4.3-2.1-4.3-4.5c0-4,3.1-7.4,6.7-7.4
		c1.5,0,2.9,1.1,3.5,2.7l0.5-2.4H147z M144.3,340.5c0-1.7-1.5-3.2-3.3-3.2c-2.6,0-4.7,2.6-4.7,5.8c0,1.7,1.3,3.2,2.9,3.2
		C141.9,346.3,144.3,343.7,144.3,340.5z"/>
	<path d="M151.3,332.1h1.7l-3.2,15.4h-1.7L151.3,332.1z"/>
	<path d="M152.3,351.1l0.6-1.4c0.4,0.2,0.8,0.3,1.2,0.3c0.8,0,1.4-0.3,2-1.1l1-1.3l-2.6-11.4h1.8l2,9.5l5.7-9.5h1.8l-7.8,12.7
		c-1.2,1.9-2.4,2.6-3.9,2.6C153.4,351.5,152.8,351.3,152.3,351.1z"/>
	<path d="M165.8,346l1-1.1c1,0.9,2.3,1.4,3.5,1.4c1.7,0,3.1-1,3.1-2.2c0-0.7-0.7-1.1-2.4-1.7c-2.4-0.7-3.3-1.5-3.3-2.7
		c0-2.3,1.9-3.9,4.6-3.9c1.3,0,2.8,0.5,3.9,1.3l-1,1.2c-0.9-0.7-2-1-3-1c-1.7,0-2.9,0.9-2.9,2c0,0.5,0.7,1,2.5,1.7
		c2.3,0.7,3.2,1.5,3.2,2.8c0,2.2-2.2,4-4.8,4C168.6,347.8,166.9,347.1,165.8,346z"/>
	<path d="M179.4,336.1h1.7l-2.4,11.4H177L179.4,336.1z M179.6,333.1c0-0.6,0.5-1.2,1.2-1.2c0.6,0,1,0.4,1,1c0,0.6-0.6,1.2-1.2,1.2
		C180,334.1,179.6,333.6,179.6,333.1z"/>
	<path d="M181.6,346l1-1.1c1,0.9,2.3,1.4,3.5,1.4c1.7,0,3.1-1,3.1-2.2c0-0.7-0.7-1.1-2.4-1.7c-2.4-0.7-3.3-1.5-3.3-2.7
		c0-2.3,1.9-3.9,4.6-3.9c1.3,0,2.8,0.5,3.9,1.3l-1,1.2c-0.9-0.7-2-1-3-1c-1.7,0-2.9,0.9-2.9,2c0,0.5,0.7,1,2.5,1.7
		c2.3,0.7,3.2,1.5,3.2,2.8c0,2.2-2.2,4-4.8,4C184.4,347.8,182.8,347.1,181.6,346z"/>
</g>
<g>
	<g>
		<path d="M131.6,74.4h1.8l5.7,9.3v-9.3h1.5v11.5h-1.7l-5.8-9.3v9.3h-1.5V74.4z"/>
	</g>
	<g>
		<path d="M146.7,120.9h1.8l5.7,9.3v-9.3h1.5v11.5H154l-5.8-9.3v9.3h-1.5V120.9z"/>
	</g>
	<g>
		<path d="M146.7,134.2h1.6v4.7h5.9v-4.7h1.6v11.5h-1.6v-5.4h-5.9v5.4h-1.6V134.2z"/>
	</g>
	<polygon points="167.1,79.1 165.7,81 143,81 143,79.1 	"/>
	<polygon points="176,106.5 175.7,108.8 174.6,108.5 165.7,81 167.1,79.1 	"/>
	<polygon points="159.4,121.8 158.3,120.3 174.6,108.5 175.7,108.8 174.7,110.8 	"/>
	<polygon points="127.8,110.8 126.8,108.8 127.9,108.5 144.2,120.3 143,121.8 	"/>
	<polygon points="132.4,88.5 134.2,89.1 127.9,108.5 126.8,108.8 126.5,106.4 	"/>
	<g>
		<path d="M100,49.9h2.2l3.3,9.7l3.3-9.7h2.2v11.5h-1.5v-6.8c0-0.2,0-0.6,0-1.2s0-1.1,0-1.7l-3.3,9.7h-1.5l-3.3-9.7v0.4
			c0,0.3,0,0.7,0,1.3s0,1,0,1.3v6.8H100V49.9z"/>
		<path d="M118.4,53.2c0.6,0.3,1,0.6,1.3,1.1c0.3,0.4,0.5,0.9,0.6,1.5c0.1,0.4,0.1,1,0.1,1.8h-6.1c0,0.9,0.2,1.5,0.6,2
			s0.9,0.8,1.7,0.8c0.7,0,1.3-0.2,1.7-0.7c0.2-0.3,0.4-0.6,0.5-1h1.4c0,0.3-0.2,0.6-0.4,1s-0.4,0.7-0.7,0.9
			c-0.4,0.4-0.9,0.7-1.6,0.8c-0.3,0.1-0.7,0.1-1.1,0.1c-1,0-1.9-0.4-2.6-1.1s-1.1-1.8-1.1-3.2c0-1.3,0.4-2.4,1.1-3.3
			s1.7-1.3,2.8-1.3C117.2,52.8,117.8,53,118.4,53.2z M118.9,56.5c-0.1-0.6-0.2-1.1-0.4-1.5c-0.4-0.7-1-1-1.9-1
			c-0.6,0-1.2,0.2-1.6,0.7s-0.7,1.1-0.7,1.8H118.9z"/>
	</g>
	<polygon points="121.7,61.8 123.2,60.7 131.2,71.6 129.6,72.8 	"/>
	<g>
		<path d="M197.3,115.1h5.1c1,0,1.8,0.3,2.5,0.9s0.9,1.4,0.9,2.4c0,0.9-0.3,1.7-0.8,2.3c-0.6,0.7-1.4,1-2.6,1h-3.6v4.9h-1.6V115.1z
			 M203.3,116.6c-0.3-0.2-0.8-0.2-1.4-0.2h-3.1v4h3.1c0.7,0,1.3-0.1,1.7-0.4s0.6-0.8,0.6-1.6C204.3,117.5,203.9,116.9,203.3,116.6z"
			/>
		<path d="M207.6,115h1.4v4.3c0.3-0.4,0.6-0.7,0.9-0.9c0.5-0.3,1-0.4,1.7-0.4c1.2,0,2,0.4,2.5,1.3c0.2,0.5,0.4,1.1,0.4,1.9v5.4H213
			v-5.3c0-0.6-0.1-1.1-0.2-1.4c-0.3-0.5-0.7-0.7-1.4-0.7c-0.6,0-1.1,0.2-1.6,0.6s-0.7,1.2-0.7,2.3v4.4h-1.4V115z"/>
	</g>
	<polygon points="194.6,115.1 192.7,119.1 174.7,110.8 175.7,108.8 176,106.5 	"/>
	<g>
		<path d="M188.6,51.5c0.8,1,1.1,2.3,1.1,3.9c0,1.7-0.4,3.1-1.3,4.3c-1,1.3-2.5,2-4.4,2c-1.8,0-3.2-0.6-4.2-1.8
			c-0.9-1.1-1.4-2.5-1.4-4.3c0-1.6,0.4-2.9,1.2-4c1-1.4,2.5-2.1,4.4-2.1C186.1,49.6,187.6,50.2,188.6,51.5z M187.2,58.9
			c0.6-1,0.9-2.1,0.9-3.4c0-1.4-0.4-2.4-1.1-3.3s-1.7-1.2-2.9-1.2c-1.2,0-2.2,0.4-2.9,1.2s-1.1,2-1.1,3.6c0,1.3,0.3,2.3,1,3.2
			s1.7,1.3,3.1,1.3C185.6,60.3,186.6,59.8,187.2,58.9z"/>
	</g>
	<polygon points="176.4,60.5 177.9,61.7 164.2,80.6 162.6,79.5 	"/>
	<polygon points="180.3,63.4 181.8,64.5 168.1,83.5 166.5,82.3 	"/>
	<g>
		<path d="M76.7,119h1.4l-0.5,2.3H79l-0.2,1.1h-1.3l-1.2,5.5c-0.1,0.3,0,0.5,0.2,0.6c0.1,0.1,0.3,0.1,0.5,0.1c0.1,0,0.1,0,0.2,0
			s0.2,0,0.3,0l-0.2,1.1c-0.2,0-0.3,0.1-0.5,0.1s-0.4,0-0.6,0c-0.7,0-1.1-0.2-1.2-0.5s-0.2-0.8-0.1-1.3l1.2-5.5h-1.1l0.2-1.1h1.1
			L76.7,119z"/>
		<path d="M79.4,124.5h3.9l-0.3,1.4h-3.9L79.4,124.5z"/>
	</g>
	<g>
		<path d="M84.5,118.2h5c1.4,0,2.3,0.4,2.9,1.2c0.3,0.5,0.5,1,0.5,1.6c0,0.7-0.2,1.3-0.6,1.8c-0.2,0.2-0.5,0.5-0.9,0.7
			c0.6,0.2,1,0.5,1.3,0.8c0.5,0.5,0.8,1.2,0.8,2.1c0,0.7-0.2,1.4-0.7,2c-0.7,0.9-1.8,1.3-3.3,1.3h-4.9V118.2z M88.9,123.1
			c0.7,0,1.2-0.1,1.5-0.3c0.6-0.3,0.9-0.8,0.9-1.5c0-0.8-0.3-1.3-0.9-1.5c-0.3-0.1-0.9-0.2-1.5-0.2H86v3.6H88.9z M89.4,128.4
			c1,0,1.6-0.3,2.1-0.8c0.3-0.3,0.4-0.8,0.4-1.3c0-0.8-0.4-1.4-1.1-1.7c-0.4-0.2-0.9-0.2-1.6-0.2H86v4H89.4z"/>
		<path d="M96.4,121.3v5.6c0,0.4,0.1,0.8,0.2,1c0.2,0.5,0.7,0.7,1.4,0.7c1,0,1.6-0.4,1.9-1.3c0.2-0.5,0.3-1.1,0.3-1.9v-4.1h1.4v8.4
			h-1.3l0-1.2c-0.2,0.3-0.4,0.6-0.7,0.8c-0.5,0.4-1.2,0.7-1.9,0.7c-1.2,0-2-0.4-2.4-1.2c-0.2-0.4-0.3-1-0.3-1.7v-5.7H96.4z"/>
	</g>
	<polygon points="105.6,123.6 103.4,119.8 126.5,106.4 126.8,108.8 127.8,110.8 	"/>
	<rect x="72.7" y="161.5" class="st0" width="149.1" height="0.8"/>
	<g>
		<path d="M147.3,196.6c0.8,0.8,1.2,1.6,1.3,2.6h-1.5c-0.2-0.7-0.5-1.3-1-1.8s-1.2-0.6-2.1-0.6c-1.1,0-2,0.4-2.7,1.2s-1,2-1,3.7
			c0,1.3,0.3,2.4,0.9,3.3s1.5,1.3,2.8,1.3c1.1,0,2-0.4,2.6-1.3c0.3-0.5,0.5-1.1,0.7-1.8h1.5c-0.1,1.2-0.6,2.2-1.3,3
			c-0.9,1-2.1,1.5-3.6,1.5c-1.3,0-2.4-0.4-3.3-1.2c-1.2-1.1-1.8-2.7-1.8-4.9c0-1.7,0.4-3.1,1.3-4.2c1-1.2,2.3-1.8,4-1.8
			C145.4,195.5,146.5,195.9,147.3,196.6z"/>
		<path d="M152,198.9v5.6c0,0.4,0.1,0.8,0.2,1c0.2,0.5,0.7,0.8,1.4,0.8c1,0,1.6-0.4,1.9-1.3c0.2-0.5,0.3-1.1,0.3-1.9v-4.1h1.4v8.4
			h-1.3l0-1.2c-0.2,0.3-0.4,0.6-0.7,0.8c-0.5,0.4-1.2,0.7-1.9,0.7c-1.2,0-2-0.4-2.4-1.2c-0.2-0.4-0.3-1-0.3-1.7v-5.7H152z"/>
	</g>
	<polygon points="186.5,209.9 184.2,216 160.2,204.6 160.9,202.8 161.1,202.9 161.4,203.5 162.3,203.2 	"/>
	<polygon points="115.6,216 113.3,209.9 136.3,203.6 136.9,205.4 	"/>
	<g>
		<path d="M102.6,195.9h-1.9l4.1-5.9l-3.8-5.6h1.9l2.9,4.4l2.9-4.4h1.8l-3.8,5.6l4,5.9h-1.9l-3.1-4.7L102.6,195.9z"/>
	</g>
	<polygon points="113.1,195.8 115,189.5 116.8,190.2 115,196.1 	"/>
	<polygon points="120.2,197.1 121.6,192.2 123.4,192.9 122,197.5 	"/>
	<polygon points="127.2,198.5 128.3,194.9 130,195.7 129.1,198.9 	"/>
	<polygon points="134.2,199.9 134.9,197.7 136.7,198.4 136.1,200.2 	"/>
	<g>
		<path d="M186.1,193.8h-1.9l4.1-5.9l-3.8-5.6h1.9l2.9,4.4l2.9-4.4h1.8l-3.8,5.6l4,5.9h-1.9l-3.1-4.7L186.1,193.8z"/>
	</g>
	<polygon points="179.5,188.6 182,194.7 180.2,195.2 177.8,189.6 	"/>
	<polygon points="174.2,191.6 176.2,196.4 174.3,196.9 172.5,192.6 	"/>
	<polygon points="168.9,194.6 170.3,198.1 168.5,198.6 167.2,195.6 	"/>
	<polygon points="163.6,197.6 164.5,199.8 162.7,200.4 161.9,198.6 	"/>
	<circle class="st1" cx="109" cy="215.4" r="12.5"/>
	<circle class="st1" cx="191.8" cy="215.4" r="12.5"/>
</g>
</svg>
