<?xml version="1.0" encoding="utf-8"?>
<!-- Generator: Adobe Illustrator 19.2.0, SVG Export Plug-In . SVG Version: 6.00 Build 0)  -->
<svg version="1.1" id="Layer_1" xmlns="http://www.w3.org/2000/svg" xmlns:xlink="http://www.w3.org/1999/xlink" x="0px" y="0px"
	 viewBox="0 0 567 443" style="enable-background:new 0 0 567 443;" xml:space="preserve">
<style type="text/css">
	.st0{fill:#EC9533;}
</style>
<g>
	<path d="M126.8,229.1c0.5,0.7,0.8,1.5,0.8,2.6s-0.3,2.1-0.9,2.8c-0.7,0.9-1.6,1.3-2.9,1.3c-1.2,0-2.1-0.4-2.8-1.2
		c-0.6-0.7-0.9-1.7-0.9-2.8c0-1,0.3-1.9,0.8-2.6c0.7-0.9,1.6-1.4,2.9-1.4C125.2,227.8,126.2,228.2,126.8,229.1z M125.9,233.9
		c0.4-0.6,0.6-1.4,0.6-2.2c0-0.9-0.2-1.6-0.7-2.2s-1.1-0.8-1.9-0.8s-1.4,0.3-1.9,0.8s-0.7,1.3-0.7,2.4c0,0.8,0.2,1.5,0.6,2.1
		s1.1,0.9,2.1,0.9C124.9,234.9,125.5,234.6,125.9,233.9z"/>
</g>
<g>
	<polygon points="91.5,231.5 90.9,231.8 90.3,231.4 90.3,213.2 90.9,212.8 91.5,213.1 	"/>
</g>
<g>
	<polygon points="107.4,240.6 107.4,241.3 107.1,241.9 91.6,233 90.9,231.8 91.5,231.5 	"/>
</g>
<g>
	<polygon points="118.9,234 119.5,235 108.8,241.2 107.4,241.3 107.4,240.6 	"/>
</g>
<g>
	<polygon points="123.3,213.1 123.9,212.8 124.5,214 124.5,226.3 123.3,226.3 	"/>
</g>
<g>
	<polygon points="107.4,204 107.4,203.3 108.6,203.3 123.1,211.6 123.9,212.8 123.3,213.1 	"/>
</g>
<g>
	<polygon points="91.5,213.1 90.9,212.8 91.7,211.6 107.1,202.7 107.4,203.3 107.4,204 	"/>
</g>
<g>
	<polygon points="73,207.6 72.5,206.2 90.2,211.9 90.9,212.8 90.3,213.2 	"/>
</g>
<g>
	<polygon points="62.3,222.3 60.8,222.3 72.5,206.2 73,207.6 	"/>
</g>
<g>
	<polygon points="73,237 72.8,237.7 71.6,237 60.8,222.3 62.3,222.3 	"/>
</g>
<g>
	<polygon points="90.3,231.4 90.9,231.8 90.2,232.7 74.2,237.9 72.8,237.7 73,237 	"/>
</g>
<g>
	<polygon points="122.8,193.7 123.9,193.7 123.9,194.5 108.6,203.3 107.4,203.3 107.1,202.7 	"/>
</g>
<g>
	<polygon points="138.4,202.8 140.4,203.3 140.4,204.8 124.5,214 123.9,212.8 123.1,211.6 	"/>
</g>
<g>
	<polygon points="140.9,202.8 140.4,203.3 138.4,202.8 123.9,194.5 123.9,193.7 124.7,193.5 	"/>
</g>
<g>
	<path d="M110,179h1v3.1h3.9V179h1v7.6h-1v-3.5H111v3.5h-1V179z"/>
</g>
<g>
	<polygon points="115.9,188.7 118.8,185.8 123.8,192.6 123.9,193.7 122.8,193.7 	"/>
</g>
<g>
	<polygon points="132.7,177.3 133.4,177.3 133.8,177.9 124.7,193.5 123.9,193.7 123.8,192.6 	"/>
</g>
<g>
	<rect x="98.7" y="190" transform="matrix(0.8682 -0.4961 0.4961 0.8682 -81.3857 74.7468)" width="2.7" height="1.2"/>
</g>
<g>
	<polygon points="101.1,195.2 103.5,193.8 104.1,194.8 101.7,196.2 	"/>
</g>
<g>
	<polygon points="103.7,199.6 106.1,198.2 106.7,199.2 104.3,200.6 	"/>
</g>
<g>
	<path d="M81.8,184.1c0.5,0.7,0.8,1.5,0.8,2.6s-0.3,2.1-0.9,2.8c-0.7,0.9-1.6,1.3-2.9,1.3c-1.2,0-2.1-0.4-2.8-1.2
		c-0.6-0.7-0.9-1.7-0.9-2.8c0-1,0.3-1.9,0.8-2.6c0.7-0.9,1.6-1.4,2.9-1.4C80.1,182.8,81.1,183.2,81.8,184.1z M80.9,188.9
		c0.4-0.6,0.6-1.4,0.6-2.2c0-0.9-0.2-1.6-0.7-2.2s-1.1-0.8-1.9-0.8s-1.4,0.3-1.9,0.8s-0.7,1.3-0.7,2.4c0,0.8,0.2,1.5,0.6,2.1
		s1.1,0.9,2.1,0.9C79.8,189.9,80.5,189.5,80.9,188.9z"/>
</g>
<g>
	<rect x="84" y="186.2" width="13.9" height="1.2"/>
</g>
<g>
	<polygon points="75.2,203.6 72.5,202.8 72.9,201.7 75.5,202.5 	"/>
</g>
<g>
	<polygon points="76.7,198.6 74.1,197.8 74.4,196.6 77,197.4 	"/>
</g>
<g>
	<rect x="76.4" y="191.2" transform="matrix(0.2873 -0.9578 0.9578 0.2873 -129.5401 211.0413)" width="1.2" height="2.8"/>
</g>
<g>
	<path d="M110.3,167.6c0.5,0.7,0.8,1.5,0.8,2.6s-0.3,2.1-0.9,2.8c-0.7,0.9-1.6,1.3-2.9,1.3c-1.2,0-2.1-0.4-2.8-1.2
		c-0.6-0.7-0.9-1.7-0.9-2.8c0-1,0.3-1.9,0.8-2.6c0.7-0.9,1.6-1.4,2.9-1.4C108.7,166.3,109.7,166.7,110.3,167.6z M109.4,172.4
		c0.4-0.6,0.6-1.4,0.6-2.2c0-0.9-0.2-1.6-0.7-2.2s-1.1-0.8-1.9-0.8s-1.4,0.3-1.9,0.8s-0.7,1.3-0.7,2.4c0,0.8,0.2,1.5,0.6,2.1
		s1.1,0.9,2.1,0.9C108.4,173.4,109,173.1,109.4,172.4z"/>
</g>
<g>
	<polygon points="102.8,174 103.8,174.6 96.6,187.1 95.6,186.5 	"/>
</g>
<g>
	<polygon points="105.4,175.5 106.5,176.1 99.3,188.6 98.2,188 	"/>
</g>
<g>
	<path d="M88.2,193.4h1v3.1h3.9v-3.1h1v7.6h-1v-3.5h-3.9v3.5h-1V193.4z"/>
</g>
<g>
	<polygon points="89,202.5 93.1,202.5 91.7,211.6 90.9,212.8 90.2,211.9 	"/>
</g>
<g>
	<path d="M87.8,244.3h1v3.1h3.9v-3.1h1v7.6h-1v-3.5h-3.9v3.5h-1V244.3z"/>
</g>
<g>
	<polygon points="92.9,242.8 88.8,242.7 90.2,232.7 90.9,231.8 91.6,233 	"/>
</g>
<g>
	<path d="M54.7,252h1.5l2.2,6.4l2.2-6.4H62v7.6h-1v-4.5c0-0.2,0-0.4,0-0.8s0-0.7,0-1.2l-2.2,6.4h-1l-2.2-6.4v0.2c0,0.2,0,0.5,0,0.9
		s0,0.7,0,0.8v4.5h-1V252H54.7z"/>
	<path d="M66.8,254.2c0.4,0.2,0.6,0.4,0.8,0.7c0.2,0.3,0.3,0.6,0.4,1c0.1,0.3,0.1,0.7,0.1,1.2h-4c0,0.6,0.1,1,0.4,1.4
		c0.2,0.3,0.6,0.5,1.1,0.5s0.9-0.2,1.2-0.5c0.2-0.2,0.3-0.4,0.3-0.6H68c0,0.2-0.1,0.4-0.2,0.7c-0.1,0.2-0.3,0.5-0.5,0.6
		c-0.3,0.3-0.6,0.5-1,0.6c-0.2,0.1-0.5,0.1-0.8,0.1c-0.7,0-1.3-0.3-1.7-0.8c-0.5-0.5-0.7-1.2-0.7-2.1s0.2-1.6,0.7-2.2
		c0.5-0.6,1.1-0.8,1.9-0.8C66.1,253.9,66.5,254,66.8,254.2z M67.2,256.4c0-0.4-0.1-0.7-0.3-1c-0.3-0.4-0.7-0.7-1.3-0.7
		c-0.4,0-0.8,0.2-1.1,0.5c-0.3,0.3-0.4,0.7-0.5,1.2H67.2z"/>
</g>
<g>
	<polygon points="69.2,253.3 66.5,252.4 71.6,237 72.8,237.7 74.2,237.9 	"/>
</g>
<g>
	<path d="M94.8,254h1v3.1h3.9V254h1v7.6h-1v-3.5h-3.9v3.5h-1V254z"/>
</g>
<g>
	<polygon points="102.8,253.4 99.2,251.4 100,250.4 103.2,252.3 	"/>
</g>
<g>
	<polygon points="104.2,249.8 101.7,248.3 102.5,247.4 104.6,248.6 	"/>
</g>
<g>
	<polygon points="105.6,246.1 104.2,245.3 105,244.3 106,245 	"/>
</g>
<g>
	<polygon points="148.6,220.9 147.3,220.9 140.4,204.8 140.4,203.3 140.9,202.8 	"/>
</g>
<g>
	<path d="M169.9,218.1c0.5,0.7,0.8,1.5,0.8,2.6s-0.3,2.1-0.9,2.8c-0.7,0.9-1.6,1.3-2.9,1.3c-1.2,0-2.1-0.4-2.8-1.2
		c-0.6-0.7-0.9-1.7-0.9-2.8c0-1,0.3-1.9,0.8-2.6c0.7-0.9,1.6-1.4,2.9-1.4C168.3,216.8,169.3,217.2,169.9,218.1z M169,222.9
		c0.4-0.6,0.6-1.4,0.6-2.2c0-0.9-0.2-1.6-0.7-2.2s-1.1-0.8-1.9-0.8c-0.8,0-1.4,0.3-1.9,0.8s-0.7,1.3-0.7,2.4c0,0.8,0.2,1.5,0.6,2.1
		c0.4,0.6,1.1,0.9,2.1,0.9C168,223.9,168.6,223.6,169,222.9z"/>
</g>
<g>
	<polygon points="161.8,218.7 161.8,219.9 147.3,220 147.3,218.8 	"/>
</g>
<g>
	<polygon points="161.8,221.7 161.8,222.9 147.1,223 147.1,221.8 	"/>
</g>
<g>
	<path d="M167.2,245.2c0.5,0.7,0.8,1.5,0.8,2.6s-0.3,2.1-0.9,2.8c-0.7,0.9-1.6,1.3-2.9,1.3c-1.2,0-2.1-0.4-2.8-1.2
		c-0.6-0.7-0.9-1.7-0.9-2.8c0-1,0.3-1.9,0.8-2.6c0.7-0.9,1.6-1.4,2.9-1.4C165.6,243.9,166.6,244.3,167.2,245.2z M166.3,250
		c0.4-0.6,0.6-1.4,0.6-2.2c0-0.9-0.2-1.6-0.7-2.2s-1.1-0.8-1.9-0.8c-0.8,0-1.4,0.3-1.9,0.8s-0.7,1.3-0.7,2.4c0,0.8,0.2,1.5,0.6,2.1
		c0.4,0.6,1.1,0.9,2.1,0.9C165.2,251,165.9,250.6,166.3,250z"/>
</g>
<g>
	<polygon points="147.7,253.8 146.5,254.9 146.2,254.2 153.4,238.3 154.4,237.5 154.7,238.2 	"/>
</g>
<g>
	<polygon points="159.1,249.3 159.5,250.4 146.6,255.5 146.5,254.9 147.7,253.8 	"/>
</g>
<g>
	<polygon points="182.7,250.6 183.1,251.3 183.2,251.9 169.2,249.4 169.5,248.2 	"/>
</g>
<g>
	<polygon points="189.8,235 190.9,233.9 191.3,234.6 184.2,250.2 183.1,251.3 182.7,250.6 	"/>
</g>
<g>
	<polygon points="173.3,241.6 173.3,240.9 174.4,239.8 190.9,233.3 190.9,233.9 189.8,235 	"/>
</g>
<g>
	<polygon points="154.7,238.2 154.4,237.5 154.4,236.9 172.9,240.2 173.3,240.9 173.3,241.6 	"/>
</g>
<g>
	<path d="M140.2,237.5c0.5,0.7,0.8,1.5,0.8,2.6s-0.3,2.1-0.9,2.8c-0.7,0.9-1.6,1.3-2.9,1.3c-1.2,0-2.1-0.4-2.8-1.2
		c-0.6-0.7-0.9-1.7-0.9-2.8c0-1,0.3-1.9,0.8-2.6c0.7-0.9,1.6-1.4,2.9-1.4C138.5,236.2,139.5,236.6,140.2,237.5z M139.3,242.3
		c0.4-0.6,0.6-1.4,0.6-2.2c0-0.9-0.2-1.6-0.7-2.2s-1.1-0.8-1.9-0.8c-0.8,0-1.4,0.3-1.9,0.8s-0.7,1.3-0.7,2.4c0,0.8,0.2,1.5,0.6,2.1
		c0.4,0.6,1.1,0.9,2.1,0.9C138.2,243.3,138.9,243,139.3,242.3z"/>
</g>
<g>
	<path d="M130.6,248.8c0.5,0.7,0.8,1.5,0.8,2.6s-0.3,2.1-0.9,2.8c-0.7,0.9-1.6,1.3-2.9,1.3c-1.2,0-2.1-0.4-2.8-1.2
		c-0.6-0.7-0.9-1.7-0.9-2.8c0-1,0.3-1.9,0.8-2.6c0.7-0.9,1.6-1.4,2.9-1.4C129,247.5,130,247.9,130.6,248.8z M129.7,253.6
		c0.4-0.6,0.6-1.4,0.6-2.2c0-0.9-0.2-1.6-0.7-2.2s-1.1-0.8-1.9-0.8c-0.8,0-1.4,0.3-1.9,0.8s-0.7,1.3-0.7,2.4c0,0.8,0.2,1.5,0.6,2.1
		s1.1,0.9,2.1,0.9C128.7,254.6,129.3,254.3,129.7,253.6z"/>
</g>
<g>
	<polygon points="142.4,240 142.2,238.8 154.3,237 154.4,237.5 153.4,238.3 	"/>
</g>
<g>
	<polygon points="146.2,254.2 146.5,254.9 146.6,255.5 132.7,253 132.9,251.8 	"/>
</g>
<g>
	<path d="M222.6,245c0.5,0.7,0.8,1.5,0.8,2.6s-0.3,2.1-0.9,2.8c-0.7,0.9-1.6,1.3-2.9,1.3c-1.2,0-2.1-0.4-2.8-1.2
		c-0.6-0.7-0.9-1.7-0.9-2.8c0-1,0.3-1.9,0.8-2.6c0.7-0.9,1.6-1.4,2.9-1.4C221,243.7,221.9,244.1,222.6,245z M221.7,249.8
		c0.4-0.6,0.6-1.4,0.6-2.2c0-0.9-0.2-1.6-0.7-2.2s-1.1-0.8-1.9-0.8c-0.8,0-1.4,0.3-1.9,0.8s-0.7,1.3-0.7,2.4c0,0.8,0.2,1.5,0.6,2.1
		c0.4,0.6,1.1,0.9,2.1,0.9C220.6,250.8,221.3,250.5,221.7,249.8z"/>
	<path d="M224.6,243.9h1v3.1h3.9v-3.1h1v7.6h-1V248h-3.9v3.5h-1V243.9z"/>
</g>
<g>
	<path d="M212.7,234.6c0.5,0.7,0.8,1.5,0.8,2.6s-0.3,2.1-0.9,2.8c-0.7,0.9-1.6,1.3-2.9,1.3c-1.2,0-2.1-0.4-2.8-1.2
		c-0.6-0.7-0.9-1.7-0.9-2.8c0-1,0.3-1.9,0.8-2.6c0.7-0.9,1.6-1.4,2.9-1.4C211.1,233.3,212.1,233.8,212.7,234.6z M211.8,239.5
		c0.4-0.6,0.6-1.4,0.6-2.2c0-0.9-0.2-1.6-0.7-2.2s-1.1-0.8-1.9-0.8c-0.8,0-1.4,0.3-1.9,0.8s-0.7,1.3-0.7,2.4c0,0.8,0.2,1.5,0.6,2.1
		c0.4,0.6,1.1,0.9,2.1,0.9C210.8,240.4,211.4,240.1,211.8,239.5z"/>
	<path d="M214.7,233.5h1v3.1h3.9v-3.1h1v7.6h-1v-3.5h-3.9v3.5h-1V233.5z"/>
</g>
<g>
	<polygon points="200.7,243.6 200.9,244.9 183.2,251.9 183.1,251.3 184.2,250.2 	"/>
</g>
<g>
	<polygon points="214.6,246.1 214.4,247.4 200.9,244.9 200.7,243.6 	"/>
</g>
<g>
	<polygon points="191.3,234.6 190.9,233.9 190.9,233.3 204.7,235.8 204.5,237 	"/>
</g>
<g>
	<path d="M184.1,220.9c0.5,0.7,0.8,1.5,0.8,2.6s-0.3,2.1-0.9,2.8c-0.7,0.9-1.6,1.3-2.9,1.3c-1.2,0-2.1-0.4-2.8-1.2
		c-0.6-0.7-0.9-1.7-0.9-2.8c0-1,0.3-1.9,0.8-2.6c0.7-0.9,1.6-1.4,2.9-1.4C182.4,219.6,183.4,220,184.1,220.9z M183.1,225.7
		c0.4-0.6,0.6-1.4,0.6-2.2c0-0.9-0.2-1.6-0.7-2.2s-1.1-0.8-1.9-0.8c-0.8,0-1.4,0.3-1.9,0.8s-0.7,1.3-0.7,2.4c0,0.8,0.2,1.5,0.6,2.1
		c0.4,0.6,1.1,0.9,2.1,0.9C182.1,226.7,182.7,226.4,183.1,225.7z"/>
	<path d="M186.1,219.8h1v3.1h3.9v-3.1h1v7.6h-1v-3.5h-3.9v3.5h-1V219.8z"/>
</g>
<g>
	<polygon points="174.4,239.8 173.3,240.9 172.9,240.2 178.3,228.4 179.4,228.9 	"/>
</g>
<g>
	<polygon points="123.8,247.2 121.9,250.9 107.1,241.9 107.4,241.3 108.8,241.2 	"/>
</g>
<g>
	<polygon points="140.5,235.6 139.4,235 147.3,220.9 148.6,220.9 	"/>
</g>
<g>
	<path d="M155,189.3h1v3.1h3.9v-3.1h1v7.6h-1v-3.5H156v3.5h-1V189.3z"/>
</g>
<g>
	<polygon points="151.8,194.3 153.9,197.9 152.8,198.3 150.8,195 	"/>
</g>
<g>
	<polygon points="148.1,197.2 149.5,199.6 148.4,200.1 147.1,197.9 	"/>
</g>
<g>
	<polygon points="144.3,200.1 145.1,201.4 144,201.9 143.4,200.8 	"/>
</g>
<g>
	<polygon points="152.1,176.7 152.8,177.9 133.8,177.9 133.4,177.3 133.8,176.7 	"/>
</g>
<g>
	<rect x="135.2" y="173.6" width="15.5" height="1.2"/>
</g>
<g>
	<polygon points="161.3,160.7 162.7,160.7 152.8,177.9 152.1,176.7 	"/>
</g>
<g>
	<polygon points="152.1,144.9 152.4,144.3 153.1,144.3 162.7,160.7 161.3,160.7 	"/>
</g>
<g>
	<polygon points="150.2,147.6 151.2,147 159,160.4 157.9,161 	"/>
</g>
<g>
	<polygon points="133.8,144.9 133,143.7 152.1,143.7 152.4,144.3 152.1,144.9 	"/>
</g>
<g>
	<polygon points="124.6,160.7 123.2,160.7 133,143.7 133.8,144.9 	"/>
</g>
<g>
	<polygon points="127.9,161 126.9,160.4 134.6,147 135.7,147.6 	"/>
</g>
<g>
	<polygon points="133.8,176.7 133.4,177.3 132.7,177.3 123.2,160.7 124.6,160.7 	"/>
</g>
<g>
	<path d="M164.9,125.1c0.5,0.7,0.8,1.5,0.8,2.6c0,1.1-0.3,2.1-0.9,2.8c-0.7,0.9-1.6,1.3-2.9,1.3c-1.2,0-2.1-0.4-2.8-1.2
		c-0.6-0.7-0.9-1.7-0.9-2.8c0-1,0.3-1.9,0.8-2.6c0.7-0.9,1.6-1.4,2.9-1.4C163.3,123.8,164.3,124.2,164.9,125.1z M164,129.9
		c0.4-0.6,0.6-1.4,0.6-2.2c0-0.9-0.2-1.6-0.7-2.2s-1.1-0.8-1.9-0.8c-0.8,0-1.4,0.3-1.9,0.8s-0.7,1.3-0.7,2.4c0,0.8,0.2,1.5,0.6,2.1
		c0.4,0.6,1.1,0.9,2.1,0.9C163,130.9,163.6,130.6,164,129.9z"/>
	<path d="M166.9,124h1v3.1h3.9V124h1v7.6h-1V128H168v3.5h-1V124H166.9z"/>
</g>
<g>
	<polygon points="158.7,132.3 159.7,132.9 153.1,144.3 152.4,144.3 152.1,143.7 	"/>
</g>
<g>
	<path class="st0" d="M94.6,326.7h1.5l-2.2,10.6h-1.5L94.6,326.7z"/>
	<path class="st0" d="M97.6,329.5h1.5l-1.6,7.8H96L97.6,329.5z M97.9,327.4c0-0.5,0.5-1,1-1s0.8,0.4,0.8,0.8c0,0.5-0.5,1-1,1
		C98.2,328.2,97.9,327.8,97.9,327.4z"/>
	<path class="st0" d="M103.1,330.8c-1,4.8-1,4.7-1,4.8c0,0.4,0.2,0.6,0.5,0.6c0.4,0,0.8-0.2,0.9-0.3l0.4,1.1
		c-0.5,0.3-1.1,0.5-1.6,0.5c-1,0-1.7-0.7-1.7-1.7c0-0.4,0.1-0.7,1-5h-1.2l0.3-1.3h1.2l0.5-2.1h1.5l-0.5,2.1h1.8l-0.3,1.3H103.1z"/>
	<path class="st0" d="M108.9,330.8c-1,4.8-1,4.7-1,4.8c0,0.4,0.2,0.6,0.5,0.6c0.4,0,0.8-0.2,0.9-0.3l0.4,1.1
		c-0.5,0.3-1.1,0.5-1.6,0.5c-1,0-1.7-0.7-1.7-1.7c0-0.4,0.1-0.7,1-5h-1.2l0.3-1.3h1.2l0.5-2.1h1.5l-0.5,2.1h1.8l-0.3,1.3H108.9z"/>
	<path class="st0" d="M111.5,334.1c0-2.6,2.3-4.8,5-4.8c1.9,0,3.4,1.5,3.4,3.4c0,2.6-2.3,4.8-5,4.8C113,337.5,111.5,336,111.5,334.1
		z M118.4,332.8c0-1.2-1-2.1-2.1-2.1c-1.8,0-3.3,1.6-3.3,3.4c0,1.2,0.9,2.1,2.1,2.1C116.9,336.2,118.4,334.6,118.4,332.8z"/>
	<path class="st0" d="M126.9,329.3l-0.2,1.3c-1.6,0-3,1-3.4,2.3l-0.9,4.4h-1.5l1.6-7.8h1.5l-0.3,1.4
		C124.4,329.9,125.5,329.3,126.9,329.3z"/>
	<path class="st0" d="M136.1,329.5l-1.6,7.8H133l0.3-1.3c-0.8,0.9-1.8,1.5-3,1.5c-1.6,0-2.9-1.4-2.9-3.1c0-2.7,2.1-5.1,4.6-5.1
		c1.1,0,2,0.7,2.4,1.7l0.3-1.5H136.1z M133.8,332.6c0-1.1-0.9-2-2-2c-1.6,0-3.1,1.7-3.1,3.6c0,1.1,0.8,2,1.8,2
		C132.4,336.2,133.8,334.5,133.8,332.6z"/>
	<path class="st0" d="M138.9,326.7h1.5l-2.2,10.6h-1.5L138.9,326.7z"/>
	<path class="st0" d="M141.9,329.5h1.5l-1.6,7.8h-1.5L141.9,329.5z M142.2,327.4c0-0.5,0.5-1,1-1s0.8,0.4,0.8,0.8c0,0.5-0.5,1-1,1
		C142.5,328.2,142.2,327.8,142.2,327.4z"/>
	<path class="st0" d="M143.7,336.3l0.9-1c0.7,0.6,1.6,0.9,2.4,0.9c1,0,1.9-0.6,1.9-1.3c0-0.4-0.3-0.7-1.5-1
		c-1.6-0.5-2.4-0.9-2.4-1.9c0-1.6,1.4-2.7,3.3-2.7c1,0,2,0.4,2.8,0.9l-0.8,1.1c-0.6-0.5-1.3-0.7-2-0.7c-1,0-1.8,0.5-1.8,1.2
		c0,0.3,0.4,0.6,1.5,1c1.5,0.5,2.3,0.9,2.3,2c0,1.5-1.5,2.8-3.4,2.8C145.6,337.5,144.5,337,143.7,336.3z"/>
	<path class="st0" d="M151.8,334.1c0-2.6,2.3-4.8,5-4.8c1.9,0,3.4,1.5,3.4,3.4c0,2.6-2.3,4.8-5,4.8
		C153.3,337.5,151.8,336,151.8,334.1z M158.7,332.8c0-1.2-1-2.1-2.1-2.1c-1.8,0-3.3,1.6-3.3,3.4c0,1.2,0.9,2.1,2.1,2.1
		C157.2,336.2,158.7,334.6,158.7,332.8z"/>
	<path class="st0" d="M169,331.7c0,0.6-0.1,1-1.1,5.6h-1.5c1-4.6,1-4.9,1-5.3c0-0.9-0.5-1.4-1.3-1.4c-1.2,0-2.3,0.8-2.6,1.8l-1,4.9
		H161l1.6-7.8h1.5l-0.2,1c0.6-0.7,1.6-1.2,2.6-1.2C168.1,329.3,169,330.3,169,331.7z"/>
	<path class="st0" d="M171.9,333.9v0.2c0,1.3,0.7,2,2,2c0.9,0,1.9-0.4,2.5-0.9l0.8,1.1c-0.8,0.7-2.3,1.2-3.4,1.2
		c-1.9,0-3.3-1.3-3.3-3.3c0-2.6,2.3-4.9,4.8-4.9c1.5,0,2.8,0.8,2.8,2.1c0,1.5-1.4,2.5-3.7,2.5L171.9,333.9L171.9,333.9z
		 M172.2,332.7h2.4c1.3,0,2-0.4,2-1.1c0-0.6-0.6-1-1.5-1C173.7,330.6,172.6,331.5,172.2,332.7z"/>
</g>
<g>
	<g>
		<path d="M361.2,216.3c0.5,0.6,0.7,1.4,0.7,2.4c0,1.1-0.3,1.9-0.8,2.6c-0.6,0.8-1.5,1.2-2.7,1.2c-1.1,0-1.9-0.4-2.6-1.1
			c-0.6-0.7-0.8-1.6-0.8-2.6c0-1,0.2-1.8,0.7-2.5c0.6-0.9,1.5-1.3,2.7-1.3C359.7,215.1,360.6,215.5,361.2,216.3z M360.3,220.9
			c0.4-0.6,0.6-1.3,0.6-2.1c0-0.8-0.2-1.5-0.7-2s-1-0.8-1.8-0.8c-0.7,0-1.3,0.3-1.8,0.8c-0.5,0.5-0.7,1.2-0.7,2.2
			c0,0.8,0.2,1.4,0.6,2c0.4,0.5,1,0.8,1.9,0.8C359.3,221.8,360,221.5,360.3,220.9z"/>
	</g>
	<g>
		<polygon points="326.7,237.2 326.1,237.5 325.5,236.3 325.5,220.1 326.1,218.9 326.7,219.2 		"/>
	</g>
	<g>
		<polygon points="342.9,246.5 341.7,247.2 326.9,238.7 326.1,237.5 326.7,237.2 		"/>
	</g>
	<g>
		<polygon points="342.3,210.2 342.3,209.5 342.9,209.2 354.3,215.8 353.7,216.8 		"/>
	</g>
	<g>
		<polygon points="326.7,219.2 326.1,218.9 326.9,217.8 341.7,209.2 342.3,209.5 342.3,210.2 		"/>
	</g>
	<g>
		<path d="M377.4,244.3c0.5,0.6,0.7,1.4,0.7,2.4c0,1.1-0.3,1.9-0.8,2.6c-0.6,0.8-1.5,1.2-2.7,1.2c-1.1,0-1.9-0.4-2.6-1.1
			c-0.6-0.7-0.8-1.6-0.8-2.6c0-1,0.2-1.8,0.7-2.5c0.6-0.9,1.5-1.3,2.7-1.3C375.8,243.1,376.8,243.5,377.4,244.3z M376.5,248.9
			c0.4-0.6,0.6-1.3,0.6-2.1c0-0.8-0.2-1.5-0.7-2s-1-0.8-1.8-0.8c-0.7,0-1.3,0.3-1.8,0.8c-0.5,0.5-0.7,1.2-0.7,2.2
			c0,0.8,0.2,1.4,0.6,2c0.4,0.5,1,0.8,1.9,0.8C375.5,249.8,376.1,249.5,376.5,248.9z"/>
	</g>
	<g>
		<polygon points="390.2,237.2 391.4,237.9 379.4,244.8 378.8,243.8 		"/>
	</g>
	<g>
		<polygon points="390.2,219.2 391.4,218.5 391.4,237.9 390.2,237.2 		"/>
	</g>
	<g>
		<polygon points="374.6,210.2 374.6,209.5 375.2,209.2 391.4,218.5 390.2,219.2 		"/>
	</g>
	<g>
		<polygon points="363.2,216.8 362.6,215.8 374,209.2 374.6,209.5 374.6,210.2 		"/>
	</g>
	<g>
		<polygon points="374,191.2 375.2,190.5 375.2,209.2 374.6,209.5 374,209.2 		"/>
	</g>
	<g>
		<polygon points="358.4,182.2 358.4,181.5 359.8,181.6 375.2,190.5 374,191.2 		"/>
	</g>
	<g>
		<polygon points="342.9,191.2 341.7,190.5 357.1,181.6 358.4,181.5 358.4,182.2 		"/>
	</g>
	<g>
		<polygon points="342.9,209.2 342.3,209.5 341.7,209.2 341.7,190.5 342.9,191.2 		"/>
	</g>
	<g>
		<polygon points="342.9,265.2 342.3,265.5 341.7,265.2 341.7,247.2 342.9,246.5 		"/>
	</g>
	<g>
		<rect x="338.7" y="248.6" width="1.2" height="15.2"/>
	</g>
	<g>
		<polygon points="358.4,274.2 358.4,275.6 342.3,266.2 342.3,265.5 342.9,265.2 		"/>
	</g>
	<g>
		<polygon points="373.3,265.6 374.6,265.5 374.6,266.2 358.4,275.6 358.4,274.2 		"/>
	</g>
	<g>
		<polygon points="373.3,252.1 376,252.1 376,265.6 374.6,265.5 373.3,265.6 		"/>
	</g>
	<g>
		<path d="M409.7,244.3c0.5,0.6,0.7,1.4,0.7,2.4c0,1.1-0.3,1.9-0.8,2.6c-0.6,0.8-1.5,1.2-2.7,1.2c-1.1,0-1.9-0.4-2.6-1.1
			c-0.6-0.7-0.8-1.6-0.8-2.6c0-1,0.2-1.8,0.7-2.5c0.6-0.9,1.5-1.3,2.7-1.3C408.2,243.1,409.1,243.5,409.7,244.3z M408.9,248.9
			c0.4-0.6,0.6-1.3,0.6-2.1c0-0.8-0.2-1.5-0.7-2s-1-0.8-1.8-0.8c-0.7,0-1.3,0.3-1.8,0.8c-0.5,0.5-0.7,1.2-0.7,2.2
			c0,0.8,0.2,1.4,0.6,2c0.4,0.5,1,0.8,1.9,0.8C407.9,249.8,408.5,249.5,408.9,248.9z"/>
	</g>
	<g>
		<rect x="396.4" y="232.2" transform="matrix(0.499 -0.8666 0.8666 0.499 -8.5724 464.0331)" width="1.2" height="14.4"/>
	</g>
	<g>
		<polygon points="402.1,245.1 401.5,246.1 389,238.9 389.6,237.9 		"/>
	</g>
	<g>
		<polygon points="390.8,274.2 390.8,275.6 374.6,266.2 374.6,265.5 376,265.6 		"/>
	</g>
	<g>
		<path d="M314.7,271.3h1.4l2,6l2-6h1.4v7.1h-0.9v-4.2c0-0.1,0-0.4,0-0.7c0-0.3,0-0.7,0-1.1l-2,6h-1l-2-6v0.2c0,0.2,0,0.4,0,0.8
			c0,0.4,0,0.6,0,0.8v4.2h-0.9V271.3z"/>
		<path d="M326.1,273.4c0.3,0.2,0.6,0.4,0.8,0.7c0.2,0.3,0.3,0.6,0.3,0.9c0.1,0.2,0.1,0.6,0.1,1.1h-3.8c0,0.5,0.1,0.9,0.4,1.3
			c0.2,0.3,0.6,0.5,1.1,0.5c0.5,0,0.8-0.2,1.1-0.5c0.1-0.2,0.3-0.4,0.3-0.6h0.9c0,0.2-0.1,0.4-0.2,0.6s-0.3,0.4-0.4,0.6
			c-0.3,0.3-0.6,0.4-1,0.5c-0.2,0.1-0.4,0.1-0.7,0.1c-0.6,0-1.2-0.2-1.6-0.7s-0.7-1.1-0.7-2c0-0.8,0.2-1.5,0.7-2s1-0.8,1.8-0.8
			C325.4,273.1,325.7,273.2,326.1,273.4z M326.4,275.4c0-0.4-0.1-0.7-0.2-0.9c-0.2-0.4-0.6-0.6-1.2-0.6c-0.4,0-0.7,0.1-1,0.4
			c-0.3,0.3-0.4,0.7-0.4,1.1H326.4z"/>
	</g>
	<g>
		<polygon points="328.6,274.1 328,273.1 341.7,265.2 342.3,265.5 342.3,266.2 		"/>
	</g>
	<g>
		<path d="M314.7,178h1.4l2,6l2-6h1.4v7.1h-0.9v-4.2c0-0.1,0-0.4,0-0.7c0-0.3,0-0.7,0-1.1l-2,6h-1l-2-6v0.2c0,0.2,0,0.4,0,0.8
			c0,0.4,0,0.6,0,0.8v4.2h-0.9V178z"/>
		<path d="M326.1,180c0.3,0.2,0.6,0.4,0.8,0.7c0.2,0.3,0.3,0.6,0.3,0.9c0.1,0.2,0.1,0.6,0.1,1.1h-3.8c0,0.5,0.1,0.9,0.4,1.3
			c0.2,0.3,0.6,0.5,1.1,0.5c0.5,0,0.8-0.1,1.1-0.5c0.1-0.2,0.3-0.4,0.3-0.6h0.9c0,0.2-0.1,0.4-0.2,0.6c-0.1,0.2-0.3,0.4-0.4,0.6
			c-0.3,0.3-0.6,0.4-1,0.5c-0.2,0.1-0.4,0.1-0.7,0.1c-0.6,0-1.2-0.2-1.6-0.7s-0.7-1.1-0.7-2c0-0.8,0.2-1.5,0.7-2
			c0.4-0.5,1-0.8,1.8-0.8C325.4,179.8,325.7,179.9,326.1,180z M326.4,182.1c0-0.4-0.1-0.7-0.2-0.9c-0.2-0.4-0.6-0.6-1.2-0.6
			c-0.4,0-0.7,0.1-1,0.4c-0.3,0.3-0.4,0.7-0.4,1.1H326.4z"/>
	</g>
	<g>
		<polygon points="328.5,184.5 329.9,182.1 330.9,182.7 329.5,185.1 		"/>
	</g>
	<g>
		<polygon points="332.9,187 334.3,184.7 335.3,185.3 334,187.6 		"/>
	</g>
	<g>
		<polygon points="337.4,189.6 338.7,187.3 339.8,187.8 338.4,190.2 		"/>
	</g>
	<g>
		<path d="M298.6,206h1.4l2,6l2-6h1.4v7.1h-0.9v-4.2c0-0.1,0-0.4,0-0.7c0-0.3,0-0.7,0-1.1l-2,6h-1l-2-6v0.2c0,0.2,0,0.4,0,0.8
			c0,0.4,0,0.6,0,0.8v4.2h-0.9V206z"/>
		<path d="M309.9,208.1c0.3,0.2,0.6,0.4,0.8,0.7c0.2,0.3,0.3,0.6,0.3,0.9c0.1,0.2,0.1,0.6,0.1,1.1h-3.8c0,0.5,0.1,0.9,0.4,1.3
			c0.2,0.3,0.6,0.5,1.1,0.5c0.5,0,0.8-0.1,1.1-0.5c0.1-0.2,0.3-0.4,0.3-0.6h0.9c0,0.2-0.1,0.4-0.2,0.6c-0.1,0.2-0.3,0.4-0.4,0.6
			c-0.3,0.3-0.6,0.4-1,0.5c-0.2,0.1-0.4,0.1-0.7,0.1c-0.6,0-1.2-0.2-1.6-0.7s-0.7-1.1-0.7-2c0-0.8,0.2-1.5,0.7-2
			c0.4-0.5,1-0.8,1.8-0.8C309.2,207.8,309.5,207.9,309.9,208.1z M310.2,210.1c0-0.4-0.1-0.7-0.2-0.9c-0.2-0.4-0.6-0.6-1.2-0.6
			c-0.4,0-0.7,0.1-1,0.4c-0.3,0.3-0.4,0.7-0.4,1.1H310.2z"/>
	</g>
	<g>
		<polygon points="312.3,212.5 313.7,210.1 326.9,217.8 326.1,218.9 325.5,220.1 		"/>
	</g>
	<g>
		<path d="M292,243.3h1.4l2,6l2-6h1.4v7.1h-0.9v-4.2c0-0.1,0-0.4,0-0.7c0-0.3,0-0.7,0-1.1l-2,6h-1l-2-6v0.2c0,0.2,0,0.4,0,0.8
			s0,0.6,0,0.8v4.2H292V243.3z"/>
		<path d="M303.3,245.4c0.3,0.2,0.6,0.4,0.8,0.7c0.2,0.3,0.3,0.6,0.3,0.9c0.1,0.2,0.1,0.6,0.1,1.1h-3.8c0,0.5,0.1,0.9,0.4,1.3
			c0.2,0.3,0.6,0.5,1.1,0.5c0.5,0,0.8-0.2,1.1-0.5c0.1-0.2,0.3-0.4,0.3-0.6h0.9c0,0.2-0.1,0.4-0.2,0.6s-0.3,0.4-0.4,0.6
			c-0.3,0.3-0.6,0.4-1,0.5c-0.2,0.1-0.4,0.1-0.7,0.1c-0.6,0-1.2-0.2-1.6-0.7s-0.7-1.1-0.7-2c0-0.8,0.2-1.5,0.7-2s1-0.8,1.8-0.8
			C302.6,245.1,303,245.2,303.3,245.4z M303.6,247.4c0-0.4-0.1-0.7-0.2-0.9c-0.2-0.4-0.6-0.6-1.2-0.6c-0.4,0-0.7,0.1-1,0.4
			c-0.3,0.3-0.4,0.7-0.4,1.1H303.6z"/>
		<path d="M311.6,244.3c0.5,0.6,0.7,1.4,0.7,2.4c0,1.1-0.3,1.9-0.8,2.6c-0.6,0.8-1.5,1.2-2.7,1.2c-1.1,0-1.9-0.4-2.6-1.1
			c-0.6-0.7-0.8-1.6-0.8-2.6c0-1,0.2-1.8,0.7-2.5c0.6-0.9,1.5-1.3,2.7-1.3C310,243.1,311,243.5,311.6,244.3z M310.7,248.9
			c0.4-0.6,0.6-1.3,0.6-2.1c0-0.8-0.2-1.5-0.7-2s-1-0.8-1.8-0.8c-0.7,0-1.3,0.3-1.8,0.8c-0.5,0.5-0.7,1.2-0.7,2.2
			c0,0.8,0.2,1.4,0.6,2c0.4,0.5,1,0.8,1.9,0.8C309.7,249.8,310.3,249.5,310.7,248.9z"/>
	</g>
	<g>
		<polygon points="314.2,246 312.9,243.6 325.5,236.3 326.1,237.5 326.9,238.7 		"/>
	</g>
	<g>
		<path d="M339.5,224.7h1v2.9h3.6v-2.9h1v7.1h-1v-3.3h-3.6v3.3h-1V224.7z"/>
	</g>
	<g>
		<polygon points="344.3,223.2 340.3,223.2 340.4,222 344.1,222 		"/>
	</g>
	<g>
		<polygon points="343.7,218.8 340.9,218.8 341.1,217.6 343.5,217.6 		"/>
	</g>
	<g>
		<polygon points="343,214.4 341.5,214.4 341.7,213.2 342.9,213.2 		"/>
	</g>
	<g>
		<path d="M377.4,225.7c0.5,0.6,0.7,1.4,0.7,2.4c0,1.1-0.3,1.9-0.8,2.6c-0.6,0.8-1.5,1.2-2.7,1.2c-1.1,0-1.9-0.4-2.6-1.1
			c-0.6-0.7-0.8-1.6-0.8-2.6c0-1,0.2-1.8,0.7-2.5c0.6-0.9,1.5-1.3,2.7-1.3C375.8,224.5,376.8,224.9,377.4,225.7z M376.5,230.2
			c0.4-0.6,0.6-1.3,0.6-2.1c0-0.8-0.2-1.5-0.7-2c-0.4-0.5-1-0.8-1.8-0.8c-0.7,0-1.3,0.3-1.8,0.8s-0.7,1.2-0.7,2.2
			c0,0.8,0.2,1.4,0.6,2c0.4,0.5,1,0.8,1.9,0.8C375.5,231.1,376.1,230.8,376.5,230.2z"/>
		<path d="M379.2,224.7h1v2.9h3.6v-2.9h1v7.1h-1v-3.3h-3.6v3.3h-1V224.7z"/>
	</g>
	<g>
		<polygon points="376.6,223 372.6,223 372.8,221.8 376.5,221.8 		"/>
	</g>
	<g>
		<polygon points="376,218.7 373.2,218.7 373.4,217.5 375.8,217.5 		"/>
	</g>
	<g>
		<polygon points="375.4,214.4 373.8,214.4 374,213.2 375.2,213.2 		"/>
	</g>
	<g>
		<polygon points="407,264.9 407,266.2 390.8,275.6 390.8,274.2 		"/>
	</g>
	<g>
		<polygon points="405.2,262.5 405.8,263.5 391.1,272 390.5,270.9 		"/>
	</g>
	<g>
		<path d="M361.2,160.3c0.5,0.6,0.7,1.4,0.7,2.4c0,1.1-0.3,1.9-0.8,2.6c-0.6,0.8-1.5,1.2-2.7,1.2c-1.1,0-1.9-0.4-2.6-1.1
			c-0.6-0.7-0.8-1.6-0.8-2.6c0-1,0.2-1.8,0.7-2.5c0.6-0.9,1.5-1.3,2.7-1.3C359.7,159.1,360.6,159.5,361.2,160.3z M360.3,164.9
			c0.4-0.6,0.6-1.3,0.6-2.1c0-0.8-0.2-1.5-0.7-2s-1-0.8-1.8-0.8c-0.7,0-1.3,0.3-1.8,0.8c-0.5,0.5-0.7,1.2-0.7,2.2
			c0,0.8,0.2,1.4,0.6,2c0.4,0.5,1,0.8,1.9,0.8C359.3,165.8,360,165.5,360.3,164.9z"/>
	</g>
	<g>
		<polygon points="357.1,168.1 359.8,168.1 359.8,181.6 358.4,181.5 357.1,181.6 		"/>
	</g>
	<g>
		<polygon points="374,153.2 374.6,153.5 373.9,154.6 363.2,160.8 362.6,159.8 		"/>
	</g>
	<g>
		<path d="M393.5,160.3c0.5,0.6,0.7,1.4,0.7,2.4c0,1.1-0.3,1.9-0.8,2.6c-0.6,0.8-1.5,1.2-2.7,1.2c-1.1,0-1.9-0.4-2.6-1.1
			c-0.6-0.7-0.8-1.6-0.8-2.6c0-1,0.2-1.8,0.7-2.5c0.6-0.9,1.5-1.3,2.7-1.3C392,159.1,392.9,159.5,393.5,160.3z M392.7,164.9
			c0.4-0.6,0.6-1.3,0.6-2.1c0-0.8-0.2-1.5-0.7-2s-1-0.8-1.8-0.8c-0.7,0-1.3,0.3-1.8,0.8c-0.5,0.5-0.7,1.2-0.7,2.2
			c0,0.8,0.2,1.4,0.6,2c0.4,0.5,1,0.8,1.9,0.8C391.7,165.8,392.3,165.5,392.7,164.9z"/>
	</g>
	<g>
		<polygon points="386.7,159.8 386.1,160.8 375.3,154.6 374.6,153.5 375.2,153.2 		"/>
	</g>
	<g>
		<polygon points="406.4,153.2 407.6,153.9 395.5,160.8 395,159.8 		"/>
	</g>
	<g>
		<polygon points="406.4,135.2 407,134.9 407.6,136.1 407.6,153.9 406.4,153.2 		"/>
	</g>
	<g>
		<polygon points="390.8,126.2 390.8,125.5 391.3,125.1 406.2,133.7 407,134.9 406.4,135.2 		"/>
	</g>
	<g>
		<polygon points="375.2,135.2 374,134.5 389.9,125.3 390.8,125.5 390.8,126.2 		"/>
	</g>
	<g>
		<polygon points="375.2,153.2 374.6,153.5 374,153.2 374,134.5 375.2,135.2 		"/>
	</g>
	<g>
		<path d="M371.8,168.7h1v2.9h3.6v-2.9h1v7.1h-1v-3.3h-3.6v3.3h-1V168.7z"/>
	</g>
	<g>
		<polygon points="376.6,167.2 372.6,167.2 373.9,154.6 374.6,153.5 375.3,154.6 		"/>
	</g>
	<g>
		<path d="M419.7,159.3h1.4l2,6l2-6h1.4v7.1h-0.9v-4.2c0-0.1,0-0.4,0-0.7c0-0.3,0-0.7,0-1.1l-2,6h-1l-2-6v0.2c0,0.2,0,0.4,0,0.8
			c0,0.4,0,0.6,0,0.8v4.2h-0.9V159.3z"/>
		<path d="M431,161.4c0.3,0.2,0.6,0.4,0.8,0.7c0.2,0.3,0.3,0.6,0.3,0.9c0.1,0.2,0.1,0.6,0.1,1.1h-3.8c0,0.5,0.1,0.9,0.4,1.3
			c0.2,0.3,0.6,0.5,1.1,0.5c0.5,0,0.8-0.1,1.1-0.5c0.1-0.2,0.3-0.4,0.3-0.6h0.9c0,0.2-0.1,0.4-0.2,0.6c-0.1,0.2-0.3,0.4-0.4,0.6
			c-0.3,0.3-0.6,0.4-1,0.5c-0.2,0.1-0.4,0.1-0.7,0.1c-0.6,0-1.2-0.2-1.6-0.7s-0.7-1.1-0.7-2c0-0.8,0.2-1.5,0.7-2
			c0.4-0.5,1-0.8,1.8-0.8C430.3,161.1,430.7,161.2,431,161.4z M431.4,163.4c0-0.4-0.1-0.7-0.2-0.9c-0.2-0.4-0.6-0.6-1.2-0.6
			c-0.4,0-0.7,0.1-1,0.4c-0.3,0.3-0.4,0.7-0.4,1.1H431.4z"/>
	</g>
	<g>
		<polygon points="418.4,158.6 417.1,160.9 416,160.3 417.4,158 		"/>
	</g>
	<g>
		<polygon points="417,157.8 415.7,160.1 414.7,159.5 416,157.2 		"/>
	</g>
	<g>
		<polygon points="415.6,157 414.2,159.3 413.2,158.7 414.6,156.4 		"/>
	</g>
	<g>
		<polygon points="414.2,156.2 412.9,158.5 411.8,157.9 413.2,155.6 		"/>
	</g>
	<g>
		<polygon points="412.8,155.3 411.5,157.7 410.4,157.1 411.8,154.8 		"/>
	</g>
	<g>
		<polygon points="411.4,154.5 410.1,156.9 409,156.3 410.4,154 		"/>
	</g>
	<g>
		<polygon points="410,153.7 408.7,156.1 407.6,155.5 409,153.1 		"/>
	</g>
	<g>
		<path d="M425.9,123c0.5,0.6,0.7,1.4,0.7,2.4c0,1.1-0.3,1.9-0.8,2.6c-0.6,0.8-1.5,1.2-2.7,1.2c-1.1,0-1.9-0.4-2.6-1.1
			c-0.6-0.7-0.8-1.6-0.8-2.6c0-1,0.2-1.8,0.7-2.5c0.6-0.9,1.5-1.3,2.7-1.3C424.4,121.8,425.3,122.2,425.9,123z M425,127.5
			c0.4-0.6,0.6-1.3,0.6-2.1c0-0.8-0.2-1.5-0.7-2s-1-0.8-1.8-0.8c-0.7,0-1.3,0.3-1.8,0.8c-0.5,0.5-0.7,1.2-0.7,2.2
			c0,0.8,0.2,1.4,0.6,2c0.4,0.5,1,0.8,1.9,0.8C424,128.4,424.7,128.1,425,127.5z"/>
		<path d="M427.8,122h1v2.9h3.6V122h1v7.1h-1v-3.3h-3.6v3.3h-1V122z"/>
	</g>
	<g>
		<polygon points="418,126.9 419.4,129.3 407.6,136.1 407,134.9 406.2,133.7 		"/>
	</g>
	<g>
		<path d="M370.1,105.8h1.4l2,6l2-6h1.4v7.1H376v-4.2c0-0.1,0-0.4,0-0.7c0-0.3,0-0.7,0-1.1l-2,6h-1l-2-6v0.2c0,0.2,0,0.4,0,0.8
			c0,0.4,0,0.6,0,0.8v4.2h-0.9V105.8z"/>
		<path d="M381.4,107.9c0.3,0.2,0.6,0.4,0.8,0.7c0.2,0.3,0.3,0.6,0.3,0.9c0.1,0.2,0.1,0.6,0.1,1.1h-3.8c0,0.5,0.1,0.9,0.4,1.3
			c0.2,0.3,0.6,0.5,1.1,0.5c0.5,0,0.8-0.1,1.1-0.5c0.1-0.2,0.3-0.4,0.3-0.6h0.9c0,0.2-0.1,0.4-0.2,0.6c-0.1,0.2-0.3,0.4-0.4,0.6
			c-0.3,0.3-0.6,0.4-1,0.5c-0.2,0.1-0.4,0.1-0.7,0.1c-0.6,0-1.2-0.2-1.6-0.7s-0.7-1.1-0.7-2c0-0.8,0.2-1.5,0.7-2
			c0.4-0.5,1-0.8,1.8-0.8C380.7,107.6,381.1,107.7,381.4,107.9z M381.7,109.9c0-0.4-0.1-0.7-0.2-0.9c-0.2-0.4-0.6-0.6-1.2-0.6
			c-0.4,0-0.7,0.1-1,0.4c-0.3,0.3-0.4,0.7-0.4,1.1H381.7z"/>
	</g>
	<g>
		<polygon points="381.9,114.3 385.4,112.2 391.3,125.1 390.8,125.5 389.9,125.3 		"/>
	</g>
	<g>
		<path d="M402.9,106.8c0.5,0.6,0.7,1.4,0.7,2.4c0,1.1-0.3,1.9-0.8,2.6c-0.6,0.8-1.5,1.2-2.7,1.2c-1.1,0-1.9-0.4-2.6-1.1
			c-0.6-0.7-0.8-1.6-0.8-2.6c0-1,0.2-1.8,0.7-2.5c0.6-0.9,1.5-1.3,2.7-1.3C401.3,105.6,402.3,106,402.9,106.8z M402,111.3
			c0.4-0.6,0.6-1.3,0.6-2.1c0-0.8-0.2-1.5-0.7-2s-1-0.8-1.8-0.8c-0.7,0-1.3,0.3-1.8,0.8c-0.5,0.5-0.7,1.2-0.7,2.2
			c0,0.8,0.2,1.4,0.6,2c0.4,0.5,1,0.8,1.9,0.8C401,112.2,401.6,111.9,402,111.3z"/>
		<path d="M404.7,105.8h1v2.9h3.6v-2.9h1v7.1h-1v-3.3h-3.6v3.3h-1V105.8z"/>
	</g>
	<g>
		<polygon points="395.7,112.9 399.2,114.9 398.5,115.9 395.3,114 		"/>
	</g>
	<g>
		<polygon points="394.2,116.9 396.6,118.3 395.8,119.2 393.7,118 		"/>
	</g>
	<g>
		<polygon points="392.5,120.9 393.9,121.7 393.1,122.6 392.1,122 		"/>
	</g>
	<g>
		<path d="M340.5,122h1.4l2,6l2-6h1.4v7.1h-0.9v-4.2c0-0.1,0-0.4,0-0.7c0-0.3,0-0.7,0-1.1l-2,6h-1l-2-6v0.2c0,0.2,0,0.4,0,0.8
			c0,0.4,0,0.6,0,0.8v4.2h-0.9V122z"/>
		<path d="M351.8,124c0.3,0.2,0.6,0.4,0.8,0.7c0.2,0.3,0.3,0.6,0.3,0.9c0.1,0.2,0.1,0.6,0.1,1.1h-3.8c0,0.5,0.1,0.9,0.4,1.3
			c0.2,0.3,0.6,0.5,1.1,0.5c0.5,0,0.8-0.1,1.1-0.5c0.1-0.2,0.3-0.4,0.3-0.6h0.9c0,0.2-0.1,0.4-0.2,0.6c-0.1,0.2-0.3,0.4-0.4,0.6
			c-0.3,0.3-0.6,0.4-1,0.5c-0.2,0.1-0.4,0.1-0.7,0.1c-0.6,0-1.2-0.2-1.6-0.7s-0.7-1.1-0.7-2c0-0.8,0.2-1.5,0.7-2
			c0.4-0.5,1-0.8,1.8-0.8C351.1,123.8,351.5,123.9,351.8,124z M352.1,126.1c0-0.4-0.1-0.7-0.2-0.9c-0.2-0.4-0.6-0.6-1.2-0.6
			c-0.4,0-0.7,0.1-1,0.4c-0.3,0.3-0.4,0.7-0.4,1.1H352.1z"/>
		<path d="M360.1,123c0.5,0.6,0.7,1.4,0.7,2.4c0,1.1-0.3,1.9-0.8,2.6c-0.6,0.8-1.5,1.2-2.7,1.2c-1.1,0-1.9-0.4-2.6-1.1
			c-0.6-0.7-0.8-1.6-0.8-2.6c0-1,0.2-1.8,0.7-2.5c0.6-0.9,1.5-1.3,2.7-1.3C358.5,121.8,359.5,122.2,360.1,123z M359.2,127.5
			c0.4-0.6,0.6-1.3,0.6-2.1c0-0.8-0.2-1.5-0.7-2s-1-0.8-1.8-0.8c-0.7,0-1.3,0.3-1.8,0.8c-0.5,0.5-0.7,1.2-0.7,2.2
			c0,0.8,0.2,1.4,0.6,2c0.4,0.5,1,0.8,1.9,0.8C358.2,128.4,358.8,128.1,359.2,127.5z"/>
	</g>
	<g>
		<polygon points="361.3,128.7 362.6,126.4 363.7,127 362.3,129.3 		"/>
	</g>
	<g>
		<polygon points="365.5,131.2 366.9,128.8 367.9,129.4 366.5,131.8 		"/>
	</g>
	<g>
		<polygon points="369.7,133.6 371.1,131.3 372.1,131.8 370.8,134.2 		"/>
	</g>
	<g>
		<polygon points="407,266.2 407,264.9 423,274.2 423,275.5 		"/>
	</g>
	<g>
		<polygon points="439.2,264.8 439.2,266.2 423,275.5 423,274.2 		"/>
	</g>
	<g>
		<polygon points="437.4,262.4 438,263.4 423.3,271.9 422.7,270.9 		"/>
	</g>
	<g>
		<polygon points="455.7,274.3 455.1,275.3 439.2,266.2 439.2,264.8 		"/>
	</g>
	<g>
		<polygon points="473.3,281 472.7,282.1 456.6,272.7 457.2,271.7 		"/>
	</g>
	<g>
		<rect x="462.9" y="270.1" transform="matrix(0.499 -0.8666 0.8666 0.499 -9.9933 541.6835)" width="1.2" height="18.7"/>
	</g>
	<g>
		<polygon points="470.3,286.2 469.8,287.2 453.6,277.9 454.2,276.9 		"/>
	</g>
	<g>
		<polygon points="489.4,292.9 487.7,293.5 488.1,295.2 470.9,285.3 472.2,283 		"/>
	</g>
	<g>
		<polygon points="497,308.5 497,310.8 488.1,295.2 487.7,293.5 488.7,294.1 		"/>
	</g>
	<g>
		<polygon points="505.4,294.1 507.4,292.9 497,310.8 497,308.5 		"/>
	</g>
	<g>
		<polygon points="488.7,294.1 487.7,293.5 489.4,292.9 507.4,292.9 505.4,294.1 		"/>
	</g>
	<g>
		<path d="M524.8,281.1c0.5,0.5,0.8,1,0.8,1.6h-0.9c-0.1-0.5-0.3-0.8-0.6-1.1s-0.7-0.4-1.3-0.4c-0.7,0-1.2,0.2-1.7,0.7
			c-0.4,0.5-0.6,1.2-0.6,2.3c0,0.8,0.2,1.5,0.6,2s0.9,0.8,1.7,0.8c0.7,0,1.2-0.3,1.6-0.8c0.2-0.3,0.3-0.7,0.4-1.1h0.9
			c-0.1,0.7-0.4,1.4-0.8,1.9c-0.6,0.6-1.3,0.9-2.3,0.9c-0.8,0-1.5-0.2-2-0.7c-0.7-0.7-1.1-1.7-1.1-3.1c0-1,0.3-1.9,0.8-2.6
			c0.6-0.7,1.4-1.1,2.4-1.1C523.6,280.4,524.3,280.7,524.8,281.1z"/>
		<path d="M526.8,280.6h0.9v7.1h-0.9V280.6z"/>
	</g>
	<g>
		<polygon points="517.7,285.4 519,287.8 518,288.4 516.6,286 		"/>
	</g>
	<g>
		<polygon points="513.8,287.6 515.1,290 514.1,290.6 512.8,288.2 		"/>
	</g>
	<g>
		<polygon points="509.9,289.9 511.3,292.2 510.3,292.8 508.9,290.5 		"/>
	</g>
</g>
<g>
	<path class="st0" d="M339.9,336c0-2.6,2.3-4.8,5-4.8c1,0,2.1,0.5,2.6,1.3l-1.1,0.8c-0.3-0.5-1.1-0.8-1.7-0.8
		c-1.8,0-3.3,1.6-3.3,3.4c0,1.2,0.9,2.1,2,2.1c0.8,0,1.5-0.3,2.1-0.9l0.9,1c-0.9,0.8-2,1.2-3.2,1.2
		C341.4,339.4,339.9,337.8,339.9,336z"/>
	<path class="st0" d="M357,331.4l-1.6,7.8h-1.5l0.3-1.3c-0.8,0.9-1.8,1.5-3,1.5c-1.6,0-2.9-1.4-2.9-3.1c0-2.7,2.1-5.1,4.6-5.1
		c1.1,0,2,0.7,2.4,1.7l0.3-1.5H357z M354.8,334.4c0-1.1-0.9-2-2-2c-1.6,0-3.1,1.7-3.1,3.6c0,1.1,0.8,2,1.8,2
		C353.3,338.1,354.8,336.4,354.8,334.4z"/>
	<path class="st0" d="M359.8,328.6h1.5l-2.2,10.6h-1.5L359.8,328.6z"/>
	<path class="st0" d="M363.5,328.6h1.5l-2.2,10.6h-1.5L363.5,328.6z"/>
	<path class="st0" d="M366.5,331.4h1.5l-1.6,7.8h-1.5L366.5,331.4z M366.8,329.2c0-0.5,0.5-1,1-1c0.5,0,0.8,0.4,0.8,0.8
		c0,0.5-0.5,1-1,1C367.1,330.1,366.8,329.7,366.8,329.2z"/>
	<path class="st0" d="M377.4,334.3c0,2.7-2.1,5.1-4.6,5.1c-1.1,0-2-0.7-2.4-1.7l-0.9,4.2h-1.5l2.2-10.4h1.5l-0.3,1.3
		c0.8-0.9,1.8-1.5,3-1.5C376.1,331.2,377.4,332.6,377.4,334.3z M375.9,334.4c0-1.1-0.8-2-1.8-2c-1.8,0-3.3,1.7-3.3,3.6
		c0,1.1,0.9,2,2,2C374.5,338.1,375.9,336.4,375.9,334.4z"/>
	<path class="st0" d="M380.1,335.8v0.2c0,1.3,0.7,2,2,2c0.9,0,1.9-0.4,2.5-0.9l0.8,1.1c-0.8,0.7-2.3,1.2-3.4,1.2
		c-1.9,0-3.3-1.3-3.3-3.3c0-2.6,2.3-4.9,4.8-4.9c1.5,0,2.8,0.8,2.8,2.1c0,1.5-1.4,2.5-3.7,2.5H380.1z M380.4,334.6h2.4
		c1.3,0,2-0.4,2-1.1c0-0.6-0.6-1-1.5-1C382,332.5,380.9,333.4,380.4,334.6z"/>
	<path class="st0" d="M389.1,328.6h1.5l-2.2,10.6h-1.5L389.1,328.6z"/>
	<path class="st0" d="M394,332.6c-1,4.8-1,4.7-1,4.8c0,0.4,0.2,0.6,0.5,0.6c0.4,0,0.8-0.2,0.9-0.3l0.4,1.1c-0.5,0.3-1.1,0.5-1.6,0.5
		c-1,0-1.7-0.7-1.7-1.7c0-0.4,0.1-0.7,1-5h-1.2l0.3-1.3h1.2l0.5-2.1h1.5l-0.5,2.1h1.8l-0.3,1.3H394z"/>
	<path class="st0" d="M396.7,336c0-2.6,2.3-4.8,5-4.8c1.9,0,3.4,1.5,3.4,3.4c0,2.6-2.3,4.8-5,4.8C398.2,339.4,396.7,337.8,396.7,336
		z M403.6,334.6c0-1.2-1-2.1-2.1-2.1c-1.8,0-3.3,1.6-3.3,3.4c0,1.2,0.9,2.1,2.1,2.1C402,338.1,403.6,336.5,403.6,334.6z"/>
	<path class="st0" d="M405.6,338.2l0.9-1c0.7,0.6,1.6,0.9,2.4,0.9c1,0,1.9-0.6,1.9-1.3c0-0.4-0.3-0.7-1.5-1
		c-1.6-0.5-2.4-0.9-2.4-1.9c0-1.6,1.4-2.7,3.3-2.7c1,0,2,0.4,2.8,0.9l-0.8,1.1c-0.6-0.5-1.3-0.7-2-0.7c-1,0-1.8,0.5-1.8,1.2
		c0,0.3,0.4,0.6,1.5,1c1.5,0.5,2.3,0.9,2.3,2c0,1.5-1.5,2.8-3.4,2.8C407.6,339.4,406.4,338.9,405.6,338.2z"/>
	<path class="st0" d="M415.1,331.4h1.5l-1.6,7.8h-1.5L415.1,331.4z M415.3,329.2c0-0.5,0.5-1,1-1c0.5,0,0.8,0.4,0.8,0.8
		c0,0.5-0.5,1-1,1C415.6,330.1,415.3,329.7,415.3,329.2z"/>
	<path class="st0" d="M426.8,328.6l-2.2,10.6h-1.5l0.3-1.3c-0.8,0.9-1.8,1.5-3,1.5c-1.6,0-2.9-1.4-2.9-3.1c0-2.7,2.1-5.1,4.6-5.1
		c1.1,0,2,0.7,2.4,1.7l0.9-4.3H426.8z M423.9,335.4l0.1-0.3c0-0.2,0-0.4,0-0.6c0-1.1-0.9-2-2-2c-1.6,0-3.1,1.7-3.1,3.6
		c0,1.1,0.8,2,1.8,2C422.2,338.1,423.5,336.9,423.9,335.4z"/>
	<path class="st0" d="M428.6,335.8v0.2c0,1.3,0.7,2,2,2c0.9,0,1.9-0.4,2.5-0.9l0.8,1.1c-0.8,0.7-2.3,1.2-3.4,1.2
		c-1.9,0-3.3-1.3-3.3-3.3c0-2.6,2.3-4.9,4.8-4.9c1.5,0,2.8,0.8,2.8,2.1c0,1.5-1.4,2.5-3.7,2.5H428.6z M428.9,334.6h2.4
		c1.3,0,2-0.4,2-1.1c0-0.6-0.6-1-1.5-1C430.5,332.5,429.4,333.4,428.9,334.6z"/>
	<path class="st0" d="M440.4,334.9c0-3.4,3-6.3,6.6-6.3c1.3,0,2.7,0.7,3.5,1.7l-1.2,1c-0.5-0.7-1.5-1.2-2.5-1.2
		c-2.6,0-4.8,2.3-4.8,4.9c0,1.7,1.4,3.1,3.1,3.1c0.9,0,2.2-0.5,3-1.3l0.9,1.1c-1.1,0.9-2.8,1.6-4.1,1.6
		C442.4,339.4,440.4,337.4,440.4,334.9z"/>
</g>
</svg>
