<?xml version="1.0" encoding="utf-8"?>
<!-- Generator: Adobe Illustrator 19.2.0, SVG Export Plug-In . SVG Version: 6.00 Build 0)  -->
<svg version="1.1" id="Layer_1" xmlns="http://www.w3.org/2000/svg" xmlns:xlink="http://www.w3.org/1999/xlink" x="0px" y="0px"
	 viewBox="0 0 320 505" style="enable-background:new 0 0 320 505;" xml:space="preserve">
<style type="text/css">
	.st0{fill:#7A6AA8;}
</style>
<g>
	<g>
		<path class="st0" d="M124,426.8l-2.2,10.6h-1.5l0.3-1.3c-0.8,0.9-1.8,1.5-3,1.5c-1.6,0-2.9-1.4-2.9-3.1c0-2.7,2.1-5.1,4.6-5.1
			c1.1,0,2,0.7,2.4,1.7l0.9-4.3H124z M121.1,433.5l0.1-0.3c0-0.2,0-0.4,0-0.6c0-1.1-0.9-2-2-2c-1.6,0-3.1,1.7-3.1,3.6
			c0,1.1,0.8,2,1.8,2C119.4,436.2,120.7,435.1,121.1,433.5z"/>
		<path class="st0" d="M125.7,429.5h1.5l-1.6,7.8H124L125.7,429.5z M125.9,427.4c0-0.5,0.5-1,1-1c0.5,0,0.8,0.4,0.8,0.8
			c0,0.5-0.5,1-1,1C126.2,428.2,125.9,427.8,125.9,427.4z"/>
		<path class="st0" d="M136.9,429.5l-1.6,7.8h-1.5l0.3-1.3c-0.8,0.9-1.8,1.5-3,1.5c-1.6,0-2.9-1.4-2.9-3.1c0-2.7,2.1-5.1,4.6-5.1
			c1.1,0,2,0.7,2.4,1.7l0.3-1.5H136.9z M134.6,432.6c0-1.1-0.9-2-2-2c-1.6,0-3.1,1.7-3.1,3.6c0,1.1,0.8,2,1.8,2
			C133.2,436.2,134.6,434.5,134.6,432.6z"/>
		<path class="st0" d="M137.4,436.2l5.5-5.4h-4.3l0.3-1.3h6.3l-0.2,1.1l-5.5,5.4h4.4l-0.3,1.3h-6.4L137.4,436.2z"/>
		<path class="st0" d="M145.7,434.2c0-2.6,2.3-4.8,5-4.8c1.9,0,3.4,1.5,3.4,3.4c0,2.6-2.3,4.8-5,4.8
			C147.2,437.5,145.7,436,145.7,434.2z M152.5,432.8c0-1.2-1-2.1-2.1-2.1c-1.8,0-3.3,1.6-3.3,3.4c0,1.2,0.9,2.1,2.1,2.1
			C151,436.2,152.5,434.6,152.5,432.8z"/>
		<path class="st0" d="M162.9,431.7c0,0.6-0.1,1-1.1,5.6h-1.5c1-4.6,1-4.9,1-5.3c0-0.9-0.5-1.4-1.3-1.4c-1.2,0-2.3,0.8-2.6,1.8
			l-1,4.9h-1.5l1.6-7.8h1.5l-0.2,1c0.6-0.7,1.6-1.2,2.6-1.2C161.9,429.3,162.9,430.3,162.9,431.7z"/>
		<path class="st0" d="M173.1,429.5l-1.6,7.8H170l0.3-1.3c-0.8,0.9-1.8,1.5-3,1.5c-1.6,0-2.9-1.4-2.9-3.1c0-2.7,2.1-5.1,4.6-5.1
			c1.1,0,2,0.7,2.4,1.7l0.3-1.5H173.1z M170.9,432.6c0-1.1-0.9-2-2-2c-1.6,0-3.1,1.7-3.1,3.6c0,1.1,0.8,2,1.8,2
			C169.4,436.2,170.9,434.5,170.9,432.6z"/>
		<path class="st0" d="M186.4,431.7c0,0.5-0.1,0.8-1.1,5.7h-1.5c1-4.7,1.1-5,1.1-5.3c0-0.9-0.4-1.4-1.3-1.4c-1,0-2.1,0.7-2.3,1.8
			c-0.1,0.6-0.4,1.9-1,4.9h-1.5c1-4.7,1.1-5,1.1-5.3c0-0.8-0.4-1.4-1.3-1.4c-1,0-2,0.7-2.3,1.7l-1.1,5h-1.5l1.6-7.8h1.5l-0.2,1
			c0.5-0.8,1.4-1.2,2.4-1.2c1.1,0,2,0.6,2.2,1.6c0.5-1,1.6-1.6,2.8-1.6C185.5,429.3,186.4,430.3,186.4,431.7z"/>
		<path class="st0" d="M189,429.5h1.5l-1.6,7.8h-1.5L189,429.5z M189.3,427.4c0-0.5,0.5-1,1-1c0.5,0,0.8,0.4,0.8,0.8
			c0,0.5-0.5,1-1,1C189.6,428.2,189.3,427.8,189.3,427.4z"/>
		<path class="st0" d="M200.8,426.8l-2.2,10.6h-1.5l0.3-1.3c-0.8,0.9-1.8,1.5-3,1.5c-1.6,0-2.9-1.4-2.9-3.1c0-2.7,2.1-5.1,4.6-5.1
			c1.1,0,2,0.7,2.4,1.7l0.9-4.3H200.8z M197.9,433.5l0.1-0.3c0-0.2,0-0.4,0-0.6c0-1.1-0.9-2-2-2c-1.6,0-3.1,1.7-3.1,3.6
			c0,1.1,0.8,2,1.8,2C196.2,436.2,197.5,435.1,197.9,433.5z"/>
		<path class="st0" d="M202.6,434v0.2c0,1.3,0.7,2,2,2c0.9,0,1.9-0.4,2.5-0.9l0.8,1.1c-0.8,0.7-2.3,1.2-3.4,1.2
			c-1.9,0-3.3-1.3-3.3-3.3c0-2.6,2.3-4.9,4.8-4.9c1.5,0,2.8,0.8,2.8,2.1c0,1.5-1.4,2.5-3.7,2.5H202.6z M202.9,432.8h2.4
			c1.3,0,2-0.4,2-1.1c0-0.6-0.6-1-1.5-1C204.5,430.7,203.4,431.6,202.9,432.8z"/>
		<path class="st0" d="M221.6,435.2h-5.4l-1.4,2.2h-1.7l6.6-10.4h1.7l0,0l2.3,10.4h-1.6L221.6,435.2z M221.3,433.8l-1.1-4.9
			l-3.1,4.9H221.3z"/>
	</g>
	<g>
		<path d="M74.8,345.7c0.5,0.7,0.8,1.5,0.8,2.6c0,1.1-0.3,2.1-0.9,2.8c-0.7,0.9-1.6,1.3-2.9,1.3c-1.2,0-2.1-0.4-2.8-1.2
			c-0.6-0.7-0.9-1.7-0.9-2.8c0-1,0.3-1.9,0.8-2.6c0.7-0.9,1.6-1.4,2.9-1.4C73.2,344.4,74.2,344.9,74.8,345.7z M73.9,350.6
			c0.4-0.7,0.6-1.4,0.6-2.2c0-0.9-0.2-1.6-0.7-2.2c-0.5-0.5-1.1-0.8-1.9-0.8c-0.8,0-1.4,0.3-1.9,0.8c-0.5,0.5-0.7,1.3-0.7,2.4
			c0,0.8,0.2,1.6,0.6,2.1c0.4,0.6,1.1,0.9,2.1,0.9C72.8,351.5,73.5,351.2,73.9,350.6z"/>
	</g>
	<g>
		<polygon points="74,342.9 72.8,342.9 72.8,328.6 74,328.6 		"/>
	</g>
	<g>
		<rect x="69.7" y="328.5" width="1.2" height="14.4"/>
	</g>
	<g>
		<polygon points="55.4,320.6 55.4,319.9 56.7,320 71.9,328.7 71.9,330.1 		"/>
	</g>
	<g>
		<polygon points="54,300.7 55.4,300.8 56.8,300.7 56.7,320 55.4,319.9 54,320 		"/>
	</g>
	<g>
		<path d="M26.7,325.6h1v3.1h3.9v-3.1h1v7.6h-1v-3.5h-3.9v3.5h-1V325.6z"/>
		<path d="M40.6,326.7c0.5,0.7,0.8,1.5,0.8,2.6c0,1.1-0.3,2.1-0.9,2.8c-0.7,0.9-1.6,1.3-2.9,1.3c-1.2,0-2.1-0.4-2.8-1.2
			c-0.6-0.7-0.9-1.7-0.9-2.8c0-1,0.3-1.9,0.8-2.6c0.7-0.9,1.6-1.4,2.9-1.4C38.9,325.4,39.9,325.8,40.6,326.7z M39.7,331.5
			c0.4-0.6,0.6-1.4,0.6-2.2c0-0.9-0.2-1.6-0.7-2.2c-0.5-0.5-1.1-0.8-1.9-0.8c-0.8,0-1.4,0.3-1.9,0.8c-0.5,0.5-0.7,1.3-0.7,2.4
			c0,0.8,0.2,1.5,0.6,2.1c0.4,0.6,1.1,0.9,2.1,0.9C38.6,332.5,39.3,332.2,39.7,331.5z"/>
	</g>
	<g>
		<polygon points="43,327.7 42.3,326.7 54,320 55.4,319.9 55.4,320.6 		"/>
	</g>
	<g>
		<path d="M26.7,287.5h1.5l2.2,6.4l2.2-6.4H34v7.6h-1v-4.5c0-0.2,0-0.4,0-0.8s0-0.7,0-1.2l-2.2,6.4h-1l-2.2-6.4v0.2
			c0,0.2,0,0.5,0,0.8s0,0.7,0,0.8v4.5h-1V287.5z"/>
		<path d="M38.9,289.7c0.4,0.2,0.6,0.4,0.8,0.7c0.2,0.3,0.3,0.6,0.4,1c0.1,0.3,0.1,0.7,0.1,1.2h-4c0,0.6,0.1,1,0.4,1.4
			c0.2,0.3,0.6,0.5,1.1,0.5c0.5,0,0.9-0.2,1.2-0.5c0.2-0.2,0.3-0.4,0.3-0.6h0.9c0,0.2-0.1,0.4-0.2,0.7c-0.1,0.2-0.3,0.5-0.5,0.6
			c-0.3,0.3-0.6,0.5-1,0.6c-0.2,0.1-0.5,0.1-0.8,0.1c-0.7,0-1.3-0.3-1.7-0.8c-0.5-0.5-0.7-1.2-0.7-2.1c0-0.9,0.2-1.6,0.7-2.2
			c0.5-0.6,1.1-0.8,1.9-0.8C38.1,289.4,38.5,289.5,38.9,289.7z M39.2,291.9c0-0.4-0.1-0.7-0.3-1c-0.3-0.4-0.7-0.7-1.3-0.7
			c-0.4,0-0.8,0.2-1.1,0.5c-0.3,0.3-0.4,0.7-0.5,1.2H39.2z"/>
	</g>
	<g>
		<polygon points="41.8,293.7 42.4,292.6 55.4,300.1 55.4,300.8 54,300.7 		"/>
	</g>
	<g>
		<path d="M68.2,287.5h1.5l2.2,6.4l2.2-6.4h1.5v7.6h-1v-4.5c0-0.2,0-0.4,0-0.8s0-0.7,0-1.2l-2.2,6.4h-1l-2.2-6.4v0.2
			c0,0.2,0,0.5,0,0.8s0,0.7,0,0.8v4.5h-1V287.5z"/>
		<path d="M80.4,289.7c0.4,0.2,0.6,0.4,0.8,0.7c0.2,0.3,0.3,0.6,0.4,1c0.1,0.3,0.1,0.7,0.1,1.2h-4c0,0.6,0.1,1,0.4,1.4
			c0.2,0.3,0.6,0.5,1.1,0.5c0.5,0,0.9-0.2,1.2-0.5c0.2-0.2,0.3-0.4,0.3-0.6h0.9c0,0.2-0.1,0.4-0.2,0.7c-0.1,0.2-0.3,0.5-0.5,0.6
			c-0.3,0.3-0.6,0.5-1,0.6c-0.2,0.1-0.5,0.1-0.8,0.1c-0.7,0-1.3-0.3-1.7-0.8c-0.5-0.5-0.7-1.2-0.7-2.1c0-0.9,0.2-1.6,0.7-2.2
			c0.5-0.6,1.1-0.8,1.9-0.8C79.6,289.4,80,289.5,80.4,289.7z M80.7,291.9c0-0.4-0.1-0.7-0.3-1c-0.3-0.4-0.7-0.7-1.3-0.7
			c-0.4,0-0.8,0.2-1.1,0.5c-0.3,0.3-0.4,0.7-0.5,1.2H80.7z"/>
	</g>
	<g>
		<polygon points="65.9,294 66.5,295.1 56.8,300.7 55.4,300.8 55.4,300.1 		"/>
	</g>
	<g>
		<path d="M163.4,400.1c0.5,0.7,0.8,1.5,0.8,2.6c0,1.1-0.3,2.1-0.9,2.8c-0.7,0.9-1.6,1.3-2.9,1.3c-1.2,0-2.1-0.4-2.8-1.2
			c-0.6-0.7-0.9-1.7-0.9-2.8c0-1,0.3-1.9,0.8-2.6c0.7-0.9,1.6-1.4,2.9-1.4C161.8,398.8,162.8,399.2,163.4,400.1z M162.5,404.9
			c0.4-0.6,0.6-1.4,0.6-2.2c0-0.9-0.2-1.6-0.7-2.2c-0.5-0.5-1.1-0.8-1.9-0.8c-0.8,0-1.4,0.3-1.9,0.8c-0.5,0.5-0.7,1.3-0.7,2.4
			c0,0.8,0.2,1.5,0.6,2.1c0.4,0.6,1.1,0.9,2.1,0.9C161.4,405.9,162.1,405.5,162.5,404.9z"/>
	</g>
	<g>
		<polygon points="154.8,375.5 154.8,371.4 156,371.6 156,375.4 		"/>
	</g>
	<g>
		<polygon points="159.9,374.9 159.9,372.1 161.1,372.2 161.1,374.7 		"/>
	</g>
	<g>
		<polygon points="164.9,374.3 164.9,372.7 166.1,372.9 166.1,374.1 		"/>
	</g>
	<g>
		<polygon points="145.8,391.4 145.1,391.6 144.6,391.1 150.3,373.6 151.6,373.4 		"/>
	</g>
	<g>
		<polygon points="143.3,389.1 142.1,388.8 146.9,374 148.1,374.4 		"/>
	</g>
	<g>
		<polygon points="156.4,399.1 155.7,400.1 144.9,392.2 145.1,391.6 145.8,391.4 		"/>
	</g>
	<g>
		<polygon points="173.9,392.3 175.9,391.6 176.1,392.2 165.3,400 164.6,399 		"/>
	</g>
	<g>
		<polygon points="169.4,373.5 170,373.5 170.7,373.7 177.9,391 175.9,391.6 173.9,392.3 		"/>
	</g>
	<g>
		<path d="M191.9,387.8h1.2l3.8,6.1v-6.1h1v7.6h-1.2l-3.8-6.1v6.1h-1V387.8z"/>
		<path d="M199.6,387.8h1v3.1h3.9v-3.1h1v7.6h-1v-3.5h-3.9v3.5h-1V387.8z"/>
	</g>
	<g>
		<polygon points="190.4,391 190.4,392.2 176.1,392.2 175.9,391.6 177.9,391 		"/>
	</g>
	<g>
		<polygon points="200.1,373.7 200.8,373.5 201.3,373.9 197.4,386 196.2,385.6 		"/>
	</g>
	<g>
		<polygon points="185.4,363 185.4,362.3 186,362 200.9,372.8 200.8,373.5 200.1,373.7 		"/>
	</g>
	<g>
		<polygon points="188.2,361.3 189,360.4 201.5,369.5 200.8,370.5 		"/>
	</g>
	<g>
		<polygon points="170.7,373.7 170,373.5 170.6,372.3 184.8,361.9 185.4,362.3 185.4,363 		"/>
	</g>
	<g>
		<polygon points="138,360 138.4,358.7 151.6,373.4 150.3,373.6 		"/>
	</g>
	<g>
		<polygon points="120,363.8 119.5,363.3 119.8,362.6 138.4,358.7 138,360 		"/>
	</g>
	<g>
		<polygon points="122,366.5 121.8,365.3 137,362.1 137.2,363.3 		"/>
	</g>
	<g>
		<polygon points="114.4,381.2 113,381.6 118.9,363.5 119.5,363.3 120,363.8 		"/>
	</g>
	<g>
		<polygon points="126.7,394.9 126.2,396.2 113,381.6 114.4,381.2 		"/>
	</g>
	<g>
		<polygon points="128,391.8 127.1,392.6 116.7,381.1 117.6,380.3 		"/>
	</g>
	<g>
		<polygon points="144.6,391.1 145.1,391.6 144.9,392.2 126.2,396.2 126.7,394.9 		"/>
	</g>
	<g>
		<polygon points="217.6,365.3 218.2,365.7 218.1,366.4 201.3,373.9 200.8,373.5 200.9,372.8 		"/>
	</g>
	<g>
		<polygon points="219.5,347.1 220.8,346.5 218.8,365.4 218.2,365.7 217.6,365.3 		"/>
	</g>
	<g>
		<polygon points="216.4,348.1 217.6,348.3 215.9,363.7 214.7,363.6 		"/>
	</g>
	<g>
		<polygon points="204.7,336.3 204.8,334.9 220.8,346.5 219.5,347.1 		"/>
	</g>
	<g>
		<polygon points="187.9,343.8 186.8,342.9 204.8,334.9 204.7,336.3 		"/>
	</g>
	<g>
		<polygon points="190.5,346 190,344.9 204.2,338.5 204.6,339.6 		"/>
	</g>
	<g>
		<polygon points="186,362 185.4,362.3 184.8,361.9 186.8,342.9 187.9,343.8 		"/>
	</g>
	<g>
		<polygon points="106.2,349.4 107.5,348.9 119.8,362.6 119.5,363.3 118.9,363.5 		"/>
	</g>
	<g>
		<polygon points="106.2,329.8 107.5,330.5 107.5,348.9 106.2,349.4 		"/>
	</g>
	<g>
		<polygon points="122.7,320.3 123.9,320.9 107.5,330.5 106.2,329.8 		"/>
	</g>
	<g>
		<path d="M111.1,297.7h1v3.1h3.9v-3.1h1v7.6h-1v-3.5h-3.9v3.5h-1V297.7z"/>
		<path d="M118.7,297.7h1.2l3.8,6.1v-6.1h1v7.6h-1.2l-3.8-6.1v6.1h-1V297.7z"/>
	</g>
	<g>
		<polygon points="122.7,306.8 123.9,306.8 123.9,320.9 122.7,320.3 		"/>
	</g>
	<g>
		<polygon points="138.4,292.1 139.8,292 139.8,292.7 127.3,300 126.7,298.9 		"/>
	</g>
	<g>
		<polygon points="160.8,303.8 160.7,304.4 159.3,304.3 139.8,292.7 139.8,292 141.2,292.1 		"/>
	</g>
	<g>
		<path d="M142.7,327.4c0.5,0.7,0.8,1.5,0.8,2.6c0,1.1-0.3,2.1-0.9,2.8c-0.7,0.9-1.6,1.3-2.9,1.3c-1.2,0-2.1-0.4-2.8-1.2
			c-0.6-0.7-0.9-1.7-0.9-2.8c0-1,0.3-1.9,0.8-2.6c0.7-0.9,1.6-1.4,2.9-1.4C141.1,326.1,142.1,326.5,142.7,327.4z M141.8,332.2
			c0.4-0.7,0.6-1.4,0.6-2.2c0-0.9-0.2-1.6-0.7-2.2c-0.5-0.5-1.1-0.8-1.9-0.8c-0.8,0-1.4,0.3-1.9,0.8c-0.5,0.5-0.7,1.3-0.7,2.4
			c0,0.8,0.2,1.6,0.6,2.1c0.4,0.6,1.1,0.9,2.1,0.9C140.8,333.2,141.4,332.9,141.8,332.2z"/>
	</g>
	<g>
		<polygon points="136.2,325.5 135.6,326.6 123,319.4 123.6,318.3 		"/>
	</g>
	<g>
		<polygon points="134.7,328.2 134.1,329.3 121.5,322 122.1,320.9 		"/>
	</g>
	<g>
		<path d="M157,319.5c0.5,0.7,0.8,1.5,0.8,2.6c0,1.1-0.3,2.1-0.9,2.8c-0.7,0.9-1.6,1.3-2.9,1.3c-1.2,0-2.1-0.4-2.8-1.2
			c-0.6-0.7-0.9-1.7-0.9-2.8c0-1,0.3-1.9,0.8-2.6c0.7-0.9,1.6-1.4,2.9-1.4C155.4,318.2,156.3,318.7,157,319.5z M156.1,324.4
			c0.4-0.6,0.6-1.4,0.6-2.2c0-0.9-0.2-1.6-0.7-2.2s-1.1-0.8-1.9-0.8c-0.8,0-1.4,0.3-1.9,0.8s-0.7,1.3-0.7,2.4c0,0.8,0.2,1.5,0.6,2.1
			c0.4,0.6,1.1,0.9,2.1,0.9C155,325.3,155.7,325,156.1,324.4z"/>
	</g>
	<g>
		<path d="M176.7,301.4h1.2l3.8,6.1v-6.1h1v7.6h-1.2l-3.8-6.1v6.1h-1V301.4z"/>
	</g>
	<g>
		<polygon points="157.3,317.5 154.7,316.5 159.3,304.3 160.7,304.4 161.9,305.1 		"/>
	</g>
	<g>
		<polygon points="169.7,332.9 169,334.1 168.4,335.4 157.4,326.6 159.1,324.5 		"/>
	</g>
	<g>
		<polygon points="184.1,323.3 184.8,323.5 185,324.2 169.6,334.4 169,334.1 169.7,332.9 		"/>
	</g>
	<g>
		<polygon points="181,321.7 181.6,322.8 169.5,330.8 168.8,329.8 		"/>
	</g>
	<g>
		<polygon points="180.7,311.1 181.9,310.7 185.3,322.9 184.8,323.5 184.1,323.3 		"/>
	</g>
	<g>
		<polygon points="161.9,305.1 160.7,304.4 160.8,303.8 175.2,304.4 175.2,305.6 		"/>
	</g>
	<g>
		<polygon points="162.7,308.1 162.8,306.9 175.1,307.4 175.1,308.7 		"/>
	</g>
	<g>
		<polygon points="170.6,372.3 170,373.5 169.4,373.5 168.4,335.4 169,334.1 169.6,334.4 		"/>
	</g>
	<g>
		<polygon points="139,272.9 140.4,273 141.8,273 141.2,292.1 139.8,292 138.4,292.1 		"/>
	</g>
	<g>
		<path d="M112.1,259.2h1.5l2.2,6.4l2.2-6.4h1.5v7.6h-1v-4.5c0-0.2,0-0.4,0-0.8s0-0.7,0-1.2l-2.2,6.4h-1l-2.2-6.4v0.2
			c0,0.2,0,0.5,0,0.8c0,0.4,0,0.7,0,0.8v4.5h-1V259.2z"/>
		<path d="M124.2,261.4c0.4,0.2,0.6,0.4,0.8,0.7c0.2,0.3,0.3,0.6,0.4,1c0.1,0.3,0.1,0.7,0.1,1.2h-4c0,0.6,0.1,1,0.4,1.4
			c0.2,0.3,0.6,0.5,1.1,0.5c0.5,0,0.9-0.2,1.2-0.5c0.2-0.2,0.3-0.4,0.3-0.6h0.9c0,0.2-0.1,0.4-0.2,0.7c-0.1,0.2-0.3,0.5-0.5,0.6
			c-0.3,0.3-0.6,0.5-1,0.6c-0.2,0.1-0.5,0.1-0.8,0.1c-0.7,0-1.3-0.3-1.7-0.8c-0.5-0.5-0.7-1.2-0.7-2.1c0-0.9,0.2-1.6,0.7-2.2
			c0.5-0.6,1.1-0.8,1.9-0.8C123.5,261.1,123.9,261.2,124.2,261.4z M124.6,263.6c0-0.4-0.1-0.7-0.3-1c-0.3-0.4-0.7-0.7-1.3-0.7
			c-0.4,0-0.8,0.2-1.1,0.5c-0.3,0.3-0.4,0.7-0.5,1.2H124.6z"/>
	</g>
	<g>
		<polygon points="127.2,265.5 127.8,264.5 140.4,272.3 140.4,273 139,272.9 		"/>
	</g>
	<g>
		<path d="M153.6,260.3h1.5l2.2,6.4l2.2-6.4h1.5v7.6h-1v-4.5c0-0.2,0-0.4,0-0.8c0-0.4,0-0.7,0-1.2l-2.2,6.4h-1l-2.2-6.4v0.2
			c0,0.2,0,0.5,0,0.8c0,0.4,0,0.7,0,0.8v4.5h-1V260.3z"/>
		<path d="M165.7,262.5c0.4,0.2,0.6,0.4,0.8,0.7c0.2,0.3,0.3,0.6,0.4,1c0.1,0.3,0.1,0.7,0.1,1.2h-4c0,0.6,0.1,1,0.4,1.4
			c0.2,0.3,0.6,0.5,1.1,0.5c0.5,0,0.9-0.2,1.2-0.5c0.2-0.2,0.3-0.4,0.3-0.6h0.9c0,0.2-0.1,0.4-0.2,0.7c-0.1,0.2-0.3,0.5-0.5,0.6
			c-0.3,0.3-0.6,0.5-1,0.6c-0.2,0.1-0.5,0.1-0.8,0.1c-0.7,0-1.3-0.2-1.7-0.8c-0.5-0.5-0.7-1.2-0.7-2.1c0-0.9,0.2-1.6,0.7-2.2
			c0.5-0.6,1.1-0.8,1.9-0.8C164.9,262.2,165.3,262.3,165.7,262.5z M166,264.6c0-0.4-0.1-0.7-0.3-1c-0.3-0.4-0.7-0.7-1.3-0.7
			c-0.4,0-0.8,0.2-1.1,0.5c-0.3,0.3-0.4,0.7-0.5,1.2H166z"/>
	</g>
	<g>
		<polygon points="151.2,266.6 151.8,267.7 141.8,273 140.4,273 140.4,272.3 		"/>
	</g>
	<g>
		<path d="M86.6,307.4h1v3.1h3.9v-3.1h1v7.6h-1v-3.5h-3.9v3.5h-1V307.4z"/>
	</g>
	<g>
		<path d="M86.6,316.2h1.2l3.8,6.1v-6.1h1v7.6h-1.2l-3.8-6.1v6.1h-1V316.2z"/>
	</g>
	<g>
		<polygon points="94,324.2 95.4,321.8 96.5,322.5 95.1,324.8 		"/>
	</g>
	<g>
		<polygon points="98,326.6 99.4,324.2 100.5,324.8 99.1,327.2 		"/>
	</g>
	<g>
		<polygon points="102.1,328.9 103.5,326.5 104.5,327.1 103.1,329.5 		"/>
	</g>
	<g>
		<polygon points="253,405 253,406.4 235.9,396.5 237.1,395.8 		"/>
	</g>
	<g>
		<polygon points="253.3,401.6 252.7,402.7 239.2,394.9 239.8,393.9 		"/>
	</g>
	<g>
		<polygon points="268.9,395.8 270.1,396.5 253,406.4 253,405 		"/>
	</g>
	<g>
		<polygon points="268.9,377.5 269.5,377.1 270.1,377.4 270.1,396.5 268.9,395.8 		"/>
	</g>
	<g>
		<rect x="265.8" y="378.9" width="1.2" height="15.5"/>
	</g>
	<g>
		<polygon points="253,368.3 253,367.6 253.7,367.3 269.4,376.4 269.5,377.1 268.9,377.5 		"/>
	</g>
	<g>
		<polygon points="237.1,377.5 236.5,377.1 236.5,376.4 252.4,367.2 253,367.6 253,368.3 		"/>
	</g>
	<g>
		<polygon points="239.8,379.4 239.2,378.3 252.7,370.6 253.3,371.6 		"/>
	</g>
	<g>
		<polygon points="237.1,395.8 235.9,396.5 235.9,377.4 236.5,377.1 237.1,377.5 		"/>
	</g>
	<g>
		<polygon points="218.1,366.4 218.2,365.7 218.8,365.4 236.5,376.4 236.5,377.1 235.9,377.4 		"/>
	</g>
	<g>
		<path d="M280.6,360.6h1.2l3.8,6.1v-6.1h1v7.6h-1.2l-3.8-6.1v6.1h-1V360.6z"/>
		<path d="M288.3,360.6h1v3.1h3.9v-3.1h1v7.6h-1v-3.5h-3.9v3.5h-1V360.6z"/>
	</g>
	<g>
		<polygon points="278.6,368.1 279.4,369 270.1,377.4 269.5,377.1 269.4,376.4 		"/>
	</g>
	<g>
		<polygon points="275.5,347.6 275.9,347 276.6,347 281.7,358.4 280.5,358.9 		"/>
	</g>
	<g>
		<polygon points="257.4,349.5 256.9,348.9 257.3,348.3 275.5,346.4 275.9,347 275.5,347.6 		"/>
	</g>
	<g>
		<polygon points="259.5,352.3 259.4,351.2 273.9,349.6 274.1,350.8 		"/>
	</g>
	<g>
		<polygon points="253.7,367.3 253,367.6 252.4,367.2 256.3,349.1 256.9,348.9 257.4,349.5 		"/>
	</g>
	<g>
		<path d="M232.3,334.3c0.5,0.7,0.8,1.5,0.8,2.6c0,1.1-0.3,2.1-0.9,2.8c-0.7,0.9-1.6,1.3-2.9,1.3c-1.2,0-2.1-0.4-2.8-1.2
			c-0.6-0.7-0.9-1.7-0.9-2.8c0-1,0.3-1.9,0.8-2.6c0.7-0.9,1.6-1.4,2.9-1.4C230.7,333.1,231.7,333.5,232.3,334.3z M231.4,339.2
			c0.4-0.6,0.6-1.4,0.6-2.2c0-0.9-0.2-1.6-0.7-2.2s-1.1-0.8-1.9-0.8c-0.8,0-1.4,0.3-1.9,0.8s-0.7,1.3-0.7,2.4c0,0.8,0.2,1.5,0.6,2.1
			c0.4,0.6,1.1,0.9,2.1,0.9C230.3,340.2,231,339.8,231.4,339.2z"/>
	</g>
	<g>
		<path d="M221.2,302.8h1.2l3.8,6.1v-6.1h1v7.6h-1.2l-3.8-6.1v6.1h-1V302.8z"/>
	</g>
	<g>
		<polygon points="245.4,327.1 246.2,328.2 246.3,329.7 234.8,335.8 233.5,333.3 		"/>
	</g>
	<g>
		<polygon points="242.5,310 243.1,309.5 243.7,309.7 246.8,328 246.2,328.2 245.4,327.1 		"/>
	</g>
	<g>
		<polygon points="239.9,312.2 241,312.1 243.5,326.5 242.3,326.6 		"/>
	</g>
	<g>
		<polygon points="228.6,307.9 228.7,306.7 242.9,308.8 243.1,309.5 242.5,310 		"/>
	</g>
	<g>
		<polygon points="216.8,322.9 215.8,323.7 215.4,323.1 220.9,311.9 222,312.5 		"/>
	</g>
	<g>
		<polygon points="220,323.4 218.9,322.8 223.7,313.3 224.7,313.8 		"/>
	</g>
	<g>
		<polygon points="226.4,332.2 224.4,334.2 214.4,324.3 215.8,323.7 216.8,322.9 		"/>
	</g>
	<g>
		<polygon points="185,324.2 184.8,323.5 185.3,322.9 215.4,323.1 215.8,323.7 214.4,324.3 		"/>
	</g>
	<g>
		<polygon points="257.3,348.3 256.9,348.9 256.3,349.1 246.3,329.7 246.2,328.2 246.8,328 		"/>
	</g>
	<g>
		<path d="M287.7,327.3c0.5,0.5,0.8,1.1,0.9,1.7h-1c-0.1-0.5-0.3-0.9-0.7-1.2c-0.3-0.3-0.8-0.4-1.4-0.4c-0.7,0-1.3,0.3-1.8,0.8
			c-0.5,0.5-0.7,1.3-0.7,2.4c0,0.9,0.2,1.6,0.6,2.2c0.4,0.6,1,0.8,1.8,0.8c0.7,0,1.3-0.3,1.7-0.9c0.2-0.3,0.4-0.7,0.5-1.2h1
			c-0.1,0.8-0.4,1.5-0.9,2c-0.6,0.7-1.4,1-2.4,1c-0.9,0-1.6-0.3-2.2-0.8c-0.8-0.7-1.2-1.8-1.2-3.3c0-1.1,0.3-2,0.9-2.8
			c0.6-0.8,1.5-1.2,2.6-1.2C286.5,326.5,287.2,326.8,287.7,327.3z"/>
		<path d="M289.9,326.7h0.9v7.6h-0.9V326.7z"/>
	</g>
	<g>
		<polygon points="282.1,334.9 283.2,335.5 276.6,347 275.9,347 275.5,346.4 		"/>
	</g>
	<g>
		<path d="M258.7,292.7c0.5,0.5,0.8,1.1,0.9,1.7h-1c-0.1-0.5-0.3-0.9-0.7-1.2c-0.3-0.3-0.8-0.4-1.4-0.4c-0.7,0-1.3,0.3-1.8,0.8
			c-0.5,0.5-0.7,1.3-0.7,2.4c0,0.9,0.2,1.6,0.6,2.2c0.4,0.6,1,0.8,1.8,0.8c0.7,0,1.3-0.3,1.7-0.9c0.2-0.3,0.4-0.7,0.5-1.2h1
			c-0.1,0.8-0.4,1.5-0.9,2c-0.6,0.7-1.4,1-2.4,1c-0.9,0-1.6-0.3-2.2-0.8c-0.8-0.7-1.2-1.8-1.2-3.3c0-1.1,0.3-2,0.9-2.8
			c0.6-0.8,1.5-1.2,2.6-1.2C257.5,291.9,258.2,292.2,258.7,292.7z"/>
		<path d="M260.9,292.1h0.9v7.6h-0.9V292.1z"/>
	</g>
	<g>
		<polygon points="252.3,299.2 253.1,300.1 243.7,309.7 243.1,309.5 242.9,308.8 		"/>
	</g>
	<g>
		<polygon points="84.1,322.3 84.7,323.3 71.9,330.1 71.9,328.7 		"/>
	</g>
	<g>
		<path class="st0" d="M130.4,188l-0.7,0.9c-0.1-0.2-0.4-0.3-0.6-0.3c-0.6,0-1.1,0.5-1.2,1l-0.2,0.8h1.8l-0.3,1.3h-1.8l-1.4,6.5
			h-1.5l1.4-6.5h-1.2l0.3-1.3h1.2l0.2-1c0.3-1.3,1.2-2.1,2.4-2.1C129.5,187.3,130,187.6,130.4,188z"/>
		<path class="st0" d="M135.5,190.2l-0.2,1.3c-1.6,0-3,1-3.4,2.3l-0.9,4.4h-1.5l1.6-7.8h1.5l-0.3,1.4
			C133,190.8,134.2,190.2,135.5,190.2z"/>
		<path class="st0" d="M135.9,195c0-2.6,2.3-4.8,5-4.8c1.9,0,3.4,1.5,3.4,3.4c0,2.6-2.3,4.8-5,4.8
			C137.4,198.4,135.9,196.9,135.9,195z M142.8,193.7c0-1.2-1-2.1-2.1-2.1c-1.8,0-3.3,1.6-3.3,3.4c0,1.2,0.9,2.1,2.1,2.1
			C141.2,197.1,142.8,195.5,142.8,193.7z"/>
		<path class="st0" d="M153.1,192.6c0,0.6-0.1,1-1.1,5.6h-1.5c1-4.6,1-4.9,1-5.3c0-0.9-0.5-1.4-1.3-1.4c-1.2,0-2.3,0.8-2.6,1.8
			l-1,4.9h-1.5l1.6-7.8h1.5l-0.2,1c0.6-0.7,1.6-1.2,2.6-1.2C152.2,190.2,153.1,191.2,153.1,192.6z"/>
		<path class="st0" d="M163.9,187.7l-2.2,10.6h-1.5l0.3-1.3c-0.8,0.9-1.8,1.5-3,1.5c-1.6,0-2.9-1.4-2.9-3.1c0-2.7,2.1-5.1,4.6-5.1
			c1.1,0,2,0.7,2.4,1.7l0.9-4.3H163.9z M161,194.4l0.1-0.3c0-0.2,0-0.4,0-0.6c0-1.1-0.9-2-2-2c-1.6,0-3.1,1.7-3.1,3.6
			c0,1.1,0.8,2,1.8,2C159.3,197.1,160.6,196,161,194.4z"/>
		<path class="st0" d="M164.3,195c0-2.6,2.3-4.8,5-4.8c1.9,0,3.4,1.5,3.4,3.4c0,2.6-2.3,4.8-5,4.8
			C165.8,198.4,164.3,196.9,164.3,195z M171.2,193.7c0-1.2-1-2.1-2.1-2.1c-1.8,0-3.3,1.6-3.3,3.4c0,1.2,0.9,2.1,2.1,2.1
			C169.6,197.1,171.2,195.5,171.2,193.7z"/>
		<path class="st0" d="M173.2,197.2l0.9-1c0.7,0.6,1.6,0.9,2.4,0.9c1,0,1.9-0.6,1.9-1.3c0-0.4-0.3-0.7-1.5-1
			c-1.6-0.5-2.4-0.9-2.4-1.9c0-1.6,1.4-2.7,3.3-2.7c1,0,2,0.4,2.8,0.9l-0.8,1.1c-0.6-0.5-1.3-0.7-2-0.7c-1,0-1.8,0.5-1.8,1.2
			c0,0.3,0.4,0.6,1.5,1c1.5,0.5,2.3,0.9,2.3,2c0,1.5-1.5,2.8-3.4,2.8C175.2,198.4,174.1,198,173.2,197.2z"/>
		<path class="st0" d="M182.7,190.4h1.5l-1.6,7.8H181L182.7,190.4z M182.9,188.3c0-0.5,0.5-1,1-1c0.5,0,0.8,0.4,0.8,0.8
			c0,0.5-0.5,1-1,1C183.2,189.1,182.9,188.7,182.9,188.3z"/>
		<path class="st0" d="M192.7,192.6c0,0.6-0.1,1-1.1,5.6h-1.5c1-4.6,1-4.9,1-5.3c0-0.9-0.5-1.4-1.3-1.4c-1.2,0-2.3,0.8-2.6,1.8
			l-1,4.9h-1.5l1.6-7.8h1.5l-0.2,1c0.6-0.7,1.6-1.2,2.6-1.2C191.8,190.2,192.7,191.2,192.7,192.6z"/>
		<path class="st0" d="M200.5,187.8h4.9c1.5,0,2.5,0.9,2.5,2.2c0,1.1-0.7,2.1-2,2.8c0.8,0.4,1.4,1.3,1.4,2.1c0,1.8-1.7,3.3-3.8,3.3
			h-5.2L200.5,187.8z M203.3,196.9c1.3,0,2.5-1,2.5-2.1c0-0.8-0.7-1.3-1.6-1.3h-3.3l-0.7,3.4H203.3z M204.1,192.2
			c1.2,0,2.2-0.8,2.2-1.9c0-0.7-0.6-1.1-1.5-1.1h-3.1l-0.6,3H204.1z"/>
	</g>
	<g>
		<polygon points="167.3,119.9 167.8,120.3 167.6,121.1 150.2,126.7 149.6,126.2 149.7,125.6 		"/>
	</g>
	<g>
		<path d="M170.7,148.4c0.5,0.7,0.8,1.5,0.8,2.6c0,1.1-0.3,2.1-0.9,2.8c-0.7,0.9-1.6,1.3-2.9,1.3c-1.2,0-2.1-0.4-2.8-1.2
			c-0.6-0.7-0.9-1.7-0.9-2.8c0-1,0.3-1.9,0.8-2.6c0.7-0.9,1.6-1.4,2.9-1.4C169.1,147.2,170.1,147.6,170.7,148.4z M169.8,153.3
			c0.4-0.6,0.6-1.4,0.6-2.2c0-0.9-0.2-1.6-0.7-2.2c-0.5-0.5-1.1-0.8-1.9-0.8c-0.8,0-1.4,0.3-1.9,0.8c-0.5,0.5-0.7,1.3-0.7,2.4
			c0,0.8,0.2,1.6,0.6,2.1c0.4,0.6,1.1,0.9,2.1,0.9C168.8,154.3,169.4,153.9,169.8,153.3z"/>
	</g>
	<g>
		<polygon points="150.2,144.8 149.6,145.3 149,144.9 149,126.6 149.6,126.2 150.2,126.7 		"/>
	</g>
	<g>
		<rect x="146" y="128" width="1.2" height="15.5"/>
	</g>
	<g>
		<polygon points="162.9,148.9 162.5,150.1 149.7,146 149.6,145.3 150.2,144.8 		"/>
	</g>
	<g>
		<polygon points="178.2,135.8 179,135.8 179.3,136.4 171.6,147 170.6,146.3 		"/>
	</g>
	<g>
		<polygon points="167.6,121.1 167.8,120.3 168.4,120.2 179.3,135.2 179,135.8 178.2,135.8 		"/>
	</g>
	<g>
		<polygon points="166.1,124.3 167.1,123.6 175.7,135.4 174.7,136.1 		"/>
	</g>
	<g>
		<polygon points="197.7,136 198,136.6 196.7,137.2 179.3,136.4 179,135.8 179.3,135.2 		"/>
	</g>
	<g>
		<polygon points="209.9,122.1 211.2,122.5 199.3,136.1 198,136.6 197.7,136 		"/>
	</g>
	<g>
		<polygon points="206.6,103.9 207.7,103.1 211.2,122.5 209.9,122.1 		"/>
	</g>
	<g>
		<polygon points="190.3,95.2 190.3,94.5 191,94.2 207.7,103.1 206.6,103.9 		"/>
	</g>
	<g>
		<polygon points="173.3,102.4 172.8,102 172.9,101.3 189.8,94.1 190.3,94.5 190.3,95.2 		"/>
	</g>
	<g>
		<polygon points="175.6,104.8 175.1,103.7 190,97.3 190.5,98.5 		"/>
	</g>
	<g>
		<polygon points="168.4,120.2 167.8,120.3 167.3,119.9 172.2,102.2 172.8,102 173.3,102.4 		"/>
	</g>
	<g>
		<polygon points="192,75.9 192.6,75.6 193.2,75.9 191,94.2 190.3,94.5 189.8,94.1 		"/>
	</g>
	<g>
		<polygon points="177.3,64.9 177.5,63.5 192.5,74.7 192.6,75.6 192,75.9 		"/>
	</g>
	<g>
		<polygon points="160.4,72.1 159.3,71.3 177.5,63.5 177.3,64.9 		"/>
	</g>
	<g>
		<polygon points="158.3,90.3 157,90.9 159.3,71.3 160.4,72.1 		"/>
	</g>
	<g>
		<polygon points="172.9,101.3 172.8,102 172.2,102.2 157,90.9 158.3,90.3 		"/>
	</g>
	<g>
		<path d="M206,148.5h1.5l2.2,6.4l2.2-6.4h1.5v7.6h-1v-4.5c0-0.2,0-0.4,0-0.8c0-0.4,0-0.7,0-1.2l-2.2,6.4h-1l-2.2-6.4v0.2
			c0,0.2,0,0.5,0,0.8c0,0.4,0,0.7,0,0.8v4.5h-1V148.5z"/>
		<path d="M218.1,150.7c0.4,0.2,0.6,0.4,0.8,0.7c0.2,0.3,0.3,0.6,0.4,1c0.1,0.3,0.1,0.7,0.1,1.2h-4c0,0.6,0.1,1,0.4,1.4
			s0.6,0.5,1.1,0.5c0.5,0,0.9-0.2,1.2-0.5c0.2-0.2,0.3-0.4,0.3-0.6h0.9c0,0.2-0.1,0.4-0.2,0.7c-0.1,0.2-0.3,0.5-0.5,0.6
			c-0.3,0.3-0.6,0.5-1,0.6c-0.2,0.1-0.5,0.1-0.8,0.1c-0.7,0-1.3-0.3-1.7-0.8c-0.5-0.5-0.7-1.2-0.7-2.1c0-0.9,0.2-1.6,0.7-2.2
			c0.5-0.6,1.1-0.8,1.9-0.8C217.4,150.5,217.8,150.6,218.1,150.7z M218.5,152.9c0-0.4-0.1-0.7-0.3-1c-0.3-0.4-0.7-0.7-1.3-0.7
			c-0.4,0-0.8,0.2-1.1,0.5c-0.3,0.3-0.4,0.7-0.5,1.2H218.5z"/>
	</g>
	<g>
		<polygon points="206.7,146.1 204.5,147.7 196.7,137.2 198,136.6 199.3,136.1 		"/>
	</g>
	<g>
		<polygon points="133.2,117.4 133.2,116 149.7,125.6 149.6,126.2 149,126.6 		"/>
	</g>
	<g>
		<polygon points="117.3,126.6 116.7,126.2 116.7,125.6 133.2,116 133.2,117.4 		"/>
	</g>
	<g>
		<polygon points="120,128.5 119.4,127.5 132.9,119.7 133.5,120.8 		"/>
	</g>
	<g>
		<polygon points="117.3,144.9 116,145.6 116.1,126.6 116.7,126.2 117.3,126.6 		"/>
	</g>
	<g>
		<polygon points="133.2,154.1 133.2,155.5 116,145.6 117.3,144.9 		"/>
	</g>
	<g>
		<polygon points="133.5,150.8 132.9,151.8 119.4,144 120,143 		"/>
	</g>
	<g>
		<polygon points="149,144.9 149.6,145.3 149.7,146 133.2,155.5 133.2,154.1 		"/>
	</g>
	<g>
		<path d="M88,112.9h1v3.1H93v-3.1h1v7.6h-1v-3.5h-3.9v3.5h-1V112.9z"/>
		<path d="M101.9,114c0.5,0.7,0.8,1.5,0.8,2.6c0,1.1-0.3,2.1-0.9,2.8c-0.7,0.9-1.6,1.3-2.9,1.3c-1.2,0-2.1-0.4-2.8-1.2
			c-0.6-0.7-0.9-1.7-0.9-2.8c0-1,0.3-1.9,0.8-2.6c0.7-0.9,1.6-1.4,2.9-1.4C100.2,112.7,101.2,113.1,101.9,114z M101,118.8
			c0.4-0.6,0.6-1.4,0.6-2.2c0-0.9-0.2-1.6-0.7-2.2c-0.5-0.5-1.1-0.8-1.9-0.8c-0.8,0-1.4,0.3-1.9,0.8c-0.5,0.5-0.7,1.3-0.7,2.4
			c0,0.8,0.2,1.6,0.6,2.1c0.4,0.6,1.1,0.9,2.1,0.9C99.9,119.8,100.6,119.5,101,118.8z"/>
	</g>
	<g>
		<polygon points="103.5,119.4 104.1,118.3 116.7,125.6 116.7,126.2 116.1,126.6 		"/>
	</g>
	<g>
		<path d="M207.9,74.1h1.5l2.2,6.4l2.2-6.4h1.5v7.6h-1v-4.5c0-0.2,0-0.4,0-0.8c0-0.4,0-0.7,0-1.2l-2.2,6.4h-1l-2.2-6.4v0.2
			c0,0.2,0,0.5,0,0.8c0,0.4,0,0.7,0,0.8v4.5h-1V74.1z"/>
		<path d="M220,76.3c0.4,0.2,0.6,0.4,0.8,0.7c0.2,0.3,0.3,0.6,0.4,1c0.1,0.3,0.1,0.7,0.1,1.2h-4c0,0.6,0.1,1,0.4,1.4
			s0.6,0.5,1.1,0.5c0.5,0,0.9-0.2,1.2-0.5c0.2-0.2,0.3-0.4,0.3-0.6h0.9c0,0.2-0.1,0.4-0.2,0.7c-0.1,0.2-0.3,0.5-0.5,0.6
			c-0.3,0.3-0.6,0.5-1,0.6c-0.2,0.1-0.5,0.1-0.8,0.1c-0.7,0-1.3-0.3-1.7-0.8c-0.5-0.5-0.7-1.2-0.7-2.1c0-0.9,0.2-1.6,0.7-2.2
			c0.5-0.6,1.1-0.8,1.9-0.8C219.3,76,219.7,76.1,220,76.3z M220.4,78.5c0-0.4-0.1-0.7-0.3-1c-0.3-0.4-0.7-0.7-1.3-0.7
			c-0.4,0-0.8,0.2-1.1,0.5c-0.3,0.3-0.4,0.7-0.5,1.2H220.4z"/>
	</g>
	<g>
		<polygon points="206.7,75.2 206.2,79.3 205,79 205.5,75.3 		"/>
	</g>
	<g>
		<polygon points="202.1,75.3 201.7,78.1 200.5,77.8 200.8,75.3 		"/>
	</g>
	<g>
		<polygon points="197.4,75.4 197.3,77 196.1,76.6 196.2,75.4 		"/>
	</g>
	<g>
		<path d="M200.4,56.6h1.5l2.2,6.4l2.2-6.4h1.5v7.6h-1v-4.5c0-0.2,0-0.4,0-0.8c0-0.4,0-0.7,0-1.2l-2.2,6.4h-1l-2.2-6.4V58
			c0,0.2,0,0.5,0,0.8c0,0.4,0,0.7,0,0.8v4.5h-1V56.6z"/>
		<path d="M212.6,58.8c0.4,0.2,0.6,0.4,0.8,0.7c0.2,0.3,0.3,0.6,0.4,1c0.1,0.3,0.1,0.7,0.1,1.2h-4c0,0.6,0.1,1,0.4,1.4
			s0.6,0.5,1.1,0.5c0.5,0,0.9-0.2,1.2-0.5c0.2-0.2,0.3-0.4,0.3-0.6h0.9c0,0.2-0.1,0.4-0.2,0.7c-0.1,0.2-0.3,0.5-0.5,0.6
			c-0.3,0.3-0.6,0.5-1,0.6c-0.2,0.1-0.5,0.1-0.8,0.1c-0.7,0-1.3-0.3-1.7-0.8c-0.5-0.5-0.7-1.2-0.7-2.1c0-0.9,0.2-1.6,0.7-2.2
			s1.1-0.8,1.9-0.8C211.8,58.5,212.2,58.6,212.6,58.8z M212.9,60.9c0-0.4-0.1-0.7-0.3-1c-0.3-0.4-0.7-0.7-1.3-0.7
			c-0.4,0-0.8,0.2-1.1,0.5c-0.3,0.3-0.4,0.7-0.5,1.2H212.9z"/>
	</g>
	<g>
		<polygon points="198.4,64.5 201.7,66.9 193.2,75.9 192.6,75.6 192.5,74.7 		"/>
	</g>
</g>
</svg>
