<?xml version="1.0" encoding="utf-8"?>
<!-- Generator: Adobe Illustrator 19.2.0, SVG Export Plug-In . SVG Version: 6.00 Build 0)  -->
<svg version="1.1" id="Layer_1" xmlns="http://www.w3.org/2000/svg" xmlns:xlink="http://www.w3.org/1999/xlink" x="0px" y="0px"
	 viewBox="0 0 567 319" style="enable-background:new 0 0 567 319;" xml:space="preserve">
<style type="text/css">
	.st0{fill:#7A6AA8;}
</style>
<g>
	<path class="st0" d="M341.2,236.6l-2.2,10.6h-1.5l0.3-1.3c-0.8,0.9-1.8,1.5-3,1.5c-1.6,0-2.9-1.4-2.9-3.1c0-2.7,2.1-5,4.6-5
		c1.1,0,2,0.7,2.4,1.7l0.9-4.3H341.2z M338.3,243.4l0.1-0.3c0-0.2,0-0.4,0-0.6c0-1.1-0.9-2-2-2c-1.6,0-3.1,1.7-3.1,3.6
		c0,1.1,0.8,2,1.8,2C336.7,246,338,244.9,338.3,243.4z"/>
	<path class="st0" d="M342.9,239.3h1.5l-1.6,7.8h-1.5L342.9,239.3z M343.2,237.2c0-0.5,0.5-1,1-1c0.5,0,0.8,0.4,0.8,0.8
		c0,0.5-0.5,1-1,1C343.5,238,343.2,237.7,343.2,237.2z"/>
	<path class="st0" d="M354.1,239.3l-1.6,7.8H351l0.3-1.3c-0.8,0.9-1.8,1.5-3,1.5c-1.6,0-2.9-1.4-2.9-3.1c0-2.7,2.1-5,4.6-5
		c1.1,0,2,0.7,2.4,1.7l0.3-1.5H354.1z M351.9,242.4c0-1.1-0.9-2-2-2c-1.6,0-3.1,1.7-3.1,3.6c0,1.1,0.8,2,1.8,2
		C350.4,246,351.9,244.4,351.9,242.4z"/>
	<path class="st0" d="M354.6,246l5.5-5.4h-4.3l0.3-1.3h6.3l-0.2,1.1l-5.5,5.4h4.4l-0.3,1.3h-6.4L354.6,246z"/>
	<path class="st0" d="M362.9,244c0-2.6,2.3-4.8,5-4.8c1.9,0,3.4,1.5,3.4,3.4c0,2.6-2.3,4.8-5,4.8C364.4,247.3,362.9,245.8,362.9,244
		z M369.8,242.6c0-1.2-1-2.1-2.1-2.1c-1.8,0-3.3,1.6-3.3,3.4c0,1.2,0.9,2.1,2.1,2.1C368.3,246,369.8,244.5,369.8,242.6z"/>
	<path class="st0" d="M380.2,241.5c0,0.6-0.1,1-1.1,5.6h-1.5c1-4.6,1-4.9,1-5.3c0-0.9-0.5-1.4-1.3-1.4c-1.2,0-2.3,0.8-2.6,1.8
		l-1,4.9h-1.5l1.6-7.8h1.5l-0.2,1c0.6-0.7,1.6-1.2,2.6-1.2C379.2,239.2,380.2,240.1,380.2,241.5z"/>
	<path class="st0" d="M390.4,239.3l-1.6,7.8h-1.5l0.3-1.3c-0.8,0.9-1.8,1.5-3,1.5c-1.6,0-2.9-1.4-2.9-3.1c0-2.7,2.1-5,4.6-5
		c1.1,0,2,0.7,2.4,1.7l0.3-1.5H390.4z M388.2,242.4c0-1.1-0.9-2-2-2c-1.6,0-3.1,1.7-3.1,3.6c0,1.1,0.8,2,1.8,2
		C386.7,246,388.2,244.4,388.2,242.4z"/>
	<path class="st0" d="M403.7,241.5c0,0.5-0.1,0.8-1.1,5.7h-1.5c1-4.7,1.1-5,1.1-5.3c0-0.9-0.4-1.4-1.3-1.4c-1,0-2.1,0.7-2.3,1.8
		c-0.1,0.6-0.4,1.9-1,4.9h-1.5c1-4.7,1.1-5,1.1-5.3c0-0.8-0.4-1.4-1.3-1.4c-1,0-2,0.7-2.3,1.7l-1.1,5H391l1.6-7.8h1.5l-0.2,1
		c0.5-0.8,1.4-1.2,2.4-1.2c1.1,0,2,0.6,2.2,1.6c0.5-1,1.6-1.6,2.8-1.6C402.8,239.2,403.7,240.1,403.7,241.5z"/>
	<path class="st0" d="M406.3,239.3h1.5l-1.6,7.8h-1.5L406.3,239.3z M406.5,237.2c0-0.5,0.5-1,1-1c0.5,0,0.8,0.4,0.8,0.8
		c0,0.5-0.5,1-1,1C406.9,238,406.5,237.7,406.5,237.2z"/>
	<path class="st0" d="M418.1,236.6l-2.2,10.6h-1.5l0.3-1.3c-0.8,0.9-1.8,1.5-3,1.5c-1.6,0-2.9-1.4-2.9-3.1c0-2.7,2.1-5,4.6-5
		c1.1,0,2,0.7,2.4,1.7l0.9-4.3H418.1z M415.2,243.4l0.1-0.3c0-0.2,0-0.4,0-0.6c0-1.1-0.9-2-2-2c-1.6,0-3.1,1.7-3.1,3.6
		c0,1.1,0.8,2,1.8,2C413.5,246,414.8,244.9,415.2,243.4z"/>
	<path class="st0" d="M419.9,243.8v0.2c0,1.3,0.7,2,2,2c0.9,0,1.9-0.4,2.5-0.9l0.8,1.1c-0.8,0.7-2.3,1.2-3.4,1.2
		c-1.9,0-3.3-1.3-3.3-3.3c0-2.6,2.3-4.9,4.8-4.9c1.5,0,2.8,0.8,2.8,2.1c0,1.5-1.4,2.5-3.7,2.5H419.9z M420.2,242.6h2.4
		c1.3,0,2-0.4,2-1.1c0-0.6-0.6-1-1.5-1C421.8,240.5,420.7,241.4,420.2,242.6z"/>
	<path class="st0" d="M438.9,245h-5.4l-1.4,2.2h-1.7l6.6-10.4h1.7l0,0l2.3,10.4h-1.6L438.9,245z M438.6,243.7l-1.1-4.9l-3.1,4.9
		H438.6z"/>
</g>
<g>
	<path d="M292.1,155.5c0.5,0.7,0.8,1.5,0.8,2.6c0,1.1-0.3,2.1-0.9,2.8c-0.7,0.9-1.6,1.3-2.9,1.3c-1.2,0-2.1-0.4-2.8-1.2
		c-0.6-0.7-0.9-1.7-0.9-2.8c0-1,0.3-1.9,0.8-2.6c0.7-0.9,1.6-1.4,2.9-1.4C290.4,154.2,291.4,154.7,292.1,155.5z M291.2,160.4
		c0.4-0.6,0.6-1.4,0.6-2.2c0-0.9-0.2-1.6-0.7-2.2s-1.1-0.8-1.9-0.8c-0.8,0-1.4,0.3-1.9,0.8s-0.7,1.3-0.7,2.4c0,0.8,0.2,1.6,0.6,2.1
		c0.4,0.6,1.1,0.9,2.1,0.9C290.1,161.4,290.8,161,291.2,160.4z"/>
</g>
<g>
	<polygon points="291.2,152.7 290,152.7 290.1,138.4 291.3,138.4 	"/>
</g>
<g>
	<rect x="287" y="138.3" width="1.2" height="14.4"/>
</g>
<g>
	<polygon points="272.7,130.4 272.7,129.7 274,129.8 289.2,138.5 289.1,139.9 	"/>
</g>
<g>
	<polygon points="271.3,110.5 272.7,110.7 274.1,110.5 274,129.8 272.7,129.7 271.3,129.8 	"/>
</g>
<g>
	<path d="M244,135.4h1v3.1h3.9v-3.1h1v7.6h-1v-3.5H245v3.5h-1V135.4z"/>
	<path d="M257.8,136.5c0.5,0.7,0.8,1.5,0.8,2.6c0,1.1-0.3,2.1-0.9,2.8c-0.7,0.9-1.6,1.3-2.9,1.3c-1.2,0-2.1-0.4-2.8-1.2
		c-0.6-0.7-0.9-1.7-0.9-2.8c0-1,0.3-1.9,0.8-2.6c0.7-0.9,1.6-1.4,2.9-1.4C256.2,135.2,257.2,135.6,257.8,136.5z M256.9,141.3
		c0.4-0.6,0.6-1.4,0.6-2.2c0-0.9-0.2-1.6-0.7-2.2c-0.5-0.5-1.1-0.8-1.9-0.8c-0.8,0-1.4,0.3-1.9,0.8c-0.5,0.5-0.7,1.3-0.7,2.4
		c0,0.8,0.2,1.6,0.6,2.1c0.4,0.6,1.1,0.9,2.1,0.9C255.9,142.3,256.5,142,256.9,141.3z"/>
</g>
<g>
	<polygon points="260.2,137.5 259.6,136.5 271.3,129.8 272.7,129.7 272.7,130.4 	"/>
</g>
<g>
	<path d="M244,97.3h1.5l2.2,6.4l2.2-6.4h1.5v7.6h-1v-4.5c0-0.2,0-0.4,0-0.8c0-0.4,0-0.7,0-1.2l-2.2,6.4h-1l-2.2-6.4v0.2
		c0,0.2,0,0.5,0,0.8c0,0.4,0,0.7,0,0.8v4.5h-1V97.3z"/>
	<path d="M256.1,99.5c0.4,0.2,0.6,0.4,0.8,0.7c0.2,0.3,0.3,0.6,0.4,1c0.1,0.3,0.1,0.7,0.1,1.2h-4c0,0.6,0.1,1,0.4,1.4
		s0.6,0.5,1.1,0.5c0.5,0,0.9-0.2,1.2-0.5c0.2-0.2,0.3-0.4,0.3-0.6h0.9c0,0.2-0.1,0.4-0.2,0.7c-0.1,0.2-0.3,0.5-0.5,0.6
		c-0.3,0.3-0.6,0.5-1,0.6c-0.2,0.1-0.5,0.1-0.8,0.1c-0.7,0-1.3-0.3-1.7-0.8c-0.5-0.5-0.7-1.2-0.7-2.1c0-0.9,0.2-1.6,0.7-2.2
		c0.5-0.6,1.1-0.8,1.9-0.8C255.4,99.3,255.8,99.3,256.1,99.5z M256.5,101.7c0-0.4-0.1-0.7-0.3-1c-0.3-0.4-0.7-0.7-1.3-0.7
		c-0.4,0-0.8,0.2-1.1,0.5c-0.3,0.3-0.4,0.7-0.5,1.2H256.5z"/>
</g>
<g>
	<polygon points="259.1,103.5 259.7,102.5 272.7,109.9 272.7,110.7 271.3,110.5 	"/>
</g>
<g>
	<path d="M285.5,97.3h1.5l2.2,6.4l2.2-6.4h1.5v7.6h-1v-4.5c0-0.2,0-0.4,0-0.8c0-0.4,0-0.7,0-1.2l-2.2,6.4h-1l-2.2-6.4v0.2
		c0,0.2,0,0.5,0,0.8c0,0.4,0,0.7,0,0.8v4.5h-1V97.3z"/>
	<path d="M297.6,99.5c0.4,0.2,0.6,0.4,0.8,0.7c0.2,0.3,0.3,0.6,0.4,1c0.1,0.3,0.1,0.7,0.1,1.2h-4c0,0.6,0.1,1,0.4,1.4
		s0.6,0.5,1.1,0.5c0.5,0,0.9-0.2,1.2-0.5c0.2-0.2,0.3-0.4,0.3-0.6h0.9c0,0.2-0.1,0.4-0.2,0.7c-0.1,0.2-0.3,0.5-0.5,0.6
		c-0.3,0.3-0.6,0.5-1,0.6c-0.2,0.1-0.5,0.1-0.8,0.1c-0.7,0-1.3-0.3-1.7-0.8c-0.5-0.5-0.7-1.2-0.7-2.1c0-0.9,0.2-1.6,0.7-2.2
		c0.5-0.6,1.1-0.8,1.9-0.8C296.9,99.3,297.3,99.3,297.6,99.5z M298,101.7c0-0.4-0.1-0.7-0.3-1c-0.3-0.4-0.7-0.7-1.3-0.7
		c-0.4,0-0.8,0.2-1.1,0.5c-0.3,0.3-0.4,0.7-0.5,1.2H298z"/>
</g>
<g>
	<polygon points="283.2,103.9 283.8,104.9 274.1,110.5 272.7,110.7 272.7,109.9 	"/>
</g>
<g>
	<path d="M380.7,209.9c0.5,0.7,0.8,1.5,0.8,2.6c0,1.1-0.3,2.1-0.9,2.8c-0.7,0.9-1.6,1.3-2.9,1.3c-1.2,0-2.1-0.4-2.8-1.2
		c-0.6-0.7-0.9-1.7-0.9-2.8c0-1,0.3-1.9,0.8-2.6c0.7-0.9,1.6-1.4,2.9-1.4C379,208.6,380,209,380.7,209.9z M379.8,214.7
		c0.4-0.6,0.6-1.4,0.6-2.2c0-0.9-0.2-1.6-0.7-2.2c-0.5-0.5-1.1-0.8-1.9-0.8c-0.8,0-1.4,0.3-1.9,0.8c-0.5,0.5-0.7,1.3-0.7,2.4
		c0,0.8,0.2,1.6,0.6,2.1c0.4,0.6,1.1,0.9,2.1,0.9C378.7,215.7,379.4,215.4,379.8,214.7z"/>
</g>
<g>
	<polygon points="372,185.4 372,181.2 373.2,181.4 373.2,185.2 	"/>
</g>
<g>
	<polygon points="377.1,184.7 377.1,181.9 378.3,182 378.3,184.6 	"/>
</g>
<g>
	<polygon points="382.2,184.1 382.2,182.5 383.4,182.7 383.4,183.9 	"/>
</g>
<g>
	<polygon points="363,201.2 362.3,201.4 361.9,200.9 367.5,183.4 368.9,183.2 	"/>
</g>
<g>
	<polygon points="360.5,199 359.4,198.6 364.2,183.8 365.3,184.2 	"/>
</g>
<g>
	<polygon points="373.7,208.9 372.9,209.9 362.2,202.1 362.3,201.4 363,201.2 	"/>
</g>
<g>
	<polygon points="391.2,202.1 393.1,201.4 393.3,202 382.5,209.8 381.8,208.9 	"/>
</g>
<g>
	<polygon points="386.7,183.4 387.3,183.3 388,183.5 395.1,200.8 393.1,201.4 391.2,202.1 	"/>
</g>
<g>
	<path d="M409.2,197.6h1.2l3.8,6.1v-6.1h1v7.6H414l-3.8-6.1v6.1h-1V197.6z"/>
	<path d="M416.8,197.6h1v3.1h3.9v-3.1h1v7.6h-1v-3.5h-3.9v3.5h-1V197.6z"/>
</g>
<g>
	<polygon points="407.7,200.8 407.7,202 393.3,202 393.1,201.4 395.1,200.8 	"/>
</g>
<g>
	<polygon points="417.3,183.5 418.1,183.3 418.6,183.7 414.6,195.8 413.5,195.4 	"/>
</g>
<g>
	<polygon points="402.6,172.9 402.6,172.1 403.3,171.8 418.1,182.6 418.1,183.3 417.3,183.5 	"/>
</g>
<g>
	<polygon points="405.5,171.2 406.2,170.2 418.8,179.3 418.1,180.3 	"/>
</g>
<g>
	<polygon points="388,183.5 387.3,183.3 387.8,182.1 402.1,171.8 402.6,172.1 402.6,172.9 	"/>
</g>
<g>
	<polygon points="355.3,169.8 355.7,168.5 368.9,183.2 367.5,183.4 	"/>
</g>
<g>
	<polygon points="337.3,173.6 336.8,173.1 337,172.4 355.7,168.5 355.3,169.8 	"/>
</g>
<g>
	<polygon points="339.3,176.3 339,175.1 354.2,171.9 354.5,173.1 	"/>
</g>
<g>
	<polygon points="331.6,191.1 330.3,191.4 336.1,173.3 336.8,173.1 337.3,173.6 	"/>
</g>
<g>
	<polygon points="343.9,204.7 343.5,206 330.3,191.4 331.6,191.1 	"/>
</g>
<g>
	<polygon points="345.2,201.6 344.3,202.4 333.9,190.9 334.9,190.1 	"/>
</g>
<g>
	<polygon points="361.9,200.9 362.3,201.4 362.2,202.1 343.5,206 343.9,204.7 	"/>
</g>
<g>
	<polygon points="434.9,175.2 435.4,175.5 435.4,176.3 418.6,183.7 418.1,183.3 418.1,182.6 	"/>
</g>
<g>
	<polygon points="436.8,156.9 438.1,156.3 436.1,175.2 435.4,175.5 434.9,175.2 	"/>
</g>
<g>
	<polygon points="433.6,158 434.8,158.1 433.2,173.5 432,173.4 	"/>
</g>
<g>
	<polygon points="422,146.1 422.1,144.7 438.1,156.3 436.8,156.9 	"/>
</g>
<g>
	<polygon points="405.2,153.6 404.1,152.7 422.1,144.7 422,146.1 	"/>
</g>
<g>
	<polygon points="407.7,155.8 407.3,154.7 421.4,148.4 421.9,149.5 	"/>
</g>
<g>
	<polygon points="403.3,171.8 402.6,172.1 402.1,171.8 404.1,152.7 405.2,153.6 	"/>
</g>
<g>
	<polygon points="323.5,159.2 324.7,158.8 337,172.4 336.8,173.1 336.1,173.3 	"/>
</g>
<g>
	<polygon points="323.5,139.6 324.7,140.3 324.7,158.8 323.5,159.2 	"/>
</g>
<g>
	<polygon points="340,130.1 341.2,130.8 324.7,140.3 323.5,139.6 	"/>
</g>
<g>
	<path d="M328.3,107.6h1v3.1h3.9v-3.1h1v7.6h-1v-3.5h-3.9v3.5h-1V107.6z"/>
	<path d="M336,107.6h1.2l3.8,6.1v-6.1h1v7.6h-1.2l-3.8-6.1v6.1h-1V107.6z"/>
</g>
<g>
	<polygon points="340,116.6 341.2,116.6 341.2,130.8 340,130.1 	"/>
</g>
<g>
	<polygon points="355.7,102 357.1,101.9 357.1,102.5 344.6,109.8 344,108.7 	"/>
</g>
<g>
	<polygon points="378.1,113.6 378,114.2 376.5,114.1 357.1,102.5 357.1,101.9 358.5,102 	"/>
</g>
<g>
	<path d="M360,137.2c0.5,0.7,0.8,1.5,0.8,2.6c0,1.1-0.3,2.1-0.9,2.8c-0.7,0.9-1.6,1.3-2.9,1.3c-1.2,0-2.1-0.4-2.8-1.2
		c-0.6-0.7-0.9-1.7-0.9-2.8c0-1,0.3-1.9,0.8-2.6c0.7-0.9,1.6-1.4,2.9-1.4C358.4,135.9,359.4,136.4,360,137.2z M359.1,142.1
		c0.4-0.6,0.6-1.4,0.6-2.2c0-0.9-0.2-1.6-0.7-2.2s-1.1-0.8-1.9-0.8c-0.8,0-1.4,0.3-1.9,0.8s-0.7,1.3-0.7,2.4c0,0.8,0.2,1.6,0.6,2.1
		c0.4,0.6,1.1,0.9,2.1,0.9C358,143,358.7,142.7,359.1,142.1z"/>
</g>
<g>
	<polygon points="353.4,135.4 352.8,136.4 340.3,129.2 340.9,128.2 	"/>
</g>
<g>
	<polygon points="351.9,138 351.3,139.1 338.8,131.8 339.4,130.8 	"/>
</g>
<g>
	<path d="M374.3,129.4c0.5,0.7,0.8,1.5,0.8,2.6c0,1.1-0.3,2.1-0.9,2.8c-0.7,0.9-1.6,1.3-2.9,1.3c-1.2,0-2.1-0.4-2.8-1.2
		c-0.6-0.7-0.9-1.7-0.9-2.8c0-1,0.3-1.9,0.8-2.6c0.7-0.9,1.6-1.4,2.9-1.4C372.6,128.1,373.6,128.5,374.3,129.4z M373.4,134.2
		c0.4-0.6,0.6-1.4,0.6-2.2c0-0.9-0.2-1.6-0.7-2.2s-1.1-0.8-1.9-0.8c-0.8,0-1.4,0.3-1.9,0.8s-0.7,1.3-0.7,2.4c0,0.8,0.2,1.6,0.6,2.1
		c0.4,0.6,1.1,0.9,2.1,0.9C372.3,135.2,372.9,134.8,373.4,134.2z"/>
</g>
<g>
	<path d="M394,111.2h1.2l3.8,6.1v-6.1h1v7.6h-1.2l-3.8-6.1v6.1h-1V111.2z"/>
</g>
<g>
	<polygon points="374.6,127.3 372,126.3 376.5,114.1 378,114.2 379.2,114.9 	"/>
</g>
<g>
	<polygon points="387,142.7 386.2,143.9 385.7,145.2 374.6,136.5 376.4,134.3 	"/>
</g>
<g>
	<polygon points="401.4,133.1 402.1,133.4 402.3,134 386.8,144.2 386.2,143.9 387,142.7 	"/>
</g>
<g>
	<polygon points="398.2,131.6 398.9,132.6 386.7,140.7 386.1,139.6 	"/>
</g>
<g>
	<polygon points="398,120.9 399.2,120.6 402.6,132.8 402.1,133.4 401.4,133.1 	"/>
</g>
<g>
	<polygon points="379.2,114.9 378,114.2 378.1,113.6 392.5,114.2 392.5,115.5 	"/>
</g>
<g>
	<polygon points="380,117.9 380.1,116.7 392.4,117.3 392.4,118.5 	"/>
</g>
<g>
	<polygon points="387.8,182.1 387.3,183.3 386.7,183.4 385.7,145.2 386.2,143.9 386.8,144.2 	"/>
</g>
<g>
	<polygon points="356.3,82.7 357.7,82.8 359.1,82.8 358.5,102 357.1,101.9 355.7,102 	"/>
</g>
<g>
	<path d="M329.4,69h1.5l2.2,6.4l2.2-6.4h1.5v7.6h-1v-4.5c0-0.2,0-0.4,0-0.8c0-0.4,0-0.7,0-1.2l-2.2,6.4h-1l-2.2-6.4v0.2
		c0,0.2,0,0.5,0,0.8c0,0.4,0,0.7,0,0.8v4.5h-1V69z"/>
	<path d="M341.5,71.2c0.4,0.2,0.6,0.4,0.8,0.7c0.2,0.3,0.3,0.6,0.4,1c0.1,0.3,0.1,0.7,0.1,1.2h-4c0,0.6,0.1,1,0.4,1.4
		s0.6,0.5,1.1,0.5c0.5,0,0.9-0.2,1.2-0.5c0.2-0.2,0.3-0.4,0.3-0.6h0.9c0,0.2-0.1,0.4-0.2,0.7c-0.1,0.2-0.3,0.5-0.5,0.6
		c-0.3,0.3-0.6,0.5-1,0.6c-0.2,0.1-0.5,0.1-0.8,0.1c-0.7,0-1.3-0.3-1.7-0.8c-0.5-0.5-0.7-1.2-0.7-2.1c0-0.9,0.2-1.6,0.7-2.2
		c0.5-0.6,1.1-0.8,1.9-0.8C340.8,71,341.1,71,341.5,71.2z M341.8,73.4c0-0.4-0.1-0.7-0.3-1c-0.3-0.4-0.7-0.7-1.3-0.7
		c-0.4,0-0.8,0.2-1.1,0.5c-0.3,0.3-0.4,0.7-0.5,1.2H341.8z"/>
</g>
<g>
	<polygon points="344.5,75.3 345.1,74.3 357.7,82.2 357.7,82.8 356.3,82.7 	"/>
</g>
<g>
	<path d="M370.8,70.1h1.5l2.2,6.4l2.2-6.4h1.5v7.6h-1v-4.5c0-0.2,0-0.4,0-0.8c0-0.4,0-0.7,0-1.2l-2.2,6.4h-1l-2.2-6.4v0.2
		c0,0.2,0,0.5,0,0.8c0,0.4,0,0.7,0,0.8v4.5h-1V70.1z"/>
	<path d="M383,72.3c0.4,0.2,0.6,0.4,0.8,0.7c0.2,0.3,0.3,0.6,0.4,1c0.1,0.3,0.1,0.7,0.1,1.2h-4c0,0.6,0.1,1,0.4,1.4s0.6,0.5,1.1,0.5
		c0.5,0,0.9-0.2,1.2-0.5c0.2-0.2,0.3-0.4,0.3-0.6h0.9c0,0.2-0.1,0.4-0.2,0.7c-0.1,0.2-0.3,0.5-0.5,0.6c-0.3,0.3-0.6,0.5-1,0.6
		c-0.2,0.1-0.5,0.1-0.8,0.1c-0.7,0-1.3-0.3-1.7-0.8c-0.5-0.5-0.7-1.2-0.7-2.1c0-0.9,0.2-1.6,0.7-2.2c0.5-0.6,1.1-0.8,1.9-0.8
		C382.2,72,382.6,72.1,383,72.3z M383.3,74.5c0-0.4-0.1-0.7-0.3-1c-0.3-0.4-0.7-0.7-1.3-0.7c-0.4,0-0.8,0.2-1.1,0.5
		c-0.3,0.3-0.4,0.7-0.5,1.2H383.3z"/>
</g>
<g>
	<polygon points="368.4,76.4 369.1,77.5 359.1,82.8 357.7,82.8 357.7,82.2 	"/>
</g>
<g>
	<path d="M303.9,117.2h1v3.1h3.9v-3.1h1v7.6h-1v-3.5h-3.9v3.5h-1V117.2z"/>
</g>
<g>
	<path d="M303.9,126.1h1.2l3.8,6.1v-6.1h1v7.6h-1.2l-3.8-6.1v6.1h-1V126.1z"/>
</g>
<g>
	<polygon points="311.3,134 312.7,131.7 313.8,132.3 312.4,134.6 	"/>
</g>
<g>
	<polygon points="315.3,136.4 316.7,134 317.7,134.6 316.4,137 	"/>
</g>
<g>
	<polygon points="319.3,138.7 320.7,136.3 321.7,137 320.3,139.3 	"/>
</g>
<g>
	<polygon points="470.2,214.8 470.2,216.2 453.2,206.3 454.4,205.6 	"/>
</g>
<g>
	<polygon points="470.5,211.4 469.9,212.5 456.5,204.7 457.1,203.7 	"/>
</g>
<g>
	<polygon points="486.2,205.6 487.4,206.3 470.2,216.2 470.2,214.8 	"/>
</g>
<g>
	<polygon points="486.2,187.3 486.8,186.9 487.4,187.2 487.4,206.3 486.2,205.6 	"/>
</g>
<g>
	<rect x="483.1" y="188.7" width="1.2" height="15.5"/>
</g>
<g>
	<polygon points="470.2,178.1 470.2,177.4 470.9,177.1 486.6,186.2 486.8,186.9 486.2,187.3 	"/>
</g>
<g>
	<polygon points="454.4,187.3 453.8,186.9 453.8,186.2 469.7,177 470.2,177.4 470.2,178.1 	"/>
</g>
<g>
	<polygon points="457.1,189.2 456.5,188.2 469.9,180.4 470.5,181.4 	"/>
</g>
<g>
	<polygon points="454.4,205.6 453.2,206.3 453.2,187.2 453.8,186.9 454.4,187.3 	"/>
</g>
<g>
	<polygon points="435.4,176.3 435.4,175.5 436.1,175.2 453.8,186.2 453.8,186.9 453.2,187.2 	"/>
</g>
<g>
	<path d="M497.9,170.4h1.2l3.8,6.1v-6.1h1v7.6h-1.2l-3.8-6.1v6.1h-1V170.4z"/>
	<path d="M505.5,170.4h1v3.1h3.9v-3.1h1v7.6h-1v-3.5h-3.9v3.5h-1V170.4z"/>
</g>
<g>
	<polygon points="495.9,177.9 496.7,178.8 487.4,187.2 486.8,186.9 486.6,186.2 	"/>
</g>
<g>
	<polygon points="492.8,157.4 493.1,156.8 493.8,156.8 498.9,168.2 497.8,168.7 	"/>
</g>
<g>
	<polygon points="474.7,159.3 474.2,158.8 474.6,158.1 492.8,156.2 493.1,156.8 492.8,157.4 	"/>
</g>
<g>
	<polygon points="476.8,162.2 476.7,161 491.2,159.4 491.3,160.6 	"/>
</g>
<g>
	<polygon points="470.9,177.1 470.2,177.4 469.7,177 473.6,158.9 474.2,158.8 474.7,159.3 	"/>
</g>
<g>
	<path d="M449.6,144.2c0.5,0.7,0.8,1.5,0.8,2.6c0,1.1-0.3,2.1-0.9,2.8c-0.7,0.9-1.6,1.3-2.9,1.3c-1.2,0-2.1-0.4-2.8-1.2
		c-0.6-0.7-0.9-1.7-0.9-2.8c0-1,0.3-1.9,0.8-2.6c0.7-0.9,1.6-1.4,2.9-1.4C447.9,142.9,448.9,143.3,449.6,144.2z M448.7,149
		c0.4-0.6,0.6-1.4,0.6-2.2c0-0.9-0.2-1.6-0.7-2.2s-1.1-0.8-1.9-0.8c-0.8,0-1.4,0.3-1.9,0.8s-0.7,1.3-0.7,2.4c0,0.8,0.2,1.6,0.6,2.1
		c0.4,0.6,1.1,0.9,2.1,0.9C447.6,150,448.3,149.7,448.7,149z"/>
</g>
<g>
	<path d="M438.5,112.7h1.2l3.8,6.1v-6.1h1v7.6h-1.2l-3.8-6.1v6.1h-1V112.7z"/>
</g>
<g>
	<polygon points="462.7,136.9 463.5,138.1 463.6,139.6 452.1,145.6 450.8,143.1 	"/>
</g>
<g>
	<polygon points="459.8,119.8 460.3,119.3 461,119.5 464.1,137.9 463.5,138.1 462.7,136.9 	"/>
</g>
<g>
	<polygon points="457.1,122.1 458.3,121.9 460.7,136.3 459.6,136.5 	"/>
</g>
<g>
	<polygon points="445.8,117.7 446,116.5 460.2,118.6 460.3,119.3 459.8,119.8 	"/>
</g>
<g>
	<polygon points="434.1,132.7 433,133.5 432.6,132.9 438.2,121.8 439.3,122.3 	"/>
</g>
<g>
	<polygon points="437.3,133.2 436.2,132.6 441,123.1 442,123.7 	"/>
</g>
<g>
	<polygon points="443.6,142 441.7,144 431.7,134.1 433,133.5 434.1,132.7 	"/>
</g>
<g>
	<polygon points="402.3,134 402.1,133.4 402.6,132.8 432.6,132.9 433,133.5 431.7,134.1 	"/>
</g>
<g>
	<polygon points="474.6,158.1 474.2,158.8 473.6,158.9 463.6,139.6 463.5,138.1 464.1,137.9 	"/>
</g>
<g>
	<path d="M505,137.1c0.5,0.5,0.8,1.1,0.9,1.7h-1c-0.1-0.5-0.3-0.9-0.7-1.2c-0.3-0.3-0.8-0.4-1.4-0.4c-0.7,0-1.3,0.3-1.8,0.8
		c-0.5,0.5-0.7,1.3-0.7,2.4c0,0.9,0.2,1.6,0.6,2.2c0.4,0.6,1,0.8,1.8,0.8c0.7,0,1.3-0.3,1.7-0.9c0.2-0.3,0.4-0.7,0.5-1.2h1
		c-0.1,0.8-0.4,1.5-0.9,2c-0.6,0.7-1.4,1-2.4,1c-0.9,0-1.6-0.3-2.2-0.8c-0.8-0.7-1.2-1.8-1.2-3.3c0-1.1,0.3-2,0.9-2.8
		c0.6-0.8,1.5-1.2,2.6-1.2C503.8,136.3,504.5,136.6,505,137.1z"/>
	<path d="M507.2,136.5h0.9v7.6h-0.9V136.5z"/>
</g>
<g>
	<polygon points="499.4,144.7 500.5,145.3 493.8,156.8 493.1,156.8 492.8,156.2 	"/>
</g>
<g>
	<path d="M476,102.5c0.5,0.5,0.8,1.1,0.9,1.7h-1c-0.1-0.5-0.3-0.9-0.7-1.2c-0.3-0.3-0.8-0.4-1.4-0.4c-0.7,0-1.3,0.3-1.8,0.8
		c-0.5,0.5-0.7,1.3-0.7,2.4c0,0.9,0.2,1.6,0.6,2.2c0.4,0.6,1,0.8,1.8,0.8c0.7,0,1.3-0.3,1.7-0.9c0.2-0.3,0.4-0.7,0.5-1.2h1
		c-0.1,0.8-0.4,1.5-0.9,2c-0.6,0.7-1.4,1-2.4,1c-0.9,0-1.6-0.3-2.2-0.8c-0.8-0.7-1.2-1.8-1.2-3.3c0-1.1,0.3-2,0.9-2.8
		c0.6-0.8,1.5-1.2,2.6-1.2C474.7,101.7,475.5,102,476,102.5z"/>
	<path d="M478.2,101.9h0.9v7.6h-0.9V101.9z"/>
</g>
<g>
	<polygon points="469.5,109.1 470.4,109.9 461,119.5 460.3,119.3 460.2,118.6 	"/>
</g>
<g>
	<polygon points="301.4,132.1 301.9,133.1 289.1,139.9 289.2,138.5 	"/>
</g>
<g>
	<path class="st0" d="M98.9,236.9l-0.7,0.9c-0.1-0.2-0.4-0.3-0.6-0.3c-0.6,0-1.1,0.5-1.2,1l-0.2,0.8h1.8l-0.3,1.3H96l-1.4,6.5h-1.5
		l1.4-6.5h-1.2l0.3-1.3h1.2l0.2-1c0.3-1.3,1.2-2.1,2.4-2.1C98,236.3,98.6,236.6,98.9,236.9z"/>
	<path class="st0" d="M104.1,239.2l-0.2,1.3c-1.6,0-3,1-3.4,2.3l-0.9,4.4h-1.5l1.6-7.8h1.5l-0.3,1.4
		C101.6,239.8,102.8,239.2,104.1,239.2z"/>
	<path class="st0" d="M104.5,244c0-2.6,2.3-4.8,5-4.8c1.9,0,3.4,1.5,3.4,3.4c0,2.6-2.3,4.8-5,4.8C106,247.4,104.5,245.9,104.5,244z
		 M111.3,242.6c0-1.2-1-2.1-2.1-2.1c-1.8,0-3.3,1.6-3.3,3.4c0,1.2,0.9,2.1,2.1,2.1C109.8,246.1,111.3,244.5,111.3,242.6z"/>
	<path class="st0" d="M121.7,241.6c0,0.6-0.1,1-1.1,5.6h-1.5c1-4.6,1-4.9,1-5.3c0-0.9-0.5-1.4-1.3-1.4c-1.2,0-2.3,0.8-2.6,1.8
		l-1,4.9h-1.5l1.6-7.8h1.5l-0.2,1c0.6-0.7,1.6-1.2,2.6-1.2C120.7,239.2,121.7,240.2,121.7,241.6z"/>
	<path class="st0" d="M132.5,236.6l-2.2,10.6h-1.5l0.3-1.3c-0.8,0.9-1.8,1.5-3,1.5c-1.6,0-2.9-1.4-2.9-3.1c0-2.7,2.1-5.1,4.6-5.1
		c1.1,0,2,0.7,2.4,1.7l0.9-4.3H132.5z M129.6,243.4l0.1-0.3c0-0.2,0-0.4,0-0.6c0-1.1-0.9-2-2-2c-1.6,0-3.1,1.7-3.1,3.6
		c0,1.1,0.8,2,1.8,2C127.9,246.1,129.2,244.9,129.6,243.4z"/>
	<path class="st0" d="M132.9,244c0-2.6,2.3-4.8,5-4.8c1.9,0,3.4,1.5,3.4,3.4c0,2.6-2.3,4.8-5,4.8C134.4,247.4,132.9,245.9,132.9,244
		z M139.8,242.6c0-1.2-1-2.1-2.1-2.1c-1.8,0-3.3,1.6-3.3,3.4c0,1.2,0.9,2.1,2.1,2.1C138.2,246.1,139.8,244.5,139.8,242.6z"/>
	<path class="st0" d="M141.8,246.2l0.9-1c0.7,0.6,1.6,0.9,2.4,0.9c1,0,1.9-0.6,1.9-1.3c0-0.4-0.3-0.7-1.5-1
		c-1.6-0.5-2.4-0.9-2.4-1.9c0-1.6,1.4-2.7,3.3-2.7c1,0,2,0.4,2.8,0.9l-0.8,1.1c-0.6-0.5-1.3-0.7-2-0.7c-1,0-1.8,0.5-1.8,1.2
		c0,0.3,0.4,0.6,1.5,1c1.5,0.5,2.3,0.9,2.3,2c0,1.5-1.5,2.8-3.4,2.8C143.8,247.4,142.6,246.9,141.8,246.2z"/>
	<path class="st0" d="M151.3,239.4h1.5l-1.6,7.8h-1.5L151.3,239.4z M151.5,237.2c0-0.5,0.5-1,1-1c0.5,0,0.8,0.4,0.8,0.8
		c0,0.5-0.5,1-1,1C151.8,238.1,151.5,237.7,151.5,237.2z"/>
	<path class="st0" d="M161.3,241.6c0,0.6-0.1,1-1.1,5.6h-1.5c1-4.6,1-4.9,1-5.3c0-0.9-0.5-1.4-1.3-1.4c-1.2,0-2.3,0.8-2.6,1.8
		l-1,4.9h-1.5l1.6-7.8h1.5l-0.2,1c0.6-0.7,1.6-1.2,2.6-1.2C160.3,239.2,161.3,240.2,161.3,241.6z"/>
	<path class="st0" d="M169.1,236.8h4.9c1.5,0,2.5,0.9,2.5,2.2c0,1.1-0.7,2.1-2,2.8c0.8,0.4,1.4,1.3,1.4,2.1c0,1.8-1.7,3.3-3.8,3.3
		h-5.2L169.1,236.8z M171.9,245.9c1.3,0,2.4-1,2.4-2.1c0-0.8-0.7-1.3-1.6-1.3h-3.3l-0.7,3.4H171.9z M172.6,241.1
		c1.2,0,2.2-0.8,2.2-1.9c0-0.7-0.6-1.1-1.5-1.1h-3.1l-0.6,3H172.6z"/>
</g>
<g>
	<polygon points="135.9,168.8 136.4,169.3 136.1,170 118.8,175.6 118.2,175.2 118.3,174.6 	"/>
</g>
<g>
	<path d="M139.3,197.4c0.5,0.7,0.8,1.5,0.8,2.6c0,1.1-0.3,2.1-0.9,2.8c-0.7,0.9-1.6,1.3-2.9,1.3c-1.2,0-2.1-0.4-2.8-1.2
		c-0.6-0.7-0.9-1.7-0.9-2.8c0-1,0.3-1.9,0.8-2.6c0.7-0.9,1.6-1.4,2.9-1.4C137.7,196.1,138.7,196.5,139.3,197.4z M138.4,202.2
		c0.4-0.6,0.6-1.4,0.6-2.2c0-0.9-0.2-1.6-0.7-2.2c-0.5-0.5-1.1-0.8-1.9-0.8c-0.8,0-1.4,0.3-1.9,0.8c-0.5,0.5-0.7,1.3-0.7,2.4
		c0,0.8,0.2,1.6,0.6,2.1c0.4,0.6,1.1,0.9,2.1,0.9C137.3,203.2,138,202.9,138.4,202.2z"/>
</g>
<g>
	<polygon points="118.8,193.8 118.2,194.2 117.6,193.9 117.6,175.5 118.2,175.2 118.8,175.6 	"/>
</g>
<g>
	<rect x="114.6" y="177" width="1.2" height="15.5"/>
</g>
<g>
	<polygon points="131.5,197.9 131.1,199.1 118.3,194.9 118.2,194.2 118.8,193.8 	"/>
</g>
<g>
	<polygon points="146.8,184.7 147.5,184.7 147.8,185.4 140.1,195.9 139.2,195.2 	"/>
</g>
<g>
	<polygon points="136.1,170 136.4,169.3 137,169.2 147.8,184.2 147.5,184.7 146.8,184.7 	"/>
</g>
<g>
	<polygon points="134.7,173.3 135.7,172.6 144.3,184.4 143.3,185.1 	"/>
</g>
<g>
	<polygon points="166.3,184.9 166.5,185.6 165.3,186.1 147.8,185.4 147.5,184.7 147.8,184.2 	"/>
</g>
<g>
	<polygon points="178.5,171.1 179.7,171.4 167.9,185 166.5,185.6 166.3,184.9 	"/>
</g>
<g>
	<polygon points="175.2,152.9 176.3,152.1 179.7,171.4 178.5,171.1 	"/>
</g>
<g>
	<polygon points="158.9,144.1 158.9,143.5 159.6,143.2 176.3,152.1 175.2,152.9 	"/>
</g>
<g>
	<polygon points="141.9,151.4 141.4,151 141.5,150.3 158.4,143 158.9,143.5 158.9,144.1 	"/>
</g>
<g>
	<polygon points="144.2,153.7 143.7,152.6 158.5,146.3 159,147.4 	"/>
</g>
<g>
	<polygon points="137,169.2 136.4,169.3 135.9,168.8 140.7,151.2 141.4,151 141.9,151.4 	"/>
</g>
<g>
	<polygon points="160.6,124.8 161.2,124.6 161.8,124.8 159.6,143.2 158.9,143.5 158.4,143 	"/>
</g>
<g>
	<polygon points="145.9,113.8 146.1,112.4 161,123.7 161.2,124.6 160.6,124.8 	"/>
</g>
<g>
	<polygon points="129,121 127.9,120.2 146.1,112.4 145.9,113.8 	"/>
</g>
<g>
	<polygon points="126.8,139.3 125.6,139.8 127.9,120.2 129,121 	"/>
</g>
<g>
	<polygon points="141.5,150.3 141.4,151 140.7,151.2 125.6,139.8 126.8,139.3 	"/>
</g>
<g>
	<path d="M174.6,197.5h1.5l2.2,6.4l2.2-6.4h1.5v7.6h-1v-4.5c0-0.2,0-0.4,0-0.8s0-0.7,0-1.2l-2.2,6.4h-1l-2.2-6.4v0.2
		c0,0.2,0,0.5,0,0.8c0,0.4,0,0.7,0,0.8v4.5h-1V197.5z"/>
	<path d="M186.7,199.7c0.4,0.2,0.6,0.4,0.8,0.7c0.2,0.3,0.3,0.6,0.4,1c0.1,0.3,0.1,0.7,0.1,1.2h-4c0,0.6,0.1,1,0.4,1.4
		c0.2,0.3,0.6,0.5,1.1,0.5c0.5,0,0.9-0.2,1.2-0.5c0.2-0.2,0.3-0.4,0.3-0.6h0.9c0,0.2-0.1,0.4-0.2,0.7c-0.1,0.2-0.3,0.5-0.5,0.6
		c-0.3,0.3-0.6,0.5-1,0.6c-0.2,0.1-0.5,0.1-0.8,0.1c-0.7,0-1.3-0.3-1.7-0.8c-0.5-0.5-0.7-1.2-0.7-2.1c0-0.9,0.2-1.6,0.7-2.2
		c0.5-0.6,1.1-0.8,1.9-0.8C185.9,199.4,186.3,199.5,186.7,199.7z M187,201.9c0-0.4-0.1-0.7-0.3-1c-0.3-0.4-0.7-0.7-1.3-0.7
		c-0.4,0-0.8,0.2-1.1,0.5c-0.3,0.3-0.4,0.7-0.5,1.2H187z"/>
</g>
<g>
	<polygon points="175.3,195 173.1,196.7 165.3,186.1 166.5,185.6 167.9,185 	"/>
</g>
<g>
	<polygon points="101.7,166.4 101.7,165 118.3,174.6 118.2,175.2 117.6,175.5 	"/>
</g>
<g>
	<polygon points="85.9,175.5 85.3,175.2 85.3,174.5 101.7,165 101.7,166.4 	"/>
</g>
<g>
	<polygon points="88.6,177.5 88,176.4 101.4,168.7 102,169.7 	"/>
</g>
<g>
	<polygon points="85.9,193.9 84.6,194.6 84.7,175.5 85.3,175.2 85.9,175.5 	"/>
</g>
<g>
	<polygon points="101.7,203.1 101.7,204.5 84.6,194.6 85.9,193.9 	"/>
</g>
<g>
	<polygon points="102,199.7 101.4,200.8 88,193 88.6,192 	"/>
</g>
<g>
	<polygon points="117.6,193.9 118.2,194.2 118.3,194.9 101.7,204.5 101.7,203.1 	"/>
</g>
<g>
	<path d="M56.6,161.9h1v3.1h3.9v-3.1h1v7.6h-1v-3.5h-3.9v3.5h-1V161.9z"/>
	<path d="M70.5,162.9c0.5,0.7,0.8,1.5,0.8,2.6c0,1.1-0.3,2.1-0.9,2.8c-0.7,0.9-1.6,1.3-2.9,1.3c-1.2,0-2.1-0.4-2.8-1.2
		c-0.6-0.7-0.9-1.7-0.9-2.8c0-1,0.3-1.9,0.8-2.6c0.7-0.9,1.6-1.4,2.9-1.4C68.8,161.7,69.8,162.1,70.5,162.9z M69.5,167.8
		c0.4-0.6,0.6-1.4,0.6-2.2c0-0.9-0.2-1.6-0.7-2.2c-0.5-0.5-1.1-0.8-1.9-0.8c-0.8,0-1.4,0.3-1.9,0.8c-0.5,0.5-0.7,1.3-0.7,2.4
		c0,0.8,0.2,1.5,0.6,2.1c0.4,0.6,1.1,0.9,2.1,0.9C68.5,168.8,69.1,168.4,69.5,167.8z"/>
</g>
<g>
	<polygon points="72.1,168.3 72.7,167.3 85.3,174.5 85.3,175.2 84.7,175.5 	"/>
</g>
<g>
	<path d="M176.5,123.1h1.5l2.2,6.4l2.2-6.4h1.5v7.6h-1v-4.5c0-0.2,0-0.4,0-0.8c0-0.4,0-0.7,0-1.2l-2.2,6.4h-1l-2.2-6.4v0.2
		c0,0.2,0,0.5,0,0.8c0,0.4,0,0.7,0,0.8v4.5h-1V123.1z"/>
	<path d="M188.6,125.3c0.4,0.2,0.6,0.4,0.8,0.7c0.2,0.3,0.3,0.6,0.4,1c0.1,0.3,0.1,0.7,0.1,1.2h-4c0,0.6,0.1,1,0.4,1.4
		s0.6,0.5,1.1,0.5c0.5,0,0.9-0.2,1.2-0.5c0.2-0.2,0.3-0.4,0.3-0.6h0.9c0,0.2-0.1,0.4-0.2,0.7c-0.1,0.2-0.3,0.5-0.5,0.6
		c-0.3,0.3-0.6,0.5-1,0.6c-0.2,0.1-0.5,0.1-0.8,0.1c-0.7,0-1.3-0.3-1.7-0.8c-0.5-0.5-0.7-1.2-0.7-2.1c0-0.9,0.2-1.6,0.7-2.2
		c0.5-0.6,1.1-0.8,1.9-0.8C187.9,125,188.3,125.1,188.6,125.3z M189,127.4c0-0.4-0.1-0.7-0.3-1c-0.3-0.4-0.7-0.7-1.3-0.7
		c-0.4,0-0.8,0.2-1.1,0.5c-0.3,0.3-0.4,0.7-0.5,1.2H189z"/>
</g>
<g>
	<polygon points="175.3,124.2 174.8,128.3 173.6,128 174.1,124.2 	"/>
</g>
<g>
	<polygon points="170.6,124.3 170.3,127.1 169.1,126.8 169.4,124.3 	"/>
</g>
<g>
	<polygon points="166,124.4 165.8,125.9 164.7,125.6 164.8,124.4 	"/>
</g>
<g>
	<path d="M169,105.5h1.5l2.2,6.4l2.2-6.4h1.5v7.6h-1v-4.5c0-0.2,0-0.4,0-0.8c0-0.4,0-0.7,0-1.2l-2.2,6.4h-1l-2.2-6.4v0.2
		c0,0.2,0,0.5,0,0.8c0,0.4,0,0.7,0,0.8v4.5h-1V105.5z"/>
	<path d="M181.1,107.7c0.4,0.2,0.6,0.4,0.8,0.7c0.2,0.3,0.3,0.6,0.4,1c0.1,0.3,0.1,0.7,0.1,1.2h-4c0,0.6,0.1,1,0.4,1.4
		s0.6,0.5,1.1,0.5c0.5,0,0.9-0.2,1.2-0.5c0.2-0.2,0.3-0.4,0.3-0.6h0.9c0,0.2-0.1,0.4-0.2,0.7c-0.1,0.2-0.3,0.5-0.5,0.6
		c-0.3,0.3-0.6,0.5-1,0.6c-0.2,0.1-0.5,0.1-0.8,0.1c-0.7,0-1.3-0.3-1.7-0.8c-0.5-0.5-0.7-1.2-0.7-2.1c0-0.9,0.2-1.6,0.7-2.2
		c0.5-0.6,1.1-0.8,1.9-0.8C180.4,107.5,180.8,107.5,181.1,107.7z M181.5,109.9c0-0.4-0.1-0.7-0.3-1c-0.3-0.4-0.7-0.7-1.3-0.7
		c-0.4,0-0.8,0.2-1.1,0.5c-0.3,0.3-0.4,0.7-0.5,1.2H181.5z"/>
</g>
<g>
	<polygon points="167,113.5 170.3,115.9 161.8,124.8 161.2,124.6 161,123.7 	"/>
</g>
</svg>
