<svg id="organocatalysis" version="1.1" xmlns="http://www.w3.org/2000/svg" xmlns:xlink="http://www.w3.org/1999/xlink" viewBox="0 0 404.8 410.8">
<g>
	<path d="M184.6,113.3h1.8l5.7,9.3v-9.3h1.5v11.5h-1.7l-5.8-9.3v9.3h-1.5V113.3z"/>
</g>
<g>
	<path d="M199.7,159.8h1.8l5.7,9.3v-9.3h1.5v11.5H207l-5.8-9.3v9.3h-1.5V159.8z"/>
</g>
<g>
	<path d="M199.7,173.2h1.6v4.7h5.9v-4.7h1.6v11.5h-1.6v-5.4h-5.9v5.4h-1.6V173.2z"/>
</g>
<polygon points="220.1,118.1 218.7,120 196,120 196,118.1 "/>
<polygon points="229,145.5 228.7,147.8 227.6,147.4 218.7,120 220.1,118.1 "/>
<polygon points="212.5,160.8 211.3,159.2 227.6,147.4 228.7,147.8 227.7,149.7 "/>
<polygon points="180.8,149.7 179.8,147.8 180.9,147.4 197.2,159.2 196.1,160.8 "/>
<polygon points="185.4,127.5 187.2,128.1 180.9,147.4 179.8,147.8 179.6,145.4 "/>
<g>
	<path d="M153,88.9h2.2l3.3,9.7l3.3-9.7h2.2v11.5h-1.5v-6.8c0-0.2,0-0.6,0-1.2s0-1.1,0-1.7l-3.3,9.7h-1.5l-3.3-9.7V91
		c0,0.3,0,0.7,0,1.3s0,1,0,1.3v6.8H153V88.9z"/>
	<path d="M171.3,92.2c0.6,0.3,1,0.6,1.3,1.1c0.3,0.4,0.5,0.9,0.6,1.5c0.1,0.4,0.1,1,0.1,1.8h-6.1c0,0.9,0.2,1.5,0.6,2
		s0.9,0.8,1.7,0.8c0.7,0,1.3-0.2,1.7-0.7c0.2-0.3,0.4-0.6,0.5-1h1.4c0,0.3-0.2,0.6-0.4,1s-0.4,0.7-0.7,0.9c-0.4,0.4-0.9,0.7-1.6,0.8
		c-0.3,0.1-0.7,0.1-1.1,0.1c-1,0-1.9-0.4-2.6-1.1s-1.1-1.8-1.1-3.2c0-1.3,0.4-2.4,1.1-3.3s1.7-1.3,2.8-1.3
		C170.2,91.8,170.8,91.9,171.3,92.2z M171.8,95.5c-0.1-0.6-0.2-1.1-0.4-1.5c-0.4-0.7-1-1-1.9-1c-0.6,0-1.2,0.2-1.6,0.7
		s-0.7,1.1-0.7,1.8H171.8z"/>
</g>
<polygon points="174.7,100.8 176.3,99.7 184.2,110.6 182.7,111.7 "/>
<g>
	<path d="M250.3,154h5.1c1,0,1.8,0.3,2.5,0.9s0.9,1.4,0.9,2.4c0,0.9-0.3,1.7-0.8,2.3c-0.6,0.7-1.4,1-2.6,1h-3.6v4.9h-1.6V154z
		 M256.3,155.6c-0.3-0.2-0.8-0.2-1.4-0.2h-3.1v4h3.1c0.7,0,1.3-0.1,1.7-0.4s0.6-0.8,0.6-1.6C257.2,156.5,256.9,155.9,256.3,155.6z"
		/>
	<path d="M260.6,154h1.4v4.3c0.3-0.4,0.6-0.7,0.9-0.9c0.5-0.3,1-0.4,1.7-0.4c1.2,0,2,0.4,2.5,1.3c0.2,0.5,0.4,1.1,0.4,1.9v5.4H266
		v-5.3c0-0.6-0.1-1.1-0.2-1.4c-0.3-0.5-0.7-0.7-1.4-0.7c-0.6,0-1.1,0.2-1.6,0.6s-0.7,1.2-0.7,2.3v4.4h-1.4V154z"/>
</g>
<polygon points="247.6,154.1 245.7,158.1 227.7,149.7 228.7,147.8 229,145.5 "/>
<g>
	<path d="M241.6,90.5c0.8,1,1.1,2.3,1.1,3.9c0,1.7-0.4,3.1-1.3,4.3c-1,1.3-2.5,2-4.4,2c-1.8,0-3.2-0.6-4.2-1.8
		c-0.9-1.1-1.4-2.5-1.4-4.3c0-1.6,0.4-2.9,1.2-4c1-1.4,2.5-2.1,4.4-2.1C239.1,88.5,240.6,89.2,241.6,90.5z M240.2,97.8
		c0.6-1,0.9-2.1,0.9-3.4c0-1.4-0.4-2.4-1.1-3.3s-1.7-1.2-2.9-1.2c-1.2,0-2.2,0.4-2.9,1.2s-1.1,2-1.1,3.6c0,1.3,0.3,2.3,1,3.2
		s1.7,1.3,3.1,1.3C238.6,99.3,239.6,98.8,240.2,97.8z"/>
</g>
<polygon points="229.4,99.5 231,100.6 217.2,119.6 215.6,118.5 "/>
<polygon points="233.3,102.3 234.9,103.4 221.1,122.4 219.5,121.3 "/>
<g>
	<path d="M129.7,157.9h1.4l-0.5,2.3h1.3l-0.2,1.1h-1.3l-1.2,5.5c-0.1,0.3,0,0.5,0.2,0.6c0.1,0.1,0.3,0.1,0.5,0.1c0.1,0,0.1,0,0.2,0
		s0.2,0,0.3,0l-0.2,1.1c-0.2,0-0.3,0.1-0.5,0.1s-0.4,0-0.6,0c-0.7,0-1.1-0.2-1.2-0.5s-0.2-0.8-0.1-1.3l1.2-5.5h-1.1l0.2-1.1h1.1
		L129.7,157.9z"/>
	<path d="M132.3,163.5h3.9l-0.3,1.4H132L132.3,163.5z"/>
</g>
<g>
	<path d="M137.4,157.2h5c1.4,0,2.3,0.4,2.9,1.2c0.3,0.5,0.5,1,0.5,1.6c0,0.7-0.2,1.3-0.6,1.8c-0.2,0.2-0.5,0.5-0.9,0.7
		c0.6,0.2,1,0.5,1.3,0.8c0.5,0.5,0.8,1.2,0.8,2.1c0,0.7-0.2,1.4-0.7,2c-0.7,0.9-1.8,1.3-3.3,1.3h-4.9V157.2z M141.8,162
		c0.7,0,1.2-0.1,1.5-0.3c0.6-0.3,0.9-0.8,0.9-1.5c0-0.8-0.3-1.3-0.9-1.5c-0.3-0.1-0.9-0.2-1.5-0.2H139v3.6H141.8z M142.3,167.3
		c1,0,1.6-0.3,2.1-0.8c0.3-0.3,0.4-0.8,0.4-1.3c0-0.8-0.4-1.4-1.1-1.7c-0.4-0.2-0.9-0.2-1.6-0.2H139v4H142.3z"/>
	<path d="M149.4,160.3v5.6c0,0.4,0.1,0.8,0.2,1c0.2,0.5,0.7,0.8,1.4,0.8c1,0,1.6-0.4,1.9-1.3c0.2-0.5,0.3-1.1,0.3-1.9v-4.1h1.4v8.4
		h-1.3l0-1.2c-0.2,0.3-0.4,0.6-0.7,0.8c-0.5,0.4-1.2,0.7-1.9,0.7c-1.2,0-2-0.4-2.4-1.2c-0.2-0.4-0.3-1-0.3-1.7v-5.7H149.4z"/>
</g>
<polygon points="158.6,162.5 156.4,158.8 179.6,145.4 179.8,147.8 180.8,149.7 "/>
<circle cx="202" cy="208" r="197.8" stroke="#3B97C8" fill="none" stroke-width="9" style="stroke-dasharray: 1215 1600; stroke-dashoffset: 300; transform-origin: 50%; transform: rotate(-42deg);"></circle>
<g>
	<path d="M169.9,233c0-0.6,0.5-1.2,1.2-1.2c0.6,0,1.2,0.6,1.2,1.2c0,0.6-0.5,1.2-1.2,1.2C170.4,234.2,169.9,233.6,169.9,233z
		 M170.1,235.9h2v10.3h-2V235.9z"/>
	<path d="M190.2,239.6v6.6h-1.9v-6.3c0-1.5-0.9-2.6-2.2-2.6c-1.5,0-2.5,1-2.5,2.4v6.5h-1.9v-6.3c0-1.5-0.9-2.6-2.2-2.6
		c-1.5,0-2.5,1-2.5,2.4v6.5h-2v-10.3h2v1.4c0.5-1,1.6-1.7,2.9-1.7c1.5,0,2.7,0.8,3.3,2.1c0.5-1.3,1.8-2.1,3.4-2.1
		C188.7,235.6,190.2,237.3,190.2,239.6z"/>
	<path d="M192.8,233c0-0.6,0.5-1.2,1.2-1.2c0.6,0,1.2,0.6,1.2,1.2c0,0.6-0.5,1.2-1.2,1.2C193.4,234.2,192.8,233.6,192.8,233z
		 M193,235.9h2v10.3h-2V235.9z"/>
	<path d="M207,239.6v6.6h-1.9V240c0-1.5-1-2.6-2.4-2.6c-1.4,0-2.7,0.9-2.8,2.2v6.7h-2v-10.3h2v1.5c0.6-1,1.9-1.7,3.3-1.7
		C205.4,235.6,207,237.3,207,239.6z"/>
	<path d="M209.6,233c0-0.6,0.5-1.2,1.2-1.2c0.6,0,1.2,0.6,1.2,1.2c0,0.6-0.5,1.2-1.2,1.2C210.2,234.2,209.6,233.6,209.6,233z
		 M209.8,235.9h2v10.3h-2V235.9z"/>
	<path d="M223.8,235.9v10.3h-2v-1.5c-0.6,1-1.9,1.7-3.3,1.7c-2.3,0-3.9-1.7-3.9-4v-6.6h1.9v6.2c0,1.5,1,2.6,2.4,2.6
		c1.4,0,2.7-0.9,2.8-2.2v-6.7H223.8z"/>
	<path d="M241.9,239.6v6.6H240v-6.3c0-1.5-0.9-2.6-2.2-2.6c-1.5,0-2.5,1-2.5,2.4v6.5h-1.9v-6.3c0-1.5-0.9-2.6-2.2-2.6
		c-1.5,0-2.5,1-2.5,2.4v6.5h-2v-10.3h2v1.4c0.5-1,1.6-1.7,2.9-1.7c1.5,0,2.7,0.8,3.3,2.1c0.5-1.3,1.8-2.1,3.4-2.1
		C240.4,235.6,241.9,237.3,241.9,239.6z"/>
</g>
<g>
	<path d="M174.1,278.3l1.2,1.3c-0.9,1-2.7,1.6-4.2,1.6c-2.9,0-5.3-2.3-5.3-5.4c0-3.1,2.3-5.4,5.2-5.4c3.2,0,5,2.4,5,6.1h-8.1
		c0.3,1.7,1.5,3,3.3,3C172.2,279.4,173.4,279,174.1,278.3z M167.8,274.9h6.2c-0.2-1.6-1.2-2.8-3-2.8
		C169.4,272.1,168.1,273.2,167.8,274.9z"/>
	<path d="M187.4,274.4v6.6h-1.9v-6.2c0-1.5-1-2.6-2.4-2.6c-1.4,0-2.7,0.9-2.8,2.2v6.7h-2v-10.3h2v1.5c0.6-1,1.9-1.7,3.3-1.7
		C185.8,270.4,187.4,272,187.4,274.4z"/>
	<path d="M198.9,274.7v6.3h-1.9v-1.4c-0.8,1.1-2.2,1.7-3.4,1.7c-2.2,0-3.8-1.3-3.8-3.3c0-2.1,1.9-3.4,4.1-3.4c1,0,2.1,0.2,3.1,0.6
		v-0.3c0-1.3-0.6-2.7-2.7-2.7c-1,0-2,0.4-2.9,0.9l-0.7-1.5c1.5-0.7,2.8-1,3.9-1C197.3,270.4,198.9,272.1,198.9,274.7z M196.9,277.7
		v-1.4c-0.8-0.3-1.8-0.4-2.8-0.4c-1.4,0-2.5,0.8-2.5,1.9c0,1.1,1,1.8,2.3,1.8C195.2,279.6,196.6,279,196.9,277.7z"/>
	<path d="M217,274.4v6.6h-1.9v-6.3c0-1.5-0.9-2.6-2.2-2.6c-1.5,0-2.5,1-2.5,2.4v6.5h-1.9v-6.3c0-1.5-0.9-2.6-2.2-2.6
		c-1.5,0-2.5,1-2.5,2.4v6.5h-2v-10.3h2v1.4c0.5-1,1.6-1.7,2.9-1.7c1.5,0,2.7,0.8,3.3,2.1c0.5-1.3,1.8-2.1,3.4-2.1
		C215.5,270.4,217,272,217,274.4z"/>
	<path d="M219.6,267.7c0-0.6,0.5-1.2,1.2-1.2c0.6,0,1.2,0.6,1.2,1.2c0,0.6-0.5,1.2-1.2,1.2C220.2,268.9,219.6,268.3,219.6,267.7z
		 M219.8,270.6h2V281h-2V270.6z"/>
	<path d="M233.8,274.4v6.6h-1.9v-6.2c0-1.5-1-2.6-2.4-2.6c-1.4,0-2.7,0.9-2.8,2.2v6.7h-2v-10.3h2v1.5c0.6-1,1.9-1.7,3.3-1.7
		C232.2,270.4,233.8,272,233.8,274.4z"/>
	<path d="M244.4,278.3l1.2,1.3c-0.9,1-2.7,1.6-4.2,1.6c-2.9,0-5.3-2.3-5.3-5.4c0-3.1,2.3-5.4,5.2-5.4c3.2,0,5,2.4,5,6.1h-8.1
		c0.3,1.7,1.5,3,3.3,3C242.5,279.4,243.7,279,244.4,278.3z M238.1,274.9h6.2c-0.2-1.6-1.2-2.8-3-2.8
		C239.7,272.1,238.4,273.2,238.1,274.9z"/>
</g>
<g>
	<path d="M167.1,310.5c0-2.9,2.5-5.4,5.5-5.4c1.5,0,2.8,0.6,3.8,1.6l-1.3,1.2c-0.6-0.7-1.5-1.1-2.5-1.1c-1.9,0-3.4,1.7-3.4,3.7
		c0,2,1.6,3.7,3.5,3.7c1,0,1.9-0.4,2.5-1.2l1.3,1.2c-1,1-2.3,1.7-3.9,1.7C169.6,315.9,167.1,313.4,167.1,310.5z"/>
	<path d="M187.2,309.4v6.3h-1.9v-1.4c-0.8,1.1-2.2,1.7-3.4,1.7c-2.2,0-3.8-1.3-3.8-3.3c0-2.1,1.9-3.4,4.1-3.4c1,0,2.1,0.2,3.1,0.6
		v-0.3c0-1.3-0.6-2.7-2.7-2.7c-1,0-2,0.4-2.9,0.9l-0.7-1.5c1.5-0.7,2.8-1,3.9-1C185.7,305.1,187.2,306.9,187.2,309.4z M185.3,312.4
		v-1.4c-0.8-0.3-1.8-0.4-2.8-0.4c-1.4,0-2.5,0.8-2.5,1.9c0,1.1,1,1.8,2.3,1.8C183.5,314.4,184.9,313.7,185.3,312.4z"/>
	<path d="M189.4,314.4l0.9-1.4c1.1,0.8,2.3,1.3,3.5,1.3c1.2,0,2-0.5,2-1.3c0-1-1.1-1.3-2.3-1.6c-2.4-0.7-3.6-1.3-3.6-3
		c0-1.9,1.6-3.1,3.8-3.1c1.3,0,2.7,0.5,3.8,1.2l-0.9,1.5c-1-0.6-2-1-2.9-1c-1,0-1.8,0.4-1.8,1.2c0,0.8,0.6,1,2.4,1.6
		c1.7,0.5,3.5,1.1,3.5,3.1c0,2-1.7,3.2-3.9,3.2C192.3,315.9,190.6,315.4,189.4,314.4z"/>
	<path d="M199.5,310.5c0-2.9,2.5-5.4,5.5-5.4c1.5,0,2.8,0.6,3.8,1.6l-1.3,1.2c-0.6-0.7-1.5-1.1-2.5-1.1c-1.9,0-3.4,1.7-3.4,3.7
		c0,2,1.6,3.7,3.5,3.7c1,0,1.9-0.4,2.5-1.2l1.3,1.2c-1,1-2.3,1.7-3.9,1.7C202,315.9,199.5,313.4,199.5,310.5z"/>
	<path d="M219.6,309.4v6.3h-1.9v-1.4c-0.8,1.1-2.2,1.7-3.4,1.7c-2.2,0-3.8-1.3-3.8-3.3c0-2.1,1.9-3.4,4.1-3.4c1,0,2.1,0.2,3.1,0.6
		v-0.3c0-1.3-0.6-2.7-2.7-2.7c-1,0-2,0.4-2.9,0.9l-0.7-1.5c1.5-0.7,2.8-1,3.9-1C218,305.1,219.6,306.9,219.6,309.4z M217.6,312.4
		v-1.4c-0.8-0.3-1.8-0.4-2.8-0.4c-1.4,0-2.5,0.8-2.5,1.9c0,1.1,1,1.8,2.3,1.8C215.9,314.4,217.3,313.7,217.6,312.4z"/>
	<path d="M232.4,301.7v14h-2v-1.8c-0.8,1.3-2.1,2-3.7,2c-2.7,0-4.8-2.2-4.8-5.4c0-3.2,2-5.4,4.8-5.4c1.6,0,2.9,0.8,3.7,2v-5.4H232.4
		z M230.4,310.5c0-2.2-1.3-3.7-3.2-3.7c-1.9,0-3.2,1.5-3.2,3.7c0,2.2,1.3,3.7,3.2,3.7C229.1,314.2,230.4,312.7,230.4,310.5z"/>
	<path d="M243,313l1.2,1.3c-0.9,1-2.7,1.6-4.2,1.6c-2.9,0-5.3-2.3-5.3-5.4c0-3.1,2.3-5.4,5.2-5.4c3.2,0,5,2.4,5,6.1h-8.1
		c0.3,1.7,1.5,3,3.3,3C241.2,314.2,242.4,313.7,243,313z M236.8,309.6h6.2c-0.2-1.6-1.2-2.8-3-2.8
		C238.4,306.9,237.1,307.9,236.8,309.6z"/>
</g>
<g>
	<path d="M154.5,349.1l0.9-1.4c1.1,0.8,2.3,1.3,3.5,1.3c1.2,0,2-0.5,2-1.3c0-1-1.1-1.3-2.3-1.6c-2.4-0.7-3.6-1.3-3.6-3
		c0-1.9,1.6-3.1,3.8-3.1c1.3,0,2.7,0.5,3.8,1.2l-0.9,1.5c-1-0.6-2-1-2.9-1c-1,0-1.8,0.4-1.8,1.2c0,0.8,0.6,1,2.4,1.6
		c1.7,0.5,3.5,1.1,3.5,3.1c0,2-1.7,3.2-3.9,3.2C157.4,350.6,155.8,350.1,154.5,349.1z"/>
	<path d="M165,353.6l0.4-1.5c0.4,0.2,0.9,0.3,1.3,0.3c0.6,0,1.1-0.2,1.4-0.8l0.5-1.1l-4.4-10.4h2.1l3.3,8.2l3.1-8.2h2.1l-4.6,11.3
		c-0.7,1.9-1.8,2.6-3.3,2.7C166.3,354,165.6,353.8,165,353.6z"/>
	<path d="M186.2,343.8v6.6h-1.9v-6.2c0-1.5-1-2.6-2.4-2.6c-1.4,0-2.7,0.9-2.8,2.2v6.7h-2v-10.3h2v1.5c0.6-1,1.9-1.7,3.3-1.7
		C184.6,339.8,186.2,341.5,186.2,343.8z"/>
	<path d="M196.8,347.8l1.2,1.3c-0.9,1-2.7,1.6-4.2,1.6c-2.9,0-5.3-2.3-5.3-5.4c0-3.1,2.3-5.4,5.2-5.4c3.2,0,5,2.4,5,6.1h-8.1
		c0.3,1.7,1.5,3,3.3,3C194.9,348.9,196.2,348.4,196.8,347.8z M190.5,344.3h6.2c-0.2-1.6-1.2-2.8-3-2.8
		C192.2,341.6,190.9,342.7,190.5,344.3z"/>
	<path d="M206.9,339.8v1.7c-2.1,0-3.7,1.2-3.8,3v5.9h-2v-10.3h2v2C203.7,340.7,205.1,339.8,206.9,339.8z"/>
	<path d="M218.7,340.1v9.2c0,2.7-2.2,4.5-5.2,4.5c-1.7,0-3.3-0.6-4.3-1.4l0.8-1.5c0.8,0.7,2,1.1,3.2,1.1c2.2,0,3.6-1.1,3.6-2.9v-1.5
		c-0.8,1.2-2.1,1.9-3.7,1.9c-2.7,0-4.7-2-4.7-4.9c0-2.9,2-4.9,4.7-4.9c1.6,0,2.9,0.7,3.7,1.9v-1.7H218.7z M216.7,344.7
		c0-1.9-1.3-3.2-3.2-3.2c-1.8,0-3.1,1.3-3.1,3.2c0,1.9,1.3,3.2,3.1,3.2C215.4,347.9,216.7,346.6,216.7,344.7z"/>
	<path d="M221.4,337.1c0-0.6,0.5-1.2,1.2-1.2c0.6,0,1.2,0.6,1.2,1.2c0,0.6-0.5,1.2-1.2,1.2C221.9,338.3,221.4,337.8,221.4,337.1z
		 M221.6,340.1h2v10.3h-2V340.1z"/>
	<path d="M225.8,349.1l0.9-1.4c1.1,0.8,2.3,1.3,3.5,1.3c1.2,0,2-0.5,2-1.3c0-1-1.1-1.3-2.3-1.6c-2.4-0.7-3.6-1.3-3.6-3
		c0-1.9,1.6-3.1,3.8-3.1c1.3,0,2.7,0.5,3.8,1.2l-0.9,1.5c-1-0.6-2-1-2.9-1c-1,0-1.8,0.4-1.8,1.2c0,0.8,0.6,1,2.4,1.6
		c1.7,0.5,3.5,1.1,3.5,3.1c0,2-1.7,3.2-3.9,3.2C228.7,350.6,227,350.1,225.8,349.1z"/>
	<path d="M242,349.9c-0.6,0.5-1.3,0.7-2.1,0.7c-1.6,0-2.7-1.2-2.7-2.8v-6.1h-1.6v-1.7h1.6v-2.8h1.9v2.8h2.4v1.7h-2.4v5.9
		c0,0.7,0.5,1.2,1.1,1.2c0.4,0,0.8-0.2,1.1-0.4L242,349.9z"/>
	<path d="M243.8,337.1c0-0.6,0.5-1.2,1.2-1.2c0.6,0,1.2,0.6,1.2,1.2c0,0.6-0.5,1.2-1.2,1.2C244.3,338.3,243.8,337.8,243.8,337.1z
		 M244,340.1h2v10.3h-2V340.1z"/>
	<path d="M248.2,345.2c0-2.9,2.5-5.4,5.5-5.4c1.5,0,2.8,0.6,3.8,1.6l-1.3,1.2c-0.6-0.7-1.5-1.1-2.5-1.1c-1.9,0-3.4,1.7-3.4,3.7
		c0,2,1.6,3.7,3.5,3.7c1,0,1.9-0.4,2.5-1.2l1.3,1.2c-1,1-2.3,1.7-3.9,1.7C250.7,350.6,248.2,348.2,248.2,345.2z"/>
</g>
<g>
	<path d="M77.2,53.6c-3-4-2-10,2.2-13.1c4.2-3.1,10.1-2.2,13.1,1.8c3,4,2,10-2.2,13.1C86.2,58.5,80.1,57.7,77.2,53.6z M89.3,44.7
		c-1.8-2.5-5.5-3.1-7.9-1.3c-2.4,1.8-2.9,5.4-1.1,7.9c1.8,2.5,5.5,3.1,7.9,1.4C90.6,50.9,91.1,47.2,89.3,44.7z"/>
	<path d="M109.6,42.6l-6.5-2.9l-2.4,1.4l2.9,5l-3.3,1.9l-9.1-15.4l6.9-4.1c3.3-2,7.1-1.3,8.9,1.8c1.3,2.3,1,4.9-0.7,6.9l7,3.1
		L109.6,42.6z M98.9,38.1l3.3-1.9c1.6-1,2.3-2.5,1.5-3.8c-0.8-1.3-2.4-1.5-4-0.5l-3.3,1.9L98.9,38.1z"/>
	<path d="M119,26.5l7.2-3.3l3.1,6.7c-0.8,2.5-2.9,4.6-5.3,5.7c-4.7,2.2-10.5,0.2-12.6-4.4c-2.1-4.6,0.1-10.2,4.8-12.4
		c2.4-1.1,5.4-1.3,7.8-0.3l-1.5,3.4c-1.5-0.7-3.4-0.6-4.9,0.1c-2.8,1.3-4,4.8-2.7,7.6c1.3,2.8,4.8,4.2,7.5,2.9
		c1.1-0.5,2.1-1.4,2.7-2.5l-1.1-2.5l-3.8,1.7L119,26.5z"/>
	<path d="M144,24.5l-7.5,2.6l-0.2,3l-4.1,1.4l1.1-19.3l4.1-1.4l12.7,14.5l-4.1,1.4L144,24.5z M141.7,21.9l-4.6-5.3l-0.4,7
		L141.7,21.9z"/>
	<path d="M148.5,7.4l3.7-0.9l11,9.3l-2.6-11.3l3.8-0.9l4,17.4l-3.8,0.9l-11-9.3l2.6,11.3l-3.7,0.9L148.5,7.4z"/>
	<path d="M170.4,11.7c-0.6-5,3.3-9.7,8.4-10.3c5.1-0.6,9.9,3.1,10.5,8.1c0.6,5-3.2,9.7-8.4,10.3C175.8,20.4,171,16.6,170.4,11.7z
		 M185.4,9.9c-0.4-3.1-3.2-5.4-6.2-5.1c-3,0.3-5.2,3.3-4.8,6.3c0.4,3.1,3.2,5.4,6.2,5.1C183.5,16,185.7,13,185.4,9.9z"/>
	<path d="M192.5,9.4c-0.1-5,4.2-9.3,9.3-9.4c2.7,0,5.2,1.1,7,2.9l-2.7,2.5c-1.1-1.2-2.6-2-4.2-1.9c-3,0-5.5,2.7-5.4,5.8
		c0.1,3.1,2.6,5.7,5.6,5.7c1.6,0,3.1-0.9,4.1-2.1l2.8,2.5c-1.7,1.8-4.2,3.1-6.9,3.1C197,18.6,192.6,14.4,192.5,9.4z"/>
	<path d="M223.8,16.4l-7.9-0.7l-1.4,2.7l-4.3-0.4L219,0.9l4.3,0.4l5.7,18.4l-4.3-0.4L223.8,16.4z M222.8,13.1l-2.1-6.7l-3.2,6.3
		L222.8,13.1z"/>
	<path d="M236.7,6.5l-5.5-1l0.6-3.4l14.7,2.6L246,8.2l-5.5-1L238,21.4l-3.8-0.7L236.7,6.5z"/>
	<path d="M257.2,23l-7.7-2.1l-1.8,2.4l-4.1-1.1l11.7-15.4l4.1,1.1l2.4,19.1l-4.2-1.1L257.2,23z M256.8,19.6l-0.9-7l-4.3,5.6
		L256.8,19.6z"/>
	<path d="M277,29.2l-1.2,3.2L263.9,28l6.2-16.7l3.6,1.3l-5,13.5L277,29.2z"/>
	<path d="M285.9,29.9l-1.4-13.3l4,1.9l0.7,9l7.5-5.1l3.9,1.8l-11.2,7.3l-2.8,5.8l-3.5-1.7L285.9,29.9z"/>
	<path d="M295.1,38.7l3.2-1.1c0.7,2.1,1.9,3.9,3.9,5c1.7,1,3,0.7,3.5-0.2c0.7-1.1,0-2-2.1-3.9c-2.8-2.7-4.6-5-2.8-7.9
		c1.7-2.8,5.2-3.4,8.5-1.4c2.5,1.5,4,3.4,4.8,5.7l-3.1,1.3c-0.7-1.9-1.9-3.4-3.4-4.3c-1.4-0.8-2.7-0.6-3.2,0.3c-0.7,1.1,0,2,2.1,4
		c2.9,2.7,4.5,5,2.8,7.8c-1.7,2.9-5.1,3.6-8.9,1.3C297.7,43.7,295.9,41.4,295.1,38.7z"/>
	<path d="M319.2,35.7l3.2,2.2l-10.1,14.7l-3.2-2.2L319.2,35.7z"/>
	<path d="M316.2,52l3.4-0.7c0.4,2.2,1.4,4.1,3.2,5.5c1.5,1.2,2.8,1.1,3.5,0.2c0.8-1,0.2-2-1.6-4.1c-2.4-3-3.9-5.5-1.8-8.2
		c2-2.6,5.6-2.7,8.6-0.3c2.3,1.8,3.5,3.9,4,6.3l-3.3,0.9c-0.5-2-1.4-3.6-2.8-4.7c-1.3-1-2.6-0.9-3.3-0.1c-0.8,1-0.2,2,1.6,4.2
		c2.5,3.1,3.8,5.5,1.8,8.1c-2.1,2.7-5.5,2.9-9,0.2C318.2,57.3,316.7,54.8,316.2,52z"/>
</g>
</svg>
