<?xml version="1.0" encoding="utf-8"?>
<!-- Generator: Adobe Illustrator 19.2.0, SVG Export Plug-In . SVG Version: 6.00 Build 0)  -->
<svg version="1.1" id="Layer_1" xmlns="http://www.w3.org/2000/svg" xmlns:xlink="http://www.w3.org/1999/xlink" x="0px" y="0px"
	 viewBox="0 0 750 450" style="enable-background:new 0 0 750 450;" xml:space="preserve">
<style type="text/css">
	.st0{fill:#FFCC66;}
	.st1{fill:#DFE8F1;}
	.st2{fill:#94B0D0;}
	.st3{clip-path:url(#SVGID_2_);}
	.st4{clip-path:url(#SVGID_4_);fill:#246EB0;}
	.st5{clip-path:url(#SVGID_4_);fill:none;stroke:#246EB0;stroke-width:2.15;stroke-miterlimit:10;}
	.st6{clip-path:url(#SVGID_4_);fill:#3177B5;}
	.st7{clip-path:url(#SVGID_4_);fill:none;stroke:#3177B5;stroke-width:2.15;stroke-miterlimit:10;}
	.st8{clip-path:url(#SVGID_4_);fill:#3F80BA;}
	.st9{clip-path:url(#SVGID_4_);fill:none;stroke:#3F80BA;stroke-width:2.15;stroke-miterlimit:10;}
	.st10{clip-path:url(#SVGID_4_);fill:#4B88BE;}
	.st11{clip-path:url(#SVGID_4_);fill:none;stroke:#4B88BE;stroke-width:2.15;stroke-miterlimit:10;}
	.st12{clip-path:url(#SVGID_4_);fill:#5790C3;}
	.st13{clip-path:url(#SVGID_4_);fill:none;stroke:#5790C3;stroke-width:2.15;stroke-miterlimit:10;}
	.st14{clip-path:url(#SVGID_4_);fill:#6398C7;}
	.st15{clip-path:url(#SVGID_4_);fill:none;stroke:#6398C7;stroke-width:2.15;stroke-miterlimit:10;}
	.st16{clip-path:url(#SVGID_4_);fill:#6E9FCB;}
	.st17{clip-path:url(#SVGID_4_);fill:none;stroke:#6E9FCB;stroke-width:2.15;stroke-miterlimit:10;}
	.st18{clip-path:url(#SVGID_4_);fill:#79A6CF;}
	.st19{clip-path:url(#SVGID_4_);fill:none;stroke:#79A6CF;stroke-width:2.15;stroke-miterlimit:10;}
	.st20{clip-path:url(#SVGID_4_);fill:#84ADD3;}
	.st21{clip-path:url(#SVGID_4_);fill:none;stroke:#84ADD3;stroke-width:2.15;stroke-miterlimit:10;}
	.st22{clip-path:url(#SVGID_4_);fill:#8EB4D6;}
	.st23{clip-path:url(#SVGID_4_);fill:none;stroke:#8EB4D6;stroke-width:2.15;stroke-miterlimit:10;}
	.st24{clip-path:url(#SVGID_4_);fill:#97BADA;}
	.st25{clip-path:url(#SVGID_4_);fill:none;stroke:#97BADA;stroke-width:2.15;stroke-miterlimit:10;}
	.st26{clip-path:url(#SVGID_4_);fill:#A1C1DD;}
	.st27{clip-path:url(#SVGID_4_);fill:none;stroke:#A1C1DD;stroke-width:2.15;stroke-miterlimit:10;}
	.st28{clip-path:url(#SVGID_4_);fill:#A9C6E0;}
	.st29{clip-path:url(#SVGID_4_);fill:none;stroke:#A9C6E0;stroke-width:2.15;stroke-miterlimit:10;}
	.st30{clip-path:url(#SVGID_4_);fill:#B2CCE3;}
	.st31{clip-path:url(#SVGID_4_);fill:none;stroke:#B2CCE3;stroke-width:2.15;stroke-miterlimit:10;}
	.st32{clip-path:url(#SVGID_4_);fill:#BAD1E6;}
	.st33{clip-path:url(#SVGID_4_);fill:none;stroke:#BAD1E6;stroke-width:2.15;stroke-miterlimit:10;}
	.st34{clip-path:url(#SVGID_4_);fill:#C1D6E9;}
	.st35{clip-path:url(#SVGID_4_);fill:none;stroke:#C1D6E9;stroke-width:2.15;stroke-miterlimit:10;}
	.st36{clip-path:url(#SVGID_4_);fill:#C8DBEB;}
	.st37{clip-path:url(#SVGID_4_);fill:none;stroke:#C8DBEB;stroke-width:2.15;stroke-miterlimit:10;}
	.st38{clip-path:url(#SVGID_4_);fill:#CFDFEE;}
	.st39{clip-path:url(#SVGID_4_);fill:none;stroke:#CFDFEE;stroke-width:2.15;stroke-miterlimit:10;}
	.st40{clip-path:url(#SVGID_4_);fill:#D5E3F0;}
	.st41{clip-path:url(#SVGID_4_);fill:none;stroke:#D5E3F0;stroke-width:2.15;stroke-miterlimit:10;}
	.st42{clip-path:url(#SVGID_4_);fill:#DBE7F2;}
	.st43{clip-path:url(#SVGID_4_);fill:none;stroke:#DBE7F2;stroke-width:2.15;stroke-miterlimit:10;}
	.st44{clip-path:url(#SVGID_4_);fill:#E0EBF4;}
	.st45{clip-path:url(#SVGID_4_);fill:none;stroke:#E0EBF4;stroke-width:2.15;stroke-miterlimit:10;}
	.st46{clip-path:url(#SVGID_4_);fill:#E5EEF6;}
	.st47{clip-path:url(#SVGID_4_);fill:none;stroke:#E5EEF6;stroke-width:2.15;stroke-miterlimit:10;}
	.st48{clip-path:url(#SVGID_4_);fill:#EAF1F7;}
	.st49{clip-path:url(#SVGID_4_);fill:none;stroke:#EAF1F7;stroke-width:2.15;stroke-miterlimit:10;}
	.st50{clip-path:url(#SVGID_4_);fill:#EEF4F9;}
	.st51{clip-path:url(#SVGID_4_);fill:none;stroke:#EEF4F9;stroke-width:2.15;stroke-miterlimit:10;}
	.st52{clip-path:url(#SVGID_4_);fill:#F1F6FA;}
	.st53{clip-path:url(#SVGID_4_);fill:none;stroke:#F1F6FA;stroke-width:2.15;stroke-miterlimit:10;}
	.st54{clip-path:url(#SVGID_4_);fill:#F5F8FB;}
	.st55{clip-path:url(#SVGID_4_);fill:none;stroke:#F5F8FB;stroke-width:2.15;stroke-miterlimit:10;}
	.st56{clip-path:url(#SVGID_4_);fill:#F7FAFC;}
	.st57{clip-path:url(#SVGID_4_);fill:none;stroke:#F7FAFC;stroke-width:2.15;stroke-miterlimit:10;}
	.st58{clip-path:url(#SVGID_4_);fill:#FAFBFD;}
	.st59{clip-path:url(#SVGID_4_);fill:none;stroke:#FAFBFD;stroke-width:2.15;stroke-miterlimit:10;}
	.st60{clip-path:url(#SVGID_4_);fill:#FCFDFE;}
	.st61{clip-path:url(#SVGID_4_);fill:none;stroke:#FCFDFE;stroke-width:2.15;stroke-miterlimit:10;}
	.st62{clip-path:url(#SVGID_4_);fill:#FDFEFE;}
	.st63{clip-path:url(#SVGID_4_);fill:none;stroke:#FDFEFE;stroke-width:2.15;stroke-miterlimit:10;}
	.st64{clip-path:url(#SVGID_4_);fill:#FEFEFF;}
	.st65{clip-path:url(#SVGID_4_);fill:none;stroke:#FEFEFF;stroke-width:2.15;stroke-miterlimit:10;}
	.st66{clip-path:url(#SVGID_4_);fill:#FFFFFF;}
	.st67{clip-path:url(#SVGID_4_);fill:none;stroke:#FFFFFF;stroke-width:2.15;stroke-miterlimit:10;}
	.st68{clip-path:url(#SVGID_6_);}
	.st69{clip-path:url(#SVGID_8_);fill:#246EB0;}
	.st70{clip-path:url(#SVGID_8_);fill:none;stroke:#246EB0;stroke-width:2.15;stroke-miterlimit:10;}
	.st71{clip-path:url(#SVGID_8_);fill:#3177B5;}
	.st72{clip-path:url(#SVGID_8_);fill:none;stroke:#3177B5;stroke-width:2.15;stroke-miterlimit:10;}
	.st73{clip-path:url(#SVGID_8_);fill:#3F80BA;}
	.st74{clip-path:url(#SVGID_8_);fill:none;stroke:#3F80BA;stroke-width:2.15;stroke-miterlimit:10;}
	.st75{clip-path:url(#SVGID_8_);fill:#4B88BE;}
	.st76{clip-path:url(#SVGID_8_);fill:none;stroke:#4B88BE;stroke-width:2.15;stroke-miterlimit:10;}
	.st77{clip-path:url(#SVGID_8_);fill:#5790C3;}
	.st78{clip-path:url(#SVGID_8_);fill:none;stroke:#5790C3;stroke-width:2.15;stroke-miterlimit:10;}
	.st79{clip-path:url(#SVGID_8_);fill:#6398C7;}
	.st80{clip-path:url(#SVGID_8_);fill:none;stroke:#6398C7;stroke-width:2.15;stroke-miterlimit:10;}
	.st81{clip-path:url(#SVGID_8_);fill:#6E9FCB;}
	.st82{clip-path:url(#SVGID_8_);fill:none;stroke:#6E9FCB;stroke-width:2.15;stroke-miterlimit:10;}
	.st83{clip-path:url(#SVGID_8_);fill:#79A6CF;}
	.st84{clip-path:url(#SVGID_8_);fill:none;stroke:#79A6CF;stroke-width:2.15;stroke-miterlimit:10;}
	.st85{clip-path:url(#SVGID_8_);fill:#84ADD3;}
	.st86{clip-path:url(#SVGID_8_);fill:none;stroke:#84ADD3;stroke-width:2.15;stroke-miterlimit:10;}
	.st87{clip-path:url(#SVGID_8_);fill:#8EB4D6;}
	.st88{clip-path:url(#SVGID_8_);fill:none;stroke:#8EB4D6;stroke-width:2.15;stroke-miterlimit:10;}
	.st89{clip-path:url(#SVGID_8_);fill:#97BADA;}
	.st90{clip-path:url(#SVGID_8_);fill:none;stroke:#97BADA;stroke-width:2.15;stroke-miterlimit:10;}
	.st91{clip-path:url(#SVGID_8_);fill:#A1C1DD;}
	.st92{clip-path:url(#SVGID_8_);fill:none;stroke:#A1C1DD;stroke-width:2.15;stroke-miterlimit:10;}
	.st93{clip-path:url(#SVGID_8_);fill:#A9C6E0;}
	.st94{clip-path:url(#SVGID_8_);fill:none;stroke:#A9C6E0;stroke-width:2.15;stroke-miterlimit:10;}
	.st95{clip-path:url(#SVGID_8_);fill:#B2CCE3;}
	.st96{clip-path:url(#SVGID_8_);fill:none;stroke:#B2CCE3;stroke-width:2.15;stroke-miterlimit:10;}
	.st97{clip-path:url(#SVGID_8_);fill:#BAD1E6;}
	.st98{clip-path:url(#SVGID_8_);fill:none;stroke:#BAD1E6;stroke-width:2.15;stroke-miterlimit:10;}
	.st99{clip-path:url(#SVGID_8_);fill:#C1D6E9;}
	.st100{clip-path:url(#SVGID_8_);fill:none;stroke:#C1D6E9;stroke-width:2.15;stroke-miterlimit:10;}
	.st101{clip-path:url(#SVGID_8_);fill:#C8DBEB;}
	.st102{clip-path:url(#SVGID_8_);fill:none;stroke:#C8DBEB;stroke-width:2.15;stroke-miterlimit:10;}
	.st103{clip-path:url(#SVGID_8_);fill:#CFDFEE;}
	.st104{clip-path:url(#SVGID_8_);fill:none;stroke:#CFDFEE;stroke-width:2.15;stroke-miterlimit:10;}
	.st105{clip-path:url(#SVGID_8_);fill:#D5E3F0;}
	.st106{clip-path:url(#SVGID_8_);fill:none;stroke:#D5E3F0;stroke-width:2.15;stroke-miterlimit:10;}
	.st107{clip-path:url(#SVGID_8_);fill:#DBE7F2;}
	.st108{clip-path:url(#SVGID_8_);fill:none;stroke:#DBE7F2;stroke-width:2.15;stroke-miterlimit:10;}
	.st109{clip-path:url(#SVGID_8_);fill:#E0EBF4;}
	.st110{clip-path:url(#SVGID_8_);fill:none;stroke:#E0EBF4;stroke-width:2.15;stroke-miterlimit:10;}
	.st111{clip-path:url(#SVGID_8_);fill:#E5EEF6;}
	.st112{clip-path:url(#SVGID_8_);fill:none;stroke:#E5EEF6;stroke-width:2.15;stroke-miterlimit:10;}
	.st113{clip-path:url(#SVGID_8_);fill:#EAF1F7;}
	.st114{clip-path:url(#SVGID_8_);fill:none;stroke:#EAF1F7;stroke-width:2.15;stroke-miterlimit:10;}
	.st115{clip-path:url(#SVGID_8_);fill:#EEF4F9;}
	.st116{clip-path:url(#SVGID_8_);fill:none;stroke:#EEF4F9;stroke-width:2.15;stroke-miterlimit:10;}
	.st117{clip-path:url(#SVGID_8_);fill:#F1F6FA;}
	.st118{clip-path:url(#SVGID_8_);fill:none;stroke:#F1F6FA;stroke-width:2.15;stroke-miterlimit:10;}
	.st119{clip-path:url(#SVGID_8_);fill:#F5F8FB;}
	.st120{clip-path:url(#SVGID_8_);fill:none;stroke:#F5F8FB;stroke-width:2.15;stroke-miterlimit:10;}
	.st121{clip-path:url(#SVGID_8_);fill:#F7FAFC;}
	.st122{clip-path:url(#SVGID_8_);fill:none;stroke:#F7FAFC;stroke-width:2.15;stroke-miterlimit:10;}
	.st123{clip-path:url(#SVGID_8_);fill:#FAFBFD;}
	.st124{clip-path:url(#SVGID_8_);fill:none;stroke:#FAFBFD;stroke-width:2.15;stroke-miterlimit:10;}
	.st125{clip-path:url(#SVGID_8_);fill:#FCFDFE;}
	.st126{clip-path:url(#SVGID_8_);fill:none;stroke:#FCFDFE;stroke-width:2.15;stroke-miterlimit:10;}
	.st127{clip-path:url(#SVGID_8_);fill:#FDFEFE;}
	.st128{clip-path:url(#SVGID_8_);fill:none;stroke:#FDFEFE;stroke-width:2.15;stroke-miterlimit:10;}
	.st129{clip-path:url(#SVGID_8_);fill:#FEFEFF;}
	.st130{clip-path:url(#SVGID_8_);fill:none;stroke:#FEFEFF;stroke-width:2.15;stroke-miterlimit:10;}
	.st131{clip-path:url(#SVGID_8_);fill:#FFFFFF;}
	.st132{clip-path:url(#SVGID_8_);fill:none;stroke:#FFFFFF;stroke-width:2.15;stroke-miterlimit:10;}
	.st133{fill:none;stroke:#000000;stroke-miterlimit:10;}
	.st134{fill:none;stroke:#B3B3B3;stroke-width:1.6;stroke-miterlimit:10;}
	.st135{fill:#B3B3B3;}
	.st136{fill:none;stroke:#94B0D0;stroke-width:1.6;stroke-miterlimit:10;}
	.st137{fill:#9BB5D3;}
	.st138{fill:none;stroke:#9BB5D3;stroke-width:1.6;stroke-miterlimit:10;}
	.st139{fill:#A1BAD6;}
	.st140{fill:none;stroke:#A1BAD6;stroke-width:1.6;stroke-miterlimit:10;}
	.st141{fill:#A7BED8;}
	.st142{fill:none;stroke:#A7BED8;stroke-width:1.6;stroke-miterlimit:10;}
	.st143{fill:#ADC3DB;}
	.st144{fill:none;stroke:#ADC3DB;stroke-width:1.6;stroke-miterlimit:10;}
	.st145{fill:#B3C7DE;}
	.st146{fill:none;stroke:#B3C7DE;stroke-width:1.6;stroke-miterlimit:10;}
	.st147{fill:#B8CBE0;}
	.st148{fill:none;stroke:#B8CBE0;stroke-width:1.6;stroke-miterlimit:10;}
	.st149{fill:#BECFE2;}
	.st150{fill:none;stroke:#BECFE2;stroke-width:1.6;stroke-miterlimit:10;}
	.st151{fill:#C3D3E5;}
	.st152{fill:none;stroke:#C3D3E5;stroke-width:1.6;stroke-miterlimit:10;}
	.st153{fill:#C8D6E7;}
	.st154{fill:none;stroke:#C8D6E7;stroke-width:1.6;stroke-miterlimit:10;}
	.st155{fill:#CCDAE9;}
	.st156{fill:none;stroke:#CCDAE9;stroke-width:1.6;stroke-miterlimit:10;}
	.st157{fill:#D1DDEB;}
	.st158{fill:none;stroke:#D1DDEB;stroke-width:1.6;stroke-miterlimit:10;}
	.st159{fill:#D5E0ED;}
	.st160{fill:none;stroke:#D5E0ED;stroke-width:1.6;stroke-miterlimit:10;}
	.st161{fill:#D9E3EE;}
	.st162{fill:none;stroke:#D9E3EE;stroke-width:1.6;stroke-miterlimit:10;}
	.st163{fill:#DDE6F0;}
	.st164{fill:none;stroke:#DDE6F0;stroke-width:1.6;stroke-miterlimit:10;}
	.st165{fill:#E1E9F2;}
	.st166{fill:none;stroke:#E1E9F2;stroke-width:1.6;stroke-miterlimit:10;}
	.st167{fill:#E4EBF3;}
	.st168{fill:none;stroke:#E4EBF3;stroke-width:1.6;stroke-miterlimit:10;}
	.st169{fill:#E7EEF5;}
	.st170{fill:none;stroke:#E7EEF5;stroke-width:1.6;stroke-miterlimit:10;}
	.st171{fill:#EBF0F6;}
	.st172{fill:none;stroke:#EBF0F6;stroke-width:1.6;stroke-miterlimit:10;}
	.st173{fill:#EDF2F7;}
	.st174{fill:none;stroke:#EDF2F7;stroke-width:1.6;stroke-miterlimit:10;}
	.st175{fill:#F0F4F8;}
	.st176{fill:none;stroke:#F0F4F8;stroke-width:1.6;stroke-miterlimit:10;}
	.st177{fill:#F2F6F9;}
	.st178{fill:none;stroke:#F2F6F9;stroke-width:1.6;stroke-miterlimit:10;}
	.st179{fill:#F5F7FA;}
	.st180{fill:none;stroke:#F5F7FA;stroke-width:1.6;stroke-miterlimit:10;}
	.st181{fill:#F7F9FB;}
	.st182{fill:none;stroke:#F7F9FB;stroke-width:1.6;stroke-miterlimit:10;}
	.st183{fill:#F8FAFC;}
	.st184{fill:none;stroke:#F8FAFC;stroke-width:1.6;stroke-miterlimit:10;}
	.st185{fill:#FAFBFD;}
	.st186{fill:none;stroke:#FAFBFD;stroke-width:1.6;stroke-miterlimit:10;}
	.st187{fill:#FBFCFD;}
	.st188{fill:none;stroke:#FBFCFD;stroke-width:1.6;stroke-miterlimit:10;}
	.st189{fill:#FCFDFE;}
	.st190{fill:none;stroke:#FCFDFE;stroke-width:1.6;stroke-miterlimit:10;}
	.st191{fill:#FDFEFE;}
	.st192{fill:none;stroke:#FDFEFE;stroke-width:1.6;stroke-miterlimit:10;}
	.st193{fill:#FEFEFF;}
	.st194{fill:none;stroke:#FEFEFF;stroke-width:1.6;stroke-miterlimit:10;}
	.st195{fill:#FFFFFF;}
	.st196{fill:none;stroke:#FFFFFF;stroke-width:1.6;stroke-miterlimit:10;}
	.st197{fill:none;}
	.st198{fill:#CCCCCC;}
	.st199{fill:#7F1142;}
	.st200{fill:#6A0033;}
	.st201{fill:#407993;}
	.st202{fill:#336681;}
	.st203{fill:#C2D5D4;}
	.st204{fill:none;stroke:#C2D5D4;stroke-width:1.6;stroke-miterlimit:10;}
	.st205{fill:none;stroke:#407B93;stroke-width:3.65;stroke-miterlimit:10;}
	.st206{fill:#407B93;}
	.st207{fill:none;stroke:#407B93;stroke-width:1.6;stroke-miterlimit:10;}
	.st208{fill:none;stroke:#000000;stroke-width:1.3;stroke-miterlimit:10;}
	.st209{fill:none;stroke:#000000;stroke-width:1.6;stroke-miterlimit:10;}
	.st210{fill:#B9CFD8;}
	.st211{fill:none;stroke:#B9CFD8;stroke-width:1.6;stroke-miterlimit:10;}
	.st212{fill:none;stroke:#CCCCCC;stroke-width:1.6;stroke-miterlimit:10;}
	.st213{fill:none;stroke:#A5B9CF;stroke-width:1.6;stroke-miterlimit:10;}
	.st214{fill:#BDD2DA;}
	.st215{fill:none;stroke:#BDD2DA;stroke-width:1.6;stroke-miterlimit:10;}
	.st216{fill:#C1D5DD;}
	.st217{fill:none;stroke:#C1D5DD;stroke-width:1.6;stroke-miterlimit:10;}
	.st218{fill:#C6D8DF;}
	.st219{fill:none;stroke:#C6D8DF;stroke-width:1.6;stroke-miterlimit:10;}
	.st220{fill:#C9DAE1;}
	.st221{fill:none;stroke:#C9DAE1;stroke-width:1.6;stroke-miterlimit:10;}
	.st222{fill:#CDDDE3;}
	.st223{fill:none;stroke:#CDDDE3;stroke-width:1.6;stroke-miterlimit:10;}
	.st224{fill:#D1DFE5;}
	.st225{fill:none;stroke:#D1DFE5;stroke-width:1.6;stroke-miterlimit:10;}
	.st226{fill:#D4E2E7;}
	.st227{fill:none;stroke:#D4E2E7;stroke-width:1.6;stroke-miterlimit:10;}
	.st228{fill:#D8E4E9;}
	.st229{fill:none;stroke:#D8E4E9;stroke-width:1.6;stroke-miterlimit:10;}
	.st230{fill:#DBE6EB;}
	.st231{fill:none;stroke:#DBE6EB;stroke-width:1.6;stroke-miterlimit:10;}
	.st232{fill:#DEE8ED;}
	.st233{fill:none;stroke:#DEE8ED;stroke-width:1.6;stroke-miterlimit:10;}
	.st234{fill:#E1EAEE;}
	.st235{fill:none;stroke:#E1EAEE;stroke-width:1.6;stroke-miterlimit:10;}
	.st236{fill:#E4ECF0;}
	.st237{fill:none;stroke:#E4ECF0;stroke-width:1.6;stroke-miterlimit:10;}
	.st238{fill:#E6EEF1;}
	.st239{fill:none;stroke:#E6EEF1;stroke-width:1.6;stroke-miterlimit:10;}
	.st240{fill:#E9F0F3;}
	.st241{fill:none;stroke:#E9F0F3;stroke-width:1.6;stroke-miterlimit:10;}
	.st242{fill:#EBF1F4;}
	.st243{fill:none;stroke:#EBF1F4;stroke-width:1.6;stroke-miterlimit:10;}
	.st244{fill:#EDF3F5;}
	.st245{fill:none;stroke:#EDF3F5;stroke-width:1.6;stroke-miterlimit:10;}
	.st246{fill:#F0F4F6;}
	.st247{fill:none;stroke:#F0F4F6;stroke-width:1.6;stroke-miterlimit:10;}
	.st248{fill:#F2F6F8;}
	.st249{fill:none;stroke:#F2F6F8;stroke-width:1.6;stroke-miterlimit:10;}
	.st250{fill:#F3F7F9;}
	.st251{fill:none;stroke:#F3F7F9;stroke-width:1.6;stroke-miterlimit:10;}
	.st252{fill:#F5F8FA;}
	.st253{fill:none;stroke:#F5F8FA;stroke-width:1.6;stroke-miterlimit:10;}
	.st254{fill:#F7F9FA;}
	.st255{fill:none;stroke:#F7F9FA;stroke-width:1.6;stroke-miterlimit:10;}
	.st256{fill:#F8FAFB;}
	.st257{fill:none;stroke:#F8FAFB;stroke-width:1.6;stroke-miterlimit:10;}
	.st258{fill:#F9FBFC;}
	.st259{fill:none;stroke:#F9FBFC;stroke-width:1.6;stroke-miterlimit:10;}
	.st260{fill:#FCFDFD;}
	.st261{fill:none;stroke:#FCFDFD;stroke-width:1.6;stroke-miterlimit:10;}
	.st262{fill:#FDFDFE;}
	.st263{fill:none;stroke:#FDFDFE;stroke-width:1.6;stroke-miterlimit:10;}
	.st264{fill:#FEFEFE;}
	.st265{fill:none;stroke:#FEFEFE;stroke-width:1.6;stroke-miterlimit:10;}
	.st266{fill:#FEFFFF;}
	.st267{fill:none;stroke:#FEFFFF;stroke-width:1.6;stroke-miterlimit:10;}
	.st268{fill:none;stroke:#FFCC66;stroke-width:3.25;stroke-miterlimit:10;stroke-dasharray:3.8,3.8;}
</style>
<g>
	<g>
		<polygon points="318.9,163.8 319.5,164.3 319.5,164.8 301.9,169.9 300.8,169.1 		"/>
	</g>
	<g>
		<polygon points="319.3,166.6 319.6,167.6 304.3,172.1 304,171.1 		"/>
	</g>
	<g>
		<polygon points="318.9,154.1 319.5,153.7 320,154.1 320,163.8 319.5,164.3 318.9,163.8 		"/>
	</g>
	<g>
		<polygon points="300.8,148.8 301.9,148 319.5,153.1 319.5,153.7 318.9,154.1 		"/>
	</g>
	<g>
		<polygon points="304,146.9 304.3,145.8 319.6,150.3 319.3,151.3 		"/>
	</g>
	<g>
		<polygon points="337,148 338.1,148.8 320,154.1 319.5,153.7 319.5,153.1 		"/>
	</g>
	<g>
		<polygon points="337,138.2 338.1,137.4 338.1,148.8 337,148 		"/>
	</g>
	<g>
		<polygon points="334.3,139.9 335.4,139.9 335.3,146.3 334.3,146.3 		"/>
	</g>
	<g>
		<polygon points="319.5,133.1 319.5,132 338.1,137.4 337,138.2 		"/>
	</g>
	<g>
		<polygon points="302,138.2 300.8,137.4 319.5,132 319.5,133.1 		"/>
	</g>
	<g>
		<polygon points="304.3,140.4 304,139.4 319.3,134.9 319.6,135.9 		"/>
	</g>
	<g>
		<polygon points="301.9,148 300.8,148.8 300.8,137.4 302,138.2 		"/>
	</g>
	<g>
		<g>
			<path d="M334.9,166.2h1.1l3.3,5.3v-5.3h0.9v6.6h-1l-3.3-5.3v5.3h-0.9V166.2z"/>
		</g>
	</g>
	<g>
		<polygon points="301.9,178.9 300.8,181.2 300.8,169.1 301.9,169.9 		"/>
	</g>
	<g>
		<polygon points="319.5,184.1 319.4,186.7 300.8,181.2 301.9,178.9 		"/>
	</g>
	<g>
		<polygon points="319.6,181.3 319.3,182.3 304.7,178 305,177 		"/>
	</g>
	<g>
		<polygon points="337,179 338.1,181.3 319.4,186.7 319.5,184.1 		"/>
	</g>
	<g>
		<polygon points="337,174.2 338.1,174.2 338.1,181.3 337,179 		"/>
	</g>
	<g>
		<rect x="334.3" y="174.2" width="1.1" height="3.9"/>
	</g>
	<g>
		<polygon points="319.5,164.8 319.5,164.3 320,163.8 333.2,167.7 333,168.8 		"/>
	</g>
	<g>
		<g>
			<path d="M357.4,155.8h1v7.4h-1V155.8z"/>
		</g>
		<g>
			<path d="M360,157.8h0.9v0.9c0.1-0.2,0.2-0.4,0.5-0.7s0.6-0.4,1-0.4c0,0,0,0,0.1,0s0.1,0,0.2,0v1c-0.1,0-0.1,0-0.1,0
				c0,0-0.1,0-0.1,0c-0.5,0-0.8,0.1-1.1,0.4c-0.2,0.3-0.4,0.6-0.4,1v3.1H360V157.8z"/>
		</g>
	</g>
	<g>
		<rect x="360" y="139.4" width="1.1" height="15"/>
	</g>
	<g>
		<polygon points="361.1,178.2 360.6,179.5 360,179.3 360,164.6 361.1,164.6 		"/>
	</g>
	<g>
		<polygon points="339.8,151.6 341.5,148.2 342.4,148.7 340.9,152 		"/>
	</g>
	<g>
		<polygon points="343.4,153 344.8,150.1 345.7,150.7 344.4,153.4 		"/>
	</g>
	<g>
		<polygon points="346.9,154.3 348,152 349,152.6 348,154.7 		"/>
	</g>
	<g>
		<polygon points="350.5,155.7 351.4,154 352.3,154.6 351.6,156.1 		"/>
	</g>
	<g>
		<polygon points="354.1,157.1 354.6,155.9 355.6,156.5 355.1,157.5 		"/>
	</g>
	<g>
		<polygon points="343,169.2 341.5,165.8 355.1,161.3 355.6,162.3 		"/>
	</g>
	<g>
		<polygon points="351.7,190.5 350.6,190.1 360,179.3 360.6,179.5 360.1,180.9 		"/>
	</g>
	<g>
		<polygon points="354.3,191.7 353.5,191 360.2,183.3 361,184.1 		"/>
	</g>
	<g>
		<polygon points="351.7,211 350.6,211.4 350.6,190.1 351.7,190.5 		"/>
	</g>
	<g>
		<polygon points="360.6,220.5 360.6,222.1 350.6,211.4 351.7,211 		"/>
	</g>
	<g>
		<polygon points="361,216.9 360.2,217.6 353.5,210.5 354.3,209.8 		"/>
	</g>
	<g>
		<polygon points="368.7,211.7 371.2,210.7 360.6,222.1 360.6,220.5 		"/>
	</g>
	<g>
		<polygon points="368.7,190.8 370,190.3 371.2,190.3 371.2,210.7 368.7,211.7 		"/>
	</g>
	<g>
		<rect x="365.4" y="191.8" width="1.1" height="17.8"/>
	</g>
	<g>
		<polygon points="360.1,180.9 360.6,179.5 361.1,178.2 370.7,189.3 370,190.3 368.7,190.8 		"/>
	</g>
	<g>
		<g>
			<path d="M358.3,132.9h1.1l3.3,5.3v-5.3h0.9v6.6h-1l-3.3-5.3v5.3h-0.9V132.9z"/>
		</g>
	</g>
	<g>
		<polygon points="369.8,125.5 370.3,125.7 370.4,126.4 365.1,132.4 364.3,131.6 		"/>
	</g>
	<g>
		<polygon points="367.2,124.3 368,125.1 363,130.5 362.2,129.8 		"/>
	</g>
	<g>
		<polygon points="369.8,105.1 370.9,104.6 370.9,125.4 370.3,125.7 369.8,125.5 		"/>
	</g>
	<g>
		<polygon points="361.4,95.8 360.5,93 370.9,104.6 369.8,105.1 		"/>
	</g>
	<g>
		<polygon points="360.5,98.9 361.3,98.1 368,105.5 367.2,106.3 		"/>
	</g>
	<g>
		<polygon points="352.7,105.3 350.2,104.3 360.5,93 361.4,95.8 		"/>
	</g>
	<g>
		<polygon points="352.7,125.2 350.2,126.2 350.2,104.3 352.7,105.3 		"/>
	</g>
	<g>
		<rect x="354.9" y="106.4" width="1.1" height="17.8"/>
	</g>
	<g>
		<polygon points="358.1,131.2 356.2,132.9 350.2,126.2 352.7,125.2 		"/>
	</g>
	<g>
		<polygon points="397.1,147 397.5,148.1 382,148.6 384.6,147.4 		"/>
	</g>
	<g>
		<polygon points="396.2,144.3 396.2,145.4 386.3,145.7 386.2,144.6 		"/>
	</g>
	<g>
		<polygon points="411.9,132.9 413,133.4 397.5,148.1 397.1,147 		"/>
	</g>
	<g>
		<polygon points="412,119.7 413.1,118.6 413,133.4 411.9,132.9 		"/>
	</g>
	<g>
		<polygon points="409.2,121.9 410.3,121.9 410.2,132 409.1,132 		"/>
	</g>
	<g>
		<polygon points="400.7,120 398.1,118.9 413.1,118.6 412,119.7 		"/>
	</g>
	<g>
		<polygon points="385.5,134.4 384.3,133.9 383.6,132.8 398.1,118.9 400.7,120 		"/>
	</g>
	<g>
		<polygon points="388.6,136.1 387.8,135.3 400.7,123.1 401.5,123.9 		"/>
	</g>
	<g>
		<polygon points="384.6,147.4 382,148.6 383,133.8 384.3,133.9 385.5,134.4 		"/>
	</g>
	<g>
		<polygon points="379.4,147.8 381.1,151.2 380,151.6 378.4,148.4 		"/>
	</g>
	<g>
		<polygon points="375.7,150 377.2,152.9 376.1,153.3 374.8,150.6 		"/>
	</g>
	<g>
		<polygon points="372.1,152.2 373.3,154.5 372.2,154.9 371.2,152.8 		"/>
	</g>
	<g>
		<polygon points="368.5,154.4 369.3,156.1 368.3,156.5 367.5,155 		"/>
	</g>
	<g>
		<polygon points="364.8,156.6 365.4,157.7 364.4,158.2 363.9,157.2 		"/>
	</g>
	<g>
		<polygon points="383.6,132.8 384.3,133.9 383,133.8 370.4,126.4 370.3,125.7 370.9,125.4 		"/>
	</g>
	<g>
		<g>
			<path d="M380.4,166.3h1.1l3.3,5.3v-5.3h0.9v6.6h-1l-3.3-5.3v5.3h-0.9V166.3z"/>
		</g>
	</g>
	<g>
		<polygon points="384,183.3 383.4,183.5 382.9,183.2 382.6,174.2 383.7,174.2 		"/>
	</g>
	<g>
		<polygon points="386.7,182.2 385.6,182.3 385.4,174.2 386.5,174.1 		"/>
	</g>
	<g>
		<polygon points="400,197.1 399.6,198.2 383.4,184.2 383.4,183.5 384,183.3 		"/>
	</g>
	<g>
		<polygon points="411.6,197.2 414.1,198.3 399.6,198.2 400,197.1 		"/>
	</g>
	<g>
		<polygon points="410.1,194.4 410.1,195.5 400.9,195.4 400.9,194.4 		"/>
	</g>
	<g>
		<polygon points="411.3,184.3 413.8,183.1 414.1,198.3 411.6,197.2 		"/>
	</g>
	<g>
		<polygon points="396.7,170.9 397.7,168.3 413.8,183.1 411.3,184.3 		"/>
	</g>
	<g>
		<polygon points="395.2,174.1 396,173.3 408.9,185.1 408.2,185.9 		"/>
	</g>
	<g>
		<polygon points="387,170.8 387,168.3 397.7,168.3 396.7,170.9 		"/>
	</g>
	<g>
		<polygon points="379.1,165.7 377.6,169.2 363,161.2 363.4,160.2 		"/>
	</g>
	<g>
		<polygon points="371.2,190.3 370,190.3 370.7,189.3 382.9,183.2 383.4,183.5 383.4,184.2 		"/>
	</g>
	<g>
		<path class="st0" d="M356.3,243.9c-1.2,0-2.3-0.1-3.5-0.1l0.2-4.1c1.1,0.1,2.2,0.1,3.3,0.1L356.3,243.9z M359.8,243.9l-0.1-4.1
			c1.1,0,2.2-0.1,3.3-0.2l0.3,4.1C362.2,243.8,361,243.9,359.8,243.9z M349.3,243.5c-1.2-0.1-2.3-0.2-3.5-0.4l0.6-4.1
			c1.1,0.1,2.2,0.3,3.3,0.4L349.3,243.5z M366.8,243.4l-0.4-4.1c1.1-0.1,2.2-0.3,3.3-0.4l0.6,4.1C369.2,243.1,368,243.3,366.8,243.4
			z M342.4,242.6c-1.2-0.2-2.3-0.4-3.4-0.7l0.9-4c1.1,0.2,2.2,0.5,3.3,0.6L342.4,242.6z M373.8,242.4l-0.8-4.1
			c1.1-0.2,2.2-0.4,3.3-0.7l0.9,4C376.1,241.9,374.9,242.2,373.8,242.4z M335.5,241.1c-1.1-0.3-2.3-0.6-3.4-1l1.2-4
			c1.1,0.3,2.1,0.6,3.2,0.9L335.5,241.1z M380.6,240.8l-1.1-4c1.1-0.3,2.1-0.6,3.2-1l1.3,3.9C382.9,240.1,381.7,240.5,380.6,240.8z
			 M328.8,239c-1.1-0.4-2.2-0.8-3.3-1.2l1.5-3.8c1,0.4,2.1,0.8,3.1,1.2L328.8,239z M387.3,238.6l-1.4-3.9c1-0.4,2.1-0.8,3.1-1.2
			l1.6,3.8C389.5,237.8,388.4,238.2,387.3,238.6z M322.3,236.4c-1.1-0.5-2.1-1-3.2-1.5l1.8-3.7c1,0.5,2,1,3,1.4L322.3,236.4z
			 M393.8,235.9l-1.7-3.8c1-0.5,2-1,3-1.5l1.9,3.7C395.9,234.9,394.8,235.4,393.8,235.9z M316.1,233.3c-1-0.6-2-1.1-3-1.7l2.1-3.6
			c0.9,0.6,1.9,1.1,2.9,1.7L316.1,233.3z M400,232.7l-2-3.6c1-0.5,1.9-1.1,2.9-1.7l2.2,3.5C402.1,231.5,401,232.1,400,232.7z
			 M310.1,229.7c-1-0.6-1.9-1.3-2.9-2l2.4-3.4c0.9,0.6,1.8,1.3,2.7,1.9L310.1,229.7z M406,229l-2.3-3.4c0.9-0.6,1.8-1.3,2.7-1.9
			l2.5,3.3C407.9,227.7,407,228.3,406,229z M304.4,225.6c-0.9-0.7-1.8-1.5-2.7-2.2l2.7-3.2c0.8,0.7,1.7,1.4,2.6,2.1L304.4,225.6z
			 M411.6,224.8l-2.6-3.2c0.9-0.7,1.7-1.4,2.6-2.1l2.7,3.1C413.4,223.3,412.5,224.1,411.6,224.8z M299,221.1
			c-0.9-0.8-1.7-1.6-2.5-2.4l2.9-2.9c0.8,0.8,1.6,1.6,2.4,2.3L299,221.1z M416.9,220.2l-2.9-3c0.8-0.8,1.6-1.5,2.4-2.3l3,2.9
			C418.6,218.6,417.8,219.4,416.9,220.2z M294.1,216.1c-0.8-0.9-1.6-1.7-2.3-2.6l3.2-2.7c0.7,0.8,1.5,1.7,2.2,2.5L294.1,216.1z
			 M421.8,215.2l-3.1-2.8c0.7-0.8,1.5-1.7,2.2-2.5l3.2,2.6C423.3,213.4,422.6,214.3,421.8,215.2z M289.5,210.8
			c-0.7-0.9-1.4-1.9-2.1-2.8l3.4-2.4c0.6,0.9,1.3,1.8,2,2.7L289.5,210.8z M426.3,209.8l-3.3-2.5c0.7-0.9,1.3-1.8,2-2.7l3.4,2.4
			C427.7,207.9,427,208.8,426.3,209.8z M285.4,205.1c-0.6-1-1.3-2-1.9-3l3.5-2.1c0.6,0.9,1.2,1.9,1.8,2.8L285.4,205.1z M430.3,204
			l-3.5-2.2c0.6-0.9,1.2-1.9,1.7-2.8l3.6,2.1C431.5,202,430.9,203,430.3,204z M281.8,199.1c-0.6-1-1.1-2.1-1.6-3.1l3.7-1.8
			c0.5,1,1,2,1.6,3L281.8,199.1z M433.8,198l-3.7-1.9c0.5-1,1-2,1.5-3l3.7,1.8C434.9,195.9,434.4,196.9,433.8,198z M278.6,192.8
			c-0.5-1.1-0.9-2.2-1.4-3.2l3.8-1.5c0.4,1,0.9,2.1,1.3,3.1L278.6,192.8z M436.8,191.7L433,190c0.4-1,0.9-2.1,1.3-3.1l3.9,1.5
			C437.7,189.5,437.3,190.6,436.8,191.7z M276,186.3c-0.4-1.1-0.8-2.2-1.1-3.3l4-1.2c0.3,1.1,0.7,2.1,1,3.2L276,186.3z M439.3,185.1
			l-3.9-1.3c0.4-1.1,0.7-2.1,1-3.2l4,1.2C440.1,182.9,439.7,184,439.3,185.1z M274,179.5c-0.3-1.1-0.6-2.3-0.8-3.4l4-0.9
			c0.2,1.1,0.5,2.2,0.8,3.2L274,179.5z M441.3,178.4l-4-1c0.3-1.1,0.5-2.2,0.7-3.3l4.1,0.8C441.9,176.1,441.6,177.3,441.3,178.4z
			 M272.5,172.7c-0.2-1.1-0.4-2.3-0.5-3.5l4.1-0.6c0.1,1.1,0.3,2.2,0.5,3.3L272.5,172.7z M442.7,171.5l-4.1-0.7
			c0.2-1.1,0.3-2.2,0.5-3.3l4.1,0.5C443.1,169.2,442.9,170.4,442.7,171.5z M271.5,165.7c-0.1-1.2-0.2-2.3-0.3-3.5l4.1-0.2
			c0.1,1.1,0.1,2.2,0.2,3.3L271.5,165.7z M443.6,164.6l-4.1-0.3c0.1-1.1,0.2-2.2,0.2-3.3l4.1,0.2
			C443.7,162.2,443.7,163.4,443.6,164.6z M271.2,158.7c0-0.4,0-0.8,0-1.2c0-0.8,0-1.6,0-2.3l4.1,0.1c0,0.7,0,1.5,0,2.2
			c0,0.4,0,0.7,0,1.1L271.2,158.7z M439.7,157.5c0-1.1,0-2.2-0.1-3.3l4.1-0.2c0,1.2,0.1,2.3,0.1,3.5L439.7,157.5z M275.5,152
			l-4.1-0.3c0.1-1.2,0.2-2.3,0.3-3.5l4.1,0.4C275.6,149.8,275.5,150.9,275.5,152z M439.4,150.9c-0.1-1.1-0.2-2.2-0.3-3.3l4.1-0.5
			c0.1,1.2,0.3,2.3,0.4,3.5L439.4,150.9z M276.2,145.4l-4.1-0.6c0.2-1.1,0.4-2.3,0.6-3.5l4.1,0.8
			C276.5,143.2,276.4,144.3,276.2,145.4z M438.6,144.2c-0.2-1.1-0.4-2.2-0.6-3.3l4.1-0.8c0.2,1.1,0.4,2.3,0.6,3.5L438.6,144.2z
			 M277.4,138.8l-4-0.9c0.3-1.1,0.6-2.3,0.9-3.4l4,1.1C278,136.6,277.7,137.7,277.4,138.8z M437.3,137.7c-0.3-1.1-0.6-2.2-0.9-3.2
			l4-1.2c0.3,1.1,0.6,2.3,0.9,3.4L437.3,137.7z M279.2,132.4l-3.9-1.3c0.4-1.1,0.7-2.2,1.1-3.3l3.9,1.4
			C279.9,130.3,279.6,131.3,279.2,132.4z M435.4,131.3c-0.4-1-0.7-2.1-1.1-3.1l3.9-1.5c0.4,1.1,0.8,2.2,1.2,3.3L435.4,131.3z
			 M281.5,126.1l-3.8-1.6c0.4-1.1,0.9-2.2,1.4-3.2l3.8,1.7C282.4,124.1,281.9,125.1,281.5,126.1z M433,125c-0.4-1-0.9-2-1.4-3
			l3.7-1.8c0.5,1.1,1,2.1,1.5,3.2L433,125z M284.3,120.1l-3.7-1.9c0.5-1,1.1-2.1,1.7-3.1l3.6,2C285.4,118.1,284.8,119.1,284.3,120.1
			z M430.1,119c-0.5-1-1.1-2-1.6-2.9l3.6-2.1c0.6,1,1.2,2,1.7,3.1L430.1,119z M287.6,114.3l-3.5-2.2c0.6-1,1.3-2,1.9-2.9l3.4,2.3
			C288.8,112.4,288.2,113.3,287.6,114.3z M426.7,113.2c-0.6-0.9-1.2-1.9-1.9-2.8l3.4-2.4c0.7,1,1.3,1.9,2,2.9L426.7,113.2z
			 M291.4,108.8l-3.3-2.5c0.7-0.9,1.4-1.9,2.1-2.8l3.2,2.6C292.7,107,292,107.9,291.4,108.8z M422.9,107.8c-0.7-0.9-1.4-1.8-2.1-2.6
			l3.2-2.6c0.7,0.9,1.5,1.8,2.2,2.7L422.9,107.8z M295.5,103.6l-3.1-2.7c0.8-0.9,1.6-1.8,2.4-2.6l3,2.8
			C297,101.9,296.3,102.7,295.5,103.6z M418.6,102.6c-0.7-0.8-1.5-1.6-2.3-2.4l3-2.9c0.8,0.8,1.6,1.7,2.4,2.6L418.6,102.6z
			 M300.1,98.7l-2.9-3c0.8-0.8,1.7-1.6,2.6-2.4l2.8,3.1C301.7,97.2,300.9,97.9,300.1,98.7z M414,97.8c-0.8-0.8-1.6-1.5-2.5-2.2
			l2.7-3.1c0.9,0.8,1.8,1.6,2.6,2.4L414,97.8z M305.1,94.2l-2.6-3.2c0.9-0.7,1.8-1.5,2.7-2.2l2.5,3.3
			C306.8,92.8,306,93.5,305.1,94.2z M408.9,93.5c-0.9-0.7-1.8-1.4-2.6-2l2.5-3.3c0.9,0.7,1.9,1.4,2.8,2.1L408.9,93.5z M310.4,90.2
			l-2.4-3.4c1-0.7,1.9-1.3,2.9-2l2.2,3.5C312.3,88.9,311.3,89.6,310.4,90.2z M403.6,89.5c-0.9-0.6-1.9-1.2-2.8-1.8l2.2-3.5
			c1,0.6,2,1.3,2.9,1.9L403.6,89.5z M316,86.6l-2.1-3.6c1-0.6,2-1.2,3.1-1.7l1.9,3.7C318,85.5,317,86,316,86.6z M397.9,86
			c-1-0.5-2-1.1-2.9-1.6l1.9-3.7c1,0.5,2.1,1.1,3.1,1.7L397.9,86z M321.9,83.4l-1.8-3.7c1.1-0.5,2.1-1,3.2-1.5L325,82
			C324,82.5,322.9,83,321.9,83.4z M392,82.9c-1-0.5-2-0.9-3.1-1.3l1.6-3.8c1.1,0.4,2.2,0.9,3.2,1.4L392,82.9z M328.1,80.8l-1.5-3.9
			c1.1-0.4,2.2-0.8,3.3-1.2l1.3,3.9C330.2,80,329.1,80.4,328.1,80.8z M385.8,80.4c-1-0.4-2.1-0.7-3.2-1.1l1.3-3.9
			c1.1,0.4,2.2,0.7,3.3,1.1L385.8,80.4z M334.4,78.7l-1.2-4c1.1-0.3,2.3-0.6,3.4-0.9l1,4C336.6,78,335.5,78.3,334.4,78.7z
			 M379.5,78.3c-1.1-0.3-2.2-0.6-3.2-0.8l0.9-4c1.1,0.3,2.3,0.6,3.4,0.9L379.5,78.3z M340.9,77l-0.8-4.1c1.1-0.2,2.3-0.4,3.5-0.6
			l0.7,4.1C343.1,76.6,342,76.8,340.9,77z M373,76.8c-1.1-0.2-2.2-0.4-3.3-0.6l0.6-4.1c1.2,0.2,2.3,0.4,3.5,0.6L373,76.8z M347.5,76
			l-0.5-4.1c1.2-0.1,2.3-0.3,3.5-0.4l0.3,4.1C349.7,75.7,348.6,75.8,347.5,76z M366.4,75.8c-1.1-0.1-2.2-0.2-3.3-0.3l0.3-4.1
			c1.2,0.1,2.3,0.2,3.5,0.3L366.4,75.8z M354.2,75.4l-0.2-4.1c1.2,0,2.4-0.1,3.5-0.1c0.8,0,1.5,0,2.3,0l-0.1,4.1c-0.7,0-1.5,0-2.2,0
			C356.4,75.4,355.3,75.4,354.2,75.4z"/>
	</g>
	<g>
		<circle class="st1" cx="218.6" cy="68.3" r="12.7"/>
	</g>
	<g>
		<path class="st1" d="M218.6,82c-7.5,0-13.7-6.1-13.7-13.7s6.1-13.7,13.7-13.7s13.7,6.1,13.7,13.7S226.1,82,218.6,82z M218.6,56.5
			c-6.5,0-11.8,5.3-11.8,11.8s5.3,11.8,11.8,11.8c6.5,0,11.8-5.3,11.8-11.8S225.1,56.5,218.6,56.5z"/>
	</g>
	<g>
		<path class="st2" d="M218.6,82c-7.5,0-13.7-6.1-13.7-13.7s6.1-13.7,13.7-13.7s13.7,6.1,13.7,13.7S226.1,82,218.6,82z M218.6,56.5
			c-6.5,0-11.8,5.3-11.8,11.8s5.3,11.8,11.8,11.8c6.5,0,11.8-5.3,11.8-11.8S225.1,56.5,218.6,56.5z"/>
	</g>
	<g>
		<g>
			<path d="M217.8,66.4c0.4,0.2,0.7,0.5,1,0.8c0.2,0.3,0.4,0.7,0.4,1.1c0.1,0.3,0.1,0.8,0.1,1.4h-4.6c0,0.6,0.2,1.2,0.5,1.5
				c0.3,0.4,0.7,0.6,1.3,0.6c0.6,0,1-0.2,1.3-0.6c0.2-0.2,0.3-0.5,0.4-0.7h1c0,0.2-0.1,0.5-0.3,0.8c-0.2,0.3-0.3,0.5-0.5,0.7
				c-0.3,0.3-0.7,0.5-1.2,0.6c-0.3,0.1-0.5,0.1-0.9,0.1c-0.8,0-1.4-0.3-2-0.9c-0.5-0.6-0.8-1.4-0.8-2.4c0-1,0.3-1.8,0.8-2.5
				s1.3-0.9,2.1-0.9C217,66.1,217.4,66.2,217.8,66.4z M218.2,68.9c0-0.5-0.1-0.8-0.3-1.1c-0.3-0.5-0.8-0.8-1.4-0.8
				c-0.5,0-0.9,0.2-1.2,0.5c-0.3,0.4-0.5,0.8-0.5,1.3H218.2z"/>
		</g>
	</g>
	<g>
		<g>
			<rect x="221.7" y="65.7" width="3.9" height="0.9"/>
		</g>
	</g>
	<g>
		<path class="st0" d="M461.2,258.9l-0.3,0l0-4.1l0.2,0c1,0,2,0,3-0.1l0.4,4.1C463.4,258.8,462.3,258.9,461.2,258.9z M457.3,258.7
			c-0.3,0-0.6-0.1-0.9-0.1c-0.9-0.1-1.8-0.3-2.7-0.4l0.8-4.1c0.8,0.2,1.6,0.3,2.4,0.4c0.3,0,0.5,0.1,0.8,0.1L457.3,258.7z
			 M468.1,258.2l-0.7-4.1c1.1-0.2,2.1-0.4,3.1-0.7l1.1,4C470.5,257.8,469.3,258,468.1,258.2z M450.2,257.3c-1.2-0.3-2.3-0.7-3.4-1.2
			l1.5-3.8c1,0.4,2,0.8,3,1.1L450.2,257.3z M475.1,256.3l-1.5-3.9c0.5-0.2,1-0.4,1.4-0.6l1.7,3.8
			C476.2,255.9,475.6,256.1,475.1,256.3z M443.5,254.6c-1.1-0.6-2.1-1.2-3.1-1.8l2.2-3.5c0.9,0.6,1.8,1.1,2.8,1.6L443.5,254.6z
			 M437.4,250.7c-0.9-0.7-1.9-1.5-2.7-2.4l2.9-3c0.8,0.7,1.6,1.5,2.4,2.1L437.4,250.7z M432.2,245.7c-0.8-0.9-1.5-1.9-2.3-2.8
			l3.4-2.4c0.6,0.9,1.3,1.7,2,2.5L432.2,245.7z M428,239.8c-0.6-1-1.2-2.1-1.7-3.2l3.8-1.8c0.5,1,1,1.9,1.5,2.9L428,239.8z
			 M424.9,233.3c-0.4-1.1-0.8-2.3-1.1-3.5l4-1c0.3,1,0.6,2.1,0.9,3.1L424.9,233.3z M423.1,226.3c-0.2-1.2-0.3-2.4-0.4-3.6l4.1-0.3
			c0.1,1.1,0.2,2.2,0.3,3.2L423.1,226.3z M426.8,219.2l-4.1-0.1c0-1.2,0.1-2.4,0.3-3.6l4.1,0.5C426.9,217.1,426.8,218.1,426.8,219.2
			z"/>
	</g>
	<g>
		<path class="st0" d="M295.6,94.3l-4.1-0.9c0.2-1.1,0.4-2.1,0.5-3.2l4.1,0.5C296.1,91.9,295.9,93.1,295.6,94.3z M296.5,87.1
			l-4.1-0.1c0-0.3,0-0.5,0-0.8c0-0.8,0-1.6-0.1-2.5l4.1-0.3c0.1,0.9,0.1,1.8,0.1,2.8C296.5,86.6,296.5,86.8,296.5,87.1z M291.8,80.6
			c-0.2-1.1-0.4-2.1-0.7-3.2l4-1.1c0.3,1.2,0.6,2.4,0.8,3.5L291.8,80.6z M290.2,74.4c-0.4-1-0.8-2-1.3-3l3.7-1.8
			c0.5,1.1,1,2.2,1.4,3.3L290.2,74.4z M287.4,68.6c-0.6-0.9-1.2-1.8-1.8-2.7l3.3-2.5c0.7,1,1.4,2,2,3L287.4,68.6z M283.6,63.4
			c-0.7-0.8-1.5-1.6-2.3-2.3l2.8-3c0.9,0.8,1.7,1.7,2.5,2.6L283.6,63.4z M234.6,60.9l-2.8-3.1c0.8-0.7,1.6-1.4,2.4-2l2.5,3.3
			C236,59.7,235.3,60.3,234.6,60.9z M278.8,59c-0.8-0.7-1.7-1.3-2.6-1.8l2.2-3.5c1,0.6,2,1.3,3,2.1L278.8,59z M239.4,57.3l-2.2-3.5
			c1-0.6,2.1-1.2,3.2-1.8l1.9,3.7C241.3,56.2,240.3,56.7,239.4,57.3z M273.4,55.5c-1-0.5-1.9-0.9-2.9-1.3l1.5-3.9
			c1.1,0.4,2.2,0.9,3.3,1.5L273.4,55.5z M245.2,54.4l-1.5-3.9c1.1-0.4,2.3-0.8,3.4-1.2l1.2,4C247.2,53.6,246.2,54,245.2,54.4z
			 M267.4,53.2c-0.8-0.2-1.6-0.4-2.3-0.6c-0.3-0.1-0.5-0.1-0.8-0.2l0.8-4.1c0.3,0.1,0.6,0.1,0.9,0.2c0.9,0.2,1.8,0.4,2.6,0.7
			L267.4,53.2z M251.4,52.6l-0.8-4.1c1.2-0.2,2.4-0.4,3.6-0.5l0.4,4.1C253.5,52.2,252.4,52.3,251.4,52.6z M261,52
			c-1-0.1-1.9-0.1-2.9-0.1c0,0,0,0,0,0l-0.3,0l0-4.1l0.3,0c0,0,0,0,0,0c1.1,0,2.2,0,3.3,0.1L261,52z"/>
	</g>
	<g>
		<path d="M235.9,29.1c0-2,1.7-3.7,3.8-3.7c1.4,0,2.5,1.2,2.5,2.5c0,2-1.7,3.7-3.8,3.7C237.1,31.7,235.9,30.5,235.9,29.1z M241.3,28
			c0-1-0.8-1.8-1.8-1.8c-1.5,0-2.7,1.3-2.7,2.9c0,1,0.8,1.8,1.7,1.8C240,30.9,241.3,29.6,241.3,28z"/>
		<path d="M246.4,28.5l1.6,3h-1l-1.3-2.4l-2.3,2.4h-1l2.9-3l-1.6-2.9h1l1.2,2.2l2.2-2.2h1L246.4,28.5z"/>
		<path d="M250.5,25.6h0.9l-1.2,5.9h-0.9L250.5,25.6z M250.6,24c0-0.3,0.3-0.6,0.6-0.6c0.3,0,0.5,0.2,0.5,0.5c0,0.3-0.3,0.6-0.6,0.6
			S250.6,24.3,250.6,24z"/>
		<path d="M259.1,23.5l-1.7,8h-0.9l0.2-1.1c-0.6,0.8-1.4,1.2-2.4,1.2c-1.2,0-2.2-1.1-2.2-2.4c0-2.1,1.6-3.9,3.5-3.9
			c0.8,0,1.5,0.6,1.8,1.4l0.7-3.3H259.1z M257.1,28.6l0-0.2c0-0.2,0-0.4,0-0.6c0-0.9-0.8-1.7-1.7-1.7c-1.3,0-2.5,1.4-2.5,3
			c0,0.9,0.7,1.7,1.5,1.7C255.8,30.9,256.8,29.9,257.1,28.6z"/>
		<path d="M266,25.6l-1.2,5.9h-0.9l0.2-1.1c-0.6,0.8-1.4,1.3-2.4,1.3c-1.2,0-2.2-1.1-2.2-2.4c0-2.1,1.6-3.9,3.5-3.9
			c0.8,0,1.5,0.6,1.8,1.4l0.3-1.3H266z M264.6,27.9c0-0.9-0.8-1.7-1.7-1.7c-1.3,0-2.5,1.4-2.5,3c0,0.9,0.7,1.7,1.5,1.7
			C263.4,30.9,264.6,29.5,264.6,27.9z"/>
		<path d="M269.1,26.3c-0.9,4.2-0.8,3.9-0.8,4c0,0.3,0.2,0.5,0.4,0.5c0.3,0,0.6-0.1,0.7-0.3l0.3,0.7c-0.4,0.2-0.8,0.4-1.2,0.4
			c-0.7,0-1.2-0.5-1.2-1.2c0-0.3,0-0.5,0.8-4.1h-0.9l0.2-0.8h0.9l0.3-1.6h0.9l-0.3,1.6h1.5l-0.2,0.8H269.1z"/>
		<path d="M272.2,25.6h0.9l-1.2,5.9h-0.9L272.2,25.6z M272.3,24c0-0.3,0.3-0.6,0.6-0.6c0.3,0,0.5,0.2,0.5,0.5c0,0.3-0.3,0.6-0.6,0.6
			C272.5,24.5,272.3,24.3,272.3,24z"/>
		<path d="M273.8,29.1c0-2,1.7-3.7,3.8-3.7c1.4,0,2.5,1.2,2.5,2.5c0,2-1.7,3.7-3.8,3.7C274.9,31.7,273.8,30.5,273.8,29.1z M279.1,28
			c0-1-0.8-1.8-1.8-1.8c-1.5,0-2.7,1.3-2.7,2.9c0,1,0.8,1.8,1.7,1.8C277.9,30.9,279.1,29.6,279.1,28z"/>
		<path d="M286.7,27.2c0,0.4-0.1,0.7-0.8,4.3H285c0.7-3.5,0.8-3.8,0.8-4.2c0-0.7-0.4-1.2-1.1-1.2c-1,0-2,0.7-2.2,1.5l-0.8,3.8h-0.9
			l1.2-5.9h0.9l-0.2,0.9c0.5-0.6,1.3-1,2.1-1C286,25.4,286.7,26.2,286.7,27.2z"/>
	</g>
	<g>
		<g>
			<path d="M442.1,278.7l-0.1,0.8c-1.3,0-2.5,0.9-2.8,2l-0.7,3.3h-0.9l1.2-6h0.9l-0.2,1.1C440,279.2,441,278.7,442.1,278.7z"/>
		</g>
		<g>
			<path d="M443.2,282.1c0,0.1,0,0.1,0,0.2c0,1.1,0.6,1.8,1.7,1.8c0.7,0,1.6-0.3,2-0.7l0.5,0.6c-0.6,0.6-1.8,0.9-2.6,0.9
				c-1.4,0-2.4-1-2.4-2.5c0-2,1.8-3.7,3.6-3.7c1.1,0,2.1,0.6,2.1,1.6c0,1-1,1.8-2.8,1.8H443.2z M443.3,281.4h2.1
				c1.2,0,1.8-0.4,1.8-1c0-0.6-0.6-0.9-1.3-0.9C444.7,279.5,443.7,280.3,443.3,281.4z"/>
		</g>
		<g>
			<path d="M455.8,276.7l-1.7,8h-0.9l0.2-1.1c-0.6,0.8-1.5,1.2-2.4,1.2c-1.2,0-2.2-1.1-2.2-2.4c0-2.1,1.6-3.9,3.5-3.9
				c0.8,0,1.5,0.6,1.8,1.4l0.7-3.4H455.8z M453.9,281.9l0-0.2c0-0.2,0-0.4,0-0.6c0-0.9-0.8-1.7-1.7-1.7c-1.3,0-2.5,1.4-2.5,3
				c0,0.9,0.7,1.7,1.5,1.7C452.5,284.1,453.6,283.2,453.9,281.9z"/>
		</g>
		<g>
			<path d="M462.3,278.8l-1.2,6h-0.9l0.2-0.9c-0.5,0.6-1.3,1-2.1,1c-1.2,0-1.9-0.7-1.9-1.8c0-0.4,0.1-0.7,0.8-4.3h0.9
				c-0.7,3.5-0.8,3.8-0.8,4.2c0,0.7,0.4,1.2,1.1,1.2c1,0,2-0.7,2.2-1.5l0.8-3.8H462.3z"/>
		</g>
		<g>
			<path d="M463,282.4c0-2,1.7-3.7,3.8-3.7c0.7,0,1.5,0.4,1.9,0.9l-0.7,0.5c-0.3-0.4-0.9-0.7-1.4-0.7c-1.5,0-2.7,1.3-2.7,2.9
				c0,1,0.8,1.8,1.7,1.8c0.6,0,1.2-0.2,1.7-0.7l0.5,0.6c-0.7,0.6-1.5,0.9-2.4,0.9C464.2,284.9,463,283.8,463,282.4z"/>
		</g>
		<g>
			<path d="M471.5,279.6c-0.9,4.2-0.8,3.9-0.8,4c0,0.3,0.2,0.5,0.4,0.5c0.3,0,0.6-0.1,0.7-0.3l0.3,0.7c-0.4,0.2-0.8,0.4-1.2,0.4
				c-0.7,0-1.2-0.5-1.2-1.2c0-0.3,0-0.5,0.8-4.1h-0.9l0.2-0.8h0.9l0.3-1.6h0.9l-0.3,1.6h1.5l-0.2,0.8H471.5z"/>
		</g>
		<g>
			<path d="M474.6,278.8h0.9l-1.2,6h-0.9L474.6,278.8z M474.7,277.2c0-0.3,0.3-0.6,0.6-0.6c0.3,0,0.5,0.2,0.5,0.5
				c0,0.3-0.3,0.6-0.6,0.6S474.7,277.5,474.7,277.2z"/>
		</g>
		<g>
			<path d="M476.2,282.4c0-2,1.7-3.7,3.8-3.7c1.4,0,2.5,1.2,2.5,2.5c0,2-1.7,3.7-3.8,3.7C477.3,284.9,476.2,283.8,476.2,282.4z
				 M481.6,281.3c0-1-0.8-1.8-1.8-1.8c-1.5,0-2.7,1.3-2.7,2.9c0,1,0.8,1.8,1.7,1.8C480.3,284.1,481.6,282.8,481.6,281.3z"/>
		</g>
		<g>
			<path d="M489.1,280.5c0,0.4-0.1,0.7-0.8,4.3h-0.9c0.7-3.5,0.8-3.8,0.8-4.2c0-0.7-0.4-1.2-1.1-1.2c-1,0-2,0.7-2.2,1.5l-0.8,3.8
				h-0.9l1.2-6h0.9l-0.2,0.9c0.5-0.6,1.3-1,2.1-1C488.4,278.7,489.1,279.4,489.1,280.5z"/>
		</g>
	</g>
	<g>
		<circle class="st1" cx="504.7" cy="235.8" r="12.7"/>
	</g>
	<g>
		<path class="st1" d="M504.7,249.5c-7.5,0-13.7-6.1-13.7-13.7s6.1-13.7,13.7-13.7s13.7,6.1,13.7,13.7S512.2,249.5,504.7,249.5z
			 M504.7,224c-6.5,0-11.8,5.3-11.8,11.8c0,6.5,5.3,11.8,11.8,11.8c6.5,0,11.8-5.3,11.8-11.8C516.4,229.3,511.2,224,504.7,224z"/>
	</g>
	<g>
		<path class="st2" d="M504.7,249.5c-7.5,0-13.7-6.1-13.7-13.7s6.1-13.7,13.7-13.7s13.7,6.1,13.7,13.7S512.2,249.5,504.7,249.5z
			 M504.7,224c-6.5,0-11.8,5.3-11.8,11.8c0,6.5,5.3,11.8,11.8,11.8c6.5,0,11.8-5.3,11.8-11.8C516.4,229.3,511.2,224,504.7,224z"/>
	</g>
	<g>
		<g>
			<path d="M503.9,233.9c0.4,0.2,0.7,0.5,1,0.8c0.2,0.3,0.4,0.7,0.4,1.1c0.1,0.3,0.1,0.8,0.1,1.4h-4.6c0,0.6,0.2,1.2,0.5,1.5
				c0.3,0.4,0.7,0.6,1.3,0.6c0.6,0,1-0.2,1.3-0.6c0.2-0.2,0.3-0.5,0.4-0.7h1c0,0.2-0.1,0.5-0.3,0.8c-0.2,0.3-0.3,0.5-0.5,0.7
				c-0.3,0.3-0.7,0.5-1.2,0.6c-0.3,0.1-0.5,0.1-0.9,0.1c-0.8,0-1.4-0.3-2-0.9c-0.5-0.6-0.8-1.4-0.8-2.4c0-1,0.3-1.8,0.8-2.5
				c0.5-0.6,1.3-1,2.1-1C503,233.6,503.5,233.7,503.9,233.9z M504.3,236.4c0-0.5-0.1-0.8-0.3-1.1c-0.3-0.5-0.8-0.8-1.4-0.8
				c-0.5,0-0.9,0.2-1.2,0.5c-0.3,0.4-0.5,0.8-0.5,1.3H504.3z"/>
		</g>
	</g>
	<g>
		<g>
			<rect x="507.8" y="233.2" width="3.9" height="0.9"/>
		</g>
	</g>
	<g>
		<path class="st0" d="M489.1,246.4L489.1,246.4l-13.9,3.5c0,0,2.6,1,3.4,2.5c0.8,1.5,0.4,4.2,0.4,4.2L489.1,246.4z"/>
	</g>
</g>
<g>
	<g>
		<g>
			<path d="M184.2,348.1h1.1l3.3,5.3v-5.3h0.9v6.6h-1l-3.3-5.3v5.3h-0.9V348.1z"/>
		</g>
		<polygon points="157.3,351.6 156.1,352.5 156.1,341.6 157.4,342.5 		"/>
		<polygon points="171.7,356.1 171.7,356.7 171.1,357.2 156.1,352.5 157.3,351.6 		"/>
		<polygon points="171.9,352.9 171.5,354.1 159.6,350.4 160,349.2 		"/>
		<polygon points="182,352.4 182.5,353.6 172.3,357.2 171.7,356.7 171.7,356.1 		"/>
		<polygon points="186.2,341.3 187.5,341.4 187.5,346.7 186.2,346.7 		"/>
		<polygon points="183.1,343.6 184.4,343.6 184.4,346.7 183.1,346.7 		"/>
		<polygon points="171.9,337.3 171.8,336 187.5,340.9 186.2,341.8 		"/>
		<polygon points="157.4,342.5 156.1,341.6 171.8,336 171.9,337.3 		"/>
		<polygon points="160.1,344.8 159.6,343.7 171.7,339.4 172.1,340.6 		"/>
		<polygon points="172.3,366.3 171.7,366.7 171.1,366.3 171.1,357.2 171.7,356.7 172.3,357.2 		"/>
		<g>
			<path d="M184.1,368.1h1.1l3.3,5.3v-5.3h0.9v6.6h-1l-3.3-5.3v5.3h-0.9V368.1z"/>
		</g>
		<polygon points="157.2,372.6 156,371.7 171.1,366.3 171.7,366.7 171.7,367.4 		"/>
		<polygon points="159.9,374.9 159.5,373.7 171.5,369.5 171.9,370.6 		"/>
		<polygon points="157.2,381 155.9,383.3 156,371.7 157.2,372.6 		"/>
		<polygon points="171.5,385.5 171.6,388.1 155.9,383.3 157.2,381 		"/>
		<polygon points="171.7,382.3 171.3,383.4 160.1,380 160.5,378.8 		"/>
		<polygon points="186,380.3 187.3,382.5 171.6,388.1 171.5,385.5 		"/>
		<polygon points="186.1,376.1 187.3,376.1 187.3,382.5 186,380.3 		"/>
		<polygon points="183,376 184.2,376 184.2,379.2 182.9,379.2 		"/>
		<polygon points="171.7,367.4 171.7,366.7 172.3,366.3 182.4,369.4 182,370.6 		"/>
		<g>
			<path d="M209.3,357.4h1.2l3.7,6v-6h1v7.4H214l-3.8-6v6h-1V357.4z"/>
			<path d="M216.7,357.4h0.9v1h-0.9V357.4z M216.7,359.4h0.9v5.4h-0.9V359.4z"/>
		</g>
		<polygon points="207.7,358.5 207.2,359.7 206,359.3 206.5,358 		"/>
		<polygon points="204.1,356.8 203.4,358.5 202.2,358.2 202.9,356.3 		"/>
		<polygon points="200.5,355.2 199.6,357.5 198.4,357.1 199.3,354.7 		"/>
		<polygon points="196.9,353.5 195.8,356.3 194.6,356 195.7,353 		"/>
		<polygon points="193.3,351.9 192,355.2 190.8,354.9 192.1,351.4 		"/>
		<polygon points="208.2,363.6 208.6,364.8 191.9,371.7 190.8,368.1 		"/>
		<polygon points="246.2,372.8 244.7,376.3 219.8,364.2 220.3,363 		"/>
		<polygon points="244.6,345.1 246.3,348.5 245.1,349 243.5,345.7 		"/>
		<polygon points="241.2,346.9 242.7,350 241.6,350.5 240.2,347.5 		"/>
		<polygon points="237.9,348.7 239.2,351.5 238,352 236.8,349.3 		"/>
		<polygon points="234.5,350.5 235.6,353 234.5,353.5 233.4,351.1 		"/>
		<polygon points="231.1,352.4 232.1,354.5 230.9,355 230,352.9 		"/>
		<polygon points="227.7,354.2 228.5,356 227.4,356.5 226.6,354.8 		"/>
		<polygon points="224.3,356 225,357.5 223.8,358 223.1,356.6 		"/>
		<polygon points="220.8,357.8 221.4,359 220.3,359.5 219.7,358.4 		"/>
		<g>
			<g>
				<defs>
					<circle id="SVGID_1_" cx="249" cy="376" r="9.6"/>
				</defs>
				<clipPath id="SVGID_2_">
					<use xlink:href="#SVGID_1_"  style="overflow:visible;"/>
				</clipPath>
				<g class="st3">
					<defs>
						<rect id="SVGID_3_" x="96.8" y="131.6" width="881.2" height="588.8"/>
					</defs>
					<clipPath id="SVGID_4_">
						<use xlink:href="#SVGID_3_"  style="overflow:visible;"/>
					</clipPath>
					<circle class="st4" cx="249" cy="376" r="9.6"/>
					<circle class="st5" cx="249" cy="376" r="9.6"/>
					<circle class="st6" cx="248.9" cy="375.9" r="9.4"/>
					<circle class="st7" cx="248.9" cy="375.9" r="9.4"/>
					<circle class="st8" cx="248.7" cy="375.7" r="9.1"/>
					<circle class="st9" cx="248.7" cy="375.7" r="9.1"/>
					<circle class="st10" cx="248.6" cy="375.6" r="8.8"/>
					<circle class="st11" cx="248.6" cy="375.6" r="8.8"/>
					<circle class="st12" cx="248.4" cy="375.4" r="8.6"/>
					<circle class="st13" cx="248.4" cy="375.4" r="8.6"/>
					<circle class="st14" cx="248.3" cy="375.3" r="8.3"/>
					<circle class="st15" cx="248.3" cy="375.3" r="8.3"/>
					<circle class="st16" cx="248.1" cy="375.1" r="8.1"/>
					<circle class="st17" cx="248.1" cy="375.1" r="8.1"/>
					<circle class="st18" cx="248" cy="375" r="7.8"/>
					<circle class="st19" cx="248" cy="375" r="7.8"/>
					<circle class="st20" cx="247.8" cy="374.8" r="7.6"/>
					<circle class="st21" cx="247.8" cy="374.8" r="7.6"/>
					<circle class="st22" cx="247.7" cy="374.7" r="7.3"/>
					<circle class="st23" cx="247.7" cy="374.7" r="7.3"/>
					<circle class="st24" cx="247.5" cy="374.5" r="7"/>
					<circle class="st25" cx="247.5" cy="374.5" r="7"/>
					<circle class="st26" cx="247.4" cy="374.4" r="6.8"/>
					<circle class="st27" cx="247.4" cy="374.4" r="6.8"/>
					<circle class="st28" cx="247.2" cy="374.2" r="6.5"/>
					<circle class="st29" cx="247.2" cy="374.2" r="6.5"/>
					<circle class="st30" cx="247.1" cy="374.1" r="6.3"/>
					<circle class="st31" cx="247.1" cy="374.1" r="6.3"/>
					<circle class="st32" cx="246.9" cy="373.9" r="6"/>
					<circle class="st33" cx="246.9" cy="373.9" r="6"/>
					<circle class="st34" cx="246.8" cy="373.8" r="5.7"/>
					<circle class="st35" cx="246.8" cy="373.8" r="5.7"/>
					<circle class="st36" cx="246.7" cy="373.7" r="5.5"/>
					<circle class="st37" cx="246.7" cy="373.7" r="5.5"/>
					<circle class="st38" cx="246.5" cy="373.5" r="5.2"/>
					<circle class="st39" cx="246.5" cy="373.5" r="5.2"/>
					<circle class="st40" cx="246.4" cy="373.4" r="5"/>
					<circle class="st41" cx="246.4" cy="373.4" r="5"/>
					<circle class="st42" cx="246.2" cy="373.2" r="4.7"/>
					<circle class="st43" cx="246.2" cy="373.2" r="4.7"/>
					<circle class="st44" cx="246.1" cy="373.1" r="4.5"/>
					<circle class="st45" cx="246.1" cy="373.1" r="4.5"/>
					<circle class="st46" cx="245.9" cy="372.9" r="4.2"/>
					<circle class="st47" cx="245.9" cy="372.9" r="4.2"/>
					<circle class="st48" cx="245.8" cy="372.8" r="3.9"/>
					<circle class="st49" cx="245.8" cy="372.8" r="3.9"/>
					<circle class="st50" cx="245.6" cy="372.6" r="3.7"/>
					<circle class="st51" cx="245.6" cy="372.6" r="3.7"/>
					<circle class="st52" cx="245.5" cy="372.5" r="3.4"/>
					<circle class="st53" cx="245.5" cy="372.5" r="3.4"/>
					<circle class="st54" cx="245.3" cy="372.3" r="3.2"/>
					<circle class="st55" cx="245.3" cy="372.3" r="3.2"/>
					<circle class="st56" cx="245.2" cy="372.2" r="2.9"/>
					<circle class="st57" cx="245.2" cy="372.2" r="2.9"/>
					<circle class="st58" cx="245" cy="372" r="2.7"/>
					<circle class="st59" cx="245" cy="372" r="2.7"/>
					<circle class="st60" cx="244.9" cy="371.9" r="2.4"/>
					<circle class="st61" cx="244.9" cy="371.9" r="2.4"/>
					<circle class="st62" cx="244.7" cy="371.7" r="2.1"/>
					<circle class="st63" cx="244.7" cy="371.7" r="2.1"/>
					<circle class="st64" cx="244.6" cy="371.6" r="1.9"/>
					<circle class="st65" cx="244.6" cy="371.6" r="1.9"/>
					<circle class="st66" cx="244.4" cy="371.4" r="1.6"/>
					<circle class="st67" cx="244.4" cy="371.4" r="1.6"/>
					<circle class="st66" cx="244.3" cy="371.3" r="1.4"/>
					<circle class="st67" cx="244.3" cy="371.3" r="1.4"/>
				</g>
			</g>
		</g>
		<g>
			<g>
				<defs>
					<circle id="SVGID_5_" cx="249" cy="345.6" r="9.6"/>
				</defs>
				<clipPath id="SVGID_6_">
					<use xlink:href="#SVGID_5_"  style="overflow:visible;"/>
				</clipPath>
				<g class="st68">
					<defs>
						<rect id="SVGID_7_" x="96.8" y="131.6" width="881.2" height="588.8"/>
					</defs>
					<clipPath id="SVGID_8_">
						<use xlink:href="#SVGID_7_"  style="overflow:visible;"/>
					</clipPath>
					<circle class="st69" cx="249" cy="345.6" r="9.6"/>
					<circle class="st70" cx="249" cy="345.6" r="9.6"/>
					<circle class="st71" cx="248.9" cy="345.5" r="9.4"/>
					<circle class="st72" cx="248.9" cy="345.5" r="9.4"/>
					<circle class="st73" cx="248.7" cy="345.3" r="9.1"/>
					<circle class="st74" cx="248.7" cy="345.3" r="9.1"/>
					<circle class="st75" cx="248.6" cy="345.2" r="8.8"/>
					<circle class="st76" cx="248.6" cy="345.2" r="8.8"/>
					<circle class="st77" cx="248.4" cy="345" r="8.6"/>
					<circle class="st78" cx="248.4" cy="345" r="8.6"/>
					<circle class="st79" cx="248.3" cy="344.9" r="8.3"/>
					<circle class="st80" cx="248.3" cy="344.9" r="8.3"/>
					<circle class="st81" cx="248.1" cy="344.7" r="8.1"/>
					<circle class="st82" cx="248.1" cy="344.7" r="8.1"/>
					<circle class="st83" cx="248" cy="344.6" r="7.8"/>
					<circle class="st84" cx="248" cy="344.6" r="7.8"/>
					<circle class="st85" cx="247.8" cy="344.4" r="7.6"/>
					<circle class="st86" cx="247.8" cy="344.4" r="7.6"/>
					<circle class="st87" cx="247.7" cy="344.3" r="7.3"/>
					<circle class="st88" cx="247.7" cy="344.3" r="7.3"/>
					<circle class="st89" cx="247.5" cy="344.1" r="7"/>
					<circle class="st90" cx="247.5" cy="344.1" r="7"/>
					<circle class="st91" cx="247.4" cy="344" r="6.8"/>
					<circle class="st92" cx="247.4" cy="344" r="6.8"/>
					<circle class="st93" cx="247.2" cy="343.8" r="6.5"/>
					<circle class="st94" cx="247.2" cy="343.8" r="6.5"/>
					<circle class="st95" cx="247.1" cy="343.7" r="6.3"/>
					<circle class="st96" cx="247.1" cy="343.7" r="6.3"/>
					<circle class="st97" cx="246.9" cy="343.5" r="6"/>
					<circle class="st98" cx="246.9" cy="343.5" r="6"/>
					<circle class="st99" cx="246.8" cy="343.4" r="5.7"/>
					<circle class="st100" cx="246.8" cy="343.4" r="5.7"/>
					<circle class="st101" cx="246.6" cy="343.2" r="5.5"/>
					<circle class="st102" cx="246.6" cy="343.2" r="5.5"/>
					<circle class="st103" cx="246.5" cy="343.1" r="5.2"/>
					<circle class="st104" cx="246.5" cy="343.1" r="5.2"/>
					<circle class="st105" cx="246.3" cy="342.9" r="5"/>
					<circle class="st106" cx="246.3" cy="342.9" r="5"/>
					<circle class="st107" cx="246.2" cy="342.8" r="4.7"/>
					<circle class="st108" cx="246.2" cy="342.8" r="4.7"/>
					<circle class="st109" cx="246" cy="342.6" r="4.5"/>
					<circle class="st110" cx="246" cy="342.6" r="4.5"/>
					<circle class="st111" cx="245.9" cy="342.5" r="4.2"/>
					<circle class="st112" cx="245.9" cy="342.5" r="4.2"/>
					<circle class="st113" cx="245.7" cy="342.3" r="3.9"/>
					<circle class="st114" cx="245.7" cy="342.3" r="3.9"/>
					<circle class="st115" cx="245.6" cy="342.2" r="3.7"/>
					<circle class="st116" cx="245.6" cy="342.2" r="3.7"/>
					<circle class="st117" cx="245.4" cy="342" r="3.4"/>
					<circle class="st118" cx="245.4" cy="342" r="3.4"/>
					<circle class="st119" cx="245.3" cy="341.9" r="3.2"/>
					<circle class="st120" cx="245.3" cy="341.9" r="3.2"/>
					<circle class="st121" cx="245.1" cy="341.7" r="2.9"/>
					<circle class="st122" cx="245.1" cy="341.7" r="2.9"/>
					<circle class="st123" cx="245" cy="341.6" r="2.7"/>
					<circle class="st124" cx="245" cy="341.6" r="2.7"/>
					<circle class="st125" cx="244.8" cy="341.4" r="2.4"/>
					<circle class="st126" cx="244.8" cy="341.4" r="2.4"/>
					<circle class="st127" cx="244.7" cy="341.3" r="2.1"/>
					<circle class="st128" cx="244.7" cy="341.3" r="2.1"/>
					<circle class="st129" cx="244.5" cy="341.1" r="1.9"/>
					<circle class="st130" cx="244.5" cy="341.1" r="1.9"/>
					<circle class="st131" cx="244.4" cy="341" r="1.6"/>
					<circle class="st132" cx="244.4" cy="341" r="1.6"/>
					<circle class="st131" cx="244.2" cy="340.8" r="1.4"/>
					<circle class="st132" cx="244.2" cy="340.8" r="1.4"/>
				</g>
			</g>
		</g>
		<g>
			<path d="M180.5,411.7v3.8h-0.9v-3.7c0-1-0.6-1.6-1.4-1.6c-0.9,0-1.6,0.6-1.6,1.5v3.8h-0.9v-3.7c0-1-0.6-1.6-1.4-1.6
				c-0.9,0-1.6,0.6-1.6,1.5v3.8h-0.9v-5.9h0.9v0.9c0.3-0.6,0.9-1,1.7-1c0.9,0,1.6,0.5,1.9,1.3c0.2-0.8,1-1.3,1.9-1.3
				C179.6,409.4,180.5,410.4,180.5,411.7z"/>
			<path d="M186.7,414.2l0.5,0.6c-0.5,0.6-1.6,0.9-2.4,0.9c-1.6,0-3-1.3-3-3.1c0-1.8,1.3-3.1,2.9-3.1c1.8,0,2.8,1.4,2.8,3.4h-4.9
				c0.1,1.2,0.9,2,2.1,2C185.6,414.9,186.4,414.6,186.7,414.2z M182.7,412.1h4c-0.1-1.1-0.7-1.9-1.9-1.9
				C183.8,410.2,182.9,411,182.7,412.1z"/>
			<path d="M192,415.3c-0.3,0.2-0.7,0.4-1.1,0.4c-0.9,0-1.4-0.6-1.4-1.5v-3.8h-0.9v-0.8h0.9v-1.6h0.9v1.6h1.5v0.8h-1.5v3.8
				c0,0.4,0.3,0.7,0.6,0.7c0.3,0,0.5-0.1,0.6-0.2L192,415.3z"/>
			<path d="M198,411.9v3.6h-0.9v-0.9c-0.4,0.7-1.3,1.1-2.1,1.1c-1.3,0-2.2-0.7-2.2-1.9c0-1.2,1.1-2,2.3-2c0.6,0,1.3,0.1,1.9,0.3
				v-0.2c0-0.8-0.3-1.7-1.6-1.7c-0.6,0-1.2,0.3-1.7,0.5l-0.3-0.7c0.9-0.4,1.6-0.6,2.1-0.6C197.2,409.4,198,410.5,198,411.9z
				 M197.1,413.7v-0.9c-0.5-0.1-1.2-0.2-1.8-0.2c-0.9,0-1.6,0.5-1.6,1.2c0,0.7,0.6,1.2,1.5,1.2C196,414.9,196.9,414.5,197.1,413.7z"
				/>
			<path d="M199.7,407.5h0.9v8h-0.9V407.5z"/>
			<path d="M205.2,412.5c0-1.7,1.4-3.1,3.1-3.1c0.8,0,1.6,0.3,2.1,0.9l-0.6,0.6c-0.4-0.4-0.9-0.7-1.5-0.7c-1.2,0-2.2,1.1-2.2,2.3
				c0,1.3,1,2.3,2.2,2.3c0.6,0,1.2-0.3,1.6-0.7l0.6,0.6c-0.6,0.6-1.3,0.9-2.2,0.9C206.6,415.7,205.2,414.2,205.2,412.5z"/>
			<path d="M216.6,411.9v3.6h-0.9v-0.9c-0.4,0.7-1.3,1.1-2.1,1.1c-1.3,0-2.2-0.7-2.2-1.9c0-1.2,1.1-2,2.3-2c0.6,0,1.3,0.1,1.9,0.3
				v-0.2c0-0.8-0.3-1.7-1.6-1.7c-0.6,0-1.2,0.3-1.7,0.5L212,410c0.9-0.4,1.6-0.6,2.1-0.6C215.8,409.4,216.6,410.5,216.6,411.9z
				 M215.7,413.7v-0.9c-0.5-0.1-1.2-0.2-1.8-0.2c-0.9,0-1.6,0.5-1.6,1.2c0,0.7,0.6,1.2,1.5,1.2C214.5,414.9,215.5,414.5,215.7,413.7
				z"/>
			<path d="M221.3,415.3c-0.3,0.2-0.7,0.4-1.1,0.4c-0.9,0-1.4-0.6-1.4-1.5v-3.8h-0.9v-0.8h0.9v-1.6h0.9v1.6h1.5v0.8h-1.5v3.8
				c0,0.4,0.3,0.7,0.6,0.7c0.3,0,0.5-0.1,0.6-0.2L221.3,415.3z"/>
			<path d="M227.3,411.9v3.6h-0.9v-0.9c-0.4,0.7-1.3,1.1-2.1,1.1c-1.3,0-2.2-0.7-2.2-1.9c0-1.2,1.1-2,2.3-2c0.6,0,1.3,0.1,1.9,0.3
				v-0.2c0-0.8-0.3-1.7-1.6-1.7c-0.6,0-1.2,0.3-1.7,0.5l-0.3-0.7c0.9-0.4,1.6-0.6,2.1-0.6C226.5,409.4,227.3,410.5,227.3,411.9z
				 M226.4,413.7v-0.9c-0.5-0.1-1.2-0.2-1.8-0.2c-0.9,0-1.6,0.5-1.6,1.2c0,0.7,0.6,1.2,1.5,1.2C225.3,414.9,226.2,414.5,226.4,413.7
				z"/>
			<path d="M229,407.5h0.9v8H229V407.5z"/>
			<path d="M231.5,417.4l0.2-0.7c0.2,0.1,0.4,0.1,0.7,0.1c0.4,0,0.6-0.1,0.9-0.5l0.3-0.7l-2.6-6h1l2.1,4.9l2-4.9h0.9l-2.7,6.6
				c-0.4,1-1,1.4-1.8,1.4C232.1,417.6,231.8,417.5,231.5,417.4z"/>
			<path d="M238,414.8l0.4-0.6c0.7,0.5,1.4,0.7,2,0.7c0.8,0,1.3-0.4,1.3-0.9c0-0.6-0.7-0.9-1.5-1.1c-1.4-0.4-2-0.8-2-1.7
				c0-1.1,0.9-1.7,2.1-1.7c0.7,0,1.5,0.3,2.1,0.7l-0.4,0.7c-0.6-0.4-1.2-0.6-1.7-0.6c-0.7,0-1.2,0.3-1.2,0.9c0,0.5,0.4,0.7,1.5,1
				c1,0.3,1.9,0.6,1.9,1.7c0,1.1-0.9,1.8-2.2,1.8C239.6,415.7,238.7,415.4,238,414.8z"/>
			<path d="M247,415.3c-0.3,0.2-0.7,0.4-1.1,0.4c-0.9,0-1.4-0.6-1.4-1.5v-3.8h-0.9v-0.8h0.9v-1.6h0.9v1.6h1.5v0.8h-1.5v3.8
				c0,0.4,0.3,0.7,0.6,0.7c0.3,0,0.5-0.1,0.6-0.2L247,415.3z"/>
		</g>
	</g>
	<g>
		<g>
			<path d="M371.4,347.5h1.1l3.3,5.3v-5.3h0.9v6.6h-1l-3.3-5.3v5.3h-0.9V347.5z"/>
		</g>
		<g>
			<path d="M380.1,374.3h1.1l3.3,5.3v-5.3h0.9v6.6h-1l-3.3-5.3v5.3h-0.9V374.3z"/>
		</g>
		<g>
			<path d="M380.1,381.9h0.9v2.7h3.4v-2.7h0.9v6.6h-0.9v-3.1H381v3.1h-0.9V381.9z"/>
		</g>
		<polygon points="391.8,350.2 391,351.3 378,351.3 378,350.2 		"/>
		<polygon points="396.9,366 396.8,367.3 396.1,367.1 391,351.3 391.8,350.2 		"/>
		<polygon points="387.5,374.8 386.8,373.9 396.1,367.1 396.8,367.3 396.2,368.5 		"/>
		<polygon points="369.2,368.5 368.6,367.3 369.3,367.1 378.6,373.9 378,374.8 		"/>
		<polygon points="371.9,355.7 372.9,356 369.3,367.1 368.6,367.3 368.5,366 		"/>
		<g>
			<path d="M353.2,333.4h1.3l1.9,5.6l1.9-5.6h1.3v6.6h-0.9v-3.9c0-0.1,0-0.4,0-0.7c0-0.3,0-0.6,0-1l-1.9,5.6h-0.9l-1.9-5.6v0.2
				c0,0.2,0,0.4,0,0.7c0,0.3,0,0.6,0,0.7v3.9h-0.9V333.4z"/>
			<path d="M363.8,335.3c0.3,0.2,0.6,0.4,0.7,0.6c0.2,0.2,0.3,0.5,0.3,0.8c0,0.2,0.1,0.6,0.1,1.1h-3.5c0,0.5,0.1,0.9,0.3,1.2
				c0.2,0.3,0.5,0.4,1,0.4c0.4,0,0.8-0.1,1-0.4c0.1-0.2,0.2-0.4,0.3-0.6h0.8c0,0.2-0.1,0.4-0.2,0.6c-0.1,0.2-0.3,0.4-0.4,0.5
				c-0.2,0.2-0.5,0.4-0.9,0.5c-0.2,0-0.4,0.1-0.7,0.1c-0.6,0-1.1-0.2-1.5-0.7s-0.6-1-0.6-1.8c0-0.8,0.2-1.4,0.6-1.9
				c0.4-0.5,1-0.7,1.6-0.7C363.1,335.1,363.5,335.2,363.8,335.3z M364.1,337.2c0-0.4-0.1-0.6-0.2-0.8c-0.2-0.4-0.6-0.6-1.1-0.6
				c-0.4,0-0.7,0.1-0.9,0.4s-0.4,0.6-0.4,1H364.1z"/>
		</g>
		<polygon points="365.7,340.3 366.6,339.6 371.2,345.9 370.3,346.6 		"/>
		<g>
			<path d="M409.2,370.9h3c0.6,0,1.1,0.2,1.4,0.5c0.4,0.3,0.5,0.8,0.5,1.4c0,0.5-0.2,1-0.5,1.3c-0.3,0.4-0.8,0.6-1.5,0.6h-2.1v2.8
				h-0.9V370.9z M412.7,371.8c-0.2-0.1-0.5-0.1-0.8-0.1h-1.8v2.3h1.8c0.4,0,0.7-0.1,1-0.3c0.2-0.2,0.4-0.5,0.4-0.9
				C413.2,372.3,413,372,412.7,371.8z"/>
			<path d="M415.2,370.9h0.8v2.5c0.2-0.2,0.4-0.4,0.5-0.5c0.3-0.2,0.6-0.3,1-0.3c0.7,0,1.2,0.2,1.4,0.7c0.1,0.3,0.2,0.6,0.2,1.1v3.1
				h-0.8v-3c0-0.4,0-0.6-0.1-0.8c-0.1-0.3-0.4-0.4-0.8-0.4c-0.3,0-0.6,0.1-0.9,0.3c-0.3,0.2-0.4,0.7-0.4,1.3v2.6h-0.8V370.9z"/>
		</g>
		<polygon points="407.7,371 406.6,373.3 396.2,368.5 396.8,367.3 396.9,366 		"/>
		<g>
			<path d="M404.2,334.4c0.4,0.6,0.7,1.3,0.7,2.2c0,1-0.3,1.8-0.8,2.5c-0.6,0.8-1.4,1.2-2.5,1.2c-1,0-1.8-0.3-2.4-1
				c-0.5-0.6-0.8-1.5-0.8-2.5c0-0.9,0.2-1.7,0.7-2.3c0.6-0.8,1.4-1.2,2.5-1.2C402.8,333.2,403.6,333.6,404.2,334.4z M403.4,338.6
				c0.4-0.6,0.5-1.2,0.5-2c0-0.8-0.2-1.4-0.6-1.9c-0.4-0.5-1-0.7-1.7-0.7c-0.7,0-1.2,0.2-1.7,0.7s-0.6,1.2-0.6,2.1
				c0,0.7,0.2,1.3,0.6,1.9s1,0.8,1.8,0.8C402.5,339.4,403.1,339.1,403.4,338.6z"/>
		</g>
		<polygon points="397.2,339.5 398.1,340.2 390.2,351.1 389.3,350.4 		"/>
		<polygon points="399.5,341.2 400.3,341.8 392.4,352.7 391.5,352.1 		"/>
		<g>
			<path d="M339.8,373.2h0.8l-0.3,1.3h0.8l-0.1,0.7h-0.8l-0.7,3.1c0,0.2,0,0.3,0.1,0.3c0.1,0,0.2,0,0.3,0c0,0,0.1,0,0.1,0
				c0,0,0.1,0,0.2,0l-0.1,0.6c-0.1,0-0.2,0-0.3,0.1c-0.1,0-0.2,0-0.3,0c-0.4,0-0.6-0.1-0.7-0.3c-0.1-0.2-0.1-0.4,0-0.8l0.7-3.2h-0.7
				l0.1-0.7h0.7L339.8,373.2z"/>
			<path d="M341.3,376.4h2.3l-0.2,0.8h-2.3L341.3,376.4z"/>
		</g>
		<g>
			<path d="M344.3,372.7h2.9c0.8,0,1.3,0.2,1.7,0.7c0.2,0.3,0.3,0.6,0.3,0.9c0,0.4-0.1,0.8-0.4,1c-0.1,0.1-0.3,0.3-0.5,0.4
				c0.3,0.1,0.6,0.3,0.8,0.4c0.3,0.3,0.4,0.7,0.4,1.2c0,0.4-0.1,0.8-0.4,1.2c-0.4,0.5-1,0.8-1.9,0.8h-2.8V372.7z M346.8,375.5
				c0.4,0,0.7-0.1,0.9-0.2c0.3-0.2,0.5-0.5,0.5-0.9c0-0.4-0.2-0.7-0.5-0.9c-0.2-0.1-0.5-0.1-0.9-0.1h-1.6v2H346.8z M347.1,378.6
				c0.6,0,0.9-0.2,1.2-0.5c0.1-0.2,0.2-0.4,0.2-0.7c0-0.5-0.2-0.8-0.6-1c-0.2-0.1-0.5-0.1-0.9-0.1h-1.8v2.3H347.1z"/>
			<path d="M351.1,374.5v3.2c0,0.2,0,0.4,0.1,0.6c0.1,0.3,0.4,0.4,0.8,0.4c0.5,0,0.9-0.3,1.1-0.8c0.1-0.3,0.2-0.6,0.2-1.1v-2.4h0.8
				v4.8h-0.8l0-0.7c-0.1,0.2-0.2,0.3-0.4,0.5c-0.3,0.3-0.7,0.4-1.1,0.4c-0.7,0-1.1-0.2-1.4-0.7c-0.1-0.2-0.2-0.6-0.2-1v-3.3H351.1z"
				/>
		</g>
		<polygon points="356.4,375.8 355.2,373.6 368.5,366 368.6,367.3 369.2,368.5 		"/>
		<g>
			<path d="M339.8,412.5c0-1.7,1.4-3.1,3.1-3.1c1.7,0,3.1,1.4,3.1,3.1c0,1.7-1.4,3.1-3.1,3.1C341.2,415.7,339.8,414.2,339.8,412.5z
				 M345,412.5c0-1.3-1-2.3-2.2-2.3c-1.2,0-2.2,1.1-2.2,2.3c0,1.3,1,2.3,2.2,2.3C344,414.9,345,413.8,345,412.5z"/>
			<path d="M350.5,409.4v0.8c-1.3,0-2.3,0.8-2.3,2v3.3h-0.9v-5.9h0.9v1.2C348.6,409.9,349.4,409.4,350.5,409.4z"/>
			<path d="M357.2,409.6v5.3c0,1.5-1.2,2.6-2.9,2.6c-1,0-1.9-0.3-2.4-0.8l0.4-0.7c0.5,0.4,1.2,0.7,1.9,0.7c1.4,0,2.2-0.7,2.2-1.8v-1
				c-0.5,0.7-1.2,1.2-2.2,1.2c-1.6,0-2.7-1.2-2.7-2.8c0-1.7,1.1-2.8,2.7-2.8c0.9,0,1.7,0.4,2.2,1.2v-1H357.2z M356.3,412.3
				c0-1.2-0.8-2-2-2c-1.2,0-2,0.9-2,2c0,1.2,0.8,2.1,2,2.1C355.5,414.3,356.3,413.5,356.3,412.3z"/>
			<path d="M363.8,411.9v3.6h-0.9v-0.9c-0.4,0.7-1.3,1.1-2.1,1.1c-1.3,0-2.2-0.7-2.2-1.9c0-1.2,1.1-2,2.3-2c0.6,0,1.3,0.1,1.9,0.3
				v-0.2c0-0.8-0.3-1.7-1.6-1.7c-0.6,0-1.2,0.3-1.7,0.5l-0.3-0.7c0.9-0.4,1.6-0.6,2.1-0.6C363,409.4,363.8,410.5,363.8,411.9z
				 M362.9,413.7v-0.9c-0.5-0.1-1.2-0.2-1.8-0.2c-0.9,0-1.6,0.5-1.6,1.2c0,0.7,0.6,1.2,1.5,1.2C361.7,414.9,362.7,414.5,362.9,413.7
				z"/>
			<path d="M370.5,411.7v3.8h-0.9v-3.7c0-1-0.6-1.6-1.5-1.6c-1,0-1.8,0.7-1.8,1.5v3.8h-0.9v-5.9h0.9v1c0.3-0.6,1.1-1.1,2-1.1
				C369.6,409.4,370.5,410.4,370.5,411.7z"/>
			<path d="M371.9,412.5c0-1.7,1.4-3.1,3.1-3.1s3.1,1.4,3.1,3.1c0,1.7-1.4,3.1-3.1,3.1S371.9,414.2,371.9,412.5z M377.2,412.5
				c0-1.3-1-2.3-2.2-2.3c-1.2,0-2.2,1.1-2.2,2.3c0,1.3,1,2.3,2.2,2.3C376.2,414.9,377.2,413.8,377.2,412.5z"/>
			<path d="M379.1,412.5c0-1.7,1.4-3.1,3.1-3.1c0.8,0,1.6,0.3,2.1,0.9l-0.6,0.6c-0.4-0.4-0.9-0.7-1.5-0.7c-1.2,0-2.2,1.1-2.2,2.3
				c0,1.3,1,2.3,2.2,2.3c0.6,0,1.2-0.3,1.6-0.7l0.6,0.6c-0.6,0.6-1.3,0.9-2.2,0.9C380.5,415.7,379.1,414.2,379.1,412.5z"/>
			<path d="M390.5,411.9v3.6h-0.9v-0.9c-0.4,0.7-1.3,1.1-2.1,1.1c-1.3,0-2.2-0.7-2.2-1.9c0-1.2,1.1-2,2.3-2c0.6,0,1.3,0.1,1.9,0.3
				v-0.2c0-0.8-0.3-1.7-1.6-1.7c-0.6,0-1.2,0.3-1.7,0.5l-0.3-0.7c0.9-0.4,1.6-0.6,2.1-0.6C389.7,409.4,390.5,410.5,390.5,411.9z
				 M389.6,413.7v-0.9c-0.5-0.1-1.2-0.2-1.8-0.2c-0.9,0-1.6,0.5-1.6,1.2c0,0.7,0.6,1.2,1.5,1.2C388.4,414.9,389.4,414.5,389.6,413.7
				z"/>
			<path d="M395.2,415.3c-0.3,0.2-0.7,0.4-1.1,0.4c-0.9,0-1.4-0.6-1.4-1.5v-3.8h-0.9v-0.8h0.9v-1.6h0.9v1.6h1.5v0.8h-1.5v3.8
				c0,0.4,0.3,0.7,0.6,0.7c0.3,0,0.5-0.1,0.6-0.2L395.2,415.3z"/>
			<path d="M401.2,411.9v3.6h-0.9v-0.9c-0.4,0.7-1.3,1.1-2.1,1.1c-1.3,0-2.2-0.7-2.2-1.9c0-1.2,1.1-2,2.3-2c0.6,0,1.3,0.1,1.9,0.3
				v-0.2c0-0.8-0.3-1.7-1.6-1.7c-0.6,0-1.2,0.3-1.7,0.5l-0.3-0.7c0.9-0.4,1.6-0.6,2.1-0.6C400.4,409.4,401.2,410.5,401.2,411.9z
				 M400.3,413.7v-0.9c-0.5-0.1-1.2-0.2-1.8-0.2c-0.9,0-1.6,0.5-1.6,1.2c0,0.7,0.6,1.2,1.5,1.2C399.2,414.9,400.1,414.5,400.3,413.7
				z"/>
			<path d="M402.9,407.5h0.9v8h-0.9V407.5z"/>
			<path d="M405.4,417.4l0.2-0.7c0.2,0.1,0.4,0.2,0.7,0.2c0.4,0,0.6-0.1,0.9-0.5l0.3-0.7l-2.6-6h1l2.1,4.9l2-4.9h0.9l-2.7,6.6
				c-0.4,1-1,1.4-1.8,1.4C406,417.6,405.7,417.5,405.4,417.4z"/>
			<path d="M411.9,414.8l0.4-0.6c0.7,0.5,1.4,0.7,2,0.7c0.8,0,1.3-0.4,1.3-0.9c0-0.6-0.7-0.9-1.5-1.1c-1.4-0.4-2-0.8-2-1.7
				c0-1.1,0.9-1.7,2.1-1.7c0.7,0,1.5,0.3,2.1,0.7l-0.4,0.7c-0.6-0.4-1.2-0.6-1.7-0.6c-0.7,0-1.2,0.3-1.2,0.9c0,0.5,0.4,0.7,1.5,1
				c1,0.3,1.9,0.6,1.9,1.7c0,1.1-0.9,1.8-2.2,1.8C413.5,415.7,412.6,415.3,411.9,414.8z"/>
			<path d="M420.9,415.3c-0.3,0.2-0.7,0.4-1.1,0.4c-0.9,0-1.5-0.6-1.5-1.5v-3.8h-0.9v-0.8h0.9v-1.6h0.9v1.6h1.5v0.8h-1.5v3.8
				c0,0.4,0.3,0.7,0.6,0.7c0.3,0,0.5-0.1,0.6-0.2L420.9,415.3z"/>
		</g>
	</g>
	<g>
		<g>
			<path d="M525.5,371h1.1l3.3,5.3V371h0.9v6.6h-1l-3.3-5.3v5.3h-0.9V371z"/>
		</g>
		<polygon points="523.6,375 523.9,376 510.2,379.7 512.5,377.9 		"/>
		<polygon points="544.7,378.2 545.3,379.4 532.4,376 532.7,375 		"/>
		<polygon points="519.7,363.3 520.4,364.2 512.5,377.9 510.2,379.7 		"/>
		<polygon points="552.8,364.1 554.5,363.4 545.3,379.4 544.7,378.2 		"/>
		<polygon points="536.3,358.8 536.9,359.2 536.9,359.8 530.1,361.6 530.1,360.5 		"/>
		<polygon points="520.4,364.2 519.7,363.3 526.2,361.5 526.2,362.6 		"/>
		<polygon points="554.5,363.4 552.8,364.1 536.9,359.8 536.9,359.2 537.4,358.8 		"/>
		<polygon points="527.6,356.7 528.7,357.1 528.7,369.6 527.6,369.6 		"/>
		<polygon points="536.3,343.9 537.4,339.8 537.4,358.8 536.9,359.2 536.3,358.8 		"/>
		<polygon points="528.7,357.1 527.6,356.7 537.4,339.8 536.3,343.9 		"/>
		<g>
			<path d="M505.8,407.6v7.9h-0.9v-3.6h-4.7v3.6h-0.9v-7.9h0.9v3.5h4.7v-3.5H505.8z"/>
			<path d="M513.2,413.7h-4.4l-0.8,1.8h-1l3.5-7.9h1l3.5,7.9h-1L513.2,413.7z M512.8,412.9l-1.8-4.2l-1.8,4.2H512.8z"/>
			<path d="M517.7,408.5h-2.7v-0.9h6.2v0.9h-2.7v7.1h-0.9V408.5z"/>
			<path d="M525.6,412.5c0-1.7,1.4-3.1,3.1-3.1c0.8,0,1.6,0.3,2.1,0.9l-0.6,0.6c-0.4-0.4-0.9-0.7-1.5-0.7c-1.2,0-2.2,1.1-2.2,2.3
				c0,1.3,1,2.3,2.2,2.3c0.6,0,1.2-0.3,1.6-0.7l0.6,0.6c-0.6,0.6-1.3,0.9-2.2,0.9C527,415.7,525.6,414.2,525.6,412.5z"/>
			<path d="M536.9,411.9v3.6H536v-0.9c-0.4,0.7-1.3,1.1-2.1,1.1c-1.3,0-2.2-0.7-2.2-1.9c0-1.2,1.1-2,2.3-2c0.6,0,1.3,0.1,1.9,0.3
				v-0.2c0-0.8-0.3-1.7-1.6-1.7c-0.6,0-1.2,0.3-1.7,0.5l-0.3-0.7c0.9-0.4,1.6-0.6,2.1-0.6C536.1,409.4,536.9,410.5,536.9,411.9z
				 M536,413.7v-0.9c-0.5-0.1-1.2-0.2-1.8-0.2c-0.9,0-1.6,0.5-1.6,1.2c0,0.7,0.6,1.2,1.5,1.2C534.9,414.9,535.8,414.5,536,413.7z"/>
			<path d="M541.6,415.3c-0.3,0.2-0.7,0.4-1.1,0.4c-0.9,0-1.4-0.6-1.4-1.5v-3.8h-0.9v-0.8h0.9v-1.6h0.9v1.6h1.5v0.8H540v3.8
				c0,0.4,0.3,0.7,0.6,0.7c0.3,0,0.5-0.1,0.6-0.2L541.6,415.3z"/>
			<path d="M547.6,411.9v3.6h-0.9v-0.9c-0.4,0.7-1.3,1.1-2.1,1.1c-1.3,0-2.2-0.7-2.2-1.9c0-1.2,1.1-2,2.3-2c0.6,0,1.3,0.1,1.9,0.3
				v-0.2c0-0.8-0.3-1.7-1.6-1.7c-0.6,0-1.2,0.3-1.7,0.5l-0.3-0.7c0.9-0.4,1.6-0.6,2.1-0.6C546.9,409.4,547.6,410.5,547.6,411.9z
				 M546.8,413.7v-0.9c-0.5-0.1-1.2-0.2-1.8-0.2c-0.9,0-1.6,0.5-1.6,1.2c0,0.7,0.6,1.2,1.5,1.2C545.6,414.9,546.6,414.5,546.8,413.7
				z"/>
			<path d="M549.4,407.5h0.9v8h-0.9V407.5z"/>
			<path d="M551.9,417.4l0.2-0.7c0.2,0.1,0.4,0.2,0.7,0.2c0.4,0,0.6-0.1,0.9-0.5l0.3-0.7l-2.6-6h1l2.1,4.9l2-4.9h0.9l-2.7,6.6
				c-0.4,1-1,1.4-1.8,1.4C552.4,417.6,552.1,417.5,551.9,417.4z"/>
			<path d="M558.3,414.8l0.4-0.6c0.7,0.5,1.4,0.7,2,0.7c0.8,0,1.3-0.4,1.3-0.9c0-0.6-0.7-0.9-1.5-1.1c-1.4-0.4-2-0.8-2-1.7
				c0-1.1,0.9-1.7,2.1-1.7c0.7,0,1.5,0.3,2.1,0.7l-0.4,0.7c-0.6-0.4-1.2-0.6-1.7-0.6c-0.7,0-1.2,0.3-1.2,0.9c0,0.5,0.4,0.7,1.5,1
				c1,0.3,1.9,0.6,1.9,1.7c0,1.1-0.9,1.8-2.2,1.8C560,415.7,559,415.3,558.3,414.8z"/>
			<path d="M567.4,415.3c-0.3,0.2-0.7,0.4-1.1,0.4c-0.9,0-1.5-0.6-1.5-1.5v-3.8h-0.9v-0.8h0.9v-1.6h0.9v1.6h1.5v0.8h-1.5v3.8
				c0,0.4,0.3,0.7,0.6,0.7c0.3,0,0.5-0.1,0.6-0.2L567.4,415.3z"/>
		</g>
	</g>
	<line class="st133" x1="458.3" y1="333" x2="458.3" y2="415.5"/>
	<line class="st133" x1="299.7" y1="333" x2="299.7" y2="415.5"/>
</g>
</svg>
