<svg id="totalsynthesisi" version="1.1" xmlns="http://www.w3.org/2000/svg" xmlns:xlink="http://www.w3.org/1999/xlink" viewBox="0 0 404.8 409.8">
<polygon points="102.3,256.6 100.4,257.7 100.4,226.3 102.3,227.4 "/>
<rect x="105.2" y="229.7" width="1.9" height="24.6"/>
<polygon points="127.5,271.1 127.5,273.3 100.4,257.7 102.3,256.6 "/>
<polygon points="152.8,256.6 153.7,257.1 153.7,258.2 127.5,273.3 127.5,271.1 "/>
<polygon points="148.4,253.5 149.4,255.2 128,267.5 127.1,265.8 "/>
<polygon points="152.8,227.4 153.7,226.9 154.7,227.8 154.7,256.6 153.7,257.1 152.8,256.6 "/>
<polygon points="127.5,212.9 127.5,210.7 154,225.9 153.7,226.9 152.8,227.4 "/>
<polygon points="127.1,218.2 128,216.5 149.4,228.8 148.4,230.5 "/>
<polygon points="102.3,227.4 100.4,226.3 127.5,210.7 127.5,212.9 "/>
<g>
	<path d="M175.4,266.5h1.8l5.7,9.3v-9.3h1.5V278h-1.7l-5.8-9.3v9.3h-1.5V266.5z"/>
</g>
<polygon points="172.4,266.8 171.5,268.5 153.7,258.2 153.7,257.1 154.7,256.6 "/>
<polygon points="205.1,256.6 206.1,257.1 205,258.9 188.3,268.5 187.4,266.8 "/>
<polygon points="205.1,227.8 206.1,226.9 207.1,227.4 207.1,256.6 206.1,257.1 205.1,256.6 "/>
<polygon points="154.7,227.8 153.7,226.9 154,225.9 203.6,225.9 206.1,226.9 205.1,227.8 "/>
<polygon points="232.3,271.1 232.3,272.2 231.3,272.8 207.2,258.9 206.1,257.1 207.1,256.6 "/>
<polygon points="257.5,256.6 258.5,257.1 258.6,258.2 233.2,272.8 232.3,272.2 232.3,271.1 "/>
<polygon points="257.5,227.4 259.4,226.3 259.4,256.5 258.5,257.1 257.5,256.6 "/>
<polygon points="232.3,212.9 232.3,211.8 234.5,211.9 259.4,226.3 257.5,227.4 "/>
<polygon points="207.1,227.4 206.1,226.9 206.3,225.6 230.1,211.9 232.3,211.8 232.3,212.9 "/>
<g>
	<path d="M227.7,175.8h1.8l5.7,9.3v-9.3h1.5v11.5H235l-5.8-9.3v9.3h-1.5V175.8z"/>
</g>
<polygon points="234.5,211.9 232.3,211.8 230.1,211.9 230.1,189.6 234.5,189.6 "/>
<polygon points="186.5,201.2 182,206 196.3,176.5 197.4,178.5 "/>
<polygon points="206.3,225.6 206.1,226.9 203.6,225.9 182,206 186.5,201.2 "/>
<polygon points="197.4,178.5 196.3,176.5 225.6,179.8 225.3,181.7 "/>
<polygon points="206.1,316.5 206.1,318.7 179,303 180.9,301.9 "/>
<polygon points="231.3,301.9 232.3,302.5 232,303.7 206.1,318.7 206.1,316.5 "/>
<polygon points="231.3,272.8 232.3,272.2 233.2,272.8 233.2,302.2 232.3,302.5 231.3,301.9 "/>
<g>
	<path d="M252.8,320.2c0.8,1,1.1,2.3,1.1,3.9c0,1.7-0.4,3.1-1.3,4.3c-1,1.3-2.5,2-4.4,2c-1.8,0-3.2-0.6-4.2-1.8
		c-0.9-1.1-1.4-2.5-1.4-4.3c0-1.6,0.4-2.9,1.2-4c1-1.4,2.5-2.1,4.4-2.1C250.3,318.2,251.8,318.9,252.8,320.2z M251.4,327.5
		c0.6-1,0.9-2.1,0.9-3.4c0-1.4-0.4-2.4-1.1-3.3s-1.7-1.2-2.9-1.2c-1.2,0-2.2,0.4-2.9,1.2s-1.1,2-1.1,3.6c0,1.3,0.3,2.3,1,3.2
		s1.7,1.3,3.1,1.3C249.8,329,250.8,328.5,251.4,327.5z"/>
</g>
<polygon points="278,321.1 279,323 256.3,324.7 256.2,322.8 "/>
<polygon points="294.5,296.9 296.6,297.2 279,323 278,321.1 "/>
<polygon points="285.8,268.9 286.6,268.2 287.6,268 296.6,297.2 294.5,296.9 "/>
<polygon points="281.8,272.1 283.6,271.5 291.1,296 289.3,296.5 "/>
<polygon points="258.6,258.2 258.5,257.1 259.4,256.5 285.6,266.8 286.6,268.2 285.8,268.9 "/>
<g>
	<path d="M227.7,327h1.6v4.7h5.9V327h1.6v11.5h-1.6v-5.4h-5.9v5.4h-1.6V327z"/>
</g>
<polygon points="235.6,324.5 229,324.5 229.3,322.6 235.3,322.6 "/>
<polygon points="234.5,317.5 230,317.5 230.3,315.5 234.3,315.5 "/>
<polygon points="233.5,310.4 231.1,310.4 231.3,308.5 233.2,308.5 "/>
<polygon points="244.1,316.9 242.5,318 232,303.7 232.3,302.5 233.2,302.2 "/>
<polygon points="180.9,301.9 179,303 179,280.3 180.9,280.3 "/>
<g>
	<path d="M158.2,313.5c0.8,1,1.1,2.3,1.1,3.9c0,1.7-0.4,3.1-1.3,4.3c-1,1.3-2.5,2-4.4,2c-1.8,0-3.2-0.6-4.2-1.8
		c-0.9-1.1-1.4-2.5-1.4-4.3c0-1.6,0.4-2.9,1.2-4c1-1.4,2.5-2.1,4.4-2.1C155.7,311.5,157.2,312.2,158.2,313.5z M156.8,320.8
		c0.6-1,0.9-2.1,0.9-3.4c0-1.4-0.4-2.4-1.1-3.3c-0.7-0.8-1.7-1.2-2.9-1.2c-1.2,0-2.2,0.4-2.9,1.2s-1.1,2-1.1,3.6
		c0,1.3,0.3,2.3,1,3.2c0.6,0.9,1.7,1.3,3.1,1.3C155.2,322.3,156.2,321.8,156.8,320.8z"/>
</g>
<polygon points="162.6,316.3 161.7,314.7 181.9,303 182.8,304.7 "/>
<polygon points="160.2,312.2 159.3,310.5 179.4,298.9 180.4,300.5 "/>
<g>
	<path d="M256.2,281.5h1.6v4.7h5.9v-4.7h1.6V293h-1.6v-5.4h-5.9v5.4h-1.6V281.5z"/>
</g>
<polygon points="263.4,278.9 256.9,279.4 257,277.5 263,277 "/>
<polygon points="261.8,271.9 257.3,272.2 257.5,270.3 261.4,270 "/>
<polygon points="260.3,264.9 257.8,265.1 258,263.2 259.9,263 "/>
<g>
	<path d="M227.7,236.2h1.6v4.7h5.9v-4.7h1.6v11.5h-1.6v-5.4h-5.9v5.4h-1.6V236.2z"/>
</g>
<polygon points="229,250.1 235.6,250.1 235.3,252 229.3,252 "/>
<polygon points="230,257.2 234.5,257.2 234.3,259.1 230.3,259.1 "/>
<polygon points="231.1,264.4 233.5,264.4 233.2,266.3 231.3,266.3 "/>
<g>
	<path d="M201.5,281.6h1.6v4.7h5.9v-4.7h1.6v11.5H209v-5.4h-5.9v5.4h-1.6V281.6z"/>
</g>
<polygon points="209.4,279.2 202.8,279.2 205,258.9 206.1,257.1 207.2,258.9 "/>
<polygon points="284.5,209.9 286.3,208.7 287.6,268 286.6,268.2 285.6,266.8 "/>
<polygon points="239.8,186.5 240.7,184.8 286.3,208.7 284.5,209.9 "/>
<path style="fill:none;stroke:#7A6AA8;stroke-width:1.9;stroke-miterlimit:10;" d="M139.4,103.6c-7.2-9.2-20.9-11.1-30.5-4.1c-5.4,3.9-8.7,10.2-8.7,16.7"/>
<path style="fill:#800040;" d="M143.8,116.1L143.8,116.1l-8.7-13.1c0,0,2.7,1.1,4.3,0.5s3-3.1,3-3.1L143.8,116.1z"/>
<path style="fill:#7A6AA8;" d="M143.8,116.1L143.8,116.1l-8.7-13.1c0,0,2.7,1.1,4.3,0.5s3-3.1,3-3.1L143.8,116.1z"/>
<path style="fill:none;stroke:#7A6AA8;stroke-width:1.9;stroke-miterlimit:10;" d="M104.7,133c7.2,9.2,20.9,11.1,30.5,4.1c5.4-3.9,8.7-10.2,8.7-16.7"/>
<path style="fill:#800040;" d="M100.3,120.4L100.3,120.4l8.7,13.1c0,0-2.7-1.1-4.3-0.5c-1.6,0.6-3,3.1-3,3.1L100.3,120.4z"/>
<path style="fill:#7A6AA8;" d="M100.3,120.4L100.3,120.4l8.7,13.1c0,0-2.7-1.1-4.3-0.5c-1.6,0.6-3,3.1-3,3.1L100.3,120.4z"/>
<path style="fill:none;stroke:#252525;stroke-width:1.9;stroke-miterlimit:10;" d="M196.5,103.6c-7.2-9.2-20.9-11.1-30.5-4.1c-5.4,3.9-8.7,10.2-8.7,16.7"/>
<path style="fill:#22476E;" d="M200.9,116.1L200.9,116.1l-8.7-13.1c0,0,2.7,1.1,4.3,0.5c1.6-0.6,3-3.1,3-3.1L200.9,116.1z"/>
<path style="fill:#252525;" d="M200.9,116.1L200.9,116.1l-8.7-13.1c0,0,2.7,1.1,4.3,0.5c1.6-0.6,3-3.1,3-3.1L200.9,116.1z"/>
<path style="fill:none;stroke:#252525;stroke-width:1.9;stroke-miterlimit:10;" d="M161.7,133c7.2,9.2,20.9,11.1,30.5,4.1c5.4-3.9,8.7-10.2,8.7-16.7"/>
<path style="fill:#22476E;" d="M157.3,120.4L157.3,120.4l8.7,13.1c0,0-2.7-1.1-4.3-0.5c-1.6,0.6-3,3.1-3,3.1L157.3,120.4z"/>
<path style="fill:#252525;" d="M157.3,120.4L157.3,120.4l8.7,13.1c0,0-2.7-1.1-4.3-0.5c-1.6,0.6-3,3.1-3,3.1L157.3,120.4z"/>
<path style="fill:none;stroke:#EC9533;stroke-width:1.9;stroke-miterlimit:10;" d="M253.4,103.6c-7.2-9.2-20.9-11.1-30.5-4.1c-5.4,3.9-8.7,10.2-8.7,16.7"/>
<path style="fill:#D67C0B;" d="M257.8,116.1L257.8,116.1l-8.7-13.1c0,0,2.7,1.1,4.3,0.5c1.6-0.6,3-3.1,3-3.1L257.8,116.1z"/>
<path style="fill:#EC9533;" d="M257.8,116.1L257.8,116.1l-8.7-13.1c0,0,2.7,1.1,4.3,0.5c1.6-0.6,3-3.1,3-3.1L257.8,116.1z"/>
<path style="fill:none;stroke:#EC9533;stroke-width:1.9;stroke-miterlimit:10;" d="M218.6,133c7.2,9.2,20.9,11.1,30.5,4.1c5.4-3.9,8.7-10.2,8.7-16.7"/>
<path style="fill:#D67C0B;" d="M214.3,120.4L214.3,120.4l8.7,13.1c0,0-2.7-1.1-4.3-0.5c-1.6,0.6-3,3.1-3,3.1L214.3,120.4z"/>
<path style="fill:#EC9533;" d="M214.3,120.4L214.3,120.4l8.7,13.1c0,0-2.7-1.1-4.3-0.5c-1.6,0.6-3,3.1-3,3.1L214.3,120.4z"/>
<path style="fill:none;stroke:#3B97C8;stroke-width:1.9;stroke-miterlimit:10;" d="M310.4,103.6c-7.2-9.2-20.9-11.1-30.5-4.1c-5.4,3.9-8.7,10.2-8.7,16.7"/>
<path style="fill:#004080;" d="M314.8,116.1L314.8,116.1l-8.7-13.1c0,0,2.7,1.1,4.3,0.5c1.6-0.6,3-3.1,3-3.1L314.8,116.1z"/>
<path style="fill:#3B97C8;" d="M314.8,116.1L314.8,116.1l-8.7-13.1c0,0,2.7,1.1,4.3,0.5c1.6-0.6,3-3.1,3-3.1L314.8,116.1z"/>
<path style="fill:none;stroke:#3B97C8;stroke-width:1.9;stroke-miterlimit:10;" d="M275.6,133c7.2,9.2,20.9,11.1,30.5,4.1c5.4-3.9,8.7-10.2,8.7-16.7"/>
<path style="fill:#004080;" d="M271.2,120.4L271.2,120.4l8.7,13.1c0,0-2.7-1.1-4.3-0.5c-1.6,0.6-3,3.1-3,3.1L271.2,120.4z"/>
<path style="fill:#3B97C8;" d="M271.2,120.4L271.2,120.4l8.7,13.1c0,0-2.7-1.1-4.3-0.5c-1.6,0.6-3,3.1-3,3.1L271.2,120.4z"/>
<g>
	<path d="M110.9,111.8h3v13.7h-3V111.8z"/>
	<path d="M132.7,119v6.6h-2.8v-6.1c0-1.2-0.8-2-1.8-2c-1.2,0-2,0.8-2,1.9v6.3h-2.8v-6.1c0-1.2-0.8-2-1.8-2c-1.2,0-2,0.8-2,1.9v6.2
		h-2.9v-10.3h2.9v1.4c0.5-1,1.5-1.6,2.8-1.6c1.4,0,2.6,0.7,3.3,1.9c0.5-1.1,1.8-1.9,3.4-1.9C131,115,132.7,116.6,132.7,119z"/>
</g>
<g>
	<path d="M171.2,114.1v2.7h6.9v2.7h-6.9v3h7.6v2.7h-10.6v-13.7h10.6v2.7H171.2z"/>
	<path d="M190.8,118.6v6.6H188v-6c0-1.3-0.8-2.2-2-2.2c-1.2,0-2.2,0.9-2.2,2l0-0.1v6.2h-2.9v-10.3h2.9v1.3c0.6-0.9,1.8-1.5,3.1-1.5
		C189.2,114.6,190.8,116.3,190.8,118.6z"/>
</g>
<g>
	<path d="M223.4,118.8c0-3.9,3.4-7.1,7.3-7.1c2.1,0,4,0.9,5.3,2.3l-2.1,1.9c-0.8-0.9-1.9-1.5-3.2-1.5c-2.3,0-4.3,2-4.3,4.4
		c0,2.4,2,4.4,4.3,4.4c1.3,0,2.4-0.6,3.2-1.5l2.1,1.9c-1.3,1.4-3.3,2.3-5.3,2.3C226.8,126,223.4,122.7,223.4,118.8z"/>
	<path d="M247.6,115.4v10.3h-2.9v-1.3c-0.6,0.9-1.8,1.5-3.1,1.5c-2.2,0-3.8-1.7-3.8-4v-6.6h2.8v6c0,1.3,0.8,2.2,2,2.2
		c1.2,0,2.2-0.9,2.2-2l0,0.1v-6.2H247.6z"/>
</g>
<g>
	<path d="M282.9,111.8h3v13.7h-3V111.8z"/>
	<path d="M304.7,119v6.6h-2.8v-6.1c0-1.2-0.8-2-1.8-2c-1.2,0-2,0.8-2,1.9v6.3h-2.8v-6.1c0-1.2-0.8-2-1.8-2c-1.2,0-2,0.8-2,1.9v6.2
		h-2.9v-10.3h2.9v1.4c0.5-1,1.5-1.6,2.8-1.6c1.4,0,2.6,0.7,3.3,1.9c0.5-1.1,1.8-1.9,3.4-1.9C303,115,304.7,116.6,304.7,119z"/>
</g>
<circle cx="202" cy="208" r="197.8" stroke="#7A6AA8" fill="none" stroke-width="9" style="stroke-dasharray: 1215 1600; stroke-dashoffset: 276; transform-origin: 50%; transform: rotate(-46deg);"></circle>
<g>
	<path d="M88.3,37.8l-4.6,3.1L81.7,38l12.5-8.2l1.9,2.9l-4.6,3.1l7.9,12l-3.2,2.1L88.3,37.8z"/>
	<path d="M100.9,36.1c-2.4-4.4-0.5-10.2,4.1-12.6c4.6-2.4,10.4-0.7,12.7,3.7c2.4,4.4,0.5,10.2-4.1,12.6
		C109.1,42.2,103.2,40.5,100.9,36.1z M114.2,29c-1.4-2.7-4.9-3.9-7.6-2.5c-2.6,1.4-3.7,4.9-2.2,7.7c1.5,2.8,5,3.9,7.6,2.5
		C114.6,35.3,115.7,31.8,114.2,29z"/>
	<path d="M123.5,18.8l-5.2,2.1l-1.3-3.2l13.9-5.7l1.3,3.2l-5.2,2.1l5.4,13.3l-3.6,1.5L123.5,18.8z"/>
	<path d="M149.7,21.9l-7.6,2.3l-0.3,3l-4.1,1.3l1.7-19.2l4.1-1.3L155.7,23l-4.1,1.3L149.7,21.9z M147.5,19.2l-4.4-5.5l-0.6,7
		L147.5,19.2z"/>
	<path d="M169.7,16.6l0.7,3.4l-12.5,2.6l-3.6-17.5l3.8-0.8l2.9,14.1L169.7,16.6z"/>
	<path d="M179.4,16l2-2.8c1.8,1.3,3.8,2,6,1.9c1.9-0.2,2.8-1.1,2.7-2.2c-0.1-1.3-1.2-1.6-3.9-2c-3.8-0.6-6.6-1.4-6.9-4.9
		c-0.3-3.3,2.3-5.8,6.1-6.1c2.9-0.2,5.2,0.5,7.2,1.9l-1.8,2.9c-1.7-1.1-3.5-1.7-5.2-1.6c-1.6,0.1-2.5,1.1-2.5,2.1
		c0.1,1.3,1.2,1.6,4,2c3.9,0.5,6.5,1.5,6.8,4.8c0.3,3.4-2.1,5.9-6.5,6.2C184.5,18.6,181.6,17.8,179.4,16z"/>
	<path d="M202.9,11l-6.8-11.5l4.5,0.1l4.3,7.9l4.8-7.8l4.3,0.1L206.8,11l-0.1,6.4l-3.9-0.1L202.9,11z"/>
	<path d="M217.8,0l3.8,0.4l7.3,12.4l1.3-11.5l3.8,0.4l-2,17.7l-3.8-0.4l-7.3-12.4l-1.3,11.5l-3.8-0.4L217.8,0z"/>
	<path d="M243.4,7.1L238,5.9l0.7-3.4l14.7,3.1L252.6,9l-5.4-1.2l-3,14.1l-3.8-0.8L243.4,7.1z"/>
	<path d="M272.8,11.5l-5.4,17l-3.6-1.1l2.2-7l-7.8-2.4l-2.2,7l-3.6-1.1l5.4-17l3.6,1.1l-2.1,6.7l7.8,2.4l2.1-6.7L272.8,11.5z"/>
	<path d="M280.1,18.2l-1.4,3.3l8.3,3.5l-1.3,3.2l-8.3-3.5l-1.5,3.6l9.1,3.9l-1.3,3.2l-12.7-5.4l7-16.4l12.7,5.4l-1.3,3.2L280.1,18.2
		z"/>
	<path d="M286.7,33.8l3.2-1.3c0.8,2.1,2.1,3.8,4.1,4.8c1.7,0.9,3,0.6,3.5-0.4c0.6-1.1-0.1-2-2.3-3.8c-2.9-2.5-4.8-4.7-3.2-7.8
		c1.6-2.9,5-3.6,8.4-1.8c2.6,1.4,4.1,3.2,5,5.5l-3.1,1.5c-0.8-1.9-2.1-3.3-3.6-4.1c-1.4-0.8-2.7-0.5-3.2,0.5c-0.6,1.1,0.1,2,2.3,3.9
		c3,2.6,4.7,4.8,3.2,7.7c-1.6,3-4.9,3.8-8.8,1.7C289.5,38.7,287.6,36.5,286.7,33.8z"/>
	<path d="M310.6,29.7l3.3,2l-9.4,15.2l-3.3-2L310.6,29.7z"/>
	<path d="M308.4,46.1l3.3-0.9c0.5,2.2,1.6,4,3.4,5.3c1.6,1.1,2.9,1,3.5,0.1c0.7-1,0.1-2-1.7-4.1c-2.6-2.9-4.1-5.3-2.1-8.1
		c1.9-2.7,5.4-3,8.6-0.7c2.4,1.7,3.7,3.7,4.3,6.1l-3.2,1.1c-0.6-2-1.6-3.6-3-4.6c-1.3-1-2.6-0.8-3.3,0c-0.8,1.1-0.1,2,1.8,4.1
		c2.6,2.9,4,5.3,2.1,8c-2,2.8-5.4,3.1-8.9,0.6C310.6,51.3,309,48.9,308.4,46.1z"/>
</g>
</svg>
